<?xml version="1.0" standalone="no"?>
<!DOCTYPE svg PUBLIC "-//W3C//DTD SVG 1.1//EN" "http://www.w3.org/Graphics/SVG/1.1/DTD/svg11.dtd" >
<svg xmlns="http://www.w3.org/2000/svg" xmlns:xlink="http://www.w3.org/1999/xlink" version="1.1">
<metadata>
Created by FontForge 20170731 at Wed Jun 13 11:47:14 2018
 By Aleksey,,,
Monkey Type &#38; Mitch Paone 2016
</metadata>
<defs>
<font id="BananaGrotesk-Regular" horiz-adv-x="0" >
  <font-face 
    font-family="Banana Grotesk"
    font-weight="400"
    font-stretch="normal"
    units-per-em="1000"
    panose-1="0 0 5 0 0 0 0 0 0 0"
    ascent="800"
    descent="-200"
    x-height="502"
    cap-height="700"
    bbox="-340 -283 1101 920"
    underline-thickness="50"
    underline-position="-200"
    unicode-range="U+0020-25CA"
  />
<missing-glyph horiz-adv-x="918" 
d="M459 715q187 0 308 -121t121 -308t-121 -308t-308 -121t-308 121t-121 308t121 308t308 121zM559 246q35 26 51.5 42t31.5 44.5t15 63.5q0 80 -52.5 128t-140.5 48q-92 0 -147 -51t-55 -136q0 -47 21 -84l97 40q-8 22 -8 49q0 36 25 58t66 22q37 0 59 -21t22 -55
q0 -53 -74 -111q-34 -27 -47 -52.5t-9 -60.5h96q2 26 11 39.5t38 36.5zM521 0v115h-117v-115h117z" />
    <glyph glyph-name=".notdef" horiz-adv-x="918" 
d="M459 715q187 0 308 -121t121 -308t-121 -308t-308 -121t-308 121t-121 308t121 308t308 121zM559 246q35 26 51.5 42t31.5 44.5t15 63.5q0 80 -52.5 128t-140.5 48q-92 0 -147 -51t-55 -136q0 -47 21 -84l97 40q-8 22 -8 49q0 36 25 58t66 22q37 0 59 -21t22 -55
q0 -53 -74 -111q-34 -27 -47 -52.5t-9 -60.5h96q2 26 11 39.5t38 36.5zM521 0v115h-117v-115h117z" />
    <glyph glyph-name=".null" 
 />
    <glyph glyph-name="nonmarkingreturn" horiz-adv-x="333" 
 />
    <glyph glyph-name="space" unicode=" " horiz-adv-x="204" 
 />
    <glyph glyph-name="exclam" unicode="!" horiz-adv-x="237" 
d="M84 193l-17 507h104l-17 -507h-70zM64 0v108h109v-108h-109z" />
    <glyph glyph-name="quotedbl" unicode="&#x22;" horiz-adv-x="347" 
d="M44 477v222h87v-222h-87zM216 477v222h87v-222h-87z" />
    <glyph glyph-name="numbersign" unicode="#" horiz-adv-x="663" 
d="M611 408h-110l-41 -174h120l-13 -68h-123l-39 -166h-77l39 166h-140l-39 -166h-78l39 166h-109l13 68h112l42 174h-124l13 68h127l39 165h77l-39 -165h140l39 165h77l-39 -165h106zM383 234l41 174h-140l-41 -174h140z" />
    <glyph glyph-name="dollar" unicode="$" horiz-adv-x="628" 
d="M582 198q0 -88 -62 -142.5t-167 -63.5v-88h-69v87q-98 6 -159 57.5t-78 140.5l84 23q14 -62 53.5 -98.5t99.5 -44.5v250q-47 10 -77.5 20t-64 30.5t-50 55.5t-16.5 85q0 82 56.5 136.5t151.5 63.5v87h69v-87q79 -8 133.5 -52.5t75.5 -116.5l-84 -25q-31 95 -125 115v-237
q36 -7 56.5 -12t51.5 -15t49 -23t36.5 -33t27 -48.5t8.5 -64.5zM163 518q0 -48 31 -72.5t90 -38.5v226q-55 -7 -88 -38.5t-33 -76.5zM353 69q64 8 101.5 39.5t37.5 78.5q0 53 -35.5 78.5t-103.5 40.5v-237z" />
    <glyph glyph-name="percent" unicode="%" horiz-adv-x="822" 
d="M191 333q-67 0 -107 50.5t-40 137.5t40 138t107 51q68 0 107.5 -50.5t39.5 -138.5q0 -87 -39.5 -137.5t-107.5 -50.5zM195 1l347 699h79l-346 -699h-80zM191 394q36 0 56.5 33.5t20.5 93.5q0 61 -20.5 94.5t-56.5 33.5t-56.5 -33.5t-20.5 -94.5q0 -60 20.5 -93.5
t56.5 -33.5zM631 -11q-67 0 -107 50.5t-40 137.5t40 138t107 51t107 -51t40 -138t-40 -137.5t-107 -50.5zM631 50q36 0 56.5 33.5t20.5 93.5q0 61 -20.5 94.5t-56.5 33.5t-56.5 -33.5t-20.5 -94.5q0 -60 20.5 -93.5t56.5 -33.5z" />
    <glyph glyph-name="ampersand" unicode="&#x26;" horiz-adv-x="657" 
d="M635 77l-15 -75q-91 12 -172 51q-80 -63 -183 -63q-100 0 -164 57.5t-64 149.5q0 111 115 188q-18 60 -18 121q0 102 48 153t124 51q70 0 111 -41t41 -102q0 -21 -6 -41t-13.5 -35t-24 -31.5t-26.5 -25.5t-33.5 -23.5t-32.5 -19.5t-34.5 -18t-30.5 -16q-2 -2 -4 -2
q57 -125 183 -206q56 67 71 166l76 -13q-15 -108 -77 -191q65 -27 129 -34zM307 640q-39 0 -64.5 -32.5t-25.5 -99.5q0 -43 10 -80q90 47 114 67q36 32 36 71q0 31 -18.5 52.5t-51.5 21.5zM268 64q56 0 107 31q-129 85 -193 215q-61 -48 -61 -112q0 -60 41.5 -97t105.5 -37z
" />
    <glyph glyph-name="quotesingle" unicode="'" horiz-adv-x="176" 
d="M44 477v222h87v-222h-87z" />
    <glyph glyph-name="parenleft" unicode="(" horiz-adv-x="346" 
d="M246 -246q-92 98 -141 227t-49 269q0 134 47.5 253t142.5 242l61 -45q-80 -116 -119.5 -223t-39.5 -227q0 -125 41 -242t118 -208z" />
    <glyph glyph-name="parenright" unicode=")" horiz-adv-x="346" 
d="M101 -246l-62 46q77 91 118 208t41 242q0 120 -39.5 227t-119.5 223l62 45q95 -123 142 -242t47 -253q0 -139 -49 -268t-140 -228z" />
    <glyph glyph-name="asterisk" unicode="*" horiz-adv-x="476" 
d="M153 332l-62 45l83 116l-134 43l24 74l135 -44v141h78v-140l135 44l24 -74l-136 -44l84 -115l-62 -46l-84 115z" />
    <glyph glyph-name="plus" unicode="+" horiz-adv-x="600" 
d="M550 389v-77h-209v-211h-82v211h-209v77h209v212h82v-212h209z" />
    <glyph glyph-name="comma" unicode="," horiz-adv-x="235" 
d="M64 107h108v-137q0 -41 -22.5 -64.5t-60.5 -23.5q-36 0 -59 16l20 33q16 -10 40 -10q16 0 26 11.5t10 30.5v37h-62v107z" />
    <glyph glyph-name="hyphen" unicode="-" horiz-adv-x="391" 
d="M56 249v83h280v-83h-280z" />
    <glyph glyph-name="period" unicode="." horiz-adv-x="234" 
d="M63 0v108h108v-108h-108z" />
    <glyph glyph-name="slash" unicode="/" horiz-adv-x="484" 
d="M10 -200l369 900h95l-369 -900h-95z" />
    <glyph glyph-name="zero" unicode="0" horiz-adv-x="647" 
d="M324 -10q-129 0 -198.5 93.5t-69.5 266.5q0 175 69.5 268.5t198.5 93.5t198 -93.5t69 -268.5q0 -173 -69 -266.5t-198 -93.5zM324 73q83 0 128 72t45 205q0 135 -45 207t-128 72t-128 -72t-45 -207q0 -133 45 -205t128 -72z" />
    <glyph glyph-name="one" unicode="1" horiz-adv-x="359" 
d="M190 700h79v-700h-94v551q-52 -62 -157 -71v89q129 10 172 131z" />
    <glyph glyph-name="two" unicode="2" horiz-adv-x="573" 
d="M181 83h341v-83h-474v78l188 136q185 133 185 271q0 66 -38 105t-102 39q-65 0 -103.5 -38t-38.5 -102q0 -37 13 -73l-84 -28q-19 48 -19 103q0 100 64.5 160.5t171.5 60.5q105 0 168 -60.5t63 -161.5q0 -170 -214 -321z" />
    <glyph glyph-name="three" unicode="3" horiz-adv-x="569" 
d="M387 368q139 -41 139 -178q0 -91 -66.5 -145.5t-176.5 -54.5q-103 0 -167.5 48.5t-78.5 137.5l87 15q28 -120 161 -120q67 0 107 34t40 91q0 62 -44 95t-124 33h-43v80h37q72 0 110.5 28.5t38.5 83.5q0 53 -34.5 84.5t-92.5 31.5q-56 0 -91.5 -33t-46.5 -91l-85 14
q9 88 70 139t158 51q98 0 157 -51t59 -137q0 -119 -114 -156z" />
    <glyph glyph-name="four" unicode="4" horiz-adv-x="576" 
d="M550 232v-81h-91v-151h-92v151h-341v80l337 469h96v-468h91zM369 571l-242 -339h242v339z" />
    <glyph glyph-name="five" unicode="5" horiz-adv-x="608" 
d="M323 467q100 0 163.5 -65.5t63.5 -170.5q0 -108 -69 -174.5t-180 -66.5q-84 0 -145 41.5t-86 111.5l81 33q45 -103 154 -103q68 0 109.5 43t41.5 114t-42.5 115.5t-110.5 44.5q-55 0 -94 -29t-55 -74l-83 20l55 393h388v-82h-314l-30 -211q60 60 153 60z" />
    <glyph glyph-name="six" unicode="6" horiz-adv-x="603" 
d="M332 454q100 0 164.5 -64.5t64.5 -164.5q0 -103 -66.5 -169t-173.5 -66q-124 0 -194.5 93t-70.5 264q0 170 72.5 267.5t194.5 97.5q170 0 220 -181l-77 -24q-40 124 -142 124q-82 0 -130 -73.5t-47 -206.5v-1q26 50 74.5 77t110.5 27zM320 71q67 0 107 42.5t40 111.5
q0 67 -42 110t-107 43q-64 0 -105.5 -43t-41.5 -110q0 -68 42 -111t107 -43z" />
    <glyph glyph-name="seven" unicode="7" horiz-adv-x="531" 
d="M28 700h474v-74q-126 -150 -178 -275t-52 -301v-50h-94v49q0 164 53.5 298.5t168.5 270.5h-277v-79h-95v161z" />
    <glyph glyph-name="eight" unicode="8" horiz-adv-x="580" 
d="M405 365q62 -22 97 -67.5t35 -107.5q0 -88 -68 -144t-179 -56q-110 0 -178.5 56t-68.5 144q0 62 35 107.5t97 67.5q-52 21 -80.5 61t-28.5 95q0 84 62 137.5t162 53.5t162 -53.5t62 -137.5q0 -55 -28.5 -95t-80.5 -61zM291 631q-61 0 -97 -32t-36 -85q0 -51 36 -81
t97 -30q60 0 95.5 30t35.5 81q0 53 -36 85t-95 32zM290 71q69 0 111 34.5t42 90.5q0 57 -42 93t-111 36t-111 -36t-42 -93q0 -56 42 -90.5t111 -34.5z" />
    <glyph glyph-name="nine" unicode="9" horiz-adv-x="603" 
d="M282 712q124 0 194 -93t70 -262q0 -171 -72 -269t-194 -98q-172 0 -220 181l76 26q40 -126 143 -126q82 0 129.5 73.5t46.5 206.5q-56 -103 -185 -103q-101 0 -165 64.5t-64 165.5q0 102 67.5 168t173.5 66zM285 324q63 0 104.5 43t41.5 110q0 68 -41.5 111t-106.5 43
q-66 0 -107 -42.5t-41 -111.5q0 -67 42.5 -110t107.5 -43z" />
    <glyph glyph-name="colon" unicode=":" horiz-adv-x="234" 
d="M63 395v107h108v-107h-108zM63 0v107h108v-107h-108z" />
    <glyph glyph-name="semicolon" unicode=";" horiz-adv-x="235" 
d="M64 502h108v-107h-108v107zM64 0v107h108v-137q0 -41 -22.5 -64.5t-60.5 -23.5q-36 0 -59 16l20 33q16 -10 40 -10q16 0 26 11.5t10 30.5v37h-62z" />
    <glyph glyph-name="less" unicode="&#x3c;" horiz-adv-x="600" 
d="M519 584v-85l-354 -148l354 -148v-85l-448 194v78z" />
    <glyph glyph-name="equal" unicode="=" horiz-adv-x="600" 
d="M50 403v78h500v-78h-500zM50 222v78h500v-78h-500z" />
    <glyph glyph-name="greater" unicode="&#x3e;" horiz-adv-x="600" 
d="M81 584l448 -194v-78l-448 -194v85l354 148l-354 148v85z" />
    <glyph glyph-name="question" unicode="?" horiz-adv-x="575" 
d="M256 180q-5 56 15.5 88.5t83.5 82.5q86 69 86 144q0 62 -40 99t-107 37q-70 0 -112.5 -40t-42.5 -106q0 -40 14 -73l-80 -34q-24 48 -24 104q0 105 67 167.5t180 62.5q108 0 173 -58.5t65 -155.5q0 -60 -27 -103.5t-87 -88.5q-47 -34 -66 -58.5t-21 -67.5h-77zM239 0v108
h109v-108h-109z" />
    <glyph glyph-name="at" unicode="@" horiz-adv-x="964" 
d="M505 -142q-200 0 -329.5 120t-129.5 309q0 192 131 319.5t325 127.5q178 0 297 -107.5t119 -271.5q0 -124 -66.5 -207.5t-160.5 -83.5q-88 0 -100 72q-56 -80 -148 -80q-79 0 -128.5 57.5t-49.5 149.5q0 106 63.5 179t155.5 73q101 0 138 -105l21 96h73l-57 -283
q-2 -9 -6 -36q-2 -27 7 -41.5t38 -14.5q62 0 102.5 68t40.5 156q0 134 -95.5 222t-241.5 88q-162 0 -270.5 -107.5t-108.5 -270.5q0 -161 107 -260.5t276 -99.5q126 0 259 64l29 -66q-149 -67 -291 -67zM451 126q58 0 100 55.5t42 131.5q0 60 -28 96.5t-76 36.5
q-59 0 -101 -51.5t-42 -129.5q0 -63 29 -101t76 -38z" />
    <glyph glyph-name="A" unicode="A" horiz-adv-x="698" 
d="M579 0l-63 164h-334l-63 -164h-100l280 700h101l279 -700h-100zM213 243h272l-136 353z" />
    <glyph glyph-name="B" unicode="B" horiz-adv-x="646" 
d="M484 365q57 -20 88 -64.5t31 -106.5q0 -87 -60.5 -140.5t-161.5 -53.5h-302v700h288q97 0 157 -50t60 -131q0 -53 -26 -93t-74 -61zM490 509q0 50 -34 80t-91 30h-191v-220h191q57 0 91 30.5t34 79.5zM375 81q62 0 98 33t36 87t-36.5 86.5t-99.5 32.5h-199v-239h201z" />
    <glyph glyph-name="C" unicode="C" horiz-adv-x="728" 
d="M389 -10q-152 0 -247.5 100t-95.5 259q0 158 97 260.5t243 102.5q107 0 183.5 -54t110.5 -153l-81 -28q-26 73 -81 112.5t-133 39.5q-106 0 -175 -78.5t-69 -201.5q0 -122 70 -199t181 -77q80 0 137.5 42t83.5 118l78 -28q-33 -101 -112 -158t-190 -57z" />
    <glyph glyph-name="D" unicode="D" horiz-adv-x="718" 
d="M337 700q154 0 244.5 -94.5t90.5 -256.5q0 -161 -91 -255t-244 -94h-258v700h258zM333 83q110 0 177 72t67 194t-67 195.5t-177 73.5h-159v-535h159z" />
    <glyph glyph-name="E" unicode="E" horiz-adv-x="593" 
d="M174 83h375v-83h-470v700h465v-82h-370v-219h334v-82h-334v-234z" />
    <glyph glyph-name="F" unicode="F" horiz-adv-x="568" 
d="M529 618h-355v-245h314v-83h-314v-290h-95v700h450v-82z" />
    <glyph glyph-name="G" unicode="G" horiz-adv-x="754" 
d="M375 356h309v-356h-79v99q-67 -109 -222 -109q-141 0 -239 100t-98 258q0 160 96 262t244 102q105 0 181.5 -52.5t112.5 -142.5l-80 -32q-28 68 -83.5 106t-131.5 38q-106 0 -175 -78.5t-69 -201.5q0 -122 72.5 -199t182.5 -77q90 0 146.5 51t60.5 136l-1 18h-227v78z
" />
    <glyph glyph-name="H" unicode="H" horiz-adv-x="714" 
d="M540 700h94v-700h-94v317h-366v-317h-95v700h95v-301h366v301z" />
    <glyph glyph-name="I" unicode="I" horiz-adv-x="253" 
d="M79 0v700h95v-700h-95z" />
    <glyph glyph-name="J" unicode="J" horiz-adv-x="550" 
d="M256 -10q-101 0 -158.5 60t-57.5 165v56h90v-45q0 -73 34 -112.5t95 -39.5q58 0 91 37t33 102v487h95v-478q0 -108 -59.5 -170t-162.5 -62z" />
    <glyph glyph-name="K" unicode="K" horiz-adv-x="655" 
d="M521 0l-218 361l-129 -136v-225h-95v700h95v-351l329 351h121l-255 -269l265 -431h-113z" />
    <glyph glyph-name="L" unicode="L" horiz-adv-x="563" 
d="M174 83h356v-83h-451v700h95v-617z" />
    <glyph glyph-name="M" unicode="M" horiz-adv-x="877" 
d="M660 700h137v-700h-91v592l-219 -592h-99l-217 587v-587h-92v700h138l221 -601z" />
    <glyph glyph-name="N" unicode="N" horiz-adv-x="720" 
d="M548 700h92v-700h-114l-355 584v-584h-92v700h122l347 -570v570z" />
    <glyph glyph-name="O" unicode="O" horiz-adv-x="785" 
d="M393 -10q-151 0 -249 101.5t-98 258.5q0 158 97.5 260t249.5 102q151 0 248.5 -102t97.5 -260q0 -157 -97.5 -258.5t-248.5 -101.5zM393 73q111 0 181.5 78t70.5 199q0 122 -70.5 200.5t-181.5 78.5t-181.5 -78t-70.5 -201q0 -121 70.5 -199t181.5 -78z" />
    <glyph glyph-name="P" unicode="P" horiz-adv-x="614" 
d="M348 700q110 0 172.5 -56.5t62.5 -154.5q0 -100 -63 -158t-176 -58h-170v-273h-95v700h269zM348 355q68 0 104.5 34.5t36.5 96.5t-38.5 97t-109.5 35h-167v-263h174z" />
    <glyph glyph-name="Q" unicode="Q" horiz-adv-x="785" 
d="M745 68l-9 -77q-91 7 -165 45q-81 -46 -178 -46q-151 0 -249 101.5t-98 258.5q0 158 97.5 260t249.5 102q151 0 248.5 -102t97.5 -260q0 -156 -97 -258q46 -19 103 -24zM393 73q51 0 99 19q-73 72 -94 179l81 15q19 -90 84 -147q82 79 82 211q0 122 -70.5 200.5
t-181.5 78.5t-181.5 -78t-70.5 -201q0 -121 70.5 -199t181.5 -78z" />
    <glyph glyph-name="R" unicode="R" horiz-adv-x="646" 
d="M559 184l40 -184h-95l-36 166q-15 67 -52 96.5t-105 29.5h-137v-292h-95v700h281q103 0 164.5 -53.5t61.5 -143.5q0 -66 -34.5 -113.5t-96.5 -68.5q82 -34 104 -137zM174 373h183q61 0 98 33.5t37 88.5q0 56 -36.5 89.5t-97.5 33.5h-184v-245z" />
    <glyph glyph-name="S" unicode="S" horiz-adv-x="609" 
d="M301 -10q-105 0 -174 52.5t-90 144.5l82 25q18 -69 66.5 -105.5t121.5 -36.5q78 0 125.5 32t47.5 85q0 40 -23 65t-59.5 36.5t-80.5 19.5t-88 19t-80.5 29.5t-59.5 57t-23 96.5q0 90 67 146t176 56q93 0 156 -45.5t87 -125.5l-84 -25q-19 54 -62 85t-103 31
q-67 0 -107.5 -32t-40.5 -82q0 -45 31 -71.5t77 -34.5t100.5 -20t100.5 -27.5t77 -57.5t31 -109q0 -96 -74 -152t-197 -56z" />
    <glyph glyph-name="T" unicode="T" horiz-adv-x="630" 
d="M612 700v-82h-250v-618h-94v618h-250v82h594z" />
    <glyph glyph-name="U" unicode="U" horiz-adv-x="691" 
d="M344 -10q-125 0 -198 76t-73 208v426h94v-421q0 -96 48.5 -151t131.5 -55q81 0 129 55t48 151v421h94v-425q0 -133 -73.5 -209t-200.5 -76z" />
    <glyph glyph-name="V" unicode="V" horiz-adv-x="673" 
d="M560 700h100l-267 -700h-106l-273 700h102l225 -597z" />
    <glyph glyph-name="W" unicode="W" horiz-adv-x="1022" 
d="M906 700h97l-203 -700h-114l-174 592l-177 -592h-113l-203 700h101l164 -588l168 588h122l171 -593z" />
    <glyph glyph-name="X" unicode="X" horiz-adv-x="653" 
d="M632 0h-115l-195 280l-193 -280h-108l247 357l-239 343h113l189 -270l185 270h108l-240 -346z" />
    <glyph glyph-name="Y" unicode="Y" horiz-adv-x="626" 
d="M508 700h104l-253 -416v-284h-95v284l-250 416h104l196 -332z" />
    <glyph glyph-name="Z" unicode="Z" horiz-adv-x="621" 
d="M164 83h412v-83h-527v79l410 539h-401v82h514v-78z" />
    <glyph glyph-name="bracketleft" unicode="[" horiz-adv-x="292" 
d="M272 706h-103v-912h103v-77h-192v1066h192v-77z" />
    <glyph glyph-name="backslash" unicode="\" horiz-adv-x="484" 
d="M474 -200h-95l-369 900h96z" />
    <glyph glyph-name="bracketright" unicode="]" horiz-adv-x="292" 
d="M20 783h192v-1066h-192v77h103v912h-103v77z" />
    <glyph glyph-name="asciicircum" unicode="^" horiz-adv-x="410" 
d="M370 441h-69l-96 176l-96 -176h-69l114 259h102z" />
    <glyph glyph-name="underscore" unicode="_" horiz-adv-x="608" 
d="M50 -89v71h508v-71h-508z" />
    <glyph glyph-name="grave" unicode="`" horiz-adv-x="322" 
d="M177 566l-97 129h108l54 -129h-65z" />
    <glyph glyph-name="a" unicode="a" horiz-adv-x="526" 
d="M257 514q95 0 151.5 -55.5t56.5 -146.5v-312h-84v88q-50 -98 -161 -98q-70 0 -114 39t-44 104q0 61 42.5 98t134.5 54l137 26q-2 58 -35 90.5t-88 32.5q-105 0 -136 -112l-73 22q14 77 71.5 123.5t141.5 46.5zM237 57q61 0 100 47.5t39 121.5v15l-105 -19
q-63 -12 -91 -33t-28 -57q0 -35 23.5 -55t61.5 -20z" />
    <glyph glyph-name="b" unicode="b" horiz-adv-x="603" 
d="M334 514q102 0 165 -73t63 -189t-63 -189t-165 -73q-117 0 -173 94v-84h-90v700h90v-280q56 94 173 94zM317 66q70 0 112.5 51.5t42.5 134.5t-42.5 134.5t-112.5 51.5t-113 -51.5t-43 -134.5t43 -134.5t113 -51.5z" />
    <glyph glyph-name="c" unicode="c" horiz-adv-x="545" 
d="M288 -10q-110 0 -178.5 71t-68.5 186q0 117 70 192t178 75q82 0 137.5 -41.5t77.5 -115.5l-78 -24q-34 105 -138 105q-68 0 -112.5 -52t-44.5 -134t44.5 -134t113.5 -52q103 0 148 103l72 -27q-26 -70 -84 -111t-137 -41z" />
    <glyph glyph-name="d" unicode="d" horiz-adv-x="605" 
d="M444 700h90v-700h-90v79q-56 -89 -168 -89q-106 0 -170.5 72.5t-64.5 189.5q0 116 64.5 189t170.5 73q113 0 168 -89v275zM288 66q71 0 113.5 51.5t42.5 134.5t-42.5 134.5t-113.5 51.5q-70 0 -113.5 -51.5t-43.5 -134.5t43.5 -134.5t113.5 -51.5z" />
    <glyph glyph-name="e" unicode="e" horiz-adv-x="552" 
d="M286 514q112 0 173.5 -81t49.5 -202h-380q4 -79 51 -123t114 -44q98 0 148 88l61 -38q-31 -57 -86 -90.5t-125 -33.5q-107 0 -179 71.5t-72 188.5q0 116 69 190t176 74zM284 442q-61 0 -103 -39t-49 -102h293q-5 63 -43 102t-98 39z" />
    <glyph glyph-name="f" unicode="f" horiz-adv-x="333" 
d="M187 569v-67h121v-76h-121v-426h-90v426h-80v76h80v63q0 65 40 105t105 40q76 0 110 -64l-61 -37q-18 26 -48 26q-26 0 -41 -17.5t-15 -48.5z" />
    <glyph glyph-name="g" unicode="g" horiz-adv-x="608" 
d="M449 502h90v-441q0 -125 -70 -198t-189 -73q-93 0 -157.5 45.5t-89.5 126.5l72 27q45 -122 178 -122q78 0 122 48t44 134v41q-59 -83 -169 -83q-102 0 -170 71.5t-68 180.5q0 111 68.5 183t171.5 72q108 0 167 -84v72zM291 83q69 0 113.5 50t44.5 127q0 78 -44.5 128
t-113.5 50q-70 0 -114 -50t-44 -128q0 -77 44 -127t114 -50z" />
    <glyph glyph-name="h" unicode="h" horiz-adv-x="576" 
d="M331 514q84 0 134 -54t50 -143v-317h-90v306q0 61 -31 96.5t-85 35.5q-64 0 -106 -52.5t-42 -147.5v-238h-90v700h90v-289q55 103 170 103z" />
    <glyph glyph-name="i" unicode="i" horiz-adv-x="227" 
d="M65 605v99h96v-99h-96zM68 0v502h90v-502h-90z" />
    <glyph glyph-name="j" unicode="j" horiz-adv-x="233" 
d="M72 605v99h96v-99h-96zM24 -210q-66 0 -105 46l48 52q23 -23 52 -23q26 0 41 19.5t15 52.5v565h90v-557q0 -70 -38.5 -112.5t-102.5 -42.5z" />
    <glyph glyph-name="k" unicode="k" horiz-adv-x="533" 
d="M416 0l-153 254l-102 -107v-147h-90v700h90v-438l230 240h112l-178 -185l195 -317h-104z" />
    <glyph glyph-name="l" unicode="l" horiz-adv-x="233" 
d="M71 0v700h90v-700h-90z" />
    <glyph glyph-name="m" unicode="m" horiz-adv-x="897" 
d="M654 514q85 0 133.5 -52.5t48.5 -143.5v-318h-90v310q0 59 -28 93.5t-79 34.5q-64 0 -103 -56.5t-39 -160.5v-221h-90v310q0 59 -27.5 93.5t-78.5 34.5q-65 0 -104 -56t-39 -161v-221h-90v502h90v-93q46 105 160 105q122 0 164 -108q54 108 172 108z" />
    <glyph glyph-name="n" unicode="n" horiz-adv-x="573" 
d="M327 514q84 0 134.5 -53t50.5 -144v-317h-90v306q0 61 -31 96.5t-85 35.5q-65 0 -106.5 -52t-41.5 -148v-238h-90v502h90v-90q55 102 169 102z" />
    <glyph glyph-name="o" unicode="o" horiz-adv-x="585" 
d="M292 -10q-109 0 -180 73.5t-71 187.5t71.5 188.5t180.5 74.5t180 -73.5t71 -187.5t-71.5 -188.5t-180.5 -74.5zM293 66q71 0 116 52t45 134t-45.5 134t-116.5 52t-116 -52t-45 -134t45.5 -134t116.5 -52z" />
    <glyph glyph-name="p" unicode="p" horiz-adv-x="600" 
d="M329 514q102 0 166 -72.5t64 -188.5q0 -118 -63.5 -190.5t-166.5 -72.5q-115 0 -171 91v-281h-90v702h90v-81q57 93 171 93zM314 66q70 0 113 51.5t43 134.5t-43 134.5t-113 51.5t-113 -51.5t-43 -134.5t43 -134.5t113 -51.5z" />
    <glyph glyph-name="q" unicode="q" horiz-adv-x="606" 
d="M448 502h90v-702h-90v274q-60 -84 -170 -84q-107 0 -172 72.5t-65 189.5q0 116 65 189t172 73q111 0 170 -84v72zM290 66q71 0 114.5 51.5t43.5 134.5t-43.5 134.5t-114.5 51.5q-72 0 -115.5 -51.5t-43.5 -134.5t43.5 -134.5t115.5 -51.5z" />
    <glyph glyph-name="r" unicode="r" horiz-adv-x="367" 
d="M286 511q37 0 66 -17l-31 -75q-20 10 -45 10q-118 0 -118 -214v-215h-90v502h90v-85q39 94 128 94z" />
    <glyph glyph-name="s" unicode="s" horiz-adv-x="474" 
d="M232 -10q-79 0 -131.5 38t-68.5 107l69 24q31 -98 137 -98q51 0 81.5 20t30.5 53q0 30 -22 47.5t-55 22.5t-71 14t-71 21t-55 44.5t-22 82.5q0 68 52 108t137 40q67 0 113.5 -33t62.5 -91l-71 -24q-28 79 -111 79q-46 0 -73 -19.5t-27 -51.5q0 -31 22 -48.5t55 -23
t71.5 -14.5t71.5 -20.5t55 -43.5t22 -81q0 -70 -55.5 -111.5t-146.5 -41.5z" />
    <glyph glyph-name="t" unicode="t" horiz-adv-x="351" 
d="M296 92l49 -47q-39 -55 -120 -55q-64 0 -98.5 36t-34.5 103v297h-80v76h80v110l90 38v-148h134v-76h-134v-287q0 -74 57 -74q32 0 57 27z" />
    <glyph glyph-name="u" unicode="u" horiz-adv-x="564" 
d="M406 502h90v-502h-90v96q-54 -106 -171 -106q-82 0 -132 52.5t-50 142.5v317h90v-308q0 -59 30 -93.5t83 -34.5q67 0 108.5 56.5t41.5 159.5v220z" />
    <glyph glyph-name="v" unicode="v" horiz-adv-x="507" 
d="M401 502h93l-193 -502h-95l-193 502h95l147 -405z" />
    <glyph glyph-name="w" unicode="w" horiz-adv-x="764" 
d="M659 502h92l-148 -502h-99l-123 398l-120 -398h-99l-149 502h93l111 -399l119 399h94l122 -400z" />
    <glyph glyph-name="x" unicode="x" horiz-adv-x="500" 
d="M483 0h-101l-135 191l-132 -191h-98l180 261l-170 241h101l126 -178l121 178h98l-170 -247z" />
    <glyph glyph-name="y" unicode="y" horiz-adv-x="507" 
d="M401 502h93l-270 -702h-91l81 199l-201 503h94l152 -396z" />
    <glyph glyph-name="z" unicode="z" horiz-adv-x="474" 
d="M142 76h294v-76h-398v72l287 354h-282v76h389v-74z" />
    <glyph glyph-name="braceleft" unicode="{" horiz-adv-x="300" 
d="M202 360q0 -81 -49 -103q49 -22 49 -102v-317q0 -38 31 -38h41v-74h-60q-101 0 -101 107v317q0 43 -8.5 57.5t-38.5 14.5h-25v71h25q30 0 38.5 14.5t8.5 57.5v302q0 107 101 107h60v-74h-41q-31 0 -31 -37v-303z" />
    <glyph glyph-name="bar" unicode="|" horiz-adv-x="254" 
d="M80 -200v900h94v-900h-94z" />
    <glyph glyph-name="braceright" unicode="}" horiz-adv-x="301" 
d="M234 293h25v-71h-25q-30 0 -38.5 -14.5t-8.5 -57.5v-317q0 -107 -100 -107h-61v74h41q31 0 31 38v317q0 80 50 102q-50 22 -50 103v303q0 37 -31 37h-41v74h61q100 0 100 -107v-302q0 -43 8.5 -57.5t38.5 -14.5z" />
    <glyph glyph-name="asciitilde" unicode="~" horiz-adv-x="551" 
d="M365 274q-35 0 -68.5 21.5t-61.5 42.5t-50 21q-57 0 -72 -81h-73q8 73 45.5 116t100.5 43q35 0 68.5 -21.5t61.5 -42.5t50 -21q55 0 72 81h73q-8 -73 -46 -116t-100 -43z" />
    <glyph glyph-name="uni00A0" unicode="&#xa0;" horiz-adv-x="204" 
 />
    <glyph glyph-name="exclamdown" unicode="&#xa1;" horiz-adv-x="237" 
d="M64 479v107h109v-107h-109zM66 -114l18 507h70l18 -507h-106z" />
    <glyph glyph-name="sterling" unicode="&#xa3;" horiz-adv-x="603" 
d="M488 197l82 -19q-13 -86 -67.5 -132t-145.5 -46h-320v79q63 0 100.5 36t37.5 98q0 43 -23 93h-114v76h76q-28 60 -28 124q0 93 60 148.5t158 55.5q90 0 149.5 -48.5t76.5 -134.5l-85 -22q-30 125 -138 125q-57 0 -91.5 -34t-34.5 -91t33 -123h197v-76h-164q14 -42 14 -81
q0 -89 -58 -142h162q100 0 123 114z" />
    <glyph glyph-name="yen" unicode="&#xa5;" horiz-adv-x="620" 
d="M605 700l-210 -344h147v-68h-186v-76h186v-69h-186v-143h-95v143h-183v69h183v76h-183v68h145l-208 344h107l191 -320l187 320h105z" />
    <glyph glyph-name="brokenbar" unicode="&#xa6;" horiz-adv-x="254" 
d="M80 350v350h94v-350h-94zM174 150v-350h-94v350h94z" />
    <glyph glyph-name="section" unicode="&#xa7;" horiz-adv-x="524" 
d="M389 182q99 -35 99 -132q0 -75 -59 -117.5t-167 -42.5q-91 0 -149 36.5t-76 103.5l74 25q29 -92 155 -92q65 0 100.5 21.5t35.5 60.5q0 38 -34.5 57.5t-83.5 28.5t-98.5 21.5t-84 47.5t-34.5 95q0 81 86 126q-96 37 -96 135q0 73 55 114.5t157 41.5q78 0 130.5 -32
t69.5 -88l-72 -25q-30 73 -131 73q-122 0 -122 -80q0 -30 18.5 -49t48 -28.5t65 -16t71 -15.5t65 -23t48 -43.5t18.5 -72.5q0 -83 -89 -130zM147 304q0 -32 24 -53t47.5 -28t75.5 -17q13 -3 19 -4q85 31 85 99q0 15 -4.5 27.5t-15.5 21.5t-20.5 15t-29.5 12t-31.5 8.5
t-36.5 8t-36 7.5q-77 -30 -77 -97z" />
    <glyph glyph-name="dieresis" unicode="&#xa8;" horiz-adv-x="394" 
d="M80 566v100h89v-100h-89zM225 566v100h89v-100h-89z" />
    <glyph glyph-name="copyright" unicode="&#xa9;" horiz-adv-x="780" 
d="M390 -10q-154 0 -257 103t-103 257t103 256.5t257 102.5t257 -102.5t103 -256.5t-103 -257t-257 -103zM390 52q126 0 210 85t84 213q0 127 -84 212t-210 85t-210.5 -85t-84.5 -212t84.5 -212.5t210.5 -85.5zM392 144q-85 0 -140 57.5t-55 146.5q0 91 55.5 149t142.5 58
q62 0 107.5 -34.5t64.5 -92.5l-65 -22q-15 39 -44 61.5t-66 22.5q-53 0 -87 -39t-34 -100q0 -62 34.5 -102t89.5 -40q78 0 111 85l65 -22q-21 -59 -68.5 -93.5t-110.5 -34.5z" />
    <glyph glyph-name="ordfeminine" unicode="&#xaa;" horiz-adv-x="455" 
d="M219 748q80 0 128.5 -46t48.5 -120v-260h-68v77q-42 -85 -141 -85q-60 0 -97 32.5t-37 86.5q0 50 36.5 81t115.5 45l117 20q-1 48 -30 76t-76 28q-93 0 -119 -93l-61 17q12 64 61.5 102.5t121.5 38.5zM201 369q53 0 87 39.5t34 101.5v12l-90 -16q-53 -9 -79.5 -26
t-26.5 -49q0 -29 21 -45.5t54 -16.5z" />
    <glyph glyph-name="guillemotleft" unicode="&#xab;" horiz-adv-x="475" 
d="M227 166l-187 145v79l187 145v-94l-115 -90l115 -90v-95zM434 166l-185 145v79l185 145v-94l-113 -90l113 -90v-95z" />
    <glyph glyph-name="logicalnot" unicode="&#xac;" horiz-adv-x="600" 
d="M50 389h500v-230h-82v153h-418v77z" />
    <glyph glyph-name="uni00AD" unicode="&#xad;" horiz-adv-x="391" 
d="M56 249v83h280v-83h-280z" />
    <glyph glyph-name="registered" unicode="&#xae;" horiz-adv-x="485" 
d="M243 713q85 0 143.5 -58.5t58.5 -146.5q0 -87 -58.5 -145t-143.5 -58q-86 0 -144.5 58t-58.5 145q0 88 59 146.5t144 58.5zM243 342q69 0 115.5 47.5t46.5 119.5t-46.5 119t-115.5 47t-116 -47.5t-47 -118.5q0 -72 47 -119.5t116 -47.5zM299 500q21 -13 26 -39l11 -58
h-47l-7 44q-4 23 -12.5 31.5t-30.5 8.5h-30v-84h-45v213h94q35 0 55 -16t20 -45q0 -41 -34 -55zM209 521h43q33 0 33 31q0 30 -33 30h-43v-61z" />
    <glyph glyph-name="macron" unicode="&#xaf;" horiz-adv-x="416" 
d="M80 566v69h256v-69h-256z" />
    <glyph glyph-name="degree" unicode="&#xb0;" horiz-adv-x="428" 
d="M214 362q-74 0 -124 50t-50 124t50 124t124 50t124 -50t50 -124t-50 -124t-124 -50zM214 433q41 0 69.5 29.5t28.5 73.5q0 43 -28.5 73t-69.5 30q-42 0 -70 -29.5t-28 -73.5t28 -73.5t70 -29.5z" />
    <glyph glyph-name="plusminus" unicode="&#xb1;" horiz-adv-x="600" 
d="M341 408h209v-77h-209v-188h-82v188h-209v77h209v200h82v-200zM50 0v78h500v-78h-500z" />
    <glyph glyph-name="uni00B2" unicode="&#xb2;" horiz-adv-x="419" 
d="M161 344h218v-64h-334v59l123 70q135 74 135 150q0 40 -25.5 63t-68.5 23t-68.5 -23t-25.5 -61q0 -17 6 -32l-63 -20q-12 27 -12 54q0 66 45.5 105.5t120.5 39.5q74 0 119 -39t45 -104q0 -103 -165 -193z" />
    <glyph glyph-name="uni00B3" unicode="&#xb3;" horiz-adv-x="409" 
d="M281 501q95 -23 95 -106q0 -55 -47 -88.5t-125 -33.5q-71 0 -116.5 30.5t-56.5 84.5l67 11q24 -64 108 -64q44 0 71 18t27 49q0 66 -111 66h-31v60h25q100 0 100 59q0 28 -22.5 44t-60.5 16q-73 0 -93 -68l-65 10q10 56 52 87.5t108 31.5q69 0 110.5 -31t41.5 -83
q0 -71 -77 -93z" />
    <glyph glyph-name="acute" unicode="&#xb4;" horiz-adv-x="322" 
d="M80 566l54 129h108l-97 -129h-65z" />
    <glyph glyph-name="uni00B5" unicode="&#xb5;" horiz-adv-x="579" 
d="M421 502h90v-502h-90v95q-53 -105 -163 -105q-60 0 -100 37v-227h-90v702h90v-308q0 -59 30 -93.5t83 -34.5q67 0 108.5 56.5t41.5 159.5v220z" />
    <glyph glyph-name="paragraph" unicode="&#xb6;" horiz-adv-x="584" 
d="M326 0v253q-133 0 -206.5 59.5t-73.5 164.5q0 104 73.5 163.5t206.5 59.5h178v-700h-55v648h-68v-648h-55z" />
    <glyph glyph-name="periodcentered" unicode="&#xb7;" horiz-adv-x="268" 
d="M134 226q-34 0 -59 25t-25 59t24.5 58.5t59.5 24.5t59.5 -24t24.5 -59t-24.5 -59.5t-59.5 -24.5z" />
    <glyph glyph-name="cedilla" unicode="&#xb8;" horiz-adv-x="373" 
d="M196 -45q38 4 67.5 -15.5t29.5 -59.5q0 -45 -30 -66.5t-75 -21.5q-62 0 -108 38l24 37q46 -26 80 -26q45 0 45 36q0 45 -79 33l-15 29l45 72h50z" />
    <glyph glyph-name="uni00B9" unicode="&#xb9;" horiz-adv-x="273" 
d="M145 700h60v-420h-72v317q-37 -37 -110 -42v68q93 7 122 77z" />
    <glyph glyph-name="ordmasculine" unicode="&#xba;" horiz-adv-x="513" 
d="M256 314q-93 0 -154 61t-61 156q0 94 61.5 155.5t154.5 61.5t154 -61t61 -155q0 -96 -61 -157t-155 -61zM257 376q62 0 101.5 43.5t39.5 111.5t-40 111.5t-102 43.5t-101.5 -43.5t-39.5 -111.5t40 -111.5t102 -43.5z" />
    <glyph glyph-name="guillemotright" unicode="&#xbb;" horiz-adv-x="474" 
d="M40 166v95l114 90l-114 90v94l186 -145v-79zM248 166v95l114 90l-114 90v94l186 -145v-79z" />
    <glyph glyph-name="onequarter" unicode="&#xbc;" horiz-adv-x="874" 
d="M133 597q-37 -37 -110 -42v68q93 7 122 77h60v-420h-72v317zM604 700h93l-511 -700h-93zM858 149v-62h-63v-87h-70v87h-236v60l233 273h73v-271h63zM727 333l-156 -184h156v184z" />
    <glyph glyph-name="onehalf" unicode="&#xbd;" horiz-adv-x="936" 
d="M133 597q-37 -37 -110 -42v68q93 7 122 77h60v-420h-72v317zM604 700h93l-511 -700h-93zM678 64h218v-64h-334v59l123 70q135 74 135 150q0 40 -25.5 63t-68.5 23t-68.5 -23t-25.5 -61q0 -17 6 -32l-63 -20q-12 27 -12 54q0 66 45.5 105.5t120.5 39.5q74 0 119 -39
t45 -104q0 -103 -165 -193z" />
    <glyph glyph-name="threequarters" unicode="&#xbe;" horiz-adv-x="1010" 
d="M376 395q0 -55 -47 -88.5t-125 -33.5q-71 0 -116.5 30.5t-56.5 84.5l67 11q24 -64 108 -64q44 0 71 18t27 49q0 66 -111 66h-31v60h25q100 0 100 59q0 28 -22.5 44t-60.5 16q-73 0 -93 -68l-65 10q10 56 52 87.5t108 31.5q69 0 110.5 -31t41.5 -83q0 -71 -77 -93
q95 -23 95 -106zM740 700h93l-511 -700h-93zM994 149v-62h-63v-87h-70v87h-236v60l233 273h73v-271h63zM863 333l-156 -184h156v184z" />
    <glyph glyph-name="questiondown" unicode="&#xbf;" horiz-adv-x="575" 
d="M227 487v108h108v-108h-108zM279 -117q-108 0 -173 58.5t-65 155.5q0 60 27 103.5t86 88.5q48 36 67 60t20 67h78q5 -56 -16 -89t-83 -82q-87 -69 -87 -145q0 -61 40.5 -98t107.5 -37q70 0 112 39.5t42 106.5q0 43 -13 73l80 33q24 -48 24 -104q0 -104 -67.5 -167
t-179.5 -63z" />
    <glyph glyph-name="Agrave" unicode="&#xc0;" horiz-adv-x="698" 
d="M381 751h-65l-97 128h108zM579 0l-63 164h-334l-63 -164h-100l280 700h101l279 -700h-100zM213 243h272l-136 353z" />
    <glyph glyph-name="Aacute" unicode="&#xc1;" horiz-adv-x="698" 
d="M480 879l-97 -128h-65l54 128h108zM579 0l-63 164h-334l-63 -164h-100l280 700h101l279 -700h-100zM213 243h272l-136 353z" />
    <glyph glyph-name="Acircumflex" unicode="&#xc2;" horiz-adv-x="698" 
d="M351 823l-68 -72h-66l81 128h103l81 -128h-65zM579 0l-63 164h-334l-63 -164h-100l280 700h101l279 -700h-100zM213 243h272l-136 353z" />
    <glyph glyph-name="Atilde" unicode="&#xc3;" horiz-adv-x="698" 
d="M293 805q-35 0 -38 -54h-54q0 58 22.5 90.5t64.5 32.5q29 0 65 -28.5t53 -28.5q35 0 38 54h54q0 -58 -22.5 -90.5t-63.5 -32.5q-30 0 -66 28.5t-53 28.5zM579 0l-63 164h-334l-63 -164h-100l280 700h101l279 -700h-100zM213 243h272l-136 353z" />
    <glyph glyph-name="Adieresis" unicode="&#xc4;" horiz-adv-x="698" 
d="M314 851v-100h-89v100h89zM474 851v-100h-89v100h89zM579 0l-63 164h-334l-63 -164h-100l280 700h101l279 -700h-100zM213 243h272l-136 353z" />
    <glyph glyph-name="Aring" unicode="&#xc5;" horiz-adv-x="698" 
d="M349 748q-39 0 -64 25t-25 61t25 61t64 25t64 -25t25 -61t-25 -61t-64 -25zM349 877q-19 0 -30.5 -12t-11.5 -31t11.5 -31t30.5 -12q20 0 31.5 12t11.5 31t-11.5 31t-31.5 12zM579 0l-63 164h-334l-63 -164h-100l280 700h101l279 -700h-100zM213 243h272l-136 353z" />
    <glyph glyph-name="AE" unicode="&#xc6;" horiz-adv-x="996" 
d="M576 83h376v-83h-470v163h-269l-99 -163h-104l425 700h512v-82h-371v-219h334v-82h-334v-234zM263 245h219v359z" />
    <glyph glyph-name="Ccedilla" unicode="&#xc7;" horiz-adv-x="728" 
d="M691 205q-31 -95 -102.5 -151t-172.5 -63l-22 -36q38 4 67.5 -15.5t29.5 -59.5q0 -45 -30 -66.5t-75 -21.5q-62 0 -108 38l24 37q46 -26 80 -26q45 0 45 36q0 45 -79 33l-15 29l32 52q-143 8 -231 106.5t-88 251.5q0 158 97 260.5t243 102.5q107 0 183.5 -54t110.5 -153
l-81 -28q-26 73 -81 112.5t-133 39.5q-106 0 -175 -78.5t-69 -201.5q0 -122 70 -199t181 -77q80 0 137.5 42t83.5 118z" />
    <glyph glyph-name="Egrave" unicode="&#xc8;" horiz-adv-x="593" 
d="M336 751h-65l-97 128h108zM174 83h375v-83h-470v700h465v-82h-370v-219h334v-82h-334v-234z" />
    <glyph glyph-name="Eacute" unicode="&#xc9;" horiz-adv-x="593" 
d="M436 879l-97 -128h-65l54 128h108zM174 83h375v-83h-470v700h465v-82h-370v-219h334v-82h-334v-234z" />
    <glyph glyph-name="Ecircumflex" unicode="&#xca;" horiz-adv-x="593" 
d="M307 823l-68 -72h-66l81 128h103l81 -128h-65zM174 83h375v-83h-470v700h465v-82h-370v-219h334v-82h-334v-234z" />
    <glyph glyph-name="Edieresis" unicode="&#xcb;" horiz-adv-x="593" 
d="M269 851v-100h-89v100h89zM429 851v-100h-89v100h89zM174 83h375v-83h-470v700h465v-82h-370v-219h334v-82h-334v-234z" />
    <glyph glyph-name="Igrave" unicode="&#xcc;" horiz-adv-x="253" 
d="M93 751l-97 128h108l54 -128h-65zM79 0v700h95v-700h-95z" />
    <glyph glyph-name="Iacute" unicode="&#xcd;" horiz-adv-x="253" 
d="M96 751l54 128h108l-97 -128h-65zM79 0v700h95v-700h-95z" />
    <glyph glyph-name="Icircumflex" unicode="&#xce;" horiz-adv-x="253" 
d="M-6 751l81 128h103l81 -128h-65l-66 72l-68 -72h-66zM79 0v700h95v-700h-95z" />
    <glyph glyph-name="Idieresis" unicode="&#xcf;" horiz-adv-x="253" 
d="M2 751v100h89v-100h-89zM162 751v100h89v-100h-89zM79 0v700h95v-700h-95z" />
    <glyph glyph-name="Eth" unicode="&#xd0;" horiz-adv-x="756" 
d="M375 700q154 0 244.5 -94.5t90.5 -256.5q0 -161 -91 -255t-244 -94h-258v319h-98v78h98v303h258zM371 83q110 0 177 72t67 194t-67 195.5t-177 73.5h-159v-221h169v-78h-169v-236h159z" />
    <glyph glyph-name="Ntilde" unicode="&#xd1;" horiz-adv-x="720" 
d="M303 805q-35 0 -38 -54h-54q0 58 22.5 90.5t64.5 32.5q29 0 65 -28.5t53 -28.5q35 0 38 54h54q0 -58 -22.5 -90.5t-63.5 -32.5q-30 0 -66 28.5t-53 28.5zM548 700h92v-700h-114l-355 584v-584h-92v700h122l347 -570v570z" />
    <glyph glyph-name="Ograve" unicode="&#xd2;" horiz-adv-x="785" 
d="M359 751l-97 128h108l54 -128h-65zM393 -10q-151 0 -249 101.5t-98 258.5q0 158 97.5 260t249.5 102q151 0 248.5 -102t97.5 -260q0 -157 -97.5 -258.5t-248.5 -101.5zM393 73q111 0 181.5 78t70.5 199q0 122 -70.5 200.5t-181.5 78.5t-181.5 -78t-70.5 -201
q0 -121 70.5 -199t181.5 -78z" />
    <glyph glyph-name="Oacute" unicode="&#xd3;" horiz-adv-x="785" 
d="M361 751l54 128h108l-97 -128h-65zM393 -10q-151 0 -249 101.5t-98 258.5q0 158 97.5 260t249.5 102q151 0 248.5 -102t97.5 -260q0 -157 -97.5 -258.5t-248.5 -101.5zM393 73q111 0 181.5 78t70.5 199q0 122 -70.5 200.5t-181.5 78.5t-181.5 -78t-70.5 -201
q0 -121 70.5 -199t181.5 -78z" />
    <glyph glyph-name="Ocircumflex" unicode="&#xd4;" horiz-adv-x="785" 
d="M260 751l81 128h103l81 -128h-65l-66 72l-68 -72h-66zM393 -10q-151 0 -249 101.5t-98 258.5q0 158 97.5 260t249.5 102q151 0 248.5 -102t97.5 -260q0 -157 -97.5 -258.5t-248.5 -101.5zM393 73q111 0 181.5 78t70.5 199q0 122 -70.5 200.5t-181.5 78.5t-181.5 -78
t-70.5 -201q0 -121 70.5 -199t181.5 -78z" />
    <glyph glyph-name="Otilde" unicode="&#xd5;" horiz-adv-x="785" 
d="M455 748q-30 0 -66 28.5t-53 28.5q-35 0 -38 -54h-54q0 58 22.5 90.5t64.5 32.5q29 0 65 -28.5t53 -28.5q35 0 38 54h54q0 -58 -22.5 -90.5t-63.5 -32.5zM393 -10q-151 0 -249 101.5t-98 258.5q0 158 97.5 260t249.5 102q151 0 248.5 -102t97.5 -260q0 -157 -97.5 -258.5
t-248.5 -101.5zM393 73q111 0 181.5 78t70.5 199q0 122 -70.5 200.5t-181.5 78.5t-181.5 -78t-70.5 -201q0 -121 70.5 -199t181.5 -78z" />
    <glyph glyph-name="Odieresis" unicode="&#xd6;" horiz-adv-x="785" 
d="M268 751v100h89v-100h-89zM428 751v100h89v-100h-89zM393 -10q-151 0 -249 101.5t-98 258.5q0 158 97.5 260t249.5 102q151 0 248.5 -102t97.5 -260q0 -157 -97.5 -258.5t-248.5 -101.5zM393 73q111 0 181.5 78t70.5 199q0 122 -70.5 200.5t-181.5 78.5t-181.5 -78
t-70.5 -201q0 -121 70.5 -199t181.5 -78z" />
    <glyph glyph-name="multiply" unicode="&#xd7;" horiz-adv-x="600" 
d="M533 528l-178 -178l178 -178l-55 -55l-178 178l-178 -178l-55 55l178 178l-178 178l55 55l178 -178l178 178z" />
    <glyph glyph-name="Oslash" unicode="&#xd8;" horiz-adv-x="785" 
d="M649 602q90 -101 90 -252q0 -157 -97.5 -258.5t-248.5 -101.5q-108 0 -191 54l-64 -81l-61 50l65 81q-96 99 -96 256q0 158 97.5 260t249.5 102q113 0 197 -59l61 76l60 -50zM141 350q0 -110 58 -185l337 420q-63 44 -143 44q-111 0 -181.5 -78t-70.5 -201zM393 73
q111 0 181.5 78t70.5 199q0 106 -54 180l-334 -418q59 -39 136 -39z" />
    <glyph glyph-name="Ugrave" unicode="&#xd9;" horiz-adv-x="691" 
d="M311 751l-97 128h108l54 -128h-65zM344 -10q-125 0 -198 76t-73 208v426h94v-421q0 -96 48.5 -151t131.5 -55q81 0 129 55t48 151v421h94v-425q0 -133 -73.5 -209t-200.5 -76z" />
    <glyph glyph-name="Uacute" unicode="&#xda;" horiz-adv-x="691" 
d="M314 751l54 128h108l-97 -128h-65zM344 -10q-125 0 -198 76t-73 208v426h94v-421q0 -96 48.5 -151t131.5 -55q81 0 129 55t48 151v421h94v-425q0 -133 -73.5 -209t-200.5 -76z" />
    <glyph glyph-name="Ucircumflex" unicode="&#xdb;" horiz-adv-x="691" 
d="M213 751l81 128h103l81 -128h-65l-66 72l-68 -72h-66zM344 -10q-125 0 -198 76t-73 208v426h94v-421q0 -96 48.5 -151t131.5 -55q81 0 129 55t48 151v421h94v-425q0 -133 -73.5 -209t-200.5 -76z" />
    <glyph glyph-name="Udieresis" unicode="&#xdc;" horiz-adv-x="691" 
d="M220 751v100h89v-100h-89zM380 751v100h89v-100h-89zM344 -10q-125 0 -198 76t-73 208v426h94v-421q0 -96 48.5 -151t131.5 -55q81 0 129 55t48 151v421h94v-425q0 -133 -73.5 -209t-200.5 -76z" />
    <glyph glyph-name="Yacute" unicode="&#xdd;" horiz-adv-x="626" 
d="M444 879l-97 -128h-65l54 128h108zM508 700h104l-253 -416v-284h-95v284l-250 416h104l196 -332z" />
    <glyph glyph-name="Thorn" unicode="&#xde;" horiz-adv-x="614" 
d="M348 568q110 0 172.5 -56.5t62.5 -155.5q0 -100 -63 -158t-176 -58h-170v-140h-95v700h95v-132h174zM348 223q68 0 104.5 34.5t36.5 96.5t-38.5 96.5t-109.5 34.5h-167v-262h174z" />
    <glyph glyph-name="germandbls" unicode="&#xdf;" horiz-adv-x="543" 
d="M353 396q69 -17 108 -67.5t39 -123.5q0 -95 -65.5 -150t-178.5 -55h-35v78h32q71 0 114 36.5t43 96.5q0 63 -39.5 99.5t-105.5 36.5h-38v76h34q47 0 75.5 28.5t28.5 75.5t-28.5 76t-75.5 29q-48 0 -76.5 -34.5t-28.5 -92.5v-505h-90v498q0 97 53.5 154.5t142.5 57.5
q88 0 140 -47t52 -127q0 -51 -26.5 -87t-74.5 -53z" />
    <glyph glyph-name="agrave" unicode="&#xe0;" horiz-adv-x="526" 
d="M304 566h-65l-97 129h108zM257 514q95 0 151.5 -55.5t56.5 -146.5v-312h-84v88q-50 -98 -161 -98q-70 0 -114 39t-44 104q0 61 42.5 98t134.5 54l137 26q-2 58 -35 90.5t-88 32.5q-105 0 -136 -112l-73 22q14 77 71.5 123.5t141.5 46.5zM237 57q61 0 100 47.5t39 121.5
v15l-105 -19q-63 -12 -91 -33t-28 -57q0 -35 23.5 -55t61.5 -20z" />
    <glyph glyph-name="aacute" unicode="&#xe1;" horiz-adv-x="526" 
d="M391 695l-97 -129h-65l54 129h108zM257 514q95 0 151.5 -55.5t56.5 -146.5v-312h-84v88q-50 -98 -161 -98q-70 0 -114 39t-44 104q0 61 42.5 98t134.5 54l137 26q-2 58 -35 90.5t-88 32.5q-105 0 -136 -112l-73 22q14 77 71.5 123.5t141.5 46.5zM237 57q61 0 100 47.5
t39 121.5v15l-105 -19q-63 -12 -91 -33t-28 -57q0 -35 23.5 -55t61.5 -20z" />
    <glyph glyph-name="acircumflex" unicode="&#xe2;" horiz-adv-x="526" 
d="M266 637l-66 -71h-69l84 130h102l84 -130h-69zM257 514q95 0 151.5 -55.5t56.5 -146.5v-312h-84v88q-50 -98 -161 -98q-70 0 -114 39t-44 104q0 61 42.5 98t134.5 54l137 26q-2 58 -35 90.5t-88 32.5q-105 0 -136 -112l-73 22q14 77 71.5 123.5t141.5 46.5zM237 57
q61 0 100 47.5t39 121.5v15l-105 -19q-63 -12 -91 -33t-28 -57q0 -35 23.5 -55t61.5 -20z" />
    <glyph glyph-name="atilde" unicode="&#xe3;" horiz-adv-x="526" 
d="M208 620q-19 0 -27 -13t-10 -41h-55q0 57 22.5 90t64.5 33q29 0 66.5 -28.5t54.5 -28.5q33 0 36 54h56q0 -56 -22.5 -89t-64.5 -33q-28 0 -66 28t-55 28zM257 514q95 0 151.5 -55.5t56.5 -146.5v-312h-84v88q-50 -98 -161 -98q-70 0 -114 39t-44 104q0 61 42.5 98
t134.5 54l137 26q-2 58 -35 90.5t-88 32.5q-105 0 -136 -112l-73 22q14 77 71.5 123.5t141.5 46.5zM237 57q61 0 100 47.5t39 121.5v15l-105 -19q-63 -12 -91 -33t-28 -57q0 -35 23.5 -55t61.5 -20z" />
    <glyph glyph-name="adieresis" unicode="&#xe4;" horiz-adv-x="526" 
d="M239 666v-100h-89v100h89zM384 666v-100h-89v100h89zM257 514q95 0 151.5 -55.5t56.5 -146.5v-312h-84v88q-50 -98 -161 -98q-70 0 -114 39t-44 104q0 61 42.5 98t134.5 54l137 26q-2 58 -35 90.5t-88 32.5q-105 0 -136 -112l-73 22q14 77 71.5 123.5t141.5 46.5zM237 57
q61 0 100 47.5t39 121.5v15l-105 -19q-63 -12 -91 -33t-28 -57q0 -35 23.5 -55t61.5 -20z" />
    <glyph glyph-name="aring" unicode="&#xe5;" horiz-adv-x="526" 
d="M266 563q-39 0 -64 25t-25 61t25 61t64 25t64 -25t25 -61t-25 -61t-64 -25zM266 692q-19 0 -30.5 -12t-11.5 -31t11.5 -31t30.5 -12q20 0 31.5 12t11.5 31t-11.5 31t-31.5 12zM257 514q95 0 151.5 -55.5t56.5 -146.5v-312h-84v88q-50 -98 -161 -98q-70 0 -114 39t-44 104
q0 61 42.5 98t134.5 54l137 26q-2 58 -35 90.5t-88 32.5q-105 0 -136 -112l-73 22q14 77 71.5 123.5t141.5 46.5zM237 57q61 0 100 47.5t39 121.5v15l-105 -19q-63 -12 -91 -33t-28 -57q0 -35 23.5 -55t61.5 -20z" />
    <glyph glyph-name="ae" unicode="&#xe6;" horiz-adv-x="888" 
d="M621 514q112 0 173.5 -81.5t49.5 -201.5h-380q3 -79 50 -123t115 -44q97 0 148 88l60 -38q-31 -57 -85.5 -90.5t-125.5 -33.5q-68 0 -123 33t-86 92q-52 -125 -197 -125q-70 0 -114 39t-44 104q0 61 42.5 98t134.5 54l136 25q-1 57 -34 90.5t-88 33.5q-105 0 -136 -112
l-73 22q14 77 71.5 123.5t141.5 46.5q60 0 105 -27t68 -76q65 103 191 103zM619 442q-62 0 -104.5 -40.5t-47.5 -104.5h293q-5 65 -43 105t-98 40zM237 57q60 0 99 47.5t39 121.5v15l-104 -19q-63 -12 -91 -33t-28 -57q0 -35 23.5 -55t61.5 -20z" />
    <glyph glyph-name="ccedilla" unicode="&#xe7;" horiz-adv-x="545" 
d="M509 142q-25 -68 -80.5 -108.5t-130.5 -43.5l-21 -35q38 4 67.5 -15.5t29.5 -59.5q0 -45 -30 -66.5t-75 -21.5q-62 0 -108 38l24 37q46 -26 80 -26q45 0 45 36q0 45 -79 33l-15 29l33 53q-94 13 -151 82t-57 173q0 117 70 192t178 75q82 0 137.5 -41.5t77.5 -115.5
l-78 -24q-34 105 -138 105q-68 0 -112.5 -52t-44.5 -134t44.5 -134t113.5 -52q103 0 148 103z" />
    <glyph glyph-name="egrave" unicode="&#xe8;" horiz-adv-x="552" 
d="M320 566h-65l-97 129h108zM286 514q112 0 173.5 -81t49.5 -202h-380q4 -79 51 -123t114 -44q98 0 148 88l61 -38q-31 -57 -86 -90.5t-125 -33.5q-107 0 -179 71.5t-72 188.5q0 116 69 190t176 74zM284 442q-61 0 -103 -39t-49 -102h293q-5 63 -43 102t-98 39z" />
    <glyph glyph-name="eacute" unicode="&#xe9;" horiz-adv-x="552" 
d="M407 695l-97 -129h-65l54 129h108zM286 514q112 0 173.5 -81t49.5 -202h-380q4 -79 51 -123t114 -44q98 0 148 88l61 -38q-31 -57 -86 -90.5t-125 -33.5q-107 0 -179 71.5t-72 188.5q0 116 69 190t176 74zM284 442q-61 0 -103 -39t-49 -102h293q-5 63 -43 102t-98 39z
" />
    <glyph glyph-name="ecircumflex" unicode="&#xea;" horiz-adv-x="552" 
d="M282 637l-66 -71h-69l84 130h102l84 -130h-69zM286 514q112 0 173.5 -81t49.5 -202h-380q4 -79 51 -123t114 -44q98 0 148 88l61 -38q-31 -57 -86 -90.5t-125 -33.5q-107 0 -179 71.5t-72 188.5q0 116 69 190t176 74zM284 442q-61 0 -103 -39t-49 -102h293q-5 63 -43 102
t-98 39z" />
    <glyph glyph-name="edieresis" unicode="&#xeb;" horiz-adv-x="552" 
d="M255 666v-100h-89v100h89zM400 666v-100h-89v100h89zM286 514q112 0 173.5 -81t49.5 -202h-380q4 -79 51 -123t114 -44q98 0 148 88l61 -38q-31 -57 -86 -90.5t-125 -33.5q-107 0 -179 71.5t-72 188.5q0 116 69 190t176 74zM284 442q-61 0 -103 -39t-49 -102h293
q-5 63 -43 102t-98 39z" />
    <glyph glyph-name="igrave" unicode="&#xec;" horiz-adv-x="227" 
d="M86 566l-97 129h108l54 -129h-65zM68 0v502h90v-502h-90z" />
    <glyph glyph-name="iacute" unicode="&#xed;" horiz-adv-x="227" 
d="M75 566l54 129h108l-97 -129h-65zM68 0v502h90v-502h-90z" />
    <glyph glyph-name="icircumflex" unicode="&#xee;" horiz-adv-x="227" 
d="M-22 566l84 130h102l84 -130h-69l-66 71l-66 -71h-69zM68 0v502h90v-502h-90z" />
    <glyph glyph-name="idieresis" unicode="&#xef;" horiz-adv-x="227" 
d="M-4 566v100h89v-100h-89zM141 566v100h89v-100h-89zM68 0v502h90v-502h-90z" />
    <glyph glyph-name="eth" unicode="&#xf0;" horiz-adv-x="566" 
d="M381 592q138 -129 138 -326q0 -131 -63.5 -203.5t-177.5 -72.5q-108 0 -172.5 60t-64.5 160q0 101 62 162t162 61q95 0 156 -68q-28 110 -110 183l-106 -67l-35 54l85 54q-46 28 -102 50l28 68q84 -29 146 -72l114 72l34 -55zM279 70q68 0 108.5 39.5t40.5 104.5
q0 64 -42.5 103.5t-109.5 39.5q-66 0 -105.5 -39.5t-39.5 -104.5t40.5 -104t107.5 -39z" />
    <glyph glyph-name="ntilde" unicode="&#xf1;" horiz-adv-x="573" 
d="M245 620q-19 0 -27 -13t-10 -41h-55q0 57 22.5 90t64.5 33q29 0 66.5 -28.5t54.5 -28.5q33 0 36 54h56q0 -56 -22.5 -89t-64.5 -33q-28 0 -66 28t-55 28zM327 514q84 0 134.5 -53t50.5 -144v-317h-90v306q0 61 -31 96.5t-85 35.5q-65 0 -106.5 -52t-41.5 -148v-238h-90
v502h90v-90q55 102 169 102z" />
    <glyph glyph-name="ograve" unicode="&#xf2;" horiz-adv-x="585" 
d="M265 566l-97 129h108l54 -129h-65zM292 -10q-109 0 -180 73.5t-71 187.5t71.5 188.5t180.5 74.5t180 -73.5t71 -187.5t-71.5 -188.5t-180.5 -74.5zM293 66q71 0 116 52t45 134t-45.5 134t-116.5 52t-116 -52t-45 -134t45.5 -134t116.5 -52z" />
    <glyph glyph-name="oacute" unicode="&#xf3;" horiz-adv-x="585" 
d="M255 566l54 129h108l-97 -129h-65zM292 -10q-109 0 -180 73.5t-71 187.5t71.5 188.5t180.5 74.5t180 -73.5t71 -187.5t-71.5 -188.5t-180.5 -74.5zM293 66q71 0 116 52t45 134t-45.5 134t-116.5 52t-116 -52t-45 -134t45.5 -134t116.5 -52z" />
    <glyph glyph-name="ocircumflex" unicode="&#xf4;" horiz-adv-x="585" 
d="M158 566l84 130h102l84 -130h-69l-66 71l-66 -71h-69zM292 -10q-109 0 -180 73.5t-71 187.5t71.5 188.5t180.5 74.5t180 -73.5t71 -187.5t-71.5 -188.5t-180.5 -74.5zM293 66q71 0 116 52t45 134t-45.5 134t-116.5 52t-116 -52t-45 -134t45.5 -134t116.5 -52z" />
    <glyph glyph-name="otilde" unicode="&#xf5;" horiz-adv-x="585" 
d="M355 564q-28 0 -66 28t-55 28q-19 0 -27 -13t-10 -41h-55q0 57 22.5 90t64.5 33q29 0 66.5 -28.5t54.5 -28.5q33 0 36 54h56q0 -56 -22.5 -89t-64.5 -33zM292 -10q-109 0 -180 73.5t-71 187.5t71.5 188.5t180.5 74.5t180 -73.5t71 -187.5t-71.5 -188.5t-180.5 -74.5z
M293 66q71 0 116 52t45 134t-45.5 134t-116.5 52t-116 -52t-45 -134t45.5 -134t116.5 -52z" />
    <glyph glyph-name="odieresis" unicode="&#xf6;" horiz-adv-x="585" 
d="M176 566v100h89v-100h-89zM321 566v100h89v-100h-89zM292 -10q-109 0 -180 73.5t-71 187.5t71.5 188.5t180.5 74.5t180 -73.5t71 -187.5t-71.5 -188.5t-180.5 -74.5zM293 66q71 0 116 52t45 134t-45.5 134t-116.5 52t-116 -52t-45 -134t45.5 -134t116.5 -52z" />
    <glyph glyph-name="divide" unicode="&#xf7;" horiz-adv-x="600" 
d="M249 495v102h102v-102h-102zM50 311v78h500v-78h-500zM249 103v102h102v-102h-102z" />
    <glyph glyph-name="oslash" unicode="&#xf8;" horiz-adv-x="585" 
d="M485 427q59 -72 59 -174q0 -114 -71.5 -188.5t-180.5 -74.5q-78 0 -141 41l-55 -66l-54 44l58 68q-59 72 -59 174q0 114 71.5 188.5t180.5 74.5q78 0 141 -41l56 66l53 -43zM131 252q0 -61 26 -107l224 265q-39 28 -89 28q-71 0 -116 -52t-45 -134zM293 66q71 0 116 52
t45 134q0 60 -26 107l-224 -266q40 -27 89 -27z" />
    <glyph glyph-name="ugrave" unicode="&#xf9;" horiz-adv-x="564" 
d="M313 566h-65l-97 129h108zM406 502h90v-502h-90v96q-54 -106 -171 -106q-82 0 -132 52.5t-50 142.5v317h90v-308q0 -59 30 -93.5t83 -34.5q67 0 108.5 56.5t41.5 159.5v220z" />
    <glyph glyph-name="uacute" unicode="&#xfa;" horiz-adv-x="564" 
d="M399 695l-97 -129h-65l54 129h108zM406 502h90v-502h-90v96q-54 -106 -171 -106q-82 0 -132 52.5t-50 142.5v317h90v-308q0 -59 30 -93.5t83 -34.5q67 0 108.5 56.5t41.5 159.5v220z" />
    <glyph glyph-name="ucircumflex" unicode="&#xfb;" horiz-adv-x="564" 
d="M275 637l-66 -71h-69l84 130h102l84 -130h-69zM406 502h90v-502h-90v96q-54 -106 -171 -106q-82 0 -132 52.5t-50 142.5v317h90v-308q0 -59 30 -93.5t83 -34.5q67 0 108.5 56.5t41.5 159.5v220z" />
    <glyph glyph-name="udieresis" unicode="&#xfc;" horiz-adv-x="564" 
d="M247 666v-100h-89v100h89zM392 666v-100h-89v100h89zM406 502h90v-502h-90v96q-54 -106 -171 -106q-82 0 -132 52.5t-50 142.5v317h90v-308q0 -59 30 -93.5t83 -34.5q67 0 108.5 56.5t41.5 159.5v220z" />
    <glyph glyph-name="yacute" unicode="&#xfd;" horiz-adv-x="507" 
d="M385 695l-97 -129h-65l54 129h108zM401 502h93l-270 -702h-91l81 199l-201 503h94l152 -396z" />
    <glyph glyph-name="thorn" unicode="&#xfe;" horiz-adv-x="609" 
d="M331 514q107 0 172 -73t65 -189q0 -117 -65 -189.5t-172 -72.5q-110 0 -170 84v-274h-90v900h90v-270q59 84 170 84zM319 66q72 0 115.5 51.5t43.5 134.5t-43.5 134.5t-115.5 51.5q-71 0 -114.5 -51.5t-43.5 -134.5t43.5 -134.5t114.5 -51.5z" />
    <glyph glyph-name="ydieresis" unicode="&#xff;" horiz-adv-x="507" 
d="M234 666v-100h-89v100h89zM379 666v-100h-89v100h89zM401 502h93l-270 -702h-91l81 199l-201 503h94l152 -396z" />
    <glyph glyph-name="Amacron" unicode="&#x100;" horiz-adv-x="698" 
d="M480 821v-70h-262v70h262zM579 0l-63 164h-334l-63 -164h-100l280 700h101l279 -700h-100zM213 243h272l-136 353z" />
    <glyph glyph-name="amacron" unicode="&#x101;" horiz-adv-x="526" 
d="M394 635v-69h-256v69h256zM257 514q95 0 151.5 -55.5t56.5 -146.5v-312h-84v88q-50 -98 -161 -98q-70 0 -114 39t-44 104q0 61 42.5 98t134.5 54l137 26q-2 58 -35 90.5t-88 32.5q-105 0 -136 -112l-73 22q14 77 71.5 123.5t141.5 46.5zM237 57q61 0 100 47.5t39 121.5
v15l-105 -19q-63 -12 -91 -33t-28 -57q0 -35 23.5 -55t61.5 -20z" />
    <glyph glyph-name="Abreve" unicode="&#x102;" horiz-adv-x="698" 
d="M349 748q-57 0 -88 33.5t-31 97.5h61q5 -68 58 -68q55 0 58 68h61q0 -65 -30.5 -98t-88.5 -33zM579 0l-63 164h-334l-63 -164h-100l280 700h101l279 -700h-100zM213 243h272l-136 353z" />
    <glyph glyph-name="abreve" unicode="&#x103;" horiz-adv-x="526" 
d="M266 563q-57 0 -88 33.5t-31 97.5h61q5 -68 58 -68t58 68h61q0 -65 -30.5 -98t-88.5 -33zM257 514q95 0 151.5 -55.5t56.5 -146.5v-312h-84v88q-50 -98 -161 -98q-70 0 -114 39t-44 104q0 61 42.5 98t134.5 54l137 26q-2 58 -35 90.5t-88 32.5q-105 0 -136 -112l-73 22
q14 77 71.5 123.5t141.5 46.5zM237 57q61 0 100 47.5t39 121.5v15l-105 -19q-63 -12 -91 -33t-28 -57q0 -35 23.5 -55t61.5 -20z" />
    <glyph glyph-name="Aogonek" unicode="&#x104;" horiz-adv-x="698" 
d="M600 -150q19 0 43 8l17 -42q-28 -24 -74 -24t-71.5 22t-25.5 60q0 72 92 126h-2l-63 164h-334l-63 -164h-100l280 700h101l279 -700h-30q-94 -60 -94 -111q0 -39 45 -39zM213 243h272l-136 353z" />
    <glyph glyph-name="aogonek" unicode="&#x105;" horiz-adv-x="526" 
d="M450 0q-94 -60 -94 -111q0 -39 45 -39q19 0 43 8l17 -42q-28 -24 -74 -24t-71.5 22t-25.5 60q0 72 92 126h-1v88q-50 -98 -161 -98q-70 0 -114 39t-44 104q0 61 42.5 98t134.5 54l137 26q-2 58 -35 90.5t-88 32.5q-105 0 -136 -112l-73 22q14 77 71.5 123.5t141.5 46.5
q95 0 151.5 -55.5t56.5 -146.5v-312h-15zM237 57q61 0 100 47.5t39 121.5v15l-105 -19q-63 -12 -91 -33t-28 -57q0 -35 23.5 -55t61.5 -20z" />
    <glyph glyph-name="Cacute" unicode="&#x106;" horiz-adv-x="728" 
d="M355 751l54 128h108l-97 -128h-65zM389 -10q-152 0 -247.5 100t-95.5 259q0 158 97 260.5t243 102.5q107 0 183.5 -54t110.5 -153l-81 -28q-26 73 -81 112.5t-133 39.5q-106 0 -175 -78.5t-69 -201.5q0 -122 70 -199t181 -77q80 0 137.5 42t83.5 118l78 -28
q-33 -101 -112 -158t-190 -57z" />
    <glyph glyph-name="cacute" unicode="&#x107;" horiz-adv-x="545" 
d="M238 566l54 129h108l-97 -129h-65zM288 -10q-110 0 -178.5 71t-68.5 186q0 117 70 192t178 75q82 0 137.5 -41.5t77.5 -115.5l-78 -24q-34 105 -138 105q-68 0 -112.5 -52t-44.5 -134t44.5 -134t113.5 -52q103 0 148 103l72 -27q-26 -70 -84 -111t-137 -41z" />
    <glyph glyph-name="Cdotaccent" unicode="&#x10a;" horiz-adv-x="728" 
d="M338 751v100h96v-100h-96zM389 -10q-152 0 -247.5 100t-95.5 259q0 158 97 260.5t243 102.5q107 0 183.5 -54t110.5 -153l-81 -28q-26 73 -81 112.5t-133 39.5q-106 0 -175 -78.5t-69 -201.5q0 -122 70 -199t181 -77q80 0 137.5 42t83.5 118l78 -28q-33 -101 -112 -158
t-190 -57z" />
    <glyph glyph-name="cdotaccent" unicode="&#x10b;" horiz-adv-x="545" 
d="M228 566v100h96v-100h-96zM288 -10q-110 0 -178.5 71t-68.5 186q0 117 70 192t178 75q82 0 137.5 -41.5t77.5 -115.5l-78 -24q-34 105 -138 105q-68 0 -112.5 -52t-44.5 -134t44.5 -134t113.5 -52q103 0 148 103l72 -27q-26 -70 -84 -111t-137 -41z" />
    <glyph glyph-name="Ccaron" unicode="&#x10c;" horiz-adv-x="728" 
d="M335 751l-81 128h66l67 -72l67 72h65l-81 -128h-103zM389 -10q-152 0 -247.5 100t-95.5 259q0 158 97 260.5t243 102.5q107 0 183.5 -54t110.5 -153l-81 -28q-26 73 -81 112.5t-133 39.5q-106 0 -175 -78.5t-69 -201.5q0 -122 70 -199t181 -77q80 0 137.5 42t83.5 118
l78 -28q-33 -101 -112 -158t-190 -57z" />
    <glyph glyph-name="ccaron" unicode="&#x10d;" horiz-adv-x="545" 
d="M223 566l-82 130h69l66 -71l66 71h69l-81 -130h-107zM288 -10q-110 0 -178.5 71t-68.5 186q0 117 70 192t178 75q82 0 137.5 -41.5t77.5 -115.5l-78 -24q-34 105 -138 105q-68 0 -112.5 -52t-44.5 -134t44.5 -134t113.5 -52q103 0 148 103l72 -27q-26 -70 -84 -111
t-137 -41z" />
    <glyph glyph-name="Dcaron" unicode="&#x10e;" horiz-adv-x="718" 
d="M379 751h-103l-81 128h66l67 -72l67 72h65zM337 700q154 0 244.5 -94.5t90.5 -256.5q0 -161 -91 -255t-244 -94h-258v700h258zM333 83q110 0 177 72t67 194t-67 195.5t-177 73.5h-159v-535h159z" />
    <glyph glyph-name="dcaron" unicode="&#x10f;" horiz-adv-x="605" 
d="M444 425v275h90v-700h-90v79q-56 -89 -168 -89q-106 0 -170.5 72.5t-64.5 189.5q0 116 64.5 189t170.5 73q113 0 168 -89zM578 700h79l-30 -155h-49v155zM288 66q71 0 113.5 51.5t42.5 134.5t-42.5 134.5t-113.5 51.5q-70 0 -113.5 -51.5t-43.5 -134.5t43.5 -134.5
t113.5 -51.5z" />
    <glyph glyph-name="Dcroat" unicode="&#x110;" horiz-adv-x="756" 
d="M375 700q154 0 244.5 -94.5t90.5 -256.5q0 -161 -91 -255t-244 -94h-258v319h-98v78h98v303h258zM371 83q110 0 177 72t67 194t-67 195.5t-177 73.5h-159v-221h169v-78h-169v-236h159z" />
    <glyph glyph-name="dcroat" unicode="&#x111;" horiz-adv-x="605" 
d="M598 616v-62h-64v-554h-90v79q-56 -89 -168 -89q-106 0 -170.5 72.5t-64.5 189.5q0 116 64.5 189t170.5 73q113 0 168 -89v129h-152v62h152v84h90v-84h64zM288 66q71 0 113.5 51.5t42.5 134.5t-42.5 134.5t-113.5 51.5q-70 0 -113.5 -51.5t-43.5 -134.5t43.5 -134.5
t113.5 -51.5z" />
    <glyph glyph-name="Emacron" unicode="&#x112;" horiz-adv-x="593" 
d="M436 821v-70h-262v70h262zM174 83h375v-83h-470v700h465v-82h-370v-219h334v-82h-334v-234z" />
    <glyph glyph-name="emacron" unicode="&#x113;" horiz-adv-x="552" 
d="M410 635v-69h-256v69h256zM286 514q112 0 173.5 -81t49.5 -202h-380q4 -79 51 -123t114 -44q98 0 148 88l61 -38q-31 -57 -86 -90.5t-125 -33.5q-107 0 -179 71.5t-72 188.5q0 116 69 190t176 74zM284 442q-61 0 -103 -39t-49 -102h293q-5 63 -43 102t-98 39z" />
    <glyph glyph-name="Edotaccent" unicode="&#x116;" horiz-adv-x="593" 
d="M353 851v-100h-96v100h96zM174 83h375v-83h-470v700h465v-82h-370v-219h334v-82h-334v-234z" />
    <glyph glyph-name="edotaccent" unicode="&#x117;" horiz-adv-x="552" 
d="M330 666v-100h-96v100h96zM286 514q112 0 173.5 -81t49.5 -202h-380q4 -79 51 -123t114 -44q98 0 148 88l61 -38q-31 -57 -86 -90.5t-125 -33.5q-107 0 -179 71.5t-72 188.5q0 116 69 190t176 74zM284 442q-61 0 -103 -39t-49 -102h293q-5 63 -43 102t-98 39z" />
    <glyph glyph-name="Eogonek" unicode="&#x118;" horiz-adv-x="593" 
d="M543 -142l17 -42q-28 -24 -74 -24t-71.5 22t-25.5 60q0 72 92 126h-402v700h465v-82h-370v-219h334v-82h-334v-234h375v-83q-94 -60 -94 -111q0 -39 45 -39q19 0 43 8z" />
    <glyph glyph-name="eogonek" unicode="&#x119;" horiz-adv-x="552" 
d="M286 514q112 0 173.5 -81t49.5 -202h-380q4 -79 51 -123t114 -44q98 0 148 88l61 -38q-48 -89 -146 -116q-91 -59 -91 -109q0 -39 45 -39q19 0 43 8l17 -42q-28 -24 -74 -24t-71.5 22t-25.5 60q0 65 77 116q-102 6 -169 77t-67 183q0 116 69 190t176 74zM284 442
q-61 0 -103 -39t-49 -102h293q-5 63 -43 102t-98 39z" />
    <glyph glyph-name="Ecaron" unicode="&#x11a;" horiz-adv-x="593" 
d="M357 751h-103l-81 128h66l67 -72l67 72h65zM174 83h375v-83h-470v700h465v-82h-370v-219h334v-82h-334v-234z" />
    <glyph glyph-name="ecaron" unicode="&#x11b;" horiz-adv-x="552" 
d="M336 566h-107l-82 130h69l66 -71l66 71h69zM286 514q112 0 173.5 -81t49.5 -202h-380q4 -79 51 -123t114 -44q98 0 148 88l61 -38q-31 -57 -86 -90.5t-125 -33.5q-107 0 -179 71.5t-72 188.5q0 116 69 190t176 74zM284 442q-61 0 -103 -39t-49 -102h293q-5 63 -43 102
t-98 39z" />
    <glyph glyph-name="Gbreve" unicode="&#x11e;" horiz-adv-x="754" 
d="M390 748q-57 0 -88 33.5t-31 97.5h61q5 -68 58 -68q55 0 58 68h61q0 -65 -30.5 -98t-88.5 -33zM375 356h309v-356h-79v99q-67 -109 -222 -109q-141 0 -239 100t-98 258q0 160 96 262t244 102q105 0 181.5 -52.5t112.5 -142.5l-80 -32q-28 68 -83.5 106t-131.5 38
q-106 0 -175 -78.5t-69 -201.5q0 -122 72.5 -199t182.5 -77q90 0 146.5 51t60.5 136l-1 18h-227v78z" />
    <glyph glyph-name="gbreve" unicode="&#x11f;" horiz-adv-x="608" 
d="M296 563q-57 0 -88 33.5t-31 97.5h61q5 -68 58 -68t58 68h61q0 -65 -30.5 -98t-88.5 -33zM449 502h90v-441q0 -125 -70 -198t-189 -73q-93 0 -157.5 45.5t-89.5 126.5l72 27q45 -122 178 -122q78 0 122 48t44 134v41q-59 -83 -169 -83q-102 0 -170 71.5t-68 180.5
q0 111 68.5 183t171.5 72q108 0 167 -84v72zM291 83q69 0 113.5 50t44.5 127q0 78 -44.5 128t-113.5 50q-70 0 -114 -50t-44 -128q0 -77 44 -127t114 -50z" />
    <glyph glyph-name="Gdotaccent" unicode="&#x120;" horiz-adv-x="754" 
d="M437 851v-100h-96v100h96zM375 356h309v-356h-79v99q-67 -109 -222 -109q-141 0 -239 100t-98 258q0 160 96 262t244 102q105 0 181.5 -52.5t112.5 -142.5l-80 -32q-28 68 -83.5 106t-131.5 38q-106 0 -175 -78.5t-69 -201.5q0 -122 72.5 -199t182.5 -77q90 0 146.5 51
t60.5 136l-1 18h-227v78z" />
    <glyph glyph-name="gdotaccent" unicode="&#x121;" horiz-adv-x="608" 
d="M343 666v-100h-96v100h96zM449 502h90v-441q0 -125 -70 -198t-189 -73q-93 0 -157.5 45.5t-89.5 126.5l72 27q45 -122 178 -122q78 0 122 48t44 134v41q-59 -83 -169 -83q-102 0 -170 71.5t-68 180.5q0 111 68.5 183t171.5 72q108 0 167 -84v72zM291 83q69 0 113.5 50
t44.5 127q0 78 -44.5 128t-113.5 50q-70 0 -114 -50t-44 -128q0 -77 44 -127t114 -50z" />
    <glyph glyph-name="uni0122" unicode="&#x122;" horiz-adv-x="754" 
d="M375 356h309v-356h-79v99q-67 -109 -222 -109q-141 0 -239 100t-98 258q0 160 96 262t244 102q105 0 181.5 -52.5t112.5 -142.5l-80 -32q-28 68 -83.5 106t-131.5 38q-106 0 -175 -78.5t-69 -201.5q0 -122 72.5 -199t182.5 -77q90 0 146.5 51t60.5 136l-1 18h-227v78z
M327 -132v78h100v-80q0 -83 -75 -83q-38 0 -58 20l20 30q16 -11 36 -11q31 0 31 34v12h-54z" />
    <glyph glyph-name="uni0123" unicode="&#x123;" horiz-adv-x="608" 
d="M346 645v-79h-100v81q0 40 20.5 61.5t57.5 21.5t55 -21l-19 -26q-16 12 -34 12q-37 0 -37 -38v-12h57zM449 502h90v-441q0 -125 -70 -198t-189 -73q-93 0 -157.5 45.5t-89.5 126.5l72 27q45 -122 178 -122q78 0 122 48t44 134v41q-59 -83 -169 -83q-102 0 -170 71.5
t-68 180.5q0 111 68.5 183t171.5 72q108 0 167 -84v72zM291 83q69 0 113.5 50t44.5 127q0 78 -44.5 128t-113.5 50q-70 0 -114 -50t-44 -128q0 -77 44 -127t114 -50z" />
    <glyph glyph-name="Hbar" unicode="&#x126;" horiz-adv-x="714" 
d="M703 589v-79h-69v-510h-94v317h-366v-317h-95v510h-68v79h68v111h95v-111h366v111h94v-111h69zM540 399v111h-366v-111h366z" />
    <glyph glyph-name="hbar" unicode="&#x127;" horiz-adv-x="576" 
d="M331 514q84 0 134 -54t50 -143v-317h-90v306q0 61 -31 96.5t-85 35.5q-64 0 -106 -52.5t-42 -147.5v-238h-90v554h-61v62h61v84h90v-84h155v-62h-155v-143q55 103 170 103z" />
    <glyph glyph-name="Imacron" unicode="&#x12a;" horiz-adv-x="253" 
d="M-5 751v70h262v-70h-262zM79 0v700h95v-700h-95z" />
    <glyph glyph-name="imacron" unicode="&#x12b;" horiz-adv-x="227" 
d="M-8 566v69h241v-69h-241zM68 0v502h90v-502h-90z" />
    <glyph glyph-name="Iogonek" unicode="&#x12e;" horiz-adv-x="253" 
d="M167 -142l17 -42q-28 -24 -74 -24t-71.5 22t-25.5 60q0 72 92 126h-26v700h95v-700h-1q-94 -60 -94 -111q0 -39 45 -39q19 0 43 8z" />
    <glyph glyph-name="iogonek" unicode="&#x12f;" horiz-adv-x="227" 
d="M161 704v-99h-96v99h96zM152 -142l17 -42q-28 -24 -74 -24t-71.5 22t-25.5 60q0 72 92 126h-22v502h90v-502q-94 -60 -94 -111q0 -39 45 -39q19 0 43 8z" />
    <glyph glyph-name="Idotaccent" unicode="&#x130;" horiz-adv-x="253" 
d="M78 751v100h96v-100h-96zM79 0v700h95v-700h-95z" />
    <glyph glyph-name="dotlessi" unicode="&#x131;" horiz-adv-x="227" 
d="M68 0v502h90v-502h-90z" />
    <glyph glyph-name="uni0136" unicode="&#x136;" horiz-adv-x="655" 
d="M369 431l265 -431h-113l-218 361l-129 -136v-225h-95v700h95v-351l329 351h121zM285 -132v78h100v-80q0 -83 -75 -83q-38 0 -58 20l20 30q16 -11 36 -11q31 0 31 34v12h-54z" />
    <glyph glyph-name="uni0137" unicode="&#x137;" horiz-adv-x="533" 
d="M325 317l195 -317h-104l-153 254l-102 -107v-147h-90v700h90v-438l230 240h112zM223 -132v78h100v-80q0 -83 -75 -83q-38 0 -58 20l20 30q16 -11 36 -11q31 0 31 34v12h-54z" />
    <glyph glyph-name="Lacute" unicode="&#x139;" horiz-adv-x="563" 
d="M258 879l-97 -128h-65l54 128h108zM174 83h356v-83h-451v700h95v-617z" />
    <glyph glyph-name="lacute" unicode="&#x13a;" horiz-adv-x="233" 
d="M78 764l54 129h108l-97 -129h-65zM71 0v700h90v-700h-90z" />
    <glyph glyph-name="uni013B" unicode="&#x13b;" horiz-adv-x="563" 
d="M174 83h356v-83h-451v700h95v-617zM228 -132v78h100v-80q0 -83 -75 -83q-38 0 -58 20l20 30q16 -11 36 -11q31 0 31 34v12h-54z" />
    <glyph glyph-name="uni013C" unicode="&#x13c;" horiz-adv-x="233" 
d="M161 700v-700h-90v700h90zM67 -54h100v-80q0 -83 -75 -83q-38 0 -58 20l20 30q16 -11 36 -11q31 0 31 34v12h-54v78z" />
    <glyph glyph-name="Lcaron" unicode="&#x13d;" horiz-adv-x="563" 
d="M174 83h356v-83h-451v700h95v-617zM346 700l-30 -155h-49v155h79z" />
    <glyph glyph-name="lcaron" unicode="&#x13e;" horiz-adv-x="233" 
d="M71 0v700h90v-700h-90zM205 545v155h79l-30 -155h-49z" />
    <glyph glyph-name="Lslash" unicode="&#x141;" horiz-adv-x="563" 
d="M174 83h356v-83h-451v276l-74 -35v89l74 35v335h95v-290l172 81v-89l-172 -81v-238z" />
    <glyph glyph-name="lslash" unicode="&#x142;" horiz-adv-x="245" 
d="M242 467v-87l-75 -36v-344h-90v302l-75 -36v87l75 36v311h90v-269z" />
    <glyph glyph-name="Nacute" unicode="&#x143;" horiz-adv-x="720" 
d="M491 879l-97 -128h-65l54 128h108zM548 700h92v-700h-114l-355 584v-584h-92v700h122l347 -570v570z" />
    <glyph glyph-name="nacute" unicode="&#x144;" horiz-adv-x="573" 
d="M427 695l-97 -129h-65l54 129h108zM327 514q84 0 134.5 -53t50.5 -144v-317h-90v306q0 61 -31 96.5t-85 35.5q-65 0 -106.5 -52t-41.5 -148v-238h-90v502h90v-90q55 102 169 102z" />
    <glyph glyph-name="uni0145" unicode="&#x145;" horiz-adv-x="720" 
d="M548 700h92v-700h-114l-355 584v-584h-92v700h122l347 -570v570zM311 -132v78h100v-80q0 -83 -75 -83q-38 0 -58 20l20 30q16 -11 36 -11q31 0 31 34v12h-54z" />
    <glyph glyph-name="uni0146" unicode="&#x146;" horiz-adv-x="573" 
d="M327 514q84 0 134.5 -53t50.5 -144v-317h-90v306q0 61 -31 96.5t-85 35.5q-65 0 -106.5 -52t-41.5 -148v-238h-90v502h90v-90q55 102 169 102zM241 -132v78h100v-80q0 -83 -75 -83q-38 0 -58 20l20 30q16 -11 36 -11q31 0 31 34v12h-54z" />
    <glyph glyph-name="Ncaron" unicode="&#x147;" horiz-adv-x="720" 
d="M412 751h-103l-81 128h66l67 -72l67 72h65zM548 700h92v-700h-114l-355 584v-584h-92v700h122l347 -570v570z" />
    <glyph glyph-name="ncaron" unicode="&#x148;" horiz-adv-x="573" 
d="M357 566h-107l-82 130h69l66 -71l66 71h69zM327 514q84 0 134.5 -53t50.5 -144v-317h-90v306q0 61 -31 96.5t-85 35.5q-65 0 -106.5 -52t-41.5 -148v-238h-90v502h90v-90q55 102 169 102z" />
    <glyph glyph-name="Eng" unicode="&#x14a;" horiz-adv-x="720" 
d="M548 700h92v-741q0 -77 -45 -123.5t-121 -46.5q-66 0 -124 40l35 68q46 -29 81 -29q40 0 61.5 24t21.5 65v43l-378 587v-587h-92v700h121l348 -540v540z" />
    <glyph glyph-name="eng" unicode="&#x14b;" horiz-adv-x="580" 
d="M327 514q84 0 134.5 -53t50.5 -144v-376q0 -68 -38.5 -109.5t-102.5 -41.5q-83 0 -120 64l60 42q23 -31 55 -31q26 0 41 19.5t15 52.5v369q0 61 -31 96.5t-85 35.5q-65 0 -106.5 -52t-41.5 -148v-238h-90v502h90v-90q53 102 169 102z" />
    <glyph glyph-name="Omacron" unicode="&#x14c;" horiz-adv-x="785" 
d="M261 751v70h262v-70h-262zM393 -10q-151 0 -249 101.5t-98 258.5q0 158 97.5 260t249.5 102q151 0 248.5 -102t97.5 -260q0 -157 -97.5 -258.5t-248.5 -101.5zM393 73q111 0 181.5 78t70.5 199q0 122 -70.5 200.5t-181.5 78.5t-181.5 -78t-70.5 -201q0 -121 70.5 -199
t181.5 -78z" />
    <glyph glyph-name="omacron" unicode="&#x14d;" horiz-adv-x="585" 
d="M164 566v69h256v-69h-256zM292 -10q-109 0 -180 73.5t-71 187.5t71.5 188.5t180.5 74.5t180 -73.5t71 -187.5t-71.5 -188.5t-180.5 -74.5zM293 66q71 0 116 52t45 134t-45.5 134t-116.5 52t-116 -52t-45 -134t45.5 -134t116.5 -52z" />
    <glyph glyph-name="Ohungarumlaut" unicode="&#x150;" horiz-adv-x="785" 
d="M295 751l50 129h101l-93 -129h-58zM431 751l50 129h101l-92 -129h-59zM393 -10q-151 0 -249 101.5t-98 258.5q0 158 97.5 260t249.5 102q151 0 248.5 -102t97.5 -260q0 -157 -97.5 -258.5t-248.5 -101.5zM393 73q111 0 181.5 78t70.5 199q0 122 -70.5 200.5t-181.5 78.5
t-181.5 -78t-70.5 -201q0 -121 70.5 -199t181.5 -78z" />
    <glyph glyph-name="ohungarumlaut" unicode="&#x151;" horiz-adv-x="585" 
d="M195 566l50 129h101l-93 -129h-58zM331 566l50 129h101l-92 -129h-59zM292 -10q-109 0 -180 73.5t-71 187.5t71.5 188.5t180.5 74.5t180 -73.5t71 -187.5t-71.5 -188.5t-180.5 -74.5zM293 66q71 0 116 52t45 134t-45.5 134t-116.5 52t-116 -52t-45 -134t45.5 -134
t116.5 -52z" />
    <glyph glyph-name="OE" unicode="&#x152;" horiz-adv-x="971" 
d="M553 83h373v-83h-542q-157 0 -247.5 93t-90.5 256q0 164 90.5 257.5t247.5 93.5h536v-82h-367v-219h333v-82h-333v-234zM141 349q0 -124 66.5 -195t181.5 -71h69v535h-69q-114 0 -181 -72t-67 -197z" />
    <glyph glyph-name="oe" unicode="&#x153;" horiz-adv-x="967" 
d="M700 514q112 0 173.5 -81t49.5 -202h-380q4 -79 50.5 -123t114.5 -44q98 0 148 88l61 -38q-31 -57 -86 -90.5t-125 -33.5q-67 0 -121.5 32t-85.5 90q-32 -57 -86 -89.5t-121 -32.5q-109 0 -180 73.5t-71 187.5t71.5 188.5t180.5 74.5q67 0 121 -32t85 -89q30 57 82.5 89
t118.5 32zM698 442q-62 0 -104.5 -40.5t-47.5 -104.5h294q-5 65 -43 105t-99 40zM293 66q71 0 116 52t45 134t-45.5 134t-116.5 52t-116 -52t-45 -134t45.5 -134t116.5 -52z" />
    <glyph glyph-name="Racute" unicode="&#x154;" horiz-adv-x="646" 
d="M442 879l-97 -128h-65l54 128h108zM559 184l40 -184h-95l-36 166q-15 67 -52 96.5t-105 29.5h-137v-292h-95v700h281q103 0 164.5 -53.5t61.5 -143.5q0 -66 -34.5 -113.5t-96.5 -68.5q82 -34 104 -137zM174 373h183q61 0 98 33.5t37 88.5q0 56 -36.5 89.5t-97.5 33.5
h-184v-245z" />
    <glyph glyph-name="racute" unicode="&#x155;" horiz-adv-x="367" 
d="M334 695l-97 -129h-65l54 129h108zM286 511q37 0 66 -17l-31 -75q-20 10 -45 10q-118 0 -118 -214v-215h-90v502h90v-85q39 94 128 94z" />
    <glyph glyph-name="uni0156" unicode="&#x156;" horiz-adv-x="646" 
d="M559 184l40 -184h-95l-36 166q-15 67 -52 96.5t-105 29.5h-137v-292h-95v700h281q103 0 164.5 -53.5t61.5 -143.5q0 -66 -34.5 -113.5t-96.5 -68.5q82 -34 104 -137zM174 373h183q61 0 98 33.5t37 88.5q0 56 -36.5 89.5t-97.5 33.5h-184v-245zM273 -132v78h100v-80
q0 -83 -75 -83q-38 0 -58 20l20 30q16 -11 36 -11q31 0 31 34v12h-54z" />
    <glyph glyph-name="uni0157" unicode="&#x157;" horiz-adv-x="367" 
d="M286 511q37 0 66 -17l-31 -75q-20 10 -45 10q-118 0 -118 -214v-215h-90v502h90v-85q39 94 128 94zM65 -132v78h100v-80q0 -83 -75 -83q-38 0 -58 20l20 30q16 -11 36 -11q31 0 31 34v12h-54z" />
    <glyph glyph-name="Rcaron" unicode="&#x158;" horiz-adv-x="646" 
d="M363 751h-103l-81 128h66l67 -72l67 72h65zM559 184l40 -184h-95l-36 166q-15 67 -52 96.5t-105 29.5h-137v-292h-95v700h281q103 0 164.5 -53.5t61.5 -143.5q0 -66 -34.5 -113.5t-96.5 -68.5q82 -34 104 -137zM174 373h183q61 0 98 33.5t37 88.5q0 56 -36.5 89.5
t-97.5 33.5h-184v-245z" />
    <glyph glyph-name="rcaron" unicode="&#x159;" horiz-adv-x="367" 
d="M264 566h-107l-82 130h69l66 -71l66 71h69zM286 511q37 0 66 -17l-31 -75q-20 10 -45 10q-118 0 -118 -214v-215h-90v502h90v-85q39 94 128 94z" />
    <glyph glyph-name="Sacute" unicode="&#x15a;" horiz-adv-x="609" 
d="M275 751l54 128h108l-97 -128h-65zM301 -10q-105 0 -174 52.5t-90 144.5l82 25q18 -69 66.5 -105.5t121.5 -36.5q78 0 125.5 32t47.5 85q0 40 -23 65t-59.5 36.5t-80.5 19.5t-88 19t-80.5 29.5t-59.5 57t-23 96.5q0 90 67 146t176 56q93 0 156 -45.5t87 -125.5l-84 -25
q-19 54 -62 85t-103 31q-67 0 -107.5 -32t-40.5 -82q0 -45 31 -71.5t77 -34.5t100.5 -20t100.5 -27.5t77 -57.5t31 -109q0 -96 -74 -152t-197 -56z" />
    <glyph glyph-name="sacute" unicode="&#x15b;" horiz-adv-x="474" 
d="M206 566l54 129h108l-97 -129h-65zM232 -10q-79 0 -131.5 38t-68.5 107l69 24q31 -98 137 -98q51 0 81.5 20t30.5 53q0 30 -22 47.5t-55 22.5t-71 14t-71 21t-55 44.5t-22 82.5q0 68 52 108t137 40q67 0 113.5 -33t62.5 -91l-71 -24q-28 79 -111 79q-46 0 -73 -19.5
t-27 -51.5q0 -31 22 -48.5t55 -23t71.5 -14.5t71.5 -20.5t55 -43.5t22 -81q0 -70 -55.5 -111.5t-146.5 -41.5z" />
    <glyph glyph-name="Scedilla" unicode="&#x15e;" horiz-adv-x="609" 
d="M572 198q0 -88 -63 -143t-170 -63l-22 -37q38 4 67.5 -15.5t29.5 -59.5q0 -45 -30 -66.5t-75 -21.5q-62 0 -108 38l24 37q45 -26 80 -26q45 0 45 36q0 45 -79 33l-15 29l32 51q-100 4 -165.5 56t-85.5 141l82 25q18 -69 66.5 -105.5t121.5 -36.5q78 0 125.5 32t47.5 85
q0 40 -23 65t-59.5 36.5t-80.5 19.5t-88 19t-80.5 29.5t-59.5 57t-23 96.5q0 90 67 146t176 56q93 0 156 -45.5t87 -125.5l-84 -25q-19 54 -62 85t-103 31q-67 0 -107.5 -32t-40.5 -82q0 -45 31 -71.5t77 -34.5t100.5 -20t100.5 -27.5t77 -57.5t31 -109z" />
    <glyph glyph-name="scedilla" unicode="&#x15f;" horiz-adv-x="474" 
d="M434 143q0 -62 -44.5 -102.5t-120.5 -48.5l-22 -37q38 4 67.5 -15.5t29.5 -59.5q0 -45 -30 -66.5t-75 -21.5q-62 0 -108 38l24 37q45 -26 80 -26q45 0 45 36q0 45 -79 33l-15 29l32 51q-73 4 -122 41.5t-64 103.5l69 24q31 -98 137 -98q51 0 81.5 20t30.5 53
q0 30 -22 47.5t-55 22.5t-71 14t-71 21t-55 44.5t-22 82.5q0 68 52 108t137 40q67 0 113.5 -33t62.5 -91l-71 -24q-28 79 -111 79q-46 0 -73 -19.5t-27 -51.5q0 -31 22 -48.5t55 -23t71.5 -14.5t71.5 -20.5t55 -43.5t22 -81z" />
    <glyph glyph-name="Scaron" unicode="&#x160;" horiz-adv-x="609" 
d="M254 751l-81 128h66l67 -72l67 72h65l-81 -128h-103zM301 -10q-105 0 -174 52.5t-90 144.5l82 25q18 -69 66.5 -105.5t121.5 -36.5q78 0 125.5 32t47.5 85q0 40 -23 65t-59.5 36.5t-80.5 19.5t-88 19t-80.5 29.5t-59.5 57t-23 96.5q0 90 67 146t176 56q93 0 156 -45.5
t87 -125.5l-84 -25q-19 54 -62 85t-103 31q-67 0 -107.5 -32t-40.5 -82q0 -45 31 -71.5t77 -34.5t100.5 -20t100.5 -27.5t77 -57.5t31 -109q0 -96 -74 -152t-197 -56z" />
    <glyph glyph-name="scaron" unicode="&#x161;" horiz-adv-x="474" 
d="M190 566l-82 130h69l66 -71l66 71h69l-81 -130h-107zM232 -10q-79 0 -131.5 38t-68.5 107l69 24q31 -98 137 -98q51 0 81.5 20t30.5 53q0 30 -22 47.5t-55 22.5t-71 14t-71 21t-55 44.5t-22 82.5q0 68 52 108t137 40q67 0 113.5 -33t62.5 -91l-71 -24q-28 79 -111 79
q-46 0 -73 -19.5t-27 -51.5q0 -31 22 -48.5t55 -23t71.5 -14.5t71.5 -20.5t55 -43.5t22 -81q0 -70 -55.5 -111.5t-146.5 -41.5z" />
    <glyph glyph-name="uni0162" unicode="&#x162;" horiz-adv-x="630" 
d="M362 0h-19l-27 -45q38 4 67.5 -15.5t29.5 -59.5q0 -45 -30 -66.5t-75 -21.5q-62 0 -108 38l24 37q46 -26 80 -26q45 0 45 36q0 45 -79 33l-15 29l38 61h-25v618h-250v82h594v-82h-250v-618z" />
    <glyph glyph-name="uni0163" unicode="&#x163;" horiz-adv-x="351" 
d="M225 -10h-1l-21 -35q38 4 67.5 -15.5t29.5 -59.5q0 -45 -30 -66.5t-75 -21.5q-62 0 -108 38l24 37q45 -26 80 -26q45 0 45 36q0 45 -79 33l-15 29l36 57q-86 25 -86 133v297h-80v76h80v110l90 38v-148h134v-76h-134v-287q0 -74 57 -74q32 0 57 27l49 -47
q-39 -55 -120 -55z" />
    <glyph glyph-name="Tcaron" unicode="&#x164;" horiz-adv-x="630" 
d="M367 751h-103l-81 128h66l67 -72l67 72h65zM612 700v-82h-250v-618h-94v618h-250v82h594z" />
    <glyph glyph-name="tcaron" unicode="&#x165;" horiz-adv-x="351" 
d="M307 700l-30 -155h-49v155h79zM296 92l49 -47q-39 -55 -120 -55q-64 0 -98.5 36t-34.5 103v297h-80v76h80v110l90 38v-148h134v-76h-134v-287q0 -74 57 -74q32 0 57 27z" />
    <glyph glyph-name="Tbar" unicode="&#x166;" horiz-adv-x="630" 
d="M612 618h-250v-234h134v-78h-134v-306h-94v306h-134v78h134v234h-250v82h594v-82z" />
    <glyph glyph-name="tbar" unicode="&#x167;" horiz-adv-x="351" 
d="M296 92l49 -47q-39 -55 -120 -55q-64 0 -98.5 36t-34.5 103v90h-73v62h73v145h-80v76h80v110l90 38v-148h134v-76h-134v-145h143v-62h-143v-80q0 -74 57 -74q32 0 57 27z" />
    <glyph glyph-name="Umacron" unicode="&#x16a;" horiz-adv-x="691" 
d="M214 751v70h262v-70h-262zM344 -10q-125 0 -198 76t-73 208v426h94v-421q0 -96 48.5 -151t131.5 -55q81 0 129 55t48 151v421h94v-425q0 -133 -73.5 -209t-200.5 -76z" />
    <glyph glyph-name="umacron" unicode="&#x16b;" horiz-adv-x="564" 
d="M402 635v-69h-256v69h256zM406 502h90v-502h-90v96q-54 -106 -171 -106q-82 0 -132 52.5t-50 142.5v317h90v-308q0 -59 30 -93.5t83 -34.5q67 0 108.5 56.5t41.5 159.5v220z" />
    <glyph glyph-name="Uring" unicode="&#x16e;" horiz-adv-x="691" 
d="M345 748q-39 0 -64 25t-25 61t25 61t64 25t64 -25t25 -61t-25 -61t-64 -25zM345 791q20 0 31.5 12t11.5 31t-11.5 31t-31.5 12q-19 0 -30.5 -12t-11.5 -31t11.5 -31t30.5 -12zM344 -10q-125 0 -198 76t-73 208v426h94v-421q0 -96 48.5 -151t131.5 -55q81 0 129 55t48 151
v421h94v-425q0 -133 -73.5 -209t-200.5 -76z" />
    <glyph glyph-name="uring" unicode="&#x16f;" horiz-adv-x="564" 
d="M275 563q-39 0 -64 25t-25 61t25 61t64 25t64 -25t25 -61t-25 -61t-64 -25zM275 692q-19 0 -30.5 -12t-11.5 -31t11.5 -31t30.5 -12q20 0 31.5 12t11.5 31t-11.5 31t-31.5 12zM406 502h90v-502h-90v96q-54 -106 -171 -106q-82 0 -132 52.5t-50 142.5v317h90v-308
q0 -59 30 -93.5t83 -34.5q67 0 108.5 56.5t41.5 159.5v220z" />
    <glyph glyph-name="Uhungarumlaut" unicode="&#x170;" horiz-adv-x="691" 
d="M248 751l50 129h101l-93 -129h-58zM384 751l50 129h101l-92 -129h-59zM344 -10q-125 0 -198 76t-73 208v426h94v-421q0 -96 48.5 -151t131.5 -55q81 0 129 55t48 151v421h94v-425q0 -133 -73.5 -209t-200.5 -76z" />
    <glyph glyph-name="uhungarumlaut" unicode="&#x171;" horiz-adv-x="564" 
d="M329 695l-93 -129h-58l50 129h101zM373 566h-59l50 129h101zM406 502h90v-502h-90v96q-54 -106 -171 -106q-82 0 -132 52.5t-50 142.5v317h90v-308q0 -59 30 -93.5t83 -34.5q67 0 108.5 56.5t41.5 159.5v220z" />
    <glyph glyph-name="Uogonek" unicode="&#x172;" horiz-adv-x="691" 
d="M524 700h94v-425q0 -115 -56 -188.5t-156 -91.5q-87 -56 -87 -106q0 -39 45 -39q19 0 43 8l17 -42q-28 -24 -74 -24t-71.5 22t-25.5 60q0 66 76 116q-119 5 -187.5 80.5t-68.5 203.5v426h94v-421q0 -96 48.5 -151t131.5 -55q81 0 129 55t48 151v421z" />
    <glyph glyph-name="uogonek" unicode="&#x173;" horiz-adv-x="564" 
d="M476 0q-94 -60 -94 -111q0 -39 45 -39q19 0 43 8l17 -42q-28 -24 -74 -24t-71.5 22t-25.5 60q0 72 92 126h-2v96q-54 -106 -171 -106q-82 0 -132 52.5t-50 142.5v317h90v-308q0 -59 30 -93.5t83 -34.5q67 0 108.5 56.5t41.5 159.5v220h90v-502h-20z" />
    <glyph glyph-name="Wcircumflex" unicode="&#x174;" horiz-adv-x="1022" 
d="M513 823l-68 -72h-66l81 128h103l81 -128h-65zM906 700h97l-203 -700h-114l-174 592l-177 -592h-113l-203 700h101l164 -588l168 588h122l171 -593z" />
    <glyph glyph-name="wcircumflex" unicode="&#x175;" horiz-adv-x="764" 
d="M382 637l-66 -71h-69l84 130h102l84 -130h-69zM659 502h92l-148 -502h-99l-123 398l-120 -398h-99l-149 502h93l111 -399l119 399h94l122 -400z" />
    <glyph glyph-name="Ycircumflex" unicode="&#x176;" horiz-adv-x="626" 
d="M315 823l-68 -72h-66l81 128h103l81 -128h-65zM508 700h104l-253 -416v-284h-95v284l-250 416h104l196 -332z" />
    <glyph glyph-name="ycircumflex" unicode="&#x177;" horiz-adv-x="507" 
d="M261 637l-66 -71h-69l84 130h102l84 -130h-69zM401 502h93l-270 -702h-91l81 199l-201 503h94l152 -396z" />
    <glyph glyph-name="Ydieresis" unicode="&#x178;" horiz-adv-x="626" 
d="M277 851v-100h-89v100h89zM437 851v-100h-89v100h89zM508 700h104l-253 -416v-284h-95v284l-250 416h104l196 -332z" />
    <glyph glyph-name="Zacute" unicode="&#x179;" horiz-adv-x="621" 
d="M443 879l-97 -128h-65l54 128h108zM164 83h412v-83h-527v79l410 539h-401v82h514v-78z" />
    <glyph glyph-name="zacute" unicode="&#x17a;" horiz-adv-x="474" 
d="M361 695l-97 -129h-65l54 129h108zM142 76h294v-76h-398v72l287 354h-282v76h389v-74z" />
    <glyph glyph-name="Zdotaccent" unicode="&#x17b;" horiz-adv-x="621" 
d="M359 851v-100h-96v100h96zM164 83h412v-83h-527v79l410 539h-401v82h514v-78z" />
    <glyph glyph-name="zdotaccent" unicode="&#x17c;" horiz-adv-x="474" 
d="M285 666v-100h-96v100h96zM142 76h294v-76h-398v72l287 354h-282v76h389v-74z" />
    <glyph glyph-name="Zcaron" unicode="&#x17d;" horiz-adv-x="621" 
d="M363 751h-103l-81 128h66l67 -72l67 72h65zM164 83h412v-83h-527v79l410 539h-401v82h514v-78z" />
    <glyph glyph-name="zcaron" unicode="&#x17e;" horiz-adv-x="474" 
d="M291 566h-107l-82 130h69l66 -71l66 71h69zM142 76h294v-76h-398v72l287 354h-282v76h389v-74z" />
    <glyph glyph-name="florin" unicode="&#x192;" horiz-adv-x="355" 
d="M200 569v-67h127v-76h-127v-485q0 -68 -38.5 -109.5t-102.5 -41.5q-82 0 -120 63l60 44q22 -32 55 -32q26 0 41 19.5t15 52.5v489h-80v76h80v63q0 65 38 105t100 40q80 0 116 -64l-61 -37q-18 26 -47 26q-26 0 -41 -17.5t-15 -48.5z" />
    <glyph glyph-name="uni0218" unicode="&#x218;" horiz-adv-x="609" 
d="M155 518q0 -45 31 -71.5t77 -34.5t100.5 -20t100.5 -27.5t77 -57.5t31 -109q0 -96 -74 -152t-197 -56q-105 0 -174 52.5t-90 144.5l82 25q18 -69 66.5 -105.5t121.5 -36.5q78 0 125.5 32t47.5 85q0 40 -23 65t-59.5 36.5t-80.5 19.5t-88 19t-80.5 29.5t-59.5 57t-23 96.5
q0 90 67 146t176 56q93 0 156 -45.5t87 -125.5l-84 -25q-19 54 -62 85t-103 31q-67 0 -107.5 -32t-40.5 -82zM267 -132v78h100v-80q0 -83 -75 -83q-38 0 -58 20l20 30q16 -11 36 -11q31 0 31 34v12h-54z" />
    <glyph glyph-name="uni0219" unicode="&#x219;" horiz-adv-x="474" 
d="M137 374q0 -31 22 -48.5t55 -23t71.5 -14.5t71.5 -20.5t55 -43.5t22 -81q0 -70 -55.5 -111.5t-146.5 -41.5q-79 0 -131.5 38t-68.5 107l69 24q31 -98 137 -98q51 0 81.5 20t30.5 53q0 30 -22 47.5t-55 22.5t-71 14t-71 21t-55 44.5t-22 82.5q0 68 52 108t137 40
q67 0 113.5 -33t62.5 -91l-71 -24q-28 79 -111 79q-46 0 -73 -19.5t-27 -51.5zM196 -132v78h100v-80q0 -83 -75 -83q-38 0 -58 20l20 30q17 -11 36 -11q31 0 31 34v12h-54z" />
    <glyph glyph-name="uni021A" unicode="&#x21a;" horiz-adv-x="630" 
d="M18 700h594v-82h-250v-618h-94v618h-250v82zM266 -132v78h100v-80q0 -83 -75 -83q-38 0 -58 20l20 30q17 -11 36 -11q31 0 31 34v12h-54z" />
    <glyph glyph-name="uni021B" unicode="&#x21b;" horiz-adv-x="351" 
d="M296 92l49 -47q-39 -55 -120 -55q-64 0 -98.5 36t-34.5 103v297h-80v76h80v110l90 38v-148h134v-76h-134v-287q0 -74 57 -74q32 0 57 27zM153 -132v78h100v-80q0 -83 -75 -83q-38 0 -58 20l20 30q16 -11 36 -11q31 0 31 34v12h-54z" />
    <glyph glyph-name="uni0237" unicode="&#x237;" horiz-adv-x="233" 
d="M24 -210q-66 0 -105 46l48 52q23 -23 52 -23q26 0 41 19.5t15 52.5v565h90v-557q0 -70 -38.5 -112.5t-102.5 -42.5z" />
    <glyph glyph-name="circumflex" unicode="&#x2c6;" horiz-adv-x="430" 
d="M80 566l84 130h102l84 -130h-69l-66 71l-66 -71h-69z" />
    <glyph glyph-name="caron" unicode="&#x2c7;" horiz-adv-x="430" 
d="M162 566l-82 130h69l66 -71l66 71h69l-81 -130h-107z" />
    <glyph glyph-name="breve" unicode="&#x2d8;" horiz-adv-x="398" 
d="M199 563q-57 0 -88 33.5t-31 97.5h61q5 -68 58 -68t58 68h61q0 -65 -30.5 -98t-88.5 -33z" />
    <glyph glyph-name="dotaccent" unicode="&#x2d9;" horiz-adv-x="256" 
d="M80 566v100h96v-100h-96z" />
    <glyph glyph-name="ring" unicode="&#x2da;" horiz-adv-x="338" 
d="M169 563q-39 0 -64 25t-25 61t25 61t64 25t64 -25t25 -61t-25 -61t-64 -25zM169 606q20 0 31.5 12t11.5 31t-11.5 31t-31.5 12q-19 0 -30.5 -12t-11.5 -31t11.5 -31t30.5 -12z" />
    <glyph glyph-name="ogonek" unicode="&#x2db;" horiz-adv-x="331" 
d="M177 -208q-46 0 -71.5 22t-25.5 60q0 72 92 126h68q-94 -60 -94 -111q0 -39 45 -39q19 0 43 8l17 -42q-28 -24 -74 -24z" />
    <glyph glyph-name="tilde" unicode="&#x2dc;" horiz-adv-x="460" 
d="M293 564q-28 0 -66 28t-55 28q-19 0 -27 -13t-10 -41h-55q0 57 22.5 90t64.5 33q29 0 66.5 -28.5t54.5 -28.5q33 0 36 54h56q0 -56 -22.5 -89t-64.5 -33z" />
    <glyph glyph-name="hungarumlaut" unicode="&#x2dd;" horiz-adv-x="447" 
d="M80 566l50 129h101l-93 -129h-58zM216 566l50 129h101l-92 -129h-59z" />
    <glyph glyph-name="gravecomb" unicode="&#x300;" 
d="M-105 566l-97 129h108l54 -129h-65z" />
    <glyph glyph-name="acutecomb" unicode="&#x301;" 
d="M-202 566l54 129h108l-97 -129h-65z" />
    <glyph glyph-name="uni0302" unicode="&#x302;" 
d="M-310 566l84 130h102l84 -130h-69l-66 71l-66 -71h-69z" />
    <glyph glyph-name="tildecomb" unicode="&#x303;" 
d="M-127 564q-28 0 -66 28t-55 28q-19 0 -27 -13t-10 -41h-55q0 57 22.5 90t64.5 33q29 0 66.5 -28.5t54.5 -28.5q33 0 36 54h56q0 -56 -22.5 -89t-64.5 -33z" />
    <glyph glyph-name="uni0304" unicode="&#x304;" 
d="M-296 566v69h256v-69h-256z" />
    <glyph glyph-name="uni0306" unicode="&#x306;" 
d="M-159 563q-57 0 -88 33.5t-31 97.5h61q5 -68 58 -68t58 68h61q0 -65 -30.5 -98t-88.5 -33z" />
    <glyph glyph-name="uni0307" unicode="&#x307;" 
d="M-136 566v100h96v-100h-96z" />
    <glyph glyph-name="uni0308" unicode="&#x308;" 
d="M-274 566v100h89v-100h-89zM-129 566v100h89v-100h-89z" />
    <glyph glyph-name="uni030A" unicode="&#x30a;" 
d="M-129 563q-39 0 -64 25t-25 61t25 61t64 25t64 -25t25 -61t-25 -61t-64 -25zM-129 606q20 0 31.5 12t11.5 31t-11.5 31t-31.5 12q-19 0 -30.5 -12t-11.5 -31t11.5 -31t30.5 -12z" />
    <glyph glyph-name="uni030B" unicode="&#x30b;" 
d="M-327 566l50 129h101l-93 -129h-58zM-191 566l50 129h101l-92 -129h-59z" />
    <glyph glyph-name="uni030C" unicode="&#x30c;" 
d="M-228 566l-82 130h69l66 -71l66 71h69l-81 -130h-107z" />
    <glyph glyph-name="uni0312" unicode="&#x312;" 
d="M-93 695q-37 0 -37 -38v-12h57v-79h-100v81q0 40 20.5 61.5t57.5 21.5t55 -21l-19 -26q-16 12 -34 12z" />
    <glyph glyph-name="uni0326" unicode="&#x326;" 
d="M-140 -54h100v-80q0 -83 -75 -83q-38 0 -58 20l20 30q17 -11 36 -11q31 0 31 34v12h-54v78z" />
    <glyph glyph-name="uni0327" unicode="&#x327;" 
d="M-137 -45q38 4 67.5 -15.5t29.5 -59.5q0 -45 -30 -66.5t-75 -21.5q-62 0 -108 38l24 37q45 -26 80 -26q45 0 45 36q0 45 -79 33l-15 29l45 72h50z" />
    <glyph glyph-name="uni0328" unicode="&#x328;" 
d="M-114 -208q-46 0 -71.5 22t-25.5 60q0 72 92 126h68q-94 -60 -94 -111q0 -39 45 -39q19 0 43 8l17 -42q-28 -24 -74 -24z" />
    <glyph glyph-name="uni0394" unicode="&#x394;" horiz-adv-x="698" 
d="M400 700l279 -700h-660l280 700h101zM149 79h400l-200 517z" />
    <glyph glyph-name="uni03A9" unicode="&#x3a9;" horiz-adv-x="784" 
d="M738 362q0 -101 -42 -174t-100 -108h126v-80h-281v80q94 27 148 97t54 181q0 117 -70.5 194t-180.5 77q-109 0 -180 -77t-71 -194q0 -112 54.5 -181.5t148.5 -95.5v-81h-281v80h125q-58 35 -100 108t-42 174q0 149 98.5 249.5t247.5 100.5q150 0 248 -99t98 -251z" />
    <glyph glyph-name="uni03BC" unicode="&#x3bc;" horiz-adv-x="579" 
d="M421 502h90v-502h-90v95q-53 -105 -163 -105q-60 0 -100 37v-227h-90v702h90v-308q0 -59 30 -93.5t83 -34.5q67 0 108.5 56.5t41.5 159.5v220z" />
    <glyph glyph-name="pi" unicode="&#x3c0;" horiz-adv-x="616" 
d="M593 69l17 -69q-18 -10 -56 -10q-65 0 -100.5 34.5t-35.5 98.5v303h-234v-426h-90v426h-82v76h578v-76h-82v-294q0 -67 56 -67q15 0 29 4z" />
    <glyph glyph-name="Wgrave" unicode="&#x1e80;" horiz-adv-x="1022" 
d="M542 751h-65l-97 128h108zM906 700h97l-203 -700h-114l-174 592l-177 -592h-113l-203 700h101l164 -588l168 588h122l171 -593z" />
    <glyph glyph-name="wgrave" unicode="&#x1e81;" horiz-adv-x="764" 
d="M420 566h-65l-97 129h108zM659 502h92l-148 -502h-99l-123 398l-120 -398h-99l-149 502h93l111 -399l119 399h94l122 -400z" />
    <glyph glyph-name="Wacute" unicode="&#x1e82;" horiz-adv-x="1022" 
d="M642 879l-97 -128h-65l54 128h108zM906 700h97l-203 -700h-114l-174 592l-177 -592h-113l-203 700h101l164 -588l168 588h122l171 -593z" />
    <glyph glyph-name="wacute" unicode="&#x1e83;" horiz-adv-x="764" 
d="M507 695l-97 -129h-65l54 129h108zM659 502h92l-148 -502h-99l-123 398l-120 -398h-99l-149 502h93l111 -399l119 399h94l122 -400z" />
    <glyph glyph-name="Wdieresis" unicode="&#x1e84;" horiz-adv-x="1022" 
d="M475 851v-100h-89v100h89zM635 851v-100h-89v100h89zM906 700h97l-203 -700h-114l-174 592l-177 -592h-113l-203 700h101l164 -588l168 588h122l171 -593z" />
    <glyph glyph-name="wdieresis" unicode="&#x1e85;" horiz-adv-x="764" 
d="M355 666v-100h-89v100h89zM500 666v-100h-89v100h89zM659 502h92l-148 -502h-99l-123 398l-120 -398h-99l-149 502h93l111 -399l119 399h94l122 -400z" />
    <glyph glyph-name="Ygrave" unicode="&#x1ef2;" horiz-adv-x="626" 
d="M344 751h-65l-97 128h108zM508 700h104l-253 -416v-284h-95v284l-250 416h104l196 -332z" />
    <glyph glyph-name="ygrave" unicode="&#x1ef3;" horiz-adv-x="507" 
d="M299 566h-65l-97 129h108zM401 502h93l-270 -702h-91l81 199l-201 503h94l152 -396z" />
    <glyph glyph-name="endash" unicode="&#x2013;" horiz-adv-x="638" 
d="M56 249v83h527v-83h-527z" />
    <glyph glyph-name="emdash" unicode="&#x2014;" horiz-adv-x="791" 
d="M56 249v83h680v-83h-680z" />
    <glyph glyph-name="quoteleft" unicode="&#x2018;" horiz-adv-x="235" 
d="M145 672q-16 0 -26 -11t-10 -30v-31h62v-107h-108v131q0 41 22.5 64.5t60.5 23.5q35 0 58 -16l-19 -34q-15 10 -40 10z" />
    <glyph glyph-name="quoteright" unicode="&#x2019;" horiz-adv-x="235" 
d="M64 700h108v-131q0 -41 -22.5 -64.5t-60.5 -23.5q-36 0 -59 16l20 34q14 -10 40 -10q16 0 26 11.5t10 30.5v30h-62v107z" />
    <glyph glyph-name="quotesinglbase" unicode="&#x201a;" horiz-adv-x="235" 
d="M64 107h108v-131q0 -41 -22.5 -64.5t-60.5 -23.5q-36 0 -59 16l20 34q15 -11 40 -11q16 0 26 11.5t10 30.5v31h-62v107z" />
    <glyph glyph-name="quotedblleft" unicode="&#x201c;" horiz-adv-x="402" 
d="M63 624q0 41 22.5 64.5t60.5 23.5q35 0 58 -16l-19 -34q-15 10 -40 10q-16 0 -26 -11t-10 -30v-31h62v-107h-108v131zM312 672q-16 0 -26 -11t-10 -30v-31h62v-107h-108v131q0 41 22.5 64.5t60.5 23.5q36 0 59 -16l-20 -34q-14 10 -40 10z" />
    <glyph glyph-name="quotedblright" unicode="&#x201d;" horiz-adv-x="402" 
d="M64 593v107h108v-131q0 -41 -22.5 -64.5t-60.5 -23.5q-36 0 -59 16l20 34q14 -10 40 -10q16 0 26 11.5t10 30.5v30h-62zM231 700h109v-131q0 -40 -22.5 -64t-60.5 -24q-36 0 -59 16l19 34q15 -10 40 -10q16 0 26 11.5t10 30.5v30h-62v107z" />
    <glyph glyph-name="quotedblbase" unicode="&#x201e;" horiz-adv-x="402" 
d="M64 0v107h108v-131q0 -41 -22.5 -64.5t-60.5 -23.5q-36 0 -59 16l20 34q15 -11 40 -11q16 0 26 11.5t10 30.5v31h-62zM231 107h109v-131q0 -40 -22.5 -64t-60.5 -24q-36 0 -59 16l19 34q17 -11 40 -11q16 0 26 11.5t10 30.5v31h-62v107z" />
    <glyph glyph-name="dagger" unicode="&#x2020;" horiz-adv-x="580" 
d="M500 496v-82h-162v-614h-95v614h-163v82h163v204h95v-204h162z" />
    <glyph glyph-name="daggerdbl" unicode="&#x2021;" horiz-adv-x="580" 
d="M500 414h-162v-328h162v-82h-162v-204h-95v204h-163v82h163v328h-163v82h163v204h95v-204h162v-82z" />
    <glyph glyph-name="bullet" unicode="&#x2022;" horiz-adv-x="518" 
d="M259 155q-73 0 -126 53.5t-53 126.5q0 72 53 125.5t126 53.5q75 0 127 -53t52 -126q0 -74 -51.5 -127t-127.5 -53z" />
    <glyph glyph-name="ellipsis" unicode="&#x2026;" horiz-adv-x="649" 
d="M63 0v108h108v-108h-108zM270 0v108h109v-108h-109zM478 0v108h108v-108h-108z" />
    <glyph glyph-name="perthousand" unicode="&#x2030;" horiz-adv-x="1146" 
d="M191 333q-67 0 -107 50.5t-40 137.5t40 138t107 51q68 0 107.5 -50.5t39.5 -138.5q0 -87 -39.5 -137.5t-107.5 -50.5zM188 1l347 699h79l-346 -699h-80zM191 394q36 0 56.5 33.5t20.5 93.5q0 61 -20.5 94.5t-56.5 33.5t-56.5 -33.5t-20.5 -94.5q0 -60 20.5 -93.5
t56.5 -33.5zM612 -11q-67 0 -107 50.5t-40 137.5t40 138t107 51t106.5 -51t39.5 -138t-39.5 -137.5t-106.5 -50.5zM955 -11q-67 0 -107 50.5t-40 137.5t40 138t107 51t106.5 -51t39.5 -138t-39.5 -137.5t-106.5 -50.5zM612 50q36 0 56 33.5t20 93.5q0 61 -20 94.5t-56 33.5
q-37 0 -57 -33.5t-20 -94.5q0 -60 20 -93.5t57 -33.5zM955 50q36 0 56.5 33.5t20.5 93.5q0 61 -20.5 94.5t-56.5 33.5q-37 0 -57 -33.5t-20 -94.5q0 -60 20 -93.5t57 -33.5z" />
    <glyph glyph-name="guilsinglleft" unicode="&#x2039;" horiz-adv-x="271" 
d="M230 535v-94l-119 -90l119 -90v-95l-190 145v79z" />
    <glyph glyph-name="guilsinglright" unicode="&#x203a;" horiz-adv-x="270" 
d="M40 535l190 -145v-79l-190 -145v95l119 90l-119 90v94z" />
    <glyph glyph-name="fraction" unicode="&#x2044;" horiz-adv-x="244" 
d="M-180 0l511 700h93l-511 -700h-93z" />
    <glyph glyph-name="Euro" unicode="&#x20ac;" horiz-adv-x="676" 
d="M555 258l83 -16q-23 -119 -95 -185.5t-177 -66.5q-104 0 -173.5 68.5t-90.5 190.5h-72v60h65q-1 13 -1 41q0 18 1 27h-65v59h70q19 129 91.5 202.5t182.5 73.5q99 0 166.5 -60.5t89.5 -175.5l-83 -19q-20 83 -65.5 127.5t-111.5 44.5q-69 0 -114.5 -50.5t-60.5 -142.5
h192l-11 -59h-186q-1 -9 -1 -27q0 -28 1 -41h174l-10 -60h-156q17 -84 61.5 -130t110.5 -46q68 0 116.5 49t68.5 136z" />
    <glyph glyph-name="trademark" unicode="&#x2122;" horiz-adv-x="758" 
d="M7 638v62h304v-62h-118v-288h-68v288h-118zM623 700h104v-350h-70v270l-87 -270h-66l-87 268v-268h-68v350h104l87 -269z" />
    <glyph glyph-name="estimated" unicode="&#x212e;" horiz-adv-x="858" 
d="M429 0q-172 0 -280.5 97t-108.5 257q0 159 109 257.5t280 98.5q174 0 277.5 -95t111.5 -270h-619q-8 0 -11.5 -3t-3.5 -15v-174q0 -34 73 -79.5t172 -45.5q71 0 136.5 31.5t109.5 81.5h72q-70 -78 -140 -109.5t-178 -31.5zM199 367h457q11 0 14 3.5t3 12.5v171
q0 42 -81.5 86.5t-163.5 44.5q-94 0 -169 -47t-75 -77v-185q0 -9 15 -9z" />
    <glyph glyph-name="partialdiff" unicode="&#x2202;" horiz-adv-x="614" 
d="M314 712q114 0 179 -84t65 -233q0 -186 -79 -295.5t-213 -109.5q-102 0 -163.5 60t-61.5 155q0 106 70.5 177.5t175.5 71.5q62 0 108.5 -27t69.5 -77v1q10 133 -32.5 206.5t-125.5 73.5q-102 0 -150 -124l-75 24q62 181 232 181zM272 71q69 0 115 47.5t46 119.5
q0 62 -38 101t-98 39q-70 0 -115.5 -48t-45.5 -120q0 -63 37 -101t99 -38z" />
    <glyph glyph-name="emptyset" unicode="&#x2205;" horiz-adv-x="520" 
d="M434 479q46 -59 46 -135q0 -92 -64 -156t-156 -64q-76 0 -135 46l-40 -40l-39 39l40 40q-46 59 -46 135q0 92 64 156t156 64q76 0 135 -46l41 41l39 -39zM104 345q0 -50 27 -91l220 220q-42 29 -90 29q-65 0 -111 -46.5t-46 -111.5zM261 184q64 0 109.5 47t45.5 114
q0 49 -27 89l-220 -220q41 -30 92 -30z" />
    <glyph glyph-name="product" unicode="&#x220f;" horiz-adv-x="647" 
d="M629 700v-82h-107v-618h-94v618h-209v-618h-94v618h-107v82h611z" />
    <glyph glyph-name="summation" unicode="&#x2211;" horiz-adv-x="571" 
d="M165 83h361v-83h-477v79l214 272l-205 271v78h463v-82h-351l204 -268z" />
    <glyph glyph-name="minus" unicode="&#x2212;" horiz-adv-x="600" 
d="M50 312v77h500v-77h-500z" />
    <glyph glyph-name="radical" unicode="&#x221a;" horiz-adv-x="598" 
d="M558 700v-82h-111l-160 -618h-108l-139 357h96l92 -254l150 597h180z" />
    <glyph glyph-name="infinity" unicode="&#x221e;" horiz-adv-x="673" 
d="M482 506q69 0 110 -42.5t41 -113.5q0 -74 -42.5 -118t-112.5 -44q-93 0 -146 86q-47 -86 -141 -86q-69 0 -110 42t-41 112q0 75 42 119.5t113 44.5q93 0 146 -87q48 87 141 87zM199 256q66 0 101 80q-13 26 -20.5 39t-20.5 30t-28.5 24.5t-35.5 7.5q-35 0 -55.5 -25
t-20.5 -67q0 -41 21.5 -65t58.5 -24zM477 256q35 0 55.5 25.5t20.5 66.5t-21 65t-58 24q-66 0 -101 -80q16 -34 26.5 -52t31 -33.5t46.5 -15.5z" />
    <glyph glyph-name="integral" unicode="&#x222b;" horiz-adv-x="355" 
d="M59 -210q-82 0 -120 63l60 44q22 -32 55 -32q26 0 41 19.5t15 52.5v628q0 65 38 105t100 40q80 0 116 -64l-61 -37q-18 26 -47 26q-26 0 -41 -17.5t-15 -48.5v-628q0 -68 -38.5 -109.5t-102.5 -41.5z" />
    <glyph glyph-name="approxequal" unicode="&#x2248;" horiz-adv-x="600" 
d="M390 374q-28 0 -55.5 13.5t-45.5 29t-39.5 29t-39.5 13.5q-58 0 -73 -81h-72q8 73 45.5 116t99.5 43q36 0 69 -21.5t61 -42.5t50 -21q57 0 72 81h74q-8 -73 -46 -116t-100 -43zM390 167q-28 0 -55.5 13.5t-45.5 29t-39.5 29t-39.5 13.5q-58 0 -73 -82h-72q8 73 45.5 116
t99.5 43q36 0 69 -21.5t61 -42.5t50 -21q57 0 72 82h74q-8 -73 -46 -116t-100 -43z" />
    <glyph glyph-name="notequal" unicode="&#x2260;" horiz-adv-x="600" 
d="M550 403h-169l-67 -103h236v-78h-287l-84 -128l-66 41l57 87h-120v78h171l67 103h-238v78h290l82 126l66 -41l-56 -85h118v-78z" />
    <glyph glyph-name="lessequal" unicode="&#x2264;" horiz-adv-x="600" 
d="M519 597v-85l-354 -140l354 -141v-85l-448 186v79zM71 0v78h448v-78h-448z" />
    <glyph glyph-name="greaterequal" unicode="&#x2265;" horiz-adv-x="600" 
d="M81 597l448 -186v-79l-448 -186v85l354 141l-354 140v85zM81 0v78h448v-78h-448z" />
    <glyph glyph-name="lozenge" unicode="&#x25ca;" horiz-adv-x="467" 
d="M275 700l152 -350l-153 -350h-80l-154 350l155 350h80zM235 74l114 277l-117 274l-112 -276z" />
    <glyph glyph-name="zero.dnom" horiz-adv-x="460" 
d="M230 -6q-91 0 -140 56t-49 160q0 105 49 161.5t140 56.5t139.5 -56.5t48.5 -161.5q0 -104 -48.5 -160t-139.5 -56zM230 58q56 0 86.5 39.5t30.5 112.5q0 74 -30.5 114.5t-86.5 40.5t-86.5 -40.5t-30.5 -114.5q0 -73 30.5 -112.5t86.5 -39.5z" />
    <glyph glyph-name="one.dnom" horiz-adv-x="273" 
d="M145 420h60v-420h-72v317q-37 -37 -110 -42v68q93 7 122 77z" />
    <glyph glyph-name="two.dnom" horiz-adv-x="419" 
d="M161 64h218v-64h-334v59l123 70q135 74 135 150q0 40 -25.5 63t-68.5 23t-68.5 -23t-25.5 -61q0 -17 6 -32l-63 -20q-12 27 -12 54q0 66 45.5 105.5t120.5 39.5q74 0 119 -39t45 -104q0 -103 -165 -193z" />
    <glyph glyph-name="three.dnom" horiz-adv-x="409" 
d="M281 221q95 -23 95 -106q0 -55 -47 -88.5t-125 -33.5q-71 0 -116.5 30.5t-56.5 84.5l67 11q24 -64 108 -64q44 0 71 18t27 49q0 66 -111 66h-31v60h25q100 0 100 59q0 28 -22.5 44t-60.5 16q-73 0 -93 -68l-65 10q10 56 52 87.5t108 31.5q69 0 110.5 -31t41.5 -83
q0 -71 -77 -93z" />
    <glyph glyph-name="four.dnom" horiz-adv-x="401" 
d="M385 149v-62h-63v-87h-70v87h-236v60l233 273h73v-271h63zM254 333l-156 -184h156v184z" />
    <glyph glyph-name="five.dnom" horiz-adv-x="411" 
d="M221 282q69 0 112.5 -39.5t43.5 -102.5q0 -66 -48.5 -106t-127.5 -40q-60 0 -103 25.5t-60 70.5l64 24q30 -56 102 -56q46 0 74 22.5t28 59.5q0 38 -27.5 61t-71.5 23q-71 0 -104 -51l-63 14l38 233h274v-64h-219l-19 -111q43 37 107 37z" />
    <glyph glyph-name="six.dnom" horiz-adv-x="432" 
d="M239 272q72 0 115 -37t43 -98q0 -66 -46.5 -104.5t-122.5 -38.5q-88 0 -137.5 55t-49.5 158q0 102 51 161.5t137 59.5q115 0 152 -109l-59 -19q-28 67 -92 67q-56 0 -88 -41t-32 -114q41 60 129 60zM227 56q44 0 71 21.5t27 58.5q0 36 -27 57.5t-71 21.5
q-45 0 -72.5 -21.5t-27.5 -57.5t28 -58t72 -22z" />
    <glyph glyph-name="seven.dnom" horiz-adv-x="382" 
d="M23 420h336v-56q-97 -102 -128.5 -169t-31.5 -167v-28h-72v28q0 95 33.5 168.5t114.5 159.5h-185v-54h-67v118z" />
    <glyph glyph-name="eight.dnom" horiz-adv-x="413" 
d="M290 220q90 -29 90 -104q0 -54 -48 -88t-126 -34q-77 0 -125 34t-48 88q0 36 24 63t66 41q-74 27 -74 93q0 51 43.5 83t113.5 32q71 0 114.5 -32t43.5 -83q0 -66 -74 -93zM207 367q-40 0 -64 -17t-24 -44q0 -28 24 -44t64 -16q39 0 63 16t24 44q0 27 -24 44t-63 17z
M206 56q47 0 75 18t28 48q0 31 -28.5 50.5t-74.5 19.5q-45 0 -73.5 -19.5t-28.5 -50.5q0 -30 28 -48t74 -18z" />
    <glyph glyph-name="nine.dnom" horiz-adv-x="433" 
d="M206 428q88 0 137 -55.5t49 -156.5q0 -102 -51 -162t-137 -60q-113 0 -152 108l59 20q28 -66 92 -66q56 0 88 40.5t31 113.5q-43 -62 -133 -60q-67 1 -110 38.5t-43 97.5q0 63 47.5 102.5t122.5 39.5zM201 207q46 0 75.5 22.5t29.5 56.5q0 36 -28 58.5t-72 22.5
t-71.5 -22.5t-27.5 -58.5q0 -34 27 -56.5t67 -22.5z" />
    <glyph glyph-name="zero.numr" horiz-adv-x="460" 
d="M230 274q-91 0 -140 56t-49 160q0 105 49 161.5t140 56.5t139.5 -56.5t48.5 -161.5q0 -104 -48.5 -160t-139.5 -56zM230 338q56 0 86.5 39.5t30.5 112.5q0 74 -30.5 114.5t-86.5 40.5t-86.5 -40.5t-30.5 -114.5q0 -73 30.5 -112.5t86.5 -39.5z" />
    <glyph glyph-name="one.numr" horiz-adv-x="273" 
d="M145 700h60v-420h-72v317q-37 -37 -110 -42v68q93 7 122 77z" />
    <glyph glyph-name="two.numr" horiz-adv-x="419" 
d="M161 344h218v-64h-334v59l123 70q135 74 135 150q0 40 -25.5 63t-68.5 23t-68.5 -23t-25.5 -61q0 -17 6 -32l-63 -20q-12 27 -12 54q0 66 45.5 105.5t120.5 39.5q74 0 119 -39t45 -104q0 -103 -165 -193z" />
    <glyph glyph-name="three.numr" horiz-adv-x="409" 
d="M281 501q95 -23 95 -106q0 -55 -47 -88.5t-125 -33.5q-71 0 -116.5 30.5t-56.5 84.5l67 11q24 -64 108 -64q44 0 71 18t27 49q0 66 -111 66h-31v60h25q100 0 100 59q0 28 -22.5 44t-60.5 16q-73 0 -93 -68l-65 10q10 56 52 87.5t108 31.5q69 0 110.5 -31t41.5 -83
q0 -71 -77 -93z" />
    <glyph glyph-name="four.numr" horiz-adv-x="401" 
d="M385 429v-62h-63v-87h-70v87h-236v60l233 273h73v-271h63zM254 613l-156 -184h156v184z" />
    <glyph glyph-name="five.numr" horiz-adv-x="411" 
d="M221 562q69 0 112.5 -39.5t43.5 -102.5q0 -66 -48.5 -106t-127.5 -40q-60 0 -103 25.5t-60 70.5l64 24q30 -56 102 -56q46 0 74 22.5t28 59.5q0 38 -27.5 61t-71.5 23q-71 0 -104 -51l-63 14l38 233h274v-64h-219l-19 -111q43 37 107 37z" />
    <glyph glyph-name="six.numr" horiz-adv-x="432" 
d="M239 552q72 0 115 -37t43 -98q0 -66 -46.5 -104.5t-122.5 -38.5q-88 0 -137.5 55t-49.5 158q0 102 51 161.5t137 59.5q115 0 152 -109l-59 -19q-28 67 -92 67q-56 0 -88 -41t-32 -114q41 60 129 60zM227 336q44 0 71 21.5t27 58.5q0 36 -27 57.5t-71 21.5
q-45 0 -72.5 -21.5t-27.5 -57.5t28 -58t72 -22z" />
    <glyph glyph-name="seven.numr" horiz-adv-x="382" 
d="M23 700h336v-56q-97 -102 -128.5 -169t-31.5 -167v-28h-72v28q0 95 33.5 168.5t114.5 159.5h-185v-54h-67v118z" />
    <glyph glyph-name="eight.numr" horiz-adv-x="413" 
d="M290 500q90 -29 90 -104q0 -54 -48 -88t-126 -34q-77 0 -125 34t-48 88q0 36 24 63t66 41q-74 27 -74 93q0 51 43.5 83t113.5 32q71 0 114.5 -32t43.5 -83q0 -66 -74 -93zM207 647q-40 0 -64 -17t-24 -44q0 -28 24 -44t64 -16q39 0 63 16t24 44q0 27 -24 44t-63 17z
M206 336q47 0 75 18t28 48q0 31 -28.5 50.5t-74.5 19.5q-45 0 -73.5 -19.5t-28.5 -50.5q0 -30 28 -48t74 -18z" />
    <glyph glyph-name="nine.numr" horiz-adv-x="433" 
d="M206 708q88 0 137 -55.5t49 -156.5q0 -102 -51 -162t-137 -60q-113 0 -152 108l59 20q28 -66 92 -66q56 0 88 40.5t31 113.5q-43 -62 -133 -60q-67 1 -110 38.5t-43 97.5q0 63 47.5 102.5t122.5 39.5zM201 487q46 0 75.5 22.5t29.5 56.5q0 36 -28 58.5t-72 22.5
t-71.5 -22.5t-27.5 -58.5q0 -34 27 -56.5t67 -22.5z" />
    <glyph glyph-name="parenleft.case" horiz-adv-x="322" 
d="M225 -49q-169 183 -169 399t169 399l58 -49q-135 -163 -135 -350t135 -350z" />
    <glyph glyph-name="parenright.case" horiz-adv-x="322" 
d="M97 -49l-58 49q135 163 135 350t-135 350l58 49q169 -183 169 -399t-169 -399z" />
    <glyph glyph-name="braceleft.case" horiz-adv-x="300" 
d="M202 460q0 -81 -49 -103q49 -22 49 -102v-217q0 -38 31 -38h41v-74h-60q-101 0 -101 107v217q0 43 -8.5 57.5t-38.5 14.5h-25v71h25q30 0 38.5 14.5t8.5 57.5v202q0 107 101 107h60v-74h-41q-31 0 -31 -37v-203z" />
    <glyph glyph-name="braceright.case" horiz-adv-x="301" 
d="M234 393h25v-71h-25q-30 0 -38.5 -14.5t-8.5 -57.5v-217q0 -107 -100 -107h-61v74h41q31 0 31 38v217q0 80 50 102q-50 22 -50 103v203q0 37 -31 37h-41v74h61q100 0 100 -107v-202q0 -43 8.5 -57.5t38.5 -14.5z" />
    <glyph glyph-name="bracketleft.case" horiz-adv-x="292" 
d="M272 700h-103v-700h103v-77h-192v854h192v-77z" />
    <glyph glyph-name="bracketright.case" horiz-adv-x="292" 
d="M20 777h192v-854h-192v77h103v700h-103v77z" />
    <glyph glyph-name="caroncomb.alt" 
d="M-119 545v155h79l-30 -155h-49z" />
    <glyph glyph-name="uni0308.case" 
d="M-289 751v100h89v-100h-89zM-129 751v100h89v-100h-89z" />
    <glyph glyph-name="uni0307.case" 
d="M-136 751v100h96v-100h-96z" />
    <glyph glyph-name="gravecomb.case" 
d="M-105 751l-97 128h108l54 -128h-65z" />
    <glyph glyph-name="acutecomb.case" 
d="M-202 751l54 128h108l-97 -128h-65z" />
    <glyph glyph-name="uni030B.case" 
d="M-327 751l50 129h101l-93 -129h-58zM-191 751l50 129h101l-92 -129h-59z" />
    <glyph glyph-name="uni0302.case" 
d="M-305 751l81 128h103l81 -128h-65l-66 72l-68 -72h-66z" />
    <glyph glyph-name="uni030C.case" 
d="M-224 751l-81 128h66l67 -72l67 72h65l-81 -128h-103z" />
    <glyph glyph-name="uni0306.case" 
d="M-159 748q-57 0 -88 33.5t-31 97.5h61q5 -68 58 -68q55 0 58 68h61q0 -65 -30.5 -98t-88.5 -33z" />
    <glyph glyph-name="uni030A.case" 
d="M-129 748q-39 0 -64 25t-25 61t25 61t64 25t64 -25t25 -61t-25 -61t-64 -25zM-129 791q20 0 31.5 12t11.5 31t-11.5 31t-31.5 12q-19 0 -30.5 -12t-11.5 -31t11.5 -31t30.5 -12z" />
    <glyph glyph-name="tildecomb.case" 
d="M-126 748q-30 0 -66 28.5t-53 28.5q-35 0 -38 -54h-54q0 58 22.5 90.5t64.5 32.5q29 0 65 -28.5t53 -28.5q35 0 38 54h54q0 -58 -22.5 -90.5t-63.5 -32.5z" />
    <glyph glyph-name="uni0304.case" 
d="M-302 751v70h262v-70h-262z" />
    <glyph glyph-name="uni0307.i" 
d="M-136 605v99h96v-99h-96z" />
    </font>
</defs>
</svg>
