<?xml version="1.0" standalone="no"?>
<!DOCTYPE svg PUBLIC "-//W3C//DTD SVG 1.1//EN" "http://www.w3.org/Graphics/SVG/1.1/DTD/svg11.dtd" >
<svg xmlns="http://www.w3.org/2000/svg" xmlns:xlink="http://www.w3.org/1999/xlink" version="1.1">
<metadata>
Created by FontForge 20170731 at Sun Aug 26 22:26:22 2018
 By Aleksey,,,
Copyright 2017 Dinamo (Johannes Breyer, Fabian Harb). |DCNT
</metadata>
<defs>
<font id="Favorit-Bold" horiz-adv-x="600" >
  <font-face 
    font-family="Favorit"
    font-weight="700"
    font-stretch="normal"
    units-per-em="1000"
    panose-1="2 0 0 6 3 0 0 2 0 4"
    ascent="750"
    descent="-250"
    x-height="500"
    cap-height="700"
    bbox="-725 -310 2150 1016"
    underline-thickness="24"
    underline-position="-97"
    unicode-range="U+000D-FB02"
  />
<missing-glyph 
d="M70 0v700h500v-700h-500zM175 105h290v490h-290v-490z" />
    <glyph glyph-name="fi" unicode="fi" horiz-adv-x="655" 
d="M123 0v395h-102v105h102v70q0 130 130 130h143v-108h-88q-34 0 -44.5 -10.5t-10.5 -44.5v-37h335v-500h-130v395h-205v-395h-130zM453 565v135h140v-135h-140z" />
    <glyph glyph-name="fl" unicode="fl" horiz-adv-x="655" 
d="M123 0v395h-102v105h102v70q0 130 130 130h335v-700h-130v592h-150q-34 0 -44.5 -10.5t-10.5 -44.5v-37h118v-105h-118v-395h-130z" />
    <glyph glyph-name="f_f" unicode="ff" horiz-adv-x="731" 
d="M123 0v395h-102v105h102v70q0 130 130 130h143v-108h-88q-34 0 -44.5 -10.5t-10.5 -44.5v-37h205v70q0 130 130 130h143v-108h-88q-34 0 -44.5 -10.5t-10.5 -44.5v-37h118v-105h-118v-395h-130v395h-205v-395h-130z" />
    <glyph glyph-name="f_f_i" unicode="ffi" horiz-adv-x="990" 
d="M123 0v395h-102v105h102v70q0 130 130 130h143v-108h-88q-34 0 -44.5 -10.5t-10.5 -44.5v-37h205v70q0 130 130 130h143v-108h-88q-34 0 -44.5 -10.5t-10.5 -44.5v-37h335v-500h-130v395h-205v-395h-130v395h-205v-395h-130zM788 565v135h140v-135h-140z" />
    <glyph glyph-name="f_f_l" unicode="ffl" horiz-adv-x="990" 
d="M123 0v395h-102v105h102v70q0 130 130 130h143v-108h-88q-34 0 -44.5 -10.5t-10.5 -44.5v-37h205v70q0 130 130 130h335v-700h-130v592h-150q-34 0 -44.5 -10.5t-10.5 -44.5v-37h118v-105h-118v-395h-130v395h-205v-395h-130z" />
    <glyph glyph-name=".notdef" 
d="M70 0v700h500v-700h-500zM175 105h290v490h-290v-490z" />
    <glyph glyph-name=".null" horiz-adv-x="0" 
 />
    <glyph glyph-name="nonmarkingreturn" horiz-adv-x="333" 
 />
    <glyph glyph-name="CR" unicode="&#xd;" horiz-adv-x="244" 
 />
    <glyph glyph-name="space" unicode=" " horiz-adv-x="244" 
 />
    <glyph glyph-name="exclam" unicode="!" horiz-adv-x="277" 
d="M103 175l-31 285v240h133v-240l-31 -285h-71zM68 0v135h140v-135h-140z" />
    <glyph glyph-name="quotedbl" unicode="&#x22;" horiz-adv-x="388" 
d="M84 460l-32 135v105h115v-105l-32 -135h-51zM253 460l-32 135v105h115v-105l-32 -135h-51z" />
    <glyph glyph-name="numbersign" unicode="#" horiz-adv-x="710" 
d="M671 425h-124l-32 -150h113v-115h-138l-34 -160h-120l34 160h-110l-34 -160h-120l34 160h-100v115h125l32 150h-114v115h139l34 160h120l-34 -160h110l34 160h120l-34 -160h99v-115zM395 275l32 150h-110l-32 -150h110z" />
    <glyph glyph-name="dollar" unicode="$" horiz-adv-x="633" 
d="M581 205q0 -94 -69.5 -154.5t-189.5 -60.5l-19 -110h-115l21 124q-83 23 -128 83t-48 148h132q5 -73 64 -108l29 172l-13 3q-177 38 -177 198q0 86 69.5 148t187.5 62h3l18 110h115l-22 -128q73 -25 113 -81t40 -131h-132q-3 57 -42 87l-27 -163q95 -21 142.5 -69
t47.5 -130zM280 426l28 169q-48 -3 -78 -29t-30 -61q0 -33 18.5 -51t61.5 -28zM449 195q0 34 -17.5 53t-61.5 28l-29 -171q50 1 79 27t29 63z" />
    <glyph glyph-name="percent" unicode="%" horiz-adv-x="941" 
d="M32 502q0 86 44.5 144.5t129.5 58.5t129.5 -58.5t44.5 -144.5q0 -87 -44.5 -144.5t-129.5 -57.5t-129.5 57.5t-44.5 144.5zM201 0l420 700h117l-420 -700h-117zM204 392h4q64 0 64 110q0 111 -64 111h-4q-64 0 -64 -111q0 -110 64 -110zM560 197q0 86 45 144.5t129 58.5
t129 -59t45 -144t-45 -143.5t-129 -58.5q-85 0 -129.5 58t-44.5 144zM732 87h4q64 0 64 110q0 111 -64 111h-4q-64 0 -64 -111q0 -110 64 -110z" />
    <glyph glyph-name="ampersand" unicode="&#x26;" horiz-adv-x="665" 
d="M46 185q0 61 35.5 106t97.5 64q-128 47 -128 165q0 82 58.5 131t145.5 49h151v-105h-111q-53 0 -83.5 -23t-30.5 -68q0 -46 31 -71t83 -25h112v121h130v-121h105v-105h-105v-303h-280q-88 0 -149.5 51.5t-61.5 133.5zM295 105h112v198h-112q-55 0 -87 -25t-32 -72
q0 -49 32.5 -75t86.5 -26z" />
    <glyph glyph-name="quotesingle" unicode="'" horiz-adv-x="219" 
d="M84 460l-32 135v105h115v-105l-32 -135h-51z" />
    <glyph glyph-name="parenleft" unicode="(" horiz-adv-x="410" 
d="M43 350q-1 117 28.5 213.5t78.5 157t109.5 93t123.5 31.5v-110q-31 -4 -59.5 -19t-56.5 -45.5t-48.5 -73t-33 -106.5t-12.5 -141t12.5 -141t33 -106.5t48.5 -73t56.5 -45.5t59.5 -19v-110q-63 -1 -123.5 31.5t-109.5 93t-78.5 157t-28.5 213.5z" />
    <glyph glyph-name="parenright" unicode=")" horiz-adv-x="410" 
d="M367 350q1 -117 -28.5 -213.5t-78.5 -157t-109.5 -93t-123.5 -31.5v110q31 4 59.5 19t56.5 45.5t48.5 73t33 106.5t12.5 141t-12.5 141t-33 106.5t-48.5 73t-56.5 45.5t-59.5 19v110q63 1 123.5 -31.5t109.5 -93t78.5 -157t28.5 -213.5z" />
    <glyph glyph-name="asterisk" unicode="*" horiz-adv-x="447" 
d="M402 630v-92h-95l53 -87l-84 -46l-52 87l-53 -87l-84 46l53 87h-95v92h95l-53 87l84 46l53 -86l52 86l84 -46l-53 -87h95z" />
    <glyph glyph-name="plus" unicode="+" horiz-adv-x="573" 
d="M220 15v185h-180v115h180v185h133v-185h180v-115h-180v-185h-133z" />
    <glyph glyph-name="comma" unicode="," horiz-adv-x="272" 
d="M31 -150v75h36q62 0 62 65v10h-65v145h145v-160q0 -54 -40 -94.5t-97 -40.5h-41z" />
    <glyph glyph-name="hyphen" unicode="-" horiz-adv-x="414" 
d="M62 250v105h290v-105h-290z" />
    <glyph glyph-name="period" unicode="." horiz-adv-x="269" 
d="M62 0v145h145v-145h-145z" />
    <glyph glyph-name="slash" unicode="/" horiz-adv-x="462" 
d="M28 0l270 700h135l-265 -700h-140z" />
    <glyph glyph-name="zero" unicode="0" horiz-adv-x="670" 
d="M50 350q0 164 76.5 262t208.5 98t208.5 -98t76.5 -262q0 -165 -75 -262.5t-210 -97.5t-210 97.5t-75 262.5zM330 105h10q147 0 147 245t-147 245h-10q-147 0 -147 -245t147 -245z" />
    <glyph glyph-name="one" unicode="1" horiz-adv-x="401" 
d="M211 700h105v-700h-127v511l-155 -148v165z" />
    <glyph glyph-name="two" unicode="2" horiz-adv-x="590" 
d="M216 115h325v-115h-493v121l238 224q68 64 90 94.5t22 67.5q0 38 -26 63t-67 25h-10q-46 0 -76 -31t-31 -83h-133q0 104 68.5 166.5t175.5 62.5q103 0 167.5 -56t64.5 -142q0 -65 -29 -113t-104 -117z" />
    <glyph glyph-name="three" unicode="3" horiz-adv-x="598" 
d="M43 193h133q4 -40 33 -64t77 -24h10q54 0 83.5 28t29.5 67q0 44 -33.5 68t-90.5 24h-47v115h42q57 0 91 26.5t34 71.5q0 38 -30 64t-74 26h-10q-41 0 -70 -24.5t-32 -65.5h-133q0 88 69 146.5t171 58.5q108 0 175 -56.5t67 -138.5q0 -59 -34 -103t-89 -59q56 -15 92 -60
t36 -103q0 -93 -69.5 -146.5t-182.5 -53.5q-111 0 -179.5 55t-68.5 148z" />
    <glyph glyph-name="four" unicode="4" horiz-adv-x="632" 
d="M494 257h105v-115h-105v-142h-127v142h-338v131l334 427h131v-443zM158 257h209v265z" />
    <glyph glyph-name="five" unicode="5" horiz-adv-x="594" 
d="M542 221q0 -103 -69 -167t-183 -64q-106 0 -177.5 57t-82.5 148h133q9 -42 42 -66t81 -24h10q49 0 81 30.5t32 80.5t-32 78.5t-81 28.5h-10q-66 0 -110 -48h-122l86 425h395v-115h-294l-41 -191q46 44 123 44q97 0 158 -61t61 -156z" />
    <glyph glyph-name="six" unicode="6" horiz-adv-x="631" 
d="M573 230q0 -101 -69.5 -170.5t-185.5 -69.5q-128 0 -198 88.5t-70 248.5q-2 167 90 276.5t224 106.5q90 0 152 -51.5t72 -138.5h-133q-4 34 -29 54.5t-67 20.5h-10q-66 0 -117.5 -57.5t-62.5 -171.5q23 43 71 68.5t107 25.5q95 0 160.5 -64.5t65.5 -165.5zM440 225
q0 50 -33 85t-83 35h-10q-53 0 -88 -34t-35 -86t34.5 -86t88.5 -34h10q50 0 83 34.5t33 85.5z" />
    <glyph glyph-name="seven" unicode="7" horiz-adv-x="558" 
d="M25 700h505v-110q-117 -75 -185 -203q-67 -124 -67 -322v-65h-139v65q0 191 66 315q67 126 169 200h-349v120z" />
    <glyph glyph-name="eight" unicode="8" horiz-adv-x="588" 
d="M65 180q0 118 118 159q-59 21 -95.5 68.5t-36.5 112.5q0 78 65.5 134t177.5 56q111 0 177 -56t66 -134q0 -65 -36.5 -112.5t-95.5 -68.5q118 -42 118 -159q0 -80 -61.5 -135t-167.5 -55t-167.5 55t-61.5 135zM289 400h10q43 0 74 28t31 70q0 41 -31 69t-74 28h-10
q-43 0 -74 -28t-31 -69q0 -42 31 -70t74 -28zM289 105h10q39 0 65 25t26 65t-26 65.5t-65 25.5h-10q-38 0 -64.5 -25.5t-26.5 -65.5t26 -65t65 -25z" />
    <glyph glyph-name="nine" unicode="9" horiz-adv-x="631" 
d="M581 373q2 -167 -90 -276.5t-224 -106.5q-88 0 -151 52.5t-73 137.5h133q4 -34 29 -54.5t67 -20.5h10q67 0 118 57.5t61 171.5q-23 -43 -70.5 -68.5t-106.5 -25.5q-94 0 -160 64.5t-66 165.5q0 102 69 171t186 69q127 0 197.5 -88.5t70.5 -248.5zM440 475q0 52 -34.5 86
t-88.5 34h-10q-50 0 -83 -35t-33 -85q0 -51 33 -85.5t83 -34.5h10q53 0 88 34t35 86z" />
    <glyph glyph-name="colon" unicode=":" horiz-adv-x="271" 
d="M63 0v145h145v-145h-145zM63 355v145h145v-145h-145z" />
    <glyph glyph-name="semicolon" unicode=";" horiz-adv-x="290" 
d="M43 -150v75h36q62 0 62 65v10h-65v145h145v-160q0 -54 -40 -94.5t-97 -40.5h-41zM76 355v145h145v-145h-145z" />
    <glyph glyph-name="less" unicode="&#x3c;" horiz-adv-x="528" 
d="M465 486v-130l-261 -98l261 -99v-133l-425 170v120z" />
    <glyph glyph-name="equal" unicode="=" horiz-adv-x="628" 
d="M67 300v115h494v-115h-494zM67 100v115h494v-115h-494z" />
    <glyph glyph-name="greater" unicode="&#x3e;" horiz-adv-x="528" 
d="M63 487l425 -170v-120l-425 -170v130l261 99l-261 98v133z" />
    <glyph glyph-name="question" unicode="?" horiz-adv-x="491" 
d="M128 191v154q0 38 21 59t58 21h27q93 0 93 80q0 37 -25.5 58.5t-67.5 21.5h-200v115h218q91 0 149 -53.5t58 -141.5q0 -79 -49.5 -132t-132.5 -53q-15 0 -20.5 -5t-5.5 -20v-104h-123zM119 0v135h140v-135h-140z" />
    <glyph glyph-name="at" unicode="@" horiz-adv-x="944" 
d="M45 305q-2 75 21.5 142.5t66 118.5t98.5 89t121.5 57t132.5 18q109 1 204.5 -48.5t151.5 -135.5t54 -186q0 -124 -61 -194.5t-149 -70.5h-128v55q-37 -65 -121 -65q-76 0 -126.5 62.5t-50.5 150.5q0 87 50.5 149.5t126.5 62.5q84 0 121 -65v55h115v-315h4q44 0 71.5 43
t27.5 132q0 116 -80.5 190.5t-209.5 74.5q-133 2 -227.5 -89.5t-92.5 -230.5q0 -149 91 -234.5t239 -85.5h255v-110h-265q-199 0 -319.5 111.5t-120.5 318.5zM467 184h5q36 0 58 34t22 80q0 45 -22 79t-58 34h-5q-35 0 -57.5 -31.5t-22.5 -81.5q0 -52 22 -83t58 -31z" />
    <glyph glyph-name="A" unicode="A" horiz-adv-x="713" 
d="M564 0l-63 165h-294l-63 -165h-142l277 700h158l270 -700h-143zM252 285h203l-101 266z" />
    <glyph glyph-name="B" unicode="B" horiz-adv-x="667" 
d="M82 0v700h310q97 0 156 -51.5t59 -129.5q0 -61 -32 -104.5t-86 -59.5q59 -13 96 -57.5t37 -111.5q0 -79 -62 -132.5t-158 -53.5h-320zM217 413h155q100 0 100 84q0 83 -100 83h-155v-167zM217 120h165q105 0 105 89q0 88 -105 88h-165v-177z" />
    <glyph glyph-name="C" unicode="C" horiz-adv-x="711" 
d="M44 350q0 165 89 262.5t246 97.5q131 0 208.5 -67.5t85.5 -172.5h-135q-12 58 -51.5 89t-102.5 31h-10q-88 0 -141.5 -65t-53.5 -175t53.5 -175t141.5 -65h10q130 0 154 120h135q-8 -108 -85 -174t-209 -66q-157 0 -246 98t-89 262z" />
    <glyph glyph-name="D" unicode="D" horiz-adv-x="721" 
d="M82 0v700h240q162 0 258.5 -91.5t96.5 -258.5t-94.5 -258.5t-255.5 -91.5h-245zM217 120h95q113 0 171.5 55t58.5 175t-58.5 175t-171.5 55h-95v-460z" />
    <glyph glyph-name="E" unicode="E" horiz-adv-x="661" 
d="M217 120h405v-120h-540v700h530v-120h-395v-161h335v-120h-335v-179z" />
    <glyph glyph-name="F" unicode="F" horiz-adv-x="616" 
d="M82 0v700h510v-120h-375v-180h325v-120h-325v-280h-135z" />
    <glyph glyph-name="G" unicode="G" horiz-adv-x="745" 
d="M42 350q-2 155 95 258t250 102q131 0 211.5 -69.5t88.5 -180.5h-135q-8 61 -49 95.5t-111 34.5h-10q-95 0 -150 -65t-55 -175t55 -175t150 -65h10q65 0 117 35t68 93l2 7h-192v120h220q85 0 85 -85v-280h-115v68q-72 -78 -190 -78q-153 -2 -250 102t-95 258z" />
    <glyph glyph-name="H" unicode="H" horiz-adv-x="739" 
d="M82 0v700h135v-290h305v290h135v-700h-135v290h-305v-290h-135z" />
    <glyph glyph-name="I" unicode="I" horiz-adv-x="299" 
d="M82 0v700h135v-700h-135z" />
    <glyph glyph-name="J" unicode="J" horiz-adv-x="429" 
d="M28 0v130h128q34 0 47 13t13 47v510h135v-560q0 -63 -38.5 -101.5t-101.5 -38.5h-183z" />
    <glyph glyph-name="K" unicode="K" horiz-adv-x="686" 
d="M520 0l-211 308l-92 -97v-211h-135v700h135v-314l297 314h167l-276 -290l282 -410h-167z" />
    <glyph glyph-name="L" unicode="L" horiz-adv-x="630" 
d="M82 0v700h135v-580h395v-120h-530z" />
    <glyph glyph-name="M" unicode="M" horiz-adv-x="929" 
d="M638 700h209v-700h-132v551l-174 -551h-148l-179 553v-553h-132v700h210l176 -549z" />
    <glyph glyph-name="N" unicode="N" horiz-adv-x="749" 
d="M532 700h135v-700h-175l-275 516v-516h-135v700h175l275 -513v513z" />
    <glyph glyph-name="O" unicode="O" horiz-adv-x="766" 
d="M43 350q0 165 94 262.5t246 97.5t246 -97.5t94 -262.5t-94 -262.5t-246 -97.5t-246 97.5t-94 262.5zM378 110h10q93 0 146.5 63.5t53.5 176.5t-53.5 176.5t-146.5 63.5h-10q-93 0 -146.5 -63.5t-53.5 -176.5t53.5 -176.5t146.5 -63.5z" />
    <glyph glyph-name="P" unicode="P" horiz-adv-x="652" 
d="M82 0v700h315q103 0 164 -58.5t61 -161.5t-61 -162t-164 -59h-180v-259h-135zM217 379h165q50 0 77.5 27t27.5 74q0 46 -27.5 73t-77.5 27h-165v-201z" />
    <glyph glyph-name="Q" unicode="Q" horiz-adv-x="766" 
d="M504 -90h133v-110h-187q-63 0 -96.5 33t-33.5 97v65q-127 20 -202 114t-75 241q0 165 94 262.5t246 97.5t246 -97.5t94 -262.5q0 -146 -74 -240t-200 -114v-31q0 -35 10.5 -45t44.5 -10zM378 110h10q93 0 146.5 63.5t53.5 176.5t-53.5 176.5t-146.5 63.5h-10
q-93 0 -146.5 -63.5t-53.5 -176.5t53.5 -176.5t146.5 -63.5z" />
    <glyph glyph-name="R" unicode="R" horiz-adv-x="682" 
d="M82 0v700h325q90 0 152.5 -54.5t62.5 -135.5q0 -134 -119 -177q109 0 109 -99v-234h-135v200q0 38 -13.5 51.5t-51.5 13.5h-195v-265h-135zM217 383h150q120 0 120 101q0 96 -120 96h-150v-197z" />
    <glyph glyph-name="S" unicode="S" horiz-adv-x="634" 
d="M29 235h135q5 -56 45.5 -90.5t114.5 -34.5h10q53 0 83.5 24.5t30.5 60.5q0 33 -17.5 50.5t-61.5 26.5l-125 26q-180 37 -180 202q0 85 72.5 147.5t192.5 62.5q124 0 194.5 -63.5t70.5 -166.5h-135q-3 52 -38 81t-92 29h-10q-53 0 -86.5 -25t-33.5 -60q0 -34 20 -52
t65 -27l105 -21q194 -39 194 -200q0 -93 -72.5 -154t-196.5 -61q-137 0 -208.5 65t-76.5 180z" />
    <glyph glyph-name="T" unicode="T" horiz-adv-x="656" 
d="M260 0v580h-242v120h620v-120h-243v-580h-135z" />
    <glyph glyph-name="U" unicode="U" horiz-adv-x="702" 
d="M76 245v455h135v-435q0 -81 33 -118t102 -37h10q69 0 102 37.5t33 117.5v435h135v-455q0 -124 -69 -189.5t-206 -65.5t-206 65.5t-69 189.5z" />
    <glyph glyph-name="V" unicode="V" horiz-adv-x="716" 
d="M561 700h148l-262 -700h-175l-268 700h151l207 -558z" />
    <glyph glyph-name="W" unicode="W" horiz-adv-x="950" 
d="M790 700h140l-173 -700h-175l-106 509l-109 -509h-175l-172 700h139l125 -554l110 554h165l110 -555z" />
    <glyph glyph-name="X" unicode="X" horiz-adv-x="642" 
d="M641 0h-159l-163 246l-166 -246h-152l242 359l-227 341h159l148 -223l151 223h152l-227 -336z" />
    <glyph glyph-name="Y" unicode="Y" horiz-adv-x="663" 
d="M512 700h148l-261 -420v-280h-135v280l-260 420h153l179 -294z" />
    <glyph glyph-name="Z" unicode="Z" horiz-adv-x="635" 
d="M40 0v115l388 465h-378v120h535v-115l-388 -465h398v-120h-555z" />
    <glyph glyph-name="bracketleft" unicode="[" horiz-adv-x="351" 
d="M79 -145v990h240v-105h-110v-780h110v-105h-240z" />
    <glyph glyph-name="backslash" unicode="\" horiz-adv-x="462" 
d="M294 0l-265 700h135l270 -700h-140z" />
    <glyph glyph-name="bracketright" unicode="]" horiz-adv-x="351" 
d="M272 845v-990h-240v105h110v780h-110v105h240z" />
    <glyph glyph-name="asciicircum" unicode="^" horiz-adv-x="540" 
d="M507 285h-139l-99 246l-99 -246h-137l175 415h124z" />
    <glyph glyph-name="underscore" unicode="_" horiz-adv-x="530" 
d="M30 -105v105h470v-105h-470z" />
    <glyph glyph-name="grave" unicode="`" horiz-adv-x="235" 
d="M130 550l-100 150h150l25 -150h-75z" />
    <glyph glyph-name="a" unicode="a" horiz-adv-x="534" 
d="M476 0h-122q-5 21 -6 61q-50 -71 -148 -71q-69 0 -116.5 41t-47.5 106q0 73 50 115.5t133 49.5l126 11v12q0 35 -22 57.5t-58 22.5h-8q-34 0 -56 -17.5t-25 -42.5h-130q8 73 66 119t149 46q96 0 153 -47.5t57 -132.5v-220q0 -72 5 -110zM345 204v14l-108 -11
q-31 -2 -52 -18.5t-21 -42.5q0 -23 17.5 -37t44.5 -14h8q45 0 78 31.5t33 77.5z" />
    <glyph glyph-name="b" unicode="b" horiz-adv-x="601" 
d="M197 65v-65h-130v700h130v-265q18 30 57.5 52.5t86.5 22.5q102 0 162 -76t60 -184t-60 -184t-162 -76q-47 0 -86.5 22.5t-57.5 52.5zM311 95h8q49 0 81.5 43.5t32.5 112.5t-32.5 111.5t-81.5 42.5h-8q-47 0 -80.5 -43.5t-33.5 -111.5t33.5 -111.5t80.5 -43.5z" />
    <glyph glyph-name="c" unicode="c" horiz-adv-x="539" 
d="M39 250q0 116 68 188t172 72q101 0 159.5 -47t65.5 -138h-130q-13 80 -91 80h-8q-52 0 -79 -42t-27 -113t27 -113t79 -42h8q78 0 91 80h130q-7 -91 -65.5 -138t-159.5 -47q-104 0 -172 72t-68 188z" />
    <glyph glyph-name="d" unicode="d" horiz-adv-x="601" 
d="M38 250q0 108 60 184t162 76q48 0 87 -22.5t57 -52.5v265h130v-700h-130v65q-18 -30 -57 -52.5t-87 -22.5q-102 0 -162 76t-60 184zM282 95h8q47 0 80.5 43.5t33.5 111.5t-33.5 111.5t-80.5 43.5h-8q-49 0 -81.5 -42.5t-32.5 -111.5t32.5 -112.5t81.5 -43.5z" />
    <glyph glyph-name="e" unicode="e" horiz-adv-x="541" 
d="M39 250q0 114 64.5 187t173.5 73q108 0 168 -70.5t60 -183.5q0 -5 -2 -47h-338q3 -49 37.5 -81.5t75.5 -32.5h8q34 0 57.5 17.5t30.5 45.5h129q-19 -76 -78 -122t-148 -46q-100 0 -169 71t-69 189zM165 309h214q-3 44 -32 70t-71 26h-8q-42 0 -71 -26t-32 -70z" />
    <glyph glyph-name="f" unicode="f" horiz-adv-x="396" 
d="M123 0v395h-102v105h102v70q0 130 130 130h143v-108h-88q-34 0 -44.5 -10.5t-10.5 -44.5v-37h118v-105h-118v-395h-130z" />
    <glyph glyph-name="g" unicode="g" horiz-adv-x="593" 
d="M31 -56h130q5 -27 34.5 -43t77.5 -16h6q51 0 84 31t33 88v66q-41 -70 -141 -70q-91 0 -153.5 69t-62.5 186q0 116 62.5 185.5t153.5 69.5q100 0 141 -70v60h130v-512q0 -87 -69 -147.5t-190 -60.5q-100 0 -166.5 46t-69.5 118zM281 105h8q47 0 77 41t30 109t-30 109
t-77 41h-8q-49 0 -80.5 -41t-31.5 -109q0 -69 31.5 -109.5t80.5 -40.5z" />
    <glyph glyph-name="h" unicode="h" horiz-adv-x="584" 
d="M67 0v700h130v-273q23 39 63 61t88 22q85 0 129.5 -51t44.5 -139v-320h-130v305q0 100 -79 100h-8q-45 0 -76.5 -37.5t-31.5 -89.5v-278h-130z" />
    <glyph glyph-name="i" unicode="i" horiz-adv-x="264" 
d="M67 0v500h130v-500h-130zM62 565v135h140v-135h-140z" />
    <glyph glyph-name="j" unicode="j" horiz-adv-x="272" 
d="M-82 -200v110h102q30 0 42.5 12.5t12.5 42.5v535h130v-575q0 -60 -32.5 -92.5t-92.5 -32.5h-162zM70 565v135h140v-135h-140z" />
    <glyph glyph-name="k" unicode="k" horiz-adv-x="551" 
d="M394 0l-139 208l-58 -60v-148h-130v700h130v-387l181 187h159l-192 -199l202 -301h-153z" />
    <glyph glyph-name="l" unicode="l" horiz-adv-x="264" 
d="M67 0v700h130v-700h-130z" />
    <glyph glyph-name="m" unicode="m" horiz-adv-x="904" 
d="M67 0v500h130v-71q49 81 149 81q112 0 153 -86q54 86 165 86q90 0 134 -51.5t44 -143.5v-315h-130v300q0 100 -77 100h-8q-46 0 -76.5 -35t-30.5 -87v-278h-130v300q0 100 -78 100h-8q-46 0 -76.5 -35t-30.5 -87v-278h-130z" />
    <glyph glyph-name="n" unicode="n" horiz-adv-x="584" 
d="M67 0v500h130v-73q23 39 63 61t88 22q85 0 129.5 -51t44.5 -139v-320h-130v305q0 100 -79 100h-8q-45 0 -76.5 -37.5t-31.5 -89.5v-278h-130z" />
    <glyph glyph-name="o" unicode="o" horiz-adv-x="576" 
d="M38 250q0 113 70 186.5t180 73.5q111 0 180.5 -73t69.5 -187t-69.5 -187t-180.5 -73q-110 0 -180 73.5t-70 186.5zM284 95h8q53 0 84 41.5t31 113.5t-31 113.5t-84 41.5h-8q-53 0 -84 -41.5t-31 -113.5t31 -113.5t84 -41.5z" />
    <glyph glyph-name="p" unicode="p" horiz-adv-x="601" 
d="M67 -200v700h130v-65q18 30 57.5 52.5t86.5 22.5q102 0 162 -76t60 -184t-60 -184t-162 -76q-47 0 -86.5 22.5t-57.5 52.5v-265h-130zM311 95h8q49 0 81.5 42.5t32.5 111.5t-32.5 112.5t-81.5 43.5h-8q-47 0 -80.5 -43.5t-33.5 -111.5t33.5 -111.5t80.5 -43.5z" />
    <glyph glyph-name="q" unicode="q" horiz-adv-x="601" 
d="M404 -200v265q-18 -30 -57 -52.5t-87 -22.5q-102 0 -162 76t-60 184t60 184t162 76q48 0 87 -22.5t57 -52.5v65h130v-700h-130zM282 95h8q47 0 80.5 43.5t33.5 111.5t-33.5 111.5t-80.5 43.5h-8q-49 0 -81.5 -43.5t-32.5 -112.5q0 -70 31.5 -112t82.5 -42z" />
    <glyph glyph-name="r" unicode="r" horiz-adv-x="387" 
d="M67 0v500h130v-100q15 50 52.5 77.5t92.5 27.5h25v-120h-45q-125 0 -125 -125v-260h-130z" />
    <glyph glyph-name="s" unicode="s" horiz-adv-x="497" 
d="M32 165h133q0 -34 23 -54.5t61 -20.5h8q30 0 48 13.5t18 35.5q0 39 -51 50l-65 16q-81 20 -118 56t-37 95q0 69 55 111.5t147 42.5q96 0 150 -46.5t54 -128.5h-130q-8 75 -75 75h-8q-27 0 -45 -13.5t-18 -35.5q0 -20 15 -31t49 -20l67 -17q72 -18 106 -54t34 -95
q0 -67 -54.5 -110.5t-150.5 -43.5q-101 0 -158.5 46.5t-57.5 128.5z" />
    <glyph glyph-name="t" unicode="t" horiz-adv-x="407" 
d="M120 130v265h-103v105h103v162h130v-162h112v-105h-112v-230q0 -34 10.5 -44.5t44.5 -10.5h72v-110h-127q-63 0 -96.5 33t-33.5 97z" />
    <glyph glyph-name="u" unicode="u" horiz-adv-x="575" 
d="M63 180v320h130v-305q0 -100 74 -100h8q42 0 72.5 37.5t30.5 89.5v278h130v-500h-130v73q-23 -39 -62 -61t-84 -22q-83 0 -126 50.5t-43 139.5z" />
    <glyph glyph-name="v" unicode="v" horiz-adv-x="559" 
d="M413 500h134l-173 -500h-189l-173 500h138l132 -404z" />
    <glyph glyph-name="w" unicode="w" horiz-adv-x="791" 
d="M647 500h126l-143 -500h-146l-88 350l-83 -350h-146l-153 500h131l100 -371l81 371h139l87 -368z" />
    <glyph glyph-name="x" unicode="x" horiz-adv-x="525" 
d="M515 0h-145l-109 153l-110 -153h-141l181 252l-176 248h145l104 -146l105 146h141l-176 -245z" />
    <glyph glyph-name="y" unicode="y" horiz-adv-x="572" 
d="M568 500l-213 -456v-116q0 -130 -130 -130h-182v112h133q34 0 44.5 10.5t10.5 44.5v74l-218 461h146l135 -304l130 304h144z" />
    <glyph glyph-name="z" unicode="z" horiz-adv-x="509" 
d="M202 115h272v-115h-435v100l257 285h-252v115h415v-100z" />
    <glyph glyph-name="braceleft" unicode="{" horiz-adv-x="365" 
d="M111 10v205q0 39 -10 52t-40 13h-25v140h25q30 0 40 13t10 52v205q0 155 135 155h86v-105h-31q-37 0 -48.5 -15.5t-11.5 -59.5v-213q0 -45 -21.5 -68t-58.5 -23v-22q37 0 58.5 -23t21.5 -68v-213q0 -43 12 -59t48 -16h31v-105h-86q-135 0 -135 155z" />
    <glyph glyph-name="bar" unicode="|" horiz-adv-x="291" 
d="M79 -85v870h133v-870h-133z" />
    <glyph glyph-name="braceright" unicode="}" horiz-adv-x="365" 
d="M254 691v-205q0 -39 10 -52t40 -13h25v-140h-25q-30 0 -40 -13t-10 -52v-205q0 -155 -135 -155h-86v105h31q37 0 48.5 15.5t11.5 59.5v213q0 45 21.5 68t58.5 23v22q-37 0 -58.5 23t-21.5 68v213q0 43 -12 59t-48 16h-31v105h86q135 0 135 -155z" />
    <glyph glyph-name="asciitilde" unicode="~" horiz-adv-x="503" 
d="M257 364l-18 10q-29 16 -45 16q-15 2 -23 -9.5t-8 -30.5h-95v26q0 47 33 80.5t79 33.5q33 0 75 -20l18 -10l12 -6q26 -14 37 -14q30 0 30 40h95v-26q0 -52 -28.5 -83t-81.5 -31q-33 0 -80 24z" />
    <glyph glyph-name="uni00A0" unicode="&#xa0;" horiz-adv-x="244" 
 />
    <glyph glyph-name="exclamdown" unicode="&#xa1;" horiz-adv-x="267" 
d="M168 325l31 -285v-240h-133v240l31 285h71zM203 500v-135h-140v135h140z" />
    <glyph glyph-name="cent" unicode="&#xa2;" horiz-adv-x="542" 
d="M376 175h129q-7 -84 -66 -134.5t-149 -50.5h-1l-19 -110h-103l21 128q-70 27 -109 91.5t-39 150.5q0 110 62.5 182.5t170.5 76.5l19 111h103l-21 -123q57 -20 91 -64.5t40 -107.5h-129q-5 30 -23 47l-45 -268q27 4 45.5 23.5t22.5 47.5zM210 135l43 257q-39 -12 -61 -51
t-22 -91q0 -75 40 -115z" />
    <glyph glyph-name="sterling" unicode="&#xa3;" horiz-adv-x="593" 
d="M238 115h322v-115h-516v115h43q32 0 46 14.5t17 47.5l6 87l-112 -27v110l121 29l8 114q17 210 222 210h115v-115h-118q-44 0 -64 -21.5t-24 -78.5l-6 -77l111 26v-110l-119 -29l-8 -98q-3 -31 -12.5 -49t-31.5 -33z" />
    <glyph glyph-name="currency" unicode="&#xa4;" horiz-adv-x="741" 
d="M603 171l90 -86l-90 -90l-89 86q-65 -41 -146 -41q-78 0 -142 39l-88 -84l-90 90l87 83q-37 62 -37 137q0 73 34 131l-84 84l90 90l87 -83q65 38 143 38t147 -40l88 85l90 -90l-88 -87q33 -58 33 -128q0 -73 -35 -134zM505 305q0 65 -37 105t-96 40h-8q-59 0 -96 -40
t-37 -105q0 -66 37 -108t96 -42h8q59 0 96 42t37 108z" />
    <glyph glyph-name="yen" unicode="&#xa5;" horiz-adv-x="691" 
d="M665 700l-162 -263l74 16v-110l-152 -33l-13 -22v-44l135 30v-110l-135 -30v-134h-133v104l-133 -29v110l133 29v63l-163 -36v110l110 24l-199 325h143l179 -293l176 293h140z" />
    <glyph glyph-name="brokenbar" unicode="&#xa6;" horiz-adv-x="289" 
d="M78 415v370h133v-370h-133zM78 -85v380h133v-380h-133z" />
    <glyph glyph-name="section" unicode="&#xa7;" horiz-adv-x="541" 
d="M79 -60v105h205q52 0 52 41q0 30 -45 47l-139 52q-58 22 -85.5 54t-27.5 80q0 79 91 128q-53 38 -53 110q0 70 45.5 106.5t133.5 36.5h188v-105h-180q-57 0 -57 -40q0 -34 43 -46l91 -30q87 -29 125 -61t38 -91q0 -42 -25 -78t-68 -57q58 -45 58 -108t-45.5 -103.5
t-135.5 -40.5h-209zM371 308q0 41 -62 61l-87 28q-50 -21 -50 -67q0 -15 8 -25t17.5 -15t33.5 -14l88 -33q24 9 38 28t14 37z" />
    <glyph glyph-name="dieresis" unicode="&#xa8;" horiz-adv-x="380" 
d="M30 565v130h120v-130h-120zM230 565v130h120v-130h-120z" />
    <glyph glyph-name="copyright" unicode="&#xa9;" horiz-adv-x="870" 
d="M45 351q-2 103 51.5 194t144.5 144.5t194 51.5q103 2 194 -51.5t144.5 -144.5t51.5 -194q2 -103 -51.5 -194t-144.5 -144.5t-194 -51.5q-102 -2 -193.5 51.5t-145 145t-51.5 193.5zM733 351q2 122 -88 213.5t-210 89.5q-120 2 -210 -89.5t-88 -213.5q-2 -121 88 -213.5
t210 -89.5q120 -3 210 89.5t88 213.5zM260 351q0 86 45 144.5t130 58.5q81 0 124 -41.5t43 -107.5h-108q-8 57 -57 57h-4q-64 0 -64 -111t64 -111h4q50 0 58 60h107q0 -68 -42.5 -110t-124.5 -42q-85 0 -130 58.5t-45 144.5z" />
    <glyph glyph-name="ordfeminine" unicode="&#xaa;" horiz-adv-x="380" 
d="M47 497q0 73 108 86l65 8v9q0 33 -32 33h-4q-28 0 -34 -22h-93q3 44 37 69t94 25q57 0 92.5 -27.5t35.5 -71.5v-128q0 -39 4 -63h-89q-3 18 -4 36q-32 -41 -87 -41q-40 0 -66.5 24t-26.5 63zM171 482h4q20 0 33.5 13.5t13.5 35.5v10l-55 -10q-24 -6 -24 -25q0 -24 28 -24
z" />
    <glyph glyph-name="guillemotleft" unicode="&#xab;" horiz-adv-x="601" 
d="M327 500l-145 -215l145 -215h-150l-145 215l145 215h150zM566 500l-145 -215l145 -215h-150l-145 215l145 215h150z" />
    <glyph glyph-name="logicalnot" unicode="&#xac;" horiz-adv-x="617" 
d="M413 115v135h-349v115h482v-250h-133z" />
    <glyph glyph-name="uni00AD" unicode="&#xad;" horiz-adv-x="414" 
d="M62 250v105h290v-105h-290z" />
    <glyph glyph-name="registered" unicode="&#xae;" horiz-adv-x="870" 
d="M45 351q-2 103 51.5 194t144.5 144.5t194 51.5q103 2 194 -51.5t144.5 -144.5t51.5 -194q2 -103 -51.5 -194t-144.5 -144.5t-194 -51.5q-102 -2 -193.5 51.5t-145 145t-51.5 193.5zM733 351q2 122 -88 213.5t-210 89.5q-120 2 -210 -89.5t-88 -213.5q-2 -121 88 -213.5
t210 -89.5q120 -3 210 89.5t88 213.5zM288 158v386h186q60 0 93.5 -29t33.5 -77q0 -83 -81 -101q39 0 57.5 -14t18.5 -46v-119h-104v99q0 20 -7 27.5t-28 7.5h-65v-134h-104zM392 378h63q42 0 42 39q0 38 -44 38h-61v-77z" />
    <glyph glyph-name="macron" unicode="&#xaf;" horiz-adv-x="365" 
d="M30 565v105h305v-105h-305z" />
    <glyph glyph-name="degree" unicode="&#xb0;" horiz-adv-x="448" 
d="M39 525q0 78 53.5 131.5t131.5 53.5t131.5 -53.5t53.5 -131.5t-53.5 -131.5t-131.5 -53.5t-131.5 53.5t-53.5 131.5zM295 525q0 30 -20.5 51t-50.5 21q-29 0 -50 -21t-21 -51q0 -33 20.5 -55t50.5 -22t50.5 22t20.5 55z" />
    <glyph glyph-name="plusminus" unicode="&#xb1;" horiz-adv-x="620" 
d="M243 170v105h-180v115h180v110h133v-110h181v-115h-181v-105h-133zM63 0v114h494v-114h-494z" />
    <glyph glyph-name="twosuperior" unicode="&#xb2;" horiz-adv-x="374" 
d="M38 415v84l149 135q38 32 38 57q0 15 -10.5 25.5t-26.5 10.5h-4q-16 0 -28 -12.5t-13 -30.5h-107q4 59 47.5 95t108.5 36q62 0 101.5 -35.5t39.5 -81.5q0 -31 -13.5 -54t-44.5 -52l-95 -87h154v-90h-296z" />
    <glyph glyph-name="threesuperior" unicode="&#xb3;" horiz-adv-x="378" 
d="M32 527h108q1 -13 13.5 -21.5t28.5 -8.5h5q19 0 31.5 11t12.5 28t-12 26.5t-31 9.5h-37v84h37q40 0 40 36q0 16 -10 26t-28 10h-5q-15 0 -26 -8.5t-12 -19.5h-108q0 53 42.5 84t106.5 31q62 0 105 -31t43 -82q0 -64 -55 -87q58 -27 58 -93q0 -52 -46 -82t-110 -30
t-107.5 31.5t-43.5 85.5z" />
    <glyph glyph-name="acute" unicode="&#xb4;" horiz-adv-x="235" 
d="M30 550l25 150h150l-100 -150h-75z" />
    <glyph glyph-name="mu" unicode="&#xb5;" horiz-adv-x="579" 
d="M382 500h130v-500h-130v73q-23 -39 -62 -61t-84 -22q-24 0 -39 4v-194h-130v700h130v-305q0 -100 74 -100h8q42 0 72.5 37.5t30.5 89.5v278z" />
    <glyph glyph-name="paragraph" unicode="&#xb6;" horiz-adv-x="683" 
d="M241 -200v474h-4q-86 1 -147.5 64t-61.5 149q-2 85 63 150t150 63h395v-105h-70v-795h-130v795h-65v-795h-130z" />
    <glyph glyph-name="periodcentered" unicode="&#xb7;" horiz-adv-x="269" 
d="M56 290v130h131v-130h-131z" />
    <glyph glyph-name="cedilla" unicode="&#xb8;" horiz-adv-x="260" 
d="M30 -245v75h85q40 0 40 30t-35 30h-55v125h70v-60q41 0 68 -25t27 -70q0 -48 -33 -76.5t-87 -28.5h-80z" />
    <glyph glyph-name="onesuperior" unicode="&#xb9;" horiz-adv-x="301" 
d="M139 415v256l-109 -90v126l125 103h89v-395h-105z" />
    <glyph glyph-name="ordmasculine" unicode="&#xba;" horiz-adv-x="392" 
d="M42 557q0 64 42.5 106t111.5 42t111.5 -42t42.5 -106q0 -63 -42.5 -105t-111.5 -42q-70 0 -112 42t-42 105zM194 490h4q50 0 50 67q0 68 -50 68h-4q-50 0 -50 -68q0 -67 50 -67z" />
    <glyph glyph-name="guillemotright" unicode="&#xbb;" horiz-adv-x="601" 
d="M185 500l145 -215l-145 -215h-150l145 215l-145 215h150zM424 500l145 -215l-145 -215h-150l145 215l-145 215h150z" />
    <glyph glyph-name="onequarter" unicode="&#xbc;" horiz-adv-x="910" 
d="M141 305v256l-109 -90v126l125 103h89v-395h-105zM178 0l420 700h117l-420 -700h-117zM728 0v62h-196v109l174 224h119v-249h53v-84h-53v-62h-97zM623 146h105v137z" />
    <glyph glyph-name="onehalf" unicode="&#xbd;" horiz-adv-x="931" 
d="M141 305v256l-109 -90v126l125 103h89v-395h-105zM178 0l420 700h117l-420 -700h-117zM595 0v84l149 135q38 33 38 57q0 15 -10.5 25.5t-26.5 10.5h-4q-16 0 -28 -12.5t-13 -30.5h-107q3 58 47 94.5t109 36.5q62 0 101.5 -35.5t39.5 -81.5q0 -31 -13.5 -54t-44.5 -52
l-95 -87h154v-90h-296z" />
    <glyph glyph-name="threequarters" unicode="&#xbe;" horiz-adv-x="961" 
d="M34 417h108q1 -13 13 -21.5t29 -8.5h5q19 0 31.5 11t12.5 28t-12 26.5t-31 9.5h-37v84h37q40 0 40 36q0 16 -10.5 26t-27.5 10h-5q-15 0 -26 -8t-12 -20h-108q0 53 42.5 84t106.5 31q61 0 104.5 -31t43.5 -82q0 -63 -55 -87q58 -27 58 -93q0 -52 -45.5 -82t-110.5 -30
q-64 0 -107.5 31.5t-43.5 85.5zM228 0l420 700h117l-420 -700h-117zM779 0v62h-196v109l174 224h119v-249h53v-84h-53v-62h-97zM674 146h105v137z" />
    <glyph glyph-name="questiondown" unicode="&#xbf;" horiz-adv-x="485" 
d="M360 309v-154q0 -38 -21 -59t-58 -21h-27q-93 0 -93 -80q0 -37 25.5 -58.5t67.5 -21.5h200v-115h-218q-91 0 -149 53.5t-58 141.5q0 79 49.5 132t132.5 53q15 0 20.5 5t5.5 20v104h123zM369 500v-135h-140v135h140z" />
    <glyph glyph-name="Agrave" unicode="&#xc0;" horiz-adv-x="713" 
d="M564 0l-63 165h-294l-63 -165h-142l277 700h158l270 -700h-143zM252 285h203l-101 266zM317 745l-105 145h155l40 -145h-90z" />
    <glyph glyph-name="Aacute" unicode="&#xc1;" horiz-adv-x="713" 
d="M564 0l-63 165h-294l-63 -165h-142l277 700h158l270 -700h-143zM252 285h203l-101 266zM313 745l40 145h155l-105 -145h-90z" />
    <glyph glyph-name="Acircumflex" unicode="&#xc2;" horiz-adv-x="713" 
d="M564 0l-63 165h-294l-63 -165h-142l277 700h158l270 -700h-143zM252 285h203l-101 266zM548 745h-110l-80 58l-80 -58h-110l120 145h140z" />
    <glyph glyph-name="Atilde" unicode="&#xc3;" horiz-adv-x="713" 
d="M564 0l-63 165h-294l-63 -165h-142l277 700h158l270 -700h-143zM252 285h203l-101 266zM357 774l-18 10q-28 16 -45 16q-15 1 -23 -10t-8 -30h-95v26q0 47 33 80.5t79 33.5q38 0 75 -20l18 -10l10 -5q22 -15 39 -15q30 0 30 40h95v-26q0 -52 -28.5 -83t-81.5 -31
q-35 0 -80 24z" />
    <glyph glyph-name="Adieresis" unicode="&#xc4;" horiz-adv-x="713" 
d="M564 0l-63 165h-294l-63 -165h-142l277 700h158l270 -700h-143zM252 285h203l-101 266zM198 765v120h125v-120h-125zM393 765v120h125v-120h-125z" />
    <glyph glyph-name="Aring" unicode="&#xc5;" horiz-adv-x="713" 
d="M564 0l-63 165h-294l-63 -165h-142l277 700h158l270 -700h-143zM252 285h203l-101 266zM248 840q0 43 34 76.5t76 33.5q46 0 78 -33t32 -77q0 -47 -31.5 -78.5t-78.5 -31.5q-44 0 -77 32t-33 78zM398 840q0 15 -12 27.5t-27 12.5t-27.5 -12.5t-12.5 -27.5q0 -16 12.5 -28
t27.5 -12q16 0 27.5 12t11.5 28z" />
    <glyph glyph-name="AE" unicode="&#xc6;" horiz-adv-x="991" 
d="M-5 0l365 700h548v-120h-343l24 -161h289v-120h-274l26 -179h338v-120h-455l-24 165h-264l-83 -165h-147zM286 285h186l-41 287z" />
    <glyph glyph-name="Ccedilla" unicode="&#xc7;" horiz-adv-x="711" 
d="M44 350q0 165 89 262.5t246 97.5q131 0 208.5 -67.5t85.5 -172.5h-135q-12 58 -51.5 89t-102.5 31h-10q-88 0 -141.5 -65t-53.5 -175t53.5 -175t141.5 -65h10q130 0 154 120h135q-8 -108 -85 -174t-209 -66q-157 0 -246 98t-89 262zM309 -245v75h85q40 0 40 30t-35 30
h-55v125h70v-60q41 0 68 -25t27 -70q0 -48 -33 -76.5t-87 -28.5h-80z" />
    <glyph glyph-name="Egrave" unicode="&#xc8;" horiz-adv-x="661" 
d="M217 120h405v-120h-540v700h530v-120h-395v-161h335v-120h-335v-179zM317 745l-105 145h155l40 -145h-90z" />
    <glyph glyph-name="Eacute" unicode="&#xc9;" horiz-adv-x="661" 
d="M217 120h405v-120h-540v700h530v-120h-395v-161h335v-120h-335v-179zM313 745l40 145h155l-105 -145h-90z" />
    <glyph glyph-name="Ecircumflex" unicode="&#xca;" horiz-adv-x="661" 
d="M217 120h405v-120h-540v700h530v-120h-395v-161h335v-120h-335v-179zM548 745h-110l-80 58l-80 -58h-110l120 145h140z" />
    <glyph glyph-name="Edieresis" unicode="&#xcb;" horiz-adv-x="661" 
d="M217 120h405v-120h-540v700h530v-120h-395v-161h335v-120h-335v-179zM198 765v120h125v-120h-125zM393 765v120h125v-120h-125z" />
    <glyph glyph-name="Igrave" unicode="&#xcc;" horiz-adv-x="299" 
d="M82 0v700h135v-700h-135zM109 745l-105 145h155l40 -145h-90z" />
    <glyph glyph-name="Iacute" unicode="&#xcd;" horiz-adv-x="299" 
d="M82 0v700h135v-700h-135zM105 745l40 145h155l-105 -145h-90z" />
    <glyph glyph-name="Icircumflex" unicode="&#xce;" horiz-adv-x="299" 
d="M82 0v700h135v-700h-135zM340 745h-110l-80 58l-80 -58h-110l120 145h140z" />
    <glyph glyph-name="Idieresis" unicode="&#xcf;" horiz-adv-x="299" 
d="M82 0v700h135v-700h-135zM-10 765v120h125v-120h-125zM185 765v120h125v-120h-125z" />
    <glyph glyph-name="Eth" unicode="&#xd0;" horiz-adv-x="750" 
d="M111 0v700h240q162 0 258.5 -91.5t96.5 -258.5t-94.5 -258.5t-255.5 -91.5h-245zM246 120h95q113 0 171.5 55t58.5 175t-58.5 175t-171.5 55h-95v-460zM13 290v120h360v-120h-360z" />
    <glyph glyph-name="Ntilde" unicode="&#xd1;" horiz-adv-x="749" 
d="M532 700h135v-700h-175l-275 516v-516h-135v700h175l275 -513v513zM375 774l-18 10q-28 16 -45 16q-15 1 -23 -10t-8 -30h-95v26q0 47 33 80.5t79 33.5q38 0 75 -20l18 -10l10 -5q22 -15 39 -15q30 0 30 40h95v-26q0 -52 -28.5 -83t-81.5 -31q-35 0 -80 24z" />
    <glyph glyph-name="Ograve" unicode="&#xd2;" horiz-adv-x="766" 
d="M43 350q0 165 94 262.5t246 97.5t246 -97.5t94 -262.5t-94 -262.5t-246 -97.5t-246 97.5t-94 262.5zM378 110h10q93 0 146.5 63.5t53.5 176.5t-53.5 176.5t-146.5 63.5h-10q-93 0 -146.5 -63.5t-53.5 -176.5t53.5 -176.5t146.5 -63.5zM342 745l-105 145h155l40 -145h-90z
" />
    <glyph glyph-name="Oacute" unicode="&#xd3;" horiz-adv-x="766" 
d="M43 350q0 165 94 262.5t246 97.5t246 -97.5t94 -262.5t-94 -262.5t-246 -97.5t-246 97.5t-94 262.5zM378 110h10q93 0 146.5 63.5t53.5 176.5t-53.5 176.5t-146.5 63.5h-10q-93 0 -146.5 -63.5t-53.5 -176.5t53.5 -176.5t146.5 -63.5zM337 745l40 145h155l-105 -145h-90z
" />
    <glyph glyph-name="Ocircumflex" unicode="&#xd4;" horiz-adv-x="766" 
d="M43 350q0 165 94 262.5t246 97.5t246 -97.5t94 -262.5t-94 -262.5t-246 -97.5t-246 97.5t-94 262.5zM378 110h10q93 0 146.5 63.5t53.5 176.5t-53.5 176.5t-146.5 63.5h-10q-93 0 -146.5 -63.5t-53.5 -176.5t53.5 -176.5t146.5 -63.5zM573 745h-110l-80 58l-80 -58h-110
l120 145h140z" />
    <glyph glyph-name="Otilde" unicode="&#xd5;" horiz-adv-x="766" 
d="M43 350q0 165 94 262.5t246 97.5t246 -97.5t94 -262.5t-94 -262.5t-246 -97.5t-246 97.5t-94 262.5zM378 110h10q93 0 146.5 63.5t53.5 176.5t-53.5 176.5t-146.5 63.5h-10q-93 0 -146.5 -63.5t-53.5 -176.5t53.5 -176.5t146.5 -63.5zM382 774l-18 10q-28 16 -45 16
q-15 1 -23 -10t-8 -30h-95v26q0 47 33 80.5t79 33.5q38 0 75 -20l18 -10l10 -5q22 -15 39 -15q30 0 30 40h95v-26q0 -52 -28.5 -83t-81.5 -31q-35 0 -80 24z" />
    <glyph glyph-name="Odieresis" unicode="&#xd6;" horiz-adv-x="766" 
d="M43 350q0 165 94 262.5t246 97.5t246 -97.5t94 -262.5t-94 -262.5t-246 -97.5t-246 97.5t-94 262.5zM378 110h10q93 0 146.5 63.5t53.5 176.5t-53.5 176.5t-146.5 63.5h-10q-93 0 -146.5 -63.5t-53.5 -176.5t53.5 -176.5t146.5 -63.5zM223 765v120h125v-120h-125z
M418 765v120h125v-120h-125z" />
    <glyph glyph-name="multiply" unicode="&#xd7;" horiz-adv-x="548" 
d="M501 114l-83 -83l-145 144l-144 -144l-81 82l144 144l-145 145l83 83l145 -145l144 144l81 -82l-144 -144z" />
    <glyph glyph-name="Oslash" unicode="&#xd8;" horiz-adv-x="766" 
d="M43 350q0 165 94 262.5t246 97.5t246 -97.5t94 -262.5t-94 -262.5t-246 -97.5t-246 97.5t-94 262.5zM378 110h10q93 0 146.5 63.5t53.5 176.5t-53.5 176.5t-146.5 63.5h-10q-93 0 -146.5 -63.5t-53.5 -176.5t53.5 -176.5t146.5 -63.5zM153 -49l-105 82l565 716l105 -82z
" />
    <glyph glyph-name="Ugrave" unicode="&#xd9;" horiz-adv-x="702" 
d="M76 245v455h135v-435q0 -81 33 -118t102 -37h10q69 0 102 37.5t33 117.5v435h135v-455q0 -124 -69 -189.5t-206 -65.5t-206 65.5t-69 189.5zM310 745l-105 145h155l40 -145h-90z" />
    <glyph glyph-name="Uacute" unicode="&#xda;" horiz-adv-x="702" 
d="M76 245v455h135v-435q0 -81 33 -118t102 -37h10q69 0 102 37.5t33 117.5v435h135v-455q0 -124 -69 -189.5t-206 -65.5t-206 65.5t-69 189.5zM306 745l40 145h155l-105 -145h-90z" />
    <glyph glyph-name="Ucircumflex" unicode="&#xdb;" horiz-adv-x="702" 
d="M76 245v455h135v-435q0 -81 33 -118t102 -37h10q69 0 102 37.5t33 117.5v435h135v-455q0 -124 -69 -189.5t-206 -65.5t-206 65.5t-69 189.5zM541 745h-110l-80 58l-80 -58h-110l120 145h140z" />
    <glyph glyph-name="Udieresis" unicode="&#xdc;" horiz-adv-x="702" 
d="M76 245v455h135v-435q0 -81 33 -118t102 -37h10q69 0 102 37.5t33 117.5v435h135v-455q0 -124 -69 -189.5t-206 -65.5t-206 65.5t-69 189.5zM191 765v120h125v-120h-125zM386 765v120h125v-120h-125z" />
    <glyph glyph-name="Yacute" unicode="&#xdd;" horiz-adv-x="663" 
d="M512 700h148l-261 -420v-280h-135v280l-260 420h153l179 -294zM290 745l40 145h155l-105 -145h-90z" />
    <glyph glyph-name="Thorn" unicode="&#xde;" horiz-adv-x="652" 
d="M82 0v700h135v-125h175q103 0 166.5 -60.5t63.5 -164.5t-63.5 -164.5t-166.5 -60.5h-175v-125h-135zM217 245h165q50 0 77.5 28t27.5 77t-27.5 77t-77.5 28h-165v-210z" />
    <glyph glyph-name="germandbls" unicode="&#xdf;" horiz-adv-x="555" 
d="M67 -185v688q0 94 58 150.5t158 56.5q91 0 150 -52t59 -128q0 -115 -116 -162q59 -11 100 -58.5t41 -111.5q0 -91 -64 -144.5t-163 -53.5h-48v105h18q60 0 93.5 28t33.5 80q0 49 -34.5 74t-92.5 25h-18v105h18q45 0 76 26t31 72q0 43 -22 66.5t-59 23.5h-6
q-37 0 -60 -27.5t-23 -79.5v-683h-130z" />
    <glyph glyph-name="agrave" unicode="&#xe0;" horiz-adv-x="534" 
d="M476 0h-122q-5 21 -6 61q-50 -71 -148 -71q-69 0 -116.5 41t-47.5 106q0 73 50 115.5t133 49.5l126 11v12q0 35 -22 57.5t-58 22.5h-8q-34 0 -56 -17.5t-25 -42.5h-130q8 73 66 119t149 46q96 0 153 -47.5t57 -132.5v-220q0 -72 5 -110zM345 204v14l-108 -11
q-31 -2 -52 -18.5t-21 -42.5q0 -23 17.5 -37t44.5 -14h8q45 0 78 31.5t33 77.5zM231 550l-100 150h150l25 -150h-75z" />
    <glyph glyph-name="aacute" unicode="&#xe1;" horiz-adv-x="534" 
d="M476 0h-122q-5 21 -6 61q-50 -71 -148 -71q-69 0 -116.5 41t-47.5 106q0 73 50 115.5t133 49.5l126 11v12q0 35 -22 57.5t-58 22.5h-8q-34 0 -56 -17.5t-25 -42.5h-130q8 73 66 119t149 46q96 0 153 -47.5t57 -132.5v-220q0 -72 5 -110zM345 204v14l-108 -11
q-31 -2 -52 -18.5t-21 -42.5q0 -23 17.5 -37t44.5 -14h8q45 0 78 31.5t33 77.5zM225 550l25 150h150l-100 -150h-75z" />
    <glyph glyph-name="acircumflex" unicode="&#xe2;" horiz-adv-x="534" 
d="M476 0h-122q-5 21 -6 61q-50 -71 -148 -71q-69 0 -116.5 41t-47.5 106q0 73 50 115.5t133 49.5l126 11v12q0 35 -22 57.5t-58 22.5h-8q-34 0 -56 -17.5t-25 -42.5h-130q8 73 66 119t149 46q96 0 153 -47.5t57 -132.5v-220q0 -72 5 -110zM345 204v14l-108 -11
q-31 -2 -52 -18.5t-21 -42.5q0 -23 17.5 -37t44.5 -14h8q45 0 78 31.5t33 77.5zM446 550h-80l-100 72l-100 -72h-80l100 150h160z" />
    <glyph glyph-name="atilde" unicode="&#xe3;" horiz-adv-x="534" 
d="M476 0h-122q-5 21 -6 61q-50 -71 -148 -71q-69 0 -116.5 41t-47.5 106q0 73 50 115.5t133 49.5l126 11v12q0 35 -22 57.5t-58 22.5h-8q-34 0 -56 -17.5t-25 -42.5h-130q8 73 66 119t149 46q96 0 153 -47.5t57 -132.5v-220q0 -72 5 -110zM345 204v14l-108 -11
q-31 -2 -52 -18.5t-21 -42.5q0 -23 17.5 -37t44.5 -14h8q45 0 78 31.5t33 77.5zM265 579l-18 10q-28 16 -42 16q-13 0 -23.5 -11.5t-10.5 -28.5h-95v26q0 47 33 80.5t79 33.5q37 0 75 -20l18 -10l12 -7q26 -13 37 -13q13 0 21.5 11.5t8.5 28.5h95v-26q0 -46 -33 -80t-77 -34
q-35 0 -80 24z" />
    <glyph glyph-name="adieresis" unicode="&#xe4;" horiz-adv-x="534" 
d="M476 0h-122q-5 21 -6 61q-50 -71 -148 -71q-69 0 -116.5 41t-47.5 106q0 73 50 115.5t133 49.5l126 11v12q0 35 -22 57.5t-58 22.5h-8q-34 0 -56 -17.5t-25 -42.5h-130q8 73 66 119t149 46q96 0 153 -47.5t57 -132.5v-220q0 -72 5 -110zM345 204v14l-108 -11
q-31 -2 -52 -18.5t-21 -42.5q0 -23 17.5 -37t44.5 -14h8q45 0 78 31.5t33 77.5zM106 565v130h120v-130h-120zM306 565v130h120v-130h-120z" />
    <glyph glyph-name="aring" unicode="&#xe5;" horiz-adv-x="534" 
d="M476 0h-122q-5 21 -6 61q-50 -71 -148 -71q-69 0 -116.5 41t-47.5 106q0 73 50 115.5t133 49.5l126 11v12q0 35 -22 57.5t-58 22.5h-8q-34 0 -56 -17.5t-25 -42.5h-130q8 73 66 119t149 46q96 0 153 -47.5t57 -132.5v-220q0 -72 5 -110zM345 204v14l-108 -11
q-31 -2 -52 -18.5t-21 -42.5q0 -23 17.5 -37t44.5 -14h8q45 0 78 31.5t33 77.5zM161 645q0 41 32 73t73 32q43 0 74 -31.5t31 -73.5q0 -45 -30 -75t-75 -30q-42 0 -73.5 31t-31.5 74zM310 645q0 18 -12.5 31t-30.5 13t-31 -13t-13 -31t13 -31t31 -13t30.5 13t12.5 31z" />
    <glyph glyph-name="ae" unicode="&#xe6;" horiz-adv-x="846" 
d="M36 137q0 73 50 115.5t133 49.5l126 11v12q0 34 -22.5 57t-58.5 23h-6q-35 0 -57 -17.5t-25 -42.5h-130q8 73 66 119t149 46q105 0 163 -56q64 56 158 56q108 0 168 -70.5t60 -183.5q0 -5 -2 -47h-338q4 -50 37 -82t76 -32h8q34 0 57.5 17.5t30.5 45.5h129
q-19 -76 -78 -122t-148 -46q-120 0 -189 95q-25 -43 -74.5 -69t-108.5 -26q-76 0 -125 40.5t-49 106.5zM469 309h215q-1 43 -31 69.5t-72 26.5h-8q-92 0 -104 -96zM227 95h5q46 0 79.5 31t33.5 78v14l-108 -11q-31 -2 -52 -18.5t-21 -42.5q0 -23 18 -37t45 -14z" />
    <glyph glyph-name="ccedilla" unicode="&#xe7;" horiz-adv-x="539" 
d="M39 250q0 116 68 188t172 72q101 0 159.5 -47t65.5 -138h-130q-13 80 -91 80h-8q-52 0 -79 -42t-27 -113t27 -113t79 -42h8q78 0 91 80h130q-7 -91 -65.5 -138t-159.5 -47q-104 0 -172 72t-68 188zM207 -245v75h85q40 0 40 30t-35 30h-55v125h70v-60q41 0 68 -25t27 -70
q0 -48 -33 -76.5t-87 -28.5h-80z" />
    <glyph glyph-name="egrave" unicode="&#xe8;" horiz-adv-x="541" 
d="M39 250q0 114 64.5 187t173.5 73q108 0 168 -70.5t60 -183.5q0 -5 -2 -47h-338q3 -49 37.5 -81.5t75.5 -32.5h8q34 0 57.5 17.5t30.5 45.5h129q-19 -76 -78 -122t-148 -46q-100 0 -169 71t-69 189zM165 309h214q-3 44 -32 70t-71 26h-8q-42 0 -71 -26t-32 -70zM238 550
l-100 150h150l25 -150h-75z" />
    <glyph glyph-name="eacute" unicode="&#xe9;" horiz-adv-x="541" 
d="M39 250q0 114 64.5 187t173.5 73q108 0 168 -70.5t60 -183.5q0 -5 -2 -47h-338q3 -49 37.5 -81.5t75.5 -32.5h8q34 0 57.5 17.5t30.5 45.5h129q-19 -76 -78 -122t-148 -46q-100 0 -169 71t-69 189zM165 309h214q-3 44 -32 70t-71 26h-8q-42 0 -71 -26t-32 -70zM232 550
l25 150h150l-100 -150h-75z" />
    <glyph glyph-name="ecircumflex" unicode="&#xea;" horiz-adv-x="541" 
d="M39 250q0 114 64.5 187t173.5 73q108 0 168 -70.5t60 -183.5q0 -5 -2 -47h-338q3 -49 37.5 -81.5t75.5 -32.5h8q34 0 57.5 17.5t30.5 45.5h129q-19 -76 -78 -122t-148 -46q-100 0 -169 71t-69 189zM165 309h214q-3 44 -32 70t-71 26h-8q-42 0 -71 -26t-32 -70zM453 550
h-80l-100 72l-100 -72h-80l100 150h160z" />
    <glyph glyph-name="edieresis" unicode="&#xeb;" horiz-adv-x="541" 
d="M39 250q0 114 64.5 187t173.5 73q108 0 168 -70.5t60 -183.5q0 -5 -2 -47h-338q3 -49 37.5 -81.5t75.5 -32.5h8q34 0 57.5 17.5t30.5 45.5h129q-19 -76 -78 -122t-148 -46q-100 0 -169 71t-69 189zM165 309h214q-3 44 -32 70t-71 26h-8q-42 0 -71 -26t-32 -70zM113 565
v130h120v-130h-120zM313 565v130h120v-130h-120z" />
    <glyph glyph-name="igrave" unicode="&#xec;" horiz-adv-x="264" 
d="M67 0v500h130v-500h-130zM97 550l-100 150h150l25 -150h-75z" />
    <glyph glyph-name="iacute" unicode="&#xed;" horiz-adv-x="264" 
d="M67 0v500h130v-500h-130zM91 550l25 150h150l-100 -150h-75z" />
    <glyph glyph-name="icircumflex" unicode="&#xee;" horiz-adv-x="264" 
d="M64 0v500h130v-500h-130zM309 550h-80l-100 72l-100 -72h-80l100 150h160z" />
    <glyph glyph-name="idieresis" unicode="&#xef;" horiz-adv-x="264" 
d="M67 0v500h130v-500h-130zM-28 565v130h120v-130h-120zM172 565v130h120v-130h-120z" />
    <glyph glyph-name="eth" unicode="&#xf0;" horiz-adv-x="571" 
d="M533 292q0 -132 -65.5 -217t-184.5 -85q-109 0 -177 71.5t-68 179.5q0 101 63.5 167.5t166.5 66.5q64 0 123 -45q-11 62 -45 99l-64 -43l-56 79l25 17q-35 8 -76 8v110q121 0 191 -40l76 51l56 -79l-56 -38q91 -111 91 -302zM408 240q0 56 -33 93t-88 37h-8
q-51 0 -81 -37t-30 -92q0 -64 30 -105t83 -41h8q55 0 87 41.5t32 103.5z" />
    <glyph glyph-name="ntilde" unicode="&#xf1;" horiz-adv-x="584" 
d="M67 0v500h130v-73q23 39 63 61t88 22q85 0 129.5 -51t44.5 -139v-320h-130v305q0 100 -79 100h-8q-45 0 -76.5 -37.5t-31.5 -89.5v-278h-130zM295 579l-18 10q-28 16 -42 16q-13 0 -23.5 -11.5t-10.5 -28.5h-95v26q0 47 33 80.5t79 33.5q37 0 75 -20l18 -10l12 -7
q26 -13 37 -13q13 0 21.5 11.5t8.5 28.5h95v-26q0 -46 -33 -80t-77 -34q-35 0 -80 24z" />
    <glyph glyph-name="ograve" unicode="&#xf2;" horiz-adv-x="576" 
d="M38 250q0 113 70 186.5t180 73.5q111 0 180.5 -73t69.5 -187t-69.5 -187t-180.5 -73q-110 0 -180 73.5t-70 186.5zM284 95h8q53 0 84 41.5t31 113.5t-31 113.5t-84 41.5h-8q-53 0 -84 -41.5t-31 -113.5t31 -113.5t84 -41.5zM253 550l-100 150h150l25 -150h-75z" />
    <glyph glyph-name="oacute" unicode="&#xf3;" horiz-adv-x="576" 
d="M38 250q0 113 70 186.5t180 73.5q111 0 180.5 -73t69.5 -187t-69.5 -187t-180.5 -73q-110 0 -180 73.5t-70 186.5zM284 95h8q53 0 84 41.5t31 113.5t-31 113.5t-84 41.5h-8q-53 0 -84 -41.5t-31 -113.5t31 -113.5t84 -41.5zM247 550l25 150h150l-100 -150h-75z" />
    <glyph glyph-name="ocircumflex" unicode="&#xf4;" horiz-adv-x="576" 
d="M38 250q0 113 70 186.5t180 73.5q111 0 180.5 -73t69.5 -187t-69.5 -187t-180.5 -73q-110 0 -180 73.5t-70 186.5zM284 95h8q53 0 84 41.5t31 113.5t-31 113.5t-84 41.5h-8q-53 0 -84 -41.5t-31 -113.5t31 -113.5t84 -41.5zM468 550h-80l-100 72l-100 -72h-80l100 150
h160z" />
    <glyph glyph-name="otilde" unicode="&#xf5;" horiz-adv-x="576" 
d="M38 250q0 113 70 186.5t180 73.5q111 0 180.5 -73t69.5 -187t-69.5 -187t-180.5 -73q-110 0 -180 73.5t-70 186.5zM284 95h8q53 0 84 41.5t31 113.5t-31 113.5t-84 41.5h-8q-53 0 -84 -41.5t-31 -113.5t31 -113.5t84 -41.5zM287 579l-18 10q-28 16 -42 16
q-13 0 -23.5 -11.5t-10.5 -28.5h-95v26q0 47 33 80.5t79 33.5q37 0 75 -20l18 -10l12 -7q26 -13 37 -13q13 0 21.5 11.5t8.5 28.5h95v-26q0 -46 -33 -80t-77 -34q-35 0 -80 24z" />
    <glyph glyph-name="odieresis" unicode="&#xf6;" horiz-adv-x="576" 
d="M38 250q0 113 70 186.5t180 73.5q111 0 180.5 -73t69.5 -187t-69.5 -187t-180.5 -73q-110 0 -180 73.5t-70 186.5zM284 95h8q53 0 84 41.5t31 113.5t-31 113.5t-84 41.5h-8q-53 0 -84 -41.5t-31 -113.5t31 -113.5t84 -41.5zM128 565v130h120v-130h-120zM328 565v130h120
v-130h-120z" />
    <glyph glyph-name="divide" unicode="&#xf7;" horiz-adv-x="592" 
d="M226 360v135h140v-135h-140zM49 200v115h494v-115h-494zM226 20v135h140v-135h-140z" />
    <glyph glyph-name="oslash" unicode="&#xf8;" horiz-adv-x="576" 
d="M38 250q0 113 70 186.5t180 73.5q111 0 180.5 -73t69.5 -187t-69.5 -187t-180.5 -73q-110 0 -180 73.5t-70 186.5zM284 95h8q53 0 84 41.5t31 113.5t-31 113.5t-84 41.5h-8q-53 0 -84 -41.5t-31 -113.5t31 -113.5t84 -41.5zM124 -50l-84 70l406 530l89 -66z" />
    <glyph glyph-name="ugrave" unicode="&#xf9;" horiz-adv-x="575" 
d="M63 180v320h130v-305q0 -100 74 -100h8q42 0 72.5 37.5t30.5 89.5v278h130v-500h-130v73q-23 -39 -62 -61t-84 -22q-83 0 -126 50.5t-43 139.5zM251 550l-100 150h150l25 -150h-75z" />
    <glyph glyph-name="uacute" unicode="&#xfa;" horiz-adv-x="575" 
d="M63 180v320h130v-305q0 -100 74 -100h8q42 0 72.5 37.5t30.5 89.5v278h130v-500h-130v73q-23 -39 -62 -61t-84 -22q-83 0 -126 50.5t-43 139.5zM245 550l25 150h150l-100 -150h-75z" />
    <glyph glyph-name="ucircumflex" unicode="&#xfb;" horiz-adv-x="575" 
d="M63 180v320h130v-305q0 -100 74 -100h8q42 0 72.5 37.5t30.5 89.5v278h130v-500h-130v73q-23 -39 -62 -61t-84 -22q-83 0 -126 50.5t-43 139.5zM466 550h-80l-100 72l-100 -72h-80l100 150h160z" />
    <glyph glyph-name="udieresis" unicode="&#xfc;" horiz-adv-x="575" 
d="M63 180v320h130v-305q0 -100 74 -100h8q42 0 72.5 37.5t30.5 89.5v278h130v-500h-130v73q-23 -39 -62 -61t-84 -22q-83 0 -126 50.5t-43 139.5zM126 565v130h120v-130h-120zM326 565v130h120v-130h-120z" />
    <glyph glyph-name="yacute" unicode="&#xfd;" horiz-adv-x="572" 
d="M568 500l-213 -456v-116q0 -130 -130 -130h-182v112h133q34 0 44.5 10.5t10.5 44.5v74l-218 461h146l135 -304l130 304h144zM251 550l25 150h150l-100 -150h-75z" />
    <glyph glyph-name="thorn" unicode="&#xfe;" horiz-adv-x="601" 
d="M67 -200v900h130v-265q18 30 57.5 52.5t86.5 22.5q102 0 162 -76t60 -184t-60 -184t-162 -76q-47 0 -86.5 22.5t-57.5 52.5v-265h-130zM311 95h8q49 0 81.5 42.5t32.5 111.5t-32.5 112.5t-81.5 43.5h-8q-47 0 -80.5 -43.5t-33.5 -111.5t33.5 -111.5t80.5 -43.5z" />
    <glyph glyph-name="ydieresis" unicode="&#xff;" horiz-adv-x="572" 
d="M568 500l-213 -456v-116q0 -130 -130 -130h-182v112h133q34 0 44.5 10.5t10.5 44.5v74l-218 461h146l135 -304l130 304h144zM132 565v130h120v-130h-120zM332 565v130h120v-130h-120z" />
    <glyph glyph-name="Amacron" unicode="&#x100;" horiz-adv-x="713" 
d="M564 0l-63 165h-294l-63 -165h-142l277 700h158l270 -700h-143zM252 285h203l-101 266zM190 765v110h335v-110h-335z" />
    <glyph glyph-name="amacron" unicode="&#x101;" horiz-adv-x="534" 
d="M476 0h-122q-5 21 -6 61q-50 -71 -148 -71q-69 0 -116.5 41t-47.5 106q0 73 50 115.5t133 49.5l126 11v12q0 35 -22 57.5t-58 22.5h-8q-34 0 -56 -17.5t-25 -42.5h-130q8 73 66 119t149 46q96 0 153 -47.5t57 -132.5v-220q0 -72 5 -110zM345 204v14l-108 -11
q-31 -2 -52 -18.5t-21 -42.5q0 -23 17.5 -37t44.5 -14h8q45 0 78 31.5t33 77.5zM113 565v105h305v-105h-305z" />
    <glyph glyph-name="Abreve" unicode="&#x102;" horiz-adv-x="713" 
d="M564 0l-63 165h-294l-63 -165h-142l277 700h158l270 -700h-143zM252 285h203l-101 266zM188 890h110q3 -26 19 -40.5t41 -14.5t41 14.5t19 40.5h110q-1 -68 -48.5 -109t-121.5 -41t-121.5 41t-48.5 109z" />
    <glyph glyph-name="abreve" unicode="&#x103;" horiz-adv-x="534" 
d="M476 0h-122q-5 21 -6 61q-50 -71 -148 -71q-69 0 -116.5 41t-47.5 106q0 73 50 115.5t133 49.5l126 11v12q0 35 -22 57.5t-58 22.5h-8q-34 0 -56 -17.5t-25 -42.5h-130q8 73 66 119t149 46q96 0 153 -47.5t57 -132.5v-220q0 -72 5 -110zM345 204v14l-108 -11
q-31 -2 -52 -18.5t-21 -42.5q0 -23 17.5 -37t44.5 -14h8q45 0 78 31.5t33 77.5zM96 700h110q5 -65 60 -65t60 65h110q-1 -72 -48.5 -116t-121.5 -44t-121.5 44t-48.5 116z" />
    <glyph glyph-name="Aogonek" unicode="&#x104;" horiz-adv-x="713" 
d="M564 0l-63 165h-294l-63 -165h-142l277 700h158l270 -700h-143zM252 285h203l-101 266zM536 -120q0 89 105 135l65 -15q-80 -48 -80 -90q0 -24 14 -37t36 -13h30v-80h-50q-52 0 -86 28t-34 72z" />
    <glyph glyph-name="aogonek" unicode="&#x105;" horiz-adv-x="534" 
d="M476 0h-122q-5 21 -6 61q-50 -71 -148 -71q-69 0 -116.5 41t-47.5 106q0 73 50 115.5t133 49.5l126 11v12q0 35 -22 57.5t-58 22.5h-8q-34 0 -56 -17.5t-25 -42.5h-130q8 73 66 119t149 46q96 0 153 -47.5t57 -132.5v-220q0 -72 5 -110zM345 204v14l-108 -11
q-31 -2 -52 -18.5t-21 -42.5q0 -23 17.5 -37t44.5 -14h8q45 0 78 31.5t33 77.5zM306 -120q0 89 105 135l65 -15q-80 -48 -80 -90q0 -24 14 -37t36 -13h30v-80h-50q-52 0 -86 28t-34 72z" />
    <glyph glyph-name="Cacute" unicode="&#x106;" horiz-adv-x="711" 
d="M44 350q0 165 89 262.5t246 97.5q131 0 208.5 -67.5t85.5 -172.5h-135q-12 58 -51.5 89t-102.5 31h-10q-88 0 -141.5 -65t-53.5 -175t53.5 -175t141.5 -65h10q130 0 154 120h135q-8 -108 -85 -174t-209 -66q-157 0 -246 98t-89 262zM336 745l40 145h155l-105 -145h-90z
" />
    <glyph glyph-name="cacute" unicode="&#x107;" horiz-adv-x="539" 
d="M39 250q0 116 68 188t172 72q101 0 159.5 -47t65.5 -138h-130q-13 80 -91 80h-8q-52 0 -79 -42t-27 -113t27 -113t79 -42h8q78 0 91 80h130q-7 -91 -65.5 -138t-159.5 -47q-104 0 -172 72t-68 188zM240 550l25 150h150l-100 -150h-75z" />
    <glyph glyph-name="Ccircumflex" unicode="&#x108;" horiz-adv-x="711" 
d="M44 350q0 165 89 262.5t246 97.5q131 0 208.5 -67.5t85.5 -172.5h-135q-12 58 -51.5 89t-102.5 31h-10q-88 0 -141.5 -65t-53.5 -175t53.5 -175t141.5 -65h10q130 0 154 120h135q-8 -108 -85 -174t-209 -66q-157 0 -246 98t-89 262zM571 745h-110l-80 58l-80 -58h-110
l120 145h140z" />
    <glyph glyph-name="ccircumflex" unicode="&#x109;" horiz-adv-x="539" 
d="M39 250q0 116 68 188t172 72q101 0 159.5 -47t65.5 -138h-130q-13 80 -91 80h-8q-52 0 -79 -42t-27 -113t27 -113t79 -42h8q78 0 91 80h130q-7 -91 -65.5 -138t-159.5 -47q-104 0 -172 72t-68 188zM461 550h-80l-100 72l-100 -72h-80l100 150h160z" />
    <glyph glyph-name="Cdotaccent" unicode="&#x10a;" horiz-adv-x="711" 
d="M44 350q0 165 89 262.5t246 97.5q131 0 208.5 -67.5t85.5 -172.5h-135q-12 58 -51.5 89t-102.5 31h-10q-88 0 -141.5 -65t-53.5 -175t53.5 -175t141.5 -65h10q130 0 154 120h135q-8 -108 -85 -174t-209 -66q-157 0 -246 98t-89 262zM311 765v135h140v-135h-140z" />
    <glyph glyph-name="cdotaccent" unicode="&#x10b;" horiz-adv-x="539" 
d="M39 250q0 116 68 188t172 72q101 0 159.5 -47t65.5 -138h-130q-13 80 -91 80h-8q-52 0 -79 -42t-27 -113t27 -113t79 -42h8q78 0 91 80h130q-7 -91 -65.5 -138t-159.5 -47q-104 0 -172 72t-68 188zM211 565v135h140v-135h-140z" />
    <glyph glyph-name="Ccaron" unicode="&#x10c;" horiz-adv-x="711" 
d="M44 350q0 165 89 262.5t246 97.5q131 0 208.5 -67.5t85.5 -172.5h-135q-12 58 -51.5 89t-102.5 31h-10q-88 0 -141.5 -65t-53.5 -175t53.5 -175t141.5 -65h10q130 0 154 120h135q-8 -108 -85 -174t-209 -66q-157 0 -246 98t-89 262zM461 890h110l-120 -145h-140l-120 145
h110l80 -58z" />
    <glyph glyph-name="ccaron" unicode="&#x10d;" horiz-adv-x="539" 
d="M39 250q0 116 68 188t172 72q101 0 159.5 -47t65.5 -138h-130q-13 80 -91 80h-8q-52 0 -79 -42t-27 -113t27 -113t79 -42h8q78 0 91 80h130q-7 -91 -65.5 -138t-159.5 -47q-104 0 -172 72t-68 188zM381 700h80l-100 -150h-160l-100 150h80l100 -72z" />
    <glyph glyph-name="Dcaron" unicode="&#x10e;" horiz-adv-x="721" 
d="M82 0v700h240q162 0 258.5 -91.5t96.5 -258.5t-94.5 -258.5t-255.5 -91.5h-245zM217 120h95q113 0 171.5 55t58.5 175t-58.5 175t-171.5 55h-95v-460zM409 890h110l-120 -145h-140l-120 145h110l80 -58z" />
    <glyph glyph-name="dcaron" unicode="&#x10f;" horiz-adv-x="708" 
d="M38 250q0 108 60 184t162 76q48 0 87 -22.5t57 -52.5v265h130v-700h-130v65q-18 -30 -57 -52.5t-87 -22.5q-102 0 -162 76t-60 184zM282 95h8q47 0 80.5 43.5t33.5 111.5t-33.5 111.5t-80.5 43.5h-8q-49 0 -81.5 -42.5t-32.5 -111.5t32.5 -112.5t81.5 -43.5zM589 455v75
h24q53 0 53 39v1h-52v130h130v-130q0 -51 -35 -83t-92 -32h-28z" />
    <glyph glyph-name="Dcroat" unicode="&#x110;" horiz-adv-x="750" 
d="M111 0v700h240q162 0 258.5 -91.5t96.5 -258.5t-94.5 -258.5t-255.5 -91.5h-245zM246 120h95q113 0 171.5 55t58.5 175t-58.5 175t-171.5 55h-95v-460zM13 290v120h360v-120h-360z" />
    <glyph glyph-name="dcroat" unicode="&#x111;" horiz-adv-x="614" 
d="M39 250q0 108 60 184t162 76q48 0 87 -22.5t57 -52.5v265h130v-700h-130v65q-18 -30 -57 -52.5t-87 -22.5q-102 0 -162 76t-60 184zM283 95h8q47 0 80.5 43.5t33.5 111.5t-33.5 111.5t-80.5 43.5h-8q-49 0 -81.5 -42.5t-32.5 -111.5t32.5 -112.5t81.5 -43.5zM277 555v90
h345v-90h-345z" />
    <glyph glyph-name="Emacron" unicode="&#x112;" horiz-adv-x="661" 
d="M217 120h405v-120h-540v700h530v-120h-395v-161h335v-120h-335v-179zM190 765v110h335v-110h-335z" />
    <glyph glyph-name="emacron" unicode="&#x113;" horiz-adv-x="541" 
d="M39 250q0 114 64.5 187t173.5 73q108 0 168 -70.5t60 -183.5q0 -5 -2 -47h-338q3 -49 37.5 -81.5t75.5 -32.5h8q34 0 57.5 17.5t30.5 45.5h129q-19 -76 -78 -122t-148 -46q-100 0 -169 71t-69 189zM165 309h214q-3 44 -32 70t-71 26h-8q-42 0 -71 -26t-32 -70zM120 565
v105h305v-105h-305z" />
    <glyph glyph-name="Ebreve" unicode="&#x114;" horiz-adv-x="661" 
d="M217 120h405v-120h-540v700h530v-120h-395v-161h335v-120h-335v-179zM188 890h110q3 -26 19 -40.5t41 -14.5t41 14.5t19 40.5h110q-1 -68 -48.5 -109t-121.5 -41t-121.5 41t-48.5 109z" />
    <glyph glyph-name="ebreve" unicode="&#x115;" horiz-adv-x="541" 
d="M39 250q0 114 64.5 187t173.5 73q108 0 168 -70.5t60 -183.5q0 -5 -2 -47h-338q3 -49 37.5 -81.5t75.5 -32.5h8q34 0 57.5 17.5t30.5 45.5h129q-19 -76 -78 -122t-148 -46q-100 0 -169 71t-69 189zM165 309h214q-3 44 -32 70t-71 26h-8q-42 0 -71 -26t-32 -70zM103 700
h110q5 -65 60 -65t60 65h110q-1 -72 -48.5 -116t-121.5 -44t-121.5 44t-48.5 116z" />
    <glyph glyph-name="Edotaccent" unicode="&#x116;" horiz-adv-x="661" 
d="M217 120h405v-120h-540v700h530v-120h-395v-161h335v-120h-335v-179zM288 765v135h140v-135h-140z" />
    <glyph glyph-name="edotaccent" unicode="&#x117;" horiz-adv-x="541" 
d="M39 250q0 114 64.5 187t173.5 73q108 0 168 -70.5t60 -183.5q0 -5 -2 -47h-338q3 -49 37.5 -81.5t75.5 -32.5h8q34 0 57.5 17.5t30.5 45.5h129q-19 -76 -78 -122t-148 -46q-100 0 -169 71t-69 189zM165 309h214q-3 44 -32 70t-71 26h-8q-42 0 -71 -26t-32 -70zM203 565
v135h140v-135h-140z" />
    <glyph glyph-name="Eogonek" unicode="&#x118;" horiz-adv-x="661" 
d="M217 120h405v-120h-540v700h530v-120h-395v-161h335v-120h-335v-179zM452 -120q0 89 105 135l65 -15q-80 -48 -80 -90q0 -24 14 -37t36 -13h30v-80h-50q-52 0 -86 28t-34 72z" />
    <glyph glyph-name="eogonek" unicode="&#x119;" horiz-adv-x="541" 
d="M39 250q0 114 64.5 187t173.5 73q108 0 168 -70.5t60 -183.5q0 -5 -2 -47h-338q3 -49 37.5 -81.5t75.5 -32.5h8q34 0 57.5 17.5t30.5 45.5h129q-19 -76 -78 -122t-148 -46q-100 0 -169 71t-69 189zM165 309h214q-3 44 -32 70t-71 26h-8q-42 0 -71 -26t-32 -70zM174 -120
q0 89 105 135l65 -15q-80 -48 -80 -90q0 -24 14 -37t36 -13h30v-80h-50q-52 0 -86 28t-34 72z" />
    <glyph glyph-name="Ecaron" unicode="&#x11a;" horiz-adv-x="661" 
d="M217 120h405v-120h-540v700h530v-120h-395v-161h335v-120h-335v-179zM438 890h110l-120 -145h-140l-120 145h110l80 -58z" />
    <glyph glyph-name="ecaron" unicode="&#x11b;" horiz-adv-x="541" 
d="M39 250q0 114 64.5 187t173.5 73q108 0 168 -70.5t60 -183.5q0 -5 -2 -47h-338q3 -49 37.5 -81.5t75.5 -32.5h8q34 0 57.5 17.5t30.5 45.5h129q-19 -76 -78 -122t-148 -46q-100 0 -169 71t-69 189zM165 309h214q-3 44 -32 70t-71 26h-8q-42 0 -71 -26t-32 -70zM373 700
h80l-100 -150h-160l-100 150h80l100 -72z" />
    <glyph glyph-name="Gcircumflex" unicode="&#x11c;" horiz-adv-x="745" 
d="M42 350q-2 155 95 258t250 102q131 0 211.5 -69.5t88.5 -180.5h-135q-8 61 -49 95.5t-111 34.5h-10q-95 0 -150 -65t-55 -175t55 -175t150 -65h10q65 0 117 35t68 93l2 7h-192v120h220q85 0 85 -85v-280h-115v68q-72 -78 -190 -78q-153 -2 -250 102t-95 258zM580 745
h-110l-80 58l-80 -58h-110l120 145h140z" />
    <glyph glyph-name="gcircumflex" unicode="&#x11d;" horiz-adv-x="593" 
d="M31 -56h130q5 -27 34.5 -43t77.5 -16h6q51 0 84 31t33 88v66q-41 -70 -141 -70q-91 0 -153.5 69t-62.5 186q0 116 62.5 185.5t153.5 69.5q100 0 141 -70v60h130v-512q0 -87 -69 -147.5t-190 -60.5q-100 0 -166.5 46t-69.5 118zM281 105h8q47 0 77 41t30 109t-30 109
t-77 41h-8q-49 0 -80.5 -41t-31.5 -109q0 -69 31.5 -109.5t80.5 -40.5zM462 550h-80l-100 72l-100 -72h-80l100 150h160z" />
    <glyph glyph-name="Gbreve" unicode="&#x11e;" horiz-adv-x="745" 
d="M42 350q-2 155 95 258t250 102q131 0 211.5 -69.5t88.5 -180.5h-135q-8 61 -49 95.5t-111 34.5h-10q-95 0 -150 -65t-55 -175t55 -175t150 -65h10q65 0 117 35t68 93l2 7h-192v120h220q85 0 85 -85v-280h-115v68q-72 -78 -190 -78q-153 -2 -250 102t-95 258zM220 890h110
q3 -26 19 -40.5t41 -14.5t41 14.5t19 40.5h110q-1 -68 -48.5 -109t-121.5 -41t-121.5 41t-48.5 109z" />
    <glyph glyph-name="gbreve" unicode="&#x11f;" horiz-adv-x="593" 
d="M31 -56h130q5 -27 34.5 -43t77.5 -16h6q51 0 84 31t33 88v66q-41 -70 -141 -70q-91 0 -153.5 69t-62.5 186q0 116 62.5 185.5t153.5 69.5q100 0 141 -70v60h130v-512q0 -87 -69 -147.5t-190 -60.5q-100 0 -166.5 46t-69.5 118zM281 105h8q47 0 77 41t30 109t-30 109
t-77 41h-8q-49 0 -80.5 -41t-31.5 -109q0 -69 31.5 -109.5t80.5 -40.5zM112 700h110q5 -65 60 -65t60 65h110q-1 -72 -48.5 -116t-121.5 -44t-121.5 44t-48.5 116z" />
    <glyph glyph-name="Gdotaccent" unicode="&#x120;" horiz-adv-x="745" 
d="M42 350q-2 155 95 258t250 102q131 0 211.5 -69.5t88.5 -180.5h-135q-8 61 -49 95.5t-111 34.5h-10q-95 0 -150 -65t-55 -175t55 -175t150 -65h10q65 0 117 35t68 93l2 7h-192v120h220q85 0 85 -85v-280h-115v68q-72 -78 -190 -78q-153 -2 -250 102t-95 258zM320 765v135
h140v-135h-140z" />
    <glyph glyph-name="gdotaccent" unicode="&#x121;" horiz-adv-x="593" 
d="M31 -56h130q5 -27 34.5 -43t77.5 -16h6q51 0 84 31t33 88v66q-41 -70 -141 -70q-91 0 -153.5 69t-62.5 186q0 116 62.5 185.5t153.5 69.5q100 0 141 -70v60h130v-512q0 -87 -69 -147.5t-190 -60.5q-100 0 -166.5 46t-69.5 118zM281 105h8q47 0 77 41t30 109t-30 109
t-77 41h-8q-49 0 -80.5 -41t-31.5 -109q0 -69 31.5 -109.5t80.5 -40.5zM212 565v135h140v-135h-140z" />
    <glyph glyph-name="uni0122" unicode="&#x122;" horiz-adv-x="745" 
d="M42 350q-2 155 95 258t250 102q131 0 211.5 -69.5t88.5 -180.5h-135q-8 61 -49 95.5t-111 34.5h-10q-95 0 -150 -65t-55 -175t55 -175t150 -65h10q65 0 117 35t68 93l2 7h-192v120h220q85 0 85 -85v-280h-115v68q-72 -78 -190 -78q-153 -2 -250 102t-95 258zM297 -310v75
h23q54 0 54 39v1h-52v130h130v-130q0 -50 -35.5 -82.5t-91.5 -32.5h-28z" />
    <glyph glyph-name="uni0123" unicode="&#x123;" horiz-adv-x="593" 
d="M31 -56h130q5 -27 34.5 -43t77.5 -16h6q51 0 84 31t33 88v66q-41 -70 -141 -70q-91 0 -153.5 69t-62.5 186q0 116 62.5 185.5t153.5 69.5q100 0 141 -70v60h130v-512q0 -87 -69 -147.5t-190 -60.5q-100 0 -166.5 46t-69.5 118zM281 105h8q47 0 77 41t30 109t-30 109
t-77 41h-8q-49 0 -80.5 -41t-31.5 -109q0 -69 31.5 -109.5t80.5 -40.5zM372 815v-75h-23q-54 0 -54 -39v-1h52v-130h-130v130q0 50 35.5 82.5t91.5 32.5h28z" />
    <glyph glyph-name="Hcircumflex" unicode="&#x124;" horiz-adv-x="739" 
d="M82 0v700h135v-290h305v290h135v-700h-135v290h-305v-290h-135zM560 745h-110l-80 58l-80 -58h-110l120 145h140z" />
    <glyph glyph-name="hcircumflex" unicode="&#x125;" horiz-adv-x="574" 
d="M57 0v700h130v-273q23 39 63 61t88 22q85 0 129.5 -51t44.5 -139v-320h-130v305q0 100 -79 100h-8q-45 0 -76.5 -37.5t-31.5 -89.5v-278h-130zM302 740h-80l-100 72l-100 -72h-80l100 150h160z" />
    <glyph glyph-name="Hbar" unicode="&#x126;" horiz-adv-x="747" 
d="M86 0v700h135v-290h305v290h135v-700h-135v290h-305v-290h-135zM26 492v115h695v-115h-695z" />
    <glyph glyph-name="hbar" unicode="&#x127;" horiz-adv-x="593" 
d="M76 0v700h130v-273q23 39 63 61t88 22q85 0 129.5 -51t44.5 -139v-320h-130v305q0 100 -79 100h-8q-45 0 -76.5 -37.5t-31.5 -89.5v-278h-130zM-3 555v90h345v-90h-345z" />
    <glyph glyph-name="Itilde" unicode="&#x128;" horiz-adv-x="299" 
d="M82 0v700h135v-700h-135zM149 774l-18 10q-28 16 -45 16q-15 1 -23 -10t-8 -30h-95v26q0 47 33 80.5t79 33.5q38 0 75 -20l18 -10l10 -5q22 -15 39 -15q30 0 30 40h95v-26q0 -52 -28.5 -83t-81.5 -31q-35 0 -80 24z" />
    <glyph glyph-name="itilde" unicode="&#x129;" horiz-adv-x="264" 
d="M67 0v500h130v-500h-130zM131 579l-18 10q-28 16 -42 16q-13 0 -23.5 -11.5t-10.5 -28.5h-95v26q0 47 33 80.5t79 33.5q37 0 75 -20l18 -10l12 -7q26 -13 37 -13q13 0 21.5 11.5t8.5 28.5h95v-26q0 -46 -33 -80t-77 -34q-35 0 -80 24z" />
    <glyph glyph-name="Imacron" unicode="&#x12a;" horiz-adv-x="299" 
d="M82 0v700h135v-700h-135zM-18 765v110h335v-110h-335z" />
    <glyph glyph-name="imacron" unicode="&#x12b;" horiz-adv-x="264" 
d="M67 0v500h130v-500h-130zM-21 565v105h305v-105h-305z" />
    <glyph glyph-name="Ibreve" unicode="&#x12c;" horiz-adv-x="299" 
d="M82 0v700h135v-700h-135zM-20 890h110q3 -26 19 -40.5t41 -14.5t41 14.5t19 40.5h110q-1 -68 -48.5 -109t-121.5 -41t-121.5 41t-48.5 109z" />
    <glyph glyph-name="ibreve" unicode="&#x12d;" horiz-adv-x="264" 
d="M67 0v500h130v-500h-130zM-38 700h110q5 -65 60 -65t60 65h110q-1 -72 -48.5 -116t-121.5 -44t-121.5 44t-48.5 116z" />
    <glyph glyph-name="Iogonek" unicode="&#x12e;" horiz-adv-x="299" 
d="M82 0v700h135v-700h-135zM47 -120q0 89 105 135l65 -15q-80 -48 -80 -90q0 -24 14 -37t36 -13h30v-80h-50q-52 0 -86 28t-34 72z" />
    <glyph glyph-name="iogonek" unicode="&#x12f;" horiz-adv-x="264" 
d="M67 0v500h130v-500h-130zM62 565v135h140v-135h-140zM28 -120q0 89 105 135l65 -15q-80 -48 -80 -90q0 -24 14 -37t36 -13h30v-80h-50q-52 0 -86 28t-34 72z" />
    <glyph glyph-name="Idotaccent" unicode="&#x130;" horiz-adv-x="299" 
d="M82 0v700h135v-700h-135zM80 765v135h140v-135h-140z" />
    <glyph glyph-name="dotlessi" unicode="&#x131;" horiz-adv-x="264" 
d="M67 0v500h130v-500h-130z" />
    <glyph glyph-name="IJ" unicode="&#x132;" horiz-adv-x="546" 
d="M74 0v130h175q48 0 66.5 20.5t18.5 74.5v475h135v-490q0 -110 -48 -160t-157 -50h-190zM74 206v494h135v-494h-135z" />
    <glyph glyph-name="ij" unicode="&#x133;" horiz-adv-x="507" 
d="M62 565v135h140v-135h-140zM304 565v135h140v-135h-140zM67 -200v110h188q30 0 42.5 12.5t12.5 42.5v535h130v-575q0 -60 -32.5 -92.5t-92.5 -32.5h-248zM67 0v500h130v-500h-130z" />
    <glyph glyph-name="Jcircumflex" unicode="&#x134;" horiz-adv-x="429" 
d="M28 0v130h128q34 0 47 13t13 47v510h135v-560q0 -63 -38.5 -101.5t-101.5 -38.5h-183zM474 745h-110l-80 58l-80 -58h-110l120 145h140z" />
    <glyph glyph-name="jcircumflex" unicode="&#x135;" horiz-adv-x="272" 
d="M-82 -200v110h102q30 0 42.5 12.5t12.5 42.5v535h130v-575q0 -60 -32.5 -92.5t-92.5 -32.5h-162zM320 550h-80l-100 72l-100 -72h-80l100 150h160z" />
    <glyph glyph-name="uni0136" unicode="&#x136;" horiz-adv-x="686" 
d="M520 0l-211 308l-92 -97v-211h-135v700h135v-314l297 314h167l-276 -290l282 -410h-167zM260 -310v75h23q54 0 54 39v1h-52v130h130v-130q0 -50 -35.5 -82.5t-91.5 -32.5h-28z" />
    <glyph glyph-name="uni0137" unicode="&#x137;" horiz-adv-x="551" 
d="M394 0l-139 208l-58 -60v-148h-130v700h130v-387l181 187h159l-192 -199l202 -301h-153zM197 -310v75h23q54 0 54 39v1h-52v130h130v-130q0 -50 -35.5 -82.5t-91.5 -32.5h-28z" />
    <glyph glyph-name="Lacute" unicode="&#x139;" horiz-adv-x="630" 
d="M82 0v700h135v-580h395v-120h-530zM105 745l40 145h155l-105 -145h-90z" />
    <glyph glyph-name="lacute" unicode="&#x13a;" horiz-adv-x="264" 
d="M67 0v700h130v-700h-130zM91 745l25 150h150l-100 -150h-75z" />
    <glyph glyph-name="uni013B" unicode="&#x13b;" horiz-adv-x="630" 
d="M82 0v700h135v-580h395v-120h-530zM260 -310v75h23q54 0 54 39v1h-52v130h130v-130q0 -50 -35.5 -82.5t-91.5 -32.5h-28z" />
    <glyph glyph-name="uni013C" unicode="&#x13c;" horiz-adv-x="264" 
d="M67 0v700h130v-700h-130zM42 -310v75h23q54 0 54 39v1h-52v130h130v-130q0 -50 -35.5 -82.5t-91.5 -32.5h-28z" />
    <glyph glyph-name="Lcaron" unicode="&#x13d;" horiz-adv-x="630" 
d="M82 0v700h135v-580h395v-120h-530zM342 455v75h24q53 0 53 39v1h-52v130h130v-130q0 -51 -35 -83t-92 -32h-28z" />
    <glyph glyph-name="lcaron" unicode="&#x13e;" horiz-adv-x="371" 
d="M67 0v700h130v-700h-130zM252 455v75h24q53 0 53 39v1h-52v130h130v-130q0 -51 -35 -83t-92 -32h-28z" />
    <glyph glyph-name="Ldot" unicode="&#x13f;" horiz-adv-x="630" 
d="M82 0v700h135v-580h395v-120h-530zM375 295v130h131v-130h-131z" />
    <glyph glyph-name="ldot" unicode="&#x140;" horiz-adv-x="391" 
d="M67 0v700h130v-700h-130zM253 285v130h131v-130h-131z" />
    <glyph glyph-name="Lslash" unicode="&#x141;" horiz-adv-x="678" 
d="M130 0v700h135v-580h395v-120h-530zM37 182v135l400 224v-134z" />
    <glyph glyph-name="lslash" unicode="&#x142;" horiz-adv-x="333" 
d="M104 0v700h130v-700h-130zM24 255v120l290 164v-120z" />
    <glyph glyph-name="Nacute" unicode="&#x143;" horiz-adv-x="749" 
d="M532 700h135v-700h-175l-275 516v-516h-135v700h175l275 -513v513zM331 745l40 145h155l-105 -145h-90z" />
    <glyph glyph-name="nacute" unicode="&#x144;" horiz-adv-x="584" 
d="M67 0v500h130v-73q23 39 63 61t88 22q85 0 129.5 -51t44.5 -139v-320h-130v305q0 100 -79 100h-8q-45 0 -76.5 -37.5t-31.5 -89.5v-278h-130zM255 550l25 150h150l-100 -150h-75z" />
    <glyph glyph-name="uni0145" unicode="&#x145;" horiz-adv-x="749" 
d="M532 700h135v-700h-175l-275 516v-516h-135v700h175l275 -513v513zM285 -310v75h23q54 0 54 39v1h-52v130h130v-130q0 -50 -35.5 -82.5t-91.5 -32.5h-28z" />
    <glyph glyph-name="uni0146" unicode="&#x146;" horiz-adv-x="584" 
d="M67 0v500h130v-73q23 39 63 61t88 22q85 0 129.5 -51t44.5 -139v-320h-130v305q0 100 -79 100h-8q-45 0 -76.5 -37.5t-31.5 -89.5v-278h-130zM206 -310v75h23q54 0 54 39v1h-52v130h130v-130q0 -50 -35.5 -82.5t-91.5 -32.5h-28z" />
    <glyph glyph-name="Ncaron" unicode="&#x147;" horiz-adv-x="749" 
d="M532 700h135v-700h-175l-275 516v-516h-135v700h175l275 -513v513zM456 890h110l-120 -145h-140l-120 145h110l80 -58z" />
    <glyph glyph-name="ncaron" unicode="&#x148;" horiz-adv-x="584" 
d="M67 0v500h130v-73q23 39 63 61t88 22q85 0 129.5 -51t44.5 -139v-320h-130v305q0 100 -79 100h-8q-45 0 -76.5 -37.5t-31.5 -89.5v-278h-130zM396 700h80l-100 -150h-160l-100 150h80l100 -72z" />
    <glyph glyph-name="Eng" unicode="&#x14a;" horiz-adv-x="749" 
d="M532 700h135v-770q0 -59 -35.5 -94.5t-94.5 -35.5h-120v110h60q30 0 42.5 12.5t12.5 42.5v35l-315 477v-477h-135v700h140l310 -471v471z" />
    <glyph glyph-name="eng" unicode="&#x14b;" horiz-adv-x="584" 
d="M287 -202v112h50q30 0 42.5 12.5t12.5 42.5v340q0 100 -79 100h-8q-45 0 -76.5 -37.5t-31.5 -89.5v-278h-130v500h130v-73q23 39 63 61t88 22q85 0 129.5 -51t44.5 -139v-397q0 -60 -32.5 -92.5t-92.5 -32.5h-110z" />
    <glyph glyph-name="Omacron" unicode="&#x14c;" horiz-adv-x="766" 
d="M43 350q0 165 94 262.5t246 97.5t246 -97.5t94 -262.5t-94 -262.5t-246 -97.5t-246 97.5t-94 262.5zM378 110h10q93 0 146.5 63.5t53.5 176.5t-53.5 176.5t-146.5 63.5h-10q-93 0 -146.5 -63.5t-53.5 -176.5t53.5 -176.5t146.5 -63.5zM215 765v110h335v-110h-335z" />
    <glyph glyph-name="omacron" unicode="&#x14d;" horiz-adv-x="576" 
d="M38 250q0 113 70 186.5t180 73.5q111 0 180.5 -73t69.5 -187t-69.5 -187t-180.5 -73q-110 0 -180 73.5t-70 186.5zM284 95h8q53 0 84 41.5t31 113.5t-31 113.5t-84 41.5h-8q-53 0 -84 -41.5t-31 -113.5t31 -113.5t84 -41.5zM135 565v105h305v-105h-305z" />
    <glyph glyph-name="Obreve" unicode="&#x14e;" horiz-adv-x="766" 
d="M43 350q0 165 94 262.5t246 97.5t246 -97.5t94 -262.5t-94 -262.5t-246 -97.5t-246 97.5t-94 262.5zM378 110h10q93 0 146.5 63.5t53.5 176.5t-53.5 176.5t-146.5 63.5h-10q-93 0 -146.5 -63.5t-53.5 -176.5t53.5 -176.5t146.5 -63.5zM213 890h110q3 -26 19 -40.5
t41 -14.5t41 14.5t19 40.5h110q-1 -68 -48.5 -109t-121.5 -41t-121.5 41t-48.5 109z" />
    <glyph glyph-name="obreve" unicode="&#x14f;" horiz-adv-x="576" 
d="M38 250q0 113 70 186.5t180 73.5q111 0 180.5 -73t69.5 -187t-69.5 -187t-180.5 -73q-110 0 -180 73.5t-70 186.5zM284 95h8q53 0 84 41.5t31 113.5t-31 113.5t-84 41.5h-8q-53 0 -84 -41.5t-31 -113.5t31 -113.5t84 -41.5zM118 700h110q5 -65 60 -65t60 65h110
q-1 -72 -48.5 -116t-121.5 -44t-121.5 44t-48.5 116z" />
    <glyph glyph-name="Ohungarumlaut" unicode="&#x150;" horiz-adv-x="766" 
d="M43 350q0 165 94 262.5t246 97.5t246 -97.5t94 -262.5t-94 -262.5t-246 -97.5t-246 97.5t-94 262.5zM378 110h10q93 0 146.5 63.5t53.5 176.5t-53.5 176.5t-146.5 63.5h-10q-93 0 -146.5 -63.5t-53.5 -176.5t53.5 -176.5t146.5 -63.5zM236 745l40 145h155l-105 -145h-90z
M425 745l40 145h155l-105 -145h-90z" />
    <glyph glyph-name="ohungarumlaut" unicode="&#x151;" horiz-adv-x="576" 
d="M38 250q0 113 70 186.5t180 73.5q111 0 180.5 -73t69.5 -187t-69.5 -187t-180.5 -73q-110 0 -180 73.5t-70 186.5zM284 95h8q53 0 84 41.5t31 113.5t-31 113.5t-84 41.5h-8q-53 0 -84 -41.5t-31 -113.5t31 -113.5t84 -41.5zM162 550l25 150h150l-100 -150h-75zM321 550
l25 150h150l-100 -150h-75z" />
    <glyph glyph-name="OE" unicode="&#x152;" horiz-adv-x="1167" 
d="M43 350q0 165 94 262.5t246 97.5q120 0 205 -61v51h530v-120h-395v-161h335v-120h-335v-179h405v-120h-540v51q-85 -61 -205 -61q-152 0 -246 97.5t-94 262.5zM378 110h10q93 0 146.5 63.5t53.5 176.5t-53.5 176.5t-146.5 63.5h-10q-93 0 -146.5 -63.5t-53.5 -176.5
t53.5 -176.5t146.5 -63.5z" />
    <glyph glyph-name="oe" unicode="&#x153;" horiz-adv-x="911" 
d="M38 250q0 113 70 186.5t180 73.5q113 0 183 -75q64 75 176 75q108 0 168 -70.5t60 -183.5q0 -5 -2 -47h-338q4 -50 37 -82t76 -32h8q34 0 57.5 17.5t30.5 45.5h129q-19 -76 -78 -122t-148 -46q-105 0 -174 77q-71 -77 -185 -77q-110 0 -180 73.5t-70 186.5zM284 95h8
q53 0 84 41.5t31 113.5t-31 113.5t-84 41.5h-8q-53 0 -84 -41.5t-31 -113.5t31 -113.5t84 -41.5zM535 309h214q-1 43 -31 69.5t-72 26.5h-8q-42 0 -71 -26t-32 -70z" />
    <glyph glyph-name="Racute" unicode="&#x154;" horiz-adv-x="682" 
d="M82 0v700h325q90 0 152.5 -54.5t62.5 -135.5q0 -134 -119 -177q109 0 109 -99v-234h-135v200q0 38 -13.5 51.5t-51.5 13.5h-195v-265h-135zM217 383h150q120 0 120 101q0 96 -120 96h-150v-197zM285 745l40 145h155l-105 -145h-90z" />
    <glyph glyph-name="racute" unicode="&#x155;" horiz-adv-x="387" 
d="M67 0v500h130v-100q15 50 52.5 77.5t92.5 27.5h25v-120h-45q-125 0 -125 -125v-260h-130zM142 550l25 150h150l-100 -150h-75z" />
    <glyph glyph-name="uni0156" unicode="&#x156;" horiz-adv-x="682" 
d="M82 0v700h325q90 0 152.5 -54.5t62.5 -135.5q0 -134 -119 -177q109 0 109 -99v-234h-135v200q0 38 -13.5 51.5t-51.5 13.5h-195v-265h-135zM217 383h150q120 0 120 101q0 96 -120 96h-150v-197zM254 -310v75h23q54 0 54 39v1h-52v130h130v-130q0 -50 -35.5 -82.5
t-91.5 -32.5h-28z" />
    <glyph glyph-name="uni0157" unicode="&#x157;" horiz-adv-x="387" 
d="M67 0v500h130v-100q15 50 52.5 77.5t92.5 27.5h25v-120h-45q-125 0 -125 -125v-260h-130zM42 -310v75h23q54 0 54 39v1h-52v130h130v-130q0 -50 -35.5 -82.5t-91.5 -32.5h-28z" />
    <glyph glyph-name="Rcaron" unicode="&#x158;" horiz-adv-x="682" 
d="M82 0v700h325q90 0 152.5 -54.5t62.5 -135.5q0 -134 -119 -177q109 0 109 -99v-234h-135v200q0 38 -13.5 51.5t-51.5 13.5h-195v-265h-135zM217 383h150q120 0 120 101q0 96 -120 96h-150v-197zM410 890h110l-120 -145h-140l-120 145h110l80 -58z" />
    <glyph glyph-name="rcaron" unicode="&#x159;" horiz-adv-x="387" 
d="M67 0v500h130v-100q15 50 52.5 77.5t92.5 27.5h25v-120h-45q-125 0 -125 -125v-260h-130zM283 700h80l-100 -150h-160l-100 150h80l100 -72z" />
    <glyph glyph-name="Sacute" unicode="&#x15a;" horiz-adv-x="634" 
d="M29 235h135q5 -56 45.5 -90.5t114.5 -34.5h10q53 0 83.5 24.5t30.5 60.5q0 33 -17.5 50.5t-61.5 26.5l-125 26q-180 37 -180 202q0 85 72.5 147.5t192.5 62.5q124 0 194.5 -63.5t70.5 -166.5h-135q-3 52 -38 81t-92 29h-10q-53 0 -86.5 -25t-33.5 -60q0 -34 20 -52
t65 -27l105 -21q194 -39 194 -200q0 -93 -72.5 -154t-196.5 -61q-137 0 -208.5 65t-76.5 180zM281 745l40 145h155l-105 -145h-90z" />
    <glyph glyph-name="sacute" unicode="&#x15b;" horiz-adv-x="497" 
d="M32 165h133q0 -34 23 -54.5t61 -20.5h8q30 0 48 13.5t18 35.5q0 39 -51 50l-65 16q-81 20 -118 56t-37 95q0 69 55 111.5t147 42.5q96 0 150 -46.5t54 -128.5h-130q-8 75 -75 75h-8q-27 0 -45 -13.5t-18 -35.5q0 -20 15 -31t49 -20l67 -17q72 -18 106 -54t34 -95
q0 -67 -54.5 -110.5t-150.5 -43.5q-101 0 -158.5 46.5t-57.5 128.5zM204 550l25 150h150l-100 -150h-75z" />
    <glyph glyph-name="Scircumflex" unicode="&#x15c;" horiz-adv-x="634" 
d="M29 235h135q5 -56 45.5 -90.5t114.5 -34.5h10q53 0 83.5 24.5t30.5 60.5q0 33 -17.5 50.5t-61.5 26.5l-125 26q-180 37 -180 202q0 85 72.5 147.5t192.5 62.5q124 0 194.5 -63.5t70.5 -166.5h-135q-3 52 -38 81t-92 29h-10q-53 0 -86.5 -25t-33.5 -60q0 -34 20 -52
t65 -27l105 -21q194 -39 194 -200q0 -93 -72.5 -154t-196.5 -61q-137 0 -208.5 65t-76.5 180zM516 745h-110l-80 58l-80 -58h-110l120 145h140z" />
    <glyph glyph-name="scircumflex" unicode="&#x15d;" horiz-adv-x="497" 
d="M32 165h133q0 -34 23 -54.5t61 -20.5h8q30 0 48 13.5t18 35.5q0 39 -51 50l-65 16q-81 20 -118 56t-37 95q0 69 55 111.5t147 42.5q96 0 150 -46.5t54 -128.5h-130q-8 75 -75 75h-8q-27 0 -45 -13.5t-18 -35.5q0 -20 15 -31t49 -20l67 -17q72 -18 106 -54t34 -95
q0 -67 -54.5 -110.5t-150.5 -43.5q-101 0 -158.5 46.5t-57.5 128.5zM425 550h-80l-100 72l-100 -72h-80l100 150h160z" />
    <glyph glyph-name="Scedilla" unicode="&#x15e;" horiz-adv-x="634" 
d="M29 235h135q5 -56 45.5 -90.5t114.5 -34.5h10q53 0 83.5 24.5t30.5 60.5q0 33 -17.5 50.5t-61.5 26.5l-125 26q-180 37 -180 202q0 85 72.5 147.5t192.5 62.5q124 0 194.5 -63.5t70.5 -166.5h-135q-3 52 -38 81t-92 29h-10q-53 0 -86.5 -25t-33.5 -60q0 -34 20 -52
t65 -27l105 -21q194 -39 194 -200q0 -93 -72.5 -154t-196.5 -61q-137 0 -208.5 65t-76.5 180zM242 -245v75h85q40 0 40 30t-35 30h-55v125h70v-60q41 0 68 -25t27 -70q0 -48 -33 -76.5t-87 -28.5h-80z" />
    <glyph glyph-name="scedilla" unicode="&#x15f;" horiz-adv-x="497" 
d="M32 165h133q0 -34 23 -54.5t61 -20.5h8q30 0 48 13.5t18 35.5q0 39 -51 50l-65 16q-81 20 -118 56t-37 95q0 69 55 111.5t147 42.5q96 0 150 -46.5t54 -128.5h-130q-8 75 -75 75h-8q-27 0 -45 -13.5t-18 -35.5q0 -20 15 -31t49 -20l67 -17q72 -18 106 -54t34 -95
q0 -67 -54.5 -110.5t-150.5 -43.5q-101 0 -158.5 46.5t-57.5 128.5zM176 -245v75h85q40 0 40 30t-35 30h-55v125h70v-60q41 0 68 -25t27 -70q0 -48 -33 -76.5t-87 -28.5h-80z" />
    <glyph glyph-name="Scaron" unicode="&#x160;" horiz-adv-x="634" 
d="M29 235h135q5 -56 45.5 -90.5t114.5 -34.5h10q53 0 83.5 24.5t30.5 60.5q0 33 -17.5 50.5t-61.5 26.5l-125 26q-180 37 -180 202q0 85 72.5 147.5t192.5 62.5q124 0 194.5 -63.5t70.5 -166.5h-135q-3 52 -38 81t-92 29h-10q-53 0 -86.5 -25t-33.5 -60q0 -34 20 -52
t65 -27l105 -21q194 -39 194 -200q0 -93 -72.5 -154t-196.5 -61q-137 0 -208.5 65t-76.5 180zM406 890h110l-120 -145h-140l-120 145h110l80 -58z" />
    <glyph glyph-name="scaron" unicode="&#x161;" horiz-adv-x="497" 
d="M32 165h133q0 -34 23 -54.5t61 -20.5h8q30 0 48 13.5t18 35.5q0 39 -51 50l-65 16q-81 20 -118 56t-37 95q0 69 55 111.5t147 42.5q96 0 150 -46.5t54 -128.5h-130q-8 75 -75 75h-8q-27 0 -45 -13.5t-18 -35.5q0 -20 15 -31t49 -20l67 -17q72 -18 106 -54t34 -95
q0 -67 -54.5 -110.5t-150.5 -43.5q-101 0 -158.5 46.5t-57.5 128.5zM345 700h80l-100 -150h-160l-100 150h80l100 -72z" />
    <glyph glyph-name="uni0162" unicode="&#x162;" horiz-adv-x="656" 
d="M260 0v580h-242v120h620v-120h-243v-580h-135zM258 -245v75h85q40 0 40 30t-35 30h-55v125h70v-60q41 0 68 -25t27 -70q0 -48 -33 -76.5t-87 -28.5h-80z" />
    <glyph glyph-name="uni0163" unicode="&#x163;" horiz-adv-x="407" 
d="M120 130v265h-103v105h103v162h130v-162h112v-105h-112v-230q0 -34 10.5 -44.5t44.5 -10.5h72v-110h-127q-63 0 -96.5 33t-33.5 97zM145 -245v75h85q40 0 40 30t-35 30h-55v125h70v-60q41 0 68 -25t27 -70q0 -48 -33 -76.5t-87 -28.5h-80z" />
    <glyph glyph-name="Tcaron" unicode="&#x164;" horiz-adv-x="656" 
d="M260 0v580h-242v120h620v-120h-243v-580h-135zM408 890h110l-120 -145h-140l-120 145h110l80 -58z" />
    <glyph glyph-name="tcaron" unicode="&#x165;" horiz-adv-x="531" 
d="M120 130v265h-103v105h103v162h130v-162h112v-105h-112v-230q0 -34 10.5 -44.5t44.5 -10.5h72v-110h-127q-63 0 -96.5 33t-33.5 97zM418 455v75h24q53 0 53 39v1h-52v130h130v-130q0 -51 -35 -83t-92 -32h-28z" />
    <glyph glyph-name="Tbar" unicode="&#x166;" horiz-adv-x="676" 
d="M270 0v580h-242v120h620v-120h-243v-580h-135zM100 321v115h475v-115h-475z" />
    <glyph glyph-name="tbar" unicode="&#x167;" horiz-adv-x="415" 
d="M127 130v265h-103v105h103v162h130v-162h112v-105h-112v-230q0 -34 10.5 -44.5t44.5 -10.5h72v-110h-127q-63 0 -96.5 33t-33.5 97zM24 222v90h345v-90h-345z" />
    <glyph glyph-name="Utilde" unicode="&#x168;" horiz-adv-x="702" 
d="M76 245v455h135v-435q0 -81 33 -118t102 -37h10q69 0 102 37.5t33 117.5v435h135v-455q0 -124 -69 -189.5t-206 -65.5t-206 65.5t-69 189.5zM350 774l-18 10q-28 16 -45 16q-15 1 -23 -10t-8 -30h-95v26q0 47 33 80.5t79 33.5q38 0 75 -20l18 -10l10 -5q22 -15 39 -15
q30 0 30 40h95v-26q0 -52 -28.5 -83t-81.5 -31q-35 0 -80 24z" />
    <glyph glyph-name="utilde" unicode="&#x169;" horiz-adv-x="575" 
d="M63 180v320h130v-305q0 -100 74 -100h8q42 0 72.5 37.5t30.5 89.5v278h130v-500h-130v73q-23 -39 -62 -61t-84 -22q-83 0 -126 50.5t-43 139.5zM285 579l-18 10q-28 16 -42 16q-13 0 -23.5 -11.5t-10.5 -28.5h-95v26q0 47 33 80.5t79 33.5q37 0 75 -20l18 -10l12 -7
q26 -13 37 -13q13 0 21.5 11.5t8.5 28.5h95v-26q0 -46 -33 -80t-77 -34q-35 0 -80 24z" />
    <glyph glyph-name="Umacron" unicode="&#x16a;" horiz-adv-x="702" 
d="M76 245v455h135v-435q0 -81 33 -118t102 -37h10q69 0 102 37.5t33 117.5v435h135v-455q0 -124 -69 -189.5t-206 -65.5t-206 65.5t-69 189.5zM183 765v110h335v-110h-335z" />
    <glyph glyph-name="umacron" unicode="&#x16b;" horiz-adv-x="575" 
d="M63 180v320h130v-305q0 -100 74 -100h8q42 0 72.5 37.5t30.5 89.5v278h130v-500h-130v73q-23 -39 -62 -61t-84 -22q-83 0 -126 50.5t-43 139.5zM133 565v105h305v-105h-305z" />
    <glyph glyph-name="Ubreve" unicode="&#x16c;" horiz-adv-x="702" 
d="M76 245v455h135v-435q0 -81 33 -118t102 -37h10q69 0 102 37.5t33 117.5v435h135v-455q0 -124 -69 -189.5t-206 -65.5t-206 65.5t-69 189.5zM181 890h110q3 -26 19 -40.5t41 -14.5t41 14.5t19 40.5h110q-1 -68 -48.5 -109t-121.5 -41t-121.5 41t-48.5 109z" />
    <glyph glyph-name="ubreve" unicode="&#x16d;" horiz-adv-x="575" 
d="M63 180v320h130v-305q0 -100 74 -100h8q42 0 72.5 37.5t30.5 89.5v278h130v-500h-130v73q-23 -39 -62 -61t-84 -22q-83 0 -126 50.5t-43 139.5zM116 700h110q5 -65 60 -65t60 65h110q-1 -72 -48.5 -116t-121.5 -44t-121.5 44t-48.5 116z" />
    <glyph glyph-name="Uring" unicode="&#x16e;" horiz-adv-x="702" 
d="M76 245v455h135v-435q0 -81 33 -118t102 -37h10q69 0 102 37.5t33 117.5v435h135v-455q0 -124 -69 -189.5t-206 -65.5t-206 65.5t-69 189.5zM241 840q0 43 34 76.5t76 33.5q46 0 78 -33t32 -77q0 -47 -31.5 -78.5t-78.5 -31.5q-44 0 -77 32t-33 78zM391 840
q0 15 -11.5 27.5t-27.5 12.5q-15 0 -27.5 -12.5t-12.5 -27.5q0 -16 12.5 -28t27.5 -12q16 0 27.5 12t11.5 28z" />
    <glyph glyph-name="uring" unicode="&#x16f;" horiz-adv-x="575" 
d="M63 180v320h130v-305q0 -100 74 -100h8q42 0 72.5 37.5t30.5 89.5v278h130v-500h-130v73q-23 -39 -62 -61t-84 -22q-83 0 -126 50.5t-43 139.5zM181 645q0 41 32 73t73 32q43 0 74 -31.5t31 -73.5q0 -45 -30 -75t-75 -30q-42 0 -73.5 31t-31.5 74zM330 645q0 18 -12.5 31
t-30.5 13t-31 -13t-13 -31t13 -31t31 -13t30.5 13t12.5 31z" />
    <glyph glyph-name="Uhungarumlaut" unicode="&#x170;" horiz-adv-x="702" 
d="M76 245v455h135v-435q0 -81 33 -118t102 -37h10q69 0 102 37.5t33 117.5v435h135v-455q0 -124 -69 -189.5t-206 -65.5t-206 65.5t-69 189.5zM204 745l40 145h155l-105 -145h-90zM393 745l40 145h155l-105 -145h-90z" />
    <glyph glyph-name="uhungarumlaut" unicode="&#x171;" horiz-adv-x="575" 
d="M63 180v320h130v-305q0 -100 74 -100h8q42 0 72.5 37.5t30.5 89.5v278h130v-500h-130v73q-23 -39 -62 -61t-84 -22q-83 0 -126 50.5t-43 139.5zM160 550l25 150h150l-100 -150h-75zM319 550l25 150h150l-100 -150h-75z" />
    <glyph glyph-name="Uogonek" unicode="&#x172;" horiz-adv-x="702" 
d="M76 245v455h135v-435q0 -81 33 -118t102 -37h10q69 0 102 37.5t33 117.5v435h135v-455q0 -124 -69 -189.5t-206 -65.5t-206 65.5t-69 189.5zM276 -120q0 89 105 135l65 -15q-80 -48 -80 -90q0 -24 14 -37t36 -13h30v-80h-50q-52 0 -86 28t-34 72z" />
    <glyph glyph-name="uogonek" unicode="&#x173;" horiz-adv-x="575" 
d="M63 180v320h130v-305q0 -100 74 -100h8q42 0 72.5 37.5t30.5 89.5v278h130v-500h-130v73q-23 -39 -62 -61t-84 -22q-83 0 -126 50.5t-43 139.5zM338 -120q0 89 105 135l65 -15q-80 -48 -80 -90q0 -24 14 -37t36 -13h30v-80h-50q-52 0 -86 28t-34 72z" />
    <glyph glyph-name="Wcircumflex" unicode="&#x174;" horiz-adv-x="950" 
d="M790 700h140l-173 -700h-175l-106 509l-109 -509h-175l-172 700h139l125 -554l110 554h165l110 -555zM667 745h-110l-80 58l-80 -58h-110l120 145h140z" />
    <glyph glyph-name="wcircumflex" unicode="&#x175;" horiz-adv-x="791" 
d="M647 500h126l-143 -500h-146l-88 350l-83 -350h-146l-153 500h131l100 -371l81 371h139l87 -368zM576 550h-80l-100 72l-100 -72h-80l100 150h160z" />
    <glyph glyph-name="Ycircumflex" unicode="&#x176;" horiz-adv-x="663" 
d="M512 700h148l-261 -420v-280h-135v280l-260 420h153l179 -294zM525 745h-110l-80 58l-80 -58h-110l120 145h140z" />
    <glyph glyph-name="ycircumflex" unicode="&#x177;" horiz-adv-x="572" 
d="M568 500l-213 -456v-116q0 -130 -130 -130h-182v112h133q34 0 44.5 10.5t10.5 44.5v74l-218 461h146l135 -304l130 304h144zM472 550h-80l-100 72l-100 -72h-80l100 150h160z" />
    <glyph glyph-name="Ydieresis" unicode="&#x178;" horiz-adv-x="663" 
d="M512 700h148l-261 -420v-280h-135v280l-260 420h153l179 -294zM175 765v120h125v-120h-125zM370 765v120h125v-120h-125z" />
    <glyph glyph-name="Zacute" unicode="&#x179;" horiz-adv-x="635" 
d="M40 0v115l388 465h-378v120h535v-115l-388 -465h398v-120h-555zM273 745l40 145h155l-105 -145h-90z" />
    <glyph glyph-name="zacute" unicode="&#x17a;" horiz-adv-x="509" 
d="M202 115h272v-115h-435v100l257 285h-252v115h415v-100zM211 550l25 150h150l-100 -150h-75z" />
    <glyph glyph-name="Zdotaccent" unicode="&#x17b;" horiz-adv-x="635" 
d="M40 0v115l388 465h-378v120h535v-115l-388 -465h398v-120h-555zM248 765v135h140v-135h-140z" />
    <glyph glyph-name="zdotaccent" unicode="&#x17c;" horiz-adv-x="509" 
d="M202 115h272v-115h-435v100l257 285h-252v115h415v-100zM182 565v135h140v-135h-140z" />
    <glyph glyph-name="Zcaron" unicode="&#x17d;" horiz-adv-x="635" 
d="M40 0v115l388 465h-378v120h535v-115l-388 -465h398v-120h-555zM398 890h110l-120 -145h-140l-120 145h110l80 -58z" />
    <glyph glyph-name="zcaron" unicode="&#x17e;" horiz-adv-x="509" 
d="M202 115h272v-115h-435v100l257 285h-252v115h415v-100zM352 700h80l-100 -150h-160l-100 150h80l100 -72z" />
    <glyph glyph-name="florin" unicode="&#x192;" horiz-adv-x="451" 
d="M297 515l-7 -47h116v-112h-134l-55 -366q-17 -104 -60.5 -147t-134.5 -43h-73v115h60q41 0 58.5 15.5t23.5 54.5l56 371h-97v112h115l6 42q17 105 58.5 147.5t130.5 42.5h74v-115h-60q-39 0 -55 -15t-22 -55z" />
    <glyph glyph-name="uni01E2" unicode="&#x1e2;" horiz-adv-x="991" 
d="M-5 0l365 700h548v-120h-343l24 -161h289v-120h-274l26 -179h338v-120h-455l-24 165h-264l-83 -165h-147zM286 285h186l-41 287zM462 765v110h335v-110h-335z" />
    <glyph glyph-name="uni01E3" unicode="&#x1e3;" horiz-adv-x="846" 
d="M36 137q0 73 50 115.5t133 49.5l126 11v12q0 34 -22.5 57t-58.5 23h-6q-35 0 -57 -17.5t-25 -42.5h-130q8 73 66 119t149 46q105 0 163 -56q64 56 158 56q108 0 168 -70.5t60 -183.5q0 -5 -2 -47h-338q4 -50 37 -82t76 -32h8q34 0 57.5 17.5t30.5 45.5h129
q-19 -76 -78 -122t-148 -46q-120 0 -189 95q-25 -43 -74.5 -69t-108.5 -26q-76 0 -125 40.5t-49 106.5zM469 309h215q-1 43 -31 69.5t-72 26.5h-8q-92 0 -104 -96zM227 95h5q46 0 79.5 31t33.5 78v14l-108 -11q-31 -2 -52 -18.5t-21 -42.5q0 -23 18 -37t45 -14zM272 565v105
h305v-105h-305z" />
    <glyph glyph-name="Aringacute" unicode="&#x1fa;" horiz-adv-x="713" 
d="M564 0l-63 165h-294l-63 -165h-142l277 700h158l270 -700h-143zM252 285h203l-101 266zM322 928l16 88h125l-62 -88h-79zM269 818q0 38 25.5 63.5t63.5 25.5t63.5 -25.5t25.5 -63.5t-25.5 -63.5t-63.5 -25.5t-63.5 25.5t-25.5 63.5zM391 818q0 14 -10 24t-23 10
q-14 0 -24 -10t-10 -24t10 -24t24 -10t23.5 10t9.5 24z" />
    <glyph glyph-name="aringacute" unicode="&#x1fb;" horiz-adv-x="534" 
d="M476 0h-122q-5 21 -6 61q-50 -71 -148 -71q-69 0 -116.5 41t-47.5 106q0 73 50 115.5t133 49.5l126 11v12q0 35 -22 57.5t-58 22.5h-8q-34 0 -56 -17.5t-25 -42.5h-130q8 73 66 119t149 46q96 0 153 -47.5t57 -132.5v-220q0 -72 5 -110zM345 204v14l-108 -11
q-31 -2 -52 -18.5t-21 -42.5q0 -23 17.5 -37t44.5 -14h8q45 0 78 31.5t33 77.5zM228 766l25 135h150l-96 -135h-79zM159 635q0 41 32.5 73t72.5 32q43 0 74 -31.5t31 -73.5q0 -45 -30 -75t-75 -30q-42 0 -73.5 31t-31.5 74zM309 635q0 18 -12.5 31t-30.5 13t-31 -13t-13 -31
t13 -31t31 -13t30.5 13t12.5 31z" />
    <glyph glyph-name="AEacute" unicode="&#x1fc;" horiz-adv-x="991" 
d="M-5 0l365 700h548v-120h-343l24 -161h289v-120h-274l26 -179h338v-120h-455l-24 165h-264l-83 -165h-147zM286 285h186l-41 287zM585 745l40 145h155l-105 -145h-90z" />
    <glyph glyph-name="aeacute" unicode="&#x1fd;" horiz-adv-x="846" 
d="M36 137q0 73 50 115.5t133 49.5l126 11v12q0 34 -22.5 57t-58.5 23h-6q-35 0 -57 -17.5t-25 -42.5h-130q8 73 66 119t149 46q105 0 163 -56q64 56 158 56q108 0 168 -70.5t60 -183.5q0 -5 -2 -47h-338q4 -50 37 -82t76 -32h8q34 0 57.5 17.5t30.5 45.5h129
q-19 -76 -78 -122t-148 -46q-120 0 -189 95q-25 -43 -74.5 -69t-108.5 -26q-76 0 -125 40.5t-49 106.5zM469 309h215q-1 43 -31 69.5t-72 26.5h-8q-92 0 -104 -96zM227 95h5q46 0 79.5 31t33.5 78v14l-108 -11q-31 -2 -52 -18.5t-21 -42.5q0 -23 18 -37t45 -14zM384 550
l25 150h150l-100 -150h-75z" />
    <glyph glyph-name="Oslashacute" unicode="&#x1fe;" horiz-adv-x="766" 
d="M43 350q0 165 94 262.5t246 97.5t246 -97.5t94 -262.5t-94 -262.5t-246 -97.5t-246 97.5t-94 262.5zM378 110h10q93 0 146.5 63.5t53.5 176.5t-53.5 176.5t-146.5 63.5h-10q-93 0 -146.5 -63.5t-53.5 -176.5t53.5 -176.5t146.5 -63.5zM153 -49l-105 82l565 716l105 -82z
M334 745l40 145h155l-105 -145h-90z" />
    <glyph glyph-name="oslashacute" unicode="&#x1ff;" horiz-adv-x="576" 
d="M38 250q0 113 70 186.5t180 73.5q111 0 180.5 -73t69.5 -187t-69.5 -187t-180.5 -73q-110 0 -180 73.5t-70 186.5zM284 95h8q53 0 84 41.5t31 113.5t-31 113.5t-84 41.5h-8q-53 0 -84 -41.5t-31 -113.5t31 -113.5t84 -41.5zM124 -50l-84 70l406 530l89 -66zM244 550
l25 150h150l-100 -150h-75z" />
    <glyph glyph-name="uni0218" unicode="&#x218;" horiz-adv-x="634" 
d="M29 235h135q5 -56 45.5 -90.5t114.5 -34.5h10q53 0 83.5 24.5t30.5 60.5q0 33 -17.5 50.5t-61.5 26.5l-125 26q-180 37 -180 202q0 85 72.5 147.5t192.5 62.5q124 0 194.5 -63.5t70.5 -166.5h-135q-3 52 -38 81t-92 29h-10q-53 0 -86.5 -25t-33.5 -60q0 -34 20 -52
t65 -27l105 -21q194 -39 194 -200q0 -93 -72.5 -154t-196.5 -61q-137 0 -208.5 65t-76.5 180zM222 -310v75h23q54 0 54 39v1h-52v130h130v-130q0 -50 -35.5 -82.5t-91.5 -32.5h-28z" />
    <glyph glyph-name="uni0219" unicode="&#x219;" horiz-adv-x="497" 
d="M32 165h133q0 -34 23 -54.5t61 -20.5h8q30 0 48 13.5t18 35.5q0 39 -51 50l-65 16q-81 20 -118 56t-37 95q0 69 55 111.5t147 42.5q96 0 150 -46.5t54 -128.5h-130q-8 75 -75 75h-8q-27 0 -45 -13.5t-18 -35.5q0 -20 15 -31t49 -20l67 -17q72 -18 106 -54t34 -95
q0 -67 -54.5 -110.5t-150.5 -43.5q-101 0 -158.5 46.5t-57.5 128.5zM156 -310v75h23q54 0 54 39v1h-52v130h130v-130q0 -50 -35.5 -82.5t-91.5 -32.5h-28z" />
    <glyph glyph-name="uni021A" unicode="&#x21a;" horiz-adv-x="656" 
d="M260 0v580h-242v120h620v-120h-243v-580h-135zM238 -310v75h23q54 0 54 39v1h-52v130h130v-130q0 -50 -35.5 -82.5t-91.5 -32.5h-28z" />
    <glyph glyph-name="uni021B" unicode="&#x21b;" horiz-adv-x="407" 
d="M120 130v265h-103v105h103v162h130v-162h112v-105h-112v-230q0 -34 10.5 -44.5t44.5 -10.5h72v-110h-127q-63 0 -96.5 33t-33.5 97zM126 -310v75h23q54 0 54 39v1h-52v130h130v-130q0 -50 -35.5 -82.5t-91.5 -32.5h-28z" />
    <glyph glyph-name="uni0226" unicode="&#x226;" horiz-adv-x="713" 
d="M564 0l-63 165h-294l-63 -165h-142l277 700h158l270 -700h-143zM252 285h203l-101 266zM288 765v135h140v-135h-140z" />
    <glyph glyph-name="uni0227" unicode="&#x227;" horiz-adv-x="534" 
d="M476 0h-122q-5 21 -6 61q-50 -71 -148 -71q-69 0 -116.5 41t-47.5 106q0 73 50 115.5t133 49.5l126 11v12q0 35 -22 57.5t-58 22.5h-8q-34 0 -56 -17.5t-25 -42.5h-130q8 73 66 119t149 46q96 0 153 -47.5t57 -132.5v-220q0 -72 5 -110zM345 204v14l-108 -11
q-31 -2 -52 -18.5t-21 -42.5q0 -23 17.5 -37t44.5 -14h8q45 0 78 31.5t33 77.5zM196 565v135h140v-135h-140z" />
    <glyph glyph-name="uni0232" unicode="&#x232;" horiz-adv-x="663" 
d="M512 700h148l-261 -420v-280h-135v280l-260 420h153l179 -294zM167 765v110h335v-110h-335z" />
    <glyph glyph-name="uni0233" unicode="&#x233;" horiz-adv-x="572" 
d="M568 500l-213 -456v-116q0 -130 -130 -130h-182v112h133q34 0 44.5 10.5t10.5 44.5v74l-218 461h146l135 -304l130 304h144zM139 565v105h305v-105h-305z" />
    <glyph glyph-name="uni0237" unicode="&#x237;" horiz-adv-x="272" 
d="M-82 -200v110h102q30 0 42.5 12.5t12.5 42.5v535h130v-575q0 -60 -32.5 -92.5t-92.5 -32.5h-162z" />
    <glyph glyph-name="circumflex" unicode="&#x2c6;" horiz-adv-x="420" 
d="M390 550h-80l-100 72l-100 -72h-80l100 150h160z" />
    <glyph glyph-name="caron" unicode="&#x2c7;" horiz-adv-x="420" 
d="M310 700h80l-100 -150h-160l-100 150h80l100 -72z" />
    <glyph glyph-name="breve" unicode="&#x2d8;" horiz-adv-x="400" 
d="M30 700h110q5 -65 60 -65t60 65h110q-1 -72 -48.5 -116t-121.5 -44t-121.5 44t-48.5 116z" />
    <glyph glyph-name="dotaccent" unicode="&#x2d9;" horiz-adv-x="200" 
d="M30 565v135h140v-135h-140z" />
    <glyph glyph-name="ring" unicode="&#x2da;" horiz-adv-x="270" 
d="M30 645q0 41 32 73t73 32q43 0 74 -31.5t31 -73.5q0 -45 -30 -75t-75 -30q-42 0 -73.5 31t-31.5 74zM179 645q0 18 -12.5 31t-30.5 13t-31 -13t-13 -31t13 -31t31 -13t30.5 13t12.5 31z" />
    <glyph glyph-name="ogonek" unicode="&#x2db;" horiz-adv-x="230" 
d="M30 -120q0 89 105 135l65 -15q-80 -48 -80 -90q0 -24 14 -37t36 -13h30v-80h-50q-52 0 -86 28t-34 72z" />
    <glyph glyph-name="tilde" unicode="&#x2dc;" horiz-adv-x="439" 
d="M219 579l-18 10q-28 16 -42 16q-13 0 -23.5 -11.5t-10.5 -28.5h-95v26q0 47 33 80.5t79 33.5q37 0 75 -20l18 -10l12 -7q26 -13 37 -13q13 0 21.5 11.5t8.5 28.5h95v-26q0 -46 -33 -80t-77 -34q-35 0 -80 24z" />
    <glyph glyph-name="hungarumlaut" unicode="&#x2dd;" horiz-adv-x="394" 
d="M10 550l25 150h150l-100 -150h-75zM169 550l25 150h150l-100 -150h-75z" />
    <glyph glyph-name="gravecomb" unicode="&#x300;" horiz-adv-x="0" 
d="M-105 550l-100 150h150l25 -150h-75z" />
    <glyph glyph-name="acutecomb" unicode="&#x301;" horiz-adv-x="0" 
d="M-205 550l25 150h150l-100 -150h-75z" />
    <glyph glyph-name="uni0302" unicode="&#x302;" horiz-adv-x="0" 
d="M-30 550h-80l-100 72l-100 -72h-80l100 150h160z" />
    <glyph glyph-name="tildecomb" unicode="&#x303;" horiz-adv-x="0" 
d="M-220 579l-18 10q-28 16 -42 16q-13 0 -23.5 -11.5t-10.5 -28.5h-95v26q0 47 33 80.5t79 33.5q37 0 75 -20l18 -10l12 -7q26 -13 37 -13q13 0 21.5 11.5t8.5 28.5h95v-26q0 -46 -33 -80t-77 -34q-35 0 -80 24z" />
    <glyph glyph-name="uni0304" unicode="&#x304;" horiz-adv-x="0" 
d="M-335 565v105h305v-105h-305z" />
    <glyph glyph-name="uni0306" unicode="&#x306;" horiz-adv-x="0" 
d="M-370 700h110q5 -65 60 -65t60 65h110q-1 -72 -48.5 -116t-121.5 -44t-121.5 44t-48.5 116z" />
    <glyph glyph-name="uni0307" unicode="&#x307;" horiz-adv-x="0" 
d="M-170 565v135h140v-135h-140z" />
    <glyph glyph-name="uni0308" unicode="&#x308;" horiz-adv-x="0" 
d="M-350 565v130h120v-130h-120zM-150 565v130h120v-130h-120z" />
    <glyph glyph-name="uni030A" unicode="&#x30a;" horiz-adv-x="0" 
d="M-240 645q0 41 32 73t73 32q43 0 74 -31.5t31 -73.5q0 -45 -30 -75t-75 -30q-42 0 -73.5 31t-31.5 74zM-91 645q0 18 -12.5 31t-30.5 13t-31 -13t-13 -31t13 -31t31 -13t30.5 13t12.5 31z" />
    <glyph glyph-name="uni030B" unicode="&#x30b;" horiz-adv-x="0" 
d="M-384 550l25 150h150l-100 -150h-75zM-225 550l25 150h150l-100 -150h-75z" />
    <glyph glyph-name="uni030C" unicode="&#x30c;" horiz-adv-x="0" 
d="M-110 700h80l-100 -150h-160l-100 150h80l100 -72z" />
    <glyph glyph-name="uni0312" unicode="&#x312;" horiz-adv-x="0" 
d="M-35 815v-75h-23q-54 0 -54 -39v-1h52v-130h-130v130q0 50 35.5 82.5t91.5 32.5h28z" />
    <glyph glyph-name="dotbelowcomb" unicode="&#x323;" horiz-adv-x="0" 
d="M-160 -195v130h130v-130h-130z" />
    <glyph glyph-name="uni0326" unicode="&#x326;" horiz-adv-x="0" 
d="M-185 -310v75h23q54 0 54 39v1h-52v130h130v-130q0 -50 -35.5 -82.5t-91.5 -32.5h-28z" />
    <glyph glyph-name="uni0327" unicode="&#x327;" horiz-adv-x="0" 
d="M-230 -245v75h85q40 0 40 30t-35 30h-55v125h70v-60q41 0 68 -25t27 -70q0 -48 -33 -76.5t-87 -28.5h-80z" />
    <glyph glyph-name="uni0328" unicode="&#x328;" horiz-adv-x="0" 
d="M-200 -120q0 89 105 135l65 -15q-80 -48 -80 -90q0 -24 14 -37t36 -13h30v-80h-50q-52 0 -86 28t-34 72z" />
    <glyph glyph-name="uni0335" unicode="&#x335;" horiz-adv-x="0" 
d="M-505 323v115h475v-115h-475z" />
    <glyph glyph-name="uni0336" unicode="&#x336;" horiz-adv-x="0" 
d="M-725 492v115h695v-115h-695z" />
    <glyph glyph-name="uni0337" unicode="&#x337;" horiz-adv-x="0" 
d="M-320 258v120l290 164v-120z" />
    <glyph glyph-name="uni0338" unicode="&#x338;" horiz-adv-x="0" 
d="M-595 -49l-105 82l565 716l105 -82z" />
    <glyph glyph-name="uni0394" unicode="&#x394;" horiz-adv-x="703" 
d="M426 700l255 -610v-90h-659v90l255 610h149zM352 561l-185 -441h370z" />
    <glyph glyph-name="uni03A9" unicode="&#x3a9;" horiz-adv-x="782" 
d="M56 0v113h128q-63 37 -98 103t-35 154q-2 147 95.5 244.5t244.5 95.5q146 2 244.5 -95.5t95.5 -244.5q0 -89 -36 -155t-102 -102h133v-113h-295v110q75 18 120 83.5t45 156.5q0 113 -53.5 176.5t-146.5 63.5h-10q-93 0 -146.5 -63.5t-53.5 -176.5q0 -91 45.5 -155.5
t119.5 -84.5v-110h-295z" />
    <glyph glyph-name="uni03BC" unicode="&#x3bc;" horiz-adv-x="579" 
d="M382 500h130v-500h-130v73q-23 -39 -62 -61t-84 -22q-24 0 -39 4v-194h-130v700h130v-305q0 -100 74 -100h8q42 0 72.5 37.5t30.5 89.5v278z" />
    <glyph glyph-name="pi" unicode="&#x3c0;" horiz-adv-x="702" 
d="M133 0v392h-115v108h640v-108h-115v-244q0 -23 9 -31.5t31 -8.5h75v-108h-140q-105 0 -105 105v287h-150v-392h-130z" />
    <glyph glyph-name="Wgrave" unicode="&#x1e80;" horiz-adv-x="950" 
d="M790 700h140l-173 -700h-175l-106 509l-109 -509h-175l-172 700h139l125 -554l110 554h165l110 -555zM436 745l-105 145h155l40 -145h-90z" />
    <glyph glyph-name="wgrave" unicode="&#x1e81;" horiz-adv-x="791" 
d="M647 500h126l-143 -500h-146l-88 350l-83 -350h-146l-153 500h131l100 -371l81 371h139l87 -368zM361 550l-100 150h150l25 -150h-75z" />
    <glyph glyph-name="Wacute" unicode="&#x1e82;" horiz-adv-x="950" 
d="M790 700h140l-173 -700h-175l-106 509l-109 -509h-175l-172 700h139l125 -554l110 554h165l110 -555zM432 745l40 145h155l-105 -145h-90z" />
    <glyph glyph-name="wacute" unicode="&#x1e83;" horiz-adv-x="791" 
d="M647 500h126l-143 -500h-146l-88 350l-83 -350h-146l-153 500h131l100 -371l81 371h139l87 -368zM355 550l25 150h150l-100 -150h-75z" />
    <glyph glyph-name="Wdieresis" unicode="&#x1e84;" horiz-adv-x="950" 
d="M790 700h140l-173 -700h-175l-106 509l-109 -509h-175l-172 700h139l125 -554l110 554h165l110 -555zM317 765v120h125v-120h-125zM512 765v120h125v-120h-125z" />
    <glyph glyph-name="wdieresis" unicode="&#x1e85;" horiz-adv-x="791" 
d="M647 500h126l-143 -500h-146l-88 350l-83 -350h-146l-153 500h131l100 -371l81 371h139l87 -368zM236 565v130h120v-130h-120zM436 565v130h120v-130h-120z" />
    <glyph glyph-name="uni1E9E" unicode="&#x1e9e;" horiz-adv-x="662" 
d="M82 0v700h275q97 0 156 -49t59 -131q0 -57 -33.5 -99.5t-79.5 -55.5q65 -5 111.5 -52.5t46.5 -117.5q0 -91 -63 -143t-172 -52h-85v120h77q51 0 79.5 24t28.5 66q0 82 -109 82h-76v116h20q59 0 89.5 23t30.5 64q0 40 -27.5 62.5t-77.5 22.5h-115v-580h-135z" />
    <glyph glyph-name="uni1EA0" unicode="&#x1ea0;" horiz-adv-x="713" 
d="M564 0l-63 165h-294l-63 -165h-142l277 700h158l270 -700h-143zM252 285h203l-101 266zM289 -195v130h130v-130h-130z" />
    <glyph glyph-name="uni1EA1" unicode="&#x1ea1;" horiz-adv-x="534" 
d="M476 0h-122q-5 21 -6 61q-50 -71 -148 -71q-69 0 -116.5 41t-47.5 106q0 73 50 115.5t133 49.5l126 11v12q0 35 -22 57.5t-58 22.5h-8q-34 0 -56 -17.5t-25 -42.5h-130q8 73 66 119t149 46q96 0 153 -47.5t57 -132.5v-220q0 -72 5 -110zM345 204v14l-108 -11
q-31 -2 -52 -18.5t-21 -42.5q0 -23 17.5 -37t44.5 -14h8q45 0 78 31.5t33 77.5zM184 -195v130h130v-130h-130z" />
    <glyph glyph-name="uni1EB8" unicode="&#x1eb8;" horiz-adv-x="661" 
d="M217 120h405v-120h-540v700h530v-120h-395v-161h335v-120h-335v-179zM287 -195v130h130v-130h-130z" />
    <glyph glyph-name="uni1EB9" unicode="&#x1eb9;" horiz-adv-x="541" 
d="M39 250q0 114 64.5 187t173.5 73q108 0 168 -70.5t60 -183.5q0 -5 -2 -47h-338q3 -49 37.5 -81.5t75.5 -32.5h8q34 0 57.5 17.5t30.5 45.5h129q-19 -76 -78 -122t-148 -46q-100 0 -169 71t-69 189zM165 309h214q-3 44 -32 70t-71 26h-8q-42 0 -71 -26t-32 -70zM212 -195
v130h130v-130h-130z" />
    <glyph glyph-name="uni1ECA" unicode="&#x1eca;" horiz-adv-x="299" 
d="M82 0v700h135v-700h-135zM85 -195v130h130v-130h-130z" />
    <glyph glyph-name="uni1ECB" unicode="&#x1ecb;" horiz-adv-x="264" 
d="M67 0v500h130v-500h-130zM62 565v135h140v-135h-140zM67 -195v130h130v-130h-130z" />
    <glyph glyph-name="uni1ECC" unicode="&#x1ecc;" horiz-adv-x="766" 
d="M43 350q0 165 94 262.5t246 97.5t246 -97.5t94 -262.5t-94 -262.5t-246 -97.5t-246 97.5t-94 262.5zM378 110h10q93 0 146.5 63.5t53.5 176.5t-53.5 176.5t-146.5 63.5h-10q-93 0 -146.5 -63.5t-53.5 -176.5t53.5 -176.5t146.5 -63.5zM318 -195v130h130v-130h-130z" />
    <glyph glyph-name="uni1ECD" unicode="&#x1ecd;" horiz-adv-x="576" 
d="M38 250q0 113 70 186.5t180 73.5q111 0 180.5 -73t69.5 -187t-69.5 -187t-180.5 -73q-110 0 -180 73.5t-70 186.5zM284 95h8q53 0 84 41.5t31 113.5t-31 113.5t-84 41.5h-8q-53 0 -84 -41.5t-31 -113.5t31 -113.5t84 -41.5zM223 -195v130h130v-130h-130z" />
    <glyph glyph-name="uni1EE4" unicode="&#x1ee4;" horiz-adv-x="702" 
d="M76 245v455h135v-435q0 -81 33 -118t102 -37h10q69 0 102 37.5t33 117.5v435h135v-455q0 -124 -69 -189.5t-206 -65.5t-206 65.5t-69 189.5zM286 -195v130h130v-130h-130z" />
    <glyph glyph-name="uni1EE5" unicode="&#x1ee5;" horiz-adv-x="575" 
d="M63 180v320h130v-305q0 -100 74 -100h8q42 0 72.5 37.5t30.5 89.5v278h130v-500h-130v73q-23 -39 -62 -61t-84 -22q-83 0 -126 50.5t-43 139.5zM210 -195v130h130v-130h-130z" />
    <glyph glyph-name="Ygrave" unicode="&#x1ef2;" horiz-adv-x="663" 
d="M512 700h148l-261 -420v-280h-135v280l-260 420h153l179 -294zM294 745l-105 145h155l40 -145h-90z" />
    <glyph glyph-name="ygrave" unicode="&#x1ef3;" horiz-adv-x="572" 
d="M568 500l-213 -456v-116q0 -130 -130 -130h-182v112h133q34 0 44.5 10.5t10.5 44.5v74l-218 461h146l135 -304l130 304h144zM257 550l-100 150h150l25 -150h-75z" />
    <glyph glyph-name="uni2002" unicode="&#x2002;" horiz-adv-x="500" 
 />
    <glyph glyph-name="uni2003" unicode="&#x2003;" horiz-adv-x="1000" 
 />
    <glyph glyph-name="uni2009" unicode="&#x2009;" horiz-adv-x="125" 
 />
    <glyph glyph-name="uni200A" unicode="&#x200a;" horiz-adv-x="75" 
 />
    <glyph glyph-name="endash" unicode="&#x2013;" horiz-adv-x="594" 
d="M62 250v105h470v-105h-470z" />
    <glyph glyph-name="emdash" unicode="&#x2014;" horiz-adv-x="914" 
d="M62 250v105h790v-105h-790z" />
    <glyph glyph-name="quoteleft" unicode="&#x2018;" horiz-adv-x="283" 
d="M237 700v-75h-36q-62 0 -62 -65v-10h65v-145h-145v160q0 54 40 94.5t97 40.5h41z" />
    <glyph glyph-name="quoteright" unicode="&#x2019;" horiz-adv-x="280" 
d="M51 405v75h36q62 0 62 65v10h-65v145h145v-160q0 -54 -40 -94.5t-97 -40.5h-41z" />
    <glyph glyph-name="quotesinglbase" unicode="&#x201a;" horiz-adv-x="272" 
d="M31 -150v75h36q62 0 62 65v10h-65v145h145v-160q0 -54 -40 -94.5t-97 -40.5h-41z" />
    <glyph glyph-name="quotedblleft" unicode="&#x201c;" horiz-adv-x="488" 
d="M442 700v-75h-36q-62 0 -62 -65v-10h65v-145h-145v160q0 54 40 94.5t97 40.5h41zM237 700v-75h-36q-62 0 -62 -65v-10h65v-145h-145v160q0 54 40 94.5t97 40.5h41z" />
    <glyph glyph-name="quotedblright" unicode="&#x201d;" horiz-adv-x="485" 
d="M53 405v75h36q62 0 62 65v10h-65v145h145v-160q0 -54 -40 -94.5t-97 -40.5h-41zM258 405v75h36q62 0 62 65v10h-65v145h145v-160q0 -54 -40 -94.5t-97 -40.5h-41z" />
    <glyph glyph-name="quotedblbase" unicode="&#x201e;" horiz-adv-x="477" 
d="M31 -150v75h36q62 0 62 65v10h-65v145h145v-160q0 -54 -40 -94.5t-97 -40.5h-41zM236 -150v75h36q62 0 62 65v10h-65v145h145v-160q0 -54 -40 -94.5t-97 -40.5h-41z" />
    <glyph glyph-name="dagger" unicode="&#x2020;" horiz-adv-x="530" 
d="M200 -85v540h-152v110h152v220h130v-220h152v-110h-152v-540h-130z" />
    <glyph glyph-name="daggerdbl" unicode="&#x2021;" horiz-adv-x="530" 
d="M482 455h-152v-210h152v-110h-152v-220h-130v220h-152v110h152v210h-152v110h152v220h130v-220h152v-110z" />
    <glyph glyph-name="bullet" unicode="&#x2022;" horiz-adv-x="548" 
d="M69 350q0 85 60 145t145 60t145 -60t60 -145t-60 -145t-145 -60t-145 60t-60 145z" />
    <glyph glyph-name="ellipsis" unicode="&#x2026;" horiz-adv-x="779" 
d="M62 0v145h145v-145h-145zM317 0v145h145v-145h-145zM572 0v145h145v-145h-145z" />
    <glyph glyph-name="perthousand" unicode="&#x2030;" horiz-adv-x="1178" 
d="M206 300q-85 0 -129.5 57.5t-44.5 144.5q0 86 44.5 144.5t129.5 58.5t129.5 -58.5t44.5 -144.5q0 -87 -44.5 -144.5t-129.5 -57.5zM621 700h117l-420 -700h-117zM204 392h4q64 0 64 110q0 111 -64 111h-4q-64 0 -64 -111q0 -110 64 -110zM1148 197q0 -86 -44.5 -144
t-129.5 -58q-73 0 -120 47q-47 -47 -120 -47q-85 0 -129.5 58t-44.5 144t45 144.5t129 58.5q75 0 120 -48q45 48 120 48q84 0 129 -58.5t45 -144.5zM800 197q0 111 -64 111h-4q-64 0 -64 -111q0 -110 64 -110h4q64 0 64 110zM1040 197q0 111 -64 111h-4q-64 0 -64 -111
q0 -110 64 -110h4q64 0 64 110z" />
    <glyph glyph-name="guilsinglleft" unicode="&#x2039;" horiz-adv-x="362" 
d="M327 500l-145 -215l145 -215h-150l-145 215l145 215h150z" />
    <glyph glyph-name="guilsinglright" unicode="&#x203a;" horiz-adv-x="362" 
d="M185 500l145 -215l-145 -215h-150l145 215l-145 215h150z" />
    <glyph glyph-name="fraction" unicode="&#x2044;" horiz-adv-x="184" 
d="M-174 0l420 700h117l-420 -700h-117z" />
    <glyph glyph-name="uni2070" unicode="&#x2070;" horiz-adv-x="420" 
d="M36 612q0 86 44.5 144.5t129.5 58.5t129.5 -58.5t44.5 -144.5q0 -87 -44.5 -144.5t-129.5 -57.5t-129.5 57.5t-44.5 144.5zM208 502h4q64 0 64 110q0 111 -64 111h-4q-64 0 -64 -111q0 -110 64 -110z" />
    <glyph glyph-name="uni2074" unicode="&#x2074;" horiz-adv-x="406" 
d="M224 415v62h-196v109l174 224h119v-249h53v-84h-53v-62h-97zM119 561h105v137z" />
    <glyph glyph-name="uni2075" unicode="&#x2075;" horiz-adv-x="381" 
d="M27 535h112q4 -16 16.5 -26.5t29.5 -10.5h4q20 0 33.5 14.5t13.5 34.5t-12.5 32.5t-32.5 12.5h-4q-24 0 -38 -17h-108l44 235h252v-88h-174l-14 -67q26 23 72 23q48 0 84.5 -34t36.5 -92q0 -64 -44.5 -103t-115.5 -39q-64 0 -107.5 34.5t-47.5 90.5z" />
    <glyph glyph-name="uni2076" unicode="&#x2076;" horiz-adv-x="395" 
d="M36 593q0 101 51 161.5t135 60.5q61 0 98.5 -33.5t39.5 -85.5h-104q-3 13 -13.5 22t-25.5 9h-6q-29 0 -50 -27t-25 -68q32 40 91 40q55 0 91 -35t36 -89q0 -61 -42.5 -99.5t-109.5 -38.5q-75 0 -120.5 50t-45.5 133zM197 498h4q20 0 33.5 13t13.5 33q0 19 -13 31t-34 12
h-4q-19 0 -33 -13t-14 -31q0 -20 13.5 -32.5t33.5 -12.5z" />
    <glyph glyph-name="uni2077" unicode="&#x2077;" horiz-adv-x="344" 
d="M90 415v13q0 170 114 292h-180v90h299v-78q-120 -123 -120 -299v-18h-113z" />
    <glyph glyph-name="uni2078" unicode="&#x2078;" horiz-adv-x="384" 
d="M44 518q0 32 18.5 56.5t50.5 34.5q-75 29 -75 98q0 47 45 77.5t110 30.5t109.5 -30.5t44.5 -77.5q0 -70 -76 -98q32 -10 50.5 -34.5t18.5 -56.5q0 -47 -41 -77.5t-106 -30.5t-107 30.5t-42 77.5zM190 653h5q19 0 32.5 10t13.5 27t-13.5 27t-32.5 10h-5q-19 0 -32.5 -10
t-13.5 -27t13.5 -27t32.5 -10zM190 498h5q16 0 27.5 10t11.5 25t-11.5 25.5t-27.5 10.5h-5q-16 0 -28 -10.5t-12 -25.5t12 -25t28 -10z" />
    <glyph glyph-name="uni2079" unicode="&#x2079;" horiz-adv-x="396" 
d="M36 529h104q3 -13 13.5 -22t25.5 -9h6q29 0 50 27t25 68q-32 -40 -91 -40q-55 0 -91 35t-36 89q0 59 43 98.5t109 39.5q75 0 120.5 -50t45.5 -133q0 -101 -51 -161.5t-135 -60.5q-61 0 -98.5 33.5t-39.5 85.5zM195 638h4q19 0 33 13t14 31q0 20 -13.5 32.5t-33.5 12.5h-4
q-20 0 -33.5 -13t-13.5 -33q0 -19 13 -31t34 -12z" />
    <glyph glyph-name="Euro" unicode="&#x20ac;" horiz-adv-x="703" 
d="M524 220h133q-12 -103 -82.5 -166.5t-171.5 -63.5q-85 0 -148 45.5t-96 129.5l-114 -26v110l88 20q-3 20 -5 62l-83 -19v110l90 20q20 124 91.5 196t176.5 72q100 0 169.5 -63t84.5 -167h-133q-8 52 -40 83.5t-77 31.5h-8q-92 0 -125 -122l172 38v-110l-186 -41v-10
q0 -15 2 -53l142 32v-110l-119 -26q37 -88 114 -88h8q45 0 77 31.5t40 83.5z" />
    <glyph glyph-name="uni2105" unicode="&#x2105;" horiz-adv-x="729" 
d="M28 592q0 71 42.5 109.5t112.5 38.5q64 0 98 -31t40 -82h-101q-6 33 -40 33h-4q-46 0 -46 -68q0 -67 46 -67h4q34 0 40 30h101q-6 -50 -40 -80t-98 -30q-70 0 -112.5 38t-42.5 109zM89 0l420 700h117l-420 -700h-117zM394 137q0 64 42.5 106t111.5 42q70 0 112 -42
t42 -106q0 -63 -42 -105t-112 -42t-112 42t-42 105zM546 70h4q23 0 36.5 17.5t13.5 49.5t-13.5 50t-36.5 18h-4q-50 0 -50 -68q0 -67 50 -67z" />
    <glyph glyph-name="uni2113" unicode="&#x2113;" horiz-adv-x="461" 
d="M286 115h91v-115h-155q-105 0 -105 105v68l-75 -46v135l75 45v232q0 82 41 126.5t115 44.5q75 0 120.5 -56t45.5 -133q0 -70 -41 -135.5t-113 -109.5l-38 -24v-97q0 -23 8.5 -31.5t30.5 -8.5zM247 555v-170q62 45 62 129q0 81 -38 81q-24 0 -24 -40z" />
    <glyph glyph-name="uni2116" unicode="&#x2116;" horiz-adv-x="1098" 
d="M745 557q0 64 42.5 106t111.5 42q70 0 112 -42t42 -106q0 -63 -42 -105t-112 -42t-112 42t-42 105zM535 187v513h135v-700h-175l-275 515v-515h-135v700h175zM847 557q0 -32 13.5 -49.5t36.5 -17.5h4q23 0 36.5 17.5t13.5 49.5t-13.5 50t-36.5 18h-4q-23 0 -36.5 -18
t-13.5 -50zM760 270v80h288v-80h-288z" />
    <glyph glyph-name="uni2117" unicode="&#x2117;" horiz-adv-x="870" 
d="M45 351q-2 103 51.5 194t144.5 144.5t194 51.5q103 2 194 -51.5t144.5 -144.5t51.5 -194q2 -103 -51.5 -194t-144.5 -144.5t-194 -51.5q-102 -2 -193.5 51.5t-145 145t-51.5 193.5zM733 351q2 122 -88 213.5t-210 89.5q-120 2 -210 -89.5t-88 -213.5q-2 -121 88 -213.5
t210 -89.5q120 -3 210 89.5t88 213.5zM307 163v381h183q61 0 95.5 -36t34.5 -93t-34 -91.5t-96 -34.5h-78v-126h-105zM412 375h67q36 0 36 40q0 19 -10.5 29.5t-27.5 10.5h-65v-80z" />
    <glyph glyph-name="trademark" unicode="&#x2122;" horiz-adv-x="974" 
d="M36 600v100h365v-100h-125v-280h-115v280h-125zM749 700h152v-380h-113v202l-76 -202h-64l-80 208v-208h-113v380h152l72 -193z" />
    <glyph glyph-name="Omega" unicode="&#x2126;" horiz-adv-x="782" 
d="M56 0v113h128q-63 37 -98 103t-35 154q-2 147 95.5 244.5t244.5 95.5q146 2 244.5 -95.5t95.5 -244.5q0 -89 -36 -155t-102 -102h133v-113h-295v110q75 18 120 83.5t45 156.5q0 113 -53.5 176.5t-146.5 63.5h-10q-93 0 -146.5 -63.5t-53.5 -176.5q0 -91 45.5 -155.5
t119.5 -84.5v-110h-295z" />
    <glyph glyph-name="onethird" unicode="&#x2153;" horiz-adv-x="918" 
d="M141 305v256l-109 -90v126l125 103h89v-395h-105zM173 0l420 700h117l-420 -700h-117zM574 112h108q1 -13 13.5 -21.5t28.5 -8.5h5q19 0 31.5 11t12.5 28t-12 26.5t-31 9.5h-37v84h37q40 0 40 36q0 15 -10 25.5t-28 10.5h-5q-15 0 -26 -8.5t-12 -19.5h-108q0 53 42.5 84
t106.5 31q62 0 105 -31t43 -82q0 -63 -55 -87q58 -27 58 -93q0 -52 -46 -82t-110 -30t-107.5 31.5t-43.5 85.5z" />
    <glyph glyph-name="twothirds" unicode="&#x2154;" horiz-adv-x="960" 
d="M45 305v84l149 135q38 36 38 57q0 15 -10.5 25.5t-26.5 10.5h-4q-16 0 -28 -12.5t-13 -30.5h-107q3 58 47 94.5t109 36.5q62 0 101.5 -35.5t39.5 -81.5q0 -31 -13.5 -54t-44.5 -52l-95 -87h154v-90h-296zM226 0l420 700h117l-420 -700h-117zM617 112h108
q1 -13 13.5 -21.5t28.5 -8.5h5q19 0 31.5 11t12.5 28t-12 26.5t-31 9.5h-37v84h37q40 0 40 36q0 15 -10.5 25.5t-27.5 10.5h-5q-15 0 -26 -8.5t-12 -19.5h-108q0 53 42.5 84t106.5 31q61 0 104.5 -31t43.5 -82q0 -63 -55 -87q58 -27 58 -93q0 -52 -46 -82t-110 -30
t-107.5 31.5t-43.5 85.5z" />
    <glyph glyph-name="uni2155" unicode="&#x2155;" horiz-adv-x="925" 
d="M141 305v256l-109 -90v126l125 103h89v-395h-105zM180 0l420 700h117l-420 -700h-117zM566 120h112q4 -16 17 -26.5t29 -10.5h4q20 0 33.5 14.5t13.5 34.5t-12.5 32.5t-32.5 12.5h-4q-26 0 -38 -17h-108l44 235h252v-88h-174l-14 -67q28 23 72 23q48 0 84.5 -34t36.5 -92
q0 -64 -44.5 -103t-115.5 -39q-64 0 -107.5 34.5t-47.5 90.5z" />
    <glyph glyph-name="uni2156" unicode="&#x2156;" horiz-adv-x="975" 
d="M45 305v84l149 135q38 36 38 57q0 15 -10.5 25.5t-26.5 10.5h-4q-16 0 -28 -12.5t-13 -30.5h-107q3 58 47 94.5t109 36.5q62 0 101.5 -35.5t39.5 -81.5q0 -31 -13.5 -54t-44.5 -52l-95 -87h154v-90h-296zM231 0l420 700h117l-420 -700h-117zM617 120h112
q4 -16 16.5 -26.5t29.5 -10.5h4q20 0 33.5 14.5t13.5 34.5t-12.5 32.5t-32.5 12.5h-4q-24 0 -38 -17h-108l44 235h252v-88h-174l-14 -67q28 23 72 23q48 0 84.5 -34t36.5 -92q0 -64 -44 -103t-116 -39q-64 0 -107.5 34.5t-47.5 90.5z" />
    <glyph glyph-name="uni2157" unicode="&#x2157;" horiz-adv-x="977" 
d="M33 417h108q1 -13 13.5 -21.5t28.5 -8.5h5q19 0 31.5 11t12.5 28t-12 26.5t-31 9.5h-37v84h37q40 0 40 36q0 16 -10.5 26t-27.5 10h-5q-15 0 -26 -8t-12 -20h-108q0 53 42.5 84t106.5 31q62 0 105 -31t43 -82q0 -63 -55 -87q58 -27 58 -93q0 -52 -45.5 -82t-110.5 -30
q-64 0 -107.5 31.5t-43.5 85.5zM233 0l420 700h117l-420 -700h-117zM619 120h112q4 -16 16.5 -26.5t29.5 -10.5h4q20 0 33.5 14.5t13.5 34.5t-12.5 32.5t-32.5 12.5h-4q-24 0 -38 -17h-108l44 235h252v-88h-174l-14 -67q26 23 72 23q48 0 84.5 -34t36.5 -92q0 -64 -44 -103
t-116 -39q-64 0 -107.5 34.5t-47.5 90.5z" />
    <glyph glyph-name="uni2158" unicode="&#x2158;" horiz-adv-x="1001" 
d="M227 305v62h-196v109l174 224h119v-249h53v-84h-53v-62h-97zM256 0l420 700h117l-420 -700h-117zM122 451h105v137zM642 120h112q4 -16 16.5 -26.5t29.5 -10.5h4q20 0 33.5 14.5t13.5 34.5t-12.5 32.5t-32.5 12.5h-4q-24 0 -38 -17h-108l44 235h252v-88h-174l-14 -67
q26 23 72 23q48 0 84.5 -34t36.5 -92q0 -64 -44 -103t-116 -39q-64 0 -107.5 34.5t-47.5 90.5z" />
    <glyph glyph-name="uni2159" unicode="&#x2159;" horiz-adv-x="917" 
d="M141 305v256l-109 -90v126l125 103h89v-395h-105zM175 0l420 700h117l-420 -700h-117zM558 178q0 102 51 162t135 60q61 0 98.5 -33.5t39.5 -85.5h-104q-7 31 -39 31h-6q-29 0 -50 -27t-25 -68q32 40 91 40q55 0 91 -35t36 -89q0 -60 -43 -99t-109 -39q-75 0 -120.5 50
t-45.5 133zM719 83h4q20 0 33.5 13t13.5 33q0 19 -13 31t-34 12h-4q-19 0 -33 -13t-14 -31q0 -20 13.5 -32.5t33.5 -12.5z" />
    <glyph glyph-name="uni215A" unicode="&#x215a;" horiz-adv-x="962" 
d="M30 425h112q4 -16 16.5 -26.5t29.5 -10.5h4q20 0 33.5 14.5t13.5 34.5t-12.5 32.5t-32.5 12.5h-4q-24 0 -38 -17h-108l44 235h252v-88h-174l-14 -67q26 23 72 23q48 0 84.5 -34t36.5 -92q0 -64 -44 -103t-116 -39q-64 0 -107.5 34.5t-47.5 90.5zM219 0l420 700h117
l-420 -700h-117zM602 178q0 102 51 162t135 60q61 0 98.5 -33.5t39.5 -85.5h-104q-7 31 -39 31h-6q-29 0 -50 -27t-25 -68q32 40 91 40q55 0 91 -35t36 -89q0 -59 -43 -98.5t-109 -39.5q-75 0 -120.5 50t-45.5 133zM763 83h4q20 0 33.5 13t13.5 33q0 19 -13 31t-34 12h-4
q-19 0 -33 -13t-14 -31q0 -20 13.5 -32.5t33.5 -12.5z" />
    <glyph glyph-name="oneeighth" unicode="&#x215b;" horiz-adv-x="927" 
d="M141 305v256l-109 -90v126l125 103h89v-395h-105zM175 0l420 700h117l-420 -700h-117zM589 103q0 32 18.5 56.5t50.5 34.5q-75 28 -75 98q0 47 45 77.5t110 30.5t109.5 -30.5t44.5 -77.5q0 -71 -76 -98q32 -10 50.5 -34.5t18.5 -56.5q0 -47 -41 -77.5t-106 -30.5
t-107 30.5t-42 77.5zM735 238h5q19 0 32.5 10t13.5 27t-13.5 27t-32.5 10h-5q-19 0 -32.5 -10t-13.5 -27t13.5 -27t32.5 -10zM735 83h5q16 0 27.5 10t11.5 25t-11.5 25.5t-27.5 10.5h-5q-16 0 -28 -10.5t-12 -25.5t12 -25t28 -10z" />
    <glyph glyph-name="threeeighths" unicode="&#x215c;" horiz-adv-x="978" 
d="M33 417h108q1 -13 13.5 -21.5t28.5 -8.5h5q19 0 31.5 11t12.5 28t-12 26.5t-31 9.5h-37v84h37q40 0 40 36q0 16 -10.5 26t-27.5 10h-5q-15 0 -26 -8t-12 -20h-108q0 53 42.5 84t106.5 31q62 0 105 -31t43 -82q0 -63 -55 -87q58 -27 58 -93q0 -52 -45.5 -82t-110.5 -30
q-64 0 -107.5 31.5t-43.5 85.5zM227 0l420 700h117l-420 -700h-117zM641 103q0 32 18.5 56.5t50.5 34.5q-75 27 -75 98q0 46 45.5 77t109.5 31q65 0 109.5 -30.5t44.5 -77.5q0 -71 -76 -98q32 -10 50.5 -34.5t18.5 -56.5q0 -47 -41 -77.5t-106 -30.5t-107 30.5t-42 77.5z
M787 238h5q19 0 32.5 10t13.5 27t-13.5 27t-32.5 10h-5q-19 0 -32.5 -10t-13.5 -27t13.5 -27t32.5 -10zM787 83h5q16 0 27.5 10t11.5 25t-11.5 25.5t-27.5 10.5h-5q-16 0 -28 -10.5t-12 -25.5t12 -25t28 -10z" />
    <glyph glyph-name="fiveeighths" unicode="&#x215d;" horiz-adv-x="980" 
d="M31 425h112q4 -16 16.5 -26.5t29.5 -10.5h4q20 0 33.5 14.5t13.5 34.5t-12.5 32.5t-32.5 12.5h-4q-24 0 -38 -17h-108l44 235h252v-88h-174l-14 -67q26 23 72 23q48 0 84.5 -34t36.5 -92q0 -64 -44 -103t-116 -39q-64 0 -107.5 34.5t-47.5 90.5zM226 0l420 700h117
l-420 -700h-117zM640 103q0 32 18.5 56.5t50.5 34.5q-75 27 -75 98q0 46 45.5 77t109.5 31q65 0 109.5 -30.5t44.5 -77.5q0 -71 -76 -98q32 -10 50.5 -34.5t18.5 -56.5q0 -47 -41 -77.5t-106 -30.5t-107 30.5t-42 77.5zM786 238h5q19 0 32.5 10t13.5 27t-13.5 27t-32.5 10
h-5q-19 0 -32.5 -10t-13.5 -27t13.5 -27t32.5 -10zM786 83h5q16 0 27.5 10t11.5 25t-11.5 25.5t-27.5 10.5h-5q-16 0 -28 -10.5t-12 -25.5t12 -25t28 -10z" />
    <glyph glyph-name="seveneighths" unicode="&#x215e;" horiz-adv-x="900" 
d="M96 305v13q0 167 114 292h-180v90h299v-78q-120 -123 -120 -299v-18h-113zM146 0l420 700h117l-420 -700h-117zM560 103q0 32 18.5 56.5t50.5 34.5q-75 27 -75 98q0 46 45.5 77t109.5 31q65 0 109.5 -30.5t44.5 -77.5q0 -71 -76 -98q32 -10 50.5 -34.5t18.5 -56.5
q0 -47 -41 -77.5t-106 -30.5t-107 30.5t-42 77.5zM706 238h5q19 0 32.5 10t13.5 27t-13.5 27t-32.5 10h-5q-19 0 -32.5 -10t-13.5 -27t13.5 -27t32.5 -10zM706 83h5q16 0 27.5 10t11.5 25t-11.5 25.5t-27.5 10.5h-5q-16 0 -28 -10.5t-12 -25.5t12 -25t28 -10z" />
    <glyph glyph-name="uni215F" unicode="&#x215f;" horiz-adv-x="697" 
d="M132 305v256l-109 -90v126l125 103h89v-395h-105zM166 0l420 700h117l-420 -700h-117z" />
    <glyph glyph-name="uni2160" unicode="&#x2160;" horiz-adv-x="500" 
d="M48 0v105h137v490h-137v105h404v-105h-137v-490h137v-105h-404z" />
    <glyph glyph-name="uni2161" unicode="&#x2161;" horiz-adv-x="785" 
d="M48 0v105h137v490h-137v105h689v-105h-137v-490h137v-105h-689zM315 105h155v490h-155v-490z" />
    <glyph glyph-name="uni2162" unicode="&#x2162;" horiz-adv-x="1070" 
d="M48 0v105h137v490h-137v105h974v-105h-137v-490h137v-105h-974zM315 105h155v490h-155v-490zM600 105h155v490h-155v-490z" />
    <glyph glyph-name="uni2163" unicode="&#x2163;" horiz-adv-x="1083" 
d="M52 0v105h137v490h-137v105h577v-105h-95l143 -485l154 485h-98v105h320v-105h-95l-159 -490h124v-105h-871zM319 105h233l-148 490h-85v-490z" />
    <glyph glyph-name="uni2164" unicode="&#x2164;" horiz-adv-x="805" 
d="M775 595h-96l-158 -490h124v-105h-495v105h124l-149 490h-95v105h321v-105h-95l143 -484l154 484h-98v105h320v-105z" />
    <glyph glyph-name="uni2165" unicode="&#x2165;" horiz-adv-x="1082" 
d="M150 0v105h124l-148 490h-96v105h321v-105h-95l143 -485l154 485h-98v105h575v-105h-137v-490h137v-105h-880zM521 105h242v490h-83z" />
    <glyph glyph-name="uni2166" unicode="&#x2166;" horiz-adv-x="1367" 
d="M150 0v105h124l-148 490h-96v105h321v-105h-95l143 -485l154 485h-98v105h860v-105h-137v-490h137v-105h-1165zM521 105h242v490h-83zM893 105h155v490h-155v-490z" />
    <glyph glyph-name="uni2167" unicode="&#x2167;" horiz-adv-x="1652" 
d="M150 0v105h124l-148 490h-96v105h321v-105h-95l143 -485l154 485h-98v105h1145v-105h-137v-490h137v-105h-1450zM521 105h242v490h-83zM893 105h155v490h-155v-490zM1178 105h155v490h-155v-490z" />
    <glyph glyph-name="uni2168" unicode="&#x2168;" horiz-adv-x="1032" 
d="M896 105h92v-105h-940v105h137v490h-137v105h930v-105h-90l-183 -240zM315 105h60l189 247l-186 243h-63v-490zM750 595h-229l115 -150zM513 105h240l-120 157z" />
    <glyph glyph-name="uni2169" unicode="&#x2169;" horiz-adv-x="798" 
d="M44 0v105h97l189 247l-186 243h-90v105h690v-105h-90l-183 -240l191 -250h92v-105h-710zM402 445l114 150h-229zM279 105h240l-120 157z" />
    <glyph glyph-name="uni216C" unicode="&#x216c;" horiz-adv-x="698" 
d="M48 0v105h137v490h-137v105h404v-105h-137v-490h215v165h130v-270h-612z" />
    <glyph glyph-name="uni216D" unicode="&#x216d;" horiz-adv-x="753" 
d="M49 350q-2 160 92.5 261t233.5 99q119 0 189 -72v62h125v-230h-119q-16 62 -67 98.5t-106 36.5h-10q-95 0 -151.5 -68t-56.5 -183q0 -123 54.5 -191t151.5 -68h10q56 0 101.5 35.5t68.5 99.5h119v-230h-125v68q-72 -78 -199 -78q-138 0 -224.5 98t-86.5 262z" />
    <glyph glyph-name="uni216E" unicode="&#x216e;" horiz-adv-x="802" 
d="M48 0v105h137v490h-137v105h364q151 2 247 -94t94 -253q0 -163 -94 -258t-247 -95h-364zM315 105h87q221 0 221 249q0 241 -221 241h-87v-490z" />
    <glyph glyph-name="uni216F" unicode="&#x216f;" horiz-adv-x="1111" 
d="M48 0v105h137v490h-137v105h347l165 -529l163 529h340v-105h-137v-490h137v-105h-332v105h67v444l-177 -549h-132l-176 558v-453h67v-105h-332z" />
    <glyph glyph-name="arrowleft" unicode="&#x2190;" horiz-adv-x="805" 
d="M767 284h-501l160 -156l-87 -88l-311 311l311 309l87 -88l-160 -156h501v-132z" />
    <glyph glyph-name="arrowup" unicode="&#x2191;" horiz-adv-x="686" 
d="M277 0v501l-156 -160l-88 87l311 311l309 -311l-88 -87l-156 160v-501h-132z" />
    <glyph glyph-name="arrowright" unicode="&#x2192;" horiz-adv-x="805" 
d="M36 416h501l-160 156l87 88l311 -311l-311 -309l-87 88l160 156h-501v132z" />
    <glyph glyph-name="arrowdown" unicode="&#x2193;" horiz-adv-x="686" 
d="M409 700v-501l156 160l88 -87l-311 -311l-309 311l88 87l156 -160v501h132z" />
    <glyph glyph-name="uni2196" unicode="&#x2196;" horiz-adv-x="664" 
d="M540 129l-355 354l3 -223h-124l1 439l437 -1v-124l-223 3l354 -354z" />
    <glyph glyph-name="uni2197" unicode="&#x2197;" horiz-adv-x="666" 
d="M30 224l354 354l-223 -3v124l439 -1l-1 -437h-124l3 223l-354 -354z" />
    <glyph glyph-name="uni2198" unicode="&#x2198;" horiz-adv-x="664" 
d="M124 569l354 -354l-3 223h124l-1 -439l-437 1v124l223 -3l-354 355z" />
    <glyph glyph-name="uni2199" unicode="&#x2199;" horiz-adv-x="666" 
d="M635 475l-354 -354l223 3v-124h-439l1 438h124l-3 -224l355 355z" />
    <glyph glyph-name="uni21A4" unicode="&#x21a4;" horiz-adv-x="855" 
d="M638 601h132v-502h-132v185h-369l160 -156l-87 -88l-311 309l311 311l87 -88l-160 -156h369v185z" />
    <glyph glyph-name="uni21A5" unicode="&#x21a5;" horiz-adv-x="706" 
d="M604 132v-132h-502v132h185v369l-156 -160l-88 87l309 311l311 -311l-88 -87l-156 160v-369h185z" />
    <glyph glyph-name="uni21A6" unicode="&#x21a6;" horiz-adv-x="855" 
d="M217 99h-132v502h132v-185h369l-160 156l87 88l311 -309l-311 -311l-87 88l160 156h-369v-185z" />
    <glyph glyph-name="uni21A7" unicode="&#x21a7;" horiz-adv-x="706" 
d="M102 568v132h502v-132h-185v-369l156 160l88 -87l-309 -311l-311 311l88 87l156 -160v369h-185z" />
    <glyph glyph-name="uni21B0" unicode="&#x21b0;" horiz-adv-x="830" 
d="M250 416h501v-416h-132v284h-369l160 -156l-87 -88l-311 311l311 309l87 -88z" />
    <glyph glyph-name="uni21B1" unicode="&#x21b1;" horiz-adv-x="830" 
d="M507 660l311 -309l-311 -311l-87 88l160 156h-369v-284h-132v416h501l-160 156z" />
    <glyph glyph-name="uni21B2" unicode="&#x21b2;" horiz-adv-x="830" 
d="M323 40l-311 309l311 311l87 -88l-160 -156h369v284h132v-416h-501l160 -156z" />
    <glyph glyph-name="uni21B3" unicode="&#x21b3;" horiz-adv-x="830" 
d="M580 284h-501v416h132v-284h369l-160 156l87 88l311 -311l-311 -309l-87 88z" />
    <glyph glyph-name="partialdiff" unicode="&#x2202;" horiz-adv-x="582" 
d="M533 302q0 -148 -67.5 -230t-180.5 -82q-112 0 -179.5 69t-67.5 182q0 104 67 174t158 70q83 0 128 -50q-13 81 -61.5 120.5t-113.5 39.5q-60 0 -113 -17v115q45 17 121 17q150 0 229.5 -112.5t79.5 -295.5zM402 240q0 59 -32.5 95t-81.5 36h-10q-45 0 -76 -35t-31 -95
q0 -61 32.5 -96.5t79.5 -35.5h5q49 0 81.5 33.5t32.5 97.5z" />
    <glyph glyph-name="Delta" unicode="&#x2206;" horiz-adv-x="703" 
d="M426 700l255 -610v-90h-659v90l255 610h149zM352 561l-185 -441h370z" />
    <glyph glyph-name="product" unicode="&#x220f;" horiz-adv-x="728" 
d="M128 0v585h-93v115h656v-115h-91v-585h-132v585h-208v-585h-132z" />
    <glyph glyph-name="summation" unicode="&#x2211;" horiz-adv-x="564" 
d="M513 700v-113h-306l180 -237l-184 -237h310v-113h-465v100l188 250l-188 255v95h465z" />
    <glyph glyph-name="minus" unicode="&#x2212;" horiz-adv-x="628" 
d="M67 200v115h494v-115h-494z" />
    <glyph glyph-name="uni2215" unicode="&#x2215;" horiz-adv-x="462" 
d="M28 0l270 700h135l-265 -700h-140z" />
    <glyph glyph-name="uni2219" unicode="&#x2219;" horiz-adv-x="548" 
d="M69 350q0 85 60 145t145 60t145 -60t60 -145t-60 -145t-145 -60t-145 60t-60 145z" />
    <glyph glyph-name="radical" unicode="&#x221a;" horiz-adv-x="688" 
d="M672 700v-115h-202l-118 -585h-171l-160 500h132l108 -365l104 565h307z" />
    <glyph glyph-name="infinity" unicode="&#x221e;" horiz-adv-x="871" 
d="M48 360q0 82 55 136t138 54q66 0 109.5 -23.5t86.5 -77.5q40 53 84.5 77t108.5 24q83 0 138 -54t55 -136t-55 -136t-138 -54q-67 0 -110 22.5t-83 75.5q-43 -53 -86 -75.5t-110 -22.5q-83 0 -138 54t-55 136zM245 275h5q57 0 111 84q-54 86 -111 86h-5q-30 0 -51 -23.5
t-21 -61.5q0 -39 21 -62t51 -23zM616 275h5q32 0 54.5 23t22.5 62q0 38 -23 61.5t-54 23.5h-5q-53 0 -106 -83q30 -48 53.5 -67.5t52.5 -19.5z" />
    <glyph glyph-name="integral" unicode="&#x222b;" horiz-adv-x="436" 
d="M18 -100v115h53q45 0 62.5 17.5t17.5 62.5v425q0 95 47.5 137.5t147.5 42.5h72v-115h-54q-46 0 -63 -17.5t-17 -62.5v-425q0 -95 -47.5 -137.5t-147.5 -42.5h-71z" />
    <glyph glyph-name="approxequal" unicode="&#x2248;" horiz-adv-x="628" 
d="M308 307q-55 19 -70 19q-40 0 -40 -38h-130v40q0 51 40 87t97 36q49 0 125 -30q48 -18 62 -18q40 0 40 38h130v-40q0 -52 -39.5 -87.5t-95.5 -35.5q-44 0 -119 29zM308 89q-55 19 -70 19q-40 0 -40 -38h-130v40q0 52 40 87.5t97 35.5q47 0 125 -30q48 -18 62 -18
q40 0 40 38h130v-40q0 -52 -39 -87.5t-96 -35.5q-41 0 -119 29z" />
    <glyph glyph-name="notequal" unicode="&#x2260;" horiz-adv-x="628" 
d="M561 300h-177l-27 -85h204v-115h-239l-26 -85h-123l26 85h-132v115h168l26 85h-194v115h230l26 85h123l-27 -85h142v-115z" />
    <glyph glyph-name="lessequal" unicode="&#x2264;" horiz-adv-x="619" 
d="M554 525v-125l-327 -71l327 -71v-127l-494 117v160zM60 0v113h494v-113h-494z" />
    <glyph glyph-name="greaterequal" unicode="&#x2265;" horiz-adv-x="619" 
d="M65 525l494 -117v-160l-494 -117v125l327 71l-327 71v127zM65 0v113h494v-113h-494z" />
    <glyph glyph-name="angleleft" unicode="&#x2329;" horiz-adv-x="403" 
d="M258 -85l-228 435l228 435h135l-225 -433l225 -437h-135z" />
    <glyph glyph-name="angleright" unicode="&#x232a;" horiz-adv-x="403" 
d="M145 785l228 -435l-228 -435h-135l225 433l-225 437h135z" />
    <glyph glyph-name="uni2460" unicode="&#x2460;" horiz-adv-x="880" 
d="M50 351q-2 103 51.5 194t144.5 144.5t194 51.5q103 2 194 -51.5t144.5 -144.5t51.5 -194q2 -102 -51.5 -193.5t-145 -145t-193.5 -51.5q-102 -2 -193.5 51.5t-145 145t-51.5 193.5zM738 351q2 122 -88 213.5t-210 89.5q-120 2 -210 -89.5t-88 -213.5q-2 -121 88 -213.5
t210 -89.5q120 -3 210 89.5t88 213.5zM402 156v256l-109 -90v126l125 103h89v-395h-105z" />
    <glyph glyph-name="uni2461" unicode="&#x2461;" horiz-adv-x="880" 
d="M50 351q-2 103 51.5 194t144.5 144.5t194 51.5q103 2 194 -51.5t144.5 -144.5t51.5 -194q2 -102 -51.5 -193.5t-145 -145t-193.5 -51.5q-102 -2 -193.5 51.5t-145 145t-51.5 193.5zM738 351q2 122 -88 213.5t-210 89.5q-120 2 -210 -89.5t-88 -213.5q-2 -121 88 -213.5
t210 -89.5q120 -3 210 89.5t88 213.5zM289 156v84l149 135q38 35 38 57q0 15 -10.5 25.5t-26.5 10.5h-4q-17 0 -28.5 -12.5t-12.5 -30.5h-107q4 59 47.5 95t108.5 36q62 0 101.5 -35.5t39.5 -81.5q0 -31 -13.5 -54t-44.5 -52l-95 -87h154v-90h-296z" />
    <glyph glyph-name="uni2462" unicode="&#x2462;" horiz-adv-x="880" 
d="M50 351q-2 103 51.5 194t144.5 144.5t194 51.5q103 2 194 -51.5t144.5 -144.5t51.5 -194q2 -102 -51.5 -193.5t-145 -145t-193.5 -51.5q-102 -2 -193.5 51.5t-145 145t-51.5 193.5zM738 351q2 122 -88 213.5t-210 89.5q-120 2 -210 -89.5t-88 -213.5q-2 -121 88 -213.5
t210 -89.5q120 -3 210 89.5t88 213.5zM282 268h108q1 -13 13.5 -21.5t28.5 -8.5h5q19 0 31.5 11t12.5 28q0 16 -12 26t-31 10h-37v84h37q18 0 29 10t11 26t-10 26t-28 10h-5q-15 0 -26 -8t-12 -20h-108q0 53 42.5 84t106.5 31q62 0 105 -31t43 -82q0 -63 -55 -87
q58 -27 58 -93q0 -52 -45.5 -82t-110.5 -30q-64 0 -107.5 31.5t-43.5 85.5z" />
    <glyph glyph-name="uni2463" unicode="&#x2463;" horiz-adv-x="880" 
d="M50 351q-2 103 51.5 194t144.5 144.5t194 51.5q103 2 194 -51.5t144.5 -144.5t51.5 -194q2 -102 -51.5 -193.5t-145 -145t-193.5 -51.5q-102 -2 -193.5 51.5t-145 145t-51.5 193.5zM738 351q2 122 -88 213.5t-210 89.5q-120 2 -210 -89.5t-88 -213.5q-2 -121 88 -213.5
t210 -89.5q120 -3 210 89.5t88 213.5zM439 156v62h-196v109l174 224h119v-249h53v-84h-53v-62h-97zM334 302h105v137z" />
    <glyph glyph-name="uni2464" unicode="&#x2464;" horiz-adv-x="880" 
d="M50 351q-2 103 51.5 194t144.5 144.5t194 51.5q103 2 194 -51.5t144.5 -144.5t51.5 -194q2 -102 -51.5 -193.5t-145 -145t-193.5 -51.5q-102 -2 -193.5 51.5t-145 145t-51.5 193.5zM738 351q2 122 -88 213.5t-210 89.5q-120 2 -210 -89.5t-88 -213.5q-2 -121 88 -213.5
t210 -89.5q120 -3 210 89.5t88 213.5zM271 276h112q4 -16 16.5 -26.5t29.5 -10.5h4q20 0 33.5 14.5t13.5 34.5t-12.5 32.5t-32.5 12.5h-4q-26 0 -38 -17h-108l44 235h252v-88h-174l-14 -67q26 23 72 23q48 0 84.5 -34t36.5 -92q0 -64 -44.5 -103t-115.5 -39
q-64 0 -107.5 34.5t-47.5 90.5z" />
    <glyph glyph-name="uni2465" unicode="&#x2465;" horiz-adv-x="880" 
d="M50 351q-2 103 51.5 194t144.5 144.5t194 51.5q103 2 194 -51.5t144.5 -144.5t51.5 -194q2 -102 -51.5 -193.5t-145 -145t-193.5 -51.5q-102 -2 -193.5 51.5t-145 145t-51.5 193.5zM738 351q2 122 -88 213.5t-210 89.5q-120 2 -210 -89.5t-88 -213.5q-2 -121 88 -213.5
t210 -89.5q120 -3 210 89.5t88 213.5zM265 334q0 101 51 161.5t135 60.5q61 0 98.5 -33.5t39.5 -85.5h-104q-7 31 -39 31h-6q-29 0 -50 -27t-25 -68q32 40 91 40q55 0 91 -35t36 -89q0 -60 -43 -99t-109 -39q-75 0 -120.5 50t-45.5 133zM426 239h4q20 0 33.5 13t13.5 33
q0 19 -13 31t-34 12h-4q-19 0 -33 -13t-14 -31q0 -19 13.5 -32t33.5 -13z" />
    <glyph glyph-name="uni2466" unicode="&#x2466;" horiz-adv-x="880" 
d="M50 351q-2 103 51.5 194t144.5 144.5t194 51.5q103 2 194 -51.5t144.5 -144.5t51.5 -194q2 -102 -51.5 -193.5t-145 -145t-193.5 -51.5q-102 -2 -193.5 51.5t-145 145t-51.5 193.5zM738 351q2 122 -88 213.5t-210 89.5q-120 2 -210 -89.5t-88 -213.5q-2 -121 88 -213.5
t210 -89.5q120 -3 210 89.5t88 213.5zM354 156v13q0 167 114 292h-180v90h299v-78q-120 -117 -120 -299v-18h-113z" />
    <glyph glyph-name="uni2467" unicode="&#x2467;" horiz-adv-x="880" 
d="M50 351q-2 103 51.5 194t144.5 144.5t194 51.5q103 2 194 -51.5t144.5 -144.5t51.5 -194q2 -102 -51.5 -193.5t-145 -145t-193.5 -51.5q-102 -2 -193.5 51.5t-145 145t-51.5 193.5zM738 351q2 122 -88 213.5t-210 89.5q-120 2 -210 -89.5t-88 -213.5q-2 -121 88 -213.5
t210 -89.5q120 -3 210 89.5t88 213.5zM291 259q0 32 18.5 56.5t50.5 34.5q-75 28 -75 98q0 47 45 77.5t110 30.5t109.5 -30.5t44.5 -77.5q0 -70 -76 -98q32 -10 50.5 -34.5t18.5 -56.5q0 -47 -41 -77.5t-106 -30.5t-107 30.5t-42 77.5zM437 394h5q19 0 32.5 10t13.5 27
t-13.5 27t-32.5 10h-5q-19 0 -32.5 -10t-13.5 -27t13.5 -27t32.5 -10zM437 239h5q16 0 27.5 10t11.5 25t-11.5 25.5t-27.5 10.5h-5q-16 0 -28 -10.5t-12 -25.5t12 -25t28 -10z" />
    <glyph glyph-name="uni2468" unicode="&#x2468;" horiz-adv-x="880" 
d="M50 351q-2 103 51.5 194t144.5 144.5t194 51.5q103 2 194 -51.5t144.5 -144.5t51.5 -194q2 -102 -51.5 -193.5t-145 -145t-193.5 -51.5q-102 -2 -193.5 51.5t-145 145t-51.5 193.5zM738 351q2 122 -88 213.5t-210 89.5q-120 2 -210 -89.5t-88 -213.5q-2 -121 88 -213.5
t210 -89.5q120 -3 210 89.5t88 213.5zM286 270h104q7 -31 39 -31h6q29 0 50 27t25 68q-32 -40 -91 -40q-55 0 -91 35t-36 89q0 61 42.5 99.5t109.5 38.5q75 0 120.5 -50t45.5 -133q0 -101 -51 -161.5t-135 -60.5q-61 0 -98.5 33.5t-39.5 85.5zM445 379h4q19 0 33 13t14 31
q0 19 -13.5 32t-33.5 13h-4q-20 0 -33.5 -13.5t-13.5 -32.5t13 -31t34 -12z" />
    <glyph glyph-name="uni24EA" unicode="&#x24ea;" horiz-adv-x="880" 
d="M50 351q-2 103 51.5 194t144.5 144.5t194 51.5q103 2 194 -51.5t144.5 -144.5t51.5 -194q2 -102 -51.5 -193.5t-145 -145t-193.5 -51.5q-102 -2 -193.5 51.5t-145 145t-51.5 193.5zM738 351q2 122 -88 213.5t-210 89.5q-120 2 -210 -89.5t-88 -213.5q-2 -121 88 -213.5
t210 -89.5q120 -3 210 89.5t88 213.5zM266 352q0 86 44.5 144.5t129.5 58.5t129.5 -58.5t44.5 -144.5t-44.5 -144t-129.5 -58t-129.5 58t-44.5 144zM438 242h4q64 0 64 110q0 111 -64 111h-4q-64 0 -64 -111q0 -110 64 -110z" />
    <glyph glyph-name="uni24FF" unicode="&#x24ff;" horiz-adv-x="880" 
d="M830 350q2 -102 -51.5 -193.5t-145 -145t-193.5 -51.5q-102 -2 -193.5 51.5t-145 145t-51.5 193.5q-2 103 51.5 194t144.5 144.5t194 51.5q103 2 194 -51.5t144.5 -144.5t51.5 -194zM266 351q0 -86 44.5 -144t129.5 -58t129.5 58t44.5 144t-44.5 144.5t-129.5 58.5
t-129.5 -58.5t-44.5 -144.5zM442 241h-4q-64 0 -64 110q0 111 64 111h4q64 0 64 -111q0 -110 -64 -110z" />
    <glyph glyph-name="triagup" unicode="&#x25b2;" horiz-adv-x="840" 
d="M15 0l405 720l405 -720h-810z" />
    <glyph glyph-name="lozenge" unicode="&#x25ca;" horiz-adv-x="619" 
d="M250 0l-235 350l235 350h124l230 -350l-230 -350h-124zM312 121l152 225l-155 234l-152 -229z" />
    <glyph glyph-name="uni2776" unicode="&#x2776;" horiz-adv-x="880" 
d="M830 350q2 -102 -51.5 -193.5t-145 -145t-193.5 -51.5q-102 -2 -193.5 51.5t-145 145t-51.5 193.5q-2 103 51.5 194t144.5 144.5t194 51.5q103 2 194 -51.5t144.5 -144.5t51.5 -194zM402 411v-256h105v395h-89l-125 -103v-126z" />
    <glyph glyph-name="uni2777" unicode="&#x2777;" horiz-adv-x="880" 
d="M830 350q2 -102 -51.5 -193.5t-145 -145t-193.5 -51.5q-102 -2 -193.5 51.5t-145 145t-51.5 193.5q-2 103 51.5 194t144.5 144.5t194 51.5q103 2 194 -51.5t144.5 -144.5t51.5 -194zM289 239v-84h296v90h-154l95 87q31 29 44.5 52t13.5 54q0 46 -39.5 81.5t-101.5 35.5
q-65 0 -108.5 -36t-47.5 -95h107q1 17 13 30t28 13h4q16 0 26.5 -10.5t10.5 -25.5q0 -22 -38 -57z" />
    <glyph glyph-name="uni2778" unicode="&#x2778;" horiz-adv-x="880" 
d="M830 350q2 -102 -51.5 -193.5t-145 -145t-193.5 -51.5q-102 -2 -193.5 51.5t-145 145t-51.5 193.5q-2 103 51.5 194t144.5 144.5t194 51.5q103 2 194 -51.5t144.5 -144.5t51.5 -194zM282 267q0 -54 43.5 -85.5t107.5 -31.5q65 0 110.5 30t45.5 82q0 66 -58 93
q55 24 55 87q0 51 -43 82t-105 31q-64 0 -106.5 -31t-42.5 -84h108q1 12 12 20t26 8h5q18 0 28 -10t10 -26t-11 -26t-29 -10h-37v-84h37q19 0 31 -10t12 -26q0 -17 -12.5 -28t-31.5 -11h-5q-16 0 -28.5 8.5t-13.5 21.5h-108z" />
    <glyph glyph-name="uni2779" unicode="&#x2779;" horiz-adv-x="880" 
d="M830 350q2 -102 -51.5 -193.5t-145 -145t-193.5 -51.5q-102 -2 -193.5 51.5t-145 145t-51.5 193.5q-2 103 51.5 194t144.5 144.5t194 51.5q103 2 194 -51.5t144.5 -144.5t51.5 -194zM439 217v-62h97v62h53v84h-53v249h-119l-174 -224v-109h196zM439 301h-105l105 137
v-137z" />
    <glyph glyph-name="uni277A" unicode="&#x277a;" horiz-adv-x="880" 
d="M830 350q2 -102 -51.5 -193.5t-145 -145t-193.5 -51.5q-102 -2 -193.5 51.5t-145 145t-51.5 193.5q-2 103 51.5 194t144.5 144.5t194 51.5q103 2 194 -51.5t144.5 -144.5t51.5 -194zM271 275q4 -56 47.5 -90.5t107.5 -34.5q71 0 115.5 39t44.5 103q0 58 -36.5 92
t-84.5 34q-46 0 -72 -23l14 67h174v88h-252l-44 -235h108q12 17 38 17h4q20 0 32.5 -12.5t12.5 -32.5t-13.5 -34.5t-33.5 -14.5h-4q-17 0 -29.5 10.5t-16.5 26.5h-112z" />
    <glyph glyph-name="uni277B" unicode="&#x277b;" horiz-adv-x="880" 
d="M830 350q2 -102 -51.5 -193.5t-145 -145t-193.5 -51.5q-102 -2 -193.5 51.5t-145 145t-51.5 193.5q-2 103 51.5 194t144.5 144.5t194 51.5q103 2 194 -51.5t144.5 -144.5t51.5 -194zM265 333q0 -83 45.5 -133t120.5 -50q66 0 109 39t43 99q0 54 -36 89t-91 35
q-59 0 -91 -40q4 41 25 68t50 27h6q32 0 39 -31h104q-2 52 -39.5 85.5t-98.5 33.5q-84 0 -135 -60.5t-51 -161.5zM430 238h-4q-20 0 -33.5 13t-13.5 32q0 18 14 31t33 13h4q21 0 34 -12t13 -31q0 -20 -13.5 -33t-33.5 -13z" />
    <glyph glyph-name="uni277C" unicode="&#x277c;" horiz-adv-x="880" 
d="M830 350q2 -102 -51.5 -193.5t-145 -145t-193.5 -51.5q-102 -2 -193.5 51.5t-145 145t-51.5 193.5q-2 103 51.5 194t144.5 144.5t194 51.5q103 2 194 -51.5t144.5 -144.5t51.5 -194zM354 168v-13h113v18q0 182 120 299v78h-299v-90h180q-114 -125 -114 -292z" />
    <glyph glyph-name="uni277D" unicode="&#x277d;" horiz-adv-x="880" 
d="M830 350q2 -102 -51.5 -193.5t-145 -145t-193.5 -51.5q-102 -2 -193.5 51.5t-145 145t-51.5 193.5q-2 103 51.5 194t144.5 144.5t194 51.5q103 2 194 -51.5t144.5 -144.5t51.5 -194zM291 258q0 -47 42 -77.5t107 -30.5t106 30.5t41 77.5q0 32 -18.5 56.5t-50.5 34.5
q76 28 76 98q0 47 -44.5 77.5t-109.5 30.5t-110 -30.5t-45 -77.5q0 -69 75 -98q-32 -10 -50.5 -34.5t-18.5 -56.5zM442 393h-5q-19 0 -32.5 10t-13.5 27t13.5 27t32.5 10h5q19 0 32.5 -10t13.5 -27t-13.5 -27t-32.5 -10zM442 238h-5q-16 0 -28 10t-12 25t12 25.5t28 10.5h5
q16 0 27.5 -10.5t11.5 -25.5t-11.5 -25t-27.5 -10z" />
    <glyph glyph-name="uni277E" unicode="&#x277e;" horiz-adv-x="880" 
d="M830 350q2 -102 -51.5 -193.5t-145 -145t-193.5 -51.5q-102 -2 -193.5 51.5t-145 145t-51.5 193.5q-2 103 51.5 194t144.5 144.5t194 51.5q103 2 194 -51.5t144.5 -144.5t51.5 -194zM286 269q2 -52 39.5 -85.5t98.5 -33.5q84 0 135 60.5t51 161.5q0 83 -45.5 133
t-120.5 50q-67 0 -109.5 -38.5t-42.5 -99.5q0 -54 36 -89t91 -35q59 0 91 40q-4 -41 -25 -68t-50 -27h-6q-32 0 -39 31h-104zM449 378h-4q-21 0 -34 12t-13 31t13.5 32.5t33.5 13.5h4q20 0 33.5 -13t13.5 -32q0 -18 -14 -31t-33 -13z" />
    <glyph glyph-name="uni300A" unicode="&#x300a;" horiz-adv-x="634" 
d="M258 -85l-228 435l228 435h135l-225 -433l225 -437h-135zM489 -85l-228 435l228 435h135l-225 -433l225 -437h-135z" />
    <glyph glyph-name="uni300B" unicode="&#x300b;" horiz-adv-x="634" 
d="M396 785l228 -435l-228 -435h-135l225 433l-225 437h135zM165 785l228 -435l-228 -435h-135l225 433l-225 437h135z" />
    <glyph glyph-name="uni300C" unicode="&#x300c;" horiz-adv-x="340" 
d="M60 388v457h265v-105h-139v-352h-126z" />
    <glyph glyph-name="uni300D" unicode="&#x300d;" horiz-adv-x="365" 
d="M305 312v-457h-265v105h139v352h126z" />
    <glyph glyph-name="uni300E" unicode="&#x300e;" horiz-adv-x="428" 
d="M48 297v548h370v-201h-137v-347h-233zM133 370h63v347h137v55h-200v-402z" />
    <glyph glyph-name="uni300F" unicode="&#x300f;" horiz-adv-x="443" 
d="M395 403v-548h-370v201h137v347h233zM310 330h-63v-347h-137v-55h200v402z" />
    <glyph glyph-name="uni3010" unicode="&#x3010;" horiz-adv-x="425" 
d="M79 -145v990h322q-94 -101 -143 -229t-49 -265q0 -136 48.5 -264.5t143.5 -231.5h-322z" />
    <glyph glyph-name="uni3011" unicode="&#x3011;" horiz-adv-x="432" 
d="M346 846v-990h-322q94 101 143 229t49 265q0 136 -48.5 264.5t-143.5 231.5h322z" />
    <glyph glyph-name="uni3014" unicode="&#x3014;" horiz-adv-x="393" 
d="M212 -145l-142 160v670l142 160h149l-161 -182v-626l161 -182h-149z" />
    <glyph glyph-name="uni3015" unicode="&#x3015;" horiz-adv-x="393" 
d="M181 846l142 -160v-670l-142 -160h-149l161 182v626l-161 182h149z" />
    <glyph glyph-name="uniE000" unicode="&#xe000;" horiz-adv-x="540" 
d="M70 150v400h400v-400h-400zM145 225h250v250h-250v-250z" />
    <glyph glyph-name="uniE001" unicode="&#xe001;" horiz-adv-x="690" 
d="M70 75v550h550v-550h-550zM145 150h400v400h-400v-400z" />
    <glyph glyph-name="uniE002" unicode="&#xe002;" horiz-adv-x="880" 
d="M90 0v700h700v-700h-700zM165 75h550v550h-550v-550z" />
    <glyph glyph-name="uniE003" unicode="&#xe003;" horiz-adv-x="540" 
d="M70 150v400h400v-400h-400zM145 225h250v250h-250v-250zM220 300v100h100v-100h-100z" />
    <glyph glyph-name="uniE004" unicode="&#xe004;" horiz-adv-x="690" 
d="M70 75v550h550v-550h-550zM145 150h400v400h-400v-400zM220 225v250h250v-250h-250zM295 300h100v100h-100v-100z" />
    <glyph glyph-name="uniE005" unicode="&#xe005;" horiz-adv-x="880" 
d="M90 0v700h700v-700h-700zM165 75h550v550h-550v-550zM240 150v400h400v-400h-400zM315 225h250v250h-250v-250zM390 300v100h100v-100h-100z" />
    <glyph glyph-name="uniE006" unicode="&#xe006;" horiz-adv-x="540" 
d="M70 150v400h400v-400h-400z" />
    <glyph glyph-name="uniE007" unicode="&#xe007;" horiz-adv-x="690" 
d="M70 75v550h550v-550h-550z" />
    <glyph glyph-name="uniE008" unicode="&#xe008;" horiz-adv-x="880" 
d="M90 0v700h700v-700h-700z" />
    <glyph glyph-name="uniE00A" unicode="&#xe00a;" horiz-adv-x="386" 
d="M98 -20q0 51 36 90q-81 17 -81 109v342q0 96 81 114q-36 37 -36 85q0 57 40.5 91t99.5 34h115v-105h-82q-43 0 -43 -36v-8q0 -36 43 -36h17v-105h-43q-62 0 -62 -58v-294q0 -58 62 -58h43v-105h-18q-42 0 -42 -36v-8q0 -36 42 -36h83v-105h-115q-59 0 -99.5 34t-40.5 91z
" />
    <glyph glyph-name="uniE00B" unicode="&#xe00b;" horiz-adv-x="386" 
d="M288 720q0 -51 -36 -90q81 -17 81 -109v-342q0 -96 -81 -114q36 -37 36 -85q0 -57 -40.5 -91t-99.5 -34h-115v105h82q43 0 43 36v8q0 36 -43 36h-17v105h43q62 0 62 58v294q0 58 -62 58h-43v105h18q42 0 42 36v8q0 36 -42 36h-83v105h115q59 0 99.5 -34t40.5 -91z" />
    <glyph glyph-name="uniE010" unicode="&#xe010;" horiz-adv-x="540" 
d="M30 350q0 98 71 169t169 71t169 -71t71 -169t-71 -169t-169 -71t-169 71t-71 169zM435 350q0 68 -48.5 116.5t-116.5 48.5t-116.5 -48.5t-48.5 -116.5t48.5 -116.5t116.5 -48.5t116.5 48.5t48.5 116.5z" />
    <glyph glyph-name="uniE011" unicode="&#xe011;" horiz-adv-x="730" 
d="M50 350q-3 127 92.5 222.5t222.5 92.5q127 3 222.5 -92.5t92.5 -222.5q3 -127 -92.5 -222.5t-222.5 -92.5q-127 -3 -222.5 92.5t-92.5 222.5zM605 350q0 98 -71 169t-169 71t-169 -71t-71 -169t71 -169t169 -71t169 71t71 169z" />
    <glyph glyph-name="uniE012" unicode="&#xe012;" horiz-adv-x="840" 
d="M30 350q-2 103 51.5 194t144.5 144.5t194 51.5q103 2 194 -51.5t144.5 -144.5t51.5 -194q2 -102 -51.5 -193.5t-145 -145t-193.5 -51.5q-102 -2 -193.5 51.5t-145 145t-51.5 193.5zM735 350q3 127 -92.5 222.5t-222.5 92.5q-127 3 -222.5 -92.5t-92.5 -222.5
q-3 -127 92.5 -222.5t222.5 -92.5q127 -3 222.5 92.5t92.5 222.5z" />
    <glyph glyph-name="uniE013" unicode="&#xe013;" horiz-adv-x="580" 
d="M50 350q0 98 71 169t169 71t169 -71t71 -169t-71 -169t-169 -71t-169 71t-71 169zM455 350q0 68 -48.5 116.5t-116.5 48.5t-116.5 -48.5t-48.5 -116.5t48.5 -116.5t116.5 -48.5t116.5 48.5t48.5 116.5zM200 350q0 37 27 63.5t63 26.5q37 0 63.5 -26.5t26.5 -63.5
t-26.5 -63.5t-63.5 -26.5q-36 0 -63 26.5t-27 63.5z" />
    <glyph glyph-name="uniE014" unicode="&#xe014;" horiz-adv-x="730" 
d="M50 350q-3 127 92.5 222.5t222.5 92.5q127 3 222.5 -92.5t92.5 -222.5q3 -127 -92.5 -222.5t-222.5 -92.5q-127 -3 -222.5 92.5t-92.5 222.5zM605 350q0 98 -71 169t-169 71t-169 -71t-71 -169t71 -169t169 -71t169 71t71 169zM200 350q0 68 48.5 116.5t116.5 48.5
t116.5 -48.5t48.5 -116.5t-48.5 -116.5t-116.5 -48.5t-116.5 48.5t-48.5 116.5zM455 350q0 38 -26.5 64t-63.5 26t-63.5 -26.5t-26.5 -63.5t26.5 -63.5t63.5 -26.5t63.5 26.5t26.5 63.5z" />
    <glyph glyph-name="uniE015" unicode="&#xe015;" horiz-adv-x="880" 
d="M50 350q-2 103 51.5 194t144.5 144.5t194 51.5q103 2 194 -51.5t144.5 -144.5t51.5 -194q2 -102 -51.5 -193.5t-145 -145t-193.5 -51.5q-102 -2 -193.5 51.5t-145 145t-51.5 193.5zM755 350q3 127 -92.5 222.5t-222.5 92.5q-127 3 -222.5 -92.5t-92.5 -222.5
q-3 -127 92.5 -222.5t222.5 -92.5q127 -3 222.5 92.5t92.5 222.5zM200 350q0 98 71 169t169 71t169 -71t71 -169t-71 -169t-169 -71t-169 71t-71 169zM605 350q0 68 -48.5 116.5t-116.5 48.5t-116.5 -48.5t-48.5 -116.5t48.5 -116.5t116.5 -48.5t116.5 48.5t48.5 116.5z
M350 350q0 37 27 63.5t63 26.5q38 0 64 -26t26 -64q0 -37 -26.5 -63.5t-63.5 -26.5q-36 0 -63 26.5t-27 63.5z" />
    <glyph glyph-name="uniE016" unicode="&#xe016;" 
d="M60 350q0 98 71 169t169 71t169 -71t71 -169t-71 -169t-169 -71t-169 71t-71 169z" />
    <glyph glyph-name="uniE017" unicode="&#xe017;" horiz-adv-x="660" 
d="M30 350q-3 121 88 211.5t212 88.5q121 2 211.5 -88.5t88.5 -211.5q2 -121 -88.5 -212t-211.5 -88q-121 -3 -212 88t-88 212z" />
    <glyph glyph-name="uniE018" unicode="&#xe018;" horiz-adv-x="780" 
d="M30 350q-3 145 106 254t254 106q145 3 254 -106t106 -254q3 -145 -106 -254t-254 -106q-145 -3 -254 106t-106 254z" />
    <glyph glyph-name="uniF8FF" unicode="&#xf8ff;" horiz-adv-x="778" 
d="M788 707q63 0 90 -22q0 -2 -0.5 -8.5t-1.5 -12.5t-2 -7q-7 -7 -31 -7q-21 0 -33 4q2 -43 -18.5 -75.5t-58.5 -28.5q-16 -53 -66 -76q-49 -21 -106 -21q-16 0 -27 1l2 -6q2 -6 6.5 -21.5t8.5 -30.5q17 -56 27 -136q8 -8 15 -17q37 -43 66 -69q45 -40 60 -78q3 -6 3 -11
q0 -13 -20 -18q-31 17 -81 74q-31 36 -46 50q-1 -3 -1 -16q0 -35 15 -102q9 -32 11 -56q-15 -12 -29 -12q-11 0 -13 9q-23 37 -35 171q-1 26 -4 34q-13 1 -81 -13q-93 -19 -142 -31q-1 -31 11 -55t41 -59q45 -60 54 -93q-9 -11 -21 -11q-9 0 -16 6q-16 8 -53 62l-15 21
q-15 22 -25 45q-11 24 -17 28q-24 -72 -40 -107.5t-23 -34.5h-8q-11 0 -17 5t-5 15q1 25 19 80q19 55 43 96l-40 4q-117 8 -154 39q-5 5 -10 14q13 14 36 29q1 0 12 7q13 18 50 46q41 30 55 52q-7 6 -29 16q-23 12 -33.5 18t-20 14.5t-11.5 17.5l9 19q7 7 91 -34
q0 2 0.5 5.5t1 9t0.5 10.5q1 35 8 46q1 5 16.5 9t20.5 4q11 -7 11 -15q1 -8 -5 -35q0 -2 -2.5 -20t-2.5 -27v-9q34 0 99 41q2 1 9.5 6t15 9.5t12.5 6.5l28 7q63 17 97 27q-20 35 -20 77q0 36 17 56q63 1 98 -23t35 -63q0 -17 -6 -33q19 1 40.5 13t24.5 25q-8 7 -27 19
q-23 13 -31 33q-16 17 -16 39q0 38 43 55q18 5 28 5q31 0 49.5 -23.5t18.5 -61.5q0 -13 -1 -17q24 12 24 83q0 18 -1 31q16 2 24 2zM698 605q0 37 -37 48q-6 -11 -6 -20q0 -17 12 -30t28 -15q3 8 3 17zM579 543q-28 28 -57 28q-3 -11 -3 -25q0 -28 11 -38q4 -3 11 -3
q9 0 24 4q0 -1 3.5 2t7 11.5t3.5 20.5zM382 246q76 24 122 24q15 0 19 -1q-3 22 -11 46q-2 6 -8 31q-5 22 -5 36q-5 37 -18 53q-45 -9 -121 -49q-67 -34 -105 -44q9 -29 21 -92q6 -24 6 -26q31 1 100 22zM211 225q11 0 18 1q-12 36 -13 41q-7 30 -16 50l-28 -25
q-38 -30 -54 -56q72 -11 93 -11z" />
    <glyph glyph-name="NULL" 
 />
    <glyph glyph-name="G.ss02" horiz-adv-x="745" 
d="M387 365h305v-119q0 -111 -85.5 -183.5t-219.5 -72.5q-153 -2 -250 102t-95 258q-2 155 95 258t250 102q131 0 211.5 -69.5t88.5 -180.5h-135q-8 61 -49 95.5t-111 34.5h-10q-95 0 -150 -65t-55 -175t55 -175t150 -65h10q73 0 119 36t46 95v4h-170v120z" />
    <glyph glyph-name="Gbreve.ss02" horiz-adv-x="745" 
d="M387 365h305v-119q0 -111 -85.5 -183.5t-219.5 -72.5q-153 -2 -250 102t-95 258q-2 155 95 258t250 102q131 0 211.5 -69.5t88.5 -180.5h-135q-8 61 -49 95.5t-111 34.5h-10q-95 0 -150 -65t-55 -175t55 -175t150 -65h10q73 0 119 36t46 95v4h-170v120zM217 890h110
q3 -26 19 -40.5t41 -14.5t41 14.5t19 40.5h110q-1 -68 -48.5 -109t-121.5 -41t-121.5 41t-48.5 109z" />
    <glyph glyph-name="Gcircumflex.ss02" horiz-adv-x="745" 
d="M387 365h305v-119q0 -111 -85.5 -183.5t-219.5 -72.5q-153 -2 -250 102t-95 258q-2 155 95 258t250 102q131 0 211.5 -69.5t88.5 -180.5h-135q-8 61 -49 95.5t-111 34.5h-10q-95 0 -150 -65t-55 -175t55 -175t150 -65h10q73 0 119 36t46 95v4h-170v120zM577 745h-110
l-80 58l-80 -58h-110l120 145h140z" />
    <glyph glyph-name="uni0122.ss02" horiz-adv-x="745" 
d="M387 365h305v-119q0 -111 -85.5 -183.5t-219.5 -72.5q-153 -2 -250 102t-95 258q-2 155 95 258t250 102q131 0 211.5 -69.5t88.5 -180.5h-135q-8 61 -49 95.5t-111 34.5h-10q-95 0 -150 -65t-55 -175t55 -175t150 -65h10q73 0 119 36t46 95v4h-170v120zM297 -310v75h23
q54 0 54 39v1h-52v130h130v-130q0 -50 -35.5 -82.5t-91.5 -32.5h-28z" />
    <glyph glyph-name="Gdotaccent.ss02" horiz-adv-x="745" 
d="M387 365h305v-119q0 -111 -85.5 -183.5t-219.5 -72.5q-153 -2 -250 102t-95 258q-2 155 95 258t250 102q131 0 211.5 -69.5t88.5 -180.5h-135q-8 61 -49 95.5t-111 34.5h-10q-95 0 -150 -65t-55 -175t55 -175t150 -65h10q73 0 119 36t46 95v4h-170v120zM317 765v135h140
v-135h-140z" />
    <glyph glyph-name="R.ss02" horiz-adv-x="679" 
d="M82 0v700h325q90 0 152.5 -54.5t62.5 -135.5q0 -60 -36.5 -108.5t-88.5 -65.5q34 -3 49.5 -19.5t29.5 -60.5l81 -256h-140l-65 207q-9 31 -23.5 44.5t-40.5 13.5h-171v-265h-135zM217 383h150q120 0 120 101q0 96 -120 96h-150v-197z" />
    <glyph glyph-name="Racute.ss02" horiz-adv-x="679" 
d="M82 0v700h325q90 0 152.5 -54.5t62.5 -135.5q0 -60 -36.5 -108.5t-88.5 -65.5q34 -3 49.5 -19.5t29.5 -60.5l81 -256h-140l-65 207q-9 31 -23.5 44.5t-40.5 13.5h-171v-265h-135zM217 383h150q120 0 120 101q0 96 -120 96h-150v-197zM282 745l40 145h155l-105 -145h-90z
" />
    <glyph glyph-name="Rcaron.ss02" horiz-adv-x="679" 
d="M82 0v700h325q90 0 152.5 -54.5t62.5 -135.5q0 -60 -36.5 -108.5t-88.5 -65.5q34 -3 49.5 -19.5t29.5 -60.5l81 -256h-140l-65 207q-9 31 -23.5 44.5t-40.5 13.5h-171v-265h-135zM217 383h150q120 0 120 101q0 96 -120 96h-150v-197zM407 890h110l-120 -145h-140
l-120 145h110l80 -58z" />
    <glyph glyph-name="uni0156.ss02" horiz-adv-x="679" 
d="M82 0v700h325q90 0 152.5 -54.5t62.5 -135.5q0 -60 -36.5 -108.5t-88.5 -65.5q34 -3 49.5 -19.5t29.5 -60.5l81 -256h-140l-65 207q-9 31 -23.5 44.5t-40.5 13.5h-171v-265h-135zM217 383h150q120 0 120 101q0 96 -120 96h-150v-197zM267 -310v75h23q54 0 54 39v1h-52
v130h130v-130q0 -50 -35.5 -82.5t-91.5 -32.5h-28z" />
    <glyph glyph-name="i.locl" horiz-adv-x="264" 
d="M67 0v500h130v-500h-130zM62 565v135h140v-135h-140z" />
    <glyph glyph-name="a.salt" horiz-adv-x="595" 
d="M38 250q0 121 62.5 190.5t152.5 69.5q54 0 93 -22t57 -58v70h130v-500h-130v70q-20 -36 -59 -58t-91 -22q-85 0 -150 70.5t-65 189.5zM281 95h8q49 0 81.5 42.5t32.5 112.5t-32.5 112.5t-81.5 42.5h-8q-47 0 -80 -44.5t-33 -109.5q0 -66 33 -111t80 -45z" />
    <glyph glyph-name="aacute.salt" horiz-adv-x="595" 
d="M38 250q0 121 62.5 190.5t152.5 69.5q54 0 93 -22t57 -58v70h130v-500h-130v70q-20 -36 -59 -58t-91 -22q-85 0 -150 70.5t-65 189.5zM281 95h8q49 0 81.5 42.5t32.5 112.5t-32.5 112.5t-81.5 42.5h-8q-47 0 -80 -44.5t-33 -109.5q0 -66 33 -111t80 -45zM263 550l25 150
h150l-100 -150h-75z" />
    <glyph glyph-name="abreve.salt" horiz-adv-x="595" 
d="M38 250q0 121 62.5 190.5t152.5 69.5q54 0 93 -22t57 -58v70h130v-500h-130v70q-20 -36 -59 -58t-91 -22q-85 0 -150 70.5t-65 189.5zM281 95h8q49 0 81.5 42.5t32.5 112.5t-32.5 112.5t-81.5 42.5h-8q-47 0 -80 -44.5t-33 -109.5q0 -66 33 -111t80 -45zM134 700h110
q5 -65 60 -65t60 65h110q-1 -72 -48.5 -116t-121.5 -44t-121.5 44t-48.5 116z" />
    <glyph glyph-name="acircumflex.salt" horiz-adv-x="595" 
d="M38 250q0 121 62.5 190.5t152.5 69.5q54 0 93 -22t57 -58v70h130v-500h-130v70q-20 -36 -59 -58t-91 -22q-85 0 -150 70.5t-65 189.5zM281 95h8q49 0 81.5 42.5t32.5 112.5t-32.5 112.5t-81.5 42.5h-8q-47 0 -80 -44.5t-33 -109.5q0 -66 33 -111t80 -45zM484 550h-80
l-100 72l-100 -72h-80l100 150h160z" />
    <glyph glyph-name="adieresis.salt" horiz-adv-x="595" 
d="M38 250q0 121 62.5 190.5t152.5 69.5q54 0 93 -22t57 -58v70h130v-500h-130v70q-20 -36 -59 -58t-91 -22q-85 0 -150 70.5t-65 189.5zM281 95h8q49 0 81.5 42.5t32.5 112.5t-32.5 112.5t-81.5 42.5h-8q-47 0 -80 -44.5t-33 -109.5q0 -66 33 -111t80 -45zM144 565v130h120
v-130h-120zM344 565v130h120v-130h-120z" />
    <glyph glyph-name="uni0227.salt" horiz-adv-x="595" 
d="M38 250q0 121 62.5 190.5t152.5 69.5q54 0 93 -22t57 -58v70h130v-500h-130v70q-20 -36 -59 -58t-91 -22q-85 0 -150 70.5t-65 189.5zM281 95h8q49 0 81.5 42.5t32.5 112.5t-32.5 112.5t-81.5 42.5h-8q-47 0 -80 -44.5t-33 -109.5q0 -66 33 -111t80 -45zM234 565v135h140
v-135h-140z" />
    <glyph glyph-name="uni1EA1.salt" horiz-adv-x="595" 
d="M38 250q0 121 62.5 190.5t152.5 69.5q54 0 93 -22t57 -58v70h130v-500h-130v70q-20 -36 -59 -58t-91 -22q-85 0 -150 70.5t-65 189.5zM281 95h8q49 0 81.5 42.5t32.5 112.5t-32.5 112.5t-81.5 42.5h-8q-47 0 -80 -44.5t-33 -109.5q0 -66 33 -111t80 -45zM228 -195v130
h130v-130h-130z" />
    <glyph glyph-name="agrave.salt" horiz-adv-x="595" 
d="M38 250q0 121 62.5 190.5t152.5 69.5q54 0 93 -22t57 -58v70h130v-500h-130v70q-20 -36 -59 -58t-91 -22q-85 0 -150 70.5t-65 189.5zM281 95h8q49 0 81.5 42.5t32.5 112.5t-32.5 112.5t-81.5 42.5h-8q-47 0 -80 -44.5t-33 -109.5q0 -66 33 -111t80 -45zM269 550
l-100 150h150l25 -150h-75z" />
    <glyph glyph-name="amacron.salt" horiz-adv-x="595" 
d="M38 250q0 121 62.5 190.5t152.5 69.5q54 0 93 -22t57 -58v70h130v-500h-130v70q-20 -36 -59 -58t-91 -22q-85 0 -150 70.5t-65 189.5zM281 95h8q49 0 81.5 42.5t32.5 112.5t-32.5 112.5t-81.5 42.5h-8q-47 0 -80 -44.5t-33 -109.5q0 -66 33 -111t80 -45zM151 565v105h305
v-105h-305z" />
    <glyph glyph-name="aogonek.salt" horiz-adv-x="595" 
d="M38 250q0 121 62.5 190.5t152.5 69.5q54 0 93 -22t57 -58v70h130v-500h-130v70q-20 -36 -59 -58t-91 -22q-85 0 -150 70.5t-65 189.5zM281 95h8q49 0 81.5 42.5t32.5 112.5t-32.5 112.5t-81.5 42.5h-8q-47 0 -80 -44.5t-33 -109.5q0 -66 33 -111t80 -45zM362 -120
q0 89 105 135l65 -15q-80 -48 -80 -90q0 -24 14 -37t36 -13h30v-80h-50q-52 0 -86 28t-34 72z" />
    <glyph glyph-name="aring.salt" horiz-adv-x="595" 
d="M38 250q0 121 62.5 190.5t152.5 69.5q54 0 93 -22t57 -58v70h130v-500h-130v70q-20 -36 -59 -58t-91 -22q-85 0 -150 70.5t-65 189.5zM281 95h8q49 0 81.5 42.5t32.5 112.5t-32.5 112.5t-81.5 42.5h-8q-47 0 -80 -44.5t-33 -109.5q0 -66 33 -111t80 -45zM199 645
q0 41 32 73t73 32q43 0 74 -31.5t31 -73.5q0 -45 -30 -75t-75 -30q-42 0 -73.5 31t-31.5 74zM348 645q0 18 -12.5 31t-30.5 13t-31 -13t-13 -31t13 -31t31 -13t30.5 13t12.5 31z" />
    <glyph glyph-name="aringacute.salt" horiz-adv-x="595" 
d="M38 250q0 121 62.5 190.5t152.5 69.5q54 0 93 -22t57 -58v70h130v-500h-130v70q-20 -36 -59 -58t-91 -22q-85 0 -150 70.5t-65 189.5zM281 95h8q49 0 81.5 42.5t32.5 112.5t-32.5 112.5t-81.5 42.5h-8q-47 0 -80 -44.5t-33 -109.5q0 -66 33 -111t80 -45zM266 766l25 135
h150l-96 -135h-79zM197 635q0 41 32.5 73t72.5 32q43 0 74 -31.5t31 -73.5q0 -45 -30 -75t-75 -30q-42 0 -73.5 31t-31.5 74zM347 635q0 18 -12.5 31t-30.5 13t-31 -13t-13 -31t13 -31t31 -13t30.5 13t12.5 31z" />
    <glyph glyph-name="atilde.salt" horiz-adv-x="595" 
d="M38 250q0 121 62.5 190.5t152.5 69.5q54 0 93 -22t57 -58v70h130v-500h-130v70q-20 -36 -59 -58t-91 -22q-85 0 -150 70.5t-65 189.5zM281 95h8q49 0 81.5 42.5t32.5 112.5t-32.5 112.5t-81.5 42.5h-8q-47 0 -80 -44.5t-33 -109.5q0 -66 33 -111t80 -45zM303 579l-18 10
q-28 16 -42 16q-13 0 -23.5 -11.5t-10.5 -28.5h-95v26q0 47 33 80.5t79 33.5q37 0 75 -20l18 -10l12 -7q26 -13 37 -13q13 0 21.5 11.5t8.5 28.5h95v-26q0 -46 -33 -80t-77 -34q-35 0 -80 24z" />
    <glyph glyph-name="y.ss03" horiz-adv-x="557" 
d="M407 500h144l-248 -622q-18 -45 -45 -62.5t-81 -17.5h-151v112h115q26 0 34.5 7t17.5 29l33 86l-230 468h146l148 -305z" />
    <glyph glyph-name="yacute.ss03" horiz-adv-x="557" 
d="M407 500h144l-248 -622q-18 -45 -45 -62.5t-81 -17.5h-151v112h115q26 0 34.5 7t17.5 29l33 86l-230 468h146l148 -305zM237 550l25 150h150l-100 -150h-75z" />
    <glyph glyph-name="ycircumflex.ss03" horiz-adv-x="557" 
d="M407 500h144l-248 -622q-18 -45 -45 -62.5t-81 -17.5h-151v112h115q26 0 34.5 7t17.5 29l33 86l-230 468h146l148 -305zM458 550h-80l-100 72l-100 -72h-80l100 150h160z" />
    <glyph glyph-name="ydieresis.ss03" horiz-adv-x="557" 
d="M407 500h144l-248 -622q-18 -45 -45 -62.5t-81 -17.5h-151v112h115q26 0 34.5 7t17.5 29l33 86l-230 468h146l148 -305zM118 565v130h120v-130h-120zM318 565v130h120v-130h-120z" />
    <glyph glyph-name="ygrave.ss03" horiz-adv-x="557" 
d="M407 500h144l-248 -622q-18 -45 -45 -62.5t-81 -17.5h-151v112h115q26 0 34.5 7t17.5 29l33 86l-230 468h146l148 -305zM243 550l-100 150h150l25 -150h-75z" />
    <glyph glyph-name="uni0233.ss03" horiz-adv-x="557" 
d="M407 500h144l-248 -622q-18 -45 -45 -62.5t-81 -17.5h-151v112h115q26 0 34.5 7t17.5 29l33 86l-230 468h146l148 -305zM125 565v105h305v-105h-305z" />
    <glyph glyph-name="I_S_B_N" horiz-adv-x="2190" 
d="M1600 0v455q0 124 69 189.5t206 65.5t206 -65.5t69 -189.5v-455h-135v435q0 81 -33 118t-102 37h-10q-69 0 -102 -37t-33 -118v-435h-135zM50 0v700h135v-580h400q54 0 84 21t30 57q0 33 -17.5 50t-61.5 26l-125 26q-180 38 -180 200q0 84 65.5 142t184.5 58h680
q97 0 156 -51.5t59 -129.5q0 -61 -32 -104.5t-86 -59.5q59 -13 96 -57.5t37 -111.5q0 -79 -62.5 -132.5t-157.5 -53.5h-320v413h290q100 0 100 84q0 83 -100 83h-655q-56 0 -88 -20t-32 -57q0 -33 19.5 -49.5t65.5 -25.5l105 -21q194 -39 194 -202q0 -91 -65.5 -148
t-188.5 -57h-530zM1070 120h165q105 0 105 89q0 88 -105 88h-165v-177z" />
    <glyph glyph-name="w_w_w" horiz-adv-x="2049" 
d="M165 0l-153 500h131l100 -372l81 372h139l87 -368l95 368h131l99 -372l82 372h139l87 -368l95 368h131l99 -372l82 372h139l87 -368l95 368h126l-143 -500h-146l-88 350l-83 -350h-146l-88 287l-82 -287h-146l-88 350l-83 -350h-146l-88 287l-82 -287h-146l-88 350
l-83 -350h-146z" />
    <glyph glyph-name="a.sups_salt" horiz-adv-x="394" 
d="M29 558q0 67 39 107t95 40q53 0 84 -36v31h99v-285h-102v37q-35 -42 -81 -42q-56 0 -95 40.5t-39 107.5zM247 558q0 30 -16.5 49t-43.5 19q-24 0 -40 -19t-16 -49t16 -49.5t40 -19.5q27 0 43.5 19t16.5 50z" />
    <glyph glyph-name="y.sups_ss03" horiz-adv-x="360" 
d="M29 300v82h52q17 0 25 6t14 22l5 12l-125 278h109l71 -161l71 161h108l-165 -363q-18 -37 -54 -37h-111z" />
    <glyph glyph-name="a.sups" horiz-adv-x="343" 
d="M28 497q0 73 108 86l65 8v9q0 33 -32 33h-4q-29 0 -34 -22h-93q3 44 37 69t94 25q57 0 92.5 -27.5t35.5 -71.5v-128q0 -39 4 -63h-89q-2 7 -4 36q-32 -41 -87 -41q-40 0 -66.5 24t-26.5 63zM152 482h4q20 0 33.5 13.5t13.5 35.5v10l-55 -10q-24 -6 -24 -25q0 -24 28 -24z
" />
    <glyph glyph-name="b.sups" horiz-adv-x="395" 
d="M150 450v-35h-102v395h99v-145q30 40 89 40q56 0 92.5 -40t36.5 -108t-36.5 -107.5t-92.5 -39.5t-86 40zM263 557q0 30 -16 49t-40 19q-27 0 -43.5 -19t-16.5 -49t16.5 -48.5t43.5 -18.5q24 0 40 18.5t16 48.5z" />
    <glyph glyph-name="c.sups" horiz-adv-x="351" 
d="M30 557q0 70 43 109t112 39q64 0 99 -31t39 -82h-101q-4 33 -40 33h-4q-46 0 -46 -68q0 -67 46 -67h4q36 0 40 30h101q-6 -50 -40 -80t-98 -30q-70 0 -112.5 38t-42.5 109z" />
    <glyph glyph-name="d.sups" horiz-adv-x="395" 
d="M30 557q0 68 36.5 108t92.5 40q59 0 89 -40v145h99v-395h-102v35q-30 -40 -86 -40t-92.5 39.5t-36.5 107.5zM248 557q0 30 -16.5 49t-43.5 19q-24 0 -40 -19t-16 -49t16 -48.5t40 -18.5q27 0 43.5 18.5t16.5 48.5z" />
    <glyph glyph-name="e.sups" horiz-adv-x="353" 
d="M29 555q0 66 41 108t107 42q65 0 105 -41t40 -105q0 -19 -1 -22h-196q5 -54 53 -54h4q39 0 44 25h95q-5 -42 -44 -70t-97 -28q-66 0 -108.5 40t-42.5 105zM125 584h100q-2 47 -46 47h-4q-20 0 -34 -12.5t-16 -34.5z" />
    <glyph glyph-name="f.sups" horiz-adv-x="266" 
d="M79 415v203h-56v82h56v21q0 89 89 89h95v-75h-60q-22 0 -22 -27v-8h67v-82h-67v-203h-102z" />
    <glyph glyph-name="g.sups" horiz-adv-x="385" 
d="M35 387h102q8 -27 39 -27h6q59 0 59 58v45q-20 -44 -81 -44q-58 0 -93.5 39t-35.5 104t34.5 104t91.5 39q60 0 78 -47v42h102v-279q0 -58 -42 -97t-118 -39q-60 0 -98 26t-44 76zM235 562q0 28 -13.5 46.5t-37.5 18.5q-22 0 -36.5 -17.5t-14.5 -47.5t14 -47.5t36 -17.5
q24 0 38 18.5t14 46.5z" />
    <glyph glyph-name="h.sups" horiz-adv-x="386" 
d="M48 415v395h102v-150q27 45 86 45q105 0 105 -117v-173h-102v169q0 42 -37 42h-4q-21 0 -34.5 -13t-13.5 -36v-162h-102z" />
    <glyph glyph-name="i.sups" horiz-adv-x="198" 
d="M45 735v75h108v-75h-108zM48 415v285h102v-285h-102z" />
    <glyph glyph-name="j.sups" horiz-adv-x="198" 
d="M45 735v75h108v-75h-108zM-41 290v85h49q26 0 33 7t7 33v285h102v-321q0 -89 -89 -89h-102z" />
    <glyph glyph-name="k.sups" horiz-adv-x="372" 
d="M244 415l-67 103l-29 -30v-73h-100v395h100v-195l81 85h125l-109 -112l115 -173h-116z" />
    <glyph glyph-name="l.sups" horiz-adv-x="198" 
d="M48 415v395h102v-395h-102z" />
    <glyph glyph-name="m.sups" horiz-adv-x="579" 
d="M48 415v285h102v-38q30 43 90 43q64 0 90 -50q32 50 102 50q48 0 75 -28.5t27 -77.5v-184h-102v163q0 47 -39 47h-4q-21 0 -34 -13t-13 -35v-162h-102v163q0 47 -39 47h-4q-21 0 -34 -13t-13 -35v-162h-102z" />
    <glyph glyph-name="n.sups" horiz-adv-x="386" 
d="M48 415v285h102v-40q27 45 86 45q105 0 105 -117v-173h-102v169q0 42 -37 42h-4q-21 0 -34.5 -13t-13.5 -36v-162h-102z" />
    <glyph glyph-name="o.sups" horiz-adv-x="366" 
d="M29 557q0 64 42 106t112 42q69 0 111.5 -42t42.5 -106q0 -63 -42 -105t-112 -42t-112 42t-42 105zM181 490h4q23 0 36.5 17.5t13.5 49.5t-13.5 50t-36.5 18h-4q-23 0 -36.5 -18t-13.5 -50t13.5 -49.5t36.5 -17.5z" />
    <glyph glyph-name="p.sups" horiz-adv-x="395" 
d="M48 305v395h102v-35q30 40 86 40t92.5 -40t36.5 -107q0 -68 -36.5 -108t-92.5 -40q-59 0 -89 40v-145h-99zM263 558q0 30 -16 48.5t-40 18.5q-27 0 -43.5 -18.5t-16.5 -48.5t16.5 -49t43.5 -19q24 0 40 19t16 49z" />
    <glyph glyph-name="q.sups" horiz-adv-x="395" 
d="M248 305v145q-30 -40 -89 -40q-56 0 -92.5 40t-36.5 108q0 67 36.5 107t92.5 40t86 -40v35h102v-395h-99zM248 558q0 30 -16.5 48.5t-43.5 18.5q-24 0 -40 -18.5t-16 -48.5t16 -49t40 -19q27 0 43.5 19t16.5 49z" />
    <glyph glyph-name="r.sups" horiz-adv-x="262" 
d="M48 415v285h105v-53q17 55 82 55h8v-86h-34q-59 0 -59 -70v-131h-102z" />
    <glyph glyph-name="s.sups" horiz-adv-x="335" 
d="M27 511h99q2 -34 39 -34h4q31 0 31 22q0 17 -21 21l-67 14q-74 15 -74 79q0 44 36 68t93 24q131 0 139 -99h-97q-2 32 -35 32h-5q-13 0 -22.5 -5.5t-9.5 -14.5q0 -13 19 -18l72 -16q37 -9 54 -26t17 -52q0 -46 -38.5 -71t-95.5 -25q-67 0 -100.5 24t-37.5 77z" />
    <glyph glyph-name="t.sups" horiz-adv-x="281" 
d="M75 504v114h-56v82h56v90h102v-90h64v-82h-64v-80q0 -26 7 -32.5t33 -6.5h33v-84h-86q-89 0 -89 89z" />
    <glyph glyph-name="u.sups" horiz-adv-x="386" 
d="M45 527v173h102v-169q0 -42 37 -42h4q20 0 34 13.5t14 35.5v162h102v-285h-102v40q-27 -45 -86 -45q-105 0 -105 117z" />
    <glyph glyph-name="v.sups" horiz-adv-x="369" 
d="M260 700h101l-111 -285h-131l-111 285h107l72 -189z" />
    <glyph glyph-name="w.sups" horiz-adv-x="497" 
d="M393 700h91l-101 -285h-79l-53 161l-48 -161h-89l-101 285h100l45 -151l50 151h94l47 -151z" />
    <glyph glyph-name="x.sups" horiz-adv-x="351" 
d="M15 415l107 143l-106 142h107l53 -71l53 71h106l-106 -141l107 -144h-107l-54 72l-54 -72h-106z" />
    <glyph glyph-name="y.sups" horiz-adv-x="368" 
d="M39 300v82h69q20 0 28 8t8 28v10l-144 272h115l71 -150l73 150h108l-130 -248v-70q0 -43 -19.5 -62.5t-62.5 -19.5h-116z" />
    <glyph glyph-name="z.sups" horiz-adv-x="343" 
d="M170 497h141v-82h-276v65l132 138h-129v82h264v-67z" />
    <glyph glyph-name="zero.onum" horiz-adv-x="604" 
d="M47 250q0 113 71 186.5t184 73.5t184 -73.5t71 -186.5t-71 -186.5t-184 -73.5t-184 73.5t-71 186.5zM298 95h8q57 0 89 44.5t32 110.5t-32 110.5t-89 44.5h-8q-59 0 -90 -44.5t-31 -110.5t31 -110.5t90 -44.5z" />
    <glyph glyph-name="one.onum" horiz-adv-x="407" 
d="M231 500h97v-500h-123v326l-164 -153v143z" />
    <glyph glyph-name="two.onum" horiz-adv-x="496" 
d="M336 201l-129 -96h227v-105h-380v123l229 181q31 25 31 51q0 21 -16.5 35.5t-41.5 14.5h-6q-31 0 -48.5 -19.5t-17.5 -54.5h-130q0 81 56.5 130t144.5 49q85 0 137 -41t52 -105q0 -47 -23.5 -82.5t-84.5 -80.5z" />
    <glyph glyph-name="three.onum" horiz-adv-x="588" 
d="M38 -7h130q4 -45 33.5 -71.5t79.5 -26.5h10q56 0 86 31t30 74q0 46 -34.5 72t-92.5 26h-47v105h42q58 0 93 27.5t35 74.5q0 42 -31 71t-76 29h-10q-42 0 -71.5 -27t-33.5 -73h-130q0 90 68 147.5t172 57.5q108 0 175 -56.5t67 -138.5q0 -59 -34 -103t-89 -59
q56 -15 92 -60t36 -103q0 -94 -69.5 -147t-182.5 -53q-111 0 -179.5 55t-68.5 148z" />
    <glyph glyph-name="four.onum" horiz-adv-x="633" 
d="M500 105h102v-105h-102v-200h-127v200h-337v127l320 373h144v-395zM167 105h206v237z" />
    <glyph glyph-name="five.onum" horiz-adv-x="583" 
d="M537 21q0 -103 -68.5 -167t-183.5 -64q-106 0 -177.5 57t-82.5 148h130q11 -47 44.5 -73.5t83.5 -26.5h6q51 0 84.5 33t33.5 88q0 54 -33.5 85.5t-84.5 31.5h-6q-60 0 -112 -58h-122l86 425h395v-105h-295l-43 -205q19 21 54.5 34.5t71.5 13.5q97 0 158 -61t61 -156z" />
    <glyph glyph-name="six.onum" horiz-adv-x="631" 
d="M573 230q0 -101 -69.5 -170.5t-185.5 -69.5q-128 0 -198 88.5t-70 248.5q-2 167 90 276.5t224 106.5q90 0 152 -51.5t72 -138.5h-130q-5 38 -31 61.5t-69 23.5h-8q-67 0 -118.5 -59.5t-62.5 -179.5q23 43 71 68.5t107 25.5q95 0 160.5 -64.5t65.5 -165.5zM443 225
q0 55 -33.5 92.5t-86.5 37.5h-8q-55 0 -91 -37t-36 -93q0 -57 35 -93.5t92 -36.5h8q53 0 86.5 37t33.5 93z" />
    <glyph glyph-name="seven.onum" horiz-adv-x="550" 
d="M20 500h505v-110q-120 -77 -187 -203q-67 -124 -67 -322v-65h-136v65q0 201 72 329t183 201h-370v105z" />
    <glyph glyph-name="eight.onum" horiz-adv-x="588" 
d="M523 180q0 -80 -61.5 -135t-167.5 -55t-167.5 55t-61.5 135q0 116 118 157q-57 21 -94.5 69t-37.5 114q0 78 65.5 134t177.5 56q111 0 177 -56t66 -134q0 -65 -37.5 -113.5t-94.5 -69.5q118 -41 118 -157zM181 498q0 -44 31.5 -73t76.5 -29h10q45 0 76.5 29t31.5 73
q0 46 -31.5 76.5t-76.5 30.5h-10q-45 0 -76.5 -30.5t-31.5 -76.5zM393 195q0 42 -27 69t-67 27h-10q-40 0 -67 -27t-27 -69q0 -44 27 -72t67 -28h10q40 0 67 28t27 72z" />
    <glyph glyph-name="nine.onum" horiz-adv-x="617" 
d="M571 173q2 -167 -90 -276.5t-224 -106.5q-90 0 -151 51.5t-73 138.5h130q5 -38 31 -61.5t69 -23.5h8q67 0 119 60t62 180q-23 -44 -71 -69.5t-107 -25.5q-95 0 -160.5 64.5t-65.5 165.5t69.5 170.5t185.5 69.5q128 0 198 -88.5t70 -248.5zM433 275q0 57 -35.5 93.5
t-91.5 36.5h-8q-53 0 -86.5 -37t-33.5 -93q0 -55 33.5 -92.5t86.5 -37.5h8q55 0 91 37t36 93z" />
    <glyph glyph-name="zero.onum_zero" horiz-adv-x="605" 
d="M557 250q0 -113 -71 -186.5t-184 -73.5t-184 73.5t-71 186.5t71 186.5t184 73.5t184 -73.5t71 -186.5zM177 250q0 -35 9 -65l186 200q-28 20 -66 20h-8q-59 0 -90 -44.5t-31 -110.5zM427 250q0 31 -8 61l-184 -198q25 -18 63 -18h8q57 0 89 44.5t32 110.5z" />
    <glyph glyph-name="zero.tnum" 
d="M32 350q0 170 70.5 265t197.5 95t197.5 -95t70.5 -265t-70.5 -265t-197.5 -95t-197.5 95t-70.5 265zM296 105h8q62 0 96 64.5t34 180.5t-34 180.5t-96 64.5h-8q-62 0 -96 -64.5t-34 -180.5t34 -180.5t96 -64.5z" />
    <glyph glyph-name="one.tnum" 
d="M375 115h198v-115h-530v115h205v396l-155 -148v165l177 172h105v-585z" />
    <glyph glyph-name="two.tnum" 
d="M228 115h325v-115h-493v121l238 224q68 64 90 94.5t22 67.5q0 38 -26 63t-67 25h-10q-46 0 -76 -31t-31 -83h-133q0 104 68.5 166.5t175.5 62.5q103 0 167.5 -56t64.5 -142q0 -65 -29 -113t-104 -117z" />
    <glyph glyph-name="three.tnum" 
d="M51 193h133q4 -40 33 -64t77 -24h10q54 0 83.5 28t29.5 67q0 44 -33.5 68t-90.5 24h-47v115h42q57 0 91 26.5t34 71.5q0 38 -30 64t-74 26h-10q-41 0 -70 -24.5t-32 -65.5h-133q0 88 69 146.5t171 58.5q108 0 175 -56.5t67 -138.5q0 -59 -34 -103t-89 -59q56 -15 92 -60
t36 -103q0 -93 -69.5 -146.5t-182.5 -53.5q-111 0 -179.5 55t-68.5 148z" />
    <glyph glyph-name="four.tnum" 
d="M352 0v142h-329v133l332 425h124v-443h85v-115h-85v-142h-127zM151 257h201v256z" />
    <glyph glyph-name="five.tnum" 
d="M551 221q0 -103 -69 -167t-183 -64q-106 0 -177.5 57t-82.5 148h133q9 -42 42 -66t81 -24h10q49 0 81 30.5t32 80.5t-32 78.5t-81 28.5h-10q-67 0 -110 -48h-122l86 425h395v-115h-294l-41 -191q46 44 123 44q97 0 158 -61t61 -156z" />
    <glyph glyph-name="six.tnum" 
d="M553 230q0 -100 -69 -170t-182 -70q-123 0 -193 90t-70 247q-2 167 90 276.5t224 106.5q85 0 145 -52t70 -138h-133q-4 34 -26.5 54.5t-61.5 20.5h-8q-68 0 -119 -57.5t-61 -172.5q23 44 69.5 69.5t105.5 25.5q90 0 154.5 -64.5t64.5 -165.5zM420 225q0 50 -32 85t-80 35
h-8q-50 0 -85 -34.5t-35 -85.5q0 -49 34.5 -84.5t85.5 -35.5h8q48 0 80 34.5t32 85.5z" />
    <glyph glyph-name="seven.tnum" 
d="M25 700h545v-110q-82 -66 -137 -132q-126 -150 -126 -393v-65h-139v65q0 140 38 242q39 103 93 164q55 63 123 114h-397v115z" />
    <glyph glyph-name="eight.tnum" 
d="M77 180q0 118 118 159q-59 21 -95.5 68.5t-36.5 112.5q0 78 65.5 134t177.5 56q111 0 177 -56t66 -134q0 -65 -36.5 -112.5t-95.5 -68.5q118 -42 118 -159q0 -80 -61.5 -135t-167.5 -55t-167.5 55t-61.5 135zM301 400h10q43 0 74 28t31 70q0 41 -31 69t-74 28h-10
q-43 0 -74 -28t-31 -69q0 -42 31 -70t74 -28zM301 105h10q39 0 65 25t26 65t-26 65.5t-65 25.5h-10q-38 0 -64.5 -25.5t-26.5 -65.5t26 -65t65 -25z" />
    <glyph glyph-name="nine.tnum" 
d="M561 373q2 -167 -90 -276.5t-224 -106.5q-86 0 -144.5 52t-70.5 138h133q4 -34 26.5 -54.5t61.5 -20.5h8q67 0 119.5 57.5t60.5 172.5q-23 -44 -69.5 -69.5t-105.5 -25.5q-90 0 -154.5 64.5t-64.5 165.5q0 102 68.5 171t182.5 69q123 0 193 -89.5t70 -247.5zM420 475
q0 49 -34.5 84.5t-85.5 35.5h-8q-48 0 -80 -35t-32 -85q0 -51 32 -85.5t80 -34.5h8q50 0 85 34.5t35 85.5z" />
    <glyph glyph-name="zero.tnum_zero" 
d="M33 350q0 170 70.5 265t197.5 95t197.5 -95t70.5 -265t-70.5 -265t-197.5 -95t-197.5 95t-70.5 265zM172 270l233 252q-32 73 -100 73h-8q-62 0 -96 -64.5t-34 -180.5q0 -42 5 -80zM297 105h8q62 0 96 64.5t34 180.5q0 9 -2 53l-226 -244q35 -54 90 -54z" />
    <glyph glyph-name="zero.zero" horiz-adv-x="670" 
d="M50 350q0 164 76.5 262t208.5 98t208.5 -98t76.5 -262q0 -165 -75 -262.5t-210 -97.5t-210 97.5t-75 262.5zM190 258l258 279q-37 58 -108 58h-10q-147 0 -147 -245q0 -56 7 -92zM330 105h10q147 0 147 245q0 47 -4 75l-253 -273q38 -47 100 -47z" />
    <glyph glyph-name="zero.subs" horiz-adv-x="420" 
d="M36 82q0 86 44.5 144.5t129.5 58.5t129.5 -58.5t44.5 -144.5q0 -87 -44.5 -144.5t-129.5 -57.5t-129.5 57.5t-44.5 144.5zM208 -28h4q64 0 64 110q0 111 -64 111h-4q-64 0 -64 -111q0 -110 64 -110z" />
    <glyph glyph-name="one.subs" horiz-adv-x="301" 
d="M139 -115v256l-109 -90v126l125 103h89v-395h-105z" />
    <glyph glyph-name="two.subs" horiz-adv-x="374" 
d="M38 -115v84l149 135q38 32 38 57q0 15 -10.5 25.5t-26.5 10.5h-4q-16 0 -28 -12.5t-13 -30.5h-107q4 59 47.5 95t108.5 36q62 0 101.5 -35.5t39.5 -81.5q0 -31 -13.5 -54t-44.5 -52l-95 -87h154v-90h-296z" />
    <glyph glyph-name="three.subs" horiz-adv-x="378" 
d="M32 -3h108q1 -13 13.5 -21.5t28.5 -8.5h5q19 0 31.5 11t12.5 28t-12 26.5t-31 9.5h-37v84h37q40 0 40 36q0 16 -10 26t-28 10h-5q-15 0 -26 -8.5t-12 -19.5h-108q0 53 42.5 84t106.5 31q62 0 105 -31t43 -82q0 -64 -55 -87q58 -27 58 -93q0 -52 -46 -82t-110 -30
t-107.5 31.5t-43.5 85.5z" />
    <glyph glyph-name="four.subs" horiz-adv-x="406" 
d="M224 -115v62h-196v109l174 224h119v-249h53v-84h-53v-62h-97zM119 31h105v137z" />
    <glyph glyph-name="five.subs" horiz-adv-x="381" 
d="M27 5h112q4 -16 16.5 -26.5t29.5 -10.5h4q20 0 33.5 14.5t13.5 34.5t-12.5 32.5t-32.5 12.5h-4q-24 0 -38 -17h-108l44 235h252v-88h-174l-14 -67q26 23 72 23q48 0 84.5 -34t36.5 -92q0 -64 -44.5 -103t-115.5 -39q-64 0 -107.5 34.5t-47.5 90.5z" />
    <glyph glyph-name="six.subs" horiz-adv-x="395" 
d="M36 63q0 101 51 161.5t135 60.5q61 0 98.5 -33.5t39.5 -85.5h-104q-3 13 -13.5 22t-25.5 9h-6q-29 0 -50 -27t-25 -68q32 40 91 40q55 0 91 -35t36 -89q0 -61 -42.5 -99.5t-109.5 -38.5q-75 0 -120.5 50t-45.5 133zM197 -32h4q20 0 33.5 13t13.5 33q0 19 -13 31t-34 12
h-4q-19 0 -33 -13t-14 -31q0 -20 13.5 -32.5t33.5 -12.5z" />
    <glyph glyph-name="seven.subs" horiz-adv-x="344" 
d="M90 -115v13q0 170 114 292h-180v90h299v-78q-120 -123 -120 -299v-18h-113z" />
    <glyph glyph-name="eight.subs" horiz-adv-x="384" 
d="M44 -12q0 32 18.5 56.5t50.5 34.5q-75 29 -75 98q0 47 45 77.5t110 30.5t109.5 -30.5t44.5 -77.5q0 -70 -76 -98q32 -10 50.5 -34.5t18.5 -56.5q0 -47 -41 -77.5t-106 -30.5t-107 30.5t-42 77.5zM190 123h5q19 0 32.5 10t13.5 27t-13.5 27t-32.5 10h-5q-19 0 -32.5 -10
t-13.5 -27t13.5 -27t32.5 -10zM190 -32h5q16 0 27.5 10t11.5 25t-11.5 25.5t-27.5 10.5h-5q-16 0 -28 -10.5t-12 -25.5t12 -25t28 -10z" />
    <glyph glyph-name="nine.subs" horiz-adv-x="396" 
d="M36 -1h104q3 -13 13.5 -22t25.5 -9h6q29 0 50 27t25 68q-32 -40 -91 -40q-55 0 -91 35t-36 89q0 59 43 98.5t109 39.5q75 0 120.5 -50t45.5 -133q0 -101 -51 -161.5t-135 -60.5q-61 0 -98.5 33.5t-39.5 85.5zM195 108h4q19 0 33 13t14 31q0 20 -13.5 32.5t-33.5 12.5h-4
q-20 0 -33.5 -13t-13.5 -33q0 -19 13 -31t34 -12z" />
    <glyph glyph-name="zero.dnom" horiz-adv-x="420" 
d="M36 197q0 86 44.5 144.5t129.5 58.5t129.5 -58.5t44.5 -144.5q0 -87 -44.5 -144.5t-129.5 -57.5t-129.5 57.5t-44.5 144.5zM208 87h4q64 0 64 110q0 111 -64 111h-4q-64 0 -64 -111q0 -110 64 -110z" />
    <glyph glyph-name="one.dnom" horiz-adv-x="301" 
d="M139 0v256l-109 -90v126l125 103h89v-395h-105z" />
    <glyph glyph-name="two.dnom" horiz-adv-x="374" 
d="M38 0v84l149 135q38 32 38 57q0 15 -10.5 25.5t-26.5 10.5h-4q-16 0 -28 -12.5t-13 -30.5h-107q4 59 47.5 95t108.5 36q62 0 101.5 -35.5t39.5 -81.5q0 -31 -13.5 -54t-44.5 -52l-95 -87h154v-90h-296z" />
    <glyph glyph-name="three.dnom" horiz-adv-x="378" 
d="M32 112h108q1 -13 13.5 -21.5t28.5 -8.5h5q19 0 31.5 11t12.5 28t-12 26.5t-31 9.5h-37v84h37q40 0 40 36q0 16 -10 26t-28 10h-5q-15 0 -26 -8.5t-12 -19.5h-108q0 53 42.5 84t106.5 31q62 0 105 -31t43 -82q0 -64 -55 -87q58 -27 58 -93q0 -52 -46 -82t-110 -30
t-107.5 31.5t-43.5 85.5z" />
    <glyph glyph-name="four.dnom" horiz-adv-x="406" 
d="M224 0v62h-196v109l174 224h119v-249h53v-84h-53v-62h-97zM119 146h105v137z" />
    <glyph glyph-name="five.dnom" horiz-adv-x="381" 
d="M27 120h112q4 -16 16.5 -26.5t29.5 -10.5h4q20 0 33.5 14.5t13.5 34.5t-12.5 32.5t-32.5 12.5h-4q-24 0 -38 -17h-108l44 235h252v-88h-174l-14 -67q26 23 72 23q48 0 84.5 -34t36.5 -92q0 -64 -44.5 -103t-115.5 -39q-64 0 -107.5 34.5t-47.5 90.5z" />
    <glyph glyph-name="six.dnom" horiz-adv-x="395" 
d="M36 178q0 101 51 161.5t135 60.5q61 0 98.5 -33.5t39.5 -85.5h-104q-3 13 -13.5 22t-25.5 9h-6q-29 0 -50 -27t-25 -68q32 40 91 40q55 0 91 -35t36 -89q0 -61 -42.5 -99.5t-109.5 -38.5q-75 0 -120.5 50t-45.5 133zM197 83h4q20 0 33.5 13t13.5 33q0 19 -13 31t-34 12
h-4q-19 0 -33 -13t-14 -31q0 -20 13.5 -32.5t33.5 -12.5z" />
    <glyph glyph-name="seven.dnom" horiz-adv-x="344" 
d="M90 0v13q0 170 114 292h-180v90h299v-78q-120 -123 -120 -299v-18h-113z" />
    <glyph glyph-name="eight.dnom" horiz-adv-x="384" 
d="M44 103q0 32 18.5 56.5t50.5 34.5q-75 28 -75 98q0 47 45 77.5t110 30.5t109.5 -30.5t44.5 -77.5q0 -70 -76 -98q32 -10 50.5 -34.5t18.5 -56.5q0 -47 -41 -77.5t-106 -30.5t-107 30.5t-42 77.5zM190 238h5q19 0 32.5 10t13.5 27t-13.5 27t-32.5 10h-5q-19 0 -32.5 -10
t-13.5 -27t13.5 -27t32.5 -10zM190 83h5q16 0 27.5 10t11.5 25t-11.5 25.5t-27.5 10.5h-5q-16 0 -28 -10.5t-12 -25.5t12 -25t28 -10z" />
    <glyph glyph-name="nine.dnom" horiz-adv-x="396" 
d="M36 114h104q3 -13 13.5 -22t25.5 -9h6q29 0 50 27t25 68q-32 -40 -91 -40q-55 0 -91 35t-36 89q0 59 43 98.5t109 39.5q75 0 120.5 -50t45.5 -133q0 -101 -51 -161.5t-135 -60.5q-61 0 -98.5 33.5t-39.5 85.5zM195 223h4q19 0 33 13t14 31q0 20 -13.5 32.5t-33.5 12.5h-4
q-20 0 -33.5 -13t-13.5 -33q0 -19 13 -31t34 -12z" />
    <glyph glyph-name="zero.numr" horiz-adv-x="420" 
d="M36 502q0 86 44.5 144.5t129.5 58.5t129.5 -58.5t44.5 -144.5q0 -87 -44.5 -144.5t-129.5 -57.5t-129.5 57.5t-44.5 144.5zM208 392h4q64 0 64 110q0 111 -64 111h-4q-64 0 -64 -111q0 -110 64 -110z" />
    <glyph glyph-name="one.numr" horiz-adv-x="301" 
d="M139 305v256l-109 -90v126l125 103h89v-395h-105z" />
    <glyph glyph-name="two.numr" horiz-adv-x="374" 
d="M38 305v84l149 135q38 32 38 57q0 15 -10.5 25.5t-26.5 10.5h-4q-16 0 -28 -12.5t-13 -30.5h-107q4 59 47.5 95t108.5 36q62 0 101.5 -35.5t39.5 -81.5q0 -31 -13.5 -54t-44.5 -52l-95 -87h154v-90h-296z" />
    <glyph glyph-name="three.numr" horiz-adv-x="378" 
d="M32 417h108q1 -13 13.5 -21.5t28.5 -8.5h5q19 0 31.5 11t12.5 28t-12 26.5t-31 9.5h-37v84h37q40 0 40 36q0 16 -10 26t-28 10h-5q-15 0 -26 -8.5t-12 -19.5h-108q0 53 42.5 84t106.5 31q62 0 105 -31t43 -82q0 -64 -55 -87q58 -27 58 -93q0 -52 -46 -82t-110 -30
t-107.5 31.5t-43.5 85.5z" />
    <glyph glyph-name="four.numr" horiz-adv-x="406" 
d="M224 305v62h-196v109l174 224h119v-249h53v-84h-53v-62h-97zM119 451h105v137z" />
    <glyph glyph-name="five.numr" horiz-adv-x="381" 
d="M27 425h112q4 -16 16.5 -26.5t29.5 -10.5h4q20 0 33.5 14.5t13.5 34.5t-12.5 32.5t-32.5 12.5h-4q-24 0 -38 -17h-108l44 235h252v-88h-174l-14 -67q26 23 72 23q48 0 84.5 -34t36.5 -92q0 -64 -44.5 -103t-115.5 -39q-64 0 -107.5 34.5t-47.5 90.5z" />
    <glyph glyph-name="six.numr" horiz-adv-x="395" 
d="M36 483q0 101 51 161.5t135 60.5q61 0 98.5 -33.5t39.5 -85.5h-104q-3 13 -13.5 22t-25.5 9h-6q-29 0 -50 -27t-25 -68q32 40 91 40q55 0 91 -35t36 -89q0 -61 -42.5 -99.5t-109.5 -38.5q-75 0 -120.5 50t-45.5 133zM197 388h4q20 0 33.5 13t13.5 33q0 19 -13 31t-34 12
h-4q-19 0 -33 -13t-14 -31q0 -20 13.5 -32.5t33.5 -12.5z" />
    <glyph glyph-name="seven.numr" horiz-adv-x="344" 
d="M90 305v13q0 170 114 292h-180v90h299v-78q-120 -123 -120 -299v-18h-113z" />
    <glyph glyph-name="eight.numr" horiz-adv-x="384" 
d="M44 408q0 32 18.5 56.5t50.5 34.5q-75 29 -75 98q0 47 45 77.5t110 30.5t109.5 -30.5t44.5 -77.5q0 -70 -76 -98q32 -10 50.5 -34.5t18.5 -56.5q0 -47 -41 -77.5t-106 -30.5t-107 30.5t-42 77.5zM190 543h5q19 0 32.5 10t13.5 27t-13.5 27t-32.5 10h-5q-19 0 -32.5 -10
t-13.5 -27t13.5 -27t32.5 -10zM190 388h5q16 0 27.5 10t11.5 25t-11.5 25.5t-27.5 10.5h-5q-16 0 -28 -10.5t-12 -25.5t12 -25t28 -10z" />
    <glyph glyph-name="nine.numr" horiz-adv-x="396" 
d="M36 419h104q3 -13 13.5 -22t25.5 -9h6q29 0 50 27t25 68q-32 -40 -91 -40q-55 0 -91 35t-36 89q0 59 43 98.5t109 39.5q75 0 120.5 -50t45.5 -133q0 -101 -51 -161.5t-135 -60.5q-61 0 -98.5 33.5t-39.5 85.5zM195 528h4q19 0 33 13t14 31q0 20 -13.5 32.5t-33.5 12.5h-4
q-20 0 -33.5 -13t-13.5 -33q0 -19 13 -31t34 -12z" />
    <glyph glyph-name="zero.subs_zero" horiz-adv-x="420" 
d="M36 82q0 86 44.5 144.5t129.5 58.5t129.5 -58.5t44.5 -144.5q0 -87 -44.5 -144.5t-129.5 -57.5t-129.5 57.5t-44.5 144.5zM145 53l110 118q-16 22 -43 22h-4q-64 0 -64 -111q0 -23 1 -29zM208 -28h4q64 0 64 110q0 23 -1 29l-110 -118q17 -21 43 -21z" />
    <glyph glyph-name="zero.dnom_zero" horiz-adv-x="420" 
d="M36 197q0 86 44.5 144.5t129.5 58.5t129.5 -58.5t44.5 -144.5q0 -87 -44.5 -144.5t-129.5 -57.5t-129.5 57.5t-44.5 144.5zM145 168l110 118q-16 22 -43 22h-4q-64 0 -64 -111q0 -23 1 -29zM208 87h4q64 0 64 110q0 23 -1 29l-110 -118q17 -21 43 -21z" />
    <glyph glyph-name="zero.numr_zero" horiz-adv-x="420" 
d="M36 502q0 86 44.5 144.5t129.5 58.5t129.5 -58.5t44.5 -144.5q0 -87 -44.5 -144.5t-129.5 -57.5t-129.5 57.5t-44.5 144.5zM145 473l110 118q-16 22 -43 22h-4q-64 0 -64 -111q0 -23 1 -29zM208 392h4q64 0 64 110q0 23 -1 29l-110 -118q17 -21 43 -21z" />
    <glyph glyph-name="uni2070.zero" horiz-adv-x="420" 
d="M36 612q0 86 44.5 144.5t129.5 58.5t129.5 -58.5t44.5 -144.5q0 -87 -44.5 -144.5t-129.5 -57.5t-129.5 57.5t-44.5 144.5zM145 583l110 118q-16 22 -43 22h-4q-64 0 -64 -111q0 -23 1 -29zM208 502h4q64 0 64 110q0 23 -1 29l-110 -118q17 -21 43 -21z" />
    <glyph glyph-name="exclamdown.case" horiz-adv-x="289" 
d="M179 525l31 -285v-240h-133v240l31 285h71zM214 700v-135h-140v135h140z" />
    <glyph glyph-name="questiondown.case" horiz-adv-x="491" 
d="M363 510v-154q0 -38 -21 -59t-58 -21h-27q-93 0 -93 -80q0 -37 25.5 -58.5t67.5 -21.5h200v-115h-218q-91 0 -149 53.5t-58 141.5q0 79 49.5 132t132.5 53q15 0 20.5 5t5.5 20v104h123zM372 701v-135h-140v135h140z" />
    <glyph glyph-name="_497" horiz-adv-x="517" 
d="M363 510v-119q0 -32 -12 -49t-43 -30l-53 -22q-53 -23 -71.5 -41.5t-21.5 -65.5q0 -40 25 -64t70 -24q42 0 69 26.5t31 68.5h130q-3 -89 -70 -144.5t-160 -55.5q-97 0 -161 53t-64 140q0 128 145 193l37 16q15 7 19.5 15.5t4.5 29.5v73h125zM371 700v-135h-140v135h140z
" />
    <glyph glyph-name="question.ss05" horiz-adv-x="518" 
d="M154 190v119q0 32 12 49t43 30l53 22q53 23 71.5 41.5t21.5 65.5q0 40 -25 64t-70 24q-42 0 -69 -26.5t-31 -68.5h-130q3 89 70 144.5t160 55.5q97 0 161 -53t64 -140q0 -128 -145 -193l-37 -16q-15 -7 -19.5 -15.5t-4.5 -29.5v-73h-125zM146 0v135h140v-135h-140z" />
    <glyph glyph-name="questiondown.ss05" horiz-adv-x="512" 
d="M361 310v-119q0 -32 -12 -49t-43 -30l-53 -22q-53 -23 -71.5 -41.5t-21.5 -65.5q0 -40 25 -64t70 -24q42 0 69 26.5t31 68.5h130q-3 -89 -70 -144.5t-160 -55.5q-97 0 -161 53t-64 140q0 128 145 193l37 16q15 7 19.5 15.5t4.5 29.5v73h125zM369 500v-135h-140v135h140z
" />
    <glyph glyph-name="colon.tnum" 
d="M227 0v145h145v-145h-145zM227 355v145h145v-145h-145z" />
    <glyph glyph-name="comma.tnum" 
d="M195 -150v75h36q62 0 62 65v10h-65v145h145v-160q0 -54 -40 -94.5t-97 -40.5h-41z" />
    <glyph glyph-name="numbersign.tnum" 
d="M569 425h-82l-31 -150h93v-115h-117l-33 -160h-118l33 160h-100l-33 -160h-118l33 160h-66v115h90l31 150h-101v115h125l33 160h118l-33 -160h100l33 160h118l-33 -160h58v-115zM338 275l31 150h-100l-31 -150h100z" />
    <glyph glyph-name="period.tnum" 
d="M227 0v145h145v-145h-145z" />
    <glyph glyph-name="semicolon.tnum" 
d="M195 -150v75h36q62 0 62 65v10h-65v145h145v-160q0 -54 -40 -94.5t-97 -40.5h-41zM228 355v145h145v-145h-145z" />
    <glyph glyph-name="braceleft.case" horiz-adv-x="394" 
d="M114 155v48q0 38 -10.5 51.5t-40.5 13.5h-15v164h15q30 0 40.5 13.5t10.5 51.5v48q0 155 134 155h95v-120h-40q-38 0 -48.5 -11.5t-10.5 -53.5v-70q0 -83 -81 -83v-24q81 0 81 -83v-70q0 -42 10.5 -53.5t48.5 -11.5h40v-120h-95q-134 0 -134 155z" />
    <glyph glyph-name="braceright.case" horiz-adv-x="394" 
d="M280 546v-48q0 -38 10.5 -51.5t40.5 -13.5h15v-164h-15q-30 0 -40.5 -13.5t-10.5 -51.5v-48q0 -155 -134 -155h-95v120h40q38 0 48.5 11.5t10.5 53.5v70q0 83 81 83v24q-81 0 -81 83v70q0 42 -10.5 53.5t-48.5 11.5h-40v120h95q134 0 134 -155z" />
    <glyph glyph-name="bracketleft.case" horiz-adv-x="361" 
d="M85 0v700h220v-120h-85v-460h85v-120h-220z" />
    <glyph glyph-name="bracketright.case" horiz-adv-x="361" 
d="M276 700v-700h-220v120h85v460h-85v120h220z" />
    <glyph glyph-name="parenleft.case" horiz-adv-x="378" 
d="M48 349q-2 141 81.5 250t198.5 111v-125q-67 -22 -106 -81.5t-39 -153.5q0 -95 39 -154.5t106 -80.5v-125q-116 3 -199 111t-81 248z" />
    <glyph glyph-name="parenright.case" horiz-adv-x="378" 
d="M330 351q2 -141 -81.5 -250t-198.5 -111v125q67 22 106 81.5t39 153.5q0 95 -39 154.5t-106 80.5v125q116 -3 199 -111t81 -248z" />
    <glyph glyph-name="emdash.frac" horiz-adv-x="922" 
d="M66 298v105h790v-105h-790z" />
    <glyph glyph-name="endash.frac" horiz-adv-x="602" 
d="M66 298v105h470v-105h-470z" />
    <glyph glyph-name="hyphen.frac" horiz-adv-x="422" 
d="M66 298v105h290v-105h-290z" />
    <glyph glyph-name="uni00AD.frac" horiz-adv-x="422" 
d="M66 298v105h290v-105h-290z" />
    <glyph glyph-name="guillemotleft.case" horiz-adv-x="635" 
d="M337 565l-145 -215l145 -215h-150l-145 215l145 215h150zM576 565l-145 -215l145 -215h-150l-145 215l145 215h150z" />
    <glyph glyph-name="guillemotright.case" horiz-adv-x="635" 
d="M209 565l145 -215l-145 -215h-150l145 215l-145 215h150zM448 565l145 -215l-145 -215h-150l145 215l-145 215h150z" />
    <glyph glyph-name="guilsinglleft.case" horiz-adv-x="396" 
d="M337 565l-145 -215l145 -215h-150l-145 215l145 215h150z" />
    <glyph glyph-name="guilsinglright.case" horiz-adv-x="396" 
d="M209 565l145 -215l-145 -215h-150l145 215l-145 215h150z" />
    <glyph glyph-name="space.tnum" 
 />
    <glyph glyph-name="cent.tnum" 
d="M403 175h129q-7 -84 -66 -134.5t-149 -50.5h-1l-19 -110h-103l21 128q-70 27 -109 91.5t-39 150.5q0 110 62.5 182.5t170.5 76.5l19 111h103l-21 -123q57 -20 91 -64.5t40 -107.5h-129q-5 30 -23 47l-45 -268q27 4 45.5 23.5t22.5 47.5zM237 135l43 257q-39 -12 -61 -51
t-22 -91q0 -75 40 -115z" />
    <glyph glyph-name="currency.tnum" 
d="M500 205l83 -80l-90 -90l-81 77q-51 -27 -113 -27q-60 0 -112 26l-79 -76l-90 90l80 77q-23 48 -23 103q0 50 20 98l-77 77l90 90l76 -73q50 28 115 28q64 0 117 -29l77 74l90 -90l-81 -81q19 -42 19 -94q0 -53 -21 -100zM392 305q0 45 -25 75t-65 30h-8q-40 0 -65 -30
t-25 -75q0 -44 25 -74.5t65 -30.5h8q40 0 65 30.5t25 74.5z" />
    <glyph glyph-name="dollar.tnum" horiz-adv-x="615" 
d="M572 205q0 -94 -69.5 -154.5t-189.5 -60.5l-19 -110h-115l21 124q-83 23 -128 83t-48 148h132q5 -73 64 -108l29 172l-13 3q-177 38 -177 198q0 86 69.5 148t187.5 62h3l18 110h115l-22 -128q73 -25 113 -81t40 -131h-132q-3 57 -42 87l-27 -163q95 -21 142.5 -69
t47.5 -130zM271 426l28 169q-48 -3 -78 -29t-30 -61q0 -33 18.5 -51t61.5 -28zM440 195q0 34 -17.5 53t-61.5 28l-29 -171q50 1 79 27t29 63z" />
    <glyph glyph-name="Euro.tnum" 
d="M449 210h131q-1 -98 -67.5 -159t-171.5 -61q-81 0 -140 45.5t-90 130.5l-91 -20v107l66 14q-2 21 -4 66l-62 -13v107l67 14q18 126 85 197.5t169 71.5q103 0 168.5 -60.5t70.5 -159.5h-131q-6 49 -33 77t-71 28h-8q-91 0 -117 -125l149 32v-107l-160 -35v-7q0 -17 2 -59
l116 25v-107l-95 -21q32 -86 105 -86h8q44 0 71 28t33 77z" />
    <glyph glyph-name="sterling.tnum" 
d="M242 115h322v-115h-516v115h43q32 0 46 14.5t17 47.5l6 87l-112 -27v110l121 29l8 114q17 210 222 210h115v-115h-118q-44 0 -64 -21.5t-24 -78.5l-6 -77l111 26v-110l-119 -29l-8 -98q-3 -31 -12.5 -49t-31.5 -33z" />
    <glyph glyph-name="yen.tnum" horiz-adv-x="650" 
d="M645 700l-162 -263l74 16v-110l-152 -33l-13 -22v-44l135 30v-110l-135 -30v-134h-133v104l-133 -29v110l133 29v63l-163 -36v110l110 24l-199 325h143l179 -293l176 293h140z" />
    <glyph glyph-name="plus.case" horiz-adv-x="573" 
d="M220 108v185h-180v115h180v185h133v-185h180v-115h-180v-185h-133z" />
    <glyph glyph-name="minus.case" horiz-adv-x="628" 
d="M67 293v115h494v-115h-494z" />
    <glyph glyph-name="x.frac" horiz-adv-x="548" 
d="M501 207l-83 -83l-145 144l-144 -144l-81 82l144 144l-145 145l83 83l145 -145l144 144l81 -82l-144 -144z" />
    <glyph glyph-name="divide.case" horiz-adv-x="592" 
d="M226 453v135h140v-135h-140zM49 293v115h494v-115h-494zM226 113v135h140v-135h-140z" />
    <glyph glyph-name="equal.case" horiz-adv-x="628" 
d="M67 393v115h494v-115h-494zM67 193v115h494v-115h-494z" />
    <glyph glyph-name="notequal.case" horiz-adv-x="628" 
d="M561 393h-177l-27 -85h204v-115h-239l-26 -85h-123l26 85h-132v115h168l26 85h-194v115h230l26 85h123l-27 -85h142v-115z" />
    <glyph glyph-name="greater.case" horiz-adv-x="528" 
d="M63 580l425 -170v-120l-425 -170v130l261 99l-261 98v133z" />
    <glyph glyph-name="less.case" horiz-adv-x="528" 
d="M465 579v-130l-261 -98l261 -99v-133l-425 170v120z" />
    <glyph glyph-name="greaterequal.case" horiz-adv-x="619" 
d="M65 618l494 -117v-160l-494 -117v125l327 71l-327 71v127zM65 93v113h494v-113h-494z" />
    <glyph glyph-name="lessequal.case" horiz-adv-x="619" 
d="M554 618v-125l-327 -71l327 -71v-127l-494 117v160zM60 93v113h494v-113h-494z" />
    <glyph glyph-name="plusminus.case" horiz-adv-x="620" 
d="M243 263v105h-180v115h180v110h133v-110h181v-115h-181v-105h-133zM63 93v114h494v-114h-494z" />
    <glyph glyph-name="approxequal.case" horiz-adv-x="628" 
d="M308 400q-55 19 -70 19q-40 0 -40 -38h-130v40q0 51 40 87t97 36q49 0 125 -30q48 -18 62 -18q40 0 40 38h130v-40q0 -52 -39.5 -87.5t-95.5 -35.5q-44 0 -119 29zM308 182q-55 19 -70 19q-40 0 -40 -38h-130v40q0 52 40 87.5t97 35.5q47 0 125 -30q48 -18 62 -18
q40 0 40 38h130v-40q0 -52 -39 -87.5t-96 -35.5q-41 0 -119 29z" />
    <glyph glyph-name="logicalnot.case" horiz-adv-x="617" 
d="M413 208v135h-349v115h482v-250h-133z" />
    <glyph glyph-name="x.tnum" 
d="M527 206l-83 -83l-145 144l-144 -144l-81 82l144 144l-145 145l83 83l145 -145l144 144l81 -82l-144 -144z" />
    <glyph glyph-name="plus.tnum" 
d="M234 108v185h-170v115h170v185h131v-185h170v-115h-170v-185h-131z" />
    <glyph glyph-name="minus.tnum" 
d="M65 294v115h470v-115h-470z" />
    <glyph glyph-name="multiply.tnum" 
d="M527 206l-83 -83l-145 144l-144 -144l-81 82l144 144l-145 145l83 83l145 -145l144 144l81 -82l-144 -144z" />
    <glyph glyph-name="divide.tnum" 
d="M230 454v135h140v-135h-140zM53 294v115h494v-115h-494zM230 114v135h140v-135h-140z" />
    <glyph glyph-name="equal.tnum" 
d="M65 387v115h470v-115h-470zM65 197v115h470v-115h-470z" />
    <glyph glyph-name="notequal.tnum" 
d="M535 387h-161l-24 -75h185v-115h-221l-27 -89h-123l27 89h-126v115h162l23 75h-185v115h221l28 91h123l-28 -91h126v-115z" />
    <glyph glyph-name="greater.tnum" 
d="M105 578l425 -170v-120l-425 -170v130l261 99l-261 98v133z" />
    <glyph glyph-name="less.tnum" 
d="M496 576v-130l-261 -98l261 -99v-133l-425 170v120z" />
    <glyph glyph-name="greaterequal.tnum" 
d="M82 624l445 -122v-150l-445 -122v124l299 72l-299 72v126zM82 99v115h445v-115h-445z" />
    <glyph glyph-name="lessequal.tnum" 
d="M518 624v-124l-299 -72l299 -72v-126l-445 122v150zM73 99v115h445v-115h-445z" />
    <glyph glyph-name="plusminus.tnum" 
d="M234 278v105h-164v115h164v110h131v-110h164v-115h-164v-105h-131zM70 108v114h459v-114h-459z" />
    <glyph glyph-name="approxequal.tnum" 
d="M297 403q-55 19 -70 19q-40 0 -40 -38h-130v40q0 51 40 87t97 36q48 0 124 -30q48 -18 63 -18q40 0 40 38h130v-40q0 -52 -39 -87.5t-96 -35.5q-41 0 -119 29zM297 185q-55 19 -70 19q-40 0 -40 -38h-130v40q0 51 40 87t97 36q47 0 124 -30q48 -18 63 -18q40 0 40 38h130
v-40q0 -52 -39.5 -87.5t-95.5 -35.5q-44 0 -119 29z" />
    <glyph glyph-name="logicalnot.tnum" 
d="M404 158v135h-349v115h482v-250h-133z" />
    <glyph glyph-name="percent.tnum" 
d="M45 550q0 71 35.5 113t94.5 42t94.5 -42t35.5 -113t-35.5 -113t-94.5 -42t-94.5 42t-35.5 113zM220 550q0 80 -45 80t-45 -80t45 -80t45 80zM130 222v86l340 170v-86zM295 150q0 71 35.5 113t94.5 42t94.5 -42t35.5 -113t-35.5 -113t-94.5 -42t-94.5 42t-35.5 113z
M470 150q0 80 -45 80t-45 -80t45 -80t45 80z" />
    <glyph glyph-name="perthousand.tnum" 
d="M17 550q0 71 35.5 113t94.5 42t94.5 -42t35.5 -113t-35.5 -113t-94.5 -42t-94.5 42t-35.5 113zM192 550q0 80 -45 80t-45 -80t45 -80t45 80zM48 224v81l340 170v-81zM162 150q0 71 35.5 113t94.5 42q54 0 88 -34q31 34 87 34q59 0 94.5 -42t35.5 -113t-35.5 -113
t-94.5 -42q-56 0 -87 34q-34 -34 -88 -34q-59 0 -94.5 42t-35.5 113zM337 150q0 80 -45 80t-45 -80t45 -80t45 80zM512 150q0 80 -45 80t-45 -80t45 -80t45 80z" />
    <glyph glyph-name="_662" horiz-adv-x="542" 
d="M41 510q0 94 68 162t162 68t162 -68t68 -162t-68 -162t-162 -68q-93 0 -161.5 68t-68.5 162zM445 510q0 73 -51 124.5t-123 51.5q-71 0 -122.5 -51.5t-51.5 -124.5t51.5 -124.5t122.5 -51.5q72 0 123 51.5t51 124.5zM166 510q0 59 29 92t79 33q42 0 68.5 -22t29.5 -59
h-63q-5 31 -33 31h-4q-20 0 -31 -20.5t-11 -54.5t11 -55t31 -21h4q24 0 31 30h63q-3 -37 -28.5 -58t-67.5 -21q-50 0 -79 32.5t-29 92.5z" />
    <glyph glyph-name="_663" horiz-adv-x="543" 
d="M41 510q0 94 68 162t162 68t162 -68t68 -162t-68 -162t-162 -68q-93 0 -161.5 68t-68.5 162zM445 510q0 73 -51 124.5t-123 51.5q-71 0 -122.5 -51.5t-51.5 -124.5t51.5 -124.5t122.5 -51.5q72 0 123 51.5t51 124.5zM187 393v230h98q38 0 59.5 -17.5t21.5 -45.5
q0 -23 -12.5 -39.5t-31.5 -20.5q41 0 41 -34v-73h-57v60q0 13 -5.5 18t-19.5 5h-37v-83h-57zM244 523h33q32 0 32 28q0 25 -34 25h-31v-53z" />
    <glyph glyph-name="_664" 
d="M41 510q0 94 68 162t162 68t162 -68t68 -162t-68 -162t-162 -68q-93 0 -161.5 68t-68.5 162zM445 510q0 73 -51 124.5t-123 51.5q-71 0 -122.5 -51.5t-51.5 -124.5t51.5 -124.5t122.5 -51.5q72 0 123 51.5t51 124.5zM194 395v230h103q36 0 56.5 -20t20.5 -56t-20.5 -56
t-56.5 -20h-46v-78h-57zM251 520h30q35 0 35 29t-35 29h-30v-58z" />
    <glyph glyph-name="at.case" horiz-adv-x="944" 
d="M45 335q-2 75 21.5 142.5t66 118.5t98.5 89t121.5 57t132.5 18q109 1 204.5 -48.5t151.5 -135.5t54 -186q0 -124 -61 -194.5t-149 -70.5h-128v55q-37 -65 -121 -65q-76 0 -126.5 62.5t-50.5 150.5q0 87 50.5 149.5t126.5 62.5q84 0 121 -65v55h115v-315h4q44 0 71.5 43
t27.5 132q0 116 -80.5 190.5t-209.5 74.5q-133 2 -227.5 -89.5t-92.5 -230.5q0 -149 91 -234.5t239 -85.5h255v-110h-265q-199 0 -319.5 111.5t-120.5 318.5zM467 214h5q36 0 58 34t22 80q0 45 -22 79t-58 34h-5q-35 0 -57.5 -31.5t-22.5 -81.5q0 -52 22 -83t58 -31z" />
    <glyph glyph-name="_666" horiz-adv-x="798" 
d="M45 333q-3 187 112.5 308t282.5 119q134 0 212 -71.5t78 -179.5v-384h-120v69q-43 -79 -137 -79q-77 0 -130 60.5t-53 154.5q0 93 53 151.5t130 58.5q102 0 137 -80v36q0 75 -44.5 114.5t-128.5 39.5h-8q-115 0 -187 -87t-72 -228q-2 -138 92.5 -230t232.5 -90h235v-110
h-245q-185 -3 -313.5 118.5t-126.5 309.5zM505 215h7q38 0 63.5 33t25.5 82q0 50 -25 80t-64 30h-7q-40 0 -65 -30t-25 -80q0 -49 25.5 -82t64.5 -33z" />
    <glyph glyph-name="ampersand.ss04" horiz-adv-x="683" 
d="M676 0h-151l-46 48q-82 -58 -206 -58q-100 0 -164.5 46t-64.5 132q0 110 121 182l20 12q-46 49 -65.5 86.5t-20.5 93.5q0 72 56.5 120t136.5 48t136.5 -48t56.5 -120q0 -122 -117 -204l101 -111q18 50 18 151v22h125v-27q0 -152 -55 -243zM290 423l1 1q64 37 64 108
q0 33 -16.5 53t-46.5 20t-46.5 -20t-16.5 -53q3 -34 14 -53t47 -56zM400 133l-134 143l-36 -21q-56 -34 -56 -85q0 -35 30 -55t77 -20q69 0 119 38z" />
    <glyph glyph-name="at.ss06" horiz-adv-x="798" 
d="M45 303q-3 187 112.5 308t282.5 119q134 0 212 -71.5t78 -179.5v-384h-120v69q-43 -79 -137 -79q-77 0 -130 60.5t-53 154.5q0 93 53 151.5t130 58.5q102 0 137 -80v36q0 75 -44.5 114.5t-128.5 39.5h-8q-115 0 -187 -87t-72 -228q-2 -138 92.5 -230t232.5 -90h235v-110
h-245q-185 -3 -313.5 118.5t-126.5 309.5zM505 185h7q38 0 63.5 33t25.5 82q0 50 -25 80t-64 30h-7q-40 0 -65 -30t-25 -80q0 -49 25.5 -82t64.5 -33z" />
    <glyph glyph-name="section.tnum" 
d="M109 -60v105h205q52 0 52 41q0 30 -45 47l-139 52q-58 22 -85.5 54t-27.5 80q0 79 91 128q-53 38 -53 110q0 70 45.5 106.5t133.5 36.5h188v-105h-180q-57 0 -57 -40q0 -34 43 -46l91 -30q87 -29 125 -61t38 -91q0 -42 -25 -78t-68 -57q58 -45 58 -108t-45.5 -103.5
t-135.5 -40.5h-209zM401 308q0 41 -62 61l-87 28q-50 -21 -50 -67q0 -15 8.5 -25t17.5 -14.5t33 -14.5l88 -33q25 8 38.5 27t13.5 38z" />
    <glyph glyph-name="degree.tnum" 
d="M115 525q0 78 53.5 131.5t131.5 53.5t131.5 -53.5t53.5 -131.5t-53.5 -131.5t-131.5 -53.5t-131.5 53.5t-53.5 131.5zM371 525q0 30 -21 51t-50 21q-30 0 -50.5 -21t-20.5 -51q0 -33 20.5 -55t50.5 -22t50.5 22t20.5 55z" />
    <glyph glyph-name="_676" horiz-adv-x="0" 
d="M-170 455v75h24q53 0 53 39v1h-52v130h130v-130q0 -51 -35 -83t-92 -32h-28z" />
    <glyph glyph-name="_692" horiz-adv-x="0" 
d="M-390 290v120h360v-120h-360z" />
    <glyph glyph-name="_693" horiz-adv-x="0" 
d="M-430 183v135l400 224v-134z" />
    <glyph glyph-name="_694" horiz-adv-x="0" 
d="M-441 -51l-84 70l406 530l89 -66z" />
    <glyph glyph-name="_695" horiz-adv-x="0" 
d="M-375 555v90h345v-90h-345z" />
    <glyph glyph-name="_696" horiz-adv-x="0" 
d="M-350 765v120h125v-120h-125zM-155 765v120h125v-120h-125z" />
    <glyph glyph-name="_697" horiz-adv-x="0" 
d="M-170 765v135h140v-135h-140z" />
    <glyph glyph-name="_698" horiz-adv-x="0" 
d="M-120 745l-105 145h155l40 -145h-90z" />
    <glyph glyph-name="_699" horiz-adv-x="0" 
d="M-225 745l40 145h155l-105 -145h-90z" />
    <glyph glyph-name="_700" horiz-adv-x="0" 
d="M-414 745l40 145h155l-105 -145h-90zM-225 745l40 145h155l-105 -145h-90z" />
    <glyph glyph-name="_701" horiz-adv-x="0" 
d="M-30 745h-110l-80 58l-80 -58h-110l120 145h140z" />
    <glyph glyph-name="_702" horiz-adv-x="0" 
d="M-140 890h110l-120 -145h-140l-120 145h110l80 -58z" />
    <glyph glyph-name="_703" horiz-adv-x="0" 
d="M-370 890h110q3 -26 19 -40.5t41 -14.5t41 14.5t19 40.5h110q-1 -68 -48.5 -109t-121.5 -41t-121.5 41t-48.5 109z" />
    <glyph glyph-name="_704" horiz-adv-x="0" 
d="M-250 840q0 43 34 76.5t76 33.5q46 0 78 -33t32 -77q0 -47 -31.5 -78.5t-78.5 -31.5q-44 0 -77 32t-33 78zM-100 840q0 15 -12 27.5t-27 12.5t-27.5 -12.5t-12.5 -27.5q0 -16 12.5 -28t27.5 -12q16 0 27.5 12t11.5 28z" />
    <glyph glyph-name="_705" horiz-adv-x="0" 
d="M-220 774l-18 10q-28 16 -45 16q-15 1 -23 -10t-8 -30h-95v26q0 47 33 80.5t79 33.5q38 0 75 -20l18 -10l10 -5q22 -15 39 -15q30 0 30 40h95v-26q0 -52 -28.5 -83t-81.5 -31q-35 0 -80 24z" />
    <glyph glyph-name="_706" horiz-adv-x="0" 
d="M-365 765v110h335v-110h-335z" />
    <glyph glyph-name="_707" horiz-adv-x="0" 
d="M-160 -195v130h130v-130h-130z" />
    <glyph glyph-name="_721" horiz-adv-x="304" 
d="M99 766l25 135h150l-96 -135h-79zM30 635q0 41 32 73t73 32q43 0 74 -31.5t31 -73.5q0 -45 -30 -75t-75 -30q-42 0 -73.5 31t-31.5 74zM180 635q0 18 -12.5 31t-30.5 13t-31 -13t-13 -31t13 -31t31 -13t30.5 13t12.5 31z" />
    <glyph glyph-name="_722" horiz-adv-x="254" 
d="M83 928l16 88h125l-62 -88h-79zM30 818q0 38 25.5 63.5t63.5 25.5t63.5 -25.5t25.5 -63.5t-25.5 -63.5t-63.5 -25.5t-63.5 25.5t-25.5 63.5zM152 818q0 14 -10 24t-23 10q-14 0 -24 -10t-10 -24t10 -24t24 -10t23.5 10t9.5 24z" />
    <glyph glyph-name="uniE00A.case" horiz-adv-x="407" 
d="M88 133q0 75 54 102q-45 7 -71.5 39t-26.5 78q0 45 26.5 73.5t72.5 34.5q-24 13 -39.5 42t-15.5 66q0 56 42 94t106 38h115v-120h-99q-35 0 -35 -32q0 -33 37 -33h47v-120h-73q-55 0 -55 -43q0 -22 14.5 -34.5t40.5 -12.5h73v-120h-47q-37 0 -37 -32q0 -33 37 -33h97
v-120h-109q-64 0 -109 38.5t-45 94.5z" />
    <glyph glyph-name="uniE00B.case" horiz-adv-x="407" 
d="M319 567q0 -75 -54 -102q45 -7 71.5 -39t26.5 -78q0 -45 -26.5 -73.5t-72.5 -34.5q24 -13 39.5 -42t15.5 -66q0 -56 -42 -94t-106 -38h-115v120h99q35 0 35 32q0 33 -37 33h-47v120h73q55 0 55 43q0 22 -14.5 34.5t-40.5 12.5h-73v120h47q37 0 37 32q0 33 -37 33h-97v120
h109q64 0 109 -38.5t45 -94.5z" />
    </font>
</defs>
</svg>
