<?xml version="1.0" standalone="no"?>
<!DOCTYPE svg PUBLIC "-//W3C//DTD SVG 1.1//EN" "http://www.w3.org/Graphics/SVG/1.1/DTD/svg11.dtd" >
<svg xmlns="http://www.w3.org/2000/svg" xmlns:xlink="http://www.w3.org/1999/xlink" version="1.1">
<metadata>
Created by FontForge 20170731 at Fri Oct 14 19:47:16 2016
 By Aleksey,,,
(URW)++,Copyright 2006 by (URW)++ Design &#38; Development
</metadata>
<defs>
<font id="NeuzeitGro-Reg" horiz-adv-x="1024" >
  <font-face 
    font-family="Neuzeit Grotesk"
    font-weight="400"
    font-stretch="normal"
    units-per-em="2048"
    panose-1="0 0 0 0 0 0 0 0 0 0"
    ascent="1517"
    descent="-531"
    x-height="944"
    cap-height="1365"
    bbox="-375 -512 1940 1778"
    underline-thickness="110"
    underline-position="-364"
    unicode-range="U+0020-FB04"
  />
<missing-glyph horiz-adv-x="614" 
d="M61 0v1365h492v-1365h-492zM492 61v1243h-370v-1243h370z" />
    <glyph glyph-name=".notdef" horiz-adv-x="614" 
d="M61 0v1365h492v-1365h-492zM492 61v1243h-370v-1243h370z" />
    <glyph glyph-name=".null" horiz-adv-x="0" 
 />
    <glyph glyph-name="nonmarkingreturn" horiz-adv-x="682" 
 />
    <glyph glyph-name="space" unicode=" " horiz-adv-x="614" 
 />
    <glyph glyph-name="exclam" unicode="!" horiz-adv-x="527" 
d="M342 1365v-1035h-157v1035h157zM264 197q47 0 77 -32q29 -31 29 -76q0 -49 -37 -81q-29 -24 -70 -24q-47 0 -77 32q-29 31 -29 75q0 50 37 82q28 24 70 24z" />
    <glyph glyph-name="quotedbl" unicode="&#x22;" horiz-adv-x="690" 
d="M252 819h-127l-27 546h182zM565 819h-127l-27 546h182z" />
    <glyph glyph-name="numbersign" unicode="#" 
d="M900 591l-1 -103h-209l-62 -433h-104l60 433h-181l-61 -433h-106l61 433h-218l1 103h232l28 193h-213l1 104h226l57 403h106l-56 -403h180l58 403h103l-56 -403h198v-104h-213l-26 -193h195zM631 788h-189l-28 -201h188z" />
    <glyph glyph-name="dollar" unicode="$" 
d="M538 1195v-443q147 -58 213 -99q70 -44 115 -124q42 -77 42 -167q0 -136 -89 -234q-97 -107 -281 -128v-191h-84v191q-116 8 -201 64q-150 100 -150 269v31h141q1 -8 1 -12q3 -89 60 -146q56 -56 149 -68v485q-131 49 -200 94q-65 41 -105 111q-41 72 -41 160
q0 127 80 222q87 105 266 128v147h84v-147q177 -28 263 -125q76 -86 80 -216h-145q-13 89 -54 128q-54 54 -144 70zM454 1195q-73 -11 -115 -40q-83 -56 -83 -158q0 -148 198 -213v411zM538 138q79 6 128 42q89 63 89 174q0 105 -89 171q-47 34 -128 63v-450z" />
    <glyph glyph-name="percent" unicode="%" horiz-adv-x="1251" 
d="M522 1122v-222q0 -226 -214 -226q-108 0 -166 65q-36 39 -41 92q-3 30 -3 80v207q0 101 20 146q25 56 86 85q48 22 106 22q93 0 155 -56q41 -38 50 -82q7 -33 7 -111zM198 1118v-190q0 -69 4 -86q20 -74 109 -74q68 0 96 49q16 28 16 106v211q0 141 -110 141
q-65 0 -94 -37q-17 -23 -19 -51q-2 -24 -2 -69zM1153 441v-222q0 -100 -42 -154q-54 -72 -171 -72q-108 0 -167 65q-35 39 -40 92q-3 30 -3 80v207q0 102 19 146q25 56 87 85q48 22 105 22q95 0 155 -56q41 -38 50 -82q7 -32 7 -111zM830 437v-189q0 -71 4 -87
q19 -74 108 -74q68 0 96 49q16 28 16 106v211q0 141 -110 141q-65 0 -93 -37q-17 -23 -20 -51q-1 -23 -1 -69zM1127 1336l-937 -1353l-67 47l937 1352z" />
    <glyph glyph-name="ampersand" unicode="&#x26;" horiz-adv-x="1222" 
d="M958 282l216 -283h-173l-137 186q-88 -87 -156 -133q-115 -79 -235 -79q-167 0 -279 120q-106 112 -106 269q0 166 135 284q72 63 190 136q-57 78 -78 116q-44 78 -44 150q0 108 80 181q81 75 202 75q120 0 197 -74q75 -72 75 -176q0 -114 -89 -201q-40 -40 -137 -105
l256 -351q96 96 194 199l105 -97q-108 -110 -216 -217zM538 857q69 44 99 70q58 53 58 125q0 59 -38 91q-33 29 -84 29q-66 0 -103 -44q-26 -32 -26 -79q0 -52 26 -97q11 -19 68 -95zM494 668q-111 -74 -157 -113q-94 -81 -94 -194q0 -91 61 -161q70 -81 176 -81
q86 0 160 56q45 33 131 126z" />
    <glyph glyph-name="quotesingle" unicode="'" horiz-adv-x="381" 
d="M257 819h-132l-27 546h186z" />
    <glyph glyph-name="parenleft" unicode="(" horiz-adv-x="615" 
d="M543 -380l-103 -99q-125 153 -197 293q-155 299 -155 638q0 347 164 673q77 153 192 282l99 -102q-309 -387 -309 -849q0 -293 139 -576q68 -136 170 -260z" />
    <glyph glyph-name="parenright" unicode=")" horiz-adv-x="615" 
d="M72 1308l103 99q126 -154 198 -293q154 -298 154 -637q0 -348 -164 -673q-77 -153 -192 -283l-99 102q309 385 309 849q0 294 -139 576q-67 136 -170 260z" />
    <glyph glyph-name="asterisk" unicode="*" horiz-adv-x="865" 
d="M429 968l-142 -195l-83 60l145 193l-230 73l32 95l229 -67v235h99v-235l234 72l33 -95l-240 -78l147 -193l-76 -60z" />
    <glyph glyph-name="plus" unicode="+" 
d="M45 745h419v395h93v-395h421v-90h-421v-396h-93v396h-419v90z" />
    <glyph glyph-name="comma" unicode="," horiz-adv-x="472" 
d="M346 160l-208 -485l-112 35l172 497z" />
    <glyph glyph-name="hyphen" unicode="-" horiz-adv-x="425" 
d="M425 568v-142h-425v142h425z" />
    <glyph glyph-name="period" unicode="." horiz-adv-x="472" 
d="M236 197q47 0 77 -32q29 -31 29 -76q0 -49 -37 -81q-29 -24 -70 -24q-47 0 -77 32q-29 31 -29 75q0 50 37 82q28 24 70 24z" />
    <glyph glyph-name="slash" unicode="/" horiz-adv-x="808" 
d="M731 1365l-686 -1807h-133l687 1807h132z" />
    <glyph glyph-name="zero" unicode="0" 
d="M917 953v-542q0 -151 -39 -235q-50 -106 -160 -157q-90 -42 -207 -42q-204 0 -314 119q-62 65 -76 147q-14 81 -14 214v449q0 175 31 252q44 110 148 164q94 48 221 48q189 0 302 -103q70 -63 90 -144q18 -68 18 -170zM269 902v-456q0 -143 15 -181q29 -71 104 -108
q58 -28 126 -28q86 0 151 44q63 42 81 126q10 46 10 123v521q0 108 -29 158q-67 116 -214 116q-138 0 -202 -98q-29 -44 -36 -93q-6 -50 -6 -124z" />
    <glyph glyph-name="one" unicode="1" 
d="M529 1117l-301 -200v155l463 303v-1375h-162v1117z" />
    <glyph glyph-name="two" unicode="2" 
d="M373 150h481v-150h-766l475 680q98 141 128 199q40 76 40 142q0 98 -75 154q-63 48 -153 48q-99 0 -159 -57q-59 -57 -63 -197h-155q4 113 40 195q91 206 349 206q188 0 294 -115q85 -91 85 -222q0 -100 -43 -188q-41 -86 -112 -185z" />
    <glyph glyph-name="three" unicode="3" 
d="M625 1197h-476v148h774l-402 -511q149 0 256 -83q73 -57 113 -146q37 -84 37 -181q0 -217 -159 -348q-122 -99 -293 -99q-210 0 -332 146q-59 70 -85 182l148 26q20 -72 63 -119q78 -85 198 -85q133 0 220 92q77 80 77 193q0 123 -84 202q-81 76 -218 76q-85 0 -165 -47
l-66 60z" />
    <glyph glyph-name="four" unicode="4" 
d="M625 308h-546v128l704 947v-927h160v-148h-160v-308h-158v308zM625 456v521l-383 -521h383z" />
    <glyph glyph-name="five" unicode="5" 
d="M758 1365v-155h-441v-366q100 39 201 39q153 0 264 -92q68 -56 108 -140q48 -98 48 -212q0 -183 -116 -310q-129 -143 -345 -143q-181 0 -302 116q-65 63 -105 165l148 55q40 -78 68 -105q71 -70 195 -70q134 0 216 95q74 85 74 201q0 119 -72 198q-83 92 -231 92
q-164 0 -304 -139v771h594z" />
    <glyph glyph-name="six" unicode="6" 
d="M762 1345l-350 -547q70 27 133 27q167 0 281 -112q123 -121 123 -298q0 -184 -132 -314q-129 -126 -309 -126q-202 0 -331 154q-101 120 -101 286q0 83 30 161q22 57 74 141l391 628h191zM516 686q-131 0 -215 -96q-64 -74 -64 -176q0 -129 95 -218q72 -68 180 -68
q136 0 215 105q61 81 61 175q0 117 -78 196q-81 82 -194 82z" />
    <glyph glyph-name="seven" unicode="7" 
d="M697 1193h-525v152h758l-542 -1345h-176z" />
    <glyph glyph-name="eight" unicode="8" 
d="M678 740q100 -30 157 -87q102 -103 102 -265q0 -191 -130 -306q-120 -106 -298 -106q-128 0 -235 61q-95 54 -144 151q-43 84 -43 187q0 167 103 275q54 57 160 90q-68 24 -99 49q-110 90 -110 242q0 154 116 252q104 87 260 87q170 0 275 -104q96 -94 96 -232
q0 -122 -77 -210q-45 -52 -133 -84zM517 1227q-113 0 -175 -72q-46 -52 -46 -124q0 -102 78 -162q64 -48 140 -48q103 0 170 78q51 59 51 128q0 84 -74 149q-58 51 -144 51zM516 655q-125 0 -203 -94q-63 -75 -63 -170q0 -113 81 -192q76 -72 181 -72q114 0 193 85
q69 74 69 179q0 110 -78 188q-76 76 -180 76z" />
    <glyph glyph-name="nine" unicode="9" 
d="M615 546q-72 -26 -131 -26q-173 0 -291 121q-117 119 -117 292q0 183 128 309q130 128 315 128q192 0 319 -137q110 -119 110 -294q0 -79 -25 -156q-18 -57 -69 -141l-392 -642h-191zM519 1218q-135 0 -218 -104q-62 -77 -62 -174q0 -130 97 -213q74 -64 175 -64
q135 0 217 101q59 71 59 174q0 126 -84 205q-80 75 -184 75z" />
    <glyph glyph-name="colon" unicode=":" horiz-adv-x="472" 
d="M236 197q47 0 77 -32q29 -31 29 -76q0 -49 -37 -81q-29 -24 -70 -24q-47 0 -77 32q-29 31 -29 75q0 50 37 82q28 24 70 24zM236 787q46 0 77 -32q29 -31 29 -76q0 -49 -37 -81q-29 -24 -70 -24q-47 0 -77 32q-29 31 -29 74q0 51 37 83q29 24 70 24z" />
    <glyph glyph-name="semicolon" unicode=";" horiz-adv-x="472" 
d="M346 160l-207 -485l-113 35l172 497zM249 777q46 0 77 -32q29 -31 29 -76q0 -50 -37 -81q-29 -24 -70 -24q-47 0 -77 32q-29 30 -29 74q0 51 37 83q29 24 70 24z" />
    <glyph glyph-name="less" unicode="&#x3c;" 
d="M955 1182v-170l-706 -326l705 -326l1 -169l-887 422v147z" />
    <glyph glyph-name="equal" unicode="=" 
d="M45 889h933v-88h-933v88zM45 599h933v-88h-933v88z" />
    <glyph glyph-name="greater" unicode="&#x3e;" 
d="M69 191v170l705 326l-704 326l-1 169l887 -422v-147z" />
    <glyph glyph-name="question" unicode="?" horiz-adv-x="872" 
d="M449 338h-152q0 163 7 213q9 71 51 128q33 45 115 108q81 62 107 101q40 61 40 134q0 86 -51 147q-57 68 -151 68q-77 0 -134 -48q-62 -53 -62 -139v-27h-150q1 109 40 183q90 174 303 174q188 0 293 -135q72 -93 72 -219q0 -130 -79 -228q-44 -54 -124 -115
q-75 -56 -95 -90q-26 -44 -29 -112q-1 -15 -1 -143zM378 197q47 0 77 -32q29 -31 29 -76q0 -49 -38 -81q-28 -24 -68 -24q-48 0 -78 32q-29 30 -29 75q0 50 37 82q28 24 70 24z" />
    <glyph glyph-name="at" unicode="@" horiz-adv-x="1592" 
d="M1356 373h87q-66 -144 -168 -227q-109 -88 -251 -131q-107 -32 -208 -32q-205 0 -386 130q-160 115 -236 295q-52 126 -52 263q0 234 143 426q116 154 300 225q124 48 251 48q195 0 362 -110q154 -100 219 -259q39 -94 39 -200q0 -236 -166 -397q-87 -84 -195 -120
q-52 -18 -103 -18q-57 0 -102 32q-36 24 -45 75q-119 -107 -231 -107q-100 0 -165 77q-59 71 -59 183q0 200 121 374q64 92 156 145q76 43 166 43q96 0 150 -57q16 -17 35 -48l25 75h165l-195 -550q-35 -100 -35 -134q0 -41 47 -41q60 0 131 45q122 79 179 225q37 95 37 193
q0 203 -160 347q-162 146 -382 146q-244 0 -422 -172q-185 -180 -185 -443q0 -269 195 -449q174 -160 405 -160q172 0 322 91q92 55 175 168q9 11 36 49zM862 553l107 303q7 18 7 42q0 46 -21 82q-27 44 -83 44q-96 0 -189 -149q-53 -85 -95 -204q-46 -134 -46 -233
q0 -47 26 -76q27 -31 74 -31q63 0 107 46q39 41 73 101q31 53 40 75z" />
    <glyph glyph-name="A" unicode="A" horiz-adv-x="1240" 
d="M925 316h-613l-123 -316h-179l515 1365h203l502 -1365h-191zM873 464l-251 684l-257 -684h508z" />
    <glyph glyph-name="B" unicode="B" horiz-adv-x="1129" 
d="M774 692q100 -20 155 -64q114 -90 114 -261q0 -138 -75 -232q-71 -90 -198 -118q-75 -17 -215 -17h-385v1365h386q197 0 306 -80q130 -96 130 -282q0 -135 -78 -222q-45 -50 -140 -89zM342 1224v-471h174q154 0 223 55q85 66 85 187q0 99 -60 161q-45 48 -131 61
q-49 7 -149 7h-142zM342 613v-474h172q137 0 191 15q166 48 166 223q0 130 -89 189q-71 47 -226 47h-214z" />
    <glyph glyph-name="C" unicode="C" horiz-adv-x="1291" 
d="M1126 322l115 -116q-89 -104 -178 -153q-143 -78 -321 -78q-291 0 -471 201q-95 107 -143 259q-38 119 -38 245q0 198 88 369q84 163 235 254q146 87 331 87q189 0 341 -93q74 -46 160 -140l-119 -111q-75 77 -129 112q-114 73 -250 73q-221 0 -360 -173
q-121 -151 -121 -377q0 -167 74 -304q59 -108 172 -175q113 -68 244 -68q133 0 244 70q61 39 126 118z" />
    <glyph glyph-name="D" unicode="D" horiz-adv-x="1282" 
d="M170 0v1365h363q287 0 459 -155q199 -179 199 -507q0 -250 -110 -422q-179 -281 -580 -281h-331zM342 1219v-1071h61q232 0 328 41q148 63 221 208q63 126 63 304q0 267 -152 406q-123 112 -336 112h-185z" />
    <glyph glyph-name="E" unicode="E" horiz-adv-x="969" 
d="M326 1218v-456h539v-147h-539v-468h539v-147h-711v1365h711v-147h-539z" />
    <glyph glyph-name="F" unicode="F" horiz-adv-x="934" 
d="M342 1218v-456h533v-147h-533v-615h-172v1365h705v-147h-533z" />
    <glyph glyph-name="G" unicode="G" horiz-adv-x="1500" 
d="M765 739h651q1 -40 1 -78q0 -189 -68 -322q-86 -168 -240 -266q-152 -98 -346 -98q-191 0 -349 94q-148 89 -233 239q-92 162 -92 371q0 169 66 320q77 178 230 282q163 109 379 109q192 0 354 -104q88 -56 158 -144l-129 -104q-67 76 -114 109q-119 85 -269 85
q-158 0 -285 -95q-114 -83 -168 -217q-46 -113 -46 -238q0 -158 72 -292q59 -112 169 -182q118 -76 254 -76q164 0 303 108q124 96 161 253q9 35 15 99h-474v147z" />
    <glyph glyph-name="H" unicode="H" horiz-adv-x="1350" 
d="M342 604v-604h-172v1365h172v-614h666v614h172v-1365h-172v604h-666z" />
    <glyph glyph-name="I" unicode="I" horiz-adv-x="513" 
d="M342 1365v-1365h-172v1365h172z" />
    <glyph glyph-name="J" unicode="J" horiz-adv-x="766" 
d="M621 1365v-942q0 -289 -217 -386q-99 -45 -284 -45q-22 0 -67 1v150q53 -4 85 -4q149 0 224 66q54 47 73 124q14 61 14 188v701h-396v147h568z" />
    <glyph glyph-name="K" unicode="K" horiz-adv-x="1105" 
d="M342 630v-630h-172v1365h172v-629l531 629h205l-569 -675l569 -690h-218z" />
    <glyph glyph-name="L" unicode="L" horiz-adv-x="875" 
d="M342 156h482v-156h-654v1365h172v-1209z" />
    <glyph glyph-name="M" unicode="M" horiz-adv-x="1696" 
d="M342 1000v-1000h-172v1365h170l507 -1024l511 1024h168v-1365h-172v1000l-507 -1014z" />
    <glyph glyph-name="N" unicode="N" horiz-adv-x="1398" 
d="M342 1043v-1043h-172v1365h157l729 -1028v1028h172v-1365h-151z" />
    <glyph glyph-name="O" unicode="O" horiz-adv-x="1520" 
d="M766 1390q179 0 334 -94q330 -199 330 -627q0 -200 -89 -358q-93 -164 -267 -257q-148 -79 -311 -79q-196 0 -364 109q-309 198 -309 591q0 323 208 525q196 190 468 190zM762 1231q-236 0 -382 -190q-114 -147 -114 -360q0 -235 137 -389q140 -159 355 -159
q124 0 233 60q133 73 196 197q67 132 67 282q0 267 -155 418q-145 141 -337 141z" />
    <glyph glyph-name="P" unicode="P" horiz-adv-x="1087" 
d="M342 522v-522h-172v1365h365q243 0 367 -104q133 -111 133 -314q0 -159 -85 -270q-62 -80 -154 -117q-98 -38 -242 -38h-212zM342 669h178q103 0 171 24q81 28 128 100q43 65 43 150q0 124 -87 199q-88 75 -277 75h-156v-548z" />
    <glyph glyph-name="Q" unicode="Q" horiz-adv-x="1529" 
d="M1440 67l-120 -108l-145 163q-91 -71 -167 -100q-123 -47 -247 -47q-177 0 -338 95q-329 194 -329 605q0 331 211 530q195 185 463 185q176 0 328 -86q161 -91 250 -251q90 -160 90 -365q0 -173 -64 -320q-25 -59 -84 -138zM1075 463l98 -106q85 150 85 324
q0 270 -166 421q-142 129 -326 129q-144 0 -266 -81q-230 -152 -230 -467q0 -142 55 -268q58 -130 181 -208q115 -73 254 -73q106 0 199 44q41 20 99 69l-99 113z" />
    <glyph glyph-name="R" unicode="R" horiz-adv-x="1147" 
d="M342 574v-574h-172v1365h374q249 0 370 -134q95 -105 95 -264q0 -151 -87 -254q-80 -94 -208 -126q-55 -13 -153 -20l532 -567h-221zM342 690h173q147 0 228 61q91 69 91 205q0 124 -72 193q-72 68 -220 68h-200v-527z" />
    <glyph glyph-name="S" unicode="S" horiz-adv-x="1004" 
d="M77 366h164q4 -89 37 -140q62 -98 204 -98q114 0 190 65q72 61 72 166q0 90 -59 143q-54 49 -217 104q-150 51 -204 83q-179 106 -179 314q0 182 126 292q109 95 281 95q237 0 348 -178q55 -89 58 -212h-172q-3 92 -33 140q-28 45 -80 70q-57 27 -122 27q-108 0 -171 -67
q-61 -63 -61 -154q0 -105 78 -160q52 -37 220 -96q144 -50 206 -93q156 -107 156 -298q0 -124 -67 -223q-115 -171 -363 -171q-259 0 -365 185q-47 81 -47 178v28z" />
    <glyph glyph-name="T" unicode="T" horiz-adv-x="907" 
d="M539 1218v-1218h-172v1218h-347v147h867v-147h-348z" />
    <glyph glyph-name="U" unicode="U" horiz-adv-x="1303" 
d="M317 1365v-812q0 -171 36 -248q42 -92 145 -138q76 -34 150 -34q96 0 184 54q99 61 131 164q19 61 19 207v807h177v-808q0 -205 -49 -311q-64 -139 -202 -211q-114 -60 -254 -60q-169 0 -299 84q-139 90 -184 239q-26 87 -26 259v808h172z" />
    <glyph glyph-name="V" unicode="V" horiz-adv-x="1123" 
d="M556 280l375 1085h182l-474 -1365h-167l-462 1365h181z" />
    <glyph glyph-name="W" unicode="W" horiz-adv-x="1762" 
d="M1261 315l314 1050h177l-417 -1365h-151l-302 1072l-302 -1072h-153l-417 1365h183l311 -1045l302 1045h162z" />
    <glyph glyph-name="X" unicode="X" horiz-adv-x="1131" 
d="M568 544l-348 -544h-208l457 695l-441 670h208l332 -519l337 519h201l-438 -670l451 -695h-201z" />
    <glyph glyph-name="Y" unicode="Y" horiz-adv-x="1084" 
d="M632 601v-601h-172v601l-472 764h205l352 -585l347 585h204z" />
    <glyph glyph-name="Z" unicode="Z" horiz-adv-x="1103" 
d="M312 147h693v-147h-978l774 1218h-688v147h972z" />
    <glyph glyph-name="bracketleft" unicode="[" horiz-adv-x="615" 
d="M159 1365h330v-102h-192v-1603h192v-102h-330v1807z" />
    <glyph glyph-name="backslash" unicode="\" horiz-adv-x="808" 
d="M76 1365h133l686 -1807h-133z" />
    <glyph glyph-name="bracketright" unicode="]" horiz-adv-x="615" 
d="M457 1365v-1807h-330v102h192v1603h-192v102h330z" />
    <glyph glyph-name="asciicircum" unicode="^" 
d="M221 763h-159l353 606h193l354 -606h-160l-291 489z" />
    <glyph glyph-name="underscore" unicode="_" 
d="M0 -145h1024v-110h-1024v110z" />
    <glyph glyph-name="grave" unicode="`" 
d="M424 1351l169 -270h-112l-241 270h184z" />
    <glyph glyph-name="a" unicode="a" horiz-adv-x="1181" 
d="M867 788v156h157v-944h-157v181q-136 -203 -344 -203q-199 0 -329 148q-115 132 -115 342q0 147 63 269q57 110 170 173q99 56 216 56q122 0 221 -62q60 -38 118 -116zM552 827q-149 0 -231 -112q-77 -106 -77 -249q0 -167 101 -267q85 -85 202 -85q147 0 242 123
q81 104 81 245q0 154 -86 246q-92 99 -232 99z" />
    <glyph glyph-name="b" unicode="b" horiz-adv-x="1174" 
d="M313 162v-162h-157v1365h157v-583q62 85 131 127q92 57 201 57q221 0 347 -166q102 -134 102 -332q0 -231 -137 -367q-125 -123 -304 -123q-122 0 -221 63q-60 39 -119 121zM625 827q-143 0 -236 -112q-78 -95 -78 -244q0 -167 90 -265q84 -93 218 -93q153 0 237 111
q73 97 73 240q0 152 -84 259q-82 104 -220 104z" />
    <glyph glyph-name="c" unicode="c" horiz-adv-x="935" 
d="M794 224l96 -107q-70 -65 -133 -94q-99 -45 -214 -45q-203 0 -336 142q-127 134 -127 350q0 151 70 274q67 120 194 179q95 44 207 44q199 0 345 -142l-102 -100q-106 99 -240 99q-148 0 -238 -110q-76 -93 -76 -238q0 -178 105 -275q87 -80 208 -80q134 0 241 103z" />
    <glyph glyph-name="d" unicode="d" horiz-adv-x="1175" 
d="M862 801v564h157v-1365h-157v162q-59 -81 -118 -120q-98 -64 -220 -64q-199 0 -326 143q-118 133 -118 346q0 140 59 260q53 109 157 175q104 65 227 65q100 0 191 -43q77 -35 148 -123zM557 828q-159 0 -246 -129q-66 -99 -66 -234q0 -164 94 -263q83 -88 209 -88
q139 0 229 104q45 51 67 130q19 65 19 123q0 164 -89 262q-86 95 -217 95z" />
    <glyph glyph-name="e" unicode="e" horiz-adv-x="1105" 
d="M1032 422h-787q12 -105 62 -174q95 -128 254 -128q104 0 198 68q53 38 85 95l137 -51q-44 -90 -121 -150q-134 -105 -299 -105q-229 0 -369 165q-112 131 -112 327q0 220 135 359q134 138 341 138q242 0 380 -182q99 -131 99 -301q0 -19 -3 -61zM869 536q-9 99 -55 162
q-40 57 -104 91q-72 38 -155 38q-111 0 -193 -67q-90 -72 -114 -224h621z" />
    <glyph glyph-name="f" unicode="f" horiz-adv-x="531" 
d="M329 806v-806h-157v806h-129v138h129v127q0 136 62 209q73 87 200 87q14 0 42 -2v-139q-74 -10 -100 -28q-48 -34 -48 -127v-127h148v-138h-147z" />
    <glyph glyph-name="g" unicode="g" horiz-adv-x="1167" 
d="M856 782v162h155v-950q0 -159 -53 -255q-63 -115 -187 -171q-101 -46 -232 -46q-263 0 -417 173l106 106q53 -59 90 -82q88 -56 220 -56q160 0 247 93q71 76 71 226v198q-61 -92 -124 -134q-101 -68 -224 -68q-112 0 -209 57q-112 65 -169 176q-59 118 -59 258
q0 149 67 277q117 221 383 221q108 0 196 -51q71 -41 139 -134zM549 824q-147 0 -238 -111q-75 -92 -75 -237q0 -178 110 -277q87 -78 198 -78q142 0 240 114q67 79 67 235q0 166 -73 249q-92 105 -229 105z" />
    <glyph glyph-name="h" unicode="h" horiz-adv-x="1040" 
d="M313 1365v-552q122 153 283 153q86 0 164 -43q81 -45 109 -127q21 -60 21 -162v-634h-157v627q0 94 -45 148q-44 52 -131 52q-109 0 -182 -84q-39 -44 -51 -89q-11 -40 -11 -101v-553h-157v1365h157z" />
    <glyph glyph-name="i" unicode="i" horiz-adv-x="469" 
d="M312 944v-944h-156v944h156zM236 1310q44 0 73 -33q26 -29 26 -69q0 -43 -34 -74q-27 -24 -66 -24q-46 0 -74 32q-26 29 -26 68q0 45 34 76q26 24 67 24z" />
    <glyph glyph-name="j" unicode="j" horiz-adv-x="470" 
d="M313 944v-1043q0 -131 -35 -202q-42 -85 -130 -130q-70 -34 -152 -34q-15 0 -42 1v146h22q56 0 104 35q76 56 76 184v1043h157zM236 1310q44 0 73 -33q26 -29 26 -69q0 -43 -34 -74q-27 -24 -66 -24q-46 0 -74 32q-26 29 -26 68q0 45 34 76q26 24 67 24z" />
    <glyph glyph-name="k" unicode="k" horiz-adv-x="909" 
d="M313 421v-421h-157v1365h157v-834l377 413h196l-420 -462l419 -482h-196z" />
    <glyph glyph-name="l" unicode="l" horiz-adv-x="470" 
d="M313 0h-157v1365h157v-1365z" />
    <glyph glyph-name="m" unicode="m" horiz-adv-x="1580" 
d="M158 944h155v-131q47 71 97 105q74 49 169 49q102 0 174 -54q50 -37 81 -118q48 83 107 120q80 51 192 51q162 0 239 -99q42 -55 51 -120q7 -56 7 -143v-604h-157v567q0 99 -7 129q-15 67 -64 99q-50 32 -120 32q-110 0 -165 -78q-46 -65 -46 -182v-567h-157v565
q0 124 -31 182q-43 81 -153 81q-102 0 -162 -74q-55 -68 -55 -189v-565h-157z" />
    <glyph glyph-name="n" unicode="n" horiz-adv-x="1042" 
d="M156 944h156v-133q53 71 105 105q78 50 175 50q133 0 217 -79q56 -51 71 -121q11 -53 11 -130v-636h-157v602q0 116 -34 162q-46 63 -148 63q-105 0 -179 -80q-61 -66 -61 -171v-576h-156v944z" />
    <glyph glyph-name="o" unicode="o" horiz-adv-x="1122" 
d="M563 966q225 0 367 -167q111 -131 111 -331q0 -217 -153 -361q-137 -129 -331 -129q-144 0 -262 73q-215 135 -215 422q0 236 147 369q137 124 336 124zM563 823q-154 0 -246 -110q-78 -91 -78 -243q0 -161 91 -255q93 -94 231 -94q159 0 250 120q71 93 71 230
q0 169 -95 262q-92 90 -224 90z" />
    <glyph glyph-name="p" unicode="p" horiz-adv-x="1180" 
d="M156 944h157v-172q57 89 116 129q93 65 228 65q168 0 286 -105q158 -139 158 -382q0 -239 -143 -381q-122 -121 -301 -121q-110 0 -206 49q-74 37 -138 121v-589h-157v1386zM631 827q-168 0 -258 -141q-59 -94 -59 -228q0 -170 96 -261q88 -84 214 -84q166 0 251 131
q60 95 60 228q0 166 -82 257q-89 98 -222 98z" />
    <glyph glyph-name="q" unicode="q" horiz-adv-x="1174" 
d="M861 944h157v-1386h-157v600q-60 -83 -122 -121q-98 -59 -219 -59q-132 0 -240 69q-200 129 -200 427q0 223 120 353q128 139 333 139q113 0 202 -55q68 -41 126 -128v161zM553 827q-159 0 -245 -131q-63 -95 -63 -226q0 -171 99 -272q81 -84 205 -84q151 0 239 116
q69 91 69 235q0 174 -88 268q-89 94 -216 94z" />
    <glyph glyph-name="r" unicode="r" horiz-adv-x="650" 
d="M156 944h157v-159q37 87 86 125q75 57 178 57q12 0 37 -1v-157q-27 2 -43 2q-130 0 -204 -108q-36 -54 -46 -112q-8 -47 -8 -111v-480h-157v944z" />
    <glyph glyph-name="s" unicode="s" horiz-adv-x="842" 
d="M747 687h-155q0 49 -15 74q-46 78 -165 78q-81 0 -127 -38q-44 -36 -44 -97q0 -50 28 -79q31 -33 85 -51q40 -13 98 -29q169 -46 231 -108q75 -75 75 -185q0 -135 -113 -215q-83 -59 -222 -59q-211 0 -301 130q-43 63 -52 160h154q6 -63 38 -100q56 -63 161 -63
q80 0 126 37q50 41 50 101q0 64 -58 107q-37 27 -157 59q-150 39 -220 102q-78 72 -78 183q0 137 114 214q87 58 218 58q183 0 272 -112q52 -66 57 -167z" />
    <glyph glyph-name="t" unicode="t" horiz-adv-x="531" 
d="M322 807v-614q0 -32 13 -44q14 -13 57 -13h72v-136h-144q-81 0 -118 35q-37 34 -37 113v659h-131v138h131v296h157v-296h142v-138h-142z" />
    <glyph glyph-name="u" unicode="u" horiz-adv-x="993" 
d="M707 944h157v-605q0 -132 -42 -200q-47 -76 -137 -120q-86 -41 -187 -41q-168 0 -273 100q-95 91 -95 261v605h156v-599q0 -101 58 -164q59 -64 154 -64q105 0 166 72q43 49 43 150v605z" />
    <glyph glyph-name="v" unicode="v" horiz-adv-x="890" 
d="M717 944h160l-355 -944h-164l-346 944h163l268 -721z" />
    <glyph glyph-name="w" unicode="w" horiz-adv-x="1417" 
d="M1245 944h160l-335 -944h-143l-217 716l-227 -716h-148l-323 944h159l242 -694l218 694h154l212 -694z" />
    <glyph glyph-name="x" unicode="x" horiz-adv-x="913" 
d="M457 343l-252 -343h-190l348 469l-355 475h197l252 -346l257 346h190l-354 -475l338 -469h-190z" />
    <glyph glyph-name="y" unicode="y" horiz-adv-x="896" 
d="M432 244l282 700h170l-564 -1400h-169l197 486l-336 914h166z" />
    <glyph glyph-name="z" unicode="z" horiz-adv-x="822" 
d="M307 138h434v-138h-696l491 806h-438v138h695z" />
    <glyph glyph-name="braceleft" unicode="{" 
d="M447 503q68 -37 93 -100q20 -49 20 -137v-309q0 -91 20 -126q26 -45 85 -61q29 -8 89 -9v-143q-20 -1 -29 -1q-143 0 -194 19q-95 35 -124 143q-15 54 -15 142v325q0 103 -35 145q-27 34 -83 50v131q57 16 86 53q32 41 32 135v354q0 145 65 211q47 48 113 57
q66 10 153 10q11 0 31 -1v-150q-97 -4 -139 -31q-55 -36 -55 -157v-318q0 -101 -29 -156q-23 -43 -84 -76z" />
    <glyph glyph-name="bar" unicode="|" 
d="M427 1365h170v-1706h-170v1706z" />
    <glyph glyph-name="braceright" unicode="}" 
d="M578 506q-68 37 -93 100q-20 50 -20 137v309q0 90 -20 126q-26 45 -85 61q-30 8 -89 9v143q19 1 28 1q143 0 195 -19q96 -35 124 -143q15 -56 15 -143v-324q0 -103 35 -145q27 -34 83 -51v-130q-56 -16 -86 -53q-32 -41 -32 -135v-354q0 -146 -65 -211q-47 -48 -113 -57
q-64 -10 -153 -10q-11 0 -31 1v150q96 3 139 31q55 36 55 157v318q0 102 29 156q23 43 84 76z" />
    <glyph glyph-name="asciitilde" unicode="~" horiz-adv-x="1365" 
d="M283 1184l-90 72q107 233 280 233q76 0 236 -79q98 -49 131 -58q32 -9 58 -9q103 0 186 150l90 -71q-103 -231 -295 -231q-30 0 -72 13q-43 13 -174 78q-108 54 -167 54q-98 0 -183 -152z" />
    <glyph glyph-name="uni00A0" unicode="&#xa0;" horiz-adv-x="614" 
 />
    <glyph glyph-name="exclamdown" unicode="&#xa1;" horiz-adv-x="527" 
d="M185 -416v1035h157v-1035h-157zM263 965q48 0 78 -32q29 -31 29 -74q0 -51 -37 -83q-29 -24 -70 -24q-47 0 -77 32q-29 31 -29 76q0 49 37 81q28 24 69 24z" />
    <glyph glyph-name="cent" unicode="&#xa2;" 
d="M610 1026v-707q64 5 111 28q46 23 93 70l95 -101q-69 -64 -129 -92q-64 -30 -170 -44v-172h-84v172q-141 24 -231 88q-186 131 -186 395q0 190 94 323q86 121 230 162q32 9 93 18v161h84v-161q91 -8 162 -41q76 -35 141 -105l-99 -96q-43 42 -85 65q-51 29 -119 37z
M526 1026q-97 -20 -153 -69q-112 -100 -112 -283q0 -190 121 -290q55 -46 144 -65v707z" />
    <glyph glyph-name="sterling" unicode="&#xa3;" 
d="M451 741h304v-101h-234q83 -99 83 -187q0 -105 -113 -225q39 -14 144 -61q76 -35 117 -35q54 0 86 36q17 18 33 62l81 -60q-17 -65 -48 -103q-29 -36 -76 -59q-50 -25 -97 -25q-65 0 -206 69q-75 37 -99 47q-42 17 -76 17q-58 0 -87 -46q-16 -26 -17 -70h-142
q3 142 108 217q47 34 109 36h12h12q52 53 72 82q33 48 33 101q0 98 -111 204h-229v101h143q-53 65 -71 105q-33 69 -33 152q0 161 114 265q117 105 282 105q111 0 203 -53q123 -70 153 -186q11 -40 13 -105h-151q2 15 2 23q0 74 -69 130q-68 57 -156 57q-105 0 -171 -77
q-57 -66 -57 -146q0 -81 61 -173q23 -34 78 -97z" />
    <glyph glyph-name="currency" unicode="&#xa4;" horiz-adv-x="1412" 
d="M136 223l189 192q-98 133 -98 286q0 111 58 215q14 26 42 69l-195 192l91 92l195 -194q56 36 93 54q90 46 196 46q114 0 216 -58q25 -14 68 -42l195 193l91 -91l-193 -191q101 -144 101 -289q0 -111 -55 -213q-14 -26 -42 -69l192 -192l-90 -92l-192 192
q-134 -100 -283 -100q-139 0 -298 100l-190 -191zM710 1031q-140 0 -237 -98q-95 -96 -95 -233q0 -136 96 -232q96 -97 232 -97t232 97q96 96 96 232q0 140 -95 234q-99 97 -229 97z" />
    <glyph glyph-name="yen" unicode="&#xa5;" 
d="M290 876l-241 469h180l289 -590l280 590h178l-237 -469h196v-105l-247 1l-91 -180v-15h297v-105h-297v-472h-162v472h-304v105h304v15l-92 179h-253v105h200z" />
    <glyph glyph-name="brokenbar" unicode="&#xa6;" 
d="M427 1365h170v-687h-170v687zM427 314h170v-655h-170v655z" />
    <glyph glyph-name="section" unicode="&#xa7;" 
d="M860 1094h-146q-6 63 -38 101q-57 70 -153 70q-79 0 -134 -50q-53 -48 -53 -121t57 -126q39 -37 86 -55q7 -2 119 -40q311 -105 311 -375q0 -226 -220 -325q67 -47 99 -87q60 -74 60 -177q0 -138 -94 -230q-100 -99 -261 -99q-218 0 -323 170q-51 83 -51 181v13h146
q3 -77 31 -127q31 -53 87 -83q52 -28 115 -28q97 0 155 65q50 55 50 132q0 80 -68 137q-41 35 -81 49q-32 12 -126 37q-316 85 -316 362q0 262 244 348q-68 34 -105 87q-57 80 -57 176q0 124 93 210q91 84 228 84q132 0 229 -71q108 -77 116 -228zM513 744q-107 0 -190 -81
q-67 -66 -67 -165q0 -113 77 -185q68 -64 178 -64q109 0 177 64q77 72 77 186q0 98 -67 164q-83 81 -185 81z" />
    <glyph glyph-name="dieresis" unicode="&#xa8;" 
d="M308 1312q43 0 72 -31q24 -26 24 -67q0 -44 -32 -71q-27 -24 -64 -24q-45 0 -73 31q-24 26 -24 66q0 45 32 72q27 24 65 24zM717 1312q43 0 72 -31q24 -26 24 -67q0 -44 -32 -71q-27 -24 -64 -24q-44 0 -73 31q-24 26 -24 66q0 45 32 72q27 24 65 24z" />
    <glyph glyph-name="copyright" unicode="&#xa9;" horiz-adv-x="1601" 
d="M1177 606q-9 -124 -83 -213q-104 -126 -288 -126q-191 0 -302 138q-89 111 -89 280q0 181 106 298q111 122 291 122q166 0 269 -107q74 -76 84 -176h-87q-15 68 -62 113q-78 75 -204 75q-142 0 -221 -106q-66 -87 -66 -220q0 -130 61 -213q81 -109 224 -109q136 0 217 92
q51 58 63 152h87zM810 1389q190 0 359 -104q170 -105 260 -282q77 -151 77 -321q0 -199 -104 -368q-103 -170 -280 -261q-151 -77 -321 -77q-198 0 -368 104t-261 281q-77 152 -77 320q0 201 104 372q102 167 283 259q150 77 328 77zM809 1306q-262 0 -443 -182t-181 -443
q0 -174 91 -325q91 -149 246 -229q132 -68 279 -68q173 0 322 92q147 92 226 249q67 133 67 282q0 176 -90 327q-89 148 -245 229q-130 68 -272 68z" />
    <glyph glyph-name="ordfeminine" unicode="&#xaa;" horiz-adv-x="768" 
d="M548 1041v76h113v-571h-113v89q-78 -102 -205 -102t-209 89q-74 80 -74 207q0 149 99 233q79 68 187 68q126 0 202 -89zM361 1034q-89 0 -137 -64q-46 -61 -46 -142q0 -95 60 -152q51 -49 120 -49q87 0 144 70q48 60 48 140q0 88 -51 141q-54 56 -138 56z" />
    <glyph glyph-name="guillemotleft" unicode="&#xab;" horiz-adv-x="851" 
d="M210 482l207 -336h-123l-206 336l206 350h123zM541 482l207 -336h-122l-207 336l207 350h122z" />
    <glyph glyph-name="logicalnot" unicode="&#xac;" 
d="M789 0v420h-721v150h887v-570h-166z" />
    <glyph glyph-name="uni00AD" unicode="&#xad;" horiz-adv-x="425" 
d="M425 568v-142h-425v142h425z" />
    <glyph glyph-name="registered" unicode="&#xae;" horiz-adv-x="1601" 
d="M499 1080h338q120 0 185 -39q100 -60 100 -181q0 -141 -146 -197q67 -22 96 -64q25 -35 32 -95q3 -23 6 -98q4 -94 22 -130h-106q-14 26 -21 151q-6 90 -20 125q-31 75 -189 75h-189v-351h-108v804zM607 1007v-310h194q213 0 213 157q0 153 -196 153h-211zM810 1389
q189 0 359 -104t260 -282q77 -152 77 -321q0 -199 -104 -369q-104 -169 -280 -260q-152 -77 -321 -77q-198 0 -368 104t-261 281q-77 151 -77 320q0 200 104 372q102 167 282 259q150 77 329 77zM809 1306q-262 0 -442 -181q-182 -183 -182 -444q0 -175 91 -325t246 -229
q131 -68 278 -68q174 0 323 92q147 92 226 249q67 133 67 282q0 176 -90 327q-89 148 -246 229q-129 68 -271 68z" />
    <glyph glyph-name="macron" unicode="&#xaf;" 
d="M791 1278v-127h-557v127h557z" />
    <glyph glyph-name="degree" unicode="&#xb0;" 
d="M514 1359q121 0 208 -90q81 -84 81 -204t-86 -206q-84 -84 -204 -84q-130 0 -217 96q-76 82 -76 197q0 136 99 219q86 72 195 72zM509 1281q-81 0 -140 -56q-70 -66 -70 -158q0 -79 52 -140q63 -74 161 -74q84 0 146 60q66 63 66 149q0 92 -61 154q-64 65 -154 65z" />
    <glyph glyph-name="plusminus" unicode="&#xb1;" 
d="M45 769h419v395h93v-395h421v-90h-421v-389h-93v389h-419v90zM45 199h933v-90h-933v90z" />
    <glyph glyph-name="twosuperior" unicode="&#xb2;" horiz-adv-x="672" 
d="M265 642h292v-104h-501l305 413q65 88 84.5 124.5t19.5 71.5q0 54 -44 85q-37 26 -91 26q-87 0 -116 -62q-13 -30 -14 -88h-113q3 75 26 126q59 126 224 126q121 0 190 -70q55 -56 55 -136q0 -61 -28 -115q-26 -51 -71 -109z" />
    <glyph glyph-name="threesuperior" unicode="&#xb3;" horiz-adv-x="672" 
d="M389 1242h-287v103h507l-250 -301q82 -3 147 -50q97 -71 97 -198q0 -133 -103 -212q-76 -59 -186 -59q-136 0 -213 88q-39 44 -57 118l107 19q35 -121 157 -121q80 0 132 51q46 45 46 108q0 69 -50 113q-48 43 -130 43q-52 0 -105 -29l-50 44z" />
    <glyph glyph-name="acute" unicode="&#xb4;" 
d="M600 1351h184l-241 -270h-112z" />
    <glyph glyph-name="mu" unicode="&#xb5;" 
d="M102 -340v1323h147v-554q0 -102 13 -149q26 -94 115 -147q58 -34 125 -34q138 0 211 117q63 101 63 232v535h146v-983h-146v186q-35 -89 -82 -135q-78 -77 -194 -77q-108 0 -184 65q-31 27 -67 85v-464h-147z" />
    <glyph glyph-name="paragraph" unicode="&#xb6;" 
d="M477 -215v846h-32q-117 0 -206 55q-73 45 -117 125q-46 84 -46 184q0 129 73 228q103 142 344 142h369v-1580h-109v1505h-166v-1505h-110z" />
    <glyph glyph-name="periodcentered" unicode="&#xb7;" horiz-adv-x="472" 
d="M236 604q47 0 77 -32q29 -31 29 -76q0 -49 -37 -81q-29 -24 -70 -24q-47 0 -77 32q-29 31 -29 75q0 50 37 82q28 24 70 24z" />
    <glyph glyph-name="cedilla" unicode="&#xb8;" 
d="M412 -436l-65 70q89 55 134 117q40 55 69 141l128 -50q-49 -98 -103 -156q-58 -62 -163 -122z" />
    <glyph glyph-name="onesuperior" unicode="&#xb9;" horiz-adv-x="672" 
d="M338 1189l-187 -118v110l304 188v-831h-117v651z" />
    <glyph glyph-name="ordmasculine" unicode="&#xba;" horiz-adv-x="731" 
d="M367 1130q142 0 232 -100q72 -79 72 -201q0 -132 -98 -219q-88 -77 -210 -77q-149 0 -238 103q-66 77 -66 196q0 143 95 224q86 74 213 74zM366 1032q-91 0 -146 -63q-46 -52 -46 -137q0 -94 54 -147q55 -54 137 -54q95 0 149 69q42 53 42 131q0 97 -56 150
q-55 51 -134 51z" />
    <glyph glyph-name="guillemotright" unicode="&#xbb;" horiz-adv-x="851" 
d="M640 506l-207 336h123l206 -336l-206 -350h-123zM309 506l-207 336h123l206 -336l-206 -350h-123z" />
    <glyph glyph-name="onequarter" unicode="&#xbc;" horiz-adv-x="1597" 
d="M338 1189l-187 -118v110l304 188v-831h-117v651zM1300 1326l-936 -1353l-68 47l937 1352zM1322 181h-338v85l453 576v-558h100v-103h-100v-181h-115v181zM1325 282v283l-217 -283h217z" />
    <glyph glyph-name="onehalf" unicode="&#xbd;" horiz-adv-x="1597" 
d="M338 1189l-187 -118v110l304 188v-831h-117v651zM1300 1326l-936 -1353l-68 47l937 1352zM1191 104h291v-104h-501l305 413q61 81 80 116q24 42 24 79q0 54 -44 85q-37 26 -90 26q-88 0 -116 -62q-14 -29 -14 -87h-113q2 75 26 126q58 126 224 126q120 0 189 -70
q55 -55 55 -136q0 -61 -27 -115q-27 -51 -71 -109z" />
    <glyph glyph-name="threequarters" unicode="&#xbe;" horiz-adv-x="1597" 
d="M389 1242h-287v103h507l-250 -301q82 -3 147 -50q97 -71 97 -198q0 -133 -103 -212q-76 -59 -186 -59q-136 0 -213 88q-39 44 -57 118l107 19q35 -121 157 -121q80 0 132 51q46 45 46 108q0 69 -50 113q-48 43 -130 43q-52 0 -105 -29l-50 44zM1301 1326l-937 -1353
l-67 47l936 1352zM1323 181h-339v85l454 576v-558h99v-103h-99v-181h-115v181zM1326 282v283l-218 -283h218z" />
    <glyph glyph-name="questiondown" unicode="&#xbf;" horiz-adv-x="872" 
d="M423 611h152q0 -160 -7 -213q-9 -71 -51 -128q-32 -44 -115 -108q-81 -62 -107 -102q-40 -60 -40 -133q0 -87 50 -147q57 -69 152 -69q77 0 134 49q62 53 62 139v27h150q-1 -110 -40 -184q-90 -174 -303 -174q-188 0 -293 135q-72 94 -72 220q0 130 79 228q44 54 124 115
q75 57 95 90q26 43 29 112q1 14 1 143zM494 965q48 0 78 -32q29 -31 29 -74q0 -51 -37 -83q-28 -24 -70 -24q-47 0 -77 32q-29 31 -29 76q0 49 37 81q28 24 69 24z" />
    <glyph glyph-name="Agrave" unicode="&#xc0;" horiz-adv-x="1240" 
d="M925 316h-613l-123 -316h-179l515 1365h203l502 -1365h-191zM873 464l-251 684l-257 -684h508zM528 1740l181 -268h-122l-247 268h188z" />
    <glyph glyph-name="Aacute" unicode="&#xc1;" horiz-adv-x="1240" 
d="M925 316h-613l-123 -316h-179l515 1365h203l502 -1365h-191zM873 464l-251 684l-257 -684h508zM713 1740h187l-247 -268h-122z" />
    <glyph glyph-name="Acircumflex" unicode="&#xc2;" horiz-adv-x="1240" 
d="M925 316h-613l-123 -316h-179l515 1365h203l502 -1365h-191zM873 464l-251 684l-257 -684h508zM621 1642l-154 -170h-136l223 272h142l213 -272h-134z" />
    <glyph glyph-name="Atilde" unicode="&#xc3;" horiz-adv-x="1240" 
d="M925 316h-613l-123 -316h-179l515 1365h203l502 -1365h-191zM873 464l-251 684l-257 -684h508zM849 1708l112 -42q-41 -76 -72 -108q-61 -63 -130 -63q-47 0 -144 50q-69 35 -101 35q-61 0 -96 -88l-111 33q39 84 68 118q57 65 126 65q47 0 157 -55q71 -36 93 -36
q59 0 98 91z" />
    <glyph glyph-name="Adieresis" unicode="&#xc4;" horiz-adv-x="1240" 
d="M925 316h-613l-123 -316h-179l515 1365h203l502 -1365h-191zM873 464l-251 684l-257 -684h508zM411 1715q44 0 74 -32q29 -30 29 -74q0 -47 -37 -78q-28 -24 -67 -24q-45 0 -76 32q-28 30 -28 72q0 49 37 80q28 24 68 24zM829 1715q44 0 75 -32q28 -30 28 -74
q0 -47 -37 -78q-28 -24 -67 -24q-46 0 -76 32q-28 30 -28 72q0 48 37 80q28 24 68 24z" />
    <glyph glyph-name="Aring" unicode="&#xc5;" horiz-adv-x="1240" 
d="M925 316h-613l-123 -316h-179l515 1365h203l502 -1365h-191zM873 464l-251 684l-257 -684h508zM621 1778q70 0 119 -51q44 -46 44 -115q0 -73 -56 -121q-47 -39 -108 -39q-72 0 -120 51q-44 46 -44 112q0 76 56 124q46 39 109 39zM621 1713q-50 0 -77 -35
q-22 -29 -22 -63q0 -41 29 -71q26 -27 69 -27q49 0 76 35q22 28 22 62q0 41 -29 71q-26 28 -68 28z" />
    <glyph glyph-name="AE" unicode="&#xc6;" horiz-adv-x="1664" 
d="M1033 615v-468h531v-147h-703v343h-495l-190 -343h-183l764 1365h807v-147h-531v-456h531v-147h-531zM861 487v754l-417 -754h417z" />
    <glyph glyph-name="Ccedilla" unicode="&#xc7;" horiz-adv-x="1291" 
d="M1126 322l115 -116q-88 -104 -178 -153q-143 -78 -321 -78q-291 0 -471 201q-95 107 -143 259q-38 119 -38 245q0 198 88 369q84 163 235 254q146 87 331 87q189 0 341 -93q74 -46 160 -140l-119 -111q-75 77 -129 112q-114 73 -250 73q-221 0 -360 -173
q-121 -151 -121 -377q0 -167 74 -304q59 -108 172 -175q113 -68 244 -68q133 0 244 70q61 39 126 118zM583 -427l-87 68q90 60 133 122q31 47 51 120l159 -54q-36 -79 -89 -134q-58 -60 -167 -122z" />
    <glyph glyph-name="Egrave" unicode="&#xc8;" horiz-adv-x="969" 
d="M326 1218v-456h539v-147h-539v-468h539v-147h-711v1365h711v-147h-539zM392 1740l182 -268h-123l-247 268h188z" />
    <glyph glyph-name="Eacute" unicode="&#xc9;" horiz-adv-x="969" 
d="M326 1218v-456h539v-147h-539v-468h539v-147h-711v1365h711v-147h-539zM577 1740h188l-247 -268h-122z" />
    <glyph glyph-name="Ecircumflex" unicode="&#xca;" horiz-adv-x="969" 
d="M326 1218v-456h539v-147h-539v-468h539v-147h-711v1365h711v-147h-539zM486 1642l-154 -170h-136l222 272h143l213 -272h-134z" />
    <glyph glyph-name="Edieresis" unicode="&#xcb;" horiz-adv-x="969" 
d="M326 1218v-456h539v-147h-539v-468h539v-147h-711v1365h711v-147h-539zM276 1715q44 0 74 -32q29 -30 29 -74q0 -47 -37 -78q-28 -24 -67 -24q-45 0 -75 32q-29 30 -29 72q0 48 37 80q28 24 68 24zM694 1715q44 0 74 -32q29 -30 29 -74q0 -47 -37 -78q-28 -24 -67 -24
q-46 0 -76 32q-28 30 -28 72q0 48 37 80q28 24 68 24z" />
    <glyph glyph-name="Igrave" unicode="&#xcc;" horiz-adv-x="513" 
d="M342 1365v-1365h-172v1365h172zM164 1740l181 -268h-122l-247 268h188z" />
    <glyph glyph-name="Iacute" unicode="&#xcd;" horiz-adv-x="513" 
d="M342 1365v-1365h-172v1365h172zM349 1740h187l-247 -268h-122z" />
    <glyph glyph-name="Icircumflex" unicode="&#xce;" horiz-adv-x="513" 
d="M342 1365v-1365h-172v1365h172zM257 1642l-154 -170h-136l223 272h142l213 -272h-134z" />
    <glyph glyph-name="Idieresis" unicode="&#xcf;" horiz-adv-x="513" 
d="M342 1365v-1365h-172v1365h172zM105 1715q44 0 74 -32q29 -30 29 -74q0 -47 -37 -78q-28 -24 -67 -24q-46 0 -76 32q-28 30 -28 72q0 48 37 80q28 24 68 24zM408 1715q44 0 74 -32q29 -30 29 -74q0 -46 -37 -78q-28 -24 -67 -24q-45 0 -75 32q-29 30 -29 72q0 48 37 80
q28 24 68 24z" />
    <glyph glyph-name="Eth" unicode="&#xd0;" horiz-adv-x="1282" 
d="M170 763v602h363q288 0 460 -155q199 -179 199 -507q0 -250 -110 -422q-179 -281 -580 -281h-332v624h-153v139h153zM342 763h334v-139h-334v-476h61q233 0 329 41q148 63 221 209q63 125 63 304q0 267 -152 405q-123 112 -337 112h-185v-456z" />
    <glyph glyph-name="Ntilde" unicode="&#xd1;" horiz-adv-x="1398" 
d="M342 1043v-1043h-172v1365h157l729 -1028v1028h172v-1365h-151zM928 1708l112 -42q-41 -76 -72 -108q-61 -63 -130 -63q-47 0 -144 50q-69 35 -101 35q-61 0 -96 -88l-111 33q39 84 68 118q57 65 126 65q47 0 157 -55q71 -36 93 -36q59 0 98 91z" />
    <glyph glyph-name="Ograve" unicode="&#xd2;" horiz-adv-x="1520" 
d="M766 1390q179 0 334 -94q330 -199 330 -627q0 -200 -89 -358q-93 -164 -267 -257q-148 -79 -311 -79q-196 0 -364 109q-309 198 -309 591q0 323 208 525q196 190 468 190zM762 1231q-236 0 -382 -190q-114 -147 -114 -360q0 -235 137 -389q140 -159 355 -159
q124 0 233 60q133 73 196 197q67 132 67 282q0 267 -155 418q-145 141 -337 141zM668 1740l181 -268h-122l-247 268h188z" />
    <glyph glyph-name="Oacute" unicode="&#xd3;" horiz-adv-x="1520" 
d="M766 1390q179 0 334 -94q330 -199 330 -627q0 -200 -89 -358q-93 -164 -267 -257q-148 -79 -311 -79q-196 0 -364 109q-309 198 -309 591q0 323 208 525q196 190 468 190zM762 1231q-236 0 -382 -190q-114 -147 -114 -360q0 -235 137 -389q140 -159 355 -159
q124 0 233 60q133 73 196 197q67 132 67 282q0 267 -155 418q-145 141 -337 141zM853 1740h187l-246 -268h-123z" />
    <glyph glyph-name="Ocircumflex" unicode="&#xd4;" horiz-adv-x="1520" 
d="M766 1390q179 0 334 -94q330 -199 330 -627q0 -200 -89 -358q-93 -164 -267 -257q-148 -79 -311 -79q-196 0 -364 109q-309 198 -309 591q0 323 208 525q196 190 468 190zM762 1231q-236 0 -382 -190q-114 -147 -114 -360q0 -235 137 -389q140 -159 355 -159
q124 0 233 60q133 73 196 197q67 132 67 282q0 267 -155 418q-145 141 -337 141zM761 1642l-154 -170h-136l223 272h142l213 -272h-134z" />
    <glyph glyph-name="Otilde" unicode="&#xd5;" horiz-adv-x="1520" 
d="M766 1390q179 0 334 -94q330 -199 330 -627q0 -200 -89 -358q-93 -164 -267 -257q-148 -79 -311 -79q-196 0 -364 109q-309 198 -309 591q0 323 208 525q196 190 468 190zM762 1231q-236 0 -382 -190q-114 -147 -114 -360q0 -235 137 -389q140 -159 355 -159
q124 0 233 60q133 73 196 197q67 132 67 282q0 267 -155 418q-145 141 -337 141zM989 1708l112 -42q-41 -76 -72 -108q-61 -63 -130 -63q-47 0 -144 50q-69 35 -101 35q-61 0 -96 -88l-111 33q39 84 69 118q56 65 125 65q47 0 157 -55q71 -36 93 -36q59 0 98 91z" />
    <glyph glyph-name="Odieresis" unicode="&#xd6;" horiz-adv-x="1520" 
d="M766 1390q179 0 334 -94q330 -199 330 -627q0 -200 -89 -358q-93 -164 -267 -257q-148 -79 -311 -79q-196 0 -364 109q-309 198 -309 591q0 323 208 525q196 190 468 190zM762 1231q-236 0 -382 -190q-114 -147 -114 -360q0 -235 137 -389q140 -159 355 -159
q124 0 233 60q133 73 196 197q67 132 67 282q0 267 -155 418q-145 141 -337 141zM551 1715q44 0 74 -32q29 -30 29 -74q0 -47 -37 -78q-28 -24 -67 -24q-45 0 -75 32q-29 30 -29 72q0 48 37 80q28 24 68 24zM969 1715q44 0 74 -32q29 -30 29 -74q0 -47 -37 -78
q-28 -24 -67 -24q-46 0 -76 32q-28 30 -28 72q0 48 37 80q28 24 68 24z" />
    <glyph glyph-name="multiply" unicode="&#xd7;" 
d="M190 1087l322 -323l324 325l65 -66l-325 -324l324 -322l-64 -64l-322 324l-325 -325l-65 65l325 324l-323 322z" />
    <glyph glyph-name="Oslash" unicode="&#xd8;" horiz-adv-x="1515" 
d="M311 151l-153 -162l-56 55l154 163q-74 90 -107 164q-59 132 -59 302q0 325 198 521q199 196 470 196q247 0 450 -176l145 154l56 -55l-145 -155q80 -109 112 -192q50 -129 50 -280q0 -333 -221 -535q-192 -176 -456 -176q-153 0 -284 67q-70 36 -154 109zM426 267
q147 -133 325 -133q143 0 261 75q122 77 180 203q58 127 58 277q0 132 -42 235q-18 46 -63 112zM1091 1096q-155 136 -329 136q-148 0 -268 -81q-128 -85 -183 -225q-45 -114 -45 -244q0 -203 108 -355z" />
    <glyph glyph-name="Ugrave" unicode="&#xd9;" horiz-adv-x="1303" 
d="M317 1365v-812q0 -171 36 -248q42 -92 145 -138q76 -34 150 -34q96 0 184 54q99 61 131 164q19 61 19 207v807h177v-808q0 -205 -49 -311q-64 -139 -202 -211q-114 -60 -254 -60q-169 0 -299 84q-139 90 -184 239q-26 87 -26 259v808h172zM560 1740l181 -268h-122
l-247 268h188z" />
    <glyph glyph-name="Uacute" unicode="&#xda;" horiz-adv-x="1303" 
d="M317 1365v-812q0 -171 36 -248q42 -92 145 -138q76 -34 150 -34q96 0 184 54q99 61 131 164q19 61 19 207v807h177v-808q0 -205 -49 -311q-64 -139 -202 -211q-114 -60 -254 -60q-169 0 -299 84q-139 90 -184 239q-26 87 -26 259v808h172zM745 1740h188l-247 -268h-123z
" />
    <glyph glyph-name="Ucircumflex" unicode="&#xdb;" horiz-adv-x="1303" 
d="M317 1365v-812q0 -171 36 -248q42 -92 145 -138q76 -34 150 -34q96 0 184 54q99 61 131 164q19 61 19 207v807h177v-808q0 -205 -49 -311q-64 -139 -202 -211q-114 -60 -254 -60q-169 0 -299 84q-139 90 -184 239q-26 87 -26 259v808h172zM653 1642l-154 -170h-136
l223 272h143l212 -272h-134z" />
    <glyph glyph-name="Udieresis" unicode="&#xdc;" horiz-adv-x="1303" 
d="M317 1365v-812q0 -171 36 -248q42 -92 145 -138q76 -34 150 -34q96 0 184 54q99 61 131 164q19 61 19 207v807h177v-808q0 -205 -49 -311q-64 -139 -202 -211q-114 -60 -254 -60q-169 0 -299 84q-139 90 -184 239q-26 87 -26 259v808h172zM443 1715q44 0 74 -32
q29 -30 29 -74q0 -47 -37 -78q-28 -24 -67 -24q-46 0 -76 32q-28 30 -28 72q0 49 37 80q28 24 68 24zM862 1715q44 0 74 -32q29 -30 29 -74q0 -47 -37 -78q-28 -24 -67 -24q-46 0 -76 32q-28 30 -28 72q0 48 37 80q28 24 68 24z" />
    <glyph glyph-name="Yacute" unicode="&#xdd;" horiz-adv-x="1084" 
d="M632 601v-601h-172v601l-472 764h205l352 -585l347 585h204zM635 1740h187l-246 -268h-123z" />
    <glyph glyph-name="Thorn" unicode="&#xde;" horiz-adv-x="1087" 
d="M332 350v-350h-172v1365h172v-172h193q243 0 367 -104q133 -111 133 -314q0 -159 -85 -270q-62 -80 -154 -117q-98 -38 -242 -38h-212zM332 497h178q103 0 171 24q81 28 128 100q43 66 43 150q0 124 -87 199q-88 75 -277 75h-156v-548z" />
    <glyph glyph-name="germandbls" unicode="&#xdf;" horiz-adv-x="1015" 
d="M166 806h-108v138h108v117q0 147 92 229q93 83 251 83q151 0 239 -75q52 -44 80 -114q23 -56 23 -115q0 -104 -57 -182q-36 -51 -128 -93q101 -25 160 -83q108 -107 108 -290q0 -193 -98 -317q-50 -62 -129 -94q-67 -27 -141 -27q-89 0 -159 39l40 128q65 -22 108 -22
q93 0 153 72q69 83 69 217q0 276 -275 284v151q81 10 119 38q31 23 51 64q22 45 22 96q0 76 -50 128q-52 54 -134 54q-99 0 -151 -64q-36 -43 -36 -133v-1035h-157v806z" />
    <glyph glyph-name="agrave" unicode="&#xe0;" horiz-adv-x="1181" 
d="M867 788v156h157v-944h-157v181q-136 -203 -344 -203q-199 0 -329 148q-115 132 -115 342q0 147 63 269q57 110 170 173q99 56 216 56q122 0 221 -62q60 -38 118 -116zM552 827q-149 0 -231 -112q-77 -106 -77 -249q0 -167 101 -267q85 -85 202 -85q147 0 242 123
q81 104 81 245q0 154 -86 246q-92 99 -232 99zM502 1351l169 -270h-112l-241 270h184z" />
    <glyph glyph-name="aacute" unicode="&#xe1;" horiz-adv-x="1181" 
d="M867 788v156h157v-944h-157v181q-136 -203 -344 -203q-199 0 -329 148q-115 132 -115 342q0 147 63 269q57 110 170 173q99 56 216 56q122 0 221 -62q60 -38 118 -116zM552 827q-149 0 -231 -112q-77 -106 -77 -249q0 -167 101 -267q85 -85 202 -85q147 0 242 123
q81 104 81 245q0 154 -86 246q-92 99 -232 99zM679 1351h183l-241 -270h-112z" />
    <glyph glyph-name="acircumflex" unicode="&#xe2;" horiz-adv-x="1181" 
d="M867 788v156h157v-944h-157v181q-136 -203 -344 -203q-199 0 -329 148q-115 132 -115 342q0 147 63 269q57 110 170 173q99 56 216 56q122 0 221 -62q60 -38 118 -116zM552 827q-149 0 -231 -112q-77 -106 -77 -249q0 -167 101 -267q85 -85 202 -85q147 0 242 123
q81 104 81 245q0 154 -86 246q-92 99 -232 99zM589 1254l-148 -173h-134l212 272h147l208 -272h-135z" />
    <glyph glyph-name="atilde" unicode="&#xe3;" horiz-adv-x="1181" 
d="M867 788v156h157v-944h-157v181q-136 -203 -344 -203q-199 0 -329 148q-115 132 -115 342q0 147 63 269q57 110 170 173q99 56 216 56q122 0 221 -62q60 -38 118 -116zM552 827q-149 0 -231 -112q-77 -106 -77 -249q0 -167 101 -267q85 -85 202 -85q147 0 242 123
q81 104 81 245q0 154 -86 246q-92 99 -232 99zM819 1311l104 -37q-34 -66 -63 -103q-57 -70 -131 -70q-52 0 -175 74q-43 26 -69 26q-58 0 -95 -82l-105 45q82 160 195 160q65 0 190 -79q31 -20 54 -20q59 0 95 86z" />
    <glyph glyph-name="adieresis" unicode="&#xe4;" horiz-adv-x="1181" 
d="M867 788v156h157v-944h-157v181q-136 -203 -344 -203q-199 0 -329 148q-115 132 -115 342q0 147 63 269q57 110 170 173q99 56 216 56q122 0 221 -62q60 -38 118 -116zM552 827q-149 0 -231 -112q-77 -106 -77 -250q0 -166 101 -266q85 -85 202 -85q147 0 242 123
q81 104 81 245q0 154 -86 246q-92 99 -232 99zM397 1312q43 0 72 -31q24 -26 24 -67q0 -44 -32 -71q-27 -24 -65 -24q-43 0 -72 31q-24 26 -24 66q0 45 32 72q27 24 65 24zM806 1312q43 0 72 -31q24 -26 24 -67q0 -44 -32 -71q-27 -24 -64 -24q-45 0 -73 31q-24 27 -24 66
q0 44 32 72q26 24 65 24z" />
    <glyph glyph-name="aring" unicode="&#xe5;" horiz-adv-x="1181" 
d="M867 788v156h157v-944h-157v181q-136 -203 -344 -203q-199 0 -329 148q-115 132 -115 342q0 147 63 269q57 110 170 173q99 56 216 56q122 0 221 -62q60 -38 118 -116zM552 827q-149 0 -231 -112q-77 -106 -77 -250q0 -166 101 -266q85 -85 202 -85q147 0 242 123
q81 104 81 245q0 154 -86 246q-92 99 -232 99zM559 1386q70 0 119 -51q44 -45 44 -115q0 -74 -56 -121q-47 -39 -108 -39q-71 0 -120 51q-44 46 -44 112q0 76 56 124q47 39 109 39zM559 1321q-50 0 -77 -35q-22 -28 -22 -63q0 -41 29 -71q26 -27 69 -27q49 0 76 35
q22 28 22 61q0 42 -29 73q-25 27 -68 27z" />
    <glyph glyph-name="ae" unicode="&#xe6;" horiz-adv-x="1898" 
d="M1643 284l134 -54q-53 -99 -126 -156q-126 -96 -293 -96q-116 0 -205 53q-67 40 -120 127v-158h-153v174q-58 -88 -127 -132q-100 -64 -220 -64q-211 0 -342 152q-111 129 -111 340q0 223 127 359q128 137 319 137q217 0 354 -175v153h153v-153q60 89 130 127
q90 48 203 48q209 0 337 -148q66 -77 99 -177q27 -83 27 -160q0 -30 -1 -60h-796q19 -120 76 -188q45 -53 111 -83q64 -29 131 -29q178 0 293 163zM1665 535q-14 97 -55 157q-91 135 -258 135q-114 0 -201 -67q-73 -58 -102 -148q-8 -26 -17 -77h633zM563 827
q-174 0 -257 -137q-61 -101 -61 -225q0 -162 99 -261q92 -91 217 -91q148 0 242 121q77 100 77 239q0 167 -95 263q-90 91 -222 91z" />
    <glyph glyph-name="ccedilla" unicode="&#xe7;" horiz-adv-x="935" 
d="M794 224l96 -107q-70 -65 -133 -94q-99 -45 -214 -45q-203 0 -336 142q-127 134 -127 350q0 151 70 274q67 120 194 179q95 44 207 44q199 0 345 -142l-102 -100q-106 99 -240 99q-149 0 -238 -110q-76 -94 -76 -238q0 -178 105 -275q87 -80 207 -80q135 0 242 103z
M387 -436l-65 70q89 55 134 117q41 55 69 141l128 -50q-49 -98 -103 -156q-58 -62 -163 -122z" />
    <glyph glyph-name="egrave" unicode="&#xe8;" horiz-adv-x="1105" 
d="M1032 422h-787q12 -105 62 -174q95 -128 254 -128q104 0 198 68q53 38 85 95l137 -51q-44 -90 -121 -150q-134 -105 -299 -105q-229 0 -369 165q-112 131 -112 327q0 220 135 359q134 138 341 138q242 0 380 -182q99 -131 99 -301q0 -19 -3 -61zM869 536q-9 99 -55 162
q-40 57 -104 91q-72 38 -155 38q-111 0 -193 -67q-90 -72 -114 -224h621zM464 1351l169 -270h-112l-241 270h184z" />
    <glyph glyph-name="eacute" unicode="&#xe9;" horiz-adv-x="1105" 
d="M1032 422h-787q12 -105 62 -174q95 -128 254 -128q104 0 198 68q53 38 85 95l137 -51q-44 -90 -121 -150q-134 -105 -299 -105q-229 0 -369 165q-112 131 -112 327q0 220 135 359q134 138 341 138q242 0 380 -182q99 -131 99 -301q0 -19 -3 -61zM869 536q-9 99 -55 162
q-40 57 -104 91q-72 38 -155 38q-111 0 -193 -67q-90 -72 -114 -224h621zM640 1351h184l-241 -270h-112z" />
    <glyph glyph-name="ecircumflex" unicode="&#xea;" horiz-adv-x="1105" 
d="M1032 422h-787q12 -105 62 -174q95 -128 254 -128q104 0 198 68q53 38 85 95l137 -51q-44 -90 -121 -150q-134 -105 -299 -105q-229 0 -369 165q-112 131 -112 327q0 220 135 359q134 138 341 138q242 0 380 -182q99 -131 99 -301q0 -19 -3 -61zM869 536q-9 99 -55 162
q-40 57 -104 91q-72 38 -155 38q-111 0 -193 -67q-90 -72 -114 -224h621zM551 1254l-149 -173h-133l212 272h147l208 -272h-135z" />
    <glyph glyph-name="edieresis" unicode="&#xeb;" horiz-adv-x="1105" 
d="M1032 422h-787q12 -105 62 -174q95 -128 254 -128q104 0 198 68q53 38 85 95l137 -51q-44 -90 -121 -150q-134 -105 -299 -105q-229 0 -369 165q-112 131 -112 327q0 220 135 359q134 138 341 138q242 0 380 -182q99 -131 99 -301q0 -19 -3 -61zM869 536q-9 99 -55 162
q-40 57 -104 91q-72 38 -155 38q-111 0 -193 -67q-90 -72 -114 -224h621zM348 1312q43 0 72 -31q24 -26 24 -67q0 -44 -32 -71q-27 -24 -65 -24q-43 0 -72 31q-24 26 -24 66q0 45 32 72q27 24 65 24zM757 1312q43 0 72 -31q24 -26 24 -67q0 -44 -32 -71q-27 -24 -64 -24
q-45 0 -73 31q-24 27 -24 66q0 44 32 72q26 24 65 24z" />
    <glyph glyph-name="igrave" unicode="&#xec;" horiz-adv-x="469" 
d="M313 944v-944h-156v944h156zM147 1351l169 -270h-112l-241 270h184z" />
    <glyph glyph-name="iacute" unicode="&#xed;" horiz-adv-x="469" 
d="M313 944v-944h-156v944h156zM323 1351h184l-241 -270h-112z" />
    <glyph glyph-name="icircumflex" unicode="&#xee;" horiz-adv-x="469" 
d="M312 944v-944h-156v944h156zM233 1254l-148 -173h-134l212 272h148l207 -272h-135z" />
    <glyph glyph-name="idieresis" unicode="&#xef;" horiz-adv-x="469" 
d="M312 944v-944h-156v944h156zM93 1312q43 0 72 -31q24 -26 24 -67q0 -44 -32 -71q-27 -24 -64 -24q-45 0 -73 31q-24 26 -24 66q0 45 32 72q27 24 65 24zM377 1312q43 0 72 -31q24 -26 24 -67q0 -44 -32 -71q-27 -24 -64 -24q-45 0 -73 31q-24 27 -24 66q0 44 32 72
q26 24 65 24z" />
    <glyph glyph-name="eth" unicode="&#xf0;" horiz-adv-x="1124" 
d="M369 1147l181 101q-102 90 -206 140l49 64q126 -48 254 -151l211 114l46 -78l-178 -97q101 -95 172 -216q146 -248 146 -507q0 -260 -144 -403q-139 -137 -343 -137q-136 0 -248 66q-229 133 -229 432q0 222 135 354q142 137 344 137q121 0 245 -70q-60 159 -185 287
l-207 -116zM559 822q-167 0 -256 -130q-63 -92 -63 -219q0 -167 93 -261q92 -92 227 -92q157 0 247 113q76 97 76 243q0 165 -100 260q-92 86 -224 86z" />
    <glyph glyph-name="ntilde" unicode="&#xf1;" horiz-adv-x="1042" 
d="M156 944h156v-133q53 71 105 105q78 50 175 50q133 0 217 -79q56 -51 71 -121q11 -53 11 -130v-636h-157v602q0 116 -34 162q-46 63 -148 63q-105 0 -179 -80q-61 -66 -61 -171v-576h-156v944zM749 1311l104 -37q-34 -66 -63 -103q-57 -70 -131 -70q-52 0 -175 74
q-43 26 -68 26q-59 0 -96 -82l-105 45q83 160 195 160q65 0 190 -79q31 -20 54 -20q59 0 95 86z" />
    <glyph glyph-name="ograve" unicode="&#xf2;" horiz-adv-x="1122" 
d="M563 966q225 0 367 -167q111 -131 111 -331q0 -217 -153 -361q-137 -129 -331 -129q-144 0 -262 73q-215 135 -215 422q0 236 147 369q137 124 336 124zM563 823q-154 0 -246 -110q-78 -91 -78 -243q0 -161 91 -255q93 -94 231 -94q159 0 250 120q71 93 71 230
q0 169 -95 262q-92 90 -224 90zM472 1351l169 -270h-111l-241 270h183z" />
    <glyph glyph-name="oacute" unicode="&#xf3;" horiz-adv-x="1122" 
d="M563 966q225 0 367 -167q111 -131 111 -331q0 -217 -153 -361q-137 -129 -331 -129q-144 0 -262 73q-215 135 -215 422q0 236 147 369q137 124 336 124zM563 823q-154 0 -246 -110q-78 -91 -78 -243q0 -161 91 -255q93 -94 231 -94q159 0 250 120q71 93 71 230
q0 169 -95 262q-92 90 -224 90zM649 1351h184l-242 -270h-111z" />
    <glyph glyph-name="ocircumflex" unicode="&#xf4;" horiz-adv-x="1122" 
d="M563 966q225 0 367 -167q111 -131 111 -331q0 -217 -153 -361q-137 -129 -331 -129q-144 0 -262 73q-215 135 -215 422q0 236 147 369q137 124 336 124zM563 823q-154 0 -246 -110q-78 -91 -78 -243q0 -161 91 -255q93 -94 231 -94q159 0 250 120q71 93 71 230
q0 169 -95 262q-92 90 -224 90zM559 1254l-148 -173h-134l212 272h148l207 -272h-135z" />
    <glyph glyph-name="otilde" unicode="&#xf5;" horiz-adv-x="1122" 
d="M563 966q225 0 367 -167q111 -131 111 -331q0 -217 -153 -361q-137 -129 -331 -129q-144 0 -262 73q-215 135 -215 422q0 236 147 369q137 124 336 124zM563 823q-154 0 -246 -110q-78 -91 -78 -243q0 -161 91 -255q93 -94 231 -94q159 0 250 120q71 93 71 230
q0 169 -95 262q-92 90 -224 90zM790 1311l103 -37q-33 -66 -63 -103q-56 -70 -131 -70q-51 0 -175 74q-43 26 -68 26q-58 0 -96 -82l-104 45q82 160 194 160q65 0 190 -79q31 -20 55 -20q59 0 95 86z" />
    <glyph glyph-name="odieresis" unicode="&#xf6;" horiz-adv-x="1122" 
d="M563 966q225 0 367 -167q111 -131 111 -331q0 -217 -153 -361q-137 -129 -331 -129q-143 0 -261 73q-216 135 -216 422q0 235 147 369q137 124 336 124zM563 823q-154 0 -246 -110q-78 -91 -78 -243q0 -161 91 -255q93 -94 231 -94q159 0 250 120q71 93 71 230
q0 170 -95 262q-92 90 -224 90zM356 1312q43 0 72 -31q24 -26 24 -67q0 -44 -32 -71q-27 -24 -64 -24q-45 0 -73 31q-24 26 -24 66q0 45 32 72q27 24 65 24zM766 1312q43 0 72 -31q24 -26 24 -67q0 -44 -32 -71q-27 -24 -64 -24q-45 0 -73 31q-24 27 -24 66q0 44 32 72
q26 24 65 24z" />
    <glyph glyph-name="divide" unicode="&#xf7;" 
d="M45 745h933v-90h-933v90zM513 1158q32 0 57 -24q24 -23 24 -58t-25 -60q-24 -23 -57 -23q-34 0 -58 23q-25 25 -25 59q0 36 25 59q25 24 59 24zM512 406q35 0 59 -25q23 -24 23 -57q0 -35 -25 -60q-24 -23 -58 -23q-33 0 -57 23q-25 25 -25 60q0 34 23 57q25 25 60 25z
" />
    <glyph glyph-name="oslash" unicode="&#xf8;" horiz-adv-x="1122" 
d="M244 88l-108 -115l-58 55l111 116q-51 69 -73 125q-36 93 -36 202q0 239 151 374q138 122 324 122q177 0 315 -108l124 131l54 -56l-121 -128q55 -73 78 -131q37 -93 37 -199q0 -242 -167 -385q-132 -113 -322 -113q-172 0 -309 110zM352 199q91 -78 211 -78
q138 0 233 101q89 94 89 253q0 116 -68 221zM763 751q-90 72 -206 72q-154 0 -247 -115q-74 -92 -74 -237q0 -117 63 -214z" />
    <glyph glyph-name="ugrave" unicode="&#xf9;" horiz-adv-x="993" 
d="M707 944h157v-605q0 -132 -42 -200q-47 -76 -137 -120q-86 -41 -187 -41q-168 0 -273 100q-95 91 -95 261v605h156v-599q0 -101 58 -164q59 -64 154 -64q105 0 166 72q43 49 43 150v605zM409 1351l169 -270h-112l-241 270h184z" />
    <glyph glyph-name="uacute" unicode="&#xfa;" horiz-adv-x="993" 
d="M707 944h157v-605q0 -132 -42 -200q-47 -76 -137 -120q-86 -41 -187 -41q-168 0 -273 100q-95 91 -95 261v605h156v-599q0 -101 58 -164q59 -64 154 -64q105 0 166 72q43 49 43 150v605zM585 1351h184l-241 -270h-112z" />
    <glyph glyph-name="ucircumflex" unicode="&#xfb;" horiz-adv-x="993" 
d="M707 944h157v-605q0 -132 -42 -200q-47 -76 -137 -120q-86 -41 -187 -41q-168 0 -273 100q-95 91 -95 261v605h156v-599q0 -101 58 -164q59 -64 154 -64q105 0 166 72q43 49 43 150v605zM496 1254l-149 -173h-134l212 272h148l207 -272h-134z" />
    <glyph glyph-name="udieresis" unicode="&#xfc;" horiz-adv-x="993" 
d="M707 944h157v-605q0 -132 -42 -200q-47 -76 -137 -120q-86 -41 -187 -41q-167 0 -272 100q-96 91 -96 261v605h157v-599q0 -101 58 -164q59 -64 153 -64q105 0 166 72q43 49 43 150v605zM292 1312q43 0 72 -31q24 -26 24 -67q0 -44 -32 -71q-27 -24 -64 -24q-45 0 -73 31
q-24 26 -24 66q0 45 32 72q27 24 65 24zM702 1312q43 0 72 -31q24 -26 24 -67q0 -44 -32 -71q-27 -24 -64 -24q-45 0 -73 31q-24 26 -24 66q0 45 32 72q27 24 65 24z" />
    <glyph glyph-name="yacute" unicode="&#xfd;" horiz-adv-x="896" 
d="M432 244l282 700h170l-564 -1400h-169l197 486l-336 914h166zM536 1351h184l-241 -270h-112z" />
    <glyph glyph-name="thorn" unicode="&#xfe;" horiz-adv-x="1177" 
d="M151 1365h157v-593q57 88 116 129q93 65 228 65q168 0 286 -105q158 -139 158 -382q0 -239 -143 -381q-122 -121 -301 -121q-110 0 -206 49q-74 37 -138 121v-589h-157v1807zM626 827q-168 0 -258 -141q-59 -94 -59 -228q0 -170 96 -261q88 -84 214 -84q166 0 251 131
q60 95 60 228q0 166 -82 257q-89 98 -222 98z" />
    <glyph glyph-name="ydieresis" unicode="&#xff;" horiz-adv-x="896" 
d="M432 244l282 700h170l-564 -1400h-169l197 486l-336 914h166zM244 1312q43 0 72 -31q24 -26 24 -67q0 -44 -32 -71q-27 -24 -64 -24q-44 0 -73 31q-24 26 -24 66q0 45 32 72q27 24 65 24zM653 1312q43 0 72 -31q24 -26 24 -67q0 -44 -32 -71q-27 -24 -64 -24
q-44 0 -73 31q-24 27 -24 66q0 44 32 72q27 24 65 24z" />
    <glyph glyph-name="Amacron" unicode="&#x100;" horiz-adv-x="1240" 
d="M925 316h-613l-123 -316h-179l515 1365h203l502 -1365h-191zM873 464l-251 684l-257 -684h508zM908 1663v-118h-576v118h576z" />
    <glyph glyph-name="amacron" unicode="&#x101;" horiz-adv-x="1181" 
d="M867 788v156h157v-944h-157v181q-136 -203 -344 -203q-199 0 -329 148q-115 132 -115 342q0 147 63 269q57 110 170 173q99 56 216 56q122 0 221 -62q60 -38 118 -116zM552 827q-149 0 -231 -112q-77 -106 -77 -249q0 -167 101 -267q85 -85 202 -85q147 0 242 123
q81 104 81 245q0 154 -86 246q-92 99 -232 99zM831 1278v-127h-557v127h557z" />
    <glyph glyph-name="Abreve" unicode="&#x102;" horiz-adv-x="1240" 
d="M925 316h-613l-123 -316h-179l515 1365h203l502 -1365h-191zM873 464l-251 684l-257 -684h508zM303 1715h132q23 -43 47 -64q50 -44 138 -44t138 44q24 21 47 64h132q-18 -69 -60 -116q-93 -104 -257 -104q-163 0 -257 104q-42 47 -60 116z" />
    <glyph glyph-name="abreve" unicode="&#x103;" horiz-adv-x="1181" 
d="M867 788v156h157v-944h-157v181q-136 -203 -344 -203q-199 0 -329 148q-115 132 -115 342q0 147 63 269q57 110 170 173q99 56 216 56q122 0 221 -62q60 -38 118 -116zM552 827q-149 0 -231 -112q-77 -106 -77 -249q0 -167 101 -267q85 -85 202 -85q147 0 242 123
q81 104 81 245q0 154 -86 246q-92 99 -232 99zM248 1342h127q21 -41 44 -62q48 -43 133 -43t133 43q23 20 45 62h126q-17 -67 -57 -111q-90 -101 -247 -101t-247 101q-40 45 -57 111z" />
    <glyph glyph-name="Aogonek" unicode="&#x104;" horiz-adv-x="1240" 
d="M1196 0q-72 -54 -98 -84q-43 -50 -43 -101q0 -23 14 -43q32 -45 102 -45q31 0 77 12l20 -103q-62 -22 -120 -22q-111 0 -172 60q-49 49 -49 109q0 124 145 217h-33l-114 316h-613l-123 -316h-179l515 1365h203l502 -1365h-34zM873 464l-251 684l-257 -684h508z" />
    <glyph glyph-name="aogonek" unicode="&#x105;" horiz-adv-x="1181" 
d="M979 0q-71 -58 -88 -79q-38 -46 -38 -94t43 -72q28 -16 69 -16q29 0 73 13l19 -94q-57 -21 -111 -21q-93 0 -149 44q-60 48 -60 118q0 115 133 201h-3v181q-136 -203 -344 -203q-199 0 -329 148q-115 132 -115 342q0 147 63 269q57 110 170 173q99 56 216 56
q122 0 221 -62q60 -38 118 -116v156h157v-944h-45zM552 827q-149 0 -231 -112q-77 -106 -77 -249q0 -167 101 -267q85 -85 202 -85q147 0 242 123q81 104 81 245q0 154 -86 246q-92 99 -232 99z" />
    <glyph glyph-name="Cacute" unicode="&#x106;" horiz-adv-x="1291" 
d="M1126 322l115 -116q-89 -104 -178 -153q-143 -78 -321 -78q-291 0 -471 201q-95 107 -143 259q-38 119 -38 245q0 198 88 369q84 163 235 254q146 87 331 87q189 0 341 -93q74 -46 160 -140l-119 -111q-75 77 -129 112q-114 73 -250 73q-221 0 -360 -173
q-121 -151 -121 -377q0 -167 74 -304q59 -108 172 -175q113 -68 244 -68q133 0 244 70q61 39 126 118zM847 1740h188l-247 -268h-122z" />
    <glyph glyph-name="cacute" unicode="&#x107;" horiz-adv-x="935" 
d="M794 224l96 -107q-70 -65 -133 -94q-99 -45 -214 -45q-203 0 -336 142q-127 134 -127 350q0 151 70 274q67 120 194 179q95 44 207 44q199 0 345 -142l-102 -100q-106 99 -240 99q-148 0 -238 -110q-76 -93 -76 -238q0 -178 105 -275q87 -80 208 -80q134 0 241 103z
M679 1351h183l-241 -270h-112z" />
    <glyph glyph-name="Ccircumflex" unicode="&#x108;" horiz-adv-x="1291" 
d="M1126 322l115 -116q-89 -104 -178 -153q-143 -78 -321 -78q-291 0 -471 201q-95 107 -143 259q-38 119 -38 245q0 198 88 369q84 163 235 254q146 87 331 87q189 0 341 -93q74 -46 160 -140l-119 -111q-75 77 -129 112q-114 73 -250 73q-221 0 -360 -173
q-121 -151 -121 -377q0 -167 74 -304q59 -108 172 -175q113 -68 244 -68q133 0 244 70q61 39 126 118zM729 1642l-154 -170h-136l222 272h143l213 -272h-134z" />
    <glyph glyph-name="Cdotaccent" unicode="&#x10a;" horiz-adv-x="1291" 
d="M1126 322l115 -116q-89 -104 -178 -153q-143 -78 -321 -78q-291 0 -471 201q-95 107 -143 259q-38 119 -38 245q0 198 88 369q84 163 235 254q146 87 331 87q189 0 341 -93q74 -46 160 -140l-119 -111q-75 77 -129 112q-114 73 -250 73q-221 0 -360 -173
q-121 -151 -121 -377q0 -167 74 -304q59 -108 172 -175q113 -68 244 -68q133 0 244 70q61 39 126 118zM755 1715q44 0 75 -32q28 -30 28 -74q0 -47 -37 -78q-28 -24 -67 -24q-45 0 -75 32q-29 30 -29 72q0 48 37 80q28 24 68 24z" />
    <glyph glyph-name="cdotaccent" unicode="&#x10b;" horiz-adv-x="935" 
d="M794 224l96 -107q-70 -65 -133 -94q-99 -45 -214 -45q-203 0 -336 142q-127 134 -127 350q0 151 70 274q67 120 194 179q95 44 207 44q199 0 345 -142l-102 -100q-106 99 -240 99q-148 0 -238 -110q-76 -93 -76 -238q0 -178 105 -275q87 -80 208 -80q134 0 241 103z
M577 1312q43 0 72 -31q24 -26 24 -67q0 -44 -32 -71q-27 -24 -65 -24q-43 0 -72 31q-24 26 -24 66q0 45 32 72q27 24 65 24z" />
    <glyph glyph-name="Ccaron" unicode="&#x10c;" horiz-adv-x="1291" 
d="M1126 322l115 -116q-89 -104 -178 -153q-143 -78 -321 -78q-291 0 -471 201q-95 107 -143 259q-38 119 -38 245q0 198 88 369q84 163 235 254q146 87 331 87q189 0 341 -93q74 -46 160 -140l-119 -111q-75 77 -129 112q-114 73 -250 73q-221 0 -360 -173
q-121 -151 -121 -377q0 -167 74 -304q59 -108 172 -175q113 -68 244 -68q133 0 244 70q61 39 126 118zM754 1574l154 170h136l-223 -272h-142l-213 272h134z" />
    <glyph glyph-name="ccaron" unicode="&#x10d;" horiz-adv-x="935" 
d="M794 224l96 -107q-70 -65 -133 -94q-99 -45 -214 -45q-203 0 -336 142q-127 134 -127 350q0 151 70 274q67 120 194 179q95 44 207 44q199 0 345 -142l-102 -100q-106 99 -240 99q-148 0 -238 -110q-76 -93 -76 -238q0 -178 105 -275q87 -80 208 -80q134 0 241 103z
M578 1180l148 173h134l-212 -272h-147l-208 272h135z" />
    <glyph glyph-name="Dcaron" unicode="&#x10e;" horiz-adv-x="1282" 
d="M170 0v1365h363q287 0 459 -155q199 -179 199 -507q0 -250 -110 -422q-179 -281 -580 -281h-331zM342 1219v-1071h61q232 0 328 41q148 63 221 208q63 126 63 304q0 267 -152 406q-123 112 -336 112h-185zM640 1574l153 170h137l-223 -272h-143l-212 272h134z" />
    <glyph glyph-name="dcaron" unicode="&#x10f;" horiz-adv-x="1491" 
d="M862 801v564h157v-1365h-157v162q-59 -81 -118 -120q-98 -64 -220 -64q-199 0 -326 143q-118 133 -118 346q0 140 59 260q53 109 157 175q104 65 227 65q100 0 191 -43q77 -35 148 -123zM557 828q-159 0 -246 -129q-66 -99 -66 -234q0 -164 94 -263q83 -88 209 -88
q139 0 229 104q45 51 67 130q19 65 19 123q0 164 -89 262q-86 95 -217 95zM1412 1342l-187 -417l-113 40l165 427z" />
    <glyph glyph-name="Dcroat" unicode="&#x110;" horiz-adv-x="1282" 
d="M170 763v602h363q288 0 460 -155q199 -179 199 -507q0 -250 -110 -422q-179 -281 -580 -281h-332v624h-153v139h153zM342 763h334v-139h-334v-476h61q233 0 329 41q148 63 221 209q63 125 63 304q0 267 -152 405q-123 112 -337 112h-185v-456z" />
    <glyph glyph-name="dcroat" unicode="&#x111;" horiz-adv-x="1175" 
d="M862 1198v167h157v-167h149v-125h-149v-1073h-157v162q-60 -81 -118 -120q-98 -64 -220 -64q-199 0 -326 143q-118 133 -118 346q0 140 59 260q53 108 157 175q104 65 227 65q100 0 191 -43q76 -35 148 -123v272h-281v125h281zM556 828q-159 0 -245 -129
q-67 -99 -67 -234q0 -164 94 -263q84 -88 210 -88q139 0 229 104q45 51 67 130q19 65 19 123q0 164 -89 262q-86 95 -218 95z" />
    <glyph glyph-name="Emacron" unicode="&#x112;" horiz-adv-x="969" 
d="M326 1218v-456h539v-147h-539v-468h539v-147h-711v1365h711v-147h-539zM797 1663v-118h-575v118h575z" />
    <glyph glyph-name="emacron" unicode="&#x113;" horiz-adv-x="1105" 
d="M1032 422h-787q12 -105 62 -174q95 -128 254 -128q104 0 198 68q53 38 85 95l137 -51q-44 -90 -121 -150q-134 -105 -299 -105q-229 0 -369 165q-112 131 -112 327q0 220 135 359q134 138 341 138q242 0 380 -182q99 -131 99 -301q0 -19 -3 -61zM869 536q-9 99 -55 162
q-40 57 -104 91q-72 38 -155 38q-111 0 -193 -67q-90 -72 -114 -224h621zM836 1278v-127h-557v127h557z" />
    <glyph glyph-name="Ebreve" unicode="&#x114;" horiz-adv-x="969" 
d="M326 1218v-456h539v-147h-539v-468h539v-147h-711v1365h711v-147h-539zM168 1715h132q23 -43 46 -64q50 -44 139 -44q88 0 138 44q23 21 46 64h133q-19 -69 -60 -116q-94 -104 -258 -104q-163 0 -257 104q-42 47 -59 116z" />
    <glyph glyph-name="Edotaccent" unicode="&#x116;" horiz-adv-x="969" 
d="M326 1218v-456h539v-147h-539v-468h539v-147h-711v1365h711v-147h-539zM485 1715q44 0 74 -32q29 -30 29 -74q0 -46 -37 -78q-28 -24 -67 -24q-45 0 -75 32q-29 30 -29 72q0 48 37 80q28 24 68 24z" />
    <glyph glyph-name="edotaccent" unicode="&#x117;" horiz-adv-x="1105" 
d="M1032 422h-787q12 -105 62 -174q95 -128 254 -128q104 0 198 68q53 38 85 95l137 -51q-44 -90 -121 -150q-134 -105 -299 -105q-229 0 -369 165q-112 131 -112 327q0 220 135 359q134 138 341 138q242 0 380 -182q99 -131 99 -301q0 -19 -3 -61zM869 536q-9 99 -55 162
q-40 57 -104 91q-72 38 -155 38q-111 0 -193 -67q-90 -72 -114 -224h621zM552 1312q43 0 72 -31q24 -26 24 -67q0 -44 -32 -71q-27 -24 -65 -24q-43 0 -72 31q-24 26 -24 66q0 45 32 72q27 24 65 24z" />
    <glyph glyph-name="Eogonek" unicode="&#x118;" horiz-adv-x="969" 
d="M856 0q-72 -54 -98 -84q-44 -50 -44 -101q0 -23 15 -43q31 -45 102 -45q31 0 77 12l19 -103q-62 -22 -120 -22q-111 0 -172 60q-49 49 -49 109q0 124 146 217h-578v1365h711v-147h-539v-456h539v-147h-539v-468h539v-147h-9z" />
    <glyph glyph-name="eogonek" unicode="&#x119;" horiz-adv-x="1105" 
d="M698 -3q-66 -55 -83 -76q-38 -47 -38 -94q0 -48 43 -72q27 -16 68 -16q30 0 73 13l19 -95q-57 -20 -111 -20q-93 0 -148 44q-60 48 -60 118q0 99 100 178q-150 4 -262 74q-219 135 -219 419q0 219 135 358q134 138 341 138q242 0 380 -182q99 -131 99 -301q0 -19 -3 -61
h-787q12 -105 62 -173q95 -128 254 -128q107 0 198 67q54 40 85 95l137 -51q-86 -172 -283 -235zM869 536q-9 99 -55 162q-40 57 -104 91q-72 38 -155 38q-111 0 -193 -67q-90 -72 -114 -224h621z" />
    <glyph glyph-name="Ecaron" unicode="&#x11a;" horiz-adv-x="969" 
d="M326 1218v-456h539v-147h-539v-468h539v-147h-711v1365h711v-147h-539zM483 1574l154 170h136l-222 -272h-143l-212 272h134z" />
    <glyph glyph-name="ecaron" unicode="&#x11b;" horiz-adv-x="1105" 
d="M1032 422h-787q12 -105 62 -174q95 -128 254 -128q104 0 198 68q53 38 85 95l137 -51q-44 -90 -121 -150q-134 -105 -299 -105q-229 0 -369 165q-112 131 -112 327q0 220 135 359q134 138 341 138q242 0 380 -182q99 -131 99 -301q0 -19 -3 -61zM869 536q-9 99 -55 162
q-40 57 -104 91q-72 38 -155 38q-111 0 -193 -67q-90 -72 -114 -224h621zM553 1180l149 173h134l-212 -272h-148l-207 272h135z" />
    <glyph glyph-name="Gcircumflex" unicode="&#x11c;" horiz-adv-x="1500" 
d="M765 739h651q1 -40 1 -78q0 -189 -68 -322q-86 -168 -240 -266q-152 -98 -346 -98q-191 0 -349 94q-148 89 -233 239q-92 162 -92 371q0 169 66 320q77 178 230 282q163 109 379 109q192 0 354 -104q88 -56 158 -144l-129 -104q-67 76 -114 109q-119 85 -269 85
q-158 0 -285 -95q-114 -83 -168 -217q-46 -113 -46 -238q0 -158 72 -292q59 -112 169 -182q118 -76 254 -76q164 0 303 108q124 96 161 253q9 35 15 99h-474v147zM751 1642l-154 -170h-136l223 272h142l213 -272h-134z" />
    <glyph glyph-name="gcircumflex" unicode="&#x11d;" horiz-adv-x="1167" 
d="M856 782v162h155v-950q0 -159 -53 -255q-63 -115 -187 -171q-101 -46 -232 -46q-263 0 -417 173l106 106q53 -59 90 -82q88 -56 220 -56q160 0 247 93q71 76 71 226v198q-61 -92 -124 -134q-101 -68 -224 -68q-112 0 -209 57q-112 65 -169 176q-59 118 -59 258
q0 149 67 277q117 221 383 221q108 0 196 -51q71 -41 139 -134zM549 824q-147 0 -238 -111q-75 -92 -75 -237q0 -178 110 -277q87 -78 198 -78q142 0 240 114q67 79 67 235q0 166 -73 249q-92 105 -229 105zM583 1254l-149 -173h-134l212 272h148l207 -272h-134z" />
    <glyph glyph-name="Gbreve" unicode="&#x11e;" horiz-adv-x="1500" 
d="M765 739h651q1 -40 1 -78q0 -189 -68 -322q-86 -168 -240 -266q-152 -98 -346 -98q-191 0 -349 94q-148 89 -233 239q-92 162 -92 371q0 169 66 320q77 178 230 282q163 109 379 109q192 0 354 -104q88 -56 158 -144l-129 -104q-67 76 -114 109q-119 85 -269 85
q-158 0 -285 -95q-114 -83 -168 -217q-46 -113 -46 -238q0 -158 72 -292q59 -112 169 -182q118 -76 254 -76q164 0 303 108q124 96 161 253q9 35 15 99h-474v147zM433 1715h132q23 -43 47 -64q50 -44 138 -44t138 44q24 21 47 64h132q-18 -69 -60 -116q-93 -104 -257 -104
q-163 0 -257 104q-42 47 -60 116z" />
    <glyph glyph-name="gbreve" unicode="&#x11f;" horiz-adv-x="1167" 
d="M856 782v162h155v-950q0 -159 -53 -255q-63 -115 -187 -171q-101 -46 -232 -46q-263 0 -417 173l106 106q53 -59 90 -82q88 -56 220 -56q160 0 247 93q71 76 71 226v198q-61 -92 -124 -134q-101 -68 -224 -68q-112 0 -209 57q-112 65 -169 176q-59 118 -59 258
q0 149 67 277q117 221 383 221q108 0 196 -51q71 -41 139 -134zM549 824q-147 0 -238 -111q-75 -92 -75 -237q0 -178 110 -277q87 -78 198 -78q142 0 240 114q67 79 67 235q0 166 -73 249q-92 105 -229 105zM237 1342h126q22 -41 45 -62q48 -43 133 -43t133 43q22 20 44 62
h127q-17 -67 -57 -111q-90 -101 -247 -101t-247 101q-40 45 -57 111z" />
    <glyph glyph-name="Gdotaccent" unicode="&#x120;" horiz-adv-x="1500" 
d="M765 739h651q1 -40 1 -78q0 -189 -68 -322q-86 -168 -240 -266q-152 -98 -346 -98q-191 0 -349 94q-148 89 -233 239q-92 162 -92 371q0 169 66 320q77 178 230 282q163 109 379 109q192 0 354 -104q88 -56 158 -144l-129 -104q-67 76 -114 109q-119 85 -269 85
q-158 0 -285 -95q-114 -83 -168 -217q-46 -113 -46 -238q0 -158 72 -292q59 -112 169 -182q118 -76 254 -76q164 0 303 108q124 96 161 253q9 35 15 99h-474v147zM750 1715q44 0 74 -32q29 -30 29 -74q0 -46 -37 -78q-28 -24 -67 -24q-45 0 -75 32q-29 30 -29 72q0 48 37 80
q28 24 68 24z" />
    <glyph glyph-name="gdotaccent" unicode="&#x121;" horiz-adv-x="1167" 
d="M856 782v162h155v-950q0 -159 -53 -255q-63 -115 -187 -171q-101 -46 -232 -46q-263 0 -417 173l106 106q53 -59 90 -82q88 -56 220 -56q160 0 247 93q71 76 71 226v198q-61 -92 -124 -134q-101 -68 -224 -68q-112 0 -209 57q-112 65 -169 176q-59 118 -59 258
q0 149 67 277q117 221 383 221q108 0 196 -51q71 -41 139 -134zM549 824q-147 0 -238 -111q-75 -92 -75 -237q0 -178 110 -277q87 -78 198 -78q142 0 240 114q67 79 67 235q0 166 -73 249q-92 105 -229 105zM543 1312q43 0 72 -31q24 -26 24 -67q0 -44 -32 -71
q-27 -24 -65 -24q-43 0 -72 31q-24 26 -24 66q0 45 32 72q27 24 65 24z" />
    <glyph glyph-name="Gcommaaccent" unicode="&#x122;" horiz-adv-x="1500" 
d="M765 739h651q1 -40 1 -78q0 -189 -68 -322q-86 -168 -240 -266q-152 -98 -346 -98q-191 0 -349 94q-148 89 -233 239q-92 162 -92 371q0 169 66 320q77 178 230 282q163 109 379 109q192 0 354 -104q88 -56 158 -144l-129 -104q-67 76 -114 109q-119 85 -269 85
q-158 0 -285 -95q-114 -83 -168 -217q-46 -113 -46 -238q0 -158 72 -292q59 -112 169 -182q118 -76 254 -76q164 0 303 108q124 96 161 253q9 35 15 99h-474v147zM819 -86v-144q0 -116 -52 -173q-16 -18 -69 -41q-20 -9 -42 -13v66q89 22 92 133h-72v172h143z" />
    <glyph glyph-name="gcommaaccent" unicode="&#x123;" horiz-adv-x="1167" 
d="M856 782v162h155v-950q0 -159 -53 -255q-63 -115 -187 -171q-101 -46 -232 -46q-263 0 -417 173l106 106q53 -59 90 -82q88 -56 220 -56q160 0 247 93q71 76 71 226v198q-61 -92 -124 -134q-101 -68 -224 -68q-112 0 -209 57q-112 65 -169 176q-59 118 -59 258
q0 149 67 277q117 221 383 221q108 0 196 -51q71 -41 139 -134zM549 824q-147 0 -238 -111q-75 -92 -75 -237q0 -178 110 -277q87 -78 198 -78q142 0 240 114q67 79 67 235q0 166 -73 249q-92 105 -229 105zM409 1179l187 417l113 -40l-165 -428z" />
    <glyph glyph-name="Hcircumflex" unicode="&#x124;" horiz-adv-x="1350" 
d="M342 604v-604h-172v1365h172v-614h666v614h172v-1365h-172v604h-666zM676 1642l-154 -170h-136l223 272h142l213 -272h-134z" />
    <glyph glyph-name="Hbar" unicode="&#x126;" horiz-adv-x="1350" 
d="M170 991h-115v114h115v260h172v-260h666v260h172v-260h115v-114h-115v-991h-172v604h-666v-604h-172v991zM342 991v-240h666v240h-666z" />
    <glyph glyph-name="hbar" unicode="&#x127;" horiz-adv-x="1040" 
d="M313 1207h310v-100h-310v-294q57 71 110 104q81 49 172 49q87 0 165 -43q81 -45 109 -127q21 -60 21 -162v-634h-157v627q0 94 -45 148q-44 52 -131 52q-109 0 -182 -84q-39 -44 -51 -89q-11 -39 -11 -101v-553h-157v1107h-126v100h126v158h157v-158z" />
    <glyph glyph-name="Imacron" unicode="&#x12a;" horiz-adv-x="513" 
d="M343 1365v-1365h-172v1365h172zM544 1663v-118h-575v118h575z" />
    <glyph glyph-name="imacron" unicode="&#x12b;" horiz-adv-x="469" 
d="M312 944v-944h-156v944h156zM513 1278v-127h-557v127h557z" />
    <glyph glyph-name="ibreve" unicode="&#x12d;" horiz-adv-x="469" 
d="M312 944v-944h-156v944h156zM-70 1342h127q21 -41 45 -62q47 -43 132 -43t133 43q23 20 45 62h127q-18 -67 -58 -111q-89 -101 -247 -101q-156 0 -247 101q-40 45 -57 111z" />
    <glyph glyph-name="Iogonek" unicode="&#x12e;" horiz-adv-x="513" 
d="M392 -261l20 -104q-62 -22 -119 -22q-111 0 -172 60q-49 49 -49 109q0 124 145 218h-47v1365h172v-1365q-142 -96 -142 -186q0 -23 14 -43q32 -45 102 -45q31 0 76 13z" />
    <glyph glyph-name="iogonek" unicode="&#x12f;" horiz-adv-x="470" 
d="M313 0q-70 -58 -87 -79q-38 -46 -38 -93q0 -48 43 -73q27 -15 68 -15q30 0 73 12l19 -94q-57 -20 -111 -20q-93 0 -148 44q-60 48 -60 118q0 114 132 200h-47v944h156v-944zM237 1310q44 0 73 -33q26 -29 26 -69q0 -43 -34 -74q-27 -24 -66 -24q-46 0 -74 32
q-26 29 -26 68q0 45 34 76q26 24 67 24z" />
    <glyph glyph-name="Idotaccent" unicode="&#x130;" horiz-adv-x="513" 
d="M343 1365v-1365h-172v1365h172zM257 1715q44 0 74 -32q29 -30 29 -74q0 -47 -37 -78q-28 -24 -67 -24q-46 0 -76 32q-28 30 -28 72q0 48 37 80q28 24 68 24z" />
    <glyph glyph-name="dotlessi" unicode="&#x131;" horiz-adv-x="469" 
d="M312 944v-944h-156v944h156z" />
    <glyph glyph-name="IJ" unicode="&#x132;" horiz-adv-x="1278" 
d="M342 1365v-1365h-172v1365h172zM1133 1365v-942q0 -289 -216 -386q-100 -45 -284 -45q-22 0 -67 1v150q53 -4 84 -4q150 0 224 66q54 47 73 124q14 60 14 188v701h-395v147h567z" />
    <glyph glyph-name="ij" unicode="&#x133;" horiz-adv-x="939" 
d="M312 944v-944h-156v944h156zM236 1310q44 0 73 -33q26 -29 26 -69q0 -43 -34 -74q-27 -24 -66 -24q-46 0 -74 32q-26 29 -26 68q0 45 34 76q26 24 67 24zM782 944v-1043q0 -131 -35 -202q-42 -86 -130 -130q-69 -34 -152 -34q-15 0 -42 1v146h22q56 0 104 35
q76 56 76 184v1043h157zM705 1310q45 0 73 -33q26 -28 26 -69q0 -43 -33 -74q-27 -24 -67 -24q-46 0 -74 32q-26 29 -26 68q0 45 34 76q26 24 67 24z" />
    <glyph glyph-name="Kcommaaccent" unicode="&#x136;" horiz-adv-x="1105" 
d="M342 630v-630h-172v1365h172v-629l531 629h205l-569 -675l569 -690h-218zM621 -86v-144q0 -116 -52 -173q-17 -18 -69 -41q-20 -9 -42 -13v66q90 22 92 133h-72v172h143z" />
    <glyph glyph-name="kcommaaccent" unicode="&#x137;" horiz-adv-x="909" 
d="M313 421v-421h-157v1365h157v-834l377 413h196l-420 -462l419 -482h-196zM521 -114v-115q0 -118 -57 -167q-35 -30 -109 -58v69q10 7 54 31q33 18 39 96h-68v144h141z" />
    <glyph glyph-name="kgreenlandic" unicode="&#x138;" horiz-adv-x="1010" 
d="M984 985l-430 -401l476 -584h-189l-391 481l-165 -150v-331h-157v985h157v-486l514 486h185z" />
    <glyph glyph-name="Lacute" unicode="&#x139;" horiz-adv-x="875" 
d="M342 156h482v-156h-654v1365h172v-1209zM421 1740h188l-247 -268h-123z" />
    <glyph glyph-name="lacute" unicode="&#x13a;" horiz-adv-x="470" 
d="M314 0h-157v1365h157v-1365zM328 1740h187l-247 -268h-122z" />
    <glyph glyph-name="Lcommaaccent" unicode="&#x13b;" horiz-adv-x="875" 
d="M342 156h482v-156h-654v1365h172v-1209zM506 -86v-144q0 -116 -52 -173q-16 -18 -69 -41q-20 -9 -42 -13v66q90 22 92 133h-72v172h143z" />
    <glyph glyph-name="lcommaaccent" unicode="&#x13c;" horiz-adv-x="470" 
d="M313 0h-157v1365h157v-1365zM302 -114v-115q0 -117 -57 -167q-36 -30 -109 -58v69q10 7 54 31q33 17 39 96h-68v144h141z" />
    <glyph glyph-name="Lcaron" unicode="&#x13d;" horiz-adv-x="875" 
d="M342 156h482v-156h-654v1365h172v-1209zM858 1342l-188 -417l-113 40l166 427z" />
    <glyph glyph-name="lcaron" unicode="&#x13e;" horiz-adv-x="786" 
d="M313 0h-157v1365h157v-1365zM706 1342l-187 -417l-113 40l165 427z" />
    <glyph glyph-name="Ldot" unicode="&#x13f;" horiz-adv-x="875" 
d="M342 156h482v-156h-654v1365h172v-1209zM712 813q49 0 82 -35q32 -33 32 -82q0 -53 -40 -87q-31 -26 -75 -26q-51 0 -84 34q-31 34 -31 81q0 55 40 89q31 26 76 26z" />
    <glyph glyph-name="ldot" unicode="&#x140;" horiz-adv-x="699" 
d="M313 0h-157v1365h157v-1365zM585 813q49 0 82 -35q32 -33 32 -82q0 -53 -40 -87q-31 -26 -75 -26q-51 0 -84 34q-31 34 -31 81q0 55 40 89q31 26 76 26z" />
    <glyph glyph-name="Lslash" unicode="&#x141;" horiz-adv-x="875" 
d="M171 706v659h172v-568l228 169v-159l-228 -168v-483h481v-156h-653v548l-140 -105v160z" />
    <glyph glyph-name="lslash" unicode="&#x142;" horiz-adv-x="477" 
d="M159 756v609h157v-523l138 103v-145l-138 -102v-698h-157v612l-137 -104v146z" />
    <glyph glyph-name="Nacute" unicode="&#x143;" horiz-adv-x="1398" 
d="M342 1043v-1043h-172v1365h157l729 -1028v1028h172v-1365h-151zM792 1740h187l-246 -268h-123z" />
    <glyph glyph-name="nacute" unicode="&#x144;" horiz-adv-x="1042" 
d="M156 944h156v-133q53 71 105 105q78 50 175 50q133 0 217 -79q56 -51 71 -121q11 -53 11 -130v-636h-157v602q0 116 -34 162q-46 63 -148 63q-105 0 -179 -80q-61 -66 -61 -171v-576h-156v944zM609 1351h183l-241 -270h-112z" />
    <glyph glyph-name="Ncommaaccent" unicode="&#x145;" horiz-adv-x="1398" 
d="M342 1043v-1043h-172v1365h157l729 -1028v1028h172v-1365h-151zM768 -86v-144q0 -116 -52 -173q-16 -18 -69 -41q-20 -9 -42 -13v66q90 22 92 133h-72v172h143z" />
    <glyph glyph-name="ncommaaccent" unicode="&#x146;" horiz-adv-x="1042" 
d="M156 944h156v-133q53 71 105 105q78 50 175 50q133 0 217 -79q56 -51 71 -121q11 -53 11 -130v-636h-157v602q0 116 -34 162q-46 63 -148 63q-105 0 -179 -80q-61 -66 -61 -171v-576h-156v944zM588 -114v-115q0 -118 -57 -167q-36 -30 -109 -58v69q10 7 53 31
q33 17 40 96h-68v144h141z" />
    <glyph glyph-name="Ncaron" unicode="&#x147;" horiz-adv-x="1398" 
d="M342 1043v-1043h-172v1365h157l729 -1028v1028h172v-1365h-151zM698 1574l154 170h136l-222 -272h-143l-213 272h134z" />
    <glyph glyph-name="ncaron" unicode="&#x148;" horiz-adv-x="1042" 
d="M156 944h156v-133q53 71 105 105q78 50 175 50q133 0 217 -79q56 -51 71 -121q11 -53 11 -130v-636h-157v602q0 116 -34 162q-46 63 -148 63q-105 0 -179 -80q-61 -66 -61 -171v-576h-156v944zM522 1180l148 173h134l-212 -272h-148l-207 272h135z" />
    <glyph glyph-name="napostrophe" unicode="&#x149;" horiz-adv-x="1494" 
d="M373 1342l-187 -417l-113 40l165 427zM609 944h156v-133q53 71 105 105q78 50 175 50q133 0 218 -79q55 -51 70 -121q11 -53 11 -130v-636h-157v602q0 116 -34 162q-46 63 -147 63q-106 0 -180 -80q-61 -66 -61 -171v-576h-156v944z" />
    <glyph glyph-name="Eng" unicode="&#x14a;" horiz-adv-x="1329" 
d="M131 1345h161v-294q49 122 105 184q130 143 351 143q224 0 353 -149q66 -77 86 -182q10 -57 10 -163v-1061q0 -79 -24 -116q-31 -49 -114 -60q-30 -4 -84 -4h-132v101h14q108 0 141 42q21 28 26 85q3 29 3 98v878q0 135 -34 210q-39 83 -123 130q-79 43 -178 43
q-140 0 -240 -82q-84 -69 -121 -180q-30 -94 -30 -250v-718h-170v1345z" />
    <glyph glyph-name="eng" unicode="&#x14b;" horiz-adv-x="1114" 
d="M128 980h147v-208q101 238 355 238q179 0 280 -117q56 -65 68 -146q9 -57 9 -132v-784q0 -82 -26 -119q-34 -50 -119 -56q-21 -1 -72 -1h-120v81h13q87 0 117 18q49 29 49 115v717q0 118 -32 176q-32 57 -93 87q-58 28 -126 28q-115 0 -195 -71q-100 -89 -100 -297v-509
h-155v980z" />
    <glyph glyph-name="Omacron" unicode="&#x14c;" horiz-adv-x="1520" 
d="M766 1390q179 0 334 -94q330 -199 330 -627q0 -200 -89 -358q-93 -164 -267 -257q-148 -79 -311 -79q-196 0 -364 109q-309 198 -309 591q0 323 208 525q196 190 468 190zM762 1231q-236 0 -382 -190q-114 -147 -114 -360q0 -235 137 -389q140 -159 355 -159
q124 0 233 60q133 73 196 197q67 132 67 282q0 267 -155 418q-145 141 -337 141zM1048 1663v-118h-576v118h576z" />
    <glyph glyph-name="omacron" unicode="&#x14d;" horiz-adv-x="1122" 
d="M563 966q225 0 367 -167q111 -131 111 -331q0 -217 -153 -361q-137 -129 -331 -129q-144 0 -262 73q-215 135 -215 422q0 236 147 369q137 124 336 124zM563 823q-154 0 -246 -110q-78 -91 -78 -243q0 -161 91 -255q93 -94 231 -94q159 0 250 120q71 93 71 230
q0 169 -95 262q-92 90 -224 90zM839 1278v-127h-557v127h557z" />
    <glyph glyph-name="Ohungarumlaut" unicode="&#x150;" horiz-adv-x="1520" 
d="M766 1390q179 0 334 -94q330 -199 330 -627q0 -200 -89 -358q-93 -164 -267 -257q-148 -79 -311 -79q-196 0 -364 109q-309 198 -309 591q0 323 208 525q196 190 468 190zM762 1231q-236 0 -382 -190q-114 -147 -114 -360q0 -235 137 -389q140 -159 355 -159
q124 0 233 60q133 73 196 197q67 132 67 282q0 267 -155 418q-145 141 -337 141zM671 1739h175l-208 -267h-112zM992 1739h175l-208 -267h-112z" />
    <glyph glyph-name="ohungarumlaut" unicode="&#x151;" horiz-adv-x="1122" 
d="M563 966q225 0 367 -167q111 -131 111 -331q0 -217 -153 -361q-137 -129 -331 -129q-144 0 -262 73q-215 135 -215 422q0 236 147 369q137 124 336 124zM563 823q-154 0 -246 -110q-78 -91 -78 -243q0 -161 91 -255q93 -94 231 -94q159 0 250 120q71 93 71 230
q0 169 -95 262q-92 90 -224 90zM479 1349h170l-201 -268h-102zM780 1349h170l-201 -268h-102z" />
    <glyph glyph-name="OE" unicode="&#x152;" horiz-adv-x="2044" 
d="M1409 615v-468h531v-147h-702v236q-55 -79 -99 -117q-168 -144 -396 -144q-167 0 -313 82q-156 86 -237 228q-103 179 -103 406q0 176 69 329q75 168 234 268q162 102 364 102q171 0 308 -80q92 -55 173 -164v219h702v-147h-531v-456h531v-147h-531zM762 1231
q-255 0 -394 -197q-102 -144 -102 -348q0 -162 70 -299q60 -117 178 -187q110 -66 239 -66q130 0 243 67q122 73 180 191q66 132 66 281q0 240 -123 395q-72 90 -177 129q-91 34 -180 34z" />
    <glyph glyph-name="oe" unicode="&#x153;" horiz-adv-x="1890" 
d="M1660 284l124 -53q-56 -99 -128 -154q-131 -99 -292 -99q-160 0 -289 95q-48 35 -75 76q-18 27 -41 75q-37 -76 -72 -111q-135 -135 -332 -135q-138 0 -253 70q-111 66 -166 175q-56 111 -56 247q0 238 152 377q133 120 326 120q157 0 277 -86q75 -52 124 -150
q34 63 62.5 95t76.5 63q121 77 263 77q170 0 296 -104q165 -135 172 -380q1 -22 1 -62h-789q11 -114 68 -181q42 -51 105 -82q72 -36 147 -36q111 0 203 61q46 31 96 102zM1675 534q-12 104 -55 164q-90 129 -264 129q-150 0 -244 -112q-45 -54 -61 -114q-6 -22 -12 -67h636
zM563 824q-150 0 -246 -113q-78 -92 -78 -236q0 -156 91 -256q91 -98 234 -98q165 0 256 128q67 95 67 219q0 167 -100 265q-93 91 -224 91z" />
    <glyph glyph-name="Racute" unicode="&#x154;" horiz-adv-x="1147" 
d="M342 574v-574h-172v1365h374q249 0 370 -134q95 -105 95 -264q0 -151 -87 -254q-80 -94 -208 -126q-55 -13 -153 -20l532 -567h-221zM342 690h173q147 0 228 61q91 69 91 205q0 124 -72 193q-72 68 -220 68h-200v-527zM666 1740h188l-247 -268h-122z" />
    <glyph glyph-name="racute" unicode="&#x155;" horiz-adv-x="650" 
d="M156 944h157v-159q37 87 86 125q75 57 178 57q12 0 37 -1v-157q-27 2 -43 2q-130 0 -204 -108q-36 -54 -46 -112q-8 -47 -8 -111v-480h-157v944zM413 1351h184l-241 -270h-112z" />
    <glyph glyph-name="Rcommaaccent" unicode="&#x156;" horiz-adv-x="1147" 
d="M342 574v-574h-172v1365h374q249 0 370 -134q95 -105 95 -264q0 -151 -87 -254q-80 -94 -208 -126q-55 -13 -153 -20l532 -567h-221zM342 690h173q147 0 228 61q91 69 91 205q0 124 -72 193q-72 68 -220 68h-200v-527zM643 -86v-144q0 -116 -52 -173q-17 -18 -69 -41
q-20 -9 -42 -13v66q90 22 92 133h-72v172h143z" />
    <glyph glyph-name="rcommaaccent" unicode="&#x157;" horiz-adv-x="650" 
d="M156 944h157v-159q38 88 86 125q75 57 178 57q13 0 38 -1v-157q-27 2 -43 2q-130 0 -204 -108q-37 -54 -47 -112q-8 -47 -8 -111v-480h-157v944zM308 -114v-115q0 -117 -57 -167q-36 -30 -109 -58v69q10 7 54 31q33 17 39 96h-68v144h141z" />
    <glyph glyph-name="Rcaron" unicode="&#x158;" horiz-adv-x="1147" 
d="M342 574v-574h-172v1365h374q249 0 370 -134q95 -105 95 -264q0 -151 -87 -254q-80 -94 -208 -126q-55 -13 -153 -20l532 -567h-221zM342 690h173q147 0 228 61q91 69 91 205q0 124 -72 193q-72 68 -220 68h-200v-527zM573 1574l153 170h136l-222 -272h-143l-212 272h134
z" />
    <glyph glyph-name="rcaron" unicode="&#x159;" horiz-adv-x="650" 
d="M157 944h157v-159q37 87 86 125q75 57 178 57q12 0 37 -1v-157q-27 2 -43 2q-130 0 -204 -108q-36 -54 -46 -112q-8 -47 -8 -111v-480h-157v944zM368 1180l148 173h134l-212 -272h-148l-207 272h135z" />
    <glyph glyph-name="Sacute" unicode="&#x15a;" horiz-adv-x="1004" 
d="M77 366h164q4 -89 37 -140q62 -98 204 -98q114 0 190 65q72 61 72 166q0 90 -59 143q-54 49 -217 104q-150 51 -204 83q-179 106 -179 314q0 182 126 292q109 95 281 95q237 0 348 -178q55 -89 58 -212h-172q-3 92 -33 140q-28 45 -80 70q-57 27 -122 27q-108 0 -171 -67
q-61 -63 -61 -154q0 -105 78 -160q52 -37 220 -96q144 -50 206 -93q156 -107 156 -298q0 -124 -67 -223q-115 -171 -363 -171q-259 0 -365 185q-47 81 -47 178v28zM595 1740h187l-246 -268h-123z" />
    <glyph glyph-name="sacute" unicode="&#x15b;" horiz-adv-x="842" 
d="M747 687h-155q0 49 -15 74q-46 78 -165 78q-81 0 -127 -38q-44 -36 -44 -97q0 -50 28 -79q31 -33 85 -51q40 -13 98 -29q169 -46 231 -108q75 -75 75 -185q0 -135 -113 -215q-83 -59 -222 -59q-211 0 -301 130q-43 63 -52 160h154q6 -63 38 -100q56 -63 161 -63
q80 0 126 37q50 41 50 101q0 64 -58 107q-37 27 -157 59q-150 39 -220 102q-78 72 -78 183q0 137 114 214q87 58 218 58q183 0 272 -112q52 -66 57 -167zM510 1351h183l-241 -270h-112z" />
    <glyph glyph-name="Scircumflex" unicode="&#x15c;" horiz-adv-x="1004" 
d="M77 366h164q4 -89 37 -140q62 -98 204 -98q114 0 190 65q72 61 72 166q0 90 -59 143q-54 49 -217 104q-150 51 -204 83q-179 106 -179 314q0 182 126 292q109 95 281 95q237 0 348 -178q55 -89 58 -212h-172q-3 92 -33 140q-28 45 -80 70q-57 27 -122 27q-108 0 -171 -67
q-61 -63 -61 -154q0 -105 78 -160q52 -37 220 -96q144 -50 206 -93q156 -107 156 -298q0 -124 -67 -223q-115 -171 -363 -171q-259 0 -365 185q-47 81 -47 178v28zM503 1642l-154 -170h-136l223 272h142l213 -272h-134z" />
    <glyph glyph-name="scircumflex" unicode="&#x15d;" horiz-adv-x="842" 
d="M747 687h-155q0 49 -15 74q-46 78 -165 78q-81 0 -127 -38q-44 -36 -44 -97q0 -50 28 -79q31 -33 85 -51q40 -13 98 -29q169 -46 231 -108q75 -75 75 -185q0 -135 -113 -215q-83 -59 -222 -59q-211 0 -301 130q-43 63 -52 160h154q6 -63 38 -100q56 -63 161 -63
q80 0 126 37q50 41 50 101q0 64 -58 107q-37 27 -157 59q-150 39 -220 102q-78 72 -78 183q0 137 114 214q87 58 218 58q183 0 272 -112q52 -66 57 -167zM420 1254l-148 -173h-134l212 272h147l208 -272h-135z" />
    <glyph glyph-name="Scedilla" unicode="&#x15e;" horiz-adv-x="1004" 
d="M77 366h164q4 -89 37 -140q62 -98 204 -98q114 0 190 65q72 61 72 166q0 90 -59 143q-54 49 -217 104q-150 51 -204 83q-179 106 -179 314q0 182 126 292q109 95 281 95q237 0 348 -178q55 -89 58 -212h-172q-3 92 -33 140q-28 45 -80 70q-57 27 -122 27q-108 0 -171 -67
q-61 -63 -61 -154q0 -105 78 -160q52 -37 220 -96q144 -50 206 -93q156 -107 156 -298q0 -124 -67 -223q-115 -171 -363 -171q-259 0 -365 185q-47 81 -47 178v28zM336 -427l-88 68q91 60 133 122q32 47 51 120l160 -54q-36 -79 -89 -134q-59 -61 -167 -122z" />
    <glyph glyph-name="scedilla" unicode="&#x15f;" horiz-adv-x="842" 
d="M747 687h-155q0 49 -15 74q-46 78 -165 78q-81 0 -127 -38q-44 -36 -44 -97q0 -50 28 -79q31 -33 85 -51q40 -13 98 -29q169 -46 231 -108q75 -75 75 -185q0 -135 -113 -215q-83 -59 -222 -59q-211 0 -301 130q-43 63 -52 160h154q6 -63 38 -100q56 -63 161 -63
q80 0 126 37q50 41 50 101q0 64 -58 107q-37 27 -157 59q-150 39 -220 102q-78 72 -78 183q0 137 114 214q87 58 218 58q183 0 272 -112q52 -66 57 -167zM253 -436l-65 70q88 55 134 117q40 55 68 141l129 -50q-50 -98 -104 -156q-57 -62 -162 -122z" />
    <glyph glyph-name="Scaron" unicode="&#x160;" horiz-adv-x="1004" 
d="M77 366h164q4 -89 37 -140q62 -98 204 -98q114 0 190 65q72 61 72 166q0 90 -59 143q-54 49 -217 104q-150 51 -204 83q-179 106 -179 314q0 182 126 292q109 95 281 95q237 0 348 -178q55 -89 58 -212h-172q-3 92 -33 140q-28 45 -80 70q-57 27 -122 27q-108 0 -171 -67
q-61 -63 -61 -154q0 -105 78 -160q52 -37 220 -96q144 -50 206 -93q156 -107 156 -298q0 -124 -67 -223q-115 -171 -363 -171q-259 0 -365 185q-47 81 -47 178v28zM501 1574l154 170h136l-222 -272h-143l-213 272h134z" />
    <glyph glyph-name="scaron" unicode="&#x161;" horiz-adv-x="842" 
d="M747 687h-155q0 49 -15 74q-46 78 -165 78q-81 0 -127 -38q-44 -36 -44 -97q0 -50 28 -79q31 -33 85 -51q40 -13 98 -29q169 -46 231 -108q75 -75 75 -185q0 -135 -113 -215q-83 -59 -222 -59q-211 0 -301 130q-43 63 -52 160h154q6 -63 38 -100q56 -63 161 -63
q80 0 126 37q50 41 50 101q0 64 -58 107q-37 27 -157 59q-150 39 -220 102q-78 72 -78 183q0 137 114 214q87 58 218 58q183 0 272 -112q52 -66 57 -167zM423 1180l148 173h134l-212 -272h-148l-207 272h135z" />
    <glyph glyph-name="Tcommaaccent" unicode="&#x162;" horiz-adv-x="907" 
d="M539 1218v-1218h-172v1218h-347v147h867v-147h-348zM522 -86v-144q0 -116 -52 -173q-16 -18 -69 -41q-20 -9 -42 -13v66q90 22 92 133h-72v172h143z" />
    <glyph glyph-name="tcommaaccent" unicode="&#x163;" horiz-adv-x="531" 
d="M322 807v-614q0 -32 13 -44q14 -13 57 -13h72v-136h-144q-81 0 -118 35q-37 34 -37 113v659h-131v138h131v296h157v-296h142v-138h-142zM332 -114v-115q0 -117 -57 -167q-36 -30 -109 -58v69q10 7 54 31q33 18 39 96h-68v144h141z" />
    <glyph glyph-name="Tcaron" unicode="&#x164;" horiz-adv-x="907" 
d="M539 1218v-1218h-172v1218h-347v147h867v-147h-348zM452 1574l154 170h136l-222 -272h-143l-213 272h134z" />
    <glyph glyph-name="tcaron" unicode="&#x165;" horiz-adv-x="984" 
d="M322 807v-614q0 -32 13 -44q14 -13 57 -13h72v-136h-144q-81 0 -118 35q-37 34 -37 113v659h-131v138h131v296h157v-296h142v-138h-142zM904 1342l-187 -417l-113 40l165 427z" />
    <glyph glyph-name="Tbar" unicode="&#x166;" horiz-adv-x="1060" 
d="M615 837h377v-122h-377v-715h-170v715h-378v122h378v383h-457v145h1083v-145h-456v-383z" />
    <glyph glyph-name="tbar" unicode="&#x167;" horiz-adv-x="585" 
d="M343 702h164v-100h-164v-308q0 -100 16 -129q28 -51 116 -51q33 0 80 7v-121q-72 -7 -122 -7q-155 0 -210 80q-27 39 -34 100q-3 27 -3 98v331h-137v100h137v176h-178v107h178v308h157v-308h212v-107h-212v-176z" />
    <glyph glyph-name="utilde" unicode="&#x169;" horiz-adv-x="993" 
d="M707 944h157v-605q0 -132 -42 -200q-47 -76 -137 -120q-86 -41 -187 -41q-168 0 -273 100q-95 91 -95 261v605h156v-599q0 -101 58 -164q59 -64 154 -64q105 0 166 72q43 49 43 150v605zM726 1311l103 -37q-33 -66 -63 -103q-56 -70 -130 -70q-52 0 -176 74
q-43 26 -68 26q-58 0 -96 -82l-104 45q82 160 194 160q66 0 190 -79q32 -20 55 -20q59 0 95 86z" />
    <glyph glyph-name="Umacron" unicode="&#x16a;" horiz-adv-x="1303" 
d="M317 1365v-812q0 -171 36 -248q42 -92 145 -138q76 -34 150 -34q96 0 184 54q99 61 131 164q19 61 19 207v807h177v-808q0 -205 -49 -311q-64 -139 -202 -211q-114 -60 -254 -60q-169 0 -299 84q-139 90 -184 239q-26 87 -26 259v808h172zM940 1663v-118h-575v118h575z
" />
    <glyph glyph-name="umacron" unicode="&#x16b;" horiz-adv-x="993" 
d="M707 944h157v-605q0 -132 -42 -200q-47 -76 -137 -120q-86 -41 -187 -41q-168 0 -273 100q-95 91 -95 261v605h156v-599q0 -101 58 -164q59 -64 154 -64q105 0 166 72q43 49 43 150v605zM775 1278v-127h-557v127h557z" />
    <glyph glyph-name="ubreve" unicode="&#x16d;" horiz-adv-x="993" 
d="M707 944h157v-605q0 -132 -42 -200q-47 -76 -137 -120q-86 -41 -187 -41q-168 0 -273 100q-95 91 -95 261v605h156v-599q0 -101 58 -164q59 -64 154 -64q105 0 166 72q43 49 43 150v605zM193 1342h126q22 -41 45 -62q48 -43 133 -43q84 0 133 43q22 20 44 62h127
q-17 -67 -57 -111q-90 -101 -247 -101t-247 101q-40 45 -57 111z" />
    <glyph glyph-name="Uring" unicode="&#x16e;" horiz-adv-x="1303" 
d="M317 1365v-812q0 -171 36 -248q42 -92 145 -138q76 -34 150 -34q96 0 184 54q99 61 131 164q19 61 19 207v807h177v-808q0 -205 -49 -311q-64 -139 -202 -211q-114 -60 -254 -60q-169 0 -299 84q-139 90 -184 239q-26 87 -26 259v808h172zM653 1778q70 0 119 -51
q44 -46 44 -115q0 -73 -56 -121q-47 -39 -108 -39q-72 0 -120 51q-44 46 -44 112q0 76 56 124q47 39 109 39zM653 1713q-50 0 -77 -35q-22 -28 -22 -63q0 -41 29 -71q26 -27 69 -27q49 0 76 35q22 28 22 62q0 41 -29 71q-25 28 -68 28z" />
    <glyph glyph-name="uring" unicode="&#x16f;" horiz-adv-x="993" 
d="M707 944h157v-605q0 -132 -42 -200q-47 -76 -137 -120q-86 -41 -187 -41q-168 0 -273 100q-95 91 -95 261v605h156v-599q0 -101 58 -164q59 -64 154 -64q105 0 166 72q43 49 43 150v605zM498 1386q70 0 119 -51q44 -46 44 -115q0 -73 -56 -121q-47 -39 -108 -39
q-71 0 -120 51q-44 46 -44 112q0 76 56 124q47 39 109 39zM498 1321q-50 0 -77 -35q-22 -28 -22 -63q0 -41 29 -71q26 -27 69 -27q49 0 76 35q22 28 22 61q0 42 -29 73q-26 27 -68 27z" />
    <glyph glyph-name="Uhungarumlaut" unicode="&#x170;" horiz-adv-x="1303" 
d="M317 1365v-812q0 -171 36 -248q42 -92 145 -138q76 -34 150 -34q96 0 184 54q99 61 131 164q19 61 19 207v807h177v-808q0 -205 -49 -311q-64 -139 -202 -211q-114 -60 -254 -60q-169 0 -299 84q-139 90 -184 239q-26 87 -26 259v808h172zM563 1739h175l-208 -267h-112z
M884 1739h175l-208 -267h-112z" />
    <glyph glyph-name="uhungarumlaut" unicode="&#x171;" horiz-adv-x="993" 
d="M707 944h157v-605q0 -132 -42 -200q-47 -76 -137 -120q-86 -41 -187 -41q-168 0 -273 100q-95 91 -95 261v605h156v-599q0 -101 58 -164q59 -64 154 -64q105 0 166 72q43 49 43 150v605zM415 1349h170l-201 -268h-102zM716 1349h170l-201 -268h-102z" />
    <glyph glyph-name="Uogonek" unicode="&#x172;" horiz-adv-x="1303" 
d="M819 -1q-8 -7 -20 -16q-120 -89 -120 -168q0 -34 28 -60q31 -29 88 -29q31 0 77 13l19 -104q-62 -22 -119 -22q-111 0 -172 60q-49 49 -49 109q0 107 109 193q-202 0 -341 109q-110 87 -148 214q-26 87 -26 259v808h172v-812q0 -171 36 -248q42 -92 145 -138
q76 -34 150 -34q96 0 184 54q99 61 131 164q19 61 19 206v808h177v-808q0 -232 -70 -350q-90 -152 -270 -208z" />
    <glyph glyph-name="uogonek" unicode="&#x173;" horiz-adv-x="993" 
d="M595 -12q-53 -42 -73 -67q-38 -45 -38 -93t43 -73q27 -15 68 -15q30 0 74 12l19 -94q-57 -20 -112 -20q-93 0 -148 44q-60 48 -60 118q0 98 101 179q-117 9 -199 63q-140 93 -140 297v605h156v-599q0 -101 58 -164q59 -64 154 -64q105 0 166 72q43 49 43 150v605h157
v-605q0 -147 -57 -222q-74 -95 -212 -129z" />
    <glyph glyph-name="Wcircumflex" unicode="&#x174;" horiz-adv-x="1762" 
d="M1261 315l314 1050h177l-417 -1365h-151l-302 1072l-302 -1072h-153l-417 1365h183l311 -1045l302 1045h162zM882 1642l-154 -170h-136l223 272h142l213 -272h-134z" />
    <glyph glyph-name="Ycircumflex" unicode="&#x176;" horiz-adv-x="1084" 
d="M632 601v-601h-172v601l-472 764h205l352 -585l347 585h204zM543 1642l-154 -170h-136l223 272h143l212 -272h-134z" />
    <glyph glyph-name="ycircumflex" unicode="&#x177;" horiz-adv-x="896" 
d="M432 244l282 700h170l-564 -1400h-169l197 486l-336 914h166zM447 1254l-149 -173h-133l212 272h147l208 -272h-135z" />
    <glyph glyph-name="Ydieresis" unicode="&#x178;" horiz-adv-x="1084" 
d="M632 601v-601h-172v601l-472 764h205l352 -585l347 585h204zM333 1715q44 0 74 -32q29 -30 29 -74q0 -47 -37 -78q-28 -24 -67 -24q-45 0 -75 32q-29 30 -29 72q0 48 37 80q28 24 68 24zM752 1715q44 0 74 -32q29 -30 29 -74q0 -47 -37 -78q-28 -24 -67 -24q-45 0 -75 32
q-29 30 -29 72q0 48 37 80q28 24 68 24z" />
    <glyph glyph-name="Zacute" unicode="&#x179;" horiz-adv-x="1103" 
d="M312 147h693v-147h-978l774 1218h-688v147h972zM643 1740h188l-247 -268h-122z" />
    <glyph glyph-name="zacute" unicode="&#x17a;" horiz-adv-x="822" 
d="M307 138h434v-138h-696l491 806h-438v138h695zM500 1351h183l-241 -270h-112z" />
    <glyph glyph-name="Zdotaccent" unicode="&#x17b;" horiz-adv-x="1103" 
d="M312 147h693v-147h-978l774 1218h-688v147h972zM551 1715q45 0 75 -32q29 -30 29 -74q0 -46 -37 -78q-28 -24 -67 -24q-46 0 -76 32q-28 30 -28 72q0 49 36 80q29 24 68 24z" />
    <glyph glyph-name="zdotaccent" unicode="&#x17c;" horiz-adv-x="822" 
d="M307 138h434v-138h-696l491 806h-438v138h695zM412 1312q43 0 72 -31q24 -26 24 -67q0 -44 -32 -71q-27 -24 -65 -24q-43 0 -72 31q-24 26 -24 66q0 45 32 72q27 24 65 24z" />
    <glyph glyph-name="Zcaron" unicode="&#x17d;" horiz-adv-x="1103" 
d="M312 147h693v-147h-978l774 1218h-688v147h972zM550 1574l154 170h136l-223 -272h-142l-213 272h134z" />
    <glyph glyph-name="zcaron" unicode="&#x17e;" horiz-adv-x="822" 
d="M307 138h434v-138h-696l491 806h-438v138h695zM413 1180l148 173h134l-212 -272h-148l-207 272h135z" />
    <glyph glyph-name="florin" unicode="&#x192;" 
d="M475 843h-129l18 101h129l44 247q24 136 98 209q89 87 218 87q13 0 39 -2l-24 -139q-75 -10 -105 -28q-53 -34 -70 -127l-43 -247h147l-18 -101h-147l-133 -755q-24 -137 -79 -211q-74 -102 -184 -134q-39 -11 -112 -16l26 146q67 10 101 39q71 60 91 173z" />
    <glyph glyph-name="uni01CD" unicode="&#x1cd;" horiz-adv-x="1240" 
d="M925 316h-613l-123 -316h-179l515 1365h203l502 -1365h-191zM873 464l-251 684l-257 -684h508zM619 1574l154 170h136l-222 -272h-143l-213 272h134z" />
    <glyph glyph-name="uni01CE" unicode="&#x1ce;" horiz-adv-x="1181" 
d="M867 788v156h157v-944h-157v181q-136 -203 -344 -203q-199 0 -329 148q-115 132 -115 342q0 147 63 269q57 110 170 173q99 56 216 56q122 0 221 -62q60 -38 118 -116zM552 827q-149 0 -231 -112q-77 -106 -77 -249q0 -167 101 -267q85 -85 202 -85q147 0 242 123
q81 104 81 245q0 154 -86 246q-92 99 -232 99zM592 1180l148 173h134l-212 -272h-148l-207 272h135z" />
    <glyph glyph-name="uni01D3" unicode="&#x1d3;" horiz-adv-x="1303" 
d="M317 1365v-812q0 -171 36 -248q42 -92 145 -138q76 -34 150 -34q96 0 184 54q99 61 131 164q19 61 19 207v807h177v-808q0 -205 -49 -311q-64 -139 -202 -211q-114 -60 -254 -60q-169 0 -299 84q-139 90 -184 239q-26 87 -26 259v808h172zM651 1574l154 170h136
l-222 -272h-143l-213 272h134z" />
    <glyph glyph-name="Gcaron" unicode="&#x1e6;" horiz-adv-x="1500" 
d="M765 739h651q1 -40 1 -78q0 -189 -68 -322q-86 -168 -240 -266q-152 -98 -346 -98q-191 0 -349 94q-148 89 -233 239q-92 162 -92 371q0 169 66 320q77 178 230 282q163 109 379 109q192 0 354 -104q88 -56 158 -144l-129 -104q-67 76 -114 109q-119 85 -269 85
q-158 0 -285 -95q-114 -83 -168 -217q-46 -113 -46 -238q0 -158 72 -292q59 -112 169 -182q118 -76 254 -76q164 0 303 108q124 96 161 253q9 35 15 99h-474v147zM749 1574l154 170h136l-222 -272h-143l-213 272h134z" />
    <glyph glyph-name="gcaron" unicode="&#x1e7;" horiz-adv-x="1167" 
d="M856 782v162h155v-950q0 -159 -53 -255q-63 -115 -187 -171q-101 -46 -232 -46q-263 0 -417 173l106 106q53 -59 90 -82q88 -56 220 -56q160 0 247 93q71 76 71 226v198q-61 -92 -124 -134q-101 -68 -224 -68q-112 0 -209 57q-112 65 -169 176q-59 118 -59 258
q0 149 67 277q117 221 383 221q108 0 196 -51q71 -41 139 -134zM549 824q-147 0 -238 -111q-75 -92 -75 -237q0 -178 110 -277q87 -78 198 -78q142 0 240 114q67 79 67 235q0 166 -73 249q-92 105 -229 105zM585 1180l149 173h133l-212 -272h-147l-208 272h135z" />
    <glyph glyph-name="uni01F4" unicode="&#x1f4;" horiz-adv-x="1500" 
d="M765 739h651q1 -40 1 -78q0 -189 -68 -322q-86 -168 -240 -266q-152 -98 -346 -98q-191 0 -349 94q-148 89 -233 239q-92 162 -92 371q0 169 66 320q77 178 230 282q163 109 379 109q192 0 354 -104q88 -56 158 -144l-129 -104q-67 76 -114 109q-119 85 -269 85
q-158 0 -285 -95q-114 -83 -168 -217q-46 -113 -46 -238q0 -158 72 -292q59 -112 169 -182q118 -76 254 -76q164 0 303 108q124 96 161 253q9 35 15 99h-474v147zM843 1740h187l-246 -268h-123z" />
    <glyph glyph-name="scommaaccent" unicode="&#x219;" horiz-adv-x="842" 
d="M747 687h-155q0 49 -15 74q-46 78 -165 78q-81 0 -127 -38q-44 -36 -44 -97q0 -50 28 -79q31 -33 85 -51q40 -13 98 -29q169 -46 231 -108q75 -75 75 -185q0 -135 -113 -215q-83 -59 -222 -59q-211 0 -301 130q-43 63 -52 160h154q6 -63 38 -100q56 -63 161 -63
q80 0 126 37q50 41 50 101q0 64 -58 107q-37 27 -157 59q-150 39 -220 102q-78 72 -78 183q0 137 114 214q87 58 218 58q183 0 272 -112q52 -66 57 -167zM488 -114v-115q0 -117 -57 -167q-34 -28 -108 -58v69q10 7 53 31q33 18 39 96h-68v144h141z" />
    <glyph glyph-name="uni021A" unicode="&#x21a;" horiz-adv-x="907" 
d="M539 1218v-1218h-172v1218h-347v147h867v-147h-348zM522 -86v-144q0 -116 -52 -173q-16 -18 -69 -41q-20 -9 -42 -13v66q90 22 92 133h-72v172h143z" />
    <glyph glyph-name="uni021B" unicode="&#x21b;" horiz-adv-x="531" 
d="M322 807v-614q0 -32 13 -44q14 -13 57 -13h72v-136h-144q-81 0 -118 35q-37 34 -37 113v659h-131v138h131v296h157v-296h142v-138h-142zM332 -114v-115q0 -117 -57 -167q-36 -30 -109 -58v69q10 7 54 31q33 18 39 96h-68v144h141z" />
    <glyph glyph-name="Adotaccent" unicode="&#x226;" horiz-adv-x="1240" 
d="M925 316h-613l-123 -316h-179l515 1365h203l502 -1365h-191zM873 464l-251 684l-257 -684h508zM620 1715q44 0 74 -32q29 -30 29 -74q0 -47 -37 -78q-28 -24 -67 -24q-45 0 -75 32q-29 30 -29 72q0 48 37 80q28 24 68 24z" />
    <glyph glyph-name="adotaccent" unicode="&#x227;" horiz-adv-x="1181" 
d="M867 788v156h157v-944h-157v181q-136 -203 -344 -203q-199 0 -329 148q-115 132 -115 342q0 147 63 269q57 110 170 173q99 56 216 56q122 0 221 -62q60 -38 118 -116zM552 827q-149 0 -231 -112q-77 -106 -77 -249q0 -167 101 -267q85 -85 202 -85q147 0 242 123
q81 104 81 245q0 154 -86 246q-92 99 -232 99zM591 1312q43 0 72 -31q24 -26 24 -67q0 -44 -32 -71q-27 -24 -65 -24q-43 0 -72 31q-24 26 -24 66q0 45 32 72q27 24 65 24z" />
    <glyph glyph-name="dotlessj" unicode="&#x237;" horiz-adv-x="470" 
d="M313 944v-1043q0 -131 -35 -202q-42 -85 -130 -130q-70 -34 -152 -34q-15 0 -42 1v146h22q56 0 104 35q76 56 76 184v1043h157z" />
    <glyph glyph-name="afii57929" unicode="&#x2bc;" horiz-adv-x="453" 
d="M373 1342l-187 -417l-113 40l165 427z" />
    <glyph glyph-name="circumflex" unicode="&#x2c6;" 
d="M511 1254l-148 -173h-134l212 272h148l207 -272h-135z" />
    <glyph glyph-name="caron" unicode="&#x2c7;" 
d="M514 1180l148 173h134l-212 -272h-148l-207 272h135z" />
    <glyph glyph-name="uni02C9" unicode="&#x2c9;" 
d="M791 1278v-127h-557v127h557z" />
    <glyph glyph-name="breve" unicode="&#x2d8;" 
d="M208 1342h127q21 -41 45 -62q47 -43 132 -43t133 43q23 20 45 62h127q-18 -67 -58 -111q-89 -101 -247 -101q-156 0 -247 101q-40 45 -57 111z" />
    <glyph glyph-name="dotaccent" unicode="&#x2d9;" 
d="M512 1312q43 0 72 -31q24 -26 24 -67q0 -44 -32 -71q-27 -24 -64 -24q-45 0 -73 31q-24 26 -24 66q0 45 32 72q27 24 65 24z" />
    <glyph glyph-name="ring" unicode="&#x2da;" 
d="M513 1386q71 0 119 -51q44 -46 44 -115q0 -73 -56 -121q-47 -39 -108 -39q-71 0 -120 51q-44 46 -44 112q0 76 56 124q47 39 109 39zM513 1321q-50 0 -77 -35q-22 -28 -22 -63q0 -41 29 -71q26 -27 69 -27q49 0 76 35q22 28 22 61q0 42 -29 73q-25 27 -68 27z" />
    <glyph glyph-name="ogonek" unicode="&#x2db;" 
d="M484 0h110q-71 -57 -88 -79q-38 -47 -38 -94q0 -48 43 -72q28 -16 68 -16q29 0 74 13l18 -94q-57 -21 -111 -21q-92 0 -148 44q-60 48 -60 118q0 115 132 201z" />
    <glyph glyph-name="tilde" unicode="&#x2dc;" 
d="M741 1311l103 -37q-33 -66 -63 -103q-56 -70 -130 -70q-52 0 -176 74q-43 26 -68 26q-58 0 -95 -82l-105 45q82 160 195 160q65 0 189 -79q32 -20 55 -20q59 0 95 86z" />
    <glyph glyph-name="hungarumlaut" unicode="&#x2dd;" 
d="M430 1349h170l-201 -268h-102zM731 1349h171l-202 -268h-102z" />
    <glyph glyph-name="uni0387" unicode="&#x387;" horiz-adv-x="472" 
d="M236 604q47 0 77 -32q29 -31 29 -76q0 -49 -37 -81q-29 -24 -70 -24q-47 0 -77 32q-29 31 -29 75q0 50 37 82q28 24 70 24z" />
    <glyph glyph-name="Fdotaccent" unicode="&#x1e1e;" horiz-adv-x="934" 
d="M342 1218v-456h533v-147h-533v-615h-172v1365h705v-147h-533zM467 1715q44 0 74 -32q29 -30 29 -74q0 -46 -37 -78q-28 -24 -67 -24q-45 0 -75 32q-29 30 -29 72q0 48 37 80q28 24 68 24z" />
    <glyph glyph-name="Wacute" unicode="&#x1e82;" horiz-adv-x="554" 
d="M490 568v-142h-425v142h425z" />
    <glyph glyph-name="Wdieresis" unicode="&#x1e84;" horiz-adv-x="1762" 
d="M1261 315l314 1050h177l-417 -1365h-151l-302 1072l-302 -1072h-153l-417 1365h183l311 -1045l302 1045h162zM672 1715q44 0 75 -32q28 -30 28 -74q0 -47 -37 -78q-28 -24 -67 -24q-45 0 -75 32q-29 30 -29 72q0 48 37 80q28 24 68 24zM1091 1715q44 0 74 -32
q29 -30 29 -74q0 -47 -37 -78q-28 -24 -67 -24q-45 0 -75 32q-29 30 -29 72q0 48 37 80q28 24 68 24z" />
    <glyph glyph-name="uni2006" unicode="&#x2006;" horiz-adv-x="137" 
 />
    <glyph glyph-name="uni2007" unicode="&#x2007;" horiz-adv-x="1139" 
 />
    <glyph glyph-name="uni2011" unicode="&#x2011;" horiz-adv-x="425" 
d="M425 568v-142h-425v142h425z" />
    <glyph glyph-name="figuredash" unicode="&#x2012;" 
d="M879 562v-138h-734v138h734z" />
    <glyph glyph-name="endash" unicode="&#x2013;" 
d="M879 562v-138h-734v138h734z" />
    <glyph glyph-name="emdash" unicode="&#x2014;" horiz-adv-x="1274" 
d="M1274 562v-131h-1274v131h1274z" />
    <glyph glyph-name="afii00208" unicode="&#x2015;" horiz-adv-x="1274" 
d="M1274 562v-131h-1274v131h1274z" />
    <glyph glyph-name="underscoredbl" unicode="&#x2017;" 
d="M0 -121h1024v-80h-1024v80zM0 -359h1024v-81h-1024v81z" />
    <glyph glyph-name="quoteleft" unicode="&#x2018;" horiz-adv-x="453" 
d="M79 976l187 416l113 -40l-165 -427z" />
    <glyph glyph-name="quoteright" unicode="&#x2019;" horiz-adv-x="453" 
d="M373 1342l-187 -417l-113 40l165 427z" />
    <glyph glyph-name="quotesinglbase" unicode="&#x201a;" horiz-adv-x="458" 
d="M378 155l-190 -426l-115 40l167 438z" />
    <glyph glyph-name="quotedblleft" unicode="&#x201c;" horiz-adv-x="825" 
d="M438 912l205 480l113 -40l-176 -489zM79 912l205 480l115 -40l-178 -490z" />
    <glyph glyph-name="quotedblright" unicode="&#x201d;" horiz-adv-x="825" 
d="M387 1342l-206 -480l-113 40l177 489zM745 1342l-205 -480l-115 40l178 490z" />
    <glyph glyph-name="quotedblbase" unicode="&#x201e;" horiz-adv-x="825" 
d="M387 157l-206 -481l-113 41l177 488zM745 157l-205 -481l-115 41l178 490z" />
    <glyph glyph-name="dagger" unicode="&#x2020;" 
d="M443 1365h138v-361h301v-122h-301v-1315h-138v1315h-300v122h300v361z" />
    <glyph glyph-name="daggerdbl" unicode="&#x2021;" 
d="M443 1365h138v-365h301v-122h-301v-818h301v-122h-301v-371h-138v371h-300v122h300v818h-300v122h300v365z" />
    <glyph glyph-name="bullet" unicode="&#x2022;" horiz-adv-x="1365" 
d="M689 978q113 0 196 -83q84 -83 84 -201t-83 -201t-201 -83q-116 0 -199 82q-85 84 -85 202q0 121 84 202q86 82 204 82z" />
    <glyph glyph-name="ellipsis" unicode="&#x2026;" horiz-adv-x="1417" 
d="M236 197q47 0 77 -32q29 -31 29 -76q0 -49 -37 -81q-29 -24 -70 -24q-47 0 -77 32q-29 31 -29 75q0 50 37 82q28 24 70 24zM708 197q47 0 77 -32q29 -31 29 -76q0 -49 -37 -81q-29 -24 -70 -24q-47 0 -77 32q-29 31 -29 75q0 50 37 82q28 24 70 24zM1181 197q47 0 77 -32
q29 -31 29 -76q0 -50 -37 -81q-29 -24 -70 -24q-47 0 -77 32q-29 31 -29 75q0 50 37 82q28 24 70 24z" />
    <glyph glyph-name="perthousand" unicode="&#x2030;" horiz-adv-x="1837" 
d="M522 1122v-222q0 -226 -214 -226q-108 0 -166 65q-36 39 -41 92q-3 30 -3 80v207q0 101 20 146q25 56 86 85q48 22 106 22q93 0 155 -56q41 -38 50 -82q7 -33 7 -111zM198 1118v-190q0 -69 4 -86q20 -74 109 -74q68 0 96 49q16 28 16 106v211q0 141 -110 141
q-65 0 -94 -37q-17 -23 -19 -51q-2 -24 -2 -69zM1167 441v-222q0 -100 -42 -154q-54 -72 -171 -72q-108 0 -167 65q-35 39 -40 92q-3 31 -3 80v207q0 101 19 146q25 56 87 85q48 22 105 22q95 0 155 -56q41 -38 50 -82q7 -32 7 -111zM844 437v-189q0 -71 4 -87
q19 -74 108 -74q68 0 96 49q16 28 16 106v211q0 141 -110 141q-64 0 -93 -37q-17 -23 -19 -51q-2 -23 -2 -69zM1134 1336l-936 -1353l-68 47l937 1352zM1738 441v-222q0 -100 -42 -154q-54 -72 -171 -72q-109 0 -168 65q-35 39 -40 92q-3 30 -3 80v207q0 102 19 146
q25 56 87 85q48 22 106 22q95 0 155 -56q41 -38 50 -82q7 -32 7 -111zM1414 437v-189q0 -71 4 -87q19 -74 109 -74q67 0 96 49q16 28 16 106v211q0 141 -111 141q-64 0 -93 -37q-17 -23 -19 -51q-2 -23 -2 -69z" />
    <glyph glyph-name="guilsinglleft" unicode="&#x2039;" horiz-adv-x="520" 
d="M210 482l207 -336h-123l-206 336l206 350h123z" />
    <glyph glyph-name="guilsinglright" unicode="&#x203a;" horiz-adv-x="520" 
d="M309 496l-207 336h123l206 -336l-206 -350h-123z" />
    <glyph glyph-name="exclamdbl" unicode="&#x203c;" horiz-adv-x="819" 
d="M284 1365v-363l-39 -615h-89l-39 613v365h167zM286 247v-247h-172v247h172zM700 1365v-363l-39 -615h-89l-39 613v365h167zM703 247v-247h-172v247h172z" />
    <glyph glyph-name="uni203E" unicode="&#x203e;" 
d="M0 1750h1024v-107h-1024v107z" />
    <glyph glyph-name="fraction" unicode="&#x2044;" horiz-adv-x="254" 
d="M629 1326l-937 -1353l-67 47l936 1352z" />
    <glyph glyph-name="zerosuperior" unicode="&#x2070;" horiz-adv-x="672" 
d="M596 1106v-319q0 -131 -63 -193q-71 -70 -197 -70q-131 0 -202 72q-39 40 -49 91q-9 48 -9 127v265q0 105 20 152q54 129 237 129q121 0 193 -63q45 -38 59 -88q11 -40 11 -103zM193 1077v-269q0 -82 9 -103q17 -40 61 -60q34 -16 74 -16q80 0 117 50q26 34 26 115v307
q0 80 -41 117q-40 36 -102 36q-81 0 -119 -54q-25 -36 -25 -123z" />
    <glyph glyph-name="foursuperior" unicode="&#x2074;" horiz-adv-x="672" 
d="M397 719h-339v85l454 576v-558h99v-103h-99v-181h-115v181zM400 820v283l-218 -283h218z" />
    <glyph glyph-name="fivesuperior" unicode="&#x2075;" horiz-adv-x="672" 
d="M224 1228v-193q57 19 115 19q108 0 182 -65q88 -77 88 -200q0 -132 -95 -211q-80 -66 -198 -66q-194 0 -266 178l109 38q22 -47 41 -66q43 -43 115 -43q79 0 130 54q45 48 45 116q0 70 -47 116q-49 48 -133 48q-67 0 -123 -36q-26 -16 -75 -54v470h385v-105h-273z" />
    <glyph glyph-name="sixsuperior" unicode="&#x2076;" horiz-adv-x="672" 
d="M506 1345l-214 -315q31 8 62 8q111 0 182 -67q79 -74 79 -180q0 -112 -85 -191q-83 -76 -198 -76q-128 0 -211 93q-65 72 -65 174q0 80 66 181l246 373h138zM338 942q-78 0 -128 -54q-38 -41 -38 -98q0 -72 56 -122q43 -38 107 -38q81 0 128 58q36 46 36 99q0 64 -46 109
q-49 46 -115 46z" />
    <glyph glyph-name="sevensuperior" unicode="&#x2077;" horiz-adv-x="672" 
d="M438 1240h-322v105h492l-344 -807h-127z" />
    <glyph glyph-name="eightsuperior" unicode="&#x2078;" horiz-adv-x="672" 
d="M464 982q47 -16 79 -46q65 -63 65 -161q0 -116 -84 -187q-76 -64 -190 -64q-136 0 -213 86q-58 64 -58 157q0 102 66 167q31 31 81 48q-42 17 -69 48q-45 53 -45 123q0 94 76 154q67 53 166 53q109 0 177 -63q62 -57 62 -143q0 -74 -50 -128q-24 -27 -63 -44zM338 1260
q-66 0 -103 -39q-26 -29 -26 -69q0 -56 46 -88q38 -27 82 -27q60 0 99 43q30 33 30 70q0 46 -43 82q-34 28 -85 28zM338 924q-74 0 -121 -53q-37 -42 -37 -95q0 -64 49 -108q45 -40 106 -40q68 0 115 47q41 42 41 101q0 62 -46 105t-107 43z" />
    <glyph glyph-name="ninesuperior" unicode="&#x2079;" horiz-adv-x="672" 
d="M382 854q-31 -10 -62 -10q-112 0 -188 74q-75 72 -75 177q0 112 83 188q83 77 200 77q123 0 205 -83q71 -72 71 -178q0 -86 -60 -179l-246 -382h-138zM340 1255q-80 0 -129 -58q-37 -43 -37 -98q0 -73 57 -119q44 -36 104 -36q80 0 129 56q35 41 35 98q0 71 -50 115
q-47 42 -109 42z" />
    <glyph glyph-name="zeroinferior" unicode="&#x2080;" horiz-adv-x="672" 
d="M596 569v-319q0 -131 -63 -193q-71 -70 -198 -70q-130 0 -201 72q-39 40 -49 90q-9 48 -9 128v264q0 105 20 152q55 129 237 129q121 0 193 -62q45 -39 59 -89q11 -40 11 -102zM193 539v-268q0 -83 9 -104q17 -39 61 -59q34 -16 74 -16q80 0 117 50q26 34 26 115v306
q0 81 -41 117q-40 36 -102 36q-81 0 -119 -54q-25 -35 -25 -123z" />
    <glyph glyph-name="oneinferior" unicode="&#x2081;" horiz-adv-x="672" 
d="M338 651l-187 -117v109l304 189v-832h-117v651z" />
    <glyph glyph-name="twoinferior" unicode="&#x2082;" horiz-adv-x="672" 
d="M265 104h292v-104h-501l305 413q61 83 80 116q24 43 24 79q0 54 -44 85q-37 26 -90 26q-88 0 -117 -62q-13 -29 -14 -87h-113q3 75 26 126q59 126 224 126q121 0 190 -70q55 -55 55 -136q0 -61 -28 -115q-26 -51 -71 -109z" />
    <glyph glyph-name="threeinferior" unicode="&#x2083;" horiz-adv-x="672" 
d="M389 704h-287v103h507l-250 -301q82 -3 147 -50q97 -71 97 -198q0 -133 -103 -212q-77 -59 -186 -59q-136 0 -213 88q-39 44 -57 118l107 19q36 -121 157 -121q80 0 132 51q46 46 46 109q0 68 -50 112q-48 43 -131 43q-52 0 -104 -30l-50 45z" />
    <glyph glyph-name="fourinferior" unicode="&#x2084;" horiz-adv-x="672" 
d="M397 181h-339v85l454 576v-558h99v-103h-99v-181h-115v181zM400 282v283l-218 -283h218z" />
    <glyph glyph-name="fiveinferior" unicode="&#x2085;" horiz-adv-x="672" 
d="M224 702v-193q57 19 115 19q108 0 182 -64q88 -77 88 -201q0 -131 -95 -210q-80 -66 -198 -66q-193 0 -266 177l109 38q22 -47 41 -65q43 -43 115 -43q79 0 130 54q45 47 45 116t-47 115q-49 48 -133 48q-67 0 -123 -36q-26 -16 -75 -54v470h385v-105h-273z" />
    <glyph glyph-name="sixinferior" unicode="&#x2086;" horiz-adv-x="672" 
d="M506 807l-214 -315q30 8 62 8q111 0 182 -67q79 -74 79 -180q0 -112 -85 -191q-83 -76 -198 -76q-128 0 -211 92q-65 73 -65 174q0 81 66 182l246 373h138zM338 404q-78 0 -128 -54q-38 -41 -38 -98q0 -72 56 -122q43 -38 107 -38q81 0 127 58q37 46 37 99q0 65 -46 109
q-49 46 -115 46z" />
    <glyph glyph-name="seveninferior" unicode="&#x2087;" horiz-adv-x="672" 
d="M438 702h-322v105h492l-344 -807h-127z" />
    <glyph glyph-name="eightinferior" unicode="&#x2088;" horiz-adv-x="672" 
d="M464 444q47 -16 79 -46q65 -63 65 -161q0 -116 -84 -187q-77 -64 -190 -64q-136 0 -213 86q-58 64 -58 157q0 102 66 167q32 31 81 48q-42 17 -69 48q-45 53 -45 123q0 94 76 154q67 53 166 53q109 0 177 -63q62 -57 62 -143q0 -74 -50 -128q-24 -27 -63 -44zM338 722
q-66 0 -103 -39q-26 -29 -26 -69q0 -56 46 -88q38 -27 82 -27q59 0 99 43q30 33 30 70q0 46 -43 82q-34 28 -85 28zM338 386q-74 0 -121 -52q-37 -42 -37 -96q0 -64 49 -108q44 -40 106 -40q68 0 115 47q41 42 41 101q0 62 -46 105q-45 43 -107 43z" />
    <glyph glyph-name="nineinferior" unicode="&#x2089;" horiz-adv-x="672" 
d="M382 316q-31 -10 -62 -10q-112 0 -188 74q-75 72 -75 177q0 112 83 188q83 77 201 77q122 0 204 -83q71 -72 71 -178q0 -86 -60 -179l-246 -382h-138zM340 717q-80 0 -129 -58q-37 -43 -37 -98q0 -73 57 -119q44 -36 104 -36q80 0 129 56q35 41 35 98q0 71 -50 115
q-47 42 -109 42z" />
    <glyph glyph-name="franc" unicode="&#x20a3;" horiz-adv-x="1380" 
d="M342 1218v-456h533v-147h-533v-615h-172v1365h705v-147h-533zM886 944h157v-159q37 88 86 125q75 57 178 57q12 0 37 -1v-157q-27 2 -43 2q-130 0 -204 -108q-36 -54 -46 -112q-8 -47 -8 -111v-480h-157v944z" />
    <glyph glyph-name="lira" unicode="&#x20a4;" horiz-adv-x="1226" 
d="M724 756v-66h-235q34 -65 42 -88q12 -32 22 -90h175v-66h-184q-6 -69 -20 -108q-34 -95 -153 -195q23 10 34 15q82 38 153 38q48 0 114 -19q17 -5 130 -43q43 -15 91 -15q80 0 170 62q44 31 77 70l65 -135q-49 -48 -109 -84q-107 -65 -205 -65q-76 0 -208 49
q-130 48 -191 48q-102 0 -218 -86l-91 130q112 73 168 189q32 67 37 149h-238v66h233q-17 64 -32 97q-13 28 -46 81h-155v66h116q-29 54 -42 83q-32 73 -32 142q0 93 52 178q122 199 435 199q296 0 414 -188q63 -101 69 -290h-156q-5 163 -70 242q-82 98 -250 98
q-156 0 -240 -76q-76 -69 -76 -169q0 -64 32 -127q14 -28 52 -92h270z" />
    <glyph glyph-name="peseta" unicode="&#x20a7;" horiz-adv-x="1804" 
d="M342 522v-522h-172v1365h365q243 0 367 -104q133 -111 133 -314q0 -159 -85 -270q-62 -80 -154 -117q-98 -38 -242 -38h-212zM342 669h178q103 0 171 24q81 28 128 100q43 65 43 150q0 124 -87 199q-88 75 -277 75h-156v-548zM1107 476v-355q0 -15 5 -21q6 -6 31 -6h53
v-94h-98q-104 0 -104 94v382h-81v95h81v175h113v-175h89v-95h-89zM1735 405h-112v13q0 26 -17 44q-28 32 -86 32q-98 0 -98 -73q0 -26 14 -41q23 -23 110 -46q106 -27 146 -64q50 -46 50 -114q0 -84 -75 -134q-53 -35 -141 -35q-212 0 -228 185h112q8 -96 116 -96
q48 0 73 20q28 23 28 55q0 34 -32 57q-22 15 -95 33q-191 47 -191 175q0 85 75 132q56 35 140 35q115 0 174 -68q35 -42 37 -110z" />
    <glyph glyph-name="Euro" unicode="&#x20ac;" 
d="M142 876q16 79 38 143q57 169 196 278q119 93 262 93q178 0 325 -142q19 -19 38 -41l-73 -169q-113 193 -292 193q-71 0 -137 -45q-129 -88 -179 -310h527l-59 -141h-486v-40q0 -35 3 -83h443l-60 -141h-360q19 -87 67 -169q98 -168 245 -168q146 0 252 128q23 27 42 60
v-225q-61 -56 -142.5 -89t-156.5 -33q-153 0 -278 111q-161 143 -211 385h-131l59 141h53q-2 39 -2 73q0 23 1 50h-111l59 141h68z" />
    <glyph glyph-name="uni2101" unicode="&#x2101;" horiz-adv-x="1843" 
d="M616 733h-368l-77 -187h-128l325 819h137l317 -819h-136zM578 834l-145 374l-148 -374h293zM1555 1326l-937 -1353l-67 47l936 1352zM1240 230h118q5 -141 141 -141q68 0 113 37q41 34 41 92q0 50 -33 80q-32 28 -132 60q-126 40 -173 81q-70 60 -70 159q0 113 82 179
q70 57 177 57q153 0 224 -108q36 -56 38 -136h-123q-4 140 -138 140q-64 0 -101 -38q-35 -35 -35 -86q0 -58 44 -88q31 -21 135 -56q122 -41 170 -88q60 -60 60 -149q0 -124 -101 -193q-68 -47 -174 -47q-132 0 -201 71q-62 64 -62 150v24z" />
    <glyph glyph-name="afii61248" unicode="&#x2105;" horiz-adv-x="689" 
d="M346 818q38 0 66 -28q28 -27 28 -67t-28 -68t-67 -28q-40 0 -68 28t-28 67q0 41 28 68q28 28 69 28z" />
    <glyph glyph-name="afii61289" unicode="&#x2113;" 
d="M503 542q-10 -52 -25 -146q-35 -222 -35 -272q0 -52 37 -52q46 0 98 110q18 37 41 37q28 0 28 -30q0 -42 -40 -108q-72 -117 -169 -117q-75 0 -115 61q-29 43 -29 126q0 64 19 247q-25 -27 -62 -58q-39 -33 -49 -33q-9 0 -18 11q-9 12 -9 25q0 21 39 57q35 32 114 122
q70 374 163 612q97 247 242 247q66 0 101 -50q33 -48 33 -120q0 -173 -129 -384q-68 -110 -235 -285zM521 656q147 160 212 330q52 135 52 229q0 49 -29 69q-9 6 -22 6q-56 0 -91 -93q-55 -146 -122 -541z" />
    <glyph glyph-name="uni2117" unicode="&#x2117;" horiz-adv-x="327" 
d="M219 1117v-571h-113v571h113zM161 1337q31 0 50 -22q18 -19 18 -47q0 -30 -23 -51q-19 -16 -45 -16q-31 0 -50 22q-18 19 -18 46q0 31 23 52q18 16 45 16z" />
    <glyph glyph-name="trademark" unicode="&#x2122;" horiz-adv-x="1696" 
d="M363 1265v-719h-123v719h-215v100h554v-100h-216zM844 1110v-564h-123v819h119l309 -594l311 594h118v-819h-123v564l-306 -583z" />
    <glyph glyph-name="uni2126" unicode="&#x2126;" horiz-adv-x="1364" 
d="M57 0v142h370q-373 218 -373 603q0 316 237 513q169 140 391 140q223 0 392 -140q237 -197 237 -514q0 -385 -374 -602h371v-142h-534v133q135 74 216 169q157 184 157 417q0 258 -176 421q-124 115 -287 115q-165 0 -290 -115q-176 -162 -176 -421q0 -381 372 -586v-133
h-533z" />
    <glyph glyph-name="onethird" unicode="&#x2153;" horiz-adv-x="1597" 
d="M338 1189l-187 -118v110l304 188v-831h-117v651zM1300 1326l-936 -1353l-68 47l937 1352zM1314 704h-287v103h507l-250 -301q83 -3 147 -50q97 -71 97 -198q0 -133 -103 -212q-76 -59 -186 -59q-136 0 -213 88q-39 44 -57 118l107 19q36 -121 158 -121q80 0 131 51
q46 46 46 109q0 68 -50 112q-48 43 -131 43q-51 0 -104 -30l-50 45z" />
    <glyph glyph-name="twothirds" unicode="&#x2154;" horiz-adv-x="1597" 
d="M265 642h292v-104h-501l305 413q65 88 84.5 124.5t19.5 71.5q0 54 -44 85q-37 26 -91 26q-87 0 -116 -62q-13 -30 -14 -88h-113q3 75 26 126q59 126 224 126q121 0 190 -70q55 -56 55 -136q0 -61 -28 -115q-26 -51 -71 -109zM1300 1326l-937 -1353l-67 47l937 1352z
M1314 704h-287v103h507l-251 -301q83 -3 148 -50q97 -71 97 -198q0 -133 -103 -212q-77 -59 -186 -59q-136 0 -214 88q-38 44 -56 118l107 19q35 -121 157 -121q80 0 132 51q46 46 46 109q0 68 -50 112q-48 43 -131 43q-52 0 -104 -30l-50 45z" />
    <glyph glyph-name="onefifth" unicode="&#x2155;" horiz-adv-x="1597" 
d="M338 1189l-187 -118v110l304 188v-831h-117v651zM1300 1326l-936 -1353l-68 47l937 1352zM1149 702v-193q56 19 115 19q108 0 182 -64q88 -77 88 -201q0 -131 -95 -210q-80 -66 -198 -66q-193 0 -266 177l109 38q23 -47 41 -65q43 -43 115 -43q79 0 130 54q45 47 45 116
t-47 115q-49 48 -133 48q-67 0 -123 -36q-26 -16 -75 -54v470h385v-105h-273z" />
    <glyph glyph-name="twofifth" unicode="&#x2156;" horiz-adv-x="1597" 
d="M265 642h292v-104h-501l305 413q65 88 84.5 124.5t19.5 71.5q0 54 -44 85q-37 26 -91 26q-87 0 -116 -62q-13 -30 -14 -88h-113q3 75 26 126q59 126 224 126q121 0 190 -70q55 -56 55 -136q0 -61 -28 -115q-26 -51 -71 -109zM1300 1326l-937 -1353l-67 47l937 1352z
M1149 702v-193q57 19 115 19q107 0 181 -64q89 -77 89 -201q0 -131 -95 -210q-80 -66 -198 -66q-193 0 -266 177l108 38q23 -47 42 -65q43 -43 115 -43q78 0 129 54q46 47 46 116t-47 115q-49 48 -134 48q-67 0 -122 -36q-26 -16 -75 -54v470h385v-105h-273z" />
    <glyph glyph-name="threefifth" unicode="&#x2157;" horiz-adv-x="1597" 
d="M389 1242h-287v103h507l-250 -301q82 -3 147 -50q97 -71 97 -198q0 -133 -103 -212q-76 -59 -186 -59q-136 0 -213 88q-39 44 -57 118l107 19q35 -121 157 -121q80 0 132 51q46 45 46 108q0 69 -50 113q-48 43 -130 43q-52 0 -105 -29l-50 44zM1301 1326l-937 -1353
l-67 47l936 1352zM1150 702v-193q56 19 115 19q108 0 182 -64q88 -77 88 -201q0 -131 -95 -210q-80 -66 -198 -66q-193 0 -266 177l108 38q24 -47 42 -65q43 -43 115 -43q78 0 130 54q45 47 45 116t-47 115q-49 48 -133 48q-68 0 -123 -36q-26 -16 -75 -54v470h385v-105
h-273z" />
    <glyph glyph-name="fourfifth" unicode="&#x2158;" horiz-adv-x="1597" 
d="M397 719h-339v85l454 576v-558h99v-103h-99v-181h-115v181zM400 820v283l-218 -283h218zM1300 1326l-937 -1353l-67 47l936 1352zM1149 702v-193q56 19 115 19q108 0 182 -64q88 -77 88 -201q0 -131 -95 -210q-80 -66 -198 -66q-192 0 -266 177l109 38q23 -47 41 -65
q43 -43 115 -43q78 0 130 54q45 47 45 116t-47 115q-49 48 -133 48q-67 0 -123 -36q-26 -16 -75 -54v470h385v-105h-273z" />
    <glyph glyph-name="onesixth" unicode="&#x2159;" horiz-adv-x="1597" 
d="M338 1189l-187 -118v110l304 188v-831h-117v651zM1300 1326l-936 -1353l-68 47l937 1352zM1432 807l-214 -315q30 8 62 8q110 0 182 -67q79 -74 79 -180q0 -112 -85 -191q-83 -76 -198 -76q-129 0 -212 92q-65 73 -65 174q0 51 19 98q13 31 48 84l245 373h139zM1263 404
q-77 0 -128 -54q-38 -41 -38 -98q0 -72 57 -122q43 -38 106 -38q81 0 128 58q37 46 37 99q0 65 -46 109q-49 46 -116 46z" />
    <glyph glyph-name="fivesixth" unicode="&#x215a;" horiz-adv-x="1597" 
d="M224 1228v-193q57 19 115 19q108 0 182 -65q88 -77 88 -200q0 -132 -95 -211q-80 -66 -198 -66q-194 0 -266 178l109 38q22 -47 41 -66q43 -43 115 -43q79 0 130 54q45 48 45 116q0 70 -47 116q-49 48 -133 48q-67 0 -123 -36q-26 -16 -75 -54v470h385v-105h-273z
M1300 1326l-937 -1353l-67 47l937 1352zM1431 807l-214 -315q30 8 62 8q111 0 182 -67q79 -74 79 -180q0 -112 -85 -191q-83 -76 -197 -76q-129 0 -212 92q-65 73 -65 174q0 81 67 182l245 373h138zM1262 404q-77 0 -127 -54q-38 -41 -38 -98q0 -72 56 -122q43 -38 107 -38
q81 0 127 58q37 46 37 99q0 65 -46 109q-49 46 -116 46z" />
    <glyph glyph-name="oneeighth" unicode="&#x215b;" horiz-adv-x="1597" 
d="M338 1189l-187 -118v110l304 188v-831h-117v651zM1300 1326l-936 -1353l-68 47l937 1352zM1390 444q46 -16 78 -46q66 -63 66 -161q0 -116 -84 -187q-77 -64 -191 -64q-135 0 -213 86q-58 64 -58 157q0 102 66 167q32 31 81 48q-42 17 -68 48q-45 53 -45 123q0 95 76 154
q67 53 166 53q109 0 177 -63q62 -57 62 -143q0 -74 -50 -128q-24 -27 -63 -44zM1264 722q-66 0 -103 -39q-26 -29 -26 -69q0 -56 46 -88q38 -27 82 -27q59 0 99 43q30 33 30 70q0 46 -43 82q-34 28 -85 28zM1263 386q-74 0 -120 -52q-38 -42 -38 -96q0 -64 49 -108
q45 -40 107 -40q68 0 115 47q41 42 41 101q0 62 -46 105t-108 43z" />
    <glyph glyph-name="threeeighths" unicode="&#x215c;" horiz-adv-x="1597" 
d="M389 1242h-287v103h507l-250 -301q82 -3 147 -50q97 -71 97 -198q0 -133 -103 -212q-76 -59 -186 -59q-136 0 -213 88q-39 44 -57 118l107 19q35 -121 157 -121q80 0 132 51q46 45 46 108q0 69 -50 113q-48 43 -130 43q-52 0 -105 -29l-50 44zM1301 1326l-937 -1353
l-67 47l936 1352zM1390 444q46 -16 78 -46q66 -63 66 -161q0 -116 -84 -187q-77 -64 -191 -64q-135 0 -212 86q-58 64 -58 157q0 102 66 167q31 31 80 48q-42 17 -68 48q-45 53 -45 123q0 95 75 154q68 53 167 53q109 0 177 -63q62 -57 62 -143q0 -74 -50 -128
q-25 -27 -63 -44zM1264 722q-66 0 -103 -39q-26 -29 -26 -69q0 -56 45 -88q39 -27 83 -27q59 0 99 43q30 33 30 70q0 46 -43 82q-34 28 -85 28zM1264 386q-74 0 -121 -52q-37 -43 -37 -96q0 -64 48 -108q45 -40 107 -40q68 0 115 47q41 42 41 101q0 62 -46 105t-107 43z" />
    <glyph glyph-name="fiveeighths" unicode="&#x215d;" horiz-adv-x="1597" 
d="M224 1228v-193q57 19 115 19q108 0 182 -65q88 -77 88 -200q0 -132 -95 -211q-80 -66 -198 -66q-194 0 -266 178l109 38q22 -47 41 -66q43 -43 115 -43q79 0 130 54q45 48 45 116q0 70 -47 116q-49 48 -133 48q-67 0 -123 -36q-26 -16 -75 -54v470h385v-105h-273z
M1300 1326l-937 -1353l-67 47l937 1352zM1390 444q46 -16 78 -46q65 -63 65 -161q0 -116 -84 -187q-77 -64 -190 -64q-135 0 -213 86q-58 64 -58 157q0 102 66 167q32 31 81 48q-42 17 -69 48q-45 53 -45 123q0 95 76 154q67 53 167 53q109 0 177 -63q62 -57 62 -143
q0 -74 -50 -128q-25 -27 -63 -44zM1264 722q-67 0 -103 -39q-27 -29 -27 -69q0 -55 46 -88q38 -27 83 -27q59 0 99 43q30 33 30 70q0 46 -43 82q-34 28 -85 28zM1263 386q-74 0 -121 -52q-37 -42 -37 -96q0 -64 49 -108q44 -40 106 -40q68 0 115 47q41 42 41 101
q0 62 -46 105q-45 43 -107 43z" />
    <glyph glyph-name="seveneighths" unicode="&#x215e;" horiz-adv-x="1597" 
d="M438 1240h-322v105h492l-344 -807h-127zM1300 1326l-937 -1353l-67 47l936 1352zM1389 444q47 -16 79 -46q65 -63 65 -161q0 -116 -84 -187q-77 -64 -190 -64q-136 0 -213 86q-58 64 -58 157q0 102 66 167q31 31 81 48q-43 17 -69 48q-45 53 -45 123q0 95 76 154
q67 53 166 53q109 0 177 -63q62 -57 62 -143q0 -74 -49 -128q-25 -27 -64 -44zM1263 722q-66 0 -103 -39q-26 -29 -26 -69q0 -56 46 -88q38 -27 82 -27q59 0 99 43q30 33 30 70q0 46 -43 82q-34 28 -85 28zM1263 386q-74 0 -120 -52q-38 -42 -38 -96q0 -64 49 -108
q44 -40 106 -40q68 0 115 47q41 42 41 101q0 62 -46 105q-45 43 -107 43z" />
    <glyph glyph-name="arrowleft" unicode="&#x2190;" horiz-adv-x="1365" 
d="M1338 744v-104h-1024q24 -30 60 -96q47 -86 47 -117q0 -28 -30 -28q-17 0 -47 35q-105 122 -270 211q-47 26 -47 43q0 18 34 38q100 56 165 106q60 46 132 130q16 19 32 19q31 0 31 -31q0 -20 -42 -104q-21 -41 -65 -102h1024z" />
    <glyph glyph-name="arrowup" unicode="&#x2191;" horiz-adv-x="1365" 
d="M737 27h-104v1024q-30 -24 -96 -59q-86 -47 -117 -47q-28 0 -28 31q0 16 35 46q122 105 212 269q25 47 42 47q19 0 38 -34q55 -97 106 -164q50 -64 131 -132q19 -16 19 -32q0 -31 -31 -31q-20 0 -105 42q-40 20 -102 64v-1024z" />
    <glyph glyph-name="arrowright" unicode="&#x2192;" horiz-adv-x="1365" 
d="M27 636v104h1024q-24 30 -60 96q-47 87 -47 117q0 29 30 29q17 0 47 -35q108 -124 270 -212q47 -26 47 -43q0 -18 -34 -38q-99 -56 -165 -106q-61 -48 -132 -131q-16 -19 -32 -19q-31 0 -31 31q0 20 42 105q21 42 65 102h-1024z" />
    <glyph glyph-name="arrowdown" unicode="&#x2193;" horiz-adv-x="1365" 
d="M629 1338h104v-1024q30 25 96 60q86 47 117 47q28 0 28 -31q0 -16 -35 -46q-122 -106 -212 -270q-25 -47 -42 -47q-19 0 -38 34q-54 94 -106 165q-46 60 -131 132q-19 16 -19 32q0 31 31 31q20 0 105 -42q42 -21 102 -65v1024z" />
    <glyph glyph-name="arrowboth" unicode="&#x2194;" horiz-adv-x="1365" 
d="M312 635q45 -61 72 -117q36 -71 36 -91q0 -30 -31 -30q-12 0 -22 8q-5 5 -26 30q-79 95 -223 183q-49 30 -70 43q-21 11 -21 30q0 17 47 42q164 90 269 212q31 35 47 35q30 0 30 -29q0 -30 -48 -116q-35 -64 -60 -96h739q-24 29 -60 96q-47 86 -47 117q0 28 30 28
q17 0 47 -35q107 -123 270 -212q47 -25 47 -42q0 -19 -34 -38q-100 -57 -165 -106q-62 -48 -132 -131q-16 -19 -32 -19q-31 0 -31 31q0 21 42 105q21 42 65 102h-739z" />
    <glyph glyph-name="arrowupdn" unicode="&#x2195;" horiz-adv-x="1365" 
d="M737 312q64 47 117 73q72 36 91 36q30 0 30 -31q0 -13 -8 -22q-5 -5 -30 -26q-94 -79 -183 -223q-29 -48 -43 -71q-11 -21 -30 -21q-17 0 -42 47q-90 164 -212 270q-35 30 -35 47q0 30 29 30q30 0 116 -48q61 -33 96 -61v739q-30 -24 -96 -59q-86 -47 -116 -47
q-29 0 -29 30q0 17 35 47q122 105 212 269q25 47 42 47q19 0 38 -34q56 -98 106 -164q50 -64 131 -132q19 -16 19 -32q0 -31 -31 -31q-20 0 -105 42q-40 20 -102 64v-739z" />
    <glyph glyph-name="arrowupdnbse" unicode="&#x21a8;" horiz-adv-x="1365" 
d="M737 312q64 47 117 73q72 36 91 36q30 0 30 -31q0 -13 -8 -22q-5 -5 -30 -26q-93 -78 -183 -223q-28 -46 -43 -71q-11 -21 -30 -21q-17 0 -42 47q-90 164 -212 270q-35 30 -35 47q0 30 28 30q31 0 117 -48q61 -33 96 -61v739q-30 -24 -96 -59q-86 -47 -116 -47
q-29 0 -29 30q0 17 35 47q122 105 212 269q25 47 42 47q19 0 38 -34q56 -98 106 -164q50 -64 131 -132q19 -16 19 -32q0 -31 -31 -31q-20 0 -105 42q-40 20 -102 64v-739zM413 -139h540v-88h-540v88z" />
    <glyph glyph-name="partialdiff" unicode="&#x2202;" 
d="M172 1242l19 130q174 -24 285 -71q254 -109 383 -364q100 -199 100 -445q0 -193 -81 -316q-66 -101 -172 -153q-90 -45 -192 -45q-154 0 -276 95q-66 52 -109 125q-64 109 -64 239q0 142 77 262q63 100 166 150q86 41 179 41q79 0 154 -29q61 -24 120 -90q7 -8 29 -33
q-13 27 -67 155q-28 66 -108 149q-77 81 -225 145q-83 36 -218 55zM525 767q-109 0 -195 -67q-45 -35 -76 -93q-44 -81 -44 -172q0 -144 99 -241q88 -86 203 -86q104 0 187 70q112 94 112 267q0 163 -101 251q-83 71 -185 71z" />
    <glyph glyph-name="emptyset" unicode="&#x2205;" horiz-adv-x="1266" 
d="M899 1365l98 -51l-98 -181q231 -161 231 -416q0 -141 -75 -262q-65 -105 -170 -167q-119 -69 -263 -69q-94 0 -162 33l-128 -251l-100 51l126 249q-221 162 -221 414q0 228 171 376q140 121 328 121q82 0 166 -29zM514 353q66 -18 119 -18q168 0 283 123q100 108 100 257
q0 150 -100 260q-25 28 -64 52zM749 1079q-57 17 -110 17q-184 0 -299 -138q-89 -107 -89 -242q0 -183 159 -310z" />
    <glyph glyph-name="Delta" unicode="&#x2206;" horiz-adv-x="1276" 
d="M13 0l541 1365h167l543 -1365h-1251zM223 142h828l-413 1049z" />
    <glyph glyph-name="product" unicode="&#x220f;" horiz-adv-x="1365" 
d="M54 1536h1257v-132h-151v-1784h151v-132h-453v132h155v1784h-661v-1784h152v-132h-450v132h152v1784h-152v132z" />
    <glyph glyph-name="summation" unicode="&#x2211;" horiz-adv-x="1365" 
d="M1225 1536v-471h-148l-15 321h-812l509 -834l-508 -915h830l9 324h154v-473h-1174v173l498 890l-498 816v169h1155z" />
    <glyph glyph-name="minus" unicode="&#x2212;" 
d="M45 745h933v-90h-933v90z" />
    <glyph glyph-name="uni2218" unicode="&#x2218;" 
d="M516 983q112 0 194 -83q83 -84 83 -204q0 -118 -82 -202q-83 -84 -199 -84t-198 83q-84 85 -84 203q0 122 84 204q84 83 202 83zM514 886q-79 0 -133 -55q-55 -55 -55 -135q0 -78 55 -134q55 -55 131 -55t131 56q54 55 54 133q0 81 -55 135q-55 55 -128 55z" />
    <glyph glyph-name="radical" unicode="&#x221a;" horiz-adv-x="1365" 
d="M1365 1693v-136h-392l-460 -1557h-177l-172 598h-164v136h260l86 -284q8 -26 59 -244l7 -33h8q9 38 47 182l54 210l100 335l232 793h512z" />
    <glyph glyph-name="infinity" unicode="&#x221e;" horiz-adv-x="1365" 
d="M685 616q-155 -228 -342 -228q-156 0 -241 111q-63 83 -63 201q0 169 128 253q80 53 178 53q186 0 336 -228q44 65 81 105q116 123 263 123q157 0 242 -115q60 -82 60 -196q0 -148 -96 -232q-85 -76 -205 -76q-192 0 -341 229zM743 697q37 -57 68 -94q93 -109 202 -109
q90 0 145 65q47 55 47 137q0 106 -73 162q-54 41 -121 41q-112 0 -208 -117q-20 -26 -42 -58zM623 696q-36 56 -68 94q-94 109 -202 109q-90 0 -145 -65q-47 -55 -47 -138q0 -105 74 -161q53 -41 120 -41q112 0 208 117q20 26 42 57z" />
    <glyph glyph-name="orthogonal" unicode="&#x221f;" horiz-adv-x="701" 
d="M43 985h614v-112h-614v112z" />
    <glyph glyph-name="intersection" unicode="&#x2229;" horiz-adv-x="1142" 
d="M1072 0h-162v649q0 173 -9 257q-12 118 -67 187q-45 58 -114 91q-73 35 -149 35q-115 0 -208 -71q-67 -51 -95 -125q-36 -93 -36 -374v-649h-162v644q0 229 12 315q28 203 190 317q127 89 299 89q171 0 299 -89q162 -114 190 -317q12 -88 12 -315v-644z" />
    <glyph glyph-name="union" unicode="&#x222a;" horiz-adv-x="1142" 
d="M70 1365h162v-649q0 -173 9 -257q13 -118 67 -187q45 -58 114 -91q73 -35 149 -35q115 0 208 71q67 51 95 125q36 94 36 374v649h162v-644q0 -231 -12 -315q-28 -203 -190 -317q-128 -89 -299 -89t-299 89q-162 114 -190 317q-12 88 -12 315v644z" />
    <glyph glyph-name="integral" unicode="&#x222b;" 
d="M195 -490l33 151q44 -20 81 -20q84 0 107 70q9 26 10 185v1204q1 164 3.5 198.5t13.5 73.5q23 76 94 122q64 42 160 42q56 0 132 -22l-33 -152q-45 21 -82 21q-83 0 -106 -70q-10 -30 -10 -139v-1247q0 -168 -6 -210q-17 -129 -109 -181q-77 -44 -193 -44q-51 0 -95 18z
" />
    <glyph glyph-name="uni222E" unicode="&#x222e;" 
d="M193 -490l33 151q50 -20 89 -20q85 0 107 70q10 32 10 142v325q-75 10 -152 67q-61 46 -98 121q-38 78 -38 162q0 116 67 212q77 109 221 138v308q0 167 39 235q66 115 217 115q58 0 139 -22l-33 -152q-51 21 -91 21q-82 0 -105 -70q-9 -29 -9 -130v-305q94 -17 154 -64
q64 -49 100 -123q38 -77 38 -162q0 -117 -66 -211q-57 -83 -159 -123q-31 -12 -67 -17v-330q0 -111 -7 -158q-13 -88 -76 -143q-67 -59 -185 -59q-72 0 -128 22zM589 795v-532q67 15 111 52q96 80 96 214q0 146 -108 222q-49 34 -99 44zM432 264v530q-60 -11 -106 -50
q-97 -81 -97 -215q0 -87 47 -159q38 -58 111 -92q21 -10 45 -14z" />
    <glyph glyph-name="uni2236" unicode="&#x2236;" horiz-adv-x="690" 
d="M346 1114q32 0 56 -24q25 -23 25 -58t-25 -60q-24 -23 -58 -23q-33 0 -57 23q-25 25 -25 59q0 36 25 59q24 24 59 24zM346 495q34 0 58 -25q23 -24 23 -57q0 -35 -25 -60q-24 -23 -58 -23q-33 0 -57 23q-25 25 -25 60q0 34 23 57q25 25 61 25z" />
    <glyph glyph-name="similar" unicode="&#x223c;" 
d="M111 530l-90 71q107 234 280 234q76 0 236 -80q98 -49 131 -58q32 -9 58 -9q102 0 186 151l90 -71q-49 -111 -117 -167q-79 -66 -169 -66q-33 0 -76 13q-46 14 -179 80q-108 54 -167 54q-99 0 -183 -152z" />
    <glyph glyph-name="approxequal" unicode="&#x2248;" 
d="M111 712l-90 62q107 234 280 234q75 0 236 -80q100 -49 131 -58t58 -9q71 0 119 51q29 30 67 91l90 -62q-103 -231 -295 -231q-31 0 -73 13t-173 78q-109 54 -168 54q-62 0 -109 -47q-33 -32 -73 -96zM111 357l-90 62q107 233 280 233q75 0 236 -80q99 -49 131 -58
q31 -9 58 -9q71 0 119 52q29 30 67 90l90 -62q-103 -231 -295 -231q-31 0 -73 13q-44 14 -173 78q-108 54 -168 54q-62 0 -109 -47q-33 -32 -73 -95z" />
    <glyph glyph-name="notequal" unicode="&#x2260;" 
d="M554 905l125 252l114 -49l-100 -203h263v-142h-323l-97 -200h420v-142h-475l-124 -252l-114 50l98 202h-273v142h328l98 200h-425v142h485z" />
    <glyph glyph-name="equivalence" unicode="&#x2261;" 
d="M68 1098h887v-150h-887v150zM68 757h887v-150h-887v150zM68 417h887v-150h-887v150z" />
    <glyph glyph-name="lessequal" unicode="&#x2264;" 
d="M955 1224v-161l-701 -272l700 -271l1 -161l-887 360v146zM955 301v-150h-887v150h887z" />
    <glyph glyph-name="greaterequal" unicode="&#x2265;" 
d="M68 359l1 161l700 271l-701 272v161l887 -359v-147zM68 151v150h887v-150h-887z" />
    <glyph glyph-name="dotmath" unicode="&#x22c5;" horiz-adv-x="472" 
d="M236 604q47 0 77 -32q29 -31 29 -76q0 -49 -37 -81q-29 -24 -70 -24q-47 0 -77 32q-29 31 -29 75q0 50 37 82q28 24 70 24z" />
    <glyph glyph-name="house" unicode="&#x2302;" horiz-adv-x="1538" 
d="M172 0v821l597 672l597 -672v-821h-1194zM276 104h986v672l-493 553l-493 -553v-672z" />
    <glyph glyph-name="revlogicalnot" unicode="&#x2310;" 
d="M234 0h-166v570h887v-150h-721v-420z" />
    <glyph glyph-name="uni2319" unicode="&#x2319;" 
d="M234 570v-420h721v-150h-887v570h166z" />
    <glyph glyph-name="integraltp" unicode="&#x2320;" 
d="M598 -512h-172v1612q1 144 2 170q3 113 55 176q74 90 214 90q56 0 132 -22l-33 -152q-45 21 -82 21q-83 0 -106 -70q-10 -30 -10 -139v-1686z" />
    <glyph glyph-name="integralbt" unicode="&#x2321;" 
d="M426 1536h172v-1612q-1 -136 -2 -170q-4 -114 -55 -176q-74 -90 -214 -90q-56 0 -132 22l33 152q44 -21 82 -21q83 0 106 70q10 29 10 139v1686z" />
    <glyph glyph-name="filledbox" unicode="&#x25a0;" horiz-adv-x="1365" 
d="M1365 0h-1365v1365h1365v-1365z" />
    <glyph glyph-name="uni25A1" unicode="&#x25a1;" horiz-adv-x="1365" 
d="M1365 0h-1365v1365h1365v-1365zM1269 96v1173h-1173v-1173h1173z" />
    <glyph glyph-name="H18551" unicode="&#x25ab;" horiz-adv-x="701" 
d="M43 985h246v241h120v-241h248v-112h-248v-241h-120v241h-246v112z" />
    <glyph glyph-name="filledrect" unicode="&#x25ac;" horiz-adv-x="1365" 
d="M1365 683v-683h-1365v683h1365z" />
    <glyph glyph-name="uni25AE" unicode="&#x25ae;" horiz-adv-x="1365" 
d="M1024 0h-683v1365h683v-1365z" />
    <glyph glyph-name="uni25AF" unicode="&#x25af;" horiz-adv-x="1365" 
d="M684 1207q219 0 376 -153q156 -153 156 -370q0 -216 -154 -370q-157 -156 -378 -156q-224 0 -380 156q-154 154 -154 377q0 142 78 267q77 123 213 191q114 58 243 58z" />
    <glyph glyph-name="triagup" unicode="&#x25b2;" horiz-adv-x="1365" 
d="M1297 137h-1229l615 1150z" />
    <glyph glyph-name="uni25B4" unicode="&#x25b4;" 
d="M956 300h-888l444 830z" />
    <glyph glyph-name="uni25B8" unicode="&#x25b8;" 
d="M146 243v888l830 -444z" />
    <glyph glyph-name="triagdn" unicode="&#x25bc;" horiz-adv-x="1365" 
d="M68 1229h1229l-615 -1150z" />
    <glyph glyph-name="uni25BE" unicode="&#x25be;" 
d="M68 1065h887l-443 -830z" />
    <glyph glyph-name="uni25C2" unicode="&#x25c2;" 
d="M878 1131v-888l-830 444z" />
    <glyph glyph-name="lozenge" unicode="&#x25ca;" horiz-adv-x="1365" 
d="M683 1419l531 -736l-531 -736l-532 736zM683 1238l-404 -555l404 -554l403 554z" />
    <glyph glyph-name="circle" unicode="&#x25cb;" horiz-adv-x="1365" 
d="M684 1207q219 0 376 -153q156 -153 156 -370q0 -216 -154 -370q-157 -156 -378 -156q-224 0 -380 156q-154 154 -154 377q0 142 78 267q77 123 213 191q114 58 243 58zM683 1113q-181 0 -310 -127q-127 -124 -127 -297q0 -183 126 -309q128 -128 312 -128q181 0 310 128
q126 126 126 304q0 181 -128 303q-131 126 -309 126z" />
    <glyph glyph-name="invbullet" unicode="&#x25d8;" horiz-adv-x="1365" 
d="M0 0v1365h1365v-1365h-1365zM687 969q-120 0 -202 -83q-84 -84 -84 -204q0 -119 84 -203q83 -83 198 -83q116 0 199 84q82 84 82 203q0 121 -83 203q-84 83 -194 83z" />
    <glyph glyph-name="invcircle" unicode="&#x25d9;" horiz-adv-x="1365" 
d="M1365 0h-1365v1365h1365v-1365zM683 1207q-220 0 -378 -154q-155 -152 -155 -362q0 -224 154 -377q156 -156 379 -156q221 0 378 156q154 154 154 370q0 148 -79 274q-77 124 -212 192q-113 57 -241 57zM683 1113q180 0 309 -126q128 -125 128 -303q0 -177 -127 -304
q-128 -128 -310 -128q-183 0 -311 128q-127 126 -127 309q0 117 64 220q63 101 175 157q93 47 199 47z" />
    <glyph glyph-name="openbullet" unicode="&#x25e6;" 
d="M516 983q112 0 194 -83q83 -84 83 -204q0 -118 -82 -202q-83 -84 -199 -84t-198 83q-84 85 -84 203q0 122 84 204q84 83 202 83zM514 886q-79 0 -133 -55q-55 -55 -55 -135q0 -78 55 -134q55 -55 131 -55t131 56q54 55 54 133q0 81 -55 135q-55 55 -128 55z" />
    <glyph glyph-name="smileface" unicode="&#x263a;" horiz-adv-x="1365" 
d="M693 1331q166 0 314 -87q151 -89 237 -237q87 -150 87 -324t-87 -325q-87 -150 -237 -237q-151 -87 -324 -87q-174 0 -325 87t-237 237q-87 152 -87 330q0 280 215 476q183 167 444 167zM693 1245q-259 0 -427 -187q-145 -160 -145 -371q0 -255 186 -423
q160 -144 376 -144q151 0 282 75q131 76 206 206q75 131 75 282q0 246 -186 417q-87 80 -199 116q-90 29 -168 29zM491 954q39 0 66 -30q23 -25 23 -60q0 -40 -30 -67q-25 -23 -60 -23q-40 0 -67 30q-23 26 -23 61q0 38 30 66q25 23 61 23zM889 954q39 0 66 -30
q23 -26 23 -60q0 -41 -30 -68q-26 -23 -60 -23q-41 0 -68 30q-23 26 -23 61q0 39 30 67q26 23 62 23zM1106 762q-10 -137 -34 -204q-50 -139 -160 -209q-96 -61 -228 -61q-224 0 -337 169q-46 68 -65 148q-12 52 -20 157q19 -82 44 -125q58 -98 160 -152q92 -49 218 -49
q212 0 337 144q41 48 61 99q11 27 24 83z" />
    <glyph glyph-name="invsmileface" unicode="&#x263b;" horiz-adv-x="1365" 
d="M693 1331q166 0 314 -87q151 -89 237 -237q87 -149 87 -324q0 -174 -87 -325q-87 -150 -237 -237q-151 -87 -324 -87q-174 0 -325 87t-237 237q-87 152 -87 330q0 280 215 476q183 167 444 167zM491 953q-41 0 -68 -30q-23 -25 -23 -59q0 -40 30 -67q25 -23 60 -23
q40 0 67 30q23 25 23 60q0 39 -30 66q-25 23 -59 23zM889 954q-42 0 -69 -30q-23 -26 -23 -60q0 -41 30 -69q26 -23 61 -23q40 0 67 30q23 26 23 61q0 40 -30 68q-25 23 -59 23zM1106 762q-19 -82 -44 -125q-58 -98 -160 -152q-92 -49 -218 -49q-212 0 -337 144
q-41 48 -62 99q-10 27 -23 83q10 -137 34 -204q50 -138 160 -209q96 -61 228 -61q224 0 337 169q46 69 65 148q12 53 20 157z" />
    <glyph glyph-name="sun" unicode="&#x263c;" horiz-adv-x="1365" 
d="M326 968l-153 152l72 72l154 -153q104 81 232 98v215h103v-216q133 -18 233 -96l153 152l72 -72l-153 -152q78 -101 96 -232h216v-105h-216q-17 -132 -96 -233l153 -153l-72 -72l-153 153q-103 -79 -233 -97v-215h-103v216q-119 13 -233 95l-153 -152l-72 72l152 152
q-79 102 -94 234h-216v105h215q18 129 96 232zM688 1010q-150 0 -248 -108q-84 -93 -84 -216q0 -148 108 -246q93 -84 219 -84q145 0 242 108q84 94 84 220q0 143 -108 242q-92 84 -213 84z" />
    <glyph glyph-name="female" unicode="&#x2640;" horiz-adv-x="1365" 
d="M632 644q-93 14 -166 68q-72 53 -112 133t-40 170q0 155 109 265q107 109 259 109t260 -108q110 -110 110 -266q0 -122 -72 -222q-91 -125 -250 -150v-214h334v-88h-334v-341h-98v341h-330v88h330v215zM688 1293q-117 0 -197 -80q-81 -81 -81 -197q0 -115 82 -197
q79 -80 191 -80q113 0 193 81t80 196q0 117 -80 196q-82 81 -188 81z" />
    <glyph glyph-name="male" unicode="&#x2642;" horiz-adv-x="1365" 
d="M856 712q73 -99 73 -225q0 -154 -108 -263q-107 -110 -260 -110q-151 0 -259 108q-110 111 -110 267t109 266q108 108 260 108q126 0 229 -81l309 309q-104 23 -216 82q-44 23 -44 48q0 24 27 24q11 0 41 -6q89 -17 170 -17q113 0 216 27q11 3 20 3q21 0 21 -21
q0 -8 -10 -46q-21 -80 -21 -180q0 -87 18 -172q6 -29 6 -40q0 -28 -25 -28q-16 0 -26 11q-42 48 -70 126q-31 83 -39 121zM565 767q-116 0 -196 -80q-81 -81 -81 -197q0 -115 81 -197q80 -80 192 -80q113 0 192 81q80 81 80 196q0 117 -80 196q-82 81 -188 81z" />
    <glyph glyph-name="spade" unicode="&#x2660;" horiz-adv-x="1365" 
d="M220 0v38q129 24 193 50q113 46 187 166q64 104 73 268q-18 -39 -28 -56q-34 -60 -97 -101q-80 -52 -172 -52q-97 0 -169 71q-77 76 -77 185q0 93 48 165q60 92 165 180q162 136 247 265q60 92 89 225q41 -120 64 -167q38 -78 102 -148q60 -65 142 -140
q114 -103 156 -154q92 -114 92 -230q0 -89 -54 -157q-75 -94 -196 -94q-172 0 -285 207q7 -105 29 -174q39 -127 148 -208q74 -55 229 -90q17 -3 56 -11v-38h-942z" />
    <glyph glyph-name="club" unicode="&#x2663;" horiz-adv-x="1365" 
d="M1149 0h-933v38q183 33 257 85q168 117 191 347q3 33 5 92q-44 -77 -69 -108q-51 -65 -123 -105q-87 -49 -176 -49q-130 0 -219 103q-76 87 -76 208q0 129 83 219q76 82 187 82q55 0 121 -31q3 -1 55 -27q-72 109 -72 204q0 122 89 208q89 85 214 85q123 0 210 -81
q93 -87 93 -212q0 -97 -73 -204q58 28 76 36q50 22 101 22q117 0 195 -93q74 -88 74 -207q0 -141 -98 -232q-86 -80 -202 -80q-104 0 -207 71q-68 48 -123 136q-9 15 -32 55q3 -134 28 -215q37 -121 145 -207q53 -43 124 -66q52 -16 155 -36v-38z" />
    <glyph glyph-name="heart" unicode="&#x2665;" horiz-adv-x="1365" 
d="M680 -22q-35 136 -97 245q-73 126 -165 251l-118 160q-91 124 -125 186q-60 110 -60 213q0 119 79 198q76 77 186 77q153 0 245 -139q28 -43 55 -126q31 105 80 162q90 105 221 105q123 0 204 -93q66 -76 66 -175q0 -135 -99 -296q-40 -65 -126 -174q-168 -215 -247 -353
q-67 -118 -99 -241z" />
    <glyph glyph-name="diamond" unicode="&#x2666;" horiz-adv-x="1365" 
d="M682 1419q86 -158 283 -429q152 -209 237 -305q-49 -55 -267 -346q-135 -182 -253 -392q-43 87 -199 312q-119 171 -295 395l-24 31q46 54 261 337q143 189 257 397z" />
    <glyph glyph-name="musicalnote" unicode="&#x266a;" horiz-adv-x="1365" 
d="M626 319v1046h93v-124q25 -33 137 -167q186 -222 186 -460q0 -191 -116 -332h-58q67 159 67 305q0 107 -43 198q-51 107 -129 144q-18 9 -44 13v-623q0 -125 -58 -207q-39 -54 -98 -89q-71 -41 -154 -41q-87 0 -121 53q-20 33 -20 71q0 74 53 141q43 56 113 80
q44 15 82 15q58 0 110 -23z" />
    <glyph glyph-name="uni266C" unicode="&#x266c;" horiz-adv-x="1365" 
d="M1261 393q-1 -97 -35 -166q-35 -70 -100 -115q-79 -55 -175 -55q-88 0 -121 53q-19 32 -19 71q0 74 52 141q43 55 113 80q43 15 80 15q60 0 111 -24v554l-675 -185v-483q0 -125 -58 -206q-38 -54 -98 -88q-72 -41 -155 -41q-87 0 -120 53q-20 31 -20 70q0 73 53 139
q43 55 113 79q43 15 82 15q56 0 110 -21v923l862 220v-1029zM492 918l675 185v142l-675 -185v-142z" />
    <glyph glyph-name="ff" unicode="&#xfb00;" horiz-adv-x="1098" 
d="M329 806v-806h-157v806h-129v138h129v127q0 136 62 209q73 87 200 87q14 0 42 -2v-139q-74 -10 -100 -28q-48 -34 -48 -127v-127h148v-138h-147zM896 806v-806h-157v806h-129v138h129v127q0 136 62 209q73 87 199 87q14 0 42 -2v-139q-74 -10 -99 -28q-48 -34 -48 -127
v-127h147v-138h-146z" />
    <glyph glyph-name="fi" unicode="&#xfb01;" horiz-adv-x="1042" 
d="M329 806v-806h-157v806h-129v138h129v127q0 136 62 209q73 87 200 87q14 0 42 -2v-139q-74 -10 -100 -28q-48 -34 -48 -127v-127h148v-138h-147zM885 944v-944h-156v944h156zM808 1310q45 0 73 -33q26 -29 26 -69q0 -43 -33 -74q-27 -24 -67 -24q-46 0 -74 32
q-26 30 -26 68q0 45 34 76q26 24 67 24z" />
    <glyph glyph-name="fl" unicode="&#xfb02;" horiz-adv-x="1042" 
d="M329 806v-806h-157v806h-129v138h129v127q0 136 62 209q73 87 200 87q14 0 42 -2v-139q-74 -10 -100 -28q-48 -34 -48 -127v-127h148v-138h-147zM885 0h-156v1365h156v-1365z" />
    <glyph glyph-name="ffi" unicode="&#xfb03;" horiz-adv-x="1607" 
d="M328 806v-806h-157v806h-129v138h129v127q0 136 62 209q73 87 200 87q14 0 42 -2v-139q-74 -10 -100 -28q-48 -34 -48 -127v-127h148v-138h-147zM895 806v-806h-157v806h-129v138h129v127q0 136 62 209q73 87 199 87q14 0 42 -2v-139q-74 -10 -99 -28q-48 -34 -48 -127
v-127h147v-138h-146zM1451 944v-944h-157v944h157zM1374 1310q45 0 73 -33q26 -28 26 -69q0 -43 -33 -74q-27 -24 -67 -24q-46 0 -74 32q-26 29 -26 68q0 45 34 76q26 24 67 24z" />
    <glyph glyph-name="ffl" unicode="&#xfb04;" horiz-adv-x="1608" 
d="M329 806v-806h-157v806h-129v138h129v127q0 136 62 209q73 87 200 87q14 0 42 -2v-139q-74 -10 -100 -28q-48 -34 -48 -127v-127h148v-138h-147zM896 806v-806h-157v806h-129v138h129v127q0 136 62 209q73 87 199 87q14 0 42 -2v-139q-74 -10 -99 -28q-48 -34 -48 -127
v-127h147v-138h-146zM1452 0h-157v1365h157v-1365z" />
    <glyph glyph-name="_" horiz-adv-x="0" 
 />
    <glyph glyph-name="_001" horiz-adv-x="614" 
 />
    <glyph glyph-name="_002" horiz-adv-x="614" 
 />
    <glyph glyph-name="_003" 
 />
    <glyph glyph-name="_004" horiz-adv-x="614" 
 />
    <glyph glyph-name="Comma.high" horiz-adv-x="316" 
d="M237 1342l-187 -417l-113 40l165 427z" />
    <glyph glyph-name="commaaccent.sc" 
d="M581 -86v-144q0 -116 -52 -173q-17 -18 -69 -41q-20 -9 -42 -13v66q90 22 92 133h-72v172h143z" />
    <glyph glyph-name="two.denominator" horiz-adv-x="470" 
d="M185 71h204v-71h-350l213 282q41 54 55 80q17 28 17 54q0 37 -31 58q-26 18 -63 18q-61 0 -81 -42q-9 -20 -10 -60h-79q7 172 175 172q84 0 132 -47q39 -38 39 -94q0 -65 -68 -153z" />
    <glyph glyph-name="one.denominator" horiz-adv-x="470" 
d="M237 445l-131 -80v75l213 128v-568h-82v445z" />
    <glyph glyph-name="zero.numerator" horiz-adv-x="470" 
d="M417 1194v-218q0 -180 -182 -180q-92 0 -141 49q-28 28 -35 62q-6 32 -6 87v181q0 98 37 139q48 53 144 53q84 0 134 -43q49 -41 49 -130zM135 1174v-184q0 -56 6 -71q23 -51 96 -51q99 0 99 113v209q0 105 -100 105q-57 0 -84 -37q-17 -25 -17 -84z" />
    <glyph glyph-name="nine.numerator" horiz-adv-x="470" 
d="M267 1022q-22 -7 -43 -7q-78 0 -131 50t-53 121q0 77 58 129t140 52q86 0 143 -56q50 -49 50 -122q0 -59 -42 -123l-172 -260h-97zM238 1295q-56 0 -90 -40q-26 -29 -26 -66q0 -50 40 -82q31 -24 73 -24q56 0 90 38q24 28 24 67q0 48 -35 78q-33 29 -76 29z" />
    <glyph glyph-name="eight.numerator" horiz-adv-x="470" 
d="M325 1109q101 -34 101 -142q0 -79 -59 -127q-54 -44 -133 -44q-95 0 -149 58q-41 44 -41 108q0 69 46 114q22 21 57 33q-80 31 -80 116q0 65 53 106q47 36 117 36q76 0 123 -43q44 -39 44 -98q0 -84 -79 -117zM236 1299q-46 0 -71 -27q-19 -19 -19 -47q0 -38 32 -61
q27 -18 58 -18q41 0 69 30q21 22 21 48q0 31 -30 56q-24 19 -60 19zM237 1069q-52 0 -85 -36q-26 -28 -26 -65q0 -44 34 -73q32 -28 75 -28q47 0 80 32q29 28 29 69q0 42 -32 72q-32 29 -75 29z" />
    <glyph glyph-name="Macron" 
d="M799 1663v-118h-575v118h575z" />
    <glyph glyph-name="Ogonek" 
d="M773 0h125q-71 -53 -98 -84q-44 -50 -44 -101q0 -23 14 -43q32 -45 103 -45q30 0 76 12l20 -103q-62 -22 -120 -22q-111 0 -172 60q-49 49 -49 109q0 125 145 217z" />
    <glyph glyph-name="seven.numerator" horiz-adv-x="470" 
d="M307 1285h-226v72h344l-241 -551h-88z" />
    <glyph glyph-name="Cedilla" 
d="M427 -427l-87 68q91 60 133 122q31 47 51 120l160 -54q-36 -79 -90 -134q-59 -61 -167 -122z" />
    <glyph glyph-name="Hungarumlaut" 
d="M423 1739h175l-208 -267h-112zM744 1739h175l-208 -267h-112z" />
    <glyph glyph-name="six.numerator" horiz-adv-x="470" 
d="M354 1357l-150 -215q21 5 43 5q78 0 128 -46q55 -50 55 -123q0 -77 -59 -130q-58 -52 -139 -52q-90 0 -147 63q-46 50 -46 119q0 55 47 124l171 255h97zM236 1081q-53 0 -88 -37q-27 -27 -27 -67q0 -49 39 -83q30 -26 75 -26q56 0 89 40q25 31 25 67q0 44 -32 75
q-34 31 -81 31z" />
    <glyph glyph-name="Tilde" 
d="M741 1708l112 -42q-41 -76 -72 -108q-61 -63 -130 -63q-47 0 -144 50q-69 35 -100 35q-62 0 -96 -88l-112 33q39 84 69 118q56 65 125 65q47 0 157 -55q71 -36 93 -36q60 0 98 91z" />
    <glyph glyph-name="five.numerator" horiz-adv-x="470" 
d="M157 1285v-132q38 13 80 13q75 0 127 -44q62 -53 62 -137q0 -90 -67 -144q-56 -45 -138 -45q-135 0 -186 121l76 26q16 -32 29 -44q30 -30 81 -30q54 0 90 37q32 32 32 79q0 48 -33 79q-35 33 -94 33q-47 0 -85 -24q-15 -10 -52 -38v322h269v-72h-191z" />
    <glyph glyph-name="four.numerator" horiz-adv-x="470" 
d="M279 929h-238v58l318 394v-381h69v-71h-69v-123h-80v123zM281 998v193l-153 -193h153z" />
    <glyph glyph-name="Breve" 
d="M195 1715h132q23 -43 47 -64q50 -44 138 -44t138 44q24 21 47 64h132q-18 -69 -60 -116q-93 -104 -257 -104q-163 0 -257 104q-42 47 -60 116z" />
    <glyph glyph-name="three.numerator" horiz-adv-x="470" 
d="M273 1287h-201v70h354l-175 -205q58 -2 103 -35q69 -49 69 -135q0 -91 -72 -146q-54 -40 -131 -40q-153 0 -189 142l75 13q25 -84 110 -84q56 0 93 35q32 31 32 74q0 47 -35 78q-34 29 -92 29q-36 0 -73 -20l-35 30z" />
    <glyph glyph-name="two.numerator" horiz-adv-x="470" 
d="M185 877h204v-71h-350l213 282q41 53 55 79q17 28 17 54q0 37 -31 58q-26 18 -63 18q-61 0 -81 -42q-9 -20 -10 -60h-79q7 172 175 172q84 0 132 -47q39 -38 39 -94q0 -65 -68 -153z" />
    <glyph glyph-name="one.numerator" horiz-adv-x="470" 
d="M237 1250l-131 -80v75l213 129v-568h-82v444z" />
    <glyph glyph-name="Caron" 
d="M511 1574l154 170h136l-223 -272h-142l-213 272h134z" />
    <glyph glyph-name="Circumflex" 
d="M513 1642l-154 -170h-136l223 272h142l213 -272h-134z" />
    <glyph glyph-name="Grave" 
d="M420 1740l181 -268h-122l-247 268h188z" />
    <glyph glyph-name="Acute" 
d="M605 1740h187l-247 -268h-122z" />
    <glyph glyph-name="Dbreve" horiz-adv-x="1282" 
d="M170 0v1365h363q287 0 459 -155q199 -179 199 -507q0 -250 -110 -422q-179 -281 -580 -281h-331zM342 1219v-1071h61q232 0 328 41q148 63 221 208q63 126 63 304q0 267 -152 406q-123 112 -336 112h-185zM324 1715h132q23 -43 46 -64q51 -44 139 -44t138 44q24 21 46 64
h133q-19 -69 -60 -116q-94 -104 -258 -104q-163 0 -257 104q-42 47 -59 116z" />
    <glyph glyph-name="Ring" 
d="M513 1778q71 0 119 -51q44 -46 44 -115q0 -73 -56 -121q-47 -39 -108 -39q-72 0 -120 51q-44 46 -44 112q0 76 56 124q47 39 109 39zM513 1713q-50 0 -77 -35q-22 -28 -22 -63q0 -41 29 -71q26 -27 69 -27q49 0 76 35q22 28 22 62q0 41 -29 71q-25 28 -68 28z" />
    <glyph glyph-name="Dotaccent" 
d="M512 1715q44 0 74 -32q29 -30 29 -74q0 -47 -37 -78q-28 -24 -67 -24q-46 0 -76 32q-28 30 -28 72q0 48 37 80q28 24 68 24z" />
    <glyph glyph-name="Dieresis" 
d="M303 1715q44 0 74 -32q29 -30 29 -74q0 -47 -37 -78q-28 -24 -67 -24q-46 0 -76 32q-28 30 -28 72q0 48 37 80q28 24 68 24zM721 1715q44 0 75 -32q28 -30 28 -74q0 -47 -37 -78q-28 -24 -67 -24q-45 0 -75 32q-29 30 -29 72q0 48 37 80q28 24 68 24z" />
    <glyph glyph-name="ahungarumlaut" horiz-adv-x="1181" 
d="M867 788v156h157v-944h-157v181q-136 -203 -344 -203q-199 0 -329 148q-115 132 -115 342q0 147 63 269q57 110 170 173q99 56 216 56q122 0 221 -62q60 -38 118 -116zM552 827q-149 0 -231 -112q-77 -106 -77 -249q0 -167 101 -267q85 -85 202 -85q147 0 242 123
q81 104 81 245q0 154 -86 246q-92 99 -232 99zM508 1349h171l-202 -268h-102zM809 1349h171l-202 -268h-102z" />
    <glyph glyph-name="eight.denominator" horiz-adv-x="470" 
d="M325 304q101 -34 101 -142q0 -80 -59 -128q-54 -44 -133 -44q-95 0 -149 58q-41 44 -41 108q0 70 46 115q22 21 57 33q-80 31 -80 116q0 65 53 106q47 36 117 36q76 0 123 -43q44 -39 44 -98q0 -85 -79 -117zM236 494q-46 0 -71 -27q-19 -19 -19 -47q0 -38 32 -61
q27 -18 58 -18q41 0 69 30q21 22 21 48q0 31 -30 56q-24 19 -60 19zM237 264q-52 0 -85 -36q-26 -29 -26 -65q0 -44 34 -74q31 -28 75 -28q48 0 80 32q29 29 29 70q0 42 -32 72q-32 29 -75 29z" />
    <glyph glyph-name="nine.denominator" horiz-adv-x="470" 
d="M267 216q-22 -7 -43 -7q-78 0 -131 50t-53 122q0 76 58 128q58 53 140 53q86 0 143 -56q50 -49 50 -123q0 -58 -42 -122l-172 -261h-97zM238 490q-56 0 -90 -40q-26 -29 -26 -67q0 -50 40 -82q31 -24 73 -24q56 0 90 39q24 27 24 67q0 47 -35 78q-32 29 -76 29z" />
    <glyph glyph-name="zero.denominator" horiz-adv-x="470" 
d="M417 389v-218q0 -180 -182 -180q-92 0 -141 49q-28 28 -35 62q-6 32 -6 87v181q0 98 37 139q48 53 144 53q84 0 134 -43q49 -41 49 -130zM135 368v-183q0 -56 6 -71q23 -51 96 -51q99 0 99 112v210q0 105 -100 105q-57 0 -84 -37q-17 -25 -17 -85z" />
    <glyph glyph-name="zerozero.afrac" horiz-adv-x="570" 
d="M570 719v-79h-570v79h570zM467 1194v-218q0 -180 -182 -180q-92 0 -141 49q-28 27 -35 62q-6 33 -6 87v181q0 98 37 139q48 53 144 53q84 0 134 -43q49 -41 49 -130zM185 1174v-184q0 -56 6 -71q23 -51 95 -51q100 0 100 113v209q0 105 -100 105q-57 0 -84 -37
q-17 -25 -17 -84zM467 389v-218q0 -180 -182 -180q-92 0 -141 49q-28 27 -35 62q-6 32 -6 87v181q0 98 37 139q48 53 144 53q84 0 134 -43q49 -41 49 -130zM185 368v-183q0 -56 6 -71q23 -51 95 -51q100 0 100 112v210q0 105 -100 105q-57 0 -84 -37q-17 -25 -17 -85z" />
    <glyph glyph-name="periodsuperior" horiz-adv-x="304" 
d="M153 681q32 0 52 -24q19 -20 19 -49q0 -32 -24 -53q-20 -18 -48 -18q-33 0 -54 23q-18 21 -18 49q0 32 24 54q19 18 49 18z" />
    <glyph glyph-name="commasuperior" horiz-adv-x="304" 
d="M247 653l-133 -309l-80 26l111 316z" />
    <glyph glyph-name="commareversed" horiz-adv-x="316" 
d="M26 976l187 416l113 -40l-165 -427z" />
    <glyph glyph-name="dieresis.alt" 
d="M370 1312q43 0 72 -31q24 -26 24 -67q0 -44 -32 -71q-27 -24 -64 -24q-45 0 -73 31q-24 26 -24 66q0 45 32 72q27 24 65 24zM654 1312q43 0 72 -31q24 -26 24 -67q0 -44 -32 -71q-27 -24 -64 -24q-45 0 -73 31q-24 27 -24 66q0 44 32 72q26 24 65 24z" />
    <glyph glyph-name="comma.high" horiz-adv-x="316" 
d="M237 1342l-187 -417l-113 40l165 427z" />
    <glyph glyph-name="seven.denominator" horiz-adv-x="470" 
d="M307 480h-226v72h344l-241 -552h-88z" />
    <glyph glyph-name="commaaccent" 
d="M579 -114v-115q0 -117 -57 -167q-36 -30 -109 -58v69q10 7 54 31q33 17 39 96h-68v144h141z" />
    <glyph glyph-name="six.denominator" horiz-adv-x="470" 
d="M354 552l-150 -216q21 6 43 6q78 0 128 -46q55 -50 55 -123q0 -77 -59 -131q-58 -52 -139 -52q-90 0 -147 63q-46 50 -46 119q0 56 47 125l171 255h97zM236 276q-54 0 -88 -37q-27 -28 -27 -67q0 -50 39 -84q30 -26 75 -26q56 0 89 40q25 31 25 68q0 44 -32 74
q-34 32 -81 32z" />
    <glyph glyph-name="five.denominator" horiz-adv-x="470" 
d="M157 480v-132q38 13 80 13q75 0 127 -44q62 -53 62 -137q0 -90 -67 -144q-56 -45 -138 -45q-135 0 -186 121l76 26q16 -32 29 -44q30 -30 81 -30q54 0 90 37q32 32 32 79q0 48 -33 79q-35 33 -94 33q-47 0 -85 -24q-17 -11 -52 -38v322h269v-72h-191z" />
    <glyph glyph-name="oneone" horiz-adv-x="1597" 
d="M338 1189l-187 -118v110l304 188v-831h-117v651zM1300 1326l-936 -1353l-68 47l937 1352zM1263 651l-187 -117v109l304 189v-832h-117v651z" />
    <glyph glyph-name="four.denominator" horiz-adv-x="470" 
d="M279 124h-238v58l318 393v-381h69v-70h-69v-124h-80v124zM281 193v193l-153 -193h153z" />
    <glyph glyph-name="three.denominator" horiz-adv-x="470" 
d="M273 482h-201v70h354l-175 -206q58 -1 103 -34q69 -49 69 -136q0 -90 -72 -145q-54 -40 -131 -40q-153 0 -189 141l75 13q25 -83 110 -83q56 0 93 35q32 31 32 74q0 47 -35 78q-34 29 -92 29q-36 0 -73 -20l-35 30z" />
    <glyph glyph-name="Dieresis.alt" 
d="M361 1715q44 0 74 -32q29 -30 29 -74q0 -47 -37 -78q-28 -24 -67 -24q-46 0 -76 32q-28 30 -28 72q0 48 37 80q28 24 68 24zM664 1715q44 0 74 -32q29 -30 29 -74q0 -46 -37 -78q-28 -24 -67 -24q-45 0 -75 32q-29 30 -29 72q0 48 37 80q28 24 68 24z" />
  </font>
</defs>
</svg>
