<?xml version="1.0" standalone="no"?>
<!DOCTYPE svg PUBLIC "-//W3C//DTD SVG 1.1//EN" "http://www.w3.org/Graphics/SVG/1.1/DTD/svg11.dtd" >
<svg xmlns="http://www.w3.org/2000/svg" xmlns:xlink="http://www.w3.org/1999/xlink" version="1.1">
<metadata>
Created by FontForge 20170731 at Tue Mar  6 22:53:02 2018
 By Aleksey,,,
Copyright (c) 2018 by TypeType. Designers Ivan Gladkikh, Pavel Emelyanov. Technical designers Marina Khodak, Vika Usmanova, Nadyr Rakhimov. All rights reserved.
</metadata>
<defs>
<font id="TTCommons-Regular" horiz-adv-x="1003" >
  <font-face 
    font-family="TT Commons"
    font-weight="400"
    font-stretch="normal"
    units-per-em="2048"
    panose-1="2 0 5 6 3 0 0 2 0 4"
    ascent="1434"
    descent="-614"
    x-height="922"
    cap-height="1290"
    bbox="-348 -522 2945 1741"
    underline-thickness="0"
    underline-position="0"
    unicode-range="U+000D-FB06"
  />
<missing-glyph horiz-adv-x="0" 
 />
    <glyph glyph-name="uniFB00" unicode="ff" horiz-adv-x="1085" 
d="M1044 778h-204v-778h-154v778h-369v-778h-153v778h-113v144h113v30q0 70 21.5 126.5t58.5 96t85 62.5t101 23q23 0 40 -3.5t30 -7.5q12 -6 22 -10v-133q-6 2 -14 4q-6 2 -16.5 4t-20.5 2q-70 0 -112 -43t-42 -121v-30h369v71q0 70 21.5 126.5t58.5 96t85 62t101 22.5
q23 0 40.5 -3t29.5 -7q12 -6 22 -10v-133q-6 2 -14 4q-6 2 -16 4t-21 2q-70 0 -111.5 -43t-41.5 -121v-71h204v-144z" />
    <glyph glyph-name="uniFB01" unicode="fi" horiz-adv-x="972" 
d="M840 0h-154v778h-369v-778h-153v778h-113v144h113v71q0 70 21.5 126.5t58.5 96t85 62t101 22.5q23 0 40 -3t30 -7q12 -6 22 -10v-133q-6 2 -14 4q-6 2 -16.5 4t-20.5 2q-70 0 -112 -43t-42 -121v-71h523v-922zM666 1182q0 43 27.5 70.5t68.5 27.5q43 0 70.5 -27.5
t27.5 -70.5q0 -41 -27.5 -69t-70.5 -28q-41 0 -68.5 28t-27.5 69z" />
    <glyph glyph-name="uniFB02" unicode="fl" horiz-adv-x="993" 
d="M850 0h-154v1126q-18 12 -43 21q-23 8 -52.5 14t-68.5 6q-100 0 -157.5 -56t-57.5 -148v-41h205v-144h-205v-778h-153v778h-113v144h113v41q0 74 27.5 137t76.5 110t117 74t147 27q39 0 69 -5.5t52 -11.5q25 -8 43 -14h154v-1280z" />
    <glyph glyph-name="uniFB03" unicode="ffi" horiz-adv-x="1495" 
d="M1362 0h-154v778h-368v-778h-154v778h-369v-778h-153v778h-113v144h113v30q0 70 21.5 126.5t58.5 96t85 62.5t101 23q23 0 40 -3.5t30 -7.5q12 -6 22 -10v-133q-6 2 -14 4q-6 2 -16.5 4t-20.5 2q-70 0 -112 -43t-42 -121v-30h369v71q0 70 21.5 126.5t58.5 96t85 62
t101 22.5q23 0 40.5 -3t29.5 -7q12 -6 22 -10v-133q-6 2 -14 4q-6 2 -16 4t-21 2q-70 0 -111.5 -43t-41.5 -121v-71h522v-922zM1188 1182q0 43 27.5 70.5t68.5 27.5q43 0 70.5 -27.5t27.5 -70.5q0 -41 -27.5 -69t-70.5 -28q-41 0 -68.5 28t-27.5 69z" />
    <glyph glyph-name="uniFB04" unicode="ffl" horiz-adv-x="1515" 
d="M1372 0h-153v1126q-18 12 -43 21q-23 8 -52.5 14t-68.5 6q-100 0 -157.5 -56t-57.5 -148v-41h204v-144h-204v-778h-154v778h-369v-778h-153v778h-113v144h113v30q0 70 21.5 126.5t58.5 96t85 62.5t101 23q23 0 40 -3.5t30 -7.5q12 -6 22 -10v-133q-6 2 -14 4
q-6 2 -16.5 4t-20.5 2q-70 0 -112 -43t-42 -121v-30h369v41q0 74 27.5 137t77 110t117 74t147.5 27q39 0 68.5 -5.5t52.5 -11.5q25 -8 43 -14h153v-1280z" />
    <glyph glyph-name="f_f_j.liga" unicode="ffj" horiz-adv-x="1495" 
d="M1208 778h-368v-778h-154v778h-369v-778h-153v778h-113v144h113v30q0 70 21.5 126.5t58.5 96t85 62.5t101 23q23 0 40 -3.5t30 -7.5q12 -6 22 -10v-133q-6 2 -14 4q-6 2 -16.5 4t-20.5 2q-70 0 -112 -43t-42 -121v-30h369v71q0 70 21.5 126.5t58.5 96t85 62t101 22.5
q23 0 40.5 -3t29.5 -7q12 -6 22 -10v-133q-6 2 -14 4q-6 2 -16 4t-21 2q-70 0 -111.5 -43t-41.5 -121v-71h522v-953q0 -70 -21.5 -126t-58.5 -96t-85 -62.5t-101 -22.5q-45 0 -70 10q-14 4 -22 11v133q6 -4 14 -6q16 -4 37 -5q70 0 111.5 43t41.5 121v809zM1188 1182
q0 43 27.5 70.5t68.5 27.5q43 0 70.5 -27.5t27.5 -70.5q0 -41 -27.5 -69t-70.5 -28q-41 0 -68.5 28t-27.5 69z" />
    <glyph glyph-name="f_j.liga" unicode="fj" horiz-adv-x="972" 
d="M686 778h-369v-778h-153v778h-113v144h113v30q0 70 21.5 126.5t58.5 96t85 62.5t101 23q23 0 40 -3.5t30 -7.5q12 -6 22 -10v-133q-6 2 -14 4q-6 2 -16.5 4t-20.5 2q-70 0 -112 -43t-42 -121v-30h523v-953q0 -70 -21.5 -126t-58.5 -96t-85 -62.5t-102 -22.5q-45 0 -69 10
q-14 4 -23 11v133q6 -4 15 -6q16 -4 36 -5q70 0 112 43t42 121v809zM666 1182q0 43 27.5 70.5t68.5 27.5q43 0 70.5 -27.5t27.5 -70.5q0 -41 -27.5 -69t-70.5 -28q-41 0 -68.5 28t-27.5 69z" />
    <glyph glyph-name="f_t.liga" unicode="ft" horiz-adv-x="1157" 
d="M727 1167h133v-245h205v-144h-205v-481q0 -78 42 -121t112 -43q20 0 37 4q8 2 14 6v-133q-10 -6 -23 -10q-27 -10 -69 -10q-53 0 -101.5 22.5t-85 62.5t-58 96t-21.5 126v481h-390v-778h-153v778h-113v144h113v71q0 70 21.5 126.5t58.5 96t85 62t101 22.5q23 0 40 -3
t30 -7q12 -6 22 -10v-133q-6 2 -14 4q-6 2 -16.5 4t-20.5 2q-70 0 -112 -43t-42 -121v-71h297q113 0 113 112v133z" />
    <glyph glyph-name="f_h.liga" unicode="fh" horiz-adv-x="1597" 
d="M1116 932q74 0 138.5 -30t113.5 -82t78 -125.5t29 -162.5v-532h-154v532q0 57 -18.5 104.5t-49 81.5t-71.5 52t-86 18q-109 0 -177.5 -69.5t-68.5 -186.5v-532h-154v1126q-18 12 -43 21q-23 8 -52.5 14t-68.5 6q-100 0 -157.5 -56t-57.5 -148v-41h205v-144h-205v-778
h-153v778h-113v144h113v41q0 74 27.5 137t76.5 110t117 74t147 27q39 0 69 -5.5t52 -11.5q25 -8 43 -14h154v-471q31 35 72 61q35 23 84 42.5t110 19.5z" />
    <glyph glyph-name="f_k.liga" unicode="fk" horiz-adv-x="1413" 
d="M850 0h-154v1126q-18 12 -43 21q-23 8 -52.5 14t-68.5 6q-100 0 -157.5 -56t-57.5 -148v-41h205v-144h-205v-778h-153v778h-113v144h113v41q0 74 27.5 137t76.5 110t117 74t147 27q39 0 69 -5.5t52 -11.5q25 -8 43 -14h154v-1280zM1239 0l-389 481l348 441h174l-348 -430
l399 -492h-184z" />
    <glyph glyph-name="f_b.liga" unicode="fb" horiz-adv-x="1628" 
d="M809 0h-113v1126q-18 12 -43 21q-23 8 -52.5 14t-68.5 6q-100 0 -157.5 -56t-57.5 -148v-41h205v-144h-205v-778h-153v778h-113v144h113v41q0 74 27.5 137t76.5 110t117 74t147 27q39 0 69 -5.5t52 -11.5q25 -8 43 -14h154v-471q29 35 70 61q35 23 86 42.5t120 19.5
q88 0 167 -35t137.5 -97.5t92 -148.5t33.5 -190t-33.5 -190.5t-92 -149t-137.5 -97t-167 -34.5q-70 0 -121 16.5t-85 38.5q-41 25 -70 57zM829 461q0 -74 24 -134.5t62.5 -103.5t91 -66.5t109.5 -23.5t109.5 23.5t91.5 66.5t62.5 103.5t23.5 134.5t-23.5 134t-62.5 103
t-91 66.5t-110 23.5q-57 0 -109.5 -23.5t-91 -66.5t-62.5 -103t-24 -134z" />
    <glyph glyph-name="f_f_h.liga" unicode="ffh" horiz-adv-x="2119" 
d="M1638 932q74 0 138.5 -30t113.5 -82t78 -125.5t29 -162.5v-532h-154v532q0 57 -18.5 104.5t-49 81.5t-71.5 52t-86 18q-109 0 -177.5 -69.5t-68.5 -186.5v-532h-153v1126q-18 12 -43 21q-23 8 -52.5 14t-68.5 6q-100 0 -157.5 -56t-57.5 -148v-41h204v-144h-204v-778
h-154v778h-369v-778h-153v778h-113v144h113v30q0 70 21.5 126.5t58.5 96t85 62.5t101 23q23 0 40 -3.5t30 -7.5q12 -6 22 -10v-133q-6 2 -14 4q-6 2 -16.5 4t-20.5 2q-70 0 -112 -43t-42 -121v-30h369v41q0 74 27.5 137t77 110t117 74t147.5 27q39 0 68.5 -5.5t52.5 -11.5
q25 -8 43 -14h153v-471q29 35 68 61q35 23 83.5 42.5t114.5 19.5z" />
    <glyph glyph-name="f_f_k.liga" unicode="ffk" horiz-adv-x="1935" 
d="M1372 0h-153v1126q-18 12 -43 21q-23 8 -52.5 14t-68.5 6q-100 0 -157.5 -56t-57.5 -148v-41h204v-144h-204v-778h-154v778h-369v-778h-153v778h-113v144h113v30q0 70 21.5 126.5t58.5 96t85 62.5t101 23q23 0 40 -3.5t30 -7.5q12 -6 22 -10v-133q-6 2 -14 4
q-6 2 -16.5 4t-20.5 2q-70 0 -112 -43t-42 -121v-30h369v41q0 74 27.5 137t77 110t117 74t147.5 27q39 0 68.5 -5.5t52.5 -11.5q25 -8 43 -14h153v-1280zM1761 0l-389 481l348 441h174l-348 -430l400 -492h-185z" />
    <glyph glyph-name="f_f_b.liga" unicode="ffb" horiz-adv-x="2150" 
d="M1372 809q29 35 70 61q35 23 86 42.5t121 19.5q88 0 166.5 -35t137 -97.5t92.5 -148.5t34 -190t-34 -190.5t-92.5 -149t-137 -97t-166.5 -34.5q-70 0 -121 16.5t-86 38.5q-41 25 -70 57l-41 -102h-112v1126q-18 12 -43 21q-23 8 -52.5 14t-68.5 6q-100 0 -157.5 -56
t-57.5 -148v-41h204v-144h-204v-778h-154v778h-369v-778h-153v778h-113v144h113v30q0 70 21.5 126.5t58.5 96t85 62.5t101 23q23 0 40 -3.5t30 -7.5q12 -6 22 -10v-133q-6 2 -14 4q-6 2 -16.5 4t-20.5 2q-70 0 -112 -43t-42 -121v-30h369v41q0 74 27.5 137t77 110t117 74
t147.5 27q39 0 68.5 -5.5t52.5 -11.5q25 -8 43 -14h153v-471zM1352 461q0 -74 23.5 -134.5t62.5 -103.5t91 -66.5t109 -23.5t109.5 23.5t91.5 66.5t62.5 103.5t23.5 134.5t-23.5 134t-62.5 103t-91 66.5t-110 23.5q-57 0 -109 -23.5t-91 -66.5t-62.5 -103t-23.5 -134z" />
    <glyph glyph-name=".notdef" horiz-adv-x="0" 
 />
    <glyph glyph-name="glyph1" horiz-adv-x="0" 
 />
    <glyph glyph-name="glyph1" horiz-adv-x="0" 
 />
    <glyph glyph-name="uni000D" unicode="&#xd;" horiz-adv-x="0" 
 />
    <glyph glyph-name="space" unicode=" " horiz-adv-x="440" 
 />
    <glyph glyph-name="exclam" unicode="!" horiz-adv-x="532" 
d="M328 307h-123l-41 983h205zM164 92q0 47 27.5 75t74.5 28t75 -28t28 -75t-28 -74.5t-75 -27.5t-74.5 27.5t-27.5 74.5z" />
    <glyph glyph-name="quotedbl" unicode="&#x22;" horiz-adv-x="624" 
d="M102 1290h144v-379h-144v379zM379 1290h143v-379h-143v379z" />
    <glyph glyph-name="numbersign" unicode="#" horiz-adv-x="1228" 
d="M72 492h235l62 307h-246l31 123h235l72 368h123l-72 -368h307l72 368h123l-72 -368h246l-31 -123h-235l-62 -307h246l-31 -123h-235l-72 -369h-123l72 369h-307l-72 -369h-123l72 369h-246zM430 492h307l62 307h-307z" />
    <glyph glyph-name="dollar" unicode="$" horiz-adv-x="1013" 
d="M440 -6q-84 10 -150.5 43t-112.5 83t-70.5 115.5t-24.5 143.5h164q0 -117 67.5 -181.5t198.5 -64.5t198.5 59.5t67.5 145.5q0 80 -51 124t-127 73.5t-165 55t-164.5 67.5t-127 111t-51.5 183q0 57 24.5 114.5t70.5 105t110.5 80t142.5 42.5v181h144v-181q70 -12 130 -47
t104 -85t68.5 -114.5t24.5 -136.5h-163q0 109 -68 177.5t-168 68.5q-57 0 -104.5 -17.5t-81 -46t-52 -65.5t-18.5 -76q0 -80 51 -124t127 -73.5t165 -55t165 -67.5t127 -110.5t51 -183.5q0 -63 -24.5 -120.5t-70.5 -103.5t-112.5 -78t-150.5 -42v-178h-144v178z" />
    <glyph glyph-name="percent" unicode="%" horiz-adv-x="1228" 
d="M164 0l788 1290h113l-789 -1290h-112zM164 1034q0 -70 46 -117t107 -47t107.5 47.5t46.5 116.5q0 70 -46 117t-108 47q-61 0 -107 -47t-46 -117zM573 1034q0 -53 -19 -100t-54 -82t-82 -54.5t-101 -19.5q-53 0 -100 19.5t-82 54.5t-54.5 82t-19.5 100t19.5 100.5t54.5 82
t82 54t100 19.5t100.5 -19.5t82.5 -54t54 -82t19 -100.5zM758 256q0 -70 46 -117t107 -47t107.5 47t46.5 117t-46 117t-108 47q-61 0 -107 -47t-46 -117zM1167 256q0 -53 -19.5 -100t-54 -82t-81.5 -54.5t-101 -19.5q-53 0 -100 19.5t-82 54.5t-54.5 82t-19.5 100t19.5 100
t54.5 82t82 54.5t100 19.5t100.5 -19.5t82 -54.5t54 -82t19.5 -100z" />
    <glyph glyph-name="ampersand" unicode="&#x26;" horiz-adv-x="1085" 
d="M952 0l-174 174q-37 -53 -90 -92q-45 -35 -108.5 -63.5t-149.5 -28.5q-78 0 -139.5 23.5t-106.5 64.5t-68.5 97t-23.5 122q0 80 35 146.5t78 113.5q49 55 112 98l-92 103q-29 27 -51 63q-20 31 -35.5 75t-15.5 97q0 57 24.5 110.5t67.5 95.5t98.5 66.5t116.5 24.5
t115.5 -23.5t94.5 -63.5t63.5 -94t23.5 -116q0 -53 -21.5 -100t-46.5 -82q-29 -41 -65 -74l-90 -82l264 -266l123 205h174l-195 -307l277 -287h-195zM420 748l82 71q23 23 41 49q16 23 28.5 54.5t12.5 70.5q0 61 -42 107.5t-112 46.5t-117 -46t-47 -108q0 -35 12.5 -65.5
t28.5 -55.5q18 -29 41 -53zM430 123q55 0 104.5 21.5t83.5 50.5q41 31 78 71l-276 287q-51 -31 -88 -70q-33 -35 -59.5 -82t-26.5 -104q0 -70 49 -122t135 -52z" />
    <glyph glyph-name="quotesingle" unicode="'" horiz-adv-x="348" 
d="M102 1290h144v-379h-144v379z" />
    <glyph glyph-name="parenleft" unicode="(" horiz-adv-x="542" 
d="M256 461q0 -160 38 -300.5t85 -250.5q53 -127 123 -238l-103 -71q-80 109 -143 241q-53 115 -98 271.5t-45 347.5q0 188 45 346t98 272q63 133 143 242l103 -72q-70 -111 -123 -237q-47 -111 -85 -252t-38 -299z" />
    <glyph glyph-name="parenright" unicode=")" horiz-adv-x="542" 
d="M287 461q0 158 -38 299t-85 252q-53 127 -123 237l102 72q80 -109 144 -242q53 -115 98 -272.5t45 -345.5q0 -190 -45 -347t-98 -272q-63 -133 -144 -241l-102 71q70 111 123 238q47 111 85 251t38 300z" />
    <glyph glyph-name="asterisk" unicode="*" horiz-adv-x="675" 
d="M236 727l-113 72l143 174l-215 51l41 113l195 -72l-11 225h123l-10 -225l195 72l41 -113l-215 -51l143 -174l-113 -72l-102 186z" />
    <glyph glyph-name="plus" unicode="+" horiz-adv-x="901" 
d="M379 123v338h-318v133h318v338h143v-338h318v-133h-318v-338h-143z" />
    <glyph glyph-name="comma" unicode="," horiz-adv-x="348" 
d="M174 -10q-47 0 -74.5 27.5t-27.5 74.5t27.5 75t74.5 28t74.5 -28t27.5 -75q0 -74 -25.5 -128t-55.5 -89q-37 -41 -82 -70l-21 31q20 20 37 43q14 20 27.5 48t17.5 63z" />
    <glyph glyph-name="hyphen" unicode="-" horiz-adv-x="706" 
d="M635 461h-563v133h563v-133z" />
    <glyph glyph-name="period" unicode="." horiz-adv-x="348" 
d="M72 92q0 47 27.5 75t74.5 28t74.5 -28t27.5 -75t-27.5 -74.5t-74.5 -27.5t-74.5 27.5t-27.5 74.5z" />
    <glyph glyph-name="slash" unicode="/" horiz-adv-x="675" 
d="M143 -369h-143l532 1659h144z" />
    <glyph glyph-name="zero" unicode="0" horiz-adv-x="1146" 
d="M236 645q0 -131 28.5 -227t75.5 -159.5t107.5 -94.5t125.5 -31q66 0 126.5 31t107.5 94.5t75.5 159.5t28.5 227t-28.5 227.5t-75.5 160t-107.5 94t-126.5 30.5t-126 -30.5t-107 -94t-75.5 -160t-28.5 -227.5zM1075 645q0 -158 -41 -279.5t-110.5 -205.5t-159.5 -127
t-191 -43q-100 0 -191 43t-159.5 127t-109.5 205.5t-41 279.5t41 280t109.5 205.5t159.5 126.5t191 43t190.5 -43t160 -126.5t110.5 -205.5t41 -280z" />
    <glyph glyph-name="one" unicode="1" horiz-adv-x="634" 
d="M471 1290v-1290h-164v1065l-184 -123l-72 123l318 225h102z" />
    <glyph glyph-name="two" unicode="2" horiz-adv-x="983" 
d="M891 143v-143h-799v123l512 563q35 37 62 78q23 35 42 81t19 97q0 92 -63.5 153.5t-171.5 61.5q-109 0 -177.5 -68.5t-68.5 -177.5h-164q0 80 30.5 152t86 124t130 82.5t163.5 30.5q88 0 161.5 -28.5t125.5 -77.5t82 -113.5t30 -138.5q0 -70 -27.5 -133.5t-60.5 -110.5
q-37 -55 -86 -104l-410 -451h584z" />
    <glyph glyph-name="three" unicode="3" horiz-adv-x="993" 
d="M72 963q8 70 39.5 131t83 107t122 72.5t154.5 26.5q88 0 162 -28.5t126 -77.5t81.5 -113.5t29.5 -138.5q0 -70 -28.5 -120t-63.5 -83q-41 -37 -92 -63q61 -27 113 -70q41 -37 76.5 -98.5t35.5 -149.5q0 -74 -30.5 -140t-88 -116.5t-136 -81t-175.5 -30.5
q-88 0 -160.5 26.5t-126 72.5t-87 107.5t-46.5 131.5h164q16 -78 82 -136.5t174 -58.5q123 0 195 66.5t72 158.5q0 94 -72 160t-195 66h-71v143h61q109 0 172.5 61.5t63.5 153.5t-63.5 153.5t-172.5 61.5q-49 0 -91 -16.5t-73 -43t-49 -61.5t-22 -73h-164z" />
    <glyph glyph-name="four" unicode="4" horiz-adv-x="983" 
d="M932 276h-144v-276h-163v276h-574v134l543 880h194v-870h144v-144zM625 420v635l-389 -635h389z" />
    <glyph glyph-name="five" unicode="5" horiz-adv-x="1024" 
d="M532 850q84 0 159 -33t130.5 -90t88 -136t32.5 -171t-32.5 -171t-90 -136.5t-136.5 -90t-171 -32.5q-88 0 -160.5 26.5t-126 72.5t-87.5 107.5t-46 131.5h164q16 -78 81.5 -136.5t174.5 -58.5q57 0 105.5 20.5t84 57.5t56 90t20.5 119q0 131 -74.5 209t-191.5 78
q-70 0 -117 -25t-76 -53q-35 -35 -53 -76h-143l82 737h655v-153h-512l-41 -369q25 23 60 41q29 16 70.5 28.5t94.5 12.5z" />
    <glyph glyph-name="six" unicode="6" horiz-adv-x="1013" 
d="M512 -10q-92 0 -172 33.5t-140.5 94t-94 140.5t-33.5 172q0 61 16 116.5t39 98.5q25 49 57 92l369 553h174l-287 -430q10 2 21 4q10 2 22.5 4t28.5 2q92 0 172 -33.5t140.5 -94t94 -140.5t33.5 -172t-33.5 -172t-94 -140.5t-140.5 -94t-172 -33.5zM236 430
q0 -66 21.5 -120t59 -93t88 -61.5t107.5 -22.5t107.5 21.5t88 61.5t59 94.5t21.5 119.5q0 61 -21.5 113.5t-59 91.5t-88 60.5t-107.5 21.5t-107.5 -21.5t-88 -60.5t-59 -91.5t-21.5 -113.5z" />
    <glyph glyph-name="seven" unicode="7" horiz-adv-x="901" 
d="M850 1290v-112l-543 -1178h-174l533 1147h-594v143h778z" />
    <glyph glyph-name="eight" unicode="8" 
d="M502 -10q-96 0 -175 30.5t-136.5 82t-88 120t-30.5 146.5q0 92 34.5 154.5t77.5 101.5q49 45 113 71q-51 18 -88 56q-33 31 -59.5 82t-26.5 129q0 66 28.5 126t80 107t121 75.5t149.5 28.5t149.5 -28.5t120.5 -75.5t80 -107.5t29 -125.5q0 -78 -28 -129.5t-60 -81.5
q-37 -37 -86 -56q61 -27 112 -71q41 -39 77 -101.5t36 -154.5q0 -78 -31 -146.5t-88 -120t-136 -82t-175 -30.5zM502 614q-123 0 -194.5 -67.5t-71.5 -167.5q0 -109 71.5 -177.5t194.5 -68.5t194.5 68.5t71.5 177.5q0 100 -71.5 167.5t-194.5 67.5zM502 758q45 0 85 16.5
t68.5 43t45 61t16.5 73.5q0 43 -16.5 80t-45 64.5t-68.5 44t-85 16.5q-47 0 -86 -16.5t-68 -44t-45 -64.5t-16 -80q0 -39 16 -73.5t45 -61t68 -43t86 -16.5z" />
    <glyph glyph-name="nine" unicode="9" horiz-adv-x="1013" 
d="M502 1300q92 0 172 -33.5t140 -94t94 -140.5t34 -172q0 -61 -17.5 -117.5t-39.5 -97.5q-25 -51 -56 -92l-368 -553h-174l286 430q-10 -4 -20 -6t-22.5 -3t-28.5 -1q-92 0 -172 33.5t-140.5 94t-94.5 140.5t-34 172t34 172t94.5 140.5t140.5 94t172 33.5zM778 860
q0 63 -21.5 118.5t-59.5 94.5t-88 61.5t-107 22.5t-107.5 -21.5t-88.5 -61.5t-59.5 -94t-21.5 -120q0 -61 21.5 -113.5t59.5 -91.5t88 -60.5t108 -21.5q57 0 107 21.5t88 60.5t59.5 91.5t21.5 113.5z" />
    <glyph glyph-name="colon" unicode=":" horiz-adv-x="348" 
d="M72 92q0 47 27.5 75t74.5 28t74.5 -28t27.5 -75t-27.5 -74.5t-74.5 -27.5t-74.5 27.5t-27.5 74.5zM72 819q0 47 27.5 75t74.5 28t74.5 -28t27.5 -75t-27.5 -74.5t-74.5 -27.5t-74.5 27.5t-27.5 74.5z" />
    <glyph glyph-name="semicolon" unicode=";" horiz-adv-x="348" 
d="M72 819q0 47 27.5 75t74.5 28t74.5 -28t27.5 -75t-27.5 -74.5t-74.5 -27.5t-74.5 27.5t-27.5 74.5zM174 -10q-47 0 -74.5 27.5t-27.5 74.5t27.5 75t74.5 28t74.5 -28t27.5 -75q0 -74 -25.5 -128t-55.5 -89q-37 -41 -82 -70l-21 31q20 20 37 43q14 20 27.5 48t17.5 63z
" />
    <glyph glyph-name="less" unicode="&#x3c;" horiz-adv-x="901" 
d="M809 164v-154l-717 389v103l717 389v-154l-543 -286z" />
    <glyph glyph-name="equal" unicode="=" horiz-adv-x="890" 
d="M829 788v-143h-768v143h768zM61 410h768v-144h-768v144z" />
    <glyph glyph-name="greater" unicode="&#x3e;" horiz-adv-x="901" 
d="M635 451l-543 286v154l717 -389v-103l-717 -389v154z" />
    <glyph glyph-name="question" unicode="?" horiz-adv-x="880" 
d="M809 961q0 -82 -21.5 -136.5t-55.5 -95.5t-71.5 -74.5t-71.5 -74.5t-55.5 -95.5t-21.5 -136.5v-10h-164v10q0 96 21.5 161.5t55.5 112t72 80t71.5 69.5t55 80t21.5 110q0 86 -54 141t-140 55q-100 0 -157.5 -62.5t-57.5 -193.5v-20h-164v20q0 193 104.5 296t274.5 103
q76 0 142 -25.5t113.5 -70.5t75 -107t27.5 -136zM328 92q0 47 27.5 75t74.5 28t74.5 -28t27.5 -75t-27.5 -74.5t-74.5 -27.5t-74.5 27.5t-27.5 74.5z" />
    <glyph glyph-name="at" unicode="@" horiz-adv-x="1515" 
d="M963 238q-25 -37 -60 -64q-29 -23 -74 -42t-102 -19q-61 0 -116.5 25.5t-98.5 71.5t-67.5 109.5t-24.5 141.5q0 76 24.5 140.5t67.5 110.5t98.5 71.5t116.5 25.5q53 0 93 -17.5t69 -39.5q31 -25 53 -56l31 103h92v-404q0 -90 32.5 -130t80.5 -40q31 0 57.5 13.5t44.5 43
t29.5 79t11.5 120.5q0 111 -45 211.5t-121 176t-176 120.5t-211 45t-211 -45t-176 -123t-121 -182t-45 -223t45 -223.5t121 -182.5t176 -123t211 -45q61 0 113.5 14.5t91.5 30.5q45 20 82 48l61 -103q-49 -29 -104 -51q-47 -20 -110.5 -35.5t-133.5 -15.5q-141 0 -266 54
t-218.5 147.5t-147.5 218t-54 266.5q0 141 54 266t147.5 218t218.5 147.5t266 54.5t266 -53.5t218.5 -144.5t147.5 -212t54 -256q0 -92 -21.5 -160.5t-59.5 -114.5t-88 -69.5t-107 -23.5q-59 0 -99.5 19.5t-66.5 41.5q-31 27 -49 64zM543 461q0 -100 59.5 -162.5
t145.5 -62.5q90 0 147 59t57 166q0 106 -57 165.5t-147 59.5q-86 0 -145.5 -62.5t-59.5 -162.5z" />
    <glyph glyph-name="A" unicode="A" horiz-adv-x="1126" 
d="M829 317h-532l-123 -317h-174l492 1290h143l491 -1290h-174zM348 461h430l-215 563z" />
    <glyph glyph-name="B" unicode="B" horiz-adv-x="1146" 
d="M870 686q53 -27 97 -70q37 -37 67.5 -98t30.5 -149q0 -72 -30.5 -138.5t-86 -118t-130.5 -82t-163 -30.5h-491v1290h481q80 0 147.5 -26.5t116.5 -73.5t77 -110.5t28 -137.5q0 -70 -22.5 -118t-49.5 -79q-33 -36 -72 -59zM328 748h317q45 0 85 16t68.5 43t45 61.5
t16.5 73.5q0 43 -16.5 80t-45 64.5t-68.5 44t-85 16.5h-317v-399zM655 143q109 0 177.5 68t68.5 168q0 45 -18.5 86t-51 71.5t-77.5 49t-99 18.5h-327v-461h327z" />
    <glyph glyph-name="C" unicode="C" horiz-adv-x="1290" 
d="M676 1157q-84 0 -164 -38t-141.5 -106.5t-98 -162.5t-36.5 -205t36.5 -205t98 -162.5t141.5 -106.5t164 -38q76 0 139.5 23.5t111.5 63.5t79.5 94.5t48.5 115.5h174q-27 -92 -76 -172t-119.5 -140.5t-161 -94t-196.5 -33.5q-119 0 -228.5 50t-192.5 139t-133 208t-50 258
q0 137 50 257t133 209t192.5 139t228.5 50q104 0 191 -33.5t157 -94t119 -140.5t76 -172h-175q-16 61 -47.5 115.5t-79 94.5t-107.5 63.5t-134 23.5z" />
    <glyph glyph-name="D" unicode="D" horiz-adv-x="1218" 
d="M522 143q88 0 170 38t144.5 105.5t99.5 159t37 199.5q0 106 -37 198.5t-99.5 160t-144.5 105.5t-170 38h-194v-1004h194zM1137 645q0 -139 -48.5 -257t-132.5 -204t-195.5 -135t-238.5 -49h-358v1290h358q127 0 238.5 -49t195.5 -135t132.5 -205t48.5 -256z" />
    <glyph glyph-name="E" unicode="E" horiz-adv-x="1105" 
d="M1004 143v-143h-840v1290h819v-143h-655v-410h604v-143h-604v-451h676z" />
    <glyph glyph-name="F" unicode="F" horiz-adv-x="1024" 
d="M328 1147v-430h512v-144h-512v-573h-164v1290h788v-143h-624z" />
    <glyph glyph-name="G" unicode="G" horiz-adv-x="1382" 
d="M686 1157q-84 0 -164 -38t-141.5 -106.5t-98 -162.5t-36.5 -205t36.5 -205t98 -162.5t141.5 -106.5t164 -38q76 0 146.5 32t125 84t86 117.5t31.5 135.5h-379v143h543v-645h-123l-41 154q-45 -45 -102 -82q-51 -31 -123 -56.5t-164 -25.5q-119 0 -228.5 50t-192.5 139
t-133 208t-50 258q0 137 50 257t133 209t192.5 139t228.5 50q106 0 193.5 -30.5t155 -87t115.5 -133t79 -168.5h-174q-39 123 -127 199.5t-242 76.5z" />
    <glyph glyph-name="H" unicode="H" horiz-adv-x="1280" 
d="M1116 1290v-1290h-164v584h-624v-584h-164v1290h164v-563h624v563h164z" />
    <glyph glyph-name="I" unicode="I" horiz-adv-x="491" 
d="M328 0h-164v1290h164v-1290z" />
    <glyph glyph-name="J" unicode="J" horiz-adv-x="942" 
d="M799 1292v-944q0 -74 -29 -138.5t-81 -113.5t-123.5 -77.5t-155.5 -28.5t-156 28.5t-124 77.5t-81 113.5t-29 138.5h164q8 -92 70.5 -153.5t155.5 -61.5q100 0 162.5 61.5t62.5 153.5v944h164z" />
    <glyph glyph-name="K" unicode="K" horiz-adv-x="1054" 
d="M328 0h-164v1290h164v-1290zM328 655l501 635h195l-512 -635l553 -655h-195z" />
    <glyph glyph-name="L" unicode="L" horiz-adv-x="962" 
d="M942 143v-143h-778v1290h164v-1147h614z" />
    <glyph glyph-name="M" unicode="M" horiz-adv-x="1556" 
d="M1260 1290h133v-1290h-164v870l-400 -870h-102l-399 870v-870h-164v1290h133l481 -1034z" />
    <glyph glyph-name="N" unicode="N" horiz-adv-x="1280" 
d="M1116 1290v-1290h-143l-645 973v-973h-164v1290h143l645 -973v973h164z" />
    <glyph glyph-name="O" unicode="O" horiz-adv-x="1351" 
d="M236 645q0 -111 36.5 -205t98 -162.5t141.5 -106.5t164 -38t164 38t141 106.5t98 163t37 204.5q0 111 -37 205t-98 162.5t-141 106.5t-164 38t-164 -38t-141.5 -106.5t-98 -162.5t-36.5 -205zM1280 645q0 -139 -50 -258t-133 -208t-192.5 -139t-228.5 -50t-228.5 50
t-192.5 139t-133 208t-50 258q0 137 50 257t133 209t192.5 139t228.5 50t228.5 -50t192.5 -139t133 -209t50 -257z" />
    <glyph glyph-name="P" unicode="P" horiz-adv-x="1095" 
d="M604 1290q84 0 159 -31.5t130 -87t88 -128t33 -152.5t-33 -152.5t-88 -128t-130 -87t-159 -31.5h-276v-492h-164v1290h440zM604 635q49 0 94 19.5t79 54t53.5 82t19.5 100.5t-19.5 100t-53.5 82t-79 54.5t-94 19.5h-276v-512h276z" />
    <glyph glyph-name="Q" unicode="Q" horiz-adv-x="1372" 
d="M1004 102q-39 -33 -91 -57q-43 -23 -104 -39t-133 -16q-119 0 -228.5 50t-192.5 139t-133 208t-50 258q0 137 50 257t133 209t192.5 139t228.5 50t228.5 -50t192.5 -139t133 -209t50 -257q0 -104 -25.5 -185t-56.5 -138q-37 -68 -82 -117l144 -144l-103 -112zM236 645
q0 -111 36.5 -205t98 -162.5t141.5 -106.5t164 -38q49 0 91 10.5t71 24.5q35 16 63 37l-133 133l102 113l144 -144q29 37 51 88q18 43 34.5 105.5t16.5 144.5q0 111 -37 205t-98 162.5t-141 106.5t-164 38t-164 -38t-141.5 -106.5t-98 -162.5t-36.5 -205z" />
    <glyph glyph-name="R" unicode="R" horiz-adv-x="1136" 
d="M573 532h-245v-532h-164v1290h481q80 0 151.5 -30.5t124 -82t83 -121t30.5 -145.5q0 -113 -45 -183.5t-98 -111.5q-63 -49 -141 -73l315 -543h-184zM328 676h317q45 0 86 18.5t72 50t49 74.5t18 92t-18 92.5t-49 75t-72 50t-86 18.5h-317v-471z" />
    <glyph glyph-name="S" unicode="S" horiz-adv-x="1013" 
d="M92 952q0 66 31 128.5t87 111.5t133 78.5t169 29.5q84 0 156.5 -30.5t127 -82.5t85 -124t30.5 -152h-163q0 109 -68 177.5t-168 68.5q-57 0 -104.5 -17.5t-81 -46t-52 -65.5t-18.5 -76q0 -80 51 -124t127 -73.5t165 -55t165 -67.5t127 -110.5t51 -183.5
q0 -70 -29.5 -132.5t-85 -110.5t-135.5 -76.5t-180 -28.5t-180 28.5t-135.5 81t-85 124t-29.5 155.5h164q0 -117 67.5 -181.5t198.5 -64.5t198.5 59.5t67.5 145.5q0 80 -51 124t-127 73.5t-165 55t-164.5 67.5t-127 110.5t-51.5 183.5z" />
    <glyph glyph-name="T" unicode="T" 
d="M973 1147h-389v-1147h-164v1147h-389v143h942v-143z" />
    <glyph glyph-name="U" unicode="U" horiz-adv-x="1228" 
d="M614 -10q-104 0 -190 34.5t-148.5 96t-97.5 145.5t-35 185v839h164v-839q0 -147 84 -232.5t223 -85.5t223.5 85t84.5 233v839h163v-839q0 -100 -34.5 -184.5t-97 -146t-149 -96t-190.5 -34.5z" />
    <glyph glyph-name="V" unicode="V" horiz-adv-x="1146" 
d="M655 0h-163l-472 1290h175l378 -1054l379 1054h174z" />
    <glyph glyph-name="W" unicode="W" horiz-adv-x="1597" 
d="M799 932l-267 -932h-112l-400 1290h175l286 -932l267 932h102l266 -932l287 932h174l-399 -1290h-113z" />
    <glyph glyph-name="X" unicode="X" horiz-adv-x="1064" 
d="M440 655l-399 635h184l307 -491l308 491h184l-399 -635l419 -655h-194l-318 512l-317 -512h-195z" />
    <glyph glyph-name="Y" unicode="Y" horiz-adv-x="1024" 
d="M20 1290h175l317 -614l317 614h175l-410 -788v-502h-164v502z" />
    <glyph glyph-name="Z" unicode="Z" horiz-adv-x="993" 
d="M266 143h666v-143h-871v102l635 1045h-614v143h819v-102z" />
    <glyph glyph-name="bracketleft" unicode="[" horiz-adv-x="583" 
d="M307 -236h236v-133h-379v1659h379v-133h-236v-1393z" />
    <glyph glyph-name="backslash" unicode="\" horiz-adv-x="675" 
d="M0 1290h143l533 -1659h-144z" />
    <glyph glyph-name="bracketright" unicode="]" horiz-adv-x="583" 
d="M276 1157h-235v133h379v-1659h-379v133h235v1393z" />
    <glyph glyph-name="asciicircum" unicode="^" horiz-adv-x="778" 
d="M573 707l-184 389l-184 -389h-123l276 583h62l276 -583h-123z" />
    <glyph glyph-name="underscore" unicode="_" horiz-adv-x="532" 
d="M573 -338h-614v123h614v-123z" />
    <glyph glyph-name="grave" unicode="`" horiz-adv-x="399" 
d="M338 1044h-102l-175 246h154z" />
    <glyph glyph-name="a" unicode="a" horiz-adv-x="952" 
d="M481 932q76 0 140.5 -25.5t110.5 -68.5t71.5 -100.5t25.5 -123.5v-614h-112l-41 102q-31 -33 -70 -57q-35 -23 -86 -39t-121 -16t-126 21.5t-96 59.5t-62.5 88t-22.5 107q0 66 26.5 120t92 94t179.5 61.5t286 21.5v51q0 70 -54.5 122t-140.5 52t-127 -35.5t-57 -97.5
h-164q8 57 35 107.5t71 88.5t104 59.5t138 21.5zM399 133q61 0 112.5 19.5t87.5 50t56.5 68.5t20.5 77v72q-139 0 -223 -11.5t-130.5 -33t-61.5 -51t-15 -68.5q0 -47 41.5 -85t111.5 -38z" />
    <glyph glyph-name="b" unicode="b" horiz-adv-x="1075" 
d="M276 461q0 -74 24 -134.5t62.5 -103.5t91 -66.5t109.5 -23.5t109.5 23.5t91.5 66.5t62.5 103.5t23.5 134.5t-23.5 134t-62.5 103t-91 66.5t-110 23.5q-57 0 -109.5 -23.5t-91 -66.5t-62.5 -103t-24 -134zM256 0h-113v1290h154v-481q29 35 70 61q35 23 86 42.5t120 19.5
q88 0 167 -35t137.5 -97.5t92.5 -148.5t34 -190t-34 -190.5t-92.5 -149t-137 -97t-167.5 -34.5q-70 0 -121 16.5t-85 38.5q-41 25 -70 57z" />
    <glyph glyph-name="c" unicode="c" horiz-adv-x="962" 
d="M502 788q-53 0 -103.5 -23.5t-89.5 -66.5t-61.5 -103t-22.5 -134t22.5 -134.5t61.5 -103.5t89.5 -66.5t103.5 -23.5q45 0 85 16.5t71.5 43t54 61.5t35.5 74h153q-16 -70 -51 -131.5t-87 -107.5t-118.5 -72.5t-142.5 -26.5q-88 0 -167 34.5t-137.5 97t-92 148.5t-33.5 191
q0 104 33.5 190t92 148.5t137.5 97.5t167 35q76 0 142.5 -26.5t118.5 -73t87 -107.5t51 -131h-153q-12 39 -35 73.5t-54.5 61.5t-71.5 43t-85 16z" />
    <glyph glyph-name="d" unicode="d" horiz-adv-x="1075" 
d="M799 461q0 74 -23.5 134t-62.5 103t-91.5 66.5t-109.5 23.5t-109.5 -23.5t-91.5 -66.5t-62.5 -103t-23.5 -134t23.5 -134.5t62.5 -103.5t91.5 -66.5t109.5 -23.5t109.5 23.5t91.5 66.5t62.5 103.5t23.5 134.5zM778 102q-31 -33 -69 -57q-35 -23 -86.5 -39t-120.5 -16
q-88 0 -167 34.5t-137.5 97t-92 148.5t-33.5 191q0 104 33.5 190t92 148.5t137.5 97.5t167 35q70 0 121 -19.5t86 -42.5q39 -27 69 -61v481h154v-1290h-113z" />
    <glyph glyph-name="e" unicode="e" horiz-adv-x="972" 
d="M881 246q-23 -49 -58 -96.5t-82 -82t-106.5 -56t-132.5 -21.5q-88 0 -167 34.5t-137.5 97t-92 148.5t-33.5 191q0 104 33.5 190t91 148.5t134.5 97.5t161 35t158.5 -33t130 -93.5t88 -145.5t32.5 -189q0 -20 -2 -34.5t-4 -24.5q-2 -12 -4 -23h-655q4 -49 27.5 -96t59 -82
t83 -56.5t96.5 -21.5q43 0 76.5 12.5t61.5 28.5t46.5 35.5t30.5 36.5h164zM492 788q-47 0 -89.5 -20t-77 -55t-58 -84t-31.5 -107h501q-16 123 -84.5 194.5t-160.5 71.5z" />
    <glyph glyph-name="f" unicode="f" horiz-adv-x="563" 
d="M522 778h-205v-778h-153v778h-113v144h113v71q0 70 21.5 126.5t58.5 96t85 62t101 22.5q23 0 40 -3t30 -7q12 -6 22 -10v-133q-6 2 -14 4q-6 2 -16.5 4t-20.5 2q-70 0 -112 -43t-42 -121v-71h205v-144z" />
    <glyph glyph-name="g" unicode="g" horiz-adv-x="1034" 
d="M758 154q-27 -35 -64 -62q-33 -23 -83 -42t-119 -19q-88 0 -165 32.5t-133.5 92t-89 142.5t-32.5 183t32.5 183.5t89 142.5t133 92t165.5 33q70 0 120 -17.5t82 -40.5q37 -25 64 -55l41 103h112v-891q0 -80 -29.5 -149.5t-83 -121t-129 -80t-167.5 -28.5
q-80 0 -143.5 21.5t-110.5 59.5t-79 88t-46 107h153q23 -53 74 -93t152 -40q117 0 186.5 67.5t69.5 168.5v123zM225 481q0 -70 21.5 -126t59.5 -96t88 -62.5t108 -22.5q57 0 107 22.5t88 62.5t59.5 96.5t21.5 125.5q0 70 -21.5 126.5t-59.5 96t-88 62t-107 22.5
t-107.5 -22.5t-88.5 -62t-59.5 -96t-21.5 -126.5z" />
    <glyph glyph-name="h" unicode="h" horiz-adv-x="1044" 
d="M563 932q74 0 138.5 -30t113.5 -82t78 -125.5t29 -162.5v-532h-154v532q0 57 -18.5 104.5t-49 81.5t-71.5 52t-86 18q-109 0 -177.5 -69.5t-68.5 -186.5v-532h-154v1290h154v-481q29 35 68 61q35 23 83.5 42.5t114.5 19.5z" />
    <glyph glyph-name="i" unicode="i" horiz-adv-x="419" 
d="M287 0h-154v922h154v-922zM113 1182q0 43 27.5 70.5t68.5 27.5q43 0 70.5 -27.5t27.5 -70.5q0 -41 -27.5 -69t-70.5 -28q-41 0 -68.5 28t-27.5 69z" />
    <glyph glyph-name="j" unicode="j" horiz-adv-x="419" 
d="M133 922h154v-953q0 -70 -21.5 -126t-58.5 -96t-85 -62.5t-102 -22.5q-45 0 -69 10q-14 4 -23 11v133q6 -4 15 -6q16 -4 37 -5q70 0 111.5 43t41.5 121v953zM113 1182q0 43 27.5 70.5t68.5 27.5q43 0 70.5 -27.5t27.5 -70.5q0 -41 -27.5 -69t-70.5 -28q-41 0 -68.5 28
t-27.5 69z" />
    <glyph glyph-name="k" unicode="k" horiz-adv-x="860" 
d="M297 0h-154v1290h154v-1290zM686 0l-389 481l348 441h174l-348 -430l399 -492h-184z" />
    <glyph glyph-name="l" unicode="l" horiz-adv-x="440" 
d="M297 0h-154v1290h154v-1290z" />
    <glyph glyph-name="m" unicode="m" horiz-adv-x="1474" 
d="M1044 932q61 0 117 -25.5t99 -75t67.5 -120t24.5 -158.5v-553h-154v553q0 117 -53 176t-131 59t-136.5 -63t-58.5 -172v-553h-153v553q0 117 -53.5 176t-131.5 59q-37 0 -72.5 -17t-62.5 -49t-43 -75t-16 -94v-553h-154v922h113l41 -103q23 31 55 55q29 23 70 40.5
t100 17.5q70 0 118 -25.5t79 -56.5q37 -37 59 -82q27 45 66 82q35 31 85.5 56.5t124.5 25.5z" />
    <glyph glyph-name="n" unicode="n" horiz-adv-x="1034" 
d="M553 932q74 0 138.5 -30t113.5 -82t77.5 -125.5t28.5 -162.5v-532h-153v532q0 57 -18.5 104.5t-49.5 81.5t-71.5 52t-86.5 18q-109 0 -177 -69.5t-68 -186.5v-532h-154v922h113l41 -103q29 31 67 55q35 23 84 40.5t115 17.5z" />
    <glyph glyph-name="o" unicode="o" 
d="M225 461q0 -74 22.5 -134.5t61.5 -103.5t89.5 -66.5t103.5 -23.5t103 23.5t88 66.5t61.5 103.5t23.5 134.5t-23.5 134t-61.5 103t-88 66.5t-103 23.5t-103.5 -23.5t-89.5 -66.5t-61.5 -103t-22.5 -134zM932 461q0 -104 -34 -190.5t-92 -149t-137 -97t-167 -34.5
t-167 34.5t-137.5 97t-92 148.5t-33.5 191q0 104 33.5 190t92 148.5t137.5 97.5t167 35t167 -35t137 -97.5t92 -148.5t34 -190z" />
    <glyph glyph-name="p" unicode="p" horiz-adv-x="1064" 
d="M266 461q0 -74 23.5 -134.5t62.5 -103.5t91.5 -66.5t109.5 -23.5t109.5 23.5t91.5 66.5t62.5 103.5t23.5 134.5t-23.5 134t-62.5 103t-91.5 66.5t-109.5 23.5t-109.5 -23.5t-91.5 -66.5t-62.5 -103t-23.5 -134zM287 819q29 31 69 55q35 23 86.5 40.5t120.5 17.5
q88 0 167 -35t137.5 -97.5t92 -148.5t33.5 -190t-33.5 -190.5t-92 -149t-137.5 -97t-167 -34.5q-70 0 -121 19.5t-86 41.5q-41 27 -69 62v-441h-154v1250h113z" />
    <glyph glyph-name="q" unicode="q" horiz-adv-x="1064" 
d="M799 461q0 74 -23.5 134t-62.5 103t-91.5 66.5t-109.5 23.5t-109.5 -23.5t-91.5 -66.5t-62.5 -103t-23.5 -134t23.5 -134.5t62.5 -103.5t91.5 -66.5t109.5 -23.5t109.5 23.5t91.5 66.5t62.5 103.5t23.5 134.5zM819 922h113v-1250h-154v441q-31 -35 -69 -62
q-35 -23 -86.5 -42t-120.5 -19q-88 0 -167 34.5t-137.5 97t-92 148.5t-33.5 191q0 104 33.5 190t92 148.5t137.5 97.5t167 35q70 0 121 -17.5t86 -40.5q39 -25 69 -55z" />
    <glyph glyph-name="r" unicode="r" horiz-adv-x="614" 
d="M573 778h-41q-109 0 -177 -69.5t-68 -186.5v-522h-154v922h113l41 -103q29 31 67 55q35 23 84 40.5t115 17.5h20v-154z" />
    <glyph glyph-name="s" unicode="s" horiz-adv-x="808" 
d="M737 266q0 -57 -22.5 -107t-63.5 -88t-99 -59.5t-132 -21.5q-154 0 -242 82t-96 204h154q8 -61 53 -102t131 -41q78 0 121 40t43 93q0 51 -36 77t-89 41t-115.5 28.5t-116 40t-89.5 76t-36 137.5q0 53 22.5 101t62.5 85t96.5 58.5t126.5 21.5q147 0 228 -77t89 -200h-154
q-8 61 -47 97t-116 36q-70 0 -112 -37.5t-42 -84.5q0 -51 36 -77t89 -41.5t115.5 -28.5t116 -39.5t89 -77t35.5 -136.5z" />
    <glyph glyph-name="t" unicode="t" horiz-adv-x="655" 
d="M225 1167h133v-245h205v-144h-205v-481q0 -78 42 -121t112 -43q20 0 37 4q8 2 14 6v-133q-10 -6 -22 -10q-27 -10 -70 -10q-53 0 -101 22.5t-85 62.5t-58.5 96t-21.5 126v481h-164v144h72q113 0 112 112v133z" />
    <glyph glyph-name="u" unicode="u" horiz-adv-x="1044" 
d="M492 -10q-74 0 -138.5 29.5t-114 82t-78 126t-28.5 161.5v533h154v-533q0 -57 17.5 -104t48 -81t71.5 -52.5t88 -18.5q109 0 177.5 69.5t68.5 186.5v533h153v-922h-112l-41 102q-29 -33 -68 -57q-35 -23 -83.5 -39t-114.5 -16z" />
    <glyph glyph-name="v" unicode="v" horiz-adv-x="921" 
d="M901 922l-369 -922h-143l-369 922h164l277 -707l276 707h164z" />
    <glyph glyph-name="w" unicode="w" horiz-adv-x="1310" 
d="M451 0h-123l-308 922h164l215 -656l205 656h103l204 -656l215 656h164l-307 -922h-123l-205 655z" />
    <glyph glyph-name="x" unicode="x" horiz-adv-x="839" 
d="M512 471l328 -471h-174l-246 358l-246 -358h-174l328 471l-308 451h175l225 -338l225 338h174z" />
    <glyph glyph-name="y" unicode="y" horiz-adv-x="921" 
d="M20 922h164l277 -707l276 707h164l-399 -1004q-55 -139 -115.5 -197.5t-150.5 -58.5q-12 0 -22.5 1t-20.5 3t-19 6v123q70 0 104.5 31t59.5 92l41 102z" />
    <glyph glyph-name="z" unicode="z" horiz-adv-x="778" 
d="M512 778h-451v144h635v-134l-450 -645h471v-143h-656v133z" />
    <glyph glyph-name="braceleft" unicode="{" horiz-adv-x="614" 
d="M92 522q113 0 113 113v399q0 123 67.5 189.5t198.5 66.5h102v-133h-106q-51 0 -85 -35t-34 -88v-399q0 -53 -19.5 -88t-41.5 -53q-27 -23 -62 -33q35 -10 62 -33q23 -20 42 -54t19 -87v-400q0 -53 34 -88t85 -35h106v-133h-102q-131 0 -198.5 66.5t-67.5 189.5v400
q0 113 -113 112v123z" />
    <glyph glyph-name="bar" unicode="|" horiz-adv-x="634" 
d="M389 -328h-143v1618h143v-1618z" />
    <glyph glyph-name="braceright" unicode="}" horiz-adv-x="614" 
d="M522 399q-113 0 -112 -112v-400q0 -123 -68 -189.5t-199 -66.5h-102v133h106q51 0 85 35t34 88v400q0 53 19.5 87t42.5 54q27 23 61 33q-35 10 -61 33q-23 18 -42.5 53t-19.5 88v399q0 53 -33.5 88t-85.5 35h-106v133h102q131 0 199 -66.5t68 -189.5v-399
q0 -113 112 -113v-123z" />
    <glyph glyph-name="asciitilde" unicode="~" horiz-adv-x="901" 
d="M236 553q-47 0 -80 -36t-33 -97h-123q0 131 63.5 198.5t172.5 67.5q53 0 112.5 -22.5t116.5 -49t106.5 -49t83.5 -22.5q53 0 88 35.5t35 97.5h123q0 -131 -64.5 -198.5t-181.5 -67.5q-49 0 -106 22.5t-114.5 49t-108.5 49t-90 22.5z" />
    <glyph glyph-name="uni00A0" unicode="&#xa0;" horiz-adv-x="440" 
 />
    <glyph glyph-name="exclamdown" unicode="&#xa1;" horiz-adv-x="532" 
d="M369 -328h-205l41 942h123zM164 829q0 47 27.5 75t74.5 28t75 -27.5t28 -75.5q0 -47 -28 -74.5t-75 -27.5t-74.5 27.5t-27.5 74.5z" />
    <glyph glyph-name="cent" unicode="&#xa2;" horiz-adv-x="962" 
d="M502 788q-53 0 -103.5 -23.5t-89.5 -66.5t-61.5 -103t-22.5 -134t22.5 -134.5t61.5 -103.5t89.5 -66.5t103.5 -23.5q45 0 85 16.5t71.5 43t54 61.5t35.5 74h153q-31 -131 -112.5 -214t-204.5 -114v-184h-154v184q-74 12 -138.5 48t-113.5 94.5t-77.5 138t-28.5 180.5
q0 100 28.5 180t77.5 138.5t113.5 94t138.5 48.5v184h154v-184q123 -31 204.5 -114t112.5 -214h-153q-12 39 -35 73.5t-54.5 61.5t-71.5 43t-85 16z" />
    <glyph glyph-name="sterling" unicode="&#xa3;" horiz-adv-x="1075" 
d="M389 287q0 -39 -12 -66.5t-29 -44.5q-18 -20 -41 -33h686v-143h-891v143q47 0 85 41t38 103v225h-112v143h112v267q0 76 31 145.5t84 120.5t126 81.5t159 30.5q76 0 145.5 -29.5t121.5 -79.5t85 -114.5t37 -134.5h-164q-8 92 -70.5 153.5t-154.5 61.5q-49 0 -92.5 -18.5
t-75 -50t-50 -74.5t-18.5 -92v-267h348v-143h-348v-225z" />
    <glyph glyph-name="currency" unicode="&#xa4;" horiz-adv-x="1126" 
d="M51 655h154v635h430q88 0 163 -30q75 -31 130 -83t86 -124t30 -152q0 -80 -30 -151q-31 -72 -86 -124t-130 -83t-163 -31h-266v-164h389v-143h-389v-205h-164v205h-154v143h154v164h-154v143zM635 655q109 0 177 69q69 69 69 177q0 109 -68 177q-68 69 -178 69h-266v-492
h266z" />
    <glyph glyph-name="yen" unicode="&#xa5;" horiz-adv-x="1044" 
d="M604 492v-134h275v-143h-275v-215h-164v215h-276v143h276v134h-276v143h205l-338 655h174l317 -614l318 614h174l-338 -655h205v-143h-277z" />
    <glyph glyph-name="brokenbar" unicode="&#xa6;" horiz-adv-x="655" 
d="M389 1290v-635h-143v635h143zM246 307h164v-635h-164v635z" />
    <glyph glyph-name="section" unicode="&#xa7;" horiz-adv-x="962" 
d="M870 502q0 -74 -33.5 -124t-74.5 -83q-47 -37 -107 -59q41 -14 76 -41q29 -23 53.5 -63t24.5 -101q0 -53 -23.5 -103.5t-65.5 -89.5t-100.5 -61.5t-127.5 -22.5q-139 0 -225.5 82t-102.5 205h143q8 -61 57.5 -107.5t127.5 -46.5q86 0 130 41t44 103q0 57 -42 90
t-106.5 58.5t-138.5 50t-138.5 62.5t-106.5 97.5t-42 153.5q0 72 33 124t74 87q47 39 108 65q-39 14 -67 43q-25 25 -45.5 66t-20.5 106q0 49 23.5 97.5t63.5 86t94.5 60t115.5 22.5q139 0 220 -74.5t97 -191.5h-143q-8 53 -52 93t-122 40q-70 0 -112 -40t-42 -93
q0 -59 41 -95t102.5 -63.5t133.5 -54t133 -65.5t102 -99.5t41 -154.5zM246 543q0 -43 12 -75t43 -57.5t82 -48t129 -45.5q57 12 102 35q39 20 71 55t32 95q0 43 -13.5 75.5t-44 60.5t-82 52.5t-126.5 46.5q-57 -14 -103 -39q-39 -23 -70.5 -60.5t-31.5 -94.5z" />
    <glyph glyph-name="dieresis" unicode="&#xa8;" horiz-adv-x="614" 
d="M154 1096q-39 0 -66 26.5t-27 65.5t27 65.5t66 26.5t65.5 -26.5t26.5 -65.5t-26.5 -65.5t-65.5 -26.5zM461 1096q-39 0 -65.5 26.5t-26.5 65.5t26.5 65.5t65.5 26.5t65.5 -26.5t26.5 -65.5t-26.5 -65.5t-65.5 -26.5z" />
    <glyph glyph-name="copyright" unicode="&#xa9;" horiz-adv-x="1413" 
d="M205 645q0 -115 41 -214t109.5 -172t159.5 -115t192 -42q100 0 190 42t159.5 115t110.5 172t41 214t-41 214t-110.5 172t-159.5 115t-190 42t-191.5 -42t-160 -115t-109.5 -172t-41 -214zM512 645q0 -53 16.5 -96t44 -74t62.5 -48t72 -17q78 0 117.5 34.5t56.5 87.5h123
q-12 -47 -38 -89t-64 -74.5t-85 -52t-100 -19.5q-61 0 -118.5 26.5t-101.5 73.5t-71 110.5t-27 137.5t27 137.5t71 110.5t101 73.5t119 26.5q53 0 100 -19.5t85 -52t63.5 -75.5t38.5 -88h-123q-16 53 -56.5 88t-117.5 35q-37 0 -72 -17.5t-62.5 -48.5t-44 -74t-16.5 -96z
M1331 645q0 -139 -50 -258t-135 -208t-198.5 -139t-240.5 -50t-241 50t-199 139t-135 208t-50 258q0 137 50 257t135 209t199 139t241 50t240.5 -50t198.5 -139t135 -209t50 -257z" />
    <glyph glyph-name="ordfeminine" unicode="&#xaa;" horiz-adv-x="573" 
d="M297 1300q45 0 85 -16t68.5 -43t45 -61.5t16.5 -73.5v-328h-82l-20 62q-16 -20 -39 -37q-20 -14 -48 -24.5t-67 -10.5q-84 0 -134 42t-50 101q0 43 15 77t52 57.5t100.5 37t159.5 13.5v10q0 39 -27.5 65.5t-74.5 26.5t-70.5 -19.5t-31.5 -41.5h-103q0 61 56.5 112
t148.5 51zM399 1014q-70 0 -113.5 -7.5t-68 -18.5t-34 -26.5t-9.5 -29.5q0 -31 24.5 -51.5t77.5 -20.5t88 35t35 88v31z" />
    <glyph glyph-name="guillemotleft" unicode="&#xab;" horiz-adv-x="901" 
d="M451 133h-154l-225 328l225 327h154l-226 -327zM829 133h-153l-225 328l225 327h153l-225 -327z" />
    <glyph glyph-name="logicalnot" unicode="&#xac;" horiz-adv-x="901" 
d="M870 778v-409h-143v276h-696v133h839z" />
    <glyph glyph-name="uni00AD" unicode="&#xad;" horiz-adv-x="706" 
d="M635 461h-563v133h563v-133z" />
    <glyph glyph-name="registered" unicode="&#xae;" horiz-adv-x="1413" 
d="M952 768q0 -59 -24.5 -96t-53.5 -60q-35 -25 -75 -39l174 -266h-123l-164 246h-82v-246h-112v676h235q45 0 86 -17.5t71.5 -47t49 -68.5t18.5 -82zM727 655q47 0 80 33t33 80t-33 80t-80 33h-123v-226h123zM205 645q0 -115 41 -214t109.5 -172t159.5 -115t192 -42
q100 0 190 42t159.5 115t110.5 172t41 214t-41 214t-110.5 172t-159.5 115t-190 42t-191.5 -42t-160 -115t-109.5 -172t-41 -214zM1331 645q0 -139 -50 -258t-135 -208t-198.5 -139t-240.5 -50t-241 50t-199 139t-135 208t-50 258q0 137 50 257t135 209t199 139t241 50
t240.5 -50t198.5 -139t135 -209t50 -257z" />
    <glyph glyph-name="macron" unicode="&#xaf;" horiz-adv-x="614" 
d="M553 1106h-492v123h492v-123z" />
    <glyph glyph-name="degree" unicode="&#xb0;" horiz-adv-x="634" 
d="M195 1055q0 -27 10 -51.5t27.5 -43t40 -28.5t44.5 -10q23 0 45.5 10t40 28.5t27.5 43t10 51.5t-10 51t-27.5 42.5t-40 29t-45.5 10.5t-45 -10.5t-39.5 -29t-27.5 -42.5t-10 -51zM563 1055q0 -49 -19.5 -94.5t-53 -79t-78.5 -53t-95 -19.5q-49 0 -94 19.5t-78.5 53t-53 79
t-19.5 94.5t19.5 94t53 79t78.5 53t94 19t94.5 -19t79 -53t53 -79t19.5 -94z" />
    <glyph glyph-name="plusminus" unicode="&#xb1;" horiz-adv-x="901" 
d="M61 61v134h318v348h-318v133h318v338h143v-338h318v-133h-318v-348h318v-134h-779z" />
    <glyph glyph-name="uni00B2" unicode="&#xb2;" horiz-adv-x="522" 
d="M219 983h242v-102h-400v82l226 235q23 23 42 48.5t19 53.5q0 82 -92 82t-92 -92h-103q0 86 54.5 140.5t140.5 54.5q92 0 148.5 -53.5t56.5 -131.5q0 -47 -22.5 -76.5t-39.5 -45.5z" />
    <glyph glyph-name="uni00B3" unicode="&#xb3;" horiz-adv-x="542" 
d="M399 1198q23 -8 41 -29q16 -16 28.5 -44.5t12.5 -69.5q0 -78 -56 -131.5t-149 -53.5q-100 0 -157.5 54.5t-57.5 140.5h103q0 -37 27.5 -64.5t74.5 -27.5t75 25.5t28 56.5q0 39 -28 65.5t-75 26.5h-53v92h53q39 0 60.5 20.5t21.5 51.5t-21.5 51t-60.5 20q-92 0 -92 -82
h-102q0 78 54 131.5t140 53.5t140.5 -52.5t54.5 -121.5q0 -31 -10.5 -52.5t-20.5 -35.5q-15 -17 -31 -25z" />
    <glyph glyph-name="acute" unicode="&#xb4;" horiz-adv-x="399" 
d="M184 1290h154l-174 -246h-103z" />
    <glyph glyph-name="mu" unicode="&#xb5;" horiz-adv-x="1044" 
d="M492 -10q-53 0 -93.5 13t-67 28.5t-41.5 28.5l-14 14v-402h-143v1250h154v-533q0 -57 17.5 -104t48 -81t71.5 -52.5t88 -18.5q109 0 177.5 69.5t68.5 186.5v533h153v-922h-112l-41 102q-29 -33 -68 -57q-35 -23 -83.5 -39t-114.5 -16z" />
    <glyph glyph-name="paragraph" unicode="&#xb6;" horiz-adv-x="1024" 
d="M870 1290v-1474h-133v1337h-215v-1337h-133v880q-61 0 -116.5 24.5t-98.5 65.5t-67.5 94.5t-24.5 110.5q0 59 24.5 113.5t67.5 95.5t98.5 65.5t116.5 24.5h481z" />
    <glyph glyph-name="periodcentered" unicode="&#xb7;" horiz-adv-x="440" 
d="M123 645q0 47 27.5 75t74.5 28t75 -28t28 -75t-28 -74.5t-75 -27.5t-74.5 27.5t-27.5 74.5z" />
    <glyph glyph-name="cedilla" unicode="&#xb8;" horiz-adv-x="399" 
d="M205 -82q61 -8 97 -44t36 -89t-46 -93t-138 -40q-20 0 -37 1t-29 3q-14 2 -27 6v82q10 -4 25 -6q10 -2 25.5 -3t31.5 -1q47 0 70 19.5t23 41.5q0 23 -23 42.5t-70 19.5q-12 0 -21 -2t-16 -5q-8 -2 -14 -4l64 154h90z" />
    <glyph glyph-name="uni00B9" unicode="&#xb9;" horiz-adv-x="419" 
d="M205 1475h82v-594h-113v450l-82 -41l-51 82z" />
    <glyph glyph-name="ordmasculine" unicode="&#xba;" horiz-adv-x="634" 
d="M174 1034q0 -31 12.5 -58.5t33 -49t46 -33.5t51.5 -12q27 0 52.5 12t46 33.5t33 49.5t12.5 58q0 31 -12.5 58.5t-33 49t-46 34t-52.5 12.5t-52 -12.5t-45.5 -34t-33 -49t-12.5 -58.5zM573 1034q0 -53 -21.5 -101t-56 -85t-81.5 -58.5t-97 -21.5q-49 0 -96 21.5t-82 58.5
t-56.5 85t-21.5 101t21.5 101.5t56.5 85t82 58t96 21.5t96.5 -21.5t82 -58t56 -85t21.5 -101.5z" />
    <glyph glyph-name="guillemotright" unicode="&#xbb;" horiz-adv-x="901" 
d="M676 461l-225 327h153l225 -327l-225 -328h-153zM297 461l-225 327h153l226 -327l-226 -328h-153z" />
    <glyph glyph-name="onequarter" unicode="&#xbc;" horiz-adv-x="1136" 
d="M205 1290h82v-594h-113v451l-82 -41l-51 82zM1004 215h71v-102h-71v-113h-113v113h-256v82l246 399h123v-379zM891 215v215l-133 -215h133zM92 0l789 1290h133l-789 -1290h-133z" />
    <glyph glyph-name="onehalf" unicode="&#xbd;" horiz-adv-x="1177" 
d="M205 1290h82v-594h-113v451l-82 -41l-51 82zM874 102h242v-102h-399v82l225 235q23 23 42.5 48.5t19.5 54.5q0 82 -93 82q-92 0 -92 -92h-102q0 86 54 140t140 54q92 0 148.5 -53t56.5 -131q0 -47 -22.5 -77t-38.5 -46zM92 0l789 1290h133l-789 -1290h-133z" />
    <glyph glyph-name="threequarters" unicode="&#xbe;" horiz-adv-x="1259" 
d="M399 1014q23 -8 41 -29q16 -16 28.5 -45t12.5 -70q0 -78 -56 -131t-149 -53q-100 0 -157.5 54.5t-57.5 140.5h103q0 -37 27.5 -65t74.5 -28t75 26t28 56q0 39 -28 66t-75 27h-53v92h53q39 0 60.5 20.5t21.5 50.5q0 31 -21.5 51.5t-60.5 20.5q-92 0 -92 -82h-102
q0 78 54 131t140 53t140.5 -52t54.5 -122q0 -31 -10.5 -52t-20.5 -36q-15 -16 -31 -24zM1126 215h72v-102h-72v-113h-112v113h-256v82l246 399h122v-379zM1014 215v215l-133 -215h133zM215 0l789 1290h133l-789 -1290h-133z" />
    <glyph glyph-name="questiondown" unicode="&#xbf;" horiz-adv-x="880" 
d="M82 2q0 82 21.5 134t55.5 91t71.5 70t71.5 70t55.5 92t21.5 135v10h164v-10q0 -96 -21.5 -159.5t-55.5 -107.5t-72 -76t-71.5 -64.5t-55 -75.5t-21.5 -109q0 -39 13 -75t38 -62.5t60.5 -43t82.5 -16.5q100 0 157.5 62.5t57.5 193.5v21h164v-21q0 -193 -104.5 -296
t-274.5 -103q-80 0 -146.5 26.5t-113.5 72.5t-72.5 108.5t-25.5 132.5zM563 829q0 -47 -27.5 -74.5t-74.5 -27.5t-75 27.5t-28 74.5t28 75t75 28t74.5 -28t27.5 -75z" />
    <glyph glyph-name="Agrave" unicode="&#xc0;" horiz-adv-x="1126" 
d="M594 1444h-102l-175 246h154zM829 317h-532l-123 -317h-174l492 1290h143l491 -1290h-174zM348 461h430l-215 563z" />
    <glyph glyph-name="Aacute" unicode="&#xc1;" horiz-adv-x="1126" 
d="M645 1690h154l-174 -246h-103zM829 317h-532l-123 -317h-174l492 1290h143l491 -1290h-174zM348 461h430l-215 563z" />
    <glyph glyph-name="Acircumflex" unicode="&#xc2;" horiz-adv-x="1126" 
d="M819 1434h-153l-103 143l-102 -143h-154l185 245h143zM829 317h-532l-123 -317h-174l492 1290h143l491 -1290h-174zM348 461h430l-215 563z" />
    <glyph glyph-name="Atilde" unicode="&#xc3;" horiz-adv-x="1126" 
d="M676 1526q31 0 56 30q26 31 26 93h92q0 -117 -52 -176t-122 -60q-47 0 -78 21q-31 20 -54 46q-24 26 -45 46q-22 20 -48 20q-31 0 -57 -30q-26 -31 -25 -93h-93q0 117 53 176q52 59 122 60q45 0 76 -21q32 -20 56 -46t45 -46t48 -20zM829 317h-532l-123 -317h-174
l492 1290h143l491 -1290h-174zM348 461h430l-215 563z" />
    <glyph glyph-name="Adieresis" unicode="&#xc4;" horiz-adv-x="1126" 
d="M410 1464q-39 0 -66 27t-27 65q0 39 27 66t66 27t65 -27q27 -27 27 -66t-27 -65q-26 -27 -65 -27zM717 1464q-39 0 -66 27t-26 65q0 39 26 66q27 27 66 27t65 -27q27 -27 27 -66t-27 -65q-26 -27 -65 -27zM829 317h-532l-123 -317h-174l492 1290h143l491 -1290h-174z
M348 461h430l-215 563z" />
    <glyph glyph-name="Aring" unicode="&#xc5;" horiz-adv-x="1126" 
d="M492 1567q0 -31 20 -51t51 -21q31 0 51 21q20 20 21 51q0 31 -21 51q-20 20 -51 20t-51 -20t-20 -51zM727 1567q0 -70 -47 -117t-117 -47t-117 47t-47 117t47 116q47 47 117 48q70 0 117 -48q47 -46 47 -116zM829 317h-532l-123 -317h-174l492 1290h143l491 -1290h-174z
M348 461h430l-215 563z" />
    <glyph glyph-name="AE" unicode="&#xc6;" horiz-adv-x="1648" 
d="M1546 143v-143h-758v328h-481l-184 -328h-184l727 1290h860v-143h-574v-410h523v-143h-523v-451h594zM389 471h399v676h-20z" />
    <glyph glyph-name="Ccedilla" unicode="&#xc7;" horiz-adv-x="1300" 
d="M686 1157q-84 0 -164 -38t-141.5 -106.5t-98 -162.5t-36.5 -205t36.5 -205t98 -162.5t141.5 -106.5t164 -38q76 0 139.5 23.5t111.5 63.5t80 94.5t48 115.5h174q-27 -92 -75 -171t-113.5 -137.5t-149.5 -93t-184 -38.5l-31 -72q61 -8 97 -44t36 -89t-46 -93t-138 -40
q-20 0 -36.5 1t-29.5 3q-14 2 -26 6v82q10 -4 24 -6q10 -2 25.5 -3t32.5 -1q47 0 69.5 19.5t22.5 41.5q0 23 -22.5 42.5t-69.5 19.5q-12 0 -21.5 -2t-15.5 -5q-8 -2 -15 -4l62 144q-109 12 -208 65.5t-176 139.5t-123 200.5t-46 249.5q0 137 50 257t133 209t192.5 139
t228.5 50q104 0 191.5 -33.5t157 -94t118.5 -140.5t76 -172h-174q-16 61 -48 115.5t-79 94.5t-107.5 63.5t-134.5 23.5z" />
    <glyph glyph-name="Egrave" unicode="&#xc8;" horiz-adv-x="1105" 
d="M655 1444h-102l-174 246h153zM1004 143v-143h-840v1290h819v-143h-655v-410h604v-143h-604v-451h676z" />
    <glyph glyph-name="Eacute" unicode="&#xc9;" horiz-adv-x="1105" 
d="M635 1690h153l-174 -246h-102zM1004 143v-143h-840v1290h819v-143h-655v-410h604v-143h-604v-451h676z" />
    <glyph glyph-name="Ecircumflex" unicode="&#xca;" horiz-adv-x="1105" 
d="M829 1434h-153l-103 143l-102 -143h-154l185 245h143zM1004 143v-143h-840v1290h819v-143h-655v-410h604v-143h-604v-451h676z" />
    <glyph glyph-name="Edieresis" unicode="&#xcb;" horiz-adv-x="1105" 
d="M420 1464q-39 0 -66 27t-26 65q0 39 26 66q27 27 66 27t65 -27q27 -27 27 -66t-27 -65q-26 -27 -65 -27zM727 1464q-39 0 -65 27q-27 27 -27 65q0 39 27 66t65 27q39 0 66 -27t26 -66q0 -39 -26 -65q-27 -27 -66 -27zM1004 143v-143h-840v1290h819v-143h-655v-410h604
v-143h-604v-451h676z" />
    <glyph glyph-name="Igrave" unicode="&#xcc;" horiz-adv-x="491" 
d="M287 1444h-103l-174 246h154zM328 0h-164v1290h164v-1290z" />
    <glyph glyph-name="Iacute" unicode="&#xcd;" horiz-adv-x="491" 
d="M317 1690h154l-174 -246h-102zM328 0h-164v1290h164v-1290z" />
    <glyph glyph-name="Icircumflex" unicode="&#xce;" horiz-adv-x="491" 
d="M502 1434h-154l-102 143l-103 -143h-153l184 245h143zM328 0h-164v1290h164v-1290z" />
    <glyph glyph-name="Idieresis" unicode="&#xcf;" horiz-adv-x="491" 
d="M102 1464q-39 0 -65 27q-27 27 -27 65q0 39 27 66t65 27q39 0 66 -27t27 -66t-27 -65q-27 -27 -66 -27zM410 1464q-39 0 -66 27t-27 65q0 39 27 66t66 27t65 -27q27 -27 27 -66t-27 -65q-26 -27 -65 -27zM328 0h-164v1290h164v-1290z" />
    <glyph glyph-name="Eth" unicode="&#xd0;" horiz-adv-x="1269" 
d="M1188 645q0 -139 -48 -257t-132 -204t-196 -135t-239 -49h-358v563h-184v144h184v583h358q127 0 239 -49t196 -135t132 -205t48 -256zM573 143q88 0 170 38t144.5 105.5t99.5 159t37 199.5q0 106 -37 198.5t-99.5 160t-144 105.5t-170.5 38h-194v-440h246v-144h-246v-420
h194z" />
    <glyph glyph-name="Ntilde" unicode="&#xd1;" horiz-adv-x="1280" 
d="M758 1546q31 0 56 31q26 31 26 92h92q0 -117 -52 -176t-122 -59q-47 0 -78 20t-54 46q-24 26 -45 46q-22 20 -49 21q-31 0 -56 -31q-26 -31 -25 -92h-93q0 117 53 176q52 59 121 59q45 0 77 -20t56 -46t45 -46q21 -21 48 -21zM1116 1290v-1290h-143l-645 973v-973h-164
v1290h143l645 -973v973h164z" />
    <glyph glyph-name="Ograve" unicode="&#xd2;" horiz-adv-x="1351" 
d="M727 1444h-102l-174 246h153zM236 645q0 -111 36 -205q37 -94 99 -162q61 -69 141 -107t164 -38t164 38t141 107t98 162q37 94 37 205t-37 205t-98 163t-141 106q-80 38 -164 38t-164 -38t-141 -106q-61 -69 -99 -163q-36 -94 -36 -205zM1280 645q0 -139 -50 -258
t-133 -208t-193 -139t-228 -50q-119 0 -229 50t-192 139q-83 89 -133 208t-50 258q0 137 50 257t133 209t192 139q110 50 229 50t228 -50q110 -50 193 -139t133 -209t50 -257z" />
    <glyph glyph-name="Oacute" unicode="&#xd3;" horiz-adv-x="1351" 
d="M748 1690h153l-174 -246h-102zM236 645q0 -111 36 -205q37 -94 99 -162q61 -69 141 -107t164 -38t164 38t141 107t98 162q37 94 37 205t-37 205t-98 163t-141 106q-80 38 -164 38t-164 -38t-141 -106q-61 -69 -99 -163q-36 -94 -36 -205zM1280 645q0 -139 -50 -258
t-133 -208t-193 -139t-228 -50q-119 0 -229 50t-192 139q-83 89 -133 208t-50 258q0 137 50 257t133 209t192 139q110 50 229 50t228 -50q110 -50 193 -139t133 -209t50 -257z" />
    <glyph glyph-name="Ocircumflex" unicode="&#xd4;" horiz-adv-x="1351" 
d="M932 1434h-154l-102 143l-103 -143h-153l184 245h144zM236 645q0 -111 36 -205q37 -94 99 -162q61 -69 141 -107t164 -38t164 38t141 107t98 162q37 94 37 205t-37 205t-98 163t-141 106q-80 38 -164 38t-164 -38t-141 -106q-61 -69 -99 -163q-36 -94 -36 -205zM1280 645
q0 -139 -50 -258t-133 -208t-193 -139t-228 -50q-119 0 -229 50t-192 139q-83 89 -133 208t-50 258q0 137 50 257t133 209t192 139q110 50 229 50t228 -50q110 -50 193 -139t133 -209t50 -257z" />
    <glyph glyph-name="Otilde" unicode="&#xd5;" horiz-adv-x="1351" 
d="M788 1546q31 0 57 31t25 92h93q0 -117 -53 -176q-52 -59 -122 -59q-47 0 -77 20q-31 20 -55 46t-45 46q-22 20 -48 21q-31 0 -56 -31q-26 -31 -26 -92h-92q0 117 52 176t122 59q45 0 77 -20t55 -46q24 -26 45 -46q21 -21 48 -21zM236 645q0 -111 36 -205q37 -94 99 -162
q61 -69 141 -107t164 -38t164 38t141 107t98 162q37 94 37 205t-37 205t-98 163t-141 106q-80 38 -164 38t-164 -38t-141 -106q-61 -69 -99 -163q-36 -94 -36 -205zM1280 645q0 -139 -50 -258t-133 -208t-193 -139t-228 -50q-119 0 -229 50t-192 139q-83 89 -133 208
t-50 258q0 137 50 257t133 209t192 139q110 50 229 50t228 -50q110 -50 193 -139t133 -209t50 -257z" />
    <glyph glyph-name="Odieresis" unicode="&#xd6;" horiz-adv-x="1351" 
d="M522 1464q-39 0 -65 27q-27 27 -27 65q0 39 27 66t65 27q39 0 66 -27t26 -66q0 -39 -26 -65q-27 -27 -66 -27zM829 1464q-39 0 -65 27q-27 27 -27 65q0 39 27 66t65 27q39 0 66 -27t27 -66t-27 -65q-27 -27 -66 -27zM236 645q0 -111 36 -205q37 -94 99 -162
q61 -69 141 -107t164 -38t164 38t141 107t98 162q37 94 37 205t-37 205t-98 163t-141 106q-80 38 -164 38t-164 -38t-141 -106q-61 -69 -99 -163q-36 -94 -36 -205zM1280 645q0 -139 -50 -258t-133 -208t-193 -139t-228 -50q-119 0 -229 50t-192 139q-83 89 -133 208
t-50 258q0 137 50 257t133 209t192 139q110 50 229 50t228 -50q110 -50 193 -139t133 -209t50 -257z" />
    <glyph glyph-name="multiply" unicode="&#xd7;" horiz-adv-x="901" 
d="M778 285l-92 -92l-235 235l-236 -235l-92 92l235 235l-235 236l92 92l236 -236l235 236l92 -92l-235 -236z" />
    <glyph glyph-name="Oslash" unicode="&#xd8;" horiz-adv-x="1372" 
d="M973 1034q-31 35 -74 62q-37 23 -90 42t-123 19q-84 0 -164 -38t-141.5 -106.5t-98 -162.5t-36.5 -205q0 -61 9 -110.5t21 -83.5q12 -41 31 -72zM1290 645q0 -139 -50 -258t-133 -208t-192.5 -139t-228.5 -50q-98 0 -171 25.5t-124 56.5q-59 37 -104 82l-144 -134
l-102 103l154 143q-33 45 -58 105q-23 49 -39 118.5t-16 155.5q0 137 50 257t133 209t192.5 139t228.5 50q96 0 170 -25.5t125 -55.5q59 -37 104 -82l144 133l102 -103l-153 -143q31 -47 55 -104q23 -51 40 -120t17 -155zM399 256q31 -35 74 -61q37 -23 90 -42.5t123 -19.5
q84 0 164 38t141.5 106.5t98 163t36.5 204.5q0 61 -10 110.5t-20 84.5q-14 39 -31 71z" />
    <glyph glyph-name="Ugrave" unicode="&#xd9;" horiz-adv-x="1228" 
d="M686 1444h-102l-174 246h153zM614 -10q-104 0 -190 35t-149 96q-62 61 -97 145t-35 185v839h164v-839q0 -147 84 -233q84 -85 223 -85t224 85q84 85 84 233v839h163v-839q0 -100 -34 -185q-35 -84 -98 -145q-62 -61 -148 -96q-87 -35 -191 -35z" />
    <glyph glyph-name="Uacute" unicode="&#xda;" horiz-adv-x="1228" 
d="M666 1690h153l-174 -246h-102zM614 -10q-104 0 -190 35t-149 96q-62 61 -97 145t-35 185v839h164v-839q0 -147 84 -233q84 -85 223 -85t224 85q84 85 84 233v839h163v-839q0 -100 -34 -185q-35 -84 -98 -145q-62 -61 -148 -96q-87 -35 -191 -35z" />
    <glyph glyph-name="Ucircumflex" unicode="&#xdb;" horiz-adv-x="1228" 
d="M860 1434h-153l-103 143l-102 -143h-154l184 245h144zM614 -10q-104 0 -190 35t-149 96q-62 61 -97 145t-35 185v839h164v-839q0 -147 84 -233q84 -85 223 -85t224 85q84 85 84 233v839h163v-839q0 -100 -34 -185q-35 -84 -98 -145q-62 -61 -148 -96q-87 -35 -191 -35z
" />
    <glyph glyph-name="Udieresis" unicode="&#xdc;" horiz-adv-x="1228" 
d="M461 1464q-39 0 -66 27t-26 65q0 39 26 66q27 27 66 27t65 -27q27 -27 27 -66t-27 -65q-26 -27 -65 -27zM768 1464q-39 0 -66 27t-26 65q0 39 26 66q27 27 66 27t66 -27t26 -66q0 -39 -26 -65q-27 -27 -66 -27zM614 -10q-104 0 -190 35t-149 96q-62 61 -97 145t-35 185
v839h164v-839q0 -147 84 -233q84 -85 223 -85t224 85q84 85 84 233v839h163v-839q0 -100 -34 -185q-35 -84 -98 -145q-62 -61 -148 -96q-87 -35 -191 -35z" />
    <glyph glyph-name="Yacute" unicode="&#xdd;" horiz-adv-x="1024" 
d="M594 1690h154l-175 -246h-102zM20 1290h175l317 -614l317 614h175l-410 -788v-502h-164v502z" />
    <glyph glyph-name="Thorn" unicode="&#xde;" horiz-adv-x="1198" 
d="M328 1290v-225h368q84 0 159 -32t130 -86t88 -124.5t33 -146.5q0 -78 -33 -147.5t-88 -124t-130 -86t-159 -31.5h-368v-287h-164v1290h164zM696 430q49 0 94.5 19.5t79 53.5t53 79t19.5 94t-19.5 94t-53 79t-79 53.5t-94.5 19.5h-368v-492h368z" />
    <glyph glyph-name="germandbls" unicode="&#xdf;" horiz-adv-x="1044" 
d="M748 686q59 -25 106 -68q41 -37 75 -100t34 -160q0 -78 -27 -143t-74 -112.5t-110.5 -75t-137.5 -27.5h-102v133h102q84 0 139.5 62.5t55.5 162.5q0 109 -54.5 167.5t-140.5 58.5h-102v133q86 0 145.5 62.5t59.5 162.5t-59.5 162.5t-145.5 62.5q-43 0 -82 -17t-68.5 -47
t-47 -69t-17.5 -82v-952h-154v952q0 70 29 132.5t79 110.5t116.5 76.5t144.5 28.5q76 0 142.5 -27.5t113.5 -74.5t74.5 -113.5t27.5 -142.5q0 -70 -19.5 -118t-41.5 -79q-26 -36 -61 -59z" />
    <glyph glyph-name="agrave" unicode="&#xe0;" horiz-adv-x="952" 
d="M543 1073h-103l-174 246h154zM481 932q76 0 141 -26t110 -68q46 -43 72 -101q26 -57 25 -123v-614h-112l-41 102q-31 -33 -70 -57q-35 -23 -86 -39t-121 -16t-126 21q-56 22 -96 60t-62 88q-23 50 -23 107q0 66 27 120t92 94q66 40 179 62q114 22 286 21v51q0 70 -54 122
t-141 52q-86 0 -127 -35q-41 -36 -57 -98h-164q8 57 35 108q27 50 71 88t104 59q60 22 138 22zM399 133q61 0 113 20q51 19 87 50t56 68q20 38 21 77v72q-139 0 -223 -11t-130 -33t-62 -51q-15 -30 -15 -69q0 -47 42 -85q41 -38 111 -38z" />
    <glyph glyph-name="aacute" unicode="&#xe1;" horiz-adv-x="952" 
d="M563 1319h154l-174 -246h-103zM481 932q76 0 141 -26t110 -68q46 -43 72 -101q26 -57 25 -123v-614h-112l-41 102q-31 -33 -70 -57q-35 -23 -86 -39t-121 -16t-126 21q-56 22 -96 60t-62 88q-23 50 -23 107q0 66 27 120t92 94q66 40 179 62q114 22 286 21v51
q0 70 -54 122t-141 52q-86 0 -127 -35q-41 -36 -57 -98h-164q8 57 35 108q27 50 71 88t104 59q60 22 138 22zM399 133q61 0 113 20q51 19 87 50t56 68q20 38 21 77v72q-139 0 -223 -11t-130 -33t-62 -51q-15 -30 -15 -69q0 -47 42 -85q41 -38 111 -38z" />
    <glyph glyph-name="acircumflex" unicode="&#xe2;" horiz-adv-x="952" 
d="M748 1065h-154l-102 143l-103 -143h-153l184 246h143zM481 932q76 0 141 -26t110 -68q46 -43 72 -101q26 -57 25 -123v-614h-112l-41 102q-31 -33 -70 -57q-35 -23 -86 -39t-121 -16t-126 21q-56 22 -96 60t-62 88q-23 50 -23 107q0 66 27 120t92 94q66 40 179 62
q114 22 286 21v51q0 70 -54 122t-141 52q-86 0 -127 -35q-41 -36 -57 -98h-164q8 57 35 108q27 50 71 88t104 59q60 22 138 22zM399 133q61 0 113 20q51 19 87 50t56 68q20 38 21 77v72q-139 0 -223 -11t-130 -33t-62 -51q-15 -30 -15 -69q0 -47 42 -85q41 -38 111 -38z" />
    <glyph glyph-name="atilde" unicode="&#xe3;" horiz-adv-x="952" 
d="M604 1157q31 0 56 31q26 31 26 92h92q0 -117 -52 -176t-122 -60q-47 0 -78 21q-31 20 -54 46q-24 26 -45 46q-22 20 -48 21q-31 0 -56 -31q-26 -31 -26 -92h-92q0 117 52 176t122 59q45 0 77 -20t55 -46q24 -26 45 -46q21 -21 48 -21zM481 932q76 0 141 -26t110 -68
q46 -43 72 -101q26 -57 25 -123v-614h-112l-41 102q-31 -33 -70 -57q-35 -23 -86 -39t-121 -16t-126 21q-56 22 -96 60t-62 88q-23 50 -23 107q0 66 27 120t92 94q66 40 179 62q114 22 286 21v51q0 70 -54 122t-141 52q-86 0 -127 -35q-41 -36 -57 -98h-164q8 57 35 108
q27 50 71 88t104 59q60 22 138 22zM399 133q61 0 113 20q51 19 87 50t56 68q20 38 21 77v72q-139 0 -223 -11t-130 -33t-62 -51q-15 -30 -15 -69q0 -47 42 -85q41 -38 111 -38z" />
    <glyph glyph-name="adieresis" unicode="&#xe4;" horiz-adv-x="952" 
d="M328 1096q-39 0 -66 26q-27 27 -26 66q0 39 26 65q27 27 66 27t65 -27q27 -27 27 -65q0 -39 -27 -66q-26 -26 -65 -26zM635 1096q-39 0 -66 26q-27 27 -26 66q0 39 26 65q27 27 66 27t65 -27q27 -27 27 -65q0 -39 -27 -66q-26 -26 -65 -26zM481 932q76 0 141 -26t110 -68
q46 -43 72 -101q26 -57 25 -123v-614h-112l-41 102q-31 -33 -70 -57q-35 -23 -86 -39t-121 -16t-126 21q-56 22 -96 60t-62 88q-23 50 -23 107q0 66 27 120t92 94q66 40 179 62q114 22 286 21v51q0 70 -54 122t-141 52q-86 0 -127 -35q-41 -36 -57 -98h-164q8 57 35 108
q27 50 71 88t104 59q60 22 138 22zM399 133q61 0 113 20q51 19 87 50t56 68q20 38 21 77v72q-139 0 -223 -11t-130 -33t-62 -51q-15 -30 -15 -69q0 -47 42 -85q41 -38 111 -38z" />
    <glyph glyph-name="aring" unicode="&#xe5;" horiz-adv-x="952" 
d="M420 1208q0 -31 20 -51t52 -20q31 0 51 20t20 51t-20 52q-20 20 -51 20t-52 -20q-20 -21 -20 -52zM655 1208q0 -70 -47 -116q-47 -47 -116 -48q-70 0 -117 48q-47 47 -47 116q0 70 47 117t117 47t116 -47q47 -47 47 -117zM481 932q76 0 141 -26t110 -68q46 -43 72 -101
q26 -57 25 -123v-614h-112l-41 102q-31 -33 -70 -57q-35 -23 -86 -39t-121 -16t-126 21q-56 22 -96 60t-62 88q-23 50 -23 107q0 66 27 120t92 94q66 40 179 62q114 22 286 21v51q0 70 -54 122t-141 52q-86 0 -127 -35q-41 -36 -57 -98h-164q8 57 35 108q27 50 71 88t104 59
q60 22 138 22zM399 133q61 0 113 20q51 19 87 50t56 68q20 38 21 77v72q-139 0 -223 -11t-130 -33t-62 -51q-15 -30 -15 -69q0 -47 42 -85q41 -38 111 -38z" />
    <glyph glyph-name="ae" unicode="&#xe6;" horiz-adv-x="1515" 
d="M1423 246q-18 -49 -51 -96.5t-78 -82t-102 -56t-127 -21.5q-82 0 -140.5 28.5t-99.5 63.5q-47 39 -77 92q-35 -53 -86 -92q-43 -35 -109 -63.5t-154 -28.5q-70 0 -126 21.5t-96 56t-62.5 82t-22.5 96.5q0 66 25.5 120t90 94t173 61.5t274.5 21.5v71q0 70 -53 122t-131 52
t-118 -35.5t-56 -97.5h-164q8 57 35 107.5t70 88.5t101 59.5t132 21.5q72 0 127 -22.5t90 -49.5q41 -33 70 -72q33 39 76 72q37 27 92 49.5t129 22.5q80 0 151.5 -32t123.5 -90t83 -141t31 -188q0 -20 -2 -34.5t-4 -24.5q-2 -12 -4 -23h-615q4 -57 25.5 -106t55.5 -84
t76 -55.5t89 -20.5q78 0 125 37t70 76h163zM1055 788q-43 0 -83 -19t-73 -54t-54.5 -82t-25.5 -101h461q-8 117 -73.5 186.5t-151.5 69.5zM399 133q57 0 104.5 17.5t81 47t52 68.5t18.5 82v51q-131 0 -210.5 -11t-124 -30.5t-59.5 -48t-15 -63.5q0 -39 41.5 -76t111.5 -37z
" />
    <glyph glyph-name="ccedilla" unicode="&#xe7;" horiz-adv-x="962" 
d="M502 788q-53 0 -103.5 -23.5t-89.5 -66.5t-61.5 -103t-22.5 -134t22.5 -134.5t61.5 -103.5t89.5 -66.5t103.5 -23.5q45 0 85 16.5t71.5 43t54 61.5t35.5 74h153q-16 -70 -49 -129.5t-80 -104.5t-105.5 -72.5t-123.5 -31.5l-41 -72q61 -8 97 -44t36 -89t-46 -93t-138 -40
q-20 0 -37 1t-29 3q-14 2 -27 6v82q10 -4 25 -6q10 -2 25.5 -3t31.5 -1q47 0 69.5 19.5t22.5 41.5q0 23 -22.5 42.5t-69.5 19.5q-12 0 -21 -2t-16 -5q-8 -2 -14 -4l62 144q-78 12 -146.5 49t-120 97.5t-82 142t-30.5 182.5q0 104 33.5 190t92 148.5t137.5 97.5t167 35
q76 0 142.5 -26.5t118.5 -73t87 -107.5t51 -131h-153q-12 39 -35 73.5t-54.5 61.5t-71.5 43t-85 16z" />
    <glyph glyph-name="egrave" unicode="&#xe8;" horiz-adv-x="972" 
d="M543 1073h-103l-174 246h154zM881 246q-23 -49 -58 -96t-82 -82t-106 -57t-133 -21q-88 0 -167 35t-137 97t-93 148q-34 86 -33 191q0 104 33 190q34 86 92 149q57 62 134 97t161 35t158 -33q75 -33 130 -93t88 -146q33 -85 33 -189q0 -20 -2 -35q-2 -14 -4 -24
q-2 -12 -4 -23h-655q4 -49 27 -96q24 -47 60 -82t83 -56q47 -22 96 -22q43 0 77 12t61 29q28 16 46 36q18 19 31 36h164zM492 788q-47 0 -90 -20q-42 -20 -76 -55q-35 -35 -59 -84t-31 -107h501q-16 123 -85 195q-68 71 -160 71z" />
    <glyph glyph-name="eacute" unicode="&#xe9;" horiz-adv-x="972" 
d="M563 1319h154l-174 -246h-103zM881 246q-23 -49 -58 -96t-82 -82t-106 -57t-133 -21q-88 0 -167 35t-137 97t-93 148q-34 86 -33 191q0 104 33 190q34 86 92 149q57 62 134 97t161 35t158 -33q75 -33 130 -93t88 -146q33 -85 33 -189q0 -20 -2 -35q-2 -14 -4 -24
q-2 -12 -4 -23h-655q4 -49 27 -96q24 -47 60 -82t83 -56q47 -22 96 -22q43 0 77 12t61 29q28 16 46 36q18 19 31 36h164zM492 788q-47 0 -90 -20q-42 -20 -76 -55q-35 -35 -59 -84t-31 -107h501q-16 123 -85 195q-68 71 -160 71z" />
    <glyph glyph-name="ecircumflex" unicode="&#xea;" horiz-adv-x="972" 
d="M748 1065h-154l-102 143l-103 -143h-153l184 246h143zM881 246q-23 -49 -58 -96t-82 -82t-106 -57t-133 -21q-88 0 -167 35t-137 97t-93 148q-34 86 -33 191q0 104 33 190q34 86 92 149q57 62 134 97t161 35t158 -33q75 -33 130 -93t88 -146q33 -85 33 -189q0 -20 -2 -35
q-2 -14 -4 -24q-2 -12 -4 -23h-655q4 -49 27 -96q24 -47 60 -82t83 -56q47 -22 96 -22q43 0 77 12t61 29q28 16 46 36q18 19 31 36h164zM492 788q-47 0 -90 -20q-42 -20 -76 -55q-35 -35 -59 -84t-31 -107h501q-16 123 -85 195q-68 71 -160 71z" />
    <glyph glyph-name="edieresis" unicode="&#xeb;" horiz-adv-x="972" 
d="M338 1096q-39 0 -66 26q-27 27 -26 66q0 39 26 65q27 27 66 27t65 -27q27 -27 27 -65q0 -39 -27 -66q-26 -26 -65 -26zM645 1096q-39 0 -65 26q-27 27 -27 66t27 65q27 27 65 27q39 0 66 -27t26 -65q0 -39 -26 -66q-27 -26 -66 -26zM881 246q-23 -49 -58 -96t-82 -82
t-106 -57t-133 -21q-88 0 -167 35t-137 97t-93 148q-34 86 -33 191q0 104 33 190q34 86 92 149q57 62 134 97t161 35t158 -33q75 -33 130 -93t88 -146q33 -85 33 -189q0 -20 -2 -35q-2 -14 -4 -24q-2 -12 -4 -23h-655q4 -49 27 -96q24 -47 60 -82t83 -56q47 -22 96 -22
q43 0 77 12t61 29q28 16 46 36q18 19 31 36h164zM492 788q-47 0 -90 -20q-42 -20 -76 -55q-35 -35 -59 -84t-31 -107h501q-16 123 -85 195q-68 71 -160 71z" />
    <glyph glyph-name="igrave" unicode="&#xec;" horiz-adv-x="419" 
d="M266 1065h-102l-174 246h153zM287 0h-154v922h154v-922z" />
    <glyph glyph-name="iacute" unicode="&#xed;" horiz-adv-x="419" 
d="M276 1311h154l-174 -246h-102zM287 0h-154v922h154v-922z" />
    <glyph glyph-name="icircumflex" unicode="&#xee;" horiz-adv-x="419" 
d="M461 1065h-154l-102 143l-103 -143h-153l184 246h143zM287 0h-154v922h154v-922z" />
    <glyph glyph-name="idieresis" unicode="&#xef;" horiz-adv-x="419" 
d="M51 1096q-39 0 -65 26q-27 27 -27 66t27 65q27 27 65 27q39 0 66 -27t26 -65q0 -39 -26 -66q-27 -26 -66 -26zM358 1096q-39 0 -65 26q-27 27 -27 66t27 65q27 27 65 27q39 0 66 -27t27 -65q0 -39 -27 -66q-27 -26 -66 -26zM287 0h-154v922h154v-922z" />
    <glyph glyph-name="eth" unicode="&#xf0;" horiz-adv-x="1044" 
d="M696 1198q72 -68 127 -166q47 -86 88 -214t41 -306q0 -123 -32.5 -220t-91 -164t-139.5 -102.5t-177 -35.5q-92 0 -172 34.5t-140.5 95t-94 142.5t-33.5 178t33.5 178t91 142.5t134.5 95.5t161 35q78 0 133 -19.5t92 -42.5q43 -27 71 -61q-16 80 -47.5 144.5t-64.5 109.5
q-37 53 -82 94l-184 -123l-72 103l154 102q-35 23 -72 40t-70 30q-37 12 -74 22l52 123q49 -16 100 -39q41 -18 89 -41.5t87 -52.5l164 113l72 -103zM512 133q57 0 109.5 23.5t91.5 64.5t62.5 97.5t23.5 121.5q0 66 -23.5 122t-62.5 97t-91.5 65t-109.5 24t-109.5 -24
t-91.5 -65t-62.5 -97t-23.5 -122t23.5 -122t62.5 -97t91.5 -64.5t109.5 -23.5z" />
    <glyph glyph-name="ntilde" unicode="&#xf1;" horiz-adv-x="1034" 
d="M645 1178q31 0 56 30q26 31 26 92h92q0 -117 -52 -176t-122 -59q-47 0 -78 20t-54 47q-24 26 -45 46q-22 20 -48 20q-31 0 -56 -31q-26 -31 -26 -92h-92q0 117 52 176t122 60q45 0 77 -21q32 -20 55 -46q24 -26 45 -46t48 -20zM553 932q74 0 138 -30q65 -30 114 -82
t78 -126t28 -162v-532h-153v532q0 57 -19 105q-18 47 -49 81t-72 52t-86 18q-109 0 -177 -69q-69 -70 -68 -187v-532h-154v922h113l41 -103q29 31 67 55q35 23 84 40q49 18 115 18z" />
    <glyph glyph-name="ograve" unicode="&#xf2;" 
d="M563 1065h-102l-174 246h153zM225 461q0 -74 23 -134t61 -104q39 -43 89 -66q50 -24 104 -24q53 0 103 24t88 66q38 43 62 104q24 60 23 134q0 74 -23 134q-24 60 -62 103t-88 67t-103 23q-53 0 -104 -23q-50 -24 -89 -67t-61 -103q-23 -60 -23 -134zM932 461
q0 -104 -34 -191q-34 -86 -92 -148t-137 -97t-167 -35t-167 35t-137 97t-93 148q-34 86 -33 191q0 104 33 190q34 86 93 149q58 62 137 97t167 35t167 -35t137 -97t92 -149q34 -86 34 -190z" />
    <glyph glyph-name="oacute" unicode="&#xf3;" 
d="M584 1311h153l-174 -246h-102zM225 461q0 -74 23 -134t61 -104q39 -43 89 -66q50 -24 104 -24q53 0 103 24t88 66q38 43 62 104q24 60 23 134q0 74 -23 134q-24 60 -62 103t-88 67t-103 23q-53 0 -104 -23q-50 -24 -89 -67t-61 -103q-23 -60 -23 -134zM932 461
q0 -104 -34 -191q-34 -86 -92 -148t-137 -97t-167 -35t-167 35t-137 97t-93 148q-34 86 -33 191q0 104 33 190q34 86 93 149q58 62 137 97t167 35t167 -35t137 -97t92 -149q34 -86 34 -190z" />
    <glyph glyph-name="ocircumflex" unicode="&#xf4;" 
d="M758 1065h-154l-102 143l-103 -143h-153l184 246h143zM225 461q0 -74 23 -134t61 -104q39 -43 89 -66q50 -24 104 -24q53 0 103 24t88 66q38 43 62 104q24 60 23 134q0 74 -23 134q-24 60 -62 103t-88 67t-103 23q-53 0 -104 -23q-50 -24 -89 -67t-61 -103
q-23 -60 -23 -134zM932 461q0 -104 -34 -191q-34 -86 -92 -148t-137 -97t-167 -35t-167 35t-137 97t-93 148q-34 86 -33 191q0 104 33 190q34 86 93 149q58 62 137 97t167 35t167 -35t137 -97t92 -149q34 -86 34 -190z" />
    <glyph glyph-name="otilde" unicode="&#xf5;" 
d="M614 1157q31 0 57 31t25 92h92q0 -117 -52 -176t-122 -60q-47 0 -77 21q-31 20 -55 46t-45 46q-22 20 -48 21q-31 0 -56 -31q-26 -31 -26 -92h-92q0 117 52 176t122 59q45 0 77 -20t55 -46q24 -26 45 -46q21 -21 48 -21zM225 461q0 -74 23 -134t61 -104q39 -43 89 -66
q50 -24 104 -24q53 0 103 24t88 66q38 43 62 104q24 60 23 134q0 74 -23 134q-24 60 -62 103t-88 67t-103 23q-53 0 -104 -23q-50 -24 -89 -67t-61 -103q-23 -60 -23 -134zM932 461q0 -104 -34 -191q-34 -86 -92 -148t-137 -97t-167 -35t-167 35t-137 97t-93 148
q-34 86 -33 191q0 104 33 190q34 86 93 149q58 62 137 97t167 35t167 -35t137 -97t92 -149q34 -86 34 -190z" />
    <glyph glyph-name="odieresis" unicode="&#xf6;" 
d="M348 1096q-39 0 -65 26q-27 27 -27 66t27 65q27 27 65 27q39 0 66 -27t26 -65q0 -39 -26 -66q-27 -26 -66 -26zM655 1096q-39 0 -65 26q-27 27 -27 66t27 65q27 27 65 27q39 0 66 -27t27 -65q0 -39 -27 -66q-27 -26 -66 -26zM225 461q0 -74 23 -134t61 -104
q39 -43 89 -66q50 -24 104 -24q53 0 103 24t88 66q38 43 62 104q24 60 23 134q0 74 -23 134q-24 60 -62 103t-88 67t-103 23q-53 0 -104 -23q-50 -24 -89 -67t-61 -103q-23 -60 -23 -134zM932 461q0 -104 -34 -191q-34 -86 -92 -148t-137 -97t-167 -35t-167 35t-137 97
t-93 148q-34 86 -33 191q0 104 33 190q34 86 93 149q58 62 137 97t167 35t167 -35t137 -97t92 -149q34 -86 34 -190z" />
    <glyph glyph-name="divide" unicode="&#xf7;" horiz-adv-x="901" 
d="M829 461h-757v133h757v-133zM451 758q-47 0 -75 27.5t-28 74.5t27.5 75t75.5 28q47 0 74.5 -28t27.5 -75t-27.5 -74.5t-74.5 -27.5zM451 297q47 0 74.5 -27.5t27.5 -74.5t-27.5 -75t-74.5 -28t-75 27.5t-28 75.5q0 47 28 74.5t75 27.5z" />
    <glyph glyph-name="oslash" unicode="&#xf8;" horiz-adv-x="1044" 
d="M696 717q-23 18 -49 35q-23 14 -54.5 25t-70.5 11q-53 0 -103 -23.5t-89 -66.5t-61.5 -103t-22.5 -134q0 -29 4 -53.5t10 -45.5q8 -23 16 -45zM952 461q0 -104 -33.5 -190.5t-92 -149t-137.5 -97t-167 -34.5q-70 0 -123 16.5t-90 38.5q-43 25 -73 57l-103 -102l-92 102
l113 103q-18 31 -31 69q-12 35 -21.5 81t-9.5 106q0 104 34 190t92 148.5t137 97.5t167 35q70 0 123 -17.5t90 -40.5q43 -25 74 -55l102 103l93 -103l-113 -102q16 -31 31 -70q10 -35 20 -82t10 -104zM348 205q23 -20 49 -37q23 -14 54.5 -24.5t70.5 -10.5q53 0 103.5 23.5
t88.5 66.5t61.5 103.5t23.5 134.5q0 27 -5.5 52.5t-11.5 45.5q-8 23 -14 45z" />
    <glyph glyph-name="ugrave" unicode="&#xf9;" horiz-adv-x="1034" 
d="M604 1073h-102l-174 246h153zM492 -10q-74 0 -139 29q-65 30 -113 82q-49 52 -78 126t-29 162v533h154v-533q0 -57 17 -104t48 -81t72 -52t88 -19q109 0 177 70q69 70 69 186v533h153v-922h-112l-41 102q-29 -33 -68 -57q-35 -23 -84 -39q-48 -16 -114 -16z" />
    <glyph glyph-name="uacute" unicode="&#xfa;" horiz-adv-x="1034" 
d="M584 1321h153l-174 -246h-102zM492 -10q-74 0 -139 29q-65 30 -113 82q-49 52 -78 126t-29 162v533h154v-533q0 -57 17 -104t48 -81t72 -52t88 -19q109 0 177 70q69 70 69 186v533h153v-922h-112l-41 102q-29 -33 -68 -57q-35 -23 -84 -39q-48 -16 -114 -16z" />
    <glyph glyph-name="ucircumflex" unicode="&#xfb;" horiz-adv-x="1034" 
d="M768 1065h-154l-102 143l-102 -143h-154l184 246h144zM492 -10q-74 0 -139 29q-65 30 -113 82q-49 52 -78 126t-29 162v533h154v-533q0 -57 17 -104t48 -81t72 -52t88 -19q109 0 177 70q69 70 69 186v533h153v-922h-112l-41 102q-29 -33 -68 -57q-35 -23 -84 -39
q-48 -16 -114 -16z" />
    <glyph glyph-name="udieresis" unicode="&#xfc;" horiz-adv-x="1034" 
d="M358 1096q-39 0 -65 26q-27 27 -27 66t27 65q27 27 65 27q39 0 66 -27t27 -65q0 -39 -27 -66q-27 -26 -66 -26zM666 1096q-39 0 -66 26q-27 27 -27 66t27 65q27 27 66 27t65 -27q27 -27 27 -65q0 -39 -27 -66q-26 -26 -65 -26zM492 -10q-74 0 -139 29q-65 30 -113 82
q-49 52 -78 126t-29 162v533h154v-533q0 -57 17 -104t48 -81t72 -52t88 -19q109 0 177 70q69 70 69 186v533h153v-922h-112l-41 102q-29 -33 -68 -57q-35 -23 -84 -39q-48 -16 -114 -16z" />
    <glyph glyph-name="yacute" unicode="&#xfd;" horiz-adv-x="921" 
d="M532 1319h154l-174 -246h-102zM20 922h164l277 -707l276 707h164l-399 -1004q-55 -139 -116 -198q-60 -58 -150 -58q-12 0 -23 1q-10 1 -20 3t-19 6v123q70 0 105 31t59 92l41 102z" />
    <glyph glyph-name="thorn" unicode="&#xfe;" horiz-adv-x="1085" 
d="M276 461q0 -74 24 -134.5t62.5 -103.5t91 -66.5t109.5 -23.5t109.5 23.5t91.5 66.5t62.5 103.5t23.5 134.5t-23.5 134t-62.5 103t-91 66.5t-110 23.5q-57 0 -109.5 -23.5t-91 -66.5t-62.5 -103t-24 -134zM297 809q29 35 70 61q35 23 86 42.5t120 19.5q88 0 167 -35
t137.5 -97.5t92.5 -148.5t34 -190t-34 -190.5t-92.5 -149t-137 -97t-167.5 -34.5q-70 0 -121 19.5t-85 41.5q-41 27 -70 62v-441h-154v1618h154v-481z" />
    <glyph glyph-name="ydieresis" unicode="&#xff;" horiz-adv-x="921" 
d="M307 1096q-39 0 -65 26q-27 27 -27 66t27 65q27 27 65 27q39 0 66 -27t26 -65q0 -39 -26 -66q-27 -26 -66 -26zM614 1096q-39 0 -65 26q-27 27 -27 66t27 65q27 27 65 27q39 0 66 -27t27 -65q0 -39 -27 -66q-27 -26 -66 -26zM20 922h164l277 -707l276 707h164l-399 -1004
q-55 -139 -116 -198q-60 -58 -150 -58q-12 0 -23 1q-10 1 -20 3t-19 6v123q70 0 105 31t59 92l41 102z" />
    <glyph glyph-name="Amacron" unicode="&#x100;" horiz-adv-x="1126" 
d="M809 1464h-492v123h492v-123zM829 317h-532l-123 -317h-174l492 1290h143l491 -1290h-174zM348 461h430l-215 563z" />
    <glyph glyph-name="amacron" unicode="&#x101;" horiz-adv-x="952" 
d="M727 1116h-491v123h491v-123zM481 932q76 0 141 -26t110 -68q46 -43 72 -101q26 -57 25 -123v-614h-112l-41 102q-31 -33 -70 -57q-35 -23 -86 -39t-121 -16t-126 21q-56 22 -96 60t-62 88q-23 50 -23 107q0 66 27 120t92 94q66 40 179 62q114 22 286 21v51q0 70 -54 122
t-141 52q-86 0 -127 -35q-41 -36 -57 -98h-164q8 57 35 108q27 50 71 88t104 59q60 22 138 22zM399 133q61 0 113 20q51 19 87 50t56 68q20 38 21 77v72q-139 0 -223 -11t-130 -33t-62 -51q-15 -30 -15 -69q0 -47 42 -85q41 -38 111 -38z" />
    <glyph glyph-name="Abreve" unicode="&#x102;" horiz-adv-x="1126" 
d="M563 1434q-100 0 -165 66q-65 67 -81 159h123q8 -53 42 -88t81 -35t81 35t42 88h123q-16 -92 -81 -159q-65 -66 -165 -66zM829 317h-532l-123 -317h-174l492 1290h143l491 -1290h-174zM348 461h430l-215 563z" />
    <glyph glyph-name="abreve" unicode="&#x103;" horiz-adv-x="952" 
d="M492 1065q-100 0 -165 67t-81 158h123q8 -53 42 -88t81 -35t80 35q34 35 42 88h123q-16 -92 -81 -158q-64 -67 -164 -67zM481 932q76 0 141 -26t110 -68q46 -43 72 -101q26 -57 25 -123v-614h-112l-41 102q-31 -33 -70 -57q-35 -23 -86 -39t-121 -16t-126 21
q-56 22 -96 60t-62 88q-23 50 -23 107q0 66 27 120t92 94q66 40 179 62q114 22 286 21v51q0 70 -54 122t-141 52q-86 0 -127 -35q-41 -36 -57 -98h-164q8 57 35 108q27 50 71 88t104 59q60 22 138 22zM399 133q61 0 113 20q51 19 87 50t56 68q20 38 21 77v72
q-139 0 -223 -11t-130 -33t-62 -51q-15 -30 -15 -69q0 -47 42 -85q41 -38 111 -38z" />
    <glyph glyph-name="Aogonek" unicode="&#x104;" horiz-adv-x="1126" 
d="M829 317h-532l-123 -317h-174l492 1290h143l491 -1290h-71q-20 -25 -37 -53q-14 -25 -24.5 -55.5t-10.5 -65.5q0 -39 26.5 -65.5t65.5 -26.5q16 0 29.5 1t25.5 3t27 6v-82q-14 -4 -27 -6q-12 -2 -25 -3t-30 -1q-92 0 -143 48t-51 126q0 35 10 65.5t24 55.5q16 29 37 53z
M348 461h430l-215 563z" />
    <glyph glyph-name="aogonek" unicode="&#x105;" horiz-adv-x="952" 
d="M676 102q-31 -33 -70 -57q-35 -23 -86 -39t-121 -16t-126 21.5t-96 59.5t-62.5 88t-22.5 107q0 66 26.5 120t92 94t179.5 61.5t286 21.5v51q0 70 -54.5 122t-140.5 52t-127 -35.5t-57 -97.5h-164q8 57 35 107.5t71 88.5t104 59.5t138 21.5q76 0 140.5 -25.5t110.5 -68.5
t71.5 -100.5t25.5 -123.5v-614h-10q-20 -25 -37 -53q-14 -25 -24 -55.5t-10 -65.5q0 -39 26.5 -65.5t65.5 -26.5q16 0 29.5 1t25.5 3t27 6v-82q-14 -4 -27 -6q-12 -2 -25.5 -3t-29.5 -1q-92 0 -143.5 48t-51.5 126q0 35 10.5 65.5t24.5 55.5q16 29 37 53zM399 133
q61 0 112.5 19.5t87.5 50t56.5 68.5t20.5 77v72q-139 0 -223 -11.5t-130.5 -33t-61.5 -51t-15 -68.5q0 -47 41.5 -85t111.5 -38z" />
    <glyph glyph-name="Cacute" unicode="&#x106;" horiz-adv-x="1300" 
d="M758 1690h153l-174 -246h-102zM686 1157q-84 0 -164 -38t-141 -106q-61 -69 -98 -163t-37 -205t37 -205t98 -162q61 -69 141 -107t164 -38q76 0 139 24t112 63q48 40 80 94t48 116h174q-27 -92 -76 -172t-120 -140t-160 -94q-90 -34 -197 -34q-119 0 -228 50
q-110 50 -193 139t-133 208t-50 258q0 137 50 257t133 209t193 139t228 50q104 0 192 -33q87 -34 156 -95q70 -60 119 -140t76 -172h-174q-16 61 -48 116q-32 54 -79 94t-108 64q-60 23 -134 23z" />
    <glyph glyph-name="cacute" unicode="&#x107;" horiz-adv-x="962" 
d="M573 1319h154l-174 -246h-102zM502 788q-53 0 -104 -23q-50 -24 -89 -67t-61 -103q-23 -60 -23 -134t23 -134t61 -104q39 -43 89 -66q50 -24 104 -24q45 0 85 17q40 16 71 43q32 27 55 61q23 35 35 74h153q-16 -70 -51 -131t-87 -108q-52 -46 -119 -73t-142 -26
q-88 0 -167 35t-137 97t-93 148q-34 86 -33 191q0 104 33 190q34 86 93 149q58 62 137 97t167 35q76 0 142 -27q67 -27 119 -72q52 -46 87 -108q35 -61 51 -131h-153q-12 39 -35 74t-55 61q-32 27 -71 43q-40 16 -85 16z" />
    <glyph glyph-name="Ccircumflex" unicode="&#x108;" horiz-adv-x="1300" 
d="M942 1434h-154l-102 143l-102 -143h-154l184 245h144zM686 1157q-84 0 -164 -38t-141 -106q-61 -69 -98 -163t-37 -205t37 -205t98 -162q61 -69 141 -107t164 -38q76 0 139 24t112 63q48 40 80 94t48 116h174q-27 -92 -76 -172t-120 -140t-160 -94q-90 -34 -197 -34
q-119 0 -228 50q-110 50 -193 139t-133 208t-50 258q0 137 50 257t133 209t193 139t228 50q104 0 192 -33q87 -34 156 -95q70 -60 119 -140t76 -172h-174q-16 61 -48 116q-32 54 -79 94t-108 64q-60 23 -134 23z" />
    <glyph glyph-name="ccircumflex" unicode="&#x109;" horiz-adv-x="962" 
d="M758 1065h-154l-102 143l-103 -143h-153l184 246h143zM502 788q-53 0 -104 -23q-50 -24 -89 -67t-61 -103q-23 -60 -23 -134t23 -134t61 -104q39 -43 89 -66q50 -24 104 -24q45 0 85 17q40 16 71 43q32 27 55 61q23 35 35 74h153q-16 -70 -51 -131t-87 -108
q-52 -46 -119 -73t-142 -26q-88 0 -167 35t-137 97t-93 148q-34 86 -33 191q0 104 33 190q34 86 93 149q58 62 137 97t167 35q76 0 142 -27q67 -27 119 -72q52 -46 87 -108q35 -61 51 -131h-153q-12 39 -35 74t-55 61q-32 27 -71 43q-40 16 -85 16z" />
    <glyph glyph-name="Ccaron" unicode="&#x10c;" horiz-adv-x="1300" 
d="M748 1434h-144l-184 245h153l103 -143l102 143h154zM686 1157q-84 0 -164 -38t-141 -106q-61 -69 -98 -163t-37 -205t37 -205t98 -162q61 -69 141 -107t164 -38q76 0 139 24t112 63q48 40 80 94t48 116h174q-27 -92 -76 -172t-120 -140t-160 -94q-90 -34 -197 -34
q-119 0 -228 50q-110 50 -193 139t-133 208t-50 258q0 137 50 257t133 209t193 139t228 50q104 0 192 -33q87 -34 156 -95q70 -60 119 -140t76 -172h-174q-16 61 -48 116q-32 54 -79 94t-108 64q-60 23 -134 23z" />
    <glyph glyph-name="ccaron" unicode="&#x10d;" horiz-adv-x="962" 
d="M573 1065h-143l-184 246h153l103 -144l102 144h154zM502 788q-53 0 -104 -23q-50 -24 -89 -67t-61 -103q-23 -60 -23 -134t23 -134t61 -104q39 -43 89 -66q50 -24 104 -24q45 0 85 17q40 16 71 43q32 27 55 61q23 35 35 74h153q-16 -70 -51 -131t-87 -108
q-52 -46 -119 -73t-142 -26q-88 0 -167 35t-137 97t-93 148q-34 86 -33 191q0 104 33 190q34 86 93 149q58 62 137 97t167 35q76 0 142 -27q67 -27 119 -72q52 -46 87 -108q35 -61 51 -131h-153q-12 39 -35 74t-55 61q-32 27 -71 43q-40 16 -85 16z" />
    <glyph glyph-name="Dcaron" unicode="&#x10e;" horiz-adv-x="1218" 
d="M696 1434h-143l-184 245h153l103 -143l102 143h154zM522 143q88 0 170 38t145 106q62 68 99 158q37 91 37 200q0 106 -37 199q-37 92 -99 160t-145 105q-82 38 -170 38h-194v-1004h194zM1137 645q0 -139 -48 -257t-133 -204q-84 -86 -195 -135q-112 -49 -239 -49h-358
v1290h358q127 0 239 -49t195 -135q84 -86 133 -205q48 -119 48 -256z" />
    <glyph glyph-name="dcaron" unicode="&#x10f;" horiz-adv-x="1179" 
d="M1116 1290h146l-123 -246h-95zM799 461q0 74 -23.5 134t-62.5 103t-91.5 66.5t-109.5 23.5t-109.5 -23.5t-91.5 -66.5t-62.5 -103t-23.5 -134t23.5 -134.5t62.5 -103.5t91.5 -66.5t109.5 -23.5t109.5 23.5t91.5 66.5t62.5 103.5t23.5 134.5zM778 102q-31 -33 -69 -57
q-35 -23 -86.5 -39t-120.5 -16q-88 0 -167 34.5t-137.5 97t-92 148.5t-33.5 191q0 104 33.5 190t92 148.5t137.5 97.5t167 35q70 0 121 -19.5t86 -42.5q39 -27 69 -61v481h154v-1290h-113z" />
    <glyph glyph-name="Dcroat" unicode="&#x110;" horiz-adv-x="1269" 
d="M1188 645q0 -139 -48 -257t-132 -204t-196 -135t-239 -49h-358v563h-184v144h184v583h358q127 0 239 -49t196 -135t132 -205t48 -256zM573 143q88 0 170 38t145 106q62 68 99 158q37 91 37 200q0 106 -37 199q-37 92 -99 160t-145 105q-82 38 -170 38h-194v-440h246v-144
h-246v-420h194z" />
    <glyph glyph-name="dcroat" unicode="&#x111;" horiz-adv-x="1034" 
d="M471 1126h256v164h154v-164h153v-133h-153v-993h-113l-41 102q-27 -33 -63 -57q-33 -23 -80 -39t-113 -16q-84 0 -158.5 32.5t-130 90t-88.5 136.5t-33 171t33 171t88.5 136t130 90t158.5 33q66 0 113 -17.5t80 -39.5q37 -25 63 -56v256h-256v133zM215 420
q0 -61 21.5 -113.5t58.5 -91.5t85 -60.5t101 -21.5t101.5 21.5t85.5 60.5t58.5 91t21.5 114q0 61 -21.5 113.5t-58.5 91.5t-85 60.5t-102 21.5q-53 0 -101 -21.5t-85 -60.5t-58.5 -91.5t-21.5 -113.5z" />
    <glyph glyph-name="Emacron" unicode="&#x112;" horiz-adv-x="1105" 
d="M819 1485h-491v123h491v-123zM1004 143v-143h-840v1290h819v-143h-655v-410h604v-143h-604v-451h676z" />
    <glyph glyph-name="emacron" unicode="&#x113;" horiz-adv-x="972" 
d="M737 1116h-491v123h491v-123zM881 246q-23 -49 -58 -96t-82 -82t-106 -57t-133 -21q-88 0 -167 35t-137 97t-93 148q-34 86 -33 191q0 104 33 190q34 86 92 149q57 62 134 97t161 35t158 -33q75 -33 130 -93t88 -146q33 -85 33 -189q0 -20 -2 -35q-2 -14 -4 -24
q-2 -12 -4 -23h-655q4 -49 27 -96q24 -47 60 -82t83 -56q47 -22 96 -22q43 0 77 12t61 29q28 16 46 36q18 19 31 36h164zM492 788q-47 0 -90 -20q-42 -20 -76 -55q-35 -35 -59 -84t-31 -107h501q-16 123 -85 195q-68 71 -160 71z" />
    <glyph glyph-name="Edotaccent" unicode="&#x116;" horiz-adv-x="1105" 
d="M481 1550q0 43 28 71t69 28q43 0 70 -28q28 -28 28 -71q0 -41 -28 -68q-28 -28 -70 -28q-41 0 -69 28q-28 27 -28 68zM1004 143v-143h-840v1290h819v-143h-655v-410h604v-143h-604v-451h676z" />
    <glyph glyph-name="edotaccent" unicode="&#x117;" horiz-adv-x="972" 
d="M399 1182q0 43 28 70q28 28 69 28q43 0 70 -28q28 -28 28 -70q0 -41 -28 -69t-70 -28q-41 0 -69 28t-28 69zM881 246q-23 -49 -58 -96t-82 -82t-106 -57t-133 -21q-88 0 -167 35t-137 97t-93 148q-34 86 -33 191q0 104 33 190q34 86 92 149q57 62 134 97t161 35t158 -33
q75 -33 130 -93t88 -146q33 -85 33 -189q0 -20 -2 -35q-2 -14 -4 -24q-2 -12 -4 -23h-655q4 -49 27 -96q24 -47 60 -82t83 -56q47 -22 96 -22q43 0 77 12t61 29q28 16 46 36q18 19 31 36h164zM492 788q-47 0 -90 -20q-42 -20 -76 -55q-35 -35 -59 -84t-31 -107h501
q-16 123 -85 195q-68 71 -160 71z" />
    <glyph glyph-name="Eogonek" unicode="&#x118;" horiz-adv-x="1105" 
d="M164 0v1290h819v-143h-655v-410h604v-143h-604v-451h676v-143q-20 -25 -37 -53q-14 -25 -24.5 -55.5t-10.5 -65.5q0 -39 26.5 -65.5t65.5 -26.5q16 0 29.5 1t25.5 3t27 6v-82q-14 -4 -27 -6q-12 -2 -25.5 -3t-29.5 -1q-92 0 -143.5 48t-51.5 126q0 35 10.5 65.5
t24.5 55.5q16 29 37 53h-737z" />
    <glyph glyph-name="eogonek" unicode="&#x119;" horiz-adv-x="972" 
d="M881 246q-18 -43 -48 -84t-69 -75t-89 -59.5t-112 -37.5q-18 -23 -31 -47q-12 -23 -21 -52.5t-9 -64.5q0 -39 26.5 -65.5t65.5 -26.5q16 0 29.5 1t25.5 3t27 6v-82q-14 -4 -27 -6q-12 -2 -25.5 -3t-29.5 -1q-92 0 -143.5 48t-51.5 126q0 35 9.5 64.5t21.5 52.5
q12 25 31 47q-78 8 -147.5 45t-124 98.5t-86 144t-31.5 183.5q0 104 33.5 190t91 148.5t134.5 97.5t161 35t158.5 -33t130 -93.5t88 -145.5t32.5 -189q0 -20 -2 -34.5t-4 -24.5q-2 -12 -4 -23h-655q4 -49 27.5 -96t59 -82t83 -56.5t96.5 -21.5q43 0 76.5 12.5t61.5 28.5
t46.5 35.5t30.5 36.5h164zM492 788q-47 0 -89.5 -20t-77 -55t-58 -84t-31.5 -107h501q-16 123 -84.5 194.5t-160.5 71.5z" />
    <glyph glyph-name="Ecaron" unicode="&#x11a;" horiz-adv-x="1105" 
d="M655 1434h-143l-184 245h153l103 -143l102 143h154zM1004 143v-143h-840v1290h819v-143h-655v-410h604v-143h-604v-451h676z" />
    <glyph glyph-name="ecaron" unicode="&#x11b;" horiz-adv-x="972" 
d="M563 1065h-143l-184 246h153l103 -144l102 144h154zM881 246q-23 -49 -58 -96t-82 -82t-106 -57t-133 -21q-88 0 -167 35t-137 97t-93 148q-34 86 -33 191q0 104 33 190q34 86 92 149q57 62 134 97t161 35t158 -33q75 -33 130 -93t88 -146q33 -85 33 -189q0 -20 -2 -35
q-2 -14 -4 -24q-2 -12 -4 -23h-655q4 -49 27 -96q24 -47 60 -82t83 -56q47 -22 96 -22q43 0 77 12t61 29q28 16 46 36q18 19 31 36h164zM492 788q-47 0 -90 -20q-42 -20 -76 -55q-35 -35 -59 -84t-31 -107h501q-16 123 -85 195q-68 71 -160 71z" />
    <glyph glyph-name="Gbreve" unicode="&#x11e;" horiz-adv-x="1382" 
d="M696 1434q-100 0 -165 66q-65 67 -80 159h122q8 -53 42 -88t81 -35t81 35t42 88h123q-16 -92 -81 -159q-65 -66 -165 -66zM686 1157q-84 0 -164 -38t-141 -106q-61 -69 -98 -163t-37 -205t37 -205t98 -162q61 -69 141 -107t164 -38q76 0 147 32t124 84q54 52 86 118
t32 135h-379v143h543v-645h-123l-41 154q-45 -45 -102 -82q-51 -31 -123 -57t-164 -25q-119 0 -228 50q-110 50 -193 139t-133 208t-50 258q0 137 50 257t133 209t193 139t228 50q106 0 194 -30q87 -31 154 -87q68 -56 116 -133t79 -169h-174q-39 123 -127 199
q-88 77 -242 77z" />
    <glyph glyph-name="gbreve" unicode="&#x11f;" horiz-adv-x="1034" 
d="M502 1065q-100 0 -165 67t-81 158h123q8 -53 42 -88t81 -35t81 35t42 88h123q-16 -92 -81 -158q-65 -67 -165 -67zM758 154q-27 -35 -64 -62q-33 -23 -83 -42t-119 -19q-88 0 -165 32q-77 33 -133 93q-56 59 -90 142q-33 83 -32 183q0 100 32 184q33 83 90 142
q56 59 133 92t165 33q70 0 119 -18q50 -17 83 -40q37 -25 64 -55l41 103h112v-891q0 -80 -29 -150q-30 -70 -83 -121t-129 -79q-76 -29 -168 -29q-80 0 -144 21q-63 22 -110 60t-79 88t-46 107h153q23 -53 74 -93t152 -40q117 0 186 68q70 68 70 168v123zM225 481
q0 -70 22 -126t59 -96q38 -40 88 -62q50 -23 108 -23q57 0 107 23t88 62q38 40 60 96t21 126q0 70 -21 126q-22 56 -60 96t-88 63t-107 22q-57 0 -108 -22q-50 -23 -88 -63t-59 -96q-22 -56 -22 -126z" />
    <glyph glyph-name="uni0122" unicode="&#x122;" horiz-adv-x="1382" 
d="M584 -236q0 43 29 73q30 30 73 30t73 -30t29 -73q0 -74 -24 -128q-25 -54 -53 -89q-35 -41 -76 -69l-31 41q20 18 37 41q14 18 28 45q13 27 17 57q-43 0 -73 30q-29 29 -29 72zM686 1157q-84 0 -164 -38t-141 -106q-61 -69 -98 -163t-37 -205t37 -205t98 -162
q61 -69 141 -107t164 -38q76 0 147 32t124 84q54 52 86 118t32 135h-379v143h543v-645h-123l-41 154q-45 -45 -102 -82q-51 -31 -123 -57t-164 -25q-119 0 -228 50q-110 50 -193 139t-133 208t-50 258q0 137 50 257t133 209t193 139t228 50q106 0 194 -30q87 -31 154 -87
q68 -56 116 -133t79 -169h-174q-39 123 -127 199q-88 77 -242 77z" />
    <glyph glyph-name="uni0123" unicode="&#x123;" horiz-adv-x="1034" 
d="M625 1167q0 -43 -30 -72.5t-73 -29.5t-72.5 29.5t-29.5 72.5q0 72 23.5 127.5t52.5 89.5q35 41 77 70l31 -41q-20 -18 -37 -41q-14 -20 -27.5 -46t-17.5 -56q43 0 73 -30t30 -73zM758 154q-27 -35 -64 -62q-33 -23 -83 -42t-119 -19q-88 0 -165 32.5t-133.5 92t-89 142.5
t-32.5 183t32.5 183.5t89 142.5t133 92t165.5 33q70 0 120 -17.5t82 -40.5q37 -25 64 -55l41 103h112v-891q0 -80 -29.5 -149.5t-83 -121t-129 -80t-167.5 -28.5q-80 0 -143.5 21.5t-110.5 59.5t-79 88t-46 107h153q23 -53 74 -93t152 -40q117 0 186.5 67.5t69.5 168.5v123z
M225 481q0 -70 21.5 -126t59.5 -96t88 -62.5t108 -22.5q57 0 107 22.5t88 62.5t59.5 96.5t21.5 125.5q0 70 -21.5 126.5t-59.5 96t-88 62t-107 22.5t-107.5 -22.5t-88.5 -62t-59.5 -96t-21.5 -126.5z" />
    <glyph glyph-name="Imacron" unicode="&#x12a;" horiz-adv-x="491" 
d="M492 1475h-492v122h492v-122zM328 0h-164v1290h164v-1290z" />
    <glyph glyph-name="imacron" unicode="&#x12b;" horiz-adv-x="419" 
d="M451 1116h-492v123h492v-123zM287 0h-154v922h154v-922z" />
    <glyph glyph-name="Iogonek" unicode="&#x12e;" horiz-adv-x="491" 
d="M164 1290h164v-1290h-62q-20 -25 -37 -53q-14 -25 -24 -55.5t-10 -65.5q0 -39 26.5 -65.5t65.5 -26.5q16 0 29.5 1t25.5 3t27 6v-82q-14 -4 -27 -6q-12 -2 -25.5 -3t-29.5 -1q-92 0 -143.5 48t-51.5 126q0 35 10.5 65.5t24.5 55.5q16 29 37 53v1290z" />
    <glyph glyph-name="iogonek" unicode="&#x12f;" horiz-adv-x="419" 
d="M246 0q-20 -25 -37 -53q-14 -25 -25 -56q-10 -31 -10 -65q0 -39 27 -66t65 -26q16 0 30 1q13 1 26 3q12 2 26 6v-82q-14 -4 -26 -6t-26 -3q-13 -1 -30 -1q-92 0 -143 48t-51 126q0 35 10 65q10 31 24 56q16 29 37 53h103zM287 0h-154v922h154v-922zM113 1182q0 43 27 70
q28 28 69 28q43 0 71 -28t27 -70q0 -41 -27 -69q-28 -28 -71 -28q-41 0 -69 28q-27 28 -27 69z" />
    <glyph glyph-name="Idotaccent" unicode="&#x130;" horiz-adv-x="491" 
d="M154 1550q0 43 27 71q28 28 69 28q43 0 71 -28t27 -71q0 -41 -27 -68q-28 -28 -71 -28q-41 0 -69 28q-27 27 -27 68zM328 0h-164v1290h164v-1290z" />
    <glyph glyph-name="dotlessi" unicode="&#x131;" horiz-adv-x="419" 
d="M287 0h-154v922h154v-922z" />
    <glyph glyph-name="ij" unicode="&#x133;" horiz-adv-x="890" 
d="M604 31q-18 -12 -47 -21q-25 -8 -61.5 -14t-85.5 -6q-57 0 -107.5 21.5t-88.5 61.5t-59.5 94t-21.5 120v635h154v-635q0 -61 47 -107.5t117 -46.5q35 0 62.5 6t47.5 15q23 8 43 20v748h154v-953q0 -70 -21.5 -126t-58.5 -96t-85 -62.5t-101 -22.5q-45 0 -70 10
q-14 4 -23 11v133q6 -4 15 -6q16 -4 37 -5q70 0 111.5 43t41.5 121v62zM584 1182q0 43 27.5 70.5t68.5 27.5q43 0 70.5 -27.5t27.5 -70.5q0 -41 -27.5 -69t-70.5 -28q-41 0 -68.5 28t-27.5 69zM113 1182q0 43 27.5 70.5t68.5 27.5q43 0 70.5 -27.5t27.5 -70.5
q0 -41 -27.5 -69t-70.5 -28q-41 0 -68.5 28t-27.5 69z" />
    <glyph glyph-name="uni0136" unicode="&#x136;" horiz-adv-x="1054" 
d="M461 -236q0 43 29 73q30 30 73 30t73 -30t30 -73q0 -74 -25 -128t-53 -89q-35 -41 -76 -69l-31 41q20 18 37 41q14 18 28 45q13 27 17 57q-43 0 -73 30q-29 29 -29 72zM328 0h-164v1290h164v-1290zM328 655l501 635h195l-512 -635l553 -655h-195z" />
    <glyph glyph-name="uni0137" unicode="&#x137;" horiz-adv-x="860" 
d="M369 -236q0 43 29 73q30 30 73 30t73 -30t29 -73q0 -74 -24 -128q-25 -54 -53 -89q-35 -41 -76 -69l-31 41q20 18 37 41q14 18 28 45q13 27 17 57q-43 0 -73 30q-29 29 -29 72zM297 0h-154v1290h154v-1290zM686 0l-389 481l348 441h174l-348 -430l399 -492h-184z" />
    <glyph glyph-name="Lacute" unicode="&#x139;" horiz-adv-x="962" 
d="M307 1690h154l-174 -246h-103zM942 143v-143h-778v1290h164v-1147h614z" />
    <glyph glyph-name="lacute" unicode="&#x13a;" horiz-adv-x="440" 
d="M287 1690h153l-174 -246h-102zM297 0h-154v1290h154v-1290z" />
    <glyph glyph-name="uni013B" unicode="&#x13b;" horiz-adv-x="962" 
d="M461 -236q0 43 29 73q30 30 73 30t73 -30t30 -73q0 -74 -25 -128t-53 -89q-35 -41 -76 -69l-31 41q20 18 37 41q14 18 28 45q13 27 17 57q-43 0 -73 30q-29 29 -29 72zM942 143v-143h-778v1290h164v-1147h614z" />
    <glyph glyph-name="uni013C" unicode="&#x13c;" horiz-adv-x="440" 
d="M113 -236q0 43 29 73q30 30 73 30t73 -30t29 -73q0 -74 -24 -128q-25 -54 -53 -89q-35 -41 -76 -69l-31 41q20 18 37 41q14 18 28 45q13 27 17 57q-43 0 -73 30q-29 29 -29 72zM297 0h-154v1290h154v-1290z" />
    <glyph glyph-name="Lcaron" unicode="&#x13d;" horiz-adv-x="962" 
d="M532 1290h144l-123 -246h-92zM942 143v-143h-778v1290h164v-1147h614z" />
    <glyph glyph-name="lcaron" unicode="&#x13e;" horiz-adv-x="532" 
d="M481 1290h144l-123 -246h-92zM297 0h-154v1290h154v-1290z" />
    <glyph glyph-name="Lslash" unicode="&#x141;" horiz-adv-x="993" 
d="M973 143v-143h-778v399l-144 -92v164l144 92v727h163v-624l308 204v-163l-308 -205v-359h615z" />
    <glyph glyph-name="lslash" unicode="&#x142;" horiz-adv-x="512" 
d="M328 631v-631h-154v530l-154 -100v154l154 100v606h154v-506l164 107v-154z" />
    <glyph glyph-name="Nacute" unicode="&#x143;" horiz-adv-x="1280" 
d="M707 1690h153l-174 -246h-102zM1116 1290v-1290h-143l-645 973v-973h-164v1290h143l645 -973v973h164z" />
    <glyph glyph-name="nacute" unicode="&#x144;" horiz-adv-x="1034" 
d="M594 1321h154l-175 -246h-102zM553 932q74 0 138 -30q65 -30 114 -82t78 -126t28 -162v-532h-153v532q0 57 -19 105q-18 47 -49 81t-72 52t-86 18q-109 0 -177 -69q-69 -70 -68 -187v-532h-154v922h113l41 -103q29 31 67 55q35 23 84 40q49 18 115 18z" />
    <glyph glyph-name="uni0145" unicode="&#x145;" horiz-adv-x="1280" 
d="M532 -236q0 43 30 73t73 30t73 -30t29 -73q0 -74 -24 -128q-25 -54 -54 -89q-35 -41 -75 -69l-31 41q20 18 37 41q14 18 27 45t18 57q-43 0 -73 30q-30 29 -30 72zM1116 1290v-1290h-143l-645 973v-973h-164v1290h143l645 -973v973h164z" />
    <glyph glyph-name="uni0146" unicode="&#x146;" horiz-adv-x="1034" 
d="M420 -236q0 43 30 73t72 30q43 0 73 -30t30 -73q0 -74 -25 -128t-53 -89q-35 -41 -76 -69l-31 41q20 18 37 41q14 18 28 45q13 27 17 57q-43 0 -72 30q-30 29 -30 72zM553 932q74 0 138 -30q65 -30 114 -82t78 -126t28 -162v-532h-153v532q0 57 -19 105q-18 47 -49 81
t-72 52t-86 18q-109 0 -177 -69q-69 -70 -68 -187v-532h-154v922h113l41 -103q29 31 67 55q35 23 84 40q49 18 115 18z" />
    <glyph glyph-name="Ncaron" unicode="&#x147;" horiz-adv-x="1280" 
d="M707 1434h-144l-184 245h153l103 -143l102 143h154zM1116 1290v-1290h-143l-645 973v-973h-164v1290h143l645 -973v973h164z" />
    <glyph glyph-name="ncaron" unicode="&#x148;" horiz-adv-x="1034" 
d="M594 1065h-143l-185 246h154l102 -144l103 144h153zM553 932q74 0 138 -30q65 -30 114 -82t78 -126t28 -162v-532h-153v532q0 57 -19 105q-18 47 -49 81t-72 52t-86 18q-109 0 -177 -69q-69 -70 -68 -187v-532h-154v922h113l41 -103q29 31 67 55q35 23 84 40
q49 18 115 18z" />
    <glyph glyph-name="Omacron" unicode="&#x14c;" horiz-adv-x="1351" 
d="M922 1475h-492v122h492v-122zM236 645q0 -111 36 -205q37 -94 99 -162q61 -69 141 -107t164 -38t164 38t141 107t98 162q37 94 37 205t-37 205t-98 163t-141 106q-80 38 -164 38t-164 -38t-141 -106q-61 -69 -99 -163q-36 -94 -36 -205zM1280 645q0 -139 -50 -258
t-133 -208t-193 -139t-228 -50q-119 0 -229 50t-192 139q-83 89 -133 208t-50 258q0 137 50 257t133 209t192 139q110 50 229 50t228 -50q110 -50 193 -139t133 -209t50 -257z" />
    <glyph glyph-name="omacron" unicode="&#x14d;" 
d="M748 1116h-492v123h492v-123zM225 461q0 -74 23 -134t61 -104q39 -43 89 -66q50 -24 104 -24q53 0 103 24t88 66q38 43 62 104q24 60 23 134q0 74 -23 134q-24 60 -62 103t-88 67t-103 23q-53 0 -104 -23q-50 -24 -89 -67t-61 -103q-23 -60 -23 -134zM932 461
q0 -104 -34 -191q-34 -86 -92 -148t-137 -97t-167 -35t-167 35t-137 97t-93 148q-34 86 -33 191q0 104 33 190q34 86 93 149q58 62 137 97t167 35t167 -35t137 -97t92 -149q34 -86 34 -190z" />
    <glyph glyph-name="Ohungarumlaut" unicode="&#x150;" horiz-adv-x="1351" 
d="M614 1690h154l-184 -246h-103zM901 1690h154l-185 -246h-102zM236 645q0 -111 36 -205q37 -94 99 -162q61 -69 141 -107t164 -38t164 38t141 107t98 162q37 94 37 205t-37 205t-98 163t-141 106q-80 38 -164 38t-164 -38t-141 -106q-61 -69 -99 -163q-36 -94 -36 -205z
M1280 645q0 -139 -50 -258t-133 -208t-193 -139t-228 -50q-119 0 -229 50t-192 139q-83 89 -133 208t-50 258q0 137 50 257t133 209t192 139q110 50 229 50t228 -50q110 -50 193 -139t133 -209t50 -257z" />
    <glyph glyph-name="ohungarumlaut" unicode="&#x151;" 
d="M430 1311h154l-185 -246h-102zM717 1311h153l-184 -246h-102zM225 461q0 -74 23 -134t61 -104q39 -43 89 -66q50 -24 104 -24q53 0 103 24t88 66q38 43 62 104q24 60 23 134q0 74 -23 134q-24 60 -62 103t-88 67t-103 23q-53 0 -104 -23q-50 -24 -89 -67t-61 -103
q-23 -60 -23 -134zM932 461q0 -104 -34 -191q-34 -86 -92 -148t-137 -97t-167 -35t-167 35t-137 97t-93 148q-34 86 -33 191q0 104 33 190q34 86 93 149q58 62 137 97t167 35t167 -35t137 -97t92 -149q34 -86 34 -190z" />
    <glyph glyph-name="OE" unicode="&#x152;" horiz-adv-x="1720" 
d="M1608 143v-143h-922q-121 0 -229.5 50t-192.5 137t-133 205t-49 253t50 252t133 205t192.5 138t228.5 50h901v-143h-583v-410h532v-143h-532v-451h604zM246 645q0 -109 36.5 -200t98 -158.5t141.5 -105.5t164 -38h154v1004h-154q-84 0 -164 -38t-141.5 -105.5t-98 -160
t-36.5 -198.5z" />
    <glyph glyph-name="oe" unicode="&#x153;" horiz-adv-x="1617" 
d="M492 932q86 0 148 -31t105 -67q49 -43 84 -97q33 53 80 97q41 37 101.5 67.5t146.5 30.5q80 0 151.5 -32t124 -91t83 -145t30.5 -193q0 -20 -2 -34.5t-4 -24.5q-2 -12 -4 -23h-614q4 -53 25.5 -100t55 -82t75.5 -54.5t89 -19.5q78 0 125 37t70 76h164q-18 -49 -51 -96.5
t-78 -82t-102.5 -56t-127.5 -21.5q-86 0 -149.5 29.5t-104.5 66.5q-51 43 -84 98q-35 -55 -84 -98q-43 -37 -105 -66.5t-148 -29.5q-84 0 -161 34.5t-134.5 97t-91 148.5t-33.5 191q0 104 33.5 190t91 148.5t134.5 97.5t161 35zM225 461q0 -74 22.5 -134.5t60.5 -103.5
t86 -66.5t98 -23.5q49 0 97 23.5t86 66.5t60.5 103.5t22.5 134.5t-22.5 134t-60.5 103t-86 66.5t-97 23.5t-97.5 -23.5t-86.5 -66.5t-60.5 -103t-22.5 -134zM1157 788q-43 0 -83 -20t-72.5 -55t-54 -84t-25.5 -107h460q-8 123 -73.5 194.5t-151.5 71.5z" />
    <glyph glyph-name="Racute" unicode="&#x154;" horiz-adv-x="1136" 
d="M635 1690h153l-174 -246h-102zM573 532h-245v-532h-164v1290h481q80 0 152 -30q72 -31 124 -82t83 -121t30 -146q0 -113 -45 -183q-45 -71 -98 -112q-63 -49 -141 -73l315 -543h-184zM328 676h317q45 0 86 18t72 50t49 75t18 92t-18 93q-18 43 -49 74q-31 32 -72 50
t-86 19h-317v-471z" />
    <glyph glyph-name="racute" unicode="&#x155;" horiz-adv-x="614" 
d="M420 1311h153l-174 -246h-102zM573 778h-41q-109 0 -177 -69q-69 -70 -68 -187v-522h-154v922h113l41 -103q29 31 67 55q35 23 84 40t115 18h20v-154z" />
    <glyph glyph-name="uni0156" unicode="&#x156;" horiz-adv-x="1136" 
d="M481 -217q0 43 30 73t73 29q43 0 72 -29q30 -30 30 -73q0 -74 -24 -128q-25 -54 -54 -89q-35 -41 -76 -70l-30 41q20 18 37 41q14 18 27 45t18 58q-43 0 -73 29q-30 30 -30 73zM573 532h-245v-532h-164v1290h481q80 0 152 -30q72 -31 124 -82t83 -121t30 -146
q0 -113 -45 -183q-45 -71 -98 -112q-63 -49 -141 -73l315 -543h-184zM328 676h317q45 0 86 18t72 50t49 75t18 92t-18 93q-18 43 -49 74q-31 32 -72 50t-86 19h-317v-471z" />
    <glyph glyph-name="uni0157" unicode="&#x157;" horiz-adv-x="614" 
d="M113 -236q0 43 29 73q30 30 73 30t73 -30t29 -73q0 -74 -24 -128q-25 -54 -53 -89q-35 -41 -76 -69l-31 41q20 18 37 41q14 18 28 45q13 27 17 57q-43 0 -73 30q-29 29 -29 72zM573 778h-41q-109 0 -177 -69q-69 -70 -68 -187v-522h-154v922h113l41 -103q29 31 67 55
q35 23 84 40t115 18h20v-154z" />
    <glyph glyph-name="Rcaron" unicode="&#x158;" horiz-adv-x="1136" 
d="M645 1434h-143l-185 245h154l102 -143l103 143h153zM573 532h-245v-532h-164v1290h481q80 0 152 -30q72 -31 124 -82t83 -121t30 -146q0 -113 -45 -183q-45 -71 -98 -112q-63 -49 -141 -73l315 -543h-184zM328 676h317q45 0 86 18t72 50t49 75t18 92t-18 93
q-18 43 -49 74q-31 32 -72 50t-86 19h-317v-471z" />
    <glyph glyph-name="rcaron" unicode="&#x159;" horiz-adv-x="614" 
d="M430 1065h-143l-185 246h154l102 -144l103 144h153zM573 778h-41q-109 0 -177 -69q-69 -70 -68 -187v-522h-154v922h113l41 -103q29 31 67 55q35 23 84 40t115 18h20v-154z" />
    <glyph glyph-name="Sacute" unicode="&#x15a;" horiz-adv-x="1013" 
d="M584 1690h153l-174 -246h-102zM92 952q0 66 31 128t87 112q56 49 133 79t169 29q84 0 157 -30q73 -31 127 -83t85 -124t30 -152h-163q0 109 -68 178t-168 68q-57 0 -104 -17t-81 -46t-53 -66q-18 -37 -18 -76q0 -80 51 -124t127 -73q76 -30 165 -56t165 -67
q76 -42 127 -111t51 -183q0 -70 -30 -132t-85 -111q-55 -48 -135 -77t-180 -28q-100 0 -180 28q-80 29 -135 81t-85 124t-30 156h164q0 -117 67 -181q68 -65 199 -65t199 60q68 59 67 145q0 80 -51 124t-127 74t-165 55q-89 26 -165 67q-76 42 -127 111q-51 68 -51 183z" />
    <glyph glyph-name="sacute" unicode="&#x15b;" horiz-adv-x="808" 
d="M471 1311h154l-174 -246h-103zM737 266q0 -57 -22 -107q-23 -50 -64 -88t-99 -60t-132 -21q-154 0 -242 82t-96 204h154q8 -61 53 -102t131 -41q78 0 121 40t43 93q0 51 -36 77t-89 41t-116 29q-62 13 -116 40q-53 27 -89 75q-36 49 -36 138q0 53 23 101t62 85
q40 37 97 58q56 22 126 22q147 0 228 -77t89 -200h-154q-8 61 -47 98q-39 36 -116 35q-70 0 -112 -37q-42 -38 -42 -85q0 -51 36 -77t89 -41t116 -29q62 -13 115 -40t89 -77t36 -136z" />
    <glyph glyph-name="Scedilla" unicode="&#x15e;" horiz-adv-x="1013" 
d="M92 952q0 66 31 128.5t87 111.5t133 78.5t169 29.5q84 0 156.5 -30.5t127 -82.5t85 -124t30.5 -152h-163q0 109 -68 177.5t-168 68.5q-57 0 -104.5 -17.5t-81 -46t-52 -65.5t-18.5 -76q0 -80 51 -124t127 -73.5t165 -55t165 -67.5t127 -110.5t51 -183.5q0 -66 -27.5 -125
t-79 -106.5t-123 -78t-159.5 -38.5l-31 -72q61 -8 97 -44t36 -89t-46 -93t-138 -40q-20 0 -36.5 1t-28.5 3q-14 2 -27 6v82q10 -4 24 -6q10 -2 25.5 -3t32.5 -1q47 0 69.5 19.5t22.5 41.5q0 23 -22.5 42.5t-69.5 19.5q-12 0 -21.5 -2t-15.5 -5q-8 -2 -14 -4l61 144
q-88 8 -159.5 39.5t-123 82t-79 119t-27.5 148.5h164q0 -117 67.5 -181.5t198.5 -64.5t198.5 59.5t67.5 145.5q0 80 -51 124t-127 73.5t-165 55t-164.5 67.5t-127 110.5t-51.5 183.5z" />
    <glyph glyph-name="scedilla" unicode="&#x15f;" horiz-adv-x="808" 
d="M737 266q0 -109 -76.5 -184.5t-199.5 -91.5l-31 -72q61 -8 97 -44t36 -89t-46 -93t-138 -40q-20 0 -36.5 1t-29.5 3q-14 2 -26 6v82q10 -4 24 -6q10 -2 25.5 -3t32.5 -1q47 0 69.5 19.5t22.5 41.5q0 23 -22.5 42.5t-69.5 19.5q-12 0 -21.5 -2t-15.5 -5q-8 -2 -15 -4
l62 144q-61 4 -113.5 27.5t-92.5 61.5t-63.5 89t-27.5 108h154q8 -61 53 -102t131 -41q78 0 121 40t43 93q0 51 -36 77t-89 41t-115.5 28.5t-116 40t-89.5 76t-36 137.5q0 53 22.5 101t62.5 85t96.5 58.5t126.5 21.5q147 0 228 -77t89 -200h-154q-8 61 -47 97t-116 36
q-70 0 -112 -37.5t-42 -84.5q0 -51 36 -77t89 -41.5t115.5 -28.5t116 -39.5t89 -77t35.5 -136.5z" />
    <glyph glyph-name="Scaron" unicode="&#x160;" horiz-adv-x="1013" 
d="M584 1434h-144l-184 245h154l102 -143l102 143h154zM92 952q0 66 31 128t87 112q56 49 133 79t169 29q84 0 157 -30q73 -31 127 -83t85 -124t30 -152h-163q0 109 -68 178t-168 68q-57 0 -104 -17t-81 -46t-53 -66q-18 -37 -18 -76q0 -80 51 -124t127 -73q76 -30 165 -56
t165 -67q76 -42 127 -111t51 -183q0 -70 -30 -132t-85 -111q-55 -48 -135 -77t-180 -28q-100 0 -180 28q-80 29 -135 81t-85 124t-30 156h164q0 -117 67 -181q68 -65 199 -65t199 60q68 59 67 145q0 80 -51 124t-127 74t-165 55q-89 26 -165 67q-76 42 -127 111
q-51 68 -51 183z" />
    <glyph glyph-name="scaron" unicode="&#x161;" horiz-adv-x="808" 
d="M471 1065h-143l-185 246h154l102 -144l103 144h153zM737 266q0 -57 -22 -107q-23 -50 -64 -88t-99 -60t-132 -21q-154 0 -242 82t-96 204h154q8 -61 53 -102t131 -41q78 0 121 40t43 93q0 51 -36 77t-89 41t-116 29q-62 13 -116 40q-53 27 -89 75q-36 49 -36 138
q0 53 23 101t62 85q40 37 97 58q56 22 126 22q147 0 228 -77t89 -200h-154q-8 61 -47 98q-39 36 -116 35q-70 0 -112 -37q-42 -38 -42 -85q0 -51 36 -77t89 -41t116 -29q62 -13 115 -40t89 -77t36 -136z" />
    <glyph glyph-name="uni0162" unicode="&#x162;" 
d="M399 -236q0 43 30 73t73 30t72 -30q30 -30 30 -73q0 -74 -24 -128q-25 -54 -54 -89q-35 -41 -75 -69l-31 41q20 18 37 41q14 18 27 45t18 57q-43 0 -73 30q-30 29 -30 72zM973 1147h-389v-1147h-164v1147h-389v143h942v-143z" />
    <glyph glyph-name="uni0163" unicode="&#x163;" horiz-adv-x="655" 
d="M297 -236q0 43 30 73t72 30q43 0 73 -30t30 -73q0 -74 -25 -128t-53 -89q-35 -41 -76 -69l-31 41q20 18 37 41q14 18 28 45q13 27 17 57q-43 0 -72 30q-30 29 -30 72zM225 1167h133v-245h205v-144h-205v-481q0 -78 42 -121t112 -43q20 0 37 4q8 2 14 6v-133
q-10 -6 -22 -10q-27 -10 -70 -10q-53 0 -101 22q-48 23 -85 63t-59 96t-21 126v481h-164v144h72q113 0 112 112v133z" />
    <glyph glyph-name="Tcaron" unicode="&#x164;" 
d="M573 1434h-143l-184 245h153l103 -143l102 143h154zM973 1147h-389v-1147h-164v1147h-389v143h942v-143z" />
    <glyph glyph-name="tcaron" unicode="&#x165;" horiz-adv-x="675" 
d="M635 1290h143l-123 -246h-92zM225 1167h133v-245h205v-144h-205v-481q0 -78 42 -121t112 -43q20 0 37 4q8 2 14 6v-133q-10 -6 -22 -10q-27 -10 -70 -10q-53 0 -101 22.5t-85 62.5t-58.5 96t-21.5 126v481h-164v144h72q113 0 112 112v133z" />
    <glyph glyph-name="Umacron" unicode="&#x16a;" horiz-adv-x="1228" 
d="M860 1475h-491v122h491v-122zM614 -10q-104 0 -190 35t-149 96q-62 61 -97 145t-35 185v839h164v-839q0 -147 84 -233q84 -85 223 -85t224 85q84 85 84 233v839h163v-839q0 -100 -34 -185q-35 -84 -98 -145q-62 -61 -148 -96q-87 -35 -191 -35z" />
    <glyph glyph-name="umacron" unicode="&#x16b;" horiz-adv-x="1034" 
d="M768 1106h-492v123h492v-123zM492 -10q-74 0 -139 29q-65 30 -113 82q-49 52 -78 126t-29 162v533h154v-533q0 -57 17 -104t48 -81t72 -52t88 -19q109 0 177 70q69 70 69 186v533h153v-922h-112l-41 102q-29 -33 -68 -57q-35 -23 -84 -39q-48 -16 -114 -16z" />
    <glyph glyph-name="Uring" unicode="&#x16e;" horiz-adv-x="1228" 
d="M532 1577q0 -31 21 -51q20 -20 51 -21q31 0 51 21q20 20 21 51q0 31 -21 51q-20 20 -51 21q-31 0 -51 -21q-21 -20 -21 -51zM768 1577q0 -70 -47 -117t-117 -47t-117 47t-47 117t47 117t117 47t117 -47t47 -117zM614 -10q-104 0 -190 35t-149 96q-62 61 -97 145t-35 185
v839h164v-839q0 -147 84 -233q84 -85 223 -85t224 85q84 85 84 233v839h163v-839q0 -100 -34 -185q-35 -84 -98 -145q-62 -61 -148 -96q-87 -35 -191 -35z" />
    <glyph glyph-name="uring" unicode="&#x16f;" horiz-adv-x="1034" 
d="M451 1206q0 -31 20 -51t51 -20t51 20t21 51q0 31 -21 51q-20 20 -51 21q-31 0 -51 -21q-20 -20 -20 -51zM686 1206q0 -70 -47 -116q-47 -47 -117 -48q-70 0 -116 48q-47 47 -48 116q0 70 48 117q47 47 116 47q70 0 117 -47t47 -117zM492 -10q-74 0 -139 29
q-65 30 -113 82q-49 52 -78 126t-29 162v533h154v-533q0 -57 17 -104t48 -81t72 -52t88 -19q109 0 177 70q69 70 69 186v533h153v-922h-112l-41 102q-29 -33 -68 -57q-35 -23 -84 -39q-48 -16 -114 -16z" />
    <glyph glyph-name="Uhungarumlaut" unicode="&#x170;" horiz-adv-x="1228" 
d="M543 1690h153l-184 -246h-102zM829 1690h154l-184 -246h-103zM614 -10q-104 0 -190 35t-149 96q-62 61 -97 145t-35 185v839h164v-839q0 -147 84 -233q84 -85 223 -85t224 85q84 85 84 233v839h163v-839q0 -100 -34 -185q-35 -84 -98 -145q-62 -61 -148 -96
q-87 -35 -191 -35z" />
    <glyph glyph-name="uhungarumlaut" unicode="&#x171;" horiz-adv-x="1034" 
d="M461 1321h153l-184 -246h-102zM748 1321h153l-184 -246h-103zM492 -10q-74 0 -139 29q-65 30 -113 82q-49 52 -78 126t-29 162v533h154v-533q0 -57 17 -104t48 -81t72 -52t88 -19q109 0 177 70q69 70 69 186v533h153v-922h-112l-41 102q-29 -33 -68 -57q-35 -23 -84 -39
q-48 -16 -114 -16z" />
    <glyph glyph-name="Uogonek" unicode="&#x172;" horiz-adv-x="1228" 
d="M1085 451q0 -96 -28.5 -174t-80.5 -135.5t-124 -93.5t-156 -48q-20 -29 -37 -57q-14 -25 -24 -55.5t-10 -61.5q0 -39 26.5 -65.5t65.5 -26.5q16 0 29.5 1t25.5 3t27 6v-82q-14 -4 -27 -6q-12 -2 -25.5 -3t-29.5 -1q-92 0 -143.5 48t-51.5 126q0 31 9.5 60.5t21.5 52.5
q14 27 33 51q-92 4 -173 40t-141.5 97t-94.5 144t-34 180v839h164v-839q0 -147 84 -232.5t223 -85.5t223.5 85t84.5 233v839h163v-839v0z" />
    <glyph glyph-name="uogonek" unicode="&#x173;" horiz-adv-x="1034" 
d="M758 102q-29 -33 -68 -57q-35 -23 -84 -39t-114 -16q-74 0 -138.5 29.5t-114 82t-78 126t-28.5 161.5v533h154v-533q0 -57 17.5 -104t48 -81t71.5 -52.5t88 -18.5q109 0 177.5 69.5t68.5 186.5v533h153v-922h-10q-20 -25 -37 -53q-14 -25 -24.5 -55.5t-10.5 -65.5
q0 -39 27 -65.5t66 -26.5q16 0 29.5 1t25.5 3t27 6v-82q-14 -4 -27 -6q-12 -2 -25.5 -3t-29.5 -1q-92 0 -143.5 48t-51.5 126q0 35 10.5 65.5t24.5 55.5q16 29 37 53z" />
    <glyph glyph-name="Ydieresis" unicode="&#x178;" horiz-adv-x="1024" 
d="M358 1464q-39 0 -65 27q-27 27 -27 65q0 39 27 66t65 27q39 0 66 -27t27 -66t-27 -65q-27 -27 -66 -27zM666 1464q-39 0 -66 27t-27 65q0 39 27 66t66 27t65 -27q27 -27 27 -66t-27 -65q-26 -27 -65 -27zM20 1290h175l317 -614l317 614h175l-410 -788v-502h-164v502z" />
    <glyph glyph-name="Zacute" unicode="&#x179;" horiz-adv-x="1013" 
d="M573 1690h154l-174 -246h-102zM276 143h666v-143h-870v102l635 1045h-615v143h819v-102z" />
    <glyph glyph-name="zacute" unicode="&#x17a;" horiz-adv-x="798" 
d="M461 1321h153l-174 -246h-102zM522 778h-450v144h635v-134l-451 -645h471v-143h-655v133z" />
    <glyph glyph-name="Zdotaccent" unicode="&#x17b;" horiz-adv-x="1013" 
d="M399 1550q0 43 28 71t69 28q43 0 70 -28q28 -28 28 -71q0 -41 -28 -68q-28 -28 -70 -28q-41 0 -69 28q-28 27 -28 68zM276 143h666v-143h-870v102l635 1045h-615v143h819v-102z" />
    <glyph glyph-name="zdotaccent" unicode="&#x17c;" horiz-adv-x="798" 
d="M297 1182q0 43 28 70q28 28 68 28q43 0 71 -28t28 -70q0 -41 -28 -69t-71 -28q-41 0 -68 28q-28 28 -28 69zM522 778h-450v144h635v-134l-451 -645h471v-143h-655v133z" />
    <glyph glyph-name="Zcaron" unicode="&#x17d;" horiz-adv-x="1013" 
d="M573 1434h-143l-184 245h153l103 -143l102 143h154zM276 143h666v-143h-870v102l635 1045h-615v143h819v-102z" />
    <glyph glyph-name="zcaron" unicode="&#x17e;" horiz-adv-x="798" 
d="M461 1065h-144l-184 246h154l102 -144l103 144h153zM522 778h-450v144h635v-134l-451 -645h471v-143h-655v133z" />
    <glyph glyph-name="florin" unicode="&#x192;" horiz-adv-x="655" 
d="M266 -31q-12 -66 -41.5 -122t-71.5 -97t-94.5 -64.5t-109.5 -23.5q-45 0 -70 10q-14 4 -22 11l30 133q6 -4 15 -6q16 -4 37 -5q70 0 113.5 43t60.5 121l123 666h-144l21 143h143l41 215q12 66 42 122t72 97t94 64.5t109 23.5q23 0 40.5 -3t29.5 -7q12 -6 23 -10l-31 -133
q-6 2 -14 4q-6 2 -16.5 4t-20.5 2q-70 0 -114 -43t-60 -121l-41 -215h204l-20 -143h-205z" />
    <glyph glyph-name="uni0218" unicode="&#x218;" horiz-adv-x="1013" 
d="M399 -217q0 43 30 73t73 29q43 0 72 -29q30 -30 30 -73q0 -74 -24 -128q-25 -54 -54 -89q-35 -41 -75 -70l-31 41q20 18 37 41q14 18 27 45t18 58q-43 0 -73 29q-30 30 -30 73zM92 952q0 66 31 128t87 112q56 49 133 79t169 29q84 0 157 -30q73 -31 127 -83t85 -124
t30 -152h-163q0 109 -68 178t-168 68q-57 0 -104 -17t-81 -46t-53 -66q-18 -37 -18 -76q0 -80 51 -124t127 -73q76 -30 165 -56t165 -67q76 -42 127 -111t51 -183q0 -70 -30 -132t-85 -111q-55 -48 -135 -77t-180 -28q-100 0 -180 28q-80 29 -135 81t-85 124t-30 156h164
q0 -117 67 -181q68 -65 199 -65t199 60q68 59 67 145q0 80 -51 124t-127 74t-165 55q-89 26 -165 67q-76 42 -127 111q-51 68 -51 183z" />
    <glyph glyph-name="uni0219" unicode="&#x219;" horiz-adv-x="808" 
d="M307 -236q0 43 30 73t73 30t72 -30q30 -30 30 -73q0 -74 -25 -128t-53 -89q-35 -41 -76 -69l-30 41q20 18 37 41q14 18 27 45t18 57q-43 0 -73 30q-30 29 -30 72zM737 266q0 -57 -22 -107q-23 -50 -64 -88t-99 -60t-132 -21q-154 0 -242 82t-96 204h154q8 -61 53 -102
t131 -41q78 0 121 40t43 93q0 51 -36 77t-89 41t-116 29q-62 13 -116 40q-53 27 -89 75q-36 49 -36 138q0 53 23 101t62 85q40 37 97 58q56 22 126 22q147 0 228 -77t89 -200h-154q-8 61 -47 98q-39 36 -116 35q-70 0 -112 -37q-42 -38 -42 -85q0 -51 36 -77t89 -41t116 -29
q62 -13 115 -40t89 -77t36 -136z" />
    <glyph glyph-name="uni021A" unicode="&#x21a;" 
d="M410 -236q0 43 29 73q30 30 73 30t73 -30t29 -73q0 -74 -24 -128q-25 -54 -53 -89q-35 -41 -76 -69l-31 41q20 18 37 41q14 18 28 45q13 27 17 57q-43 0 -73 30q-29 29 -29 72zM973 1147h-389v-1147h-164v1147h-389v143h942v-143z" />
    <glyph glyph-name="uni021B" unicode="&#x21b;" horiz-adv-x="655" 
d="M297 -236q0 43 30 73t72 30q43 0 73 -30t30 -73q0 -74 -25 -128t-53 -89q-35 -41 -76 -69l-31 41q20 18 37 41q14 18 28 45q13 27 17 57q-43 0 -72 30q-30 29 -30 72zM225 1167h133v-245h205v-144h-205v-481q0 -78 42 -121t112 -43q20 0 37 4q8 2 14 6v-133
q-10 -6 -22 -10q-27 -10 -70 -10q-53 0 -101 22q-48 23 -85 63t-59 96t-21 126v481h-164v144h72q113 0 112 112v133z" />
    <glyph glyph-name="uni02BC" unicode="&#x2bc;" horiz-adv-x="327" 
d="M61 1188q0 43 30 72.5t73 29.5t72.5 -29.5t29.5 -72.5q0 -74 -24.5 -128t-53.5 -89q-35 -41 -75 -70l-31 41q20 18 37 41q14 18 27.5 45t17.5 57q-43 0 -73 30t-30 73z" />
    <glyph glyph-name="circumflex" unicode="&#x2c6;" horiz-adv-x="634" 
d="M573 1034h-153l-103 144l-102 -144h-154l185 246h143z" />
    <glyph glyph-name="caron" unicode="&#x2c7;" horiz-adv-x="634" 
d="M389 1034h-143l-185 246h154l102 -143l103 143h153z" />
    <glyph glyph-name="breve" unicode="&#x2d8;" horiz-adv-x="614" 
d="M307 1055q-100 0 -164.5 66.5t-81.5 158.5h123q8 -53 42 -88t81 -35t81 35t42 88h123q-16 -92 -81 -158.5t-165 -66.5z" />
    <glyph glyph-name="dotaccent" unicode="&#x2d9;" horiz-adv-x="317" 
d="M61 1182q0 43 28 70.5t69 27.5q43 0 70.5 -27.5t27.5 -70.5q0 -41 -27.5 -69t-70.5 -28q-41 0 -69 28t-28 69z" />
    <glyph glyph-name="ring" unicode="&#x2da;" horiz-adv-x="450" 
d="M154 1188q0 -31 20.5 -51.5t50.5 -20.5q31 0 51.5 20.5t20.5 51.5t-20.5 51.5t-51.5 20.5t-51 -20.5t-20 -51.5zM389 1188q0 -70 -47 -117t-117 -47t-117 47t-47 117t47.5 117t116.5 47q70 0 117 -47t47 -117z" />
    <glyph glyph-name="ogonek" unicode="&#x2db;" horiz-adv-x="399" 
d="M236 0q-20 -25 -37 -53q-14 -25 -24.5 -55.5t-10.5 -65.5q0 -39 26.5 -65.5t65.5 -26.5q16 0 29.5 1t25.5 3t27 6v-82q-14 -4 -27 -6q-12 -2 -25.5 -3t-29.5 -1q-92 0 -143.5 48t-51.5 126q0 35 10.5 65.5t24.5 55.5q16 29 37 53h103z" />
    <glyph glyph-name="tilde" unicode="&#x2dc;" horiz-adv-x="696" 
d="M461 1157q31 0 56.5 31t25.5 92h92q0 -117 -52.5 -176.5t-121.5 -59.5q-47 0 -78 20.5t-54.5 46.5t-45 46.5t-47.5 20.5q-31 0 -56.5 -31t-25.5 -92h-93q0 117 52.5 176t122.5 59q45 0 76.5 -20.5t55 -46t45 -46t48.5 -20.5z" />
    <glyph glyph-name="hungarumlaut" unicode="&#x2dd;" horiz-adv-x="696" 
d="M195 1290h153l-184 -246h-103zM481 1290h154l-184 -246h-103z" />
    <glyph glyph-name="uni0401" unicode="&#x401;" horiz-adv-x="1105" 
d="M420 1464q-39 0 -66 27t-26 65q0 39 26 66q27 27 66 27t65 -27q27 -27 27 -66t-27 -65q-26 -27 -65 -27zM727 1464q-39 0 -65 27q-27 27 -27 65q0 39 27 66t65 27q39 0 66 -27t26 -66q0 -39 -26 -65q-27 -27 -66 -27zM1004 143v-143h-840v1290h819v-143h-655v-410h604
v-143h-604v-451h676z" />
    <glyph glyph-name="uni0402" unicode="&#x402;" horiz-adv-x="1259" 
d="M737 686q-57 0 -107 -21.5t-88 -59.5t-59.5 -88t-21.5 -107v-410h-164v1147h-297v143h768v-143h-307v-471q35 41 80 76q39 29 93 53t124 24q88 0 164.5 -32.5t133 -93t89.5 -145.5t33 -189q0 -223 -121 -347t-330 -124v143q57 0 109.5 23.5t91.5 66.5t62.5 103.5
t23.5 134.5t-21.5 132t-59.5 99t-88.5 63.5t-107.5 22.5z" />
    <glyph glyph-name="uni0403" unicode="&#x403;" horiz-adv-x="921" 
d="M594 1690h154l-175 -246h-102zM328 1147v-1147h-164v1290h737v-143h-573z" />
    <glyph glyph-name="uni0404" unicode="&#x404;" horiz-adv-x="1280" 
d="M758 573h-522q12 -92 52 -171.5t98 -140t130 -94.5t150 -34q76 0 139 21.5t111.5 58.5t80 85t47.5 101h175q-27 -84 -76 -158.5t-120 -130t-161 -88t-196 -32.5q-115 0 -222.5 50t-190.5 139t-132 208t-49 258q0 137 49 257t132 209t190.5 139t222.5 50q104 0 191 -33.5
t156.5 -91t119 -134t75.5 -160.5h-174q-16 53 -48 103t-79 88t-107.5 61.5t-133.5 23.5q-78 0 -150 -33.5t-130 -94t-98 -140.5t-52 -172h522v-144z" />
    <glyph glyph-name="uni0405" unicode="&#x405;" horiz-adv-x="1013" 
d="M92 952q0 66 31 128t87 112q56 49 133 79t169 29q84 0 157 -30q73 -31 127 -83t85 -124t30 -152h-163q0 109 -68 178t-168 68q-57 0 -104 -17t-81 -46t-53 -66q-18 -37 -18 -76q0 -80 51 -124t127 -73q76 -30 165 -56t165 -67q76 -42 127 -111t51 -183q0 -70 -30 -132
t-85 -111q-55 -48 -135 -77t-180 -28q-100 0 -180 28q-80 29 -135 81t-85 124t-30 156h164q0 -117 67 -181q68 -65 199 -65t199 60q68 59 67 145q0 80 -51 124t-127 74t-165 55q-89 26 -165 67q-76 42 -127 111q-51 68 -51 183z" />
    <glyph glyph-name="uni0406" unicode="&#x406;" horiz-adv-x="491" 
d="M328 0h-164v1290h164v-1290z" />
    <glyph glyph-name="uni0407" unicode="&#x407;" horiz-adv-x="532" 
d="M113 1464q-39 0 -66 27t-27 65q0 39 27 66t66 27t65 -27q27 -27 27 -66t-27 -65q-26 -27 -65 -27zM420 1464q-39 0 -66 27t-26 65q0 39 26 66q27 27 66 27t65 -27q27 -27 27 -66t-27 -65q-26 -27 -65 -27zM348 0h-164v1290h164v-1290z" />
    <glyph glyph-name="uni0408" unicode="&#x408;" horiz-adv-x="942" 
d="M799 1292v-944q0 -74 -29 -138q-29 -65 -81 -114t-124 -78t-155 -28q-84 0 -156 28q-72 29 -124 78t-81 114t-29 138h164q8 -92 71 -153q62 -61 155 -62q100 0 162 62q62 61 63 153v944h164z" />
    <glyph glyph-name="uni0409" unicode="&#x409;" horiz-adv-x="1832" 
d="M911 0v1147h-440l-61 -768q-16 -186 -112.5 -287.5t-236.5 -101.5q-16 0 -28.5 1t-22.5 3t-20 6v133h20q100 0 163 64.5t73 181.5l71 911h758v-491h287q84 0 158.5 -32t130 -87t88.5 -128t33 -153t-33 -152.5t-88.5 -128t-130 -87t-158.5 -31.5h-451zM1075 655v-512h287
q49 0 94 19.5t79 54.5t53.5 82t19.5 100t-19.5 100.5t-53.5 82t-79 54t-94 19.5h-287z" />
    <glyph glyph-name="uni040A" unicode="&#x40a;" horiz-adv-x="1832" 
d="M911 0v655h-583v-655h-164v1290h164v-491h583v491h164v-491h287q84 0 158.5 -32t130 -87t88.5 -128t33 -153t-33 -152.5t-88.5 -128t-130 -87t-158.5 -31.5h-451zM1075 655v-512h287q49 0 94 19.5t79 54.5t53.5 82t19.5 100t-19.5 100.5t-53.5 82t-79 54t-94 19.5h-287z
" />
    <glyph glyph-name="uni040B" unicode="&#x40b;" horiz-adv-x="1280" 
d="M748 829q84 0 156.5 -30.5t126.5 -87t85 -133t31 -168.5v-410h-164v410q0 61 -19.5 112t-54.5 87t-82 56.5t-100 20.5t-101 -21.5t-85 -59.5t-58.5 -88t-21.5 -107v-410h-164v1147h-297v143h768v-143h-307v-471q35 41 78 76q37 29 90 53t119 24z" />
    <glyph glyph-name="uni040C" unicode="&#x40c;" horiz-adv-x="1075" 
d="M328 0h-164v1290h164v-1290zM328 655l501 635h195l-512 -635l553 -655h-195zM635 1690h153l-174 -246h-102z" />
    <glyph glyph-name="uni040E" unicode="&#x40e;" horiz-adv-x="1044" 
d="M522 1444q-100 0 -165 66q-65 67 -81 159h123q8 -53 42 -88t81 -35t81 35t42 88h123q-16 -92 -81 -159q-65 -66 -165 -66zM1024 1290l-451 -1024q-66 -147 -136 -217q-71 -70 -171 -69q-41 0 -76 10q-20 4 -36 10v133q10 -4 20 -6t23 -3q12 -1 28 -1q61 0 104 37
q42 37 70 106l41 92l-420 932h185l327 -737l318 737h174z" />
    <glyph glyph-name="uni040F" unicode="&#x40f;" horiz-adv-x="1259" 
d="M164 0v1290h164v-1147h594v1147h163v-1290h-378v-266h-164v266h-379z" />
    <glyph glyph-name="uni0410" unicode="&#x410;" horiz-adv-x="1126" 
d="M829 317h-532l-123 -317h-174l492 1290h143l491 -1290h-174zM348 461h430l-215 563z" />
    <glyph glyph-name="uni0411" unicode="&#x411;" horiz-adv-x="1136" 
d="M164 1290h799v-164h-635v-368h338q84 0 155.5 -29t123.5 -80t81 -120.5t29 -149.5t-29 -149.5t-81 -121t-123.5 -80t-155.5 -28.5h-502v1290zM328 614v-471h338q100 0 162.5 63.5t62.5 172.5t-62.5 172t-162.5 63h-338z" />
    <glyph glyph-name="uni0412" unicode="&#x412;" horiz-adv-x="1146" 
d="M870 686q53 -27 97 -70q37 -37 67 -98q31 -61 31 -149q0 -72 -31 -139t-86 -117q-55 -51 -130 -82t-163 -31h-491v1290h481q80 0 148 -26q68 -27 116 -74q49 -47 77 -111q28 -63 28 -137q0 -70 -23 -118t-49 -79q-33 -36 -72 -59zM328 748h317q45 0 85 16t69 43t45 61
q16 35 16 74q0 43 -16 80t-45 64q-29 28 -69 44t-85 17h-317v-399zM655 143q109 0 178 68t68 168q0 45 -18 86t-52 72q-33 31 -77 49q-45 18 -99 18h-327v-461h327z" />
    <glyph glyph-name="uni0413" unicode="&#x413;" horiz-adv-x="921" 
d="M328 1147v-1147h-164v1290h737v-143h-573z" />
    <glyph glyph-name="uni0414" unicode="&#x414;" horiz-adv-x="1239" 
d="M1198 143v-409h-154v266h-890v-266h-154v409h72q35 27 63 64q25 33 48.5 80t31.5 112l102 891h738v-1147h143zM891 1147h-424l-88 -748q-8 -66 -25.5 -112.5t-34.5 -79.5q-20 -37 -43 -64h615v1004z" />
    <glyph glyph-name="uni0415" unicode="&#x415;" horiz-adv-x="1105" 
d="M1004 143v-143h-840v1290h819v-143h-655v-410h604v-143h-604v-451h676z" />
    <glyph glyph-name="uni0416" unicode="&#x416;" horiz-adv-x="1515" 
d="M676 1290h164v-1290h-164v1290zM184 0h-194l502 655l-461 635h194l451 -635zM840 655l450 635h195l-461 -635l502 -655h-195z" />
    <glyph glyph-name="uni0417" unicode="&#x417;" 
d="M72 942q8 76 39.5 142.5t84 113.5t125 74.5t160.5 27.5t162 -28.5t126 -77.5t82 -113.5t30 -138.5q0 -70 -28 -120t-60 -83q-37 -37 -86 -63q59 -27 106 -70q41 -37 75 -98.5t34 -149.5q0 -74 -31 -140t-88.5 -116.5t-136 -81t-174.5 -30.5t-173 27.5t-132.5 74.5
t-89.5 112.5t-46 143.5h164q16 -92 85 -153.5t192 -61.5t194.5 66.5t71.5 158.5t-72 159t-194 67h-95v143h84q109 0 172.5 61.5t63.5 153.5t-63.5 153.5t-172.5 61.5t-173 -61.5t-72 -153.5h-164z" />
    <glyph glyph-name="uni0418" unicode="&#x418;" horiz-adv-x="1280" 
d="M952 0v993l-645 -993h-143v1290h164v-993l645 993h143v-1290h-164z" />
    <glyph glyph-name="uni0419" unicode="&#x419;" horiz-adv-x="1280" 
d="M645 1434q-109 0 -174 62q-66 62 -82 163h123q8 -53 44 -88t89 -35t89 35t44 88h123q-16 -100 -82 -163q-65 -62 -174 -62zM952 0v993l-645 -993h-143v1290h164v-993l645 993h143v-1290h-164z" />
    <glyph glyph-name="uni041A" unicode="&#x41a;" horiz-adv-x="1054" 
d="M328 0h-164v1290h164v-1290zM328 655l501 635h195l-512 -635l553 -655h-195z" />
    <glyph glyph-name="uni041B" unicode="&#x41b;" horiz-adv-x="1269" 
d="M1106 1290v-1290h-164v1147h-471l-61 -768q-16 -186 -112.5 -287.5t-236.5 -101.5q-16 0 -28.5 1t-22.5 3t-20 6v133h20q100 0 163 64.5t73 181.5l71 911h789z" />
    <glyph glyph-name="uni041C" unicode="&#x41c;" horiz-adv-x="1556" 
d="M1260 1290h133v-1290h-164v870l-400 -870h-102l-399 870v-870h-164v1290h133l481 -1034z" />
    <glyph glyph-name="uni041D" unicode="&#x41d;" horiz-adv-x="1280" 
d="M1116 1290v-1290h-164v584h-624v-584h-164v1290h164v-563h624v563h164z" />
    <glyph glyph-name="uni041E" unicode="&#x41e;" horiz-adv-x="1351" 
d="M236 645q0 -111 36 -205q37 -94 99 -162q61 -69 141 -107t164 -38t164 38t141 107t98 162q37 94 37 205t-37 205t-98 163t-141 106q-80 38 -164 38t-164 -38t-141 -106q-61 -69 -99 -163q-36 -94 -36 -205zM1280 645q0 -139 -50 -258t-133 -208t-193 -139t-228 -50
q-119 0 -229 50t-192 139q-83 89 -133 208t-50 258q0 137 50 257t133 209t192 139q110 50 229 50t228 -50q110 -50 193 -139t133 -209t50 -257z" />
    <glyph glyph-name="uni041F" unicode="&#x41f;" horiz-adv-x="1290" 
d="M1126 1290v-1290h-163v1147h-635v-1147h-164v1290h962z" />
    <glyph glyph-name="uni0420" unicode="&#x420;" horiz-adv-x="1095" 
d="M604 1290q84 0 159 -32t130 -87t88 -128t33 -152q0 -80 -33 -153t-88 -128t-130 -87t-159 -31h-276v-492h-164v1290h440zM604 635q49 0 94 19t79 55q34 35 53 82t20 100q0 53 -20 100q-19 47 -53 82t-79 54t-94 20h-276v-512h276z" />
    <glyph glyph-name="uni0421" unicode="&#x421;" horiz-adv-x="1300" 
d="M686 1157q-84 0 -164 -38t-141 -106q-61 -69 -98 -163t-37 -205t37 -205t98 -162q61 -69 141 -107t164 -38q76 0 139 24t112 63q48 40 80 94t48 116h174q-27 -92 -76 -172t-120 -140t-160 -94q-90 -34 -197 -34q-119 0 -228 50q-110 50 -193 139t-133 208t-50 258
q0 137 50 257t133 209t193 139t228 50q104 0 192 -33q87 -34 156 -95q70 -60 119 -140t76 -172h-174q-16 61 -48 116q-32 54 -79 94t-108 64q-60 23 -134 23z" />
    <glyph glyph-name="uni0422" unicode="&#x422;" 
d="M973 1147h-389v-1147h-164v1147h-389v143h942v-143z" />
    <glyph glyph-name="uni0423" unicode="&#x423;" horiz-adv-x="1044" 
d="M1024 1290l-451 -1024q-66 -147 -136 -216.5t-171 -69.5q-41 0 -76 10q-20 4 -36 10v133q10 -4 20 -6t22.5 -3t28.5 -1q61 0 103.5 37t70.5 106l41 92l-420 932h185l327 -737l318 737h174z" />
    <glyph glyph-name="uni0424" unicode="&#x424;" horiz-adv-x="1474" 
d="M82 666q0 104 38 192t110.5 154.5t179 106.5t245.5 48v123h164v-123q137 -8 244.5 -48t180.5 -106.5t111 -154.5t38 -192t-38 -192.5t-111 -155t-180.5 -106.5t-244.5 -48v-174h-164v174q-139 8 -245.5 48t-179 106.5t-110.5 155t-38 192.5zM655 1024
q-96 -4 -171.5 -32.5t-129 -77t-81 -112t-27.5 -136.5q0 -74 27.5 -137.5t81 -111.5t129 -77t171.5 -33v717zM819 307q96 4 172 33t129.5 77t81 111.5t27.5 137.5t-27.5 137t-81 111.5t-129.5 77t-172 32.5v-717z" />
    <glyph glyph-name="uni0425" unicode="&#x425;" horiz-adv-x="1064" 
d="M440 655l-399 635h184l307 -491l308 491h184l-399 -635l419 -655h-194l-318 512l-317 -512h-195z" />
    <glyph glyph-name="uni0426" unicode="&#x426;" horiz-adv-x="1269" 
d="M1229 143v-409h-154v266h-911v1290h164v-1147h594v1147h163v-1147h144z" />
    <glyph glyph-name="uni0427" unicode="&#x427;" horiz-adv-x="1208" 
d="M1044 1290v-1290h-163v481q-43 -27 -95 -47q-43 -16 -100 -30.5t-123 -14.5q-193 0 -306.5 114.5t-113.5 315.5v471h164v-471q0 -139 72 -213t194 -74q61 0 116.5 14.5t98.5 31.5q49 20 93 47v665h163z" />
    <glyph glyph-name="uni0428" unicode="&#x428;" horiz-adv-x="1720" 
d="M1556 1290v-1290h-1392v1290h164v-1147h450v1147h164v-1147h451v1147h163z" />
    <glyph glyph-name="uni0429" unicode="&#x429;" horiz-adv-x="1740" 
d="M164 0v1290h164v-1147h450v1147h164v-1147h451v1147h163v-1147h144v-409h-154v266h-1382z" />
    <glyph glyph-name="uni042A" unicode="&#x42a;" horiz-adv-x="1228" 
d="M0 1290h471v-491h287q84 0 158.5 -32t130 -87t88 -128t32.5 -153t-32.5 -152.5t-88 -128t-130 -87t-158.5 -31.5h-451v1147h-307v143zM471 655v-512h287q49 0 94 19.5t79 54.5t53.5 82t19.5 100t-19.5 100.5t-53.5 82t-79 54t-94 19.5h-287z" />
    <glyph glyph-name="uni042B" unicode="&#x42b;" horiz-adv-x="1495" 
d="M1331 0h-164v1290h164v-1290zM164 0v1290h164v-491h266q84 0 158.5 -32t130 -87t88.5 -128t33 -153t-33 -152.5t-88.5 -128t-130 -87t-158.5 -31.5h-430zM328 655v-512h266q49 0 94 19.5t79 54.5t53.5 82t19.5 100t-19.5 100.5t-53.5 82t-79 54t-94 19.5h-266z" />
    <glyph glyph-name="uni042C" unicode="&#x42c;" horiz-adv-x="1085" 
d="M164 0v1290h164v-491h286q84 0 159 -32t130 -87t88 -128t33 -153t-33 -152.5t-88 -128t-130 -87t-159 -31.5h-450zM328 655v-512h286q49 0 94.5 19.5t79 54.5t53 82t19.5 100t-19.5 100.5t-53 82t-78.5 54t-95 19.5h-286z" />
    <glyph glyph-name="uni042D" unicode="&#x42d;" horiz-adv-x="1269" 
d="M512 717h522q-12 92 -52 172t-98.5 140.5t-131 94t-148.5 33.5q-74 0 -134 -23.5t-107.5 -61.5t-80 -88t-46.5 -103h-175q27 84 76 160.5t119 134t157 91t191 33.5q115 0 222.5 -50t190.5 -139t132 -209t49 -257q0 -139 -49 -258t-132 -208t-190.5 -139t-222.5 -50
q-109 0 -198 32.5t-159.5 88t-119.5 130t-76 158.5h174q14 -53 47 -101t81 -85t110.5 -58.5t140.5 -21.5q76 0 148.5 34t131 94.5t98.5 140t52 171.5h-522v144z" />
    <glyph glyph-name="uni042E" unicode="&#x42e;" horiz-adv-x="1720" 
d="M1085 1300q106 0 209 -49t180.5 -136t126 -208t48.5 -262t-48.5 -262t-126 -208t-180 -136t-209.5 -49q-104 0 -200.5 45t-173 123t-126.5 182t-63 223h-194v-563h-164v1290h164v-583h194q12 127 62.5 235.5t127 188t173 124.5t200.5 45zM1085 133q74 0 144.5 37
t128 104.5t92.5 161.5t35 209t-35 209t-92.5 161.5t-128 104.5t-144.5 37t-144.5 -37t-127.5 -104.5t-92 -161.5t-35 -209t35 -209t92 -161.5t127.5 -104.5t144.5 -37z" />
    <glyph glyph-name="uni042F" unicode="&#x42f;" horiz-adv-x="1157" 
d="M256 0h-184l327 543q-80 25 -143 73q-53 41 -98 112t-45 183q0 76 30.5 145.5t83 121t124 82t151.5 30.5h481v-1290h-164v532h-244zM819 1147h-317q-47 0 -88 -18.5t-72 -50t-48.5 -74.5t-17.5 -93q0 -49 17.5 -92t48.5 -74.5t72 -50t88 -18.5h317v471z" />
    <glyph glyph-name="uni0430" unicode="&#x430;" horiz-adv-x="952" 
d="M481 932q76 0 141 -26t110 -68q46 -43 72 -101q26 -57 25 -123v-614h-112l-41 102q-31 -33 -70 -57q-35 -23 -86 -39t-121 -16t-126 21q-56 22 -96 60t-62 88q-23 50 -23 107q0 66 27 120t92 94q66 40 179 62q114 22 286 21v51q0 70 -54 122t-141 52q-86 0 -127 -35
q-41 -36 -57 -98h-164q8 57 35 108q27 50 71 88t104 59q60 22 138 22zM399 133q61 0 113 20q51 19 87 50t56 68q20 38 21 77v72q-139 0 -223 -11t-130 -33t-62 -51q-15 -30 -15 -69q0 -47 42 -85q41 -38 111 -38z" />
    <glyph glyph-name="uni0431" unicode="&#x431;" horiz-adv-x="1024" 
d="M236 737q31 41 75 76q39 29 96.5 53.5t135.5 24.5q80 0 154.5 -35t131 -95.5t90 -142t33.5 -178.5q0 -96 -32.5 -178t-89 -142.5t-133 -95t-165.5 -34.5q-88 0 -167.5 38t-140 110.5t-96.5 179t-36 245.5q0 199 38 337t125 225t230.5 130t354.5 56v-144
q-166 -8 -276.5 -36.5t-179.5 -82t-102.5 -130.5t-45.5 -181zM532 133q53 0 101.5 22.5t85.5 62.5t58.5 96.5t21.5 125.5q0 70 -21.5 126.5t-58.5 96t-85 62.5t-102 23q-53 0 -103 -24t-89 -65t-61.5 -97t-22.5 -122t22.5 -122t61.5 -97t89 -64.5t103 -23.5z" />
    <glyph glyph-name="uni0432" unicode="&#x432;" horiz-adv-x="921" 
d="M696 481q39 -18 72 -47q27 -25 49.5 -65.5t22.5 -102.5q0 -117 -75 -191.5t-192 -74.5h-440v922h410q57 0 106 -19.5t84 -54.5t55.5 -82t20.5 -100q0 -51 -17.5 -85t-39.5 -57q-25 -25 -56 -43zM287 778v-235h235q61 0 97 32.5t36 79.5q0 53 -35.5 88t-97.5 35h-235z
M553 143q53 0 93 40t40 93q0 23 -10 45.5t-28.5 40t-43 27.5t-51.5 10h-266v-256h266z" />
    <glyph glyph-name="uni0433" unicode="&#x433;" horiz-adv-x="747" 
d="M727 778h-440v-778h-154v922h594v-144z" />
    <glyph glyph-name="uni0434" unicode="&#x434;" 
d="M963 143v-368h-144v225h-676v-225h-143v368h51q31 23 55 54q23 27 42.5 63.5t25.5 87.5l62 574h604v-779h123zM328 348q-4 -51 -19.5 -88t-32.5 -63q-20 -31 -40 -54h450v635h-313z" />
    <glyph glyph-name="uni0435" unicode="&#x435;" horiz-adv-x="972" 
d="M881 246q-23 -49 -58 -96t-82 -82t-106 -57t-133 -21q-88 0 -167 35t-137 97t-93 148q-34 86 -33 191q0 104 33 190q34 86 92 149q57 62 134 97t161 35t158 -33q75 -33 130 -93t88 -146q33 -85 33 -189q0 -20 -2 -35q-2 -14 -4 -24q-2 -12 -4 -23h-655q4 -49 27 -96
q24 -47 60 -82t83 -56q47 -22 96 -22q43 0 77 12t61 29q28 16 46 36q18 19 31 36h164zM492 788q-47 0 -90 -20q-42 -20 -76 -55q-35 -35 -59 -84t-31 -107h501q-16 123 -85 195q-68 71 -160 71z" />
    <glyph glyph-name="uni0436" unicode="&#x436;" horiz-adv-x="1218" 
d="M532 922h154v-922h-154v922zM-10 0l368 492l-327 430h174l327 -441l-358 -481h-184zM1044 0l-358 481l328 441h174l-328 -430l369 -492h-185z" />
    <glyph glyph-name="uni0437" unicode="&#x437;" horiz-adv-x="788" 
d="M573 471q37 -20 66 -49q25 -25 46.5 -64t21.5 -92q0 -57 -22.5 -107t-63.5 -88t-99.5 -59.5t-132.5 -21.5q-154 0 -242 82t-96 204h154q8 -61 53 -102t131 -41q78 0 121 40t43 93t-44 93t-120 40h-82v144h82q61 0 102 34.5t41 88.5q0 53 -40.5 87.5t-102.5 34.5
q-86 0 -126 -39.5t-48 -93.5h-154q8 123 91.5 200t236.5 77q66 0 120 -21.5t94 -58.5t61.5 -85t21.5 -101q0 -51 -17.5 -87t-39.5 -61q-25 -29 -56 -47z" />
    <glyph glyph-name="uni0438" unicode="&#x438;" horiz-adv-x="1044" 
d="M911 922v-922h-153v686l-471 -686h-154v922h154v-686l471 686h153z" />
    <glyph glyph-name="uni0439" unicode="&#x439;" horiz-adv-x="1044" 
d="M522 1065q-100 0 -165 67t-81 158h123q8 -53 42 -88t81 -35t81 35t42 88h123q-16 -92 -81 -158q-65 -67 -165 -67zM911 922v-922h-153v686l-471 -686h-154v922h154v-686l471 686h153z" />
    <glyph glyph-name="uni043A" unicode="&#x43a;" horiz-adv-x="849" 
d="M287 0h-154v922h154v-922zM676 0l-389 481l348 441h174l-348 -430l399 -492h-184z" />
    <glyph glyph-name="uni043B" unicode="&#x43b;" horiz-adv-x="983" 
d="M850 922v-922h-154v788h-338l-30 -491q-10 -147 -85 -227t-192 -80q-12 0 -22.5 1t-20.5 3t-18 6v133h20q150 0 164 164l51 625h625z" />
    <glyph glyph-name="uni043C" unicode="&#x43c;" horiz-adv-x="1228" 
d="M563 0l-276 573v-573h-154v922h133l348 -717l349 717h133v-922h-154v573l-276 -573h-103z" />
    <glyph glyph-name="uni043D" unicode="&#x43d;" horiz-adv-x="1044" 
d="M911 922v-922h-153v399h-471v-399h-154v922h154v-379h471v379h153z" />
    <glyph glyph-name="uni043E" unicode="&#x43e;" 
d="M225 461q0 -74 23 -134t61 -104q39 -43 89 -66q50 -24 104 -24q53 0 103 24t88 66q38 43 62 104q24 60 23 134q0 74 -23 134q-24 60 -62 103t-88 67t-103 23q-53 0 -104 -23q-50 -24 -89 -67t-61 -103q-23 -60 -23 -134zM932 461q0 -104 -34 -191q-34 -86 -92 -148
t-137 -97t-167 -35t-167 35t-137 97t-93 148q-34 86 -33 191q0 104 33 190q34 86 93 149q58 62 137 97t167 35t167 -35t137 -97t92 -149q34 -86 34 -190z" />
    <glyph glyph-name="uni043F" unicode="&#x43f;" horiz-adv-x="1044" 
d="M911 922v-922h-153v778h-471v-778h-154v922h778z" />
    <glyph glyph-name="uni0440" unicode="&#x440;" horiz-adv-x="1064" 
d="M266 461q0 -74 24 -134t62 -104q39 -43 91 -66q52 -24 110 -24q57 0 110 24q52 24 91 66q39 43 62 104q24 60 24 134t-24 134t-62 103q-39 43 -91 67t-110 23q-57 0 -110 -23q-52 -24 -91 -67t-62 -103q-24 -60 -24 -134zM287 819q29 31 69 55q35 23 86 40t121 18
q88 0 167 -35t137 -97t92 -149q34 -86 34 -190t-34 -191q-34 -86 -92 -148t-137 -97t-167 -35q-70 0 -121 19t-86 42q-41 27 -69 62v-441h-154v1250h113z" />
    <glyph glyph-name="uni0441" unicode="&#x441;" horiz-adv-x="962" 
d="M502 788q-53 0 -104 -23q-50 -24 -89 -67t-61 -103q-23 -60 -23 -134t23 -134t61 -104q39 -43 89 -66q50 -24 104 -24q45 0 85 17q40 16 71 43q32 27 55 61q23 35 35 74h153q-16 -70 -51 -131t-87 -108q-52 -46 -119 -73t-142 -26q-88 0 -167 35t-137 97t-93 148
q-34 86 -33 191q0 104 33 190q34 86 93 149q58 62 137 97t167 35q76 0 142 -27q67 -27 119 -72q52 -46 87 -108q35 -61 51 -131h-153q-12 39 -35 74t-55 61q-32 27 -71 43q-40 16 -85 16z" />
    <glyph glyph-name="uni0442" unicode="&#x442;" horiz-adv-x="788" 
d="M31 922h727v-144h-287v-778h-154v778h-286v144z" />
    <glyph glyph-name="uni0443" unicode="&#x443;" horiz-adv-x="921" 
d="M20 922h164l277 -707l276 707h164l-399 -1004q-55 -139 -116 -198q-60 -58 -150 -58q-12 0 -23 1q-10 1 -20 3t-19 6v123q70 0 105 31t59 92l41 102z" />
    <glyph glyph-name="uni0444" unicode="&#x444;" horiz-adv-x="1443" 
d="M799 215q20 -27 49 -47q25 -16 58.5 -30.5t76.5 -14.5q100 0 168 81t68 257t-68 257t-168 81q-43 0 -77 -15.5t-58 -31.5q-29 -20 -49 -45v-492zM645 61q-25 -20 -55 -36q-27 -14 -62.5 -24.5t-76.5 -10.5q-78 0 -146.5 31.5t-120 92t-82 148.5t-30.5 199t30.5 199
t82 148t120 92t146.5 32q41 0 76.5 -11.5t62.5 -25.5q31 -16 55 -35v430h154v-430q25 18 55 35q27 14 61.5 25.5t77.5 11.5q76 0 145.5 -32t121 -92t82 -148.5t30.5 -198.5q0 -111 -30.5 -199t-82 -148.5t-121 -92t-145.5 -31.5q-43 0 -77.5 10t-61.5 25q-31 16 -55 36v-389
h-154v389zM645 707q-20 25 -49 45q-25 16 -59.5 31.5t-75.5 15.5q-100 0 -168 -81t-68 -257t67.5 -257t168.5 -81q41 0 75.5 14.5t59.5 30.5q29 20 49 47v492z" />
    <glyph glyph-name="uni0445" unicode="&#x445;" horiz-adv-x="839" 
d="M512 471l328 -471h-174l-246 358l-246 -358h-174l328 471l-308 451h175l225 -338l225 338h174z" />
    <glyph glyph-name="uni0446" unicode="&#x446;" horiz-adv-x="1054" 
d="M1014 143v-368h-144v225h-737v922h154v-779h450v779h154v-779h123z" />
    <glyph glyph-name="uni0447" unicode="&#x447;" horiz-adv-x="983" 
d="M850 922v-922h-154v338q-33 -18 -71 -31q-35 -12 -84 -21.5t-111 -9.5q-70 0 -128 24t-100 69t-65.5 106.5t-23.5 138.5v308h153v-308q0 -86 56.5 -140t148.5 -54q47 0 87 10t71 25q37 16 67 37v430h154z" />
    <glyph glyph-name="uni0448" unicode="&#x448;" horiz-adv-x="1402" 
d="M1270 922v-922h-1137v922h154v-779h338v779h153v-779h338v779h154z" />
    <glyph glyph-name="uni0449" unicode="&#x449;" horiz-adv-x="1433" 
d="M1249 -225v225h-1116v922h154v-779h338v779h153v-779h338v779h154v-779h123v-368h-144z" />
    <glyph glyph-name="uni044A" unicode="&#x44a;" horiz-adv-x="972" 
d="M0 922h379v-328h225q147 0 232.5 -83t85.5 -214t-85 -214t-233 -83h-379v788h-225v134zM604 143q70 0 117 46.5t47 107.5t-47 107.5t-117 46.5h-225v-308h225z" />
    <glyph glyph-name="uni044B" unicode="&#x44b;" horiz-adv-x="1239" 
d="M1106 922v-922h-154v922h154zM492 594q147 0 232 -83t85 -214t-85 -214t-232 -83h-359v922h154v-328h205zM492 143q70 0 116.5 46.5t46.5 107.5t-47 107.5t-116 46.5h-205v-308h205z" />
    <glyph glyph-name="uni044C" unicode="&#x44c;" horiz-adv-x="880" 
d="M512 594q147 0 232 -83t85 -214t-85 -214t-232 -83h-379v922h154v-328h225zM512 143q70 0 117 42t47 112q0 61 -47 107.5t-117 46.5h-225v-308h225z" />
    <glyph glyph-name="uni044D" unicode="&#x44d;" horiz-adv-x="942" 
d="M379 522h338q-16 117 -87 191.5t-179 74.5q-100 0 -162 -52t-84 -122h-154q14 66 49 123.5t85.5 100.5t118 68.5t147.5 25.5q84 0 160.5 -35t134 -97.5t91 -148.5t33.5 -190t-33.5 -190.5t-91 -149t-134 -97t-160.5 -34.5q-80 0 -147.5 25.5t-118 68.5t-85 100.5
t-49.5 122.5h154q23 -70 84 -122t162 -52q49 0 94 19.5t81 54.5t59.5 82t29.5 100h-336v133z" />
    <glyph glyph-name="uni044E" unicode="&#x44e;" horiz-adv-x="1341" 
d="M133 922h154v-400h164q12 88 48 163t91 130t123.5 86t146.5 31q80 0 155 -35t131 -97.5t90 -148.5t34 -190t-34 -190.5t-90 -149t-131 -97t-155 -34.5q-78 0 -146.5 30.5t-123.5 84t-91 127t-48 157.5h-164v-389h-154v922zM604 461q0 -74 22.5 -134.5t59.5 -103.5
t82 -66.5t92 -23.5q45 0 91 23.5t83 66.5t59.5 103.5t22.5 134.5t-22.5 134t-59.5 103t-83 66.5t-91 23.5q-47 0 -92 -23.5t-82 -66.5t-59.5 -103t-22.5 -134z" />
    <glyph glyph-name="uni044F" unicode="&#x44f;" horiz-adv-x="942" 
d="M451 328l-205 -328h-174l215 348q-53 16 -92 53q-35 31 -64 84.5t-29 139.5q0 131 85 214t233 83h389v-922h-154v328h-204zM420 778q-70 0 -117 -46t-47 -107t47 -107.5t117 -46.5h235v307h-235z" />
    <glyph glyph-name="uni0451" unicode="&#x451;" horiz-adv-x="972" 
d="M338 1096q-39 0 -66 26q-27 27 -26 66q0 39 26 65q27 27 66 27t65 -27q27 -27 27 -65q0 -39 -27 -66q-26 -26 -65 -26zM645 1096q-39 0 -65 26q-27 27 -27 66t27 65q27 27 65 27q39 0 66 -27t26 -65q0 -39 -26 -66q-27 -26 -66 -26zM881 246q-23 -49 -58 -96t-82 -82
t-106 -57t-133 -21q-88 0 -167 35t-137 97t-93 148q-34 86 -33 191q0 104 33 190q34 86 92 149q57 62 134 97t161 35t158 -33q75 -33 130 -93t88 -146q33 -85 33 -189q0 -20 -2 -35q-2 -14 -4 -24q-2 -12 -4 -23h-655q4 -49 27 -96q24 -47 60 -82t83 -56q47 -22 96 -22
q43 0 77 12t61 29q28 16 46 36q18 19 31 36h164zM492 788q-47 0 -90 -20q-42 -20 -76 -55q-35 -35 -59 -84t-31 -107h501q-16 123 -85 195q-68 71 -160 71z" />
    <glyph glyph-name="uni0452" unicode="&#x452;" horiz-adv-x="1013" 
d="M553 696q-109 0 -177.5 -69.5t-68.5 -186.5v-440h-153v993h-154v133h154v164h153v-164h256v-133h-256v-276q29 35 68 61q35 23 84 42.5t114 19.5q76 0 143.5 -30t118 -88t79 -142t28.5 -191q0 -123 -29.5 -215t-82 -153.5t-126 -92t-161.5 -30.5v143q49 0 94 21.5
t79 64.5t53 108.5t19 153.5q0 74 -19 130t-52 96t-76 60.5t-88 20.5z" />
    <glyph glyph-name="uni0453" unicode="&#x453;" horiz-adv-x="747" 
d="M496 1311h153l-174 -246h-102zM727 778h-440v-778h-154v922h594v-144z" />
    <glyph glyph-name="uni0454" unicode="&#x454;" horiz-adv-x="952" 
d="M563 389h-336q6 -53 30 -100t59.5 -82t80.5 -54.5t95 -19.5q100 0 161.5 52.5t83.5 121.5h154q-16 -66 -50 -123t-84 -100t-118 -68.5t-147 -25.5q-84 0 -161 34.5t-134.5 97t-91 148.5t-33.5 191q0 104 33.5 190t91 148.5t134.5 97.5t161 35q80 0 147.5 -25.5
t117.5 -68.5t83.5 -100.5t50.5 -123.5h-154q-23 70 -84 122t-161 52q-109 0 -179.5 -74.5t-87.5 -191.5h338v-133z" />
    <glyph glyph-name="uni0455" unicode="&#x455;" horiz-adv-x="808" 
d="M737 266q0 -57 -22 -107q-23 -50 -64 -88t-99 -60t-132 -21q-154 0 -242 82t-96 204h154q8 -61 53 -102t131 -41q78 0 121 40t43 93q0 51 -36 77t-89 41t-116 29q-62 13 -116 40q-53 27 -89 75q-36 49 -36 138q0 53 23 101t62 85q40 37 97 58q56 22 126 22q147 0 228 -77
t89 -200h-154q-8 61 -47 98q-39 36 -116 35q-70 0 -112 -37q-42 -38 -42 -85q0 -51 36 -77t89 -41t116 -29q62 -13 115 -40t89 -77t36 -136z" />
    <glyph glyph-name="uni0456" unicode="&#x456;" horiz-adv-x="419" 
d="M287 0h-154v922h154v-922zM113 1182q0 43 27 70q28 28 69 28q43 0 71 -28t27 -70q0 -41 -27 -69q-28 -28 -71 -28q-41 0 -69 28q-27 28 -27 69z" />
    <glyph glyph-name="uni0457" unicode="&#x457;" horiz-adv-x="440" 
d="M297 0h-154v922h154v-922zM61 1096q-39 0 -65 26q-27 27 -27 66t27 65q27 27 65 27q39 0 66 -27t27 -65q0 -39 -27 -66q-27 -26 -66 -26zM369 1096q-39 0 -66 26q-27 27 -27 66t27 65q27 27 66 27t65 -27q27 -27 27 -65q0 -39 -27 -66q-26 -26 -65 -26z" />
    <glyph glyph-name="uni0458" unicode="&#x458;" horiz-adv-x="419" 
d="M133 922h154v-953q0 -70 -22 -126t-58 -96q-37 -40 -85 -62q-48 -23 -102 -23q-45 0 -69 10q-14 4 -23 11v133q6 -4 15 -6q16 -4 37 -5q70 0 111 43q42 43 42 121v953zM113 1182q0 43 27 70q28 28 69 28q43 0 71 -28t27 -70q0 -41 -27 -69q-28 -28 -71 -28q-41 0 -69 28
q-27 28 -27 69z" />
    <glyph glyph-name="uni0459" unicode="&#x459;" horiz-adv-x="1402" 
d="M809 922v-328h215q147 0 232 -83t85 -214t-85 -214t-232 -83h-369v788h-297l-30 -491q-10 -147 -85 -227t-192 -80q-12 0 -22.5 1t-20.5 3t-18 6v133h20q150 0 164 164l51 625h584zM1024 143q70 0 117 46.5t47 107.5t-47 107.5t-117 46.5h-215v-308h215z" />
    <glyph glyph-name="uni045A" unicode="&#x45a;" horiz-adv-x="1474" 
d="M1085 594q147 0 232.5 -83t85.5 -214t-85 -214t-233 -83h-368v451h-430v-451h-154v922h154v-328h430v328h153v-328h215zM1085 143q70 0 117 46.5t47 107.5t-47 107.5t-117 46.5h-215v-308h215z" />
    <glyph glyph-name="uni045B" unicode="&#x45b;" horiz-adv-x="1054" 
d="M0 1126h154v164h153v-164h256v-133h-256v-276q29 35 68 61q35 23 84 42.5t114 19.5q74 0 138.5 -30t113.5 -82t78 -126t29 -162v-440h-154v440q0 57 -18.5 104.5t-49 81t-71.5 52t-86 18.5q-109 0 -177.5 -69.5t-68.5 -186.5v-440h-153v993h-154v133z" />
    <glyph glyph-name="uni045C" unicode="&#x45c;" horiz-adv-x="849" 
d="M522 1311h154l-174 -246h-103zM287 0h-154v922h154v-922zM676 0l-389 481l348 441h174l-348 -430l399 -492h-184z" />
    <glyph glyph-name="uni045E" unicode="&#x45e;" horiz-adv-x="921" 
d="M20 922h164l277 -707l276 707h164l-399 -1004q-55 -139 -116 -198q-60 -58 -150 -58q-12 0 -23 1q-10 1 -20 3t-19 6v123q70 0 105 31t59 92l41 102zM461 1065q-100 0 -165 67t-81 158h123q8 -53 42 -88t81 -35t81 35t42 88h123q-16 -92 -81 -158q-65 -67 -165 -67z" />
    <glyph glyph-name="uni045F" unicode="&#x45f;" horiz-adv-x="1024" 
d="M133 0v922h154v-779h450v779h154v-922h-307v-225h-144v225h-307z" />
    <glyph glyph-name="uni0490" unicode="&#x490;" horiz-adv-x="921" 
d="M328 1147v-1147h-164v1290h594v256h143v-399h-573z" />
    <glyph glyph-name="uni0491" unicode="&#x491;" horiz-adv-x="747" 
d="M727 1137v-359h-440v-778h-154v922h451v215h143z" />
    <glyph glyph-name="uni1E9E" unicode="&#x1e9e;" horiz-adv-x="1208" 
d="M799 758q92 -16 164 -64q31 -20 60 -48q30 -28 52 -66q23 -39 37 -88t14 -113q0 -80 -28 -150q-29 -70 -80 -120q-51 -51 -121 -80t-149 -29h-113v143h113q92 0 153 64q61 63 62 172q0 109 -62 172q-61 63 -153 63h-113v144l239 389h-331q-43 0 -82 -19q-39 -18 -69 -49
t-47 -71q-17 -41 -17 -86v-922h-164v922q0 74 30 140q30 67 81 117q52 50 121 81t147 30h512v-123z" />
    <glyph glyph-name="endash" unicode="&#x2013;" horiz-adv-x="952" 
d="M881 451h-809v143h809v-143z" />
    <glyph glyph-name="emdash" unicode="&#x2014;" horiz-adv-x="1454" 
d="M1382 451h-1310v143h1310v-143z" />
    <glyph glyph-name="quoteleft" unicode="&#x2018;" horiz-adv-x="348" 
d="M174 1116q47 0 74.5 -27.5t27.5 -74.5t-27.5 -75t-74.5 -28t-74.5 28t-27.5 75q0 72 25.5 127t56.5 90q37 41 82 69l20 -30q-20 -20 -37 -43q-14 -20 -27.5 -48t-17.5 -63z" />
    <glyph glyph-name="quoteright" unicode="&#x2019;" horiz-adv-x="348" 
d="M174 1096q-47 0 -74.5 27.5t-27.5 74.5t27.5 74.5t74.5 27.5t74.5 -27.5t27.5 -74.5q0 -74 -25.5 -128t-55.5 -89q-37 -41 -82 -70l-21 31q20 20 37 43q14 20 27.5 48t17.5 63z" />
    <glyph glyph-name="quotesinglbase" unicode="&#x201a;" horiz-adv-x="348" 
d="M174 -10q-47 0 -74.5 27.5t-27.5 74.5t27.5 75t74.5 28t74.5 -28t27.5 -75q0 -74 -25.5 -128t-55.5 -89q-37 -41 -82 -70l-21 31q20 20 37 43q14 20 27.5 48t17.5 63z" />
    <glyph glyph-name="quotedblleft" unicode="&#x201c;" horiz-adv-x="624" 
d="M174 1116q47 0 74.5 -27.5t27.5 -74.5t-27.5 -75t-74.5 -28t-74.5 28t-27.5 75q0 72 25.5 127t56.5 90q37 41 82 69l20 -30q-20 -20 -37 -43q-14 -20 -27.5 -48t-17.5 -63zM451 1116q47 0 74.5 -27.5t27.5 -74.5t-27.5 -75t-74.5 -28t-75 28t-28 75q0 72 25.5 127
t56.5 90q37 41 82 69l20 -30q-20 -20 -36 -43q-14 -20 -27.5 -48t-17.5 -63z" />
    <glyph glyph-name="quotedblright" unicode="&#x201d;" horiz-adv-x="624" 
d="M451 1096q-47 0 -75 27.5t-28 74.5t27.5 74.5t75.5 27.5q47 0 74.5 -27.5t27.5 -74.5q0 -74 -25.5 -128t-56.5 -89q-37 -41 -82 -70l-20 31q20 20 37 43q14 20 27.5 48t17.5 63zM174 1096q-47 0 -74.5 27.5t-27.5 74.5t27.5 74.5t74.5 27.5t74.5 -27.5t27.5 -74.5
q0 -74 -25.5 -128t-55.5 -89q-37 -41 -82 -70l-21 31q20 20 37 43q14 20 27.5 48t17.5 63z" />
    <glyph glyph-name="quotedblbase" unicode="&#x201e;" horiz-adv-x="634" 
d="M174 -10q-47 0 -74.5 27.5t-27.5 74.5t27.5 75t74.5 28t74.5 -28t27.5 -75q0 -74 -25.5 -128t-55.5 -89q-37 -41 -82 -70l-21 31q20 20 37 43q14 20 27.5 48t17.5 63zM461 -10q-47 0 -75 27.5t-28 74.5t28 75t75 28t74.5 -28t27.5 -75q0 -74 -25.5 -128t-56.5 -89
q-37 -41 -82 -70l-20 31q20 20 37 43q14 20 27.5 48t17.5 63z" />
    <glyph glyph-name="dagger" unicode="&#x2020;" horiz-adv-x="696" 
d="M625 911h-215v-542h-123v542h-215v123h215v256h123v-256h215v-123z" />
    <glyph glyph-name="daggerdbl" unicode="&#x2021;" horiz-adv-x="696" 
d="M625 614h-215v-245h-123v245h-215v123h215v185h-215v122h215v246h123v-246h215v-122h-215v-185h215v-123z" />
    <glyph glyph-name="bullet" unicode="&#x2022;" horiz-adv-x="778" 
d="M205 553q0 78 53 131t131 53t131 -53t53 -131t-53 -131t-131 -53t-131 53t-53 131z" />
    <glyph glyph-name="ellipsis" unicode="&#x2026;" horiz-adv-x="1126" 
d="M72 92q0 47 27.5 75t74.5 28t74.5 -28t27.5 -75t-27.5 -74.5t-74.5 -27.5t-74.5 27.5t-27.5 74.5zM461 92q0 47 27.5 75t74.5 28t75 -28t28 -75t-28 -74.5t-75 -27.5t-74.5 27.5t-27.5 74.5zM850 92q0 47 27.5 75t74.5 28t75 -28t28 -75t-28 -74.5t-75 -27.5t-74.5 27.5
t-27.5 74.5z" />
    <glyph glyph-name="perthousand" unicode="&#x2030;" horiz-adv-x="1820" 
d="M164 0l788 1290h113l-789 -1290h-112zM164 1034q0 -70 46 -117t107 -47t107.5 47.5t46.5 116.5q0 70 -46 117t-108 47q-61 0 -107 -47t-46 -117zM573 1034q0 -53 -19 -100t-54 -82t-82 -54.5t-101 -19.5q-53 0 -100 19.5t-82 54.5t-54.5 82t-19.5 100t19.5 100.5t54.5 82
t82 54t100 19.5t100.5 -19.5t82.5 -54t54 -82t19 -100.5zM748 256q0 -70 46 -117t107 -47t107.5 47t46.5 117t-46 117t-108 47q-61 0 -107 -47t-46 -117zM1157 256q0 -53 -19.5 -100t-54 -82t-82 -54.5t-100.5 -19.5t-100 19.5t-82 54.5t-54.5 82t-19.5 100t19.5 100
t54.5 82t82 54.5t100 19.5t100.5 -19.5t82 -54.5t54 -82t19.5 -100zM1350 256q0 -70 46 -117t107 -47t107.5 47t46.5 117t-46 117t-108 47q-61 0 -107 -47t-46 -117zM1759 256q0 -53 -19.5 -100t-54 -82t-82 -54.5t-100.5 -19.5t-100 19.5t-82 54.5t-54.5 82t-19.5 100
t19.5 100t54.5 82t82 54.5t100 19.5t100.5 -19.5t82 -54.5t54 -82t19.5 -100z" />
    <glyph glyph-name="guilsinglleft" unicode="&#x2039;" horiz-adv-x="522" 
d="M451 133h-154l-225 328l225 327h154l-226 -327z" />
    <glyph glyph-name="guilsinglright" unicode="&#x203a;" horiz-adv-x="522" 
d="M297 461l-225 327h153l226 -327l-226 -328h-153z" />
    <glyph glyph-name="fraction" unicode="&#x2044;" horiz-adv-x="225" 
d="M-348 0l788 1290h133l-788 -1290h-133z" />
    <glyph glyph-name="uni2070" unicode="&#x2070;" horiz-adv-x="614" 
d="M174 1178q0 -109 40 -157t93 -48t93 48t40 157t-40 156.5t-93 47.5t-93 -47.5t-40 -156.5zM553 1178q0 -74 -19.5 -130.5t-53.5 -96.5t-79 -60.5t-94 -20.5t-94 20.5t-79 60.5t-53.5 96.5t-19.5 130.5t19.5 130t53.5 96t79 60.5t94 20.5t94 -20.5t79 -60.5t53.5 -96
t19.5 -130z" />
    <glyph glyph-name="uni2074" unicode="&#x2074;" horiz-adv-x="512" 
d="M379 1096h72v-103h-72v-112h-113v112h-256v82l246 400h123v-379zM266 1096v215l-133 -215h133z" />
    <glyph glyph-name="uni2075" unicode="&#x2075;" horiz-adv-x="552" 
d="M297 1280q86 0 140.5 -56.5t54.5 -148.5q0 -43 -16.5 -80t-45.5 -64.5t-68.5 -44t-85.5 -16.5q-92 0 -145 48.5t-70 125.5h113q8 -31 31.5 -51t70.5 -20t75 27.5t28 74.5q0 53 -27.5 83t-75.5 30q-47 0 -70.5 -19.5t-31.5 -42.5h-92l41 349h328v-103h-234l-12 -112
q8 4 22 10q10 4 28.5 7t41.5 3z" />
    <glyph glyph-name="uni2076" unicode="&#x2076;" horiz-adv-x="532" 
d="M276 1280q92 0 148.5 -56.5t56.5 -148.5t-56 -148.5t-149 -56.5q-92 0 -148 56.5t-56 148.5q0 39 12 76t29 66q18 35 41 63l133 195h123zM276 1178q-37 0 -64.5 -28t-27.5 -75t27 -74.5t65 -27.5q37 0 65 27.5t28 74.5t-28 75t-65 28z" />
    <glyph glyph-name="uni2077" unicode="&#x2077;" horiz-adv-x="471" 
d="M82 1475h389v-72l-246 -522h-112l235 491h-266v103z" />
    <glyph glyph-name="uni2078" unicode="&#x2078;" horiz-adv-x="532" 
d="M266 870q-92 0 -148.5 53.5t-56.5 131.5q0 39 12.5 66.5t28.5 43.5q18 20 41 33q-18 8 -30 25q-12 14 -21.5 35.5t-9.5 52.5q0 70 53 122t131 52t131.5 -52.5t53.5 -121.5q0 -31 -10.5 -52.5t-20.5 -35.5q-14 -16 -31 -25q23 -12 41 -33q16 -16 28.5 -43.5t12.5 -66.5
q0 -78 -56.5 -131.5t-148.5 -53.5zM266 1382q-39 0 -60.5 -20.5t-21.5 -50.5q0 -31 21.5 -51.5t60.5 -20.5t60.5 20.5t21.5 51.5t-21.5 51t-60.5 20zM266 1147q-39 0 -65.5 -26.5t-26.5 -61.5t26.5 -60.5t65.5 -25.5t65.5 25.5t26.5 60.5t-26.5 61.5t-65.5 26.5z" />
    <glyph glyph-name="uni2079" unicode="&#x2079;" horiz-adv-x="532" 
d="M256 1075q-92 0 -148.5 56.5t-56.5 148.5t56.5 148.5t148.5 56.5t148.5 -56.5t56.5 -148.5q0 -39 -12.5 -76t-28.5 -65q-18 -35 -41 -64l-133 -194h-123zM256 1178q37 0 64.5 27.5t27.5 74.5t-26.5 74.5t-65.5 27.5q-37 0 -64.5 -27.5t-27.5 -74.5t27.5 -74.5t64.5 -27.5
z" />
    <glyph glyph-name="uni2080" unicode="&#x2080;" horiz-adv-x="614" 
d="M174 113q0 -109 40 -157t93 -48t93 48t40 157t-40 156.5t-93 47.5t-93 -47.5t-40 -156.5zM553 113q0 -74 -19.5 -130.5t-53.5 -96.5t-79 -60.5t-94 -20.5t-94 20.5t-79 60.5t-53.5 96.5t-19.5 130.5t19.5 130t53.5 96t79 60.5t94 20.5t94 -20.5t79 -60.5t53.5 -96
t19.5 -130z" />
    <glyph glyph-name="uni2081" unicode="&#x2081;" horiz-adv-x="419" 
d="M205 410h82v-594h-113v450l-82 -41l-51 82z" />
    <glyph glyph-name="uni2082" unicode="&#x2082;" horiz-adv-x="522" 
d="M219 -82h242v-102h-400v82l226 235q23 23 42 48.5t19 54.5q0 82 -92 81q-92 0 -92 -92h-103q0 86 54.5 140.5t140.5 54.5q92 0 148.5 -53.5t56.5 -130.5q0 -47 -22.5 -77t-39.5 -46z" />
    <glyph glyph-name="uni2083" unicode="&#x2083;" horiz-adv-x="542" 
d="M399 133q23 -8 41 -29q16 -16 28.5 -44.5t12.5 -69.5q0 -78 -56 -131.5t-149 -53.5q-100 0 -157.5 54.5t-57.5 140.5h103q0 -37 27.5 -64.5t74.5 -27.5t75 25.5t28 56.5q0 39 -28 65.5t-75 26.5h-53v92h53q39 0 60.5 20.5t21.5 51.5t-21.5 51t-60.5 20q-92 0 -92 -81
h-102q0 78 54 131t140 53t140.5 -52.5t54.5 -121.5q0 -31 -10.5 -52.5t-20.5 -35.5q-15 -17 -31 -25z" />
    <glyph glyph-name="uni2084" unicode="&#x2084;" horiz-adv-x="512" 
d="M379 31h72v-103h-72v-112h-113v112h-256v82l246 400h123v-379zM266 31v215l-133 -215h133z" />
    <glyph glyph-name="uni2085" unicode="&#x2085;" horiz-adv-x="552" 
d="M297 215q86 0 140.5 -56.5t54.5 -148.5q0 -43 -16.5 -79.5t-45.5 -64.5t-68.5 -44.5t-85.5 -16.5q-92 0 -145 48.5t-70 126.5h113q8 -31 31.5 -51.5t70.5 -20.5t75 27.5t28 74.5q0 53 -27.5 83t-75.5 30q-47 0 -70.5 -19.5t-31.5 -42.5h-92l41 349h328v-103h-234
l-12 -112q8 4 22 10q10 4 28.5 7t41.5 3z" />
    <glyph glyph-name="uni2086" unicode="&#x2086;" horiz-adv-x="532" 
d="M276 215q92 0 148.5 -56.5t56.5 -148.5t-56 -148.5t-149 -56.5q-92 0 -148 56.5t-56 148.5q0 39 12 76t29 66q18 35 41 63l133 195h123zM276 113q-37 0 -64.5 -28t-27.5 -75t27 -74.5t65 -27.5q37 0 65 27.5t28 74.5t-28 75t-65 28z" />
    <glyph glyph-name="uni2087" unicode="&#x2087;" horiz-adv-x="471" 
d="M82 410h389v-72l-246 -522h-112l235 491h-266v103z" />
    <glyph glyph-name="uni2088" unicode="&#x2088;" horiz-adv-x="532" 
d="M266 -195q-92 0 -148.5 53.5t-56.5 131.5q0 39 12.5 66.5t28.5 43.5q18 20 41 33q-18 8 -30 25q-12 14 -21.5 35.5t-9.5 52.5q0 70 53 122t131 52t131.5 -52.5t53.5 -121.5q0 -31 -10.5 -52.5t-20.5 -35.5q-14 -16 -31 -25q23 -12 41 -33q16 -16 28.5 -43.5t12.5 -66.5
q0 -78 -56.5 -131.5t-148.5 -53.5zM266 317q-39 0 -60.5 -20.5t-21.5 -50.5q0 -31 21.5 -51.5t60.5 -20.5t60.5 20.5t21.5 51.5t-21.5 51t-60.5 20zM266 82q-39 0 -65.5 -26.5t-26.5 -61.5t26.5 -60.5t65.5 -25.5t65.5 25.5t26.5 60.5t-26.5 61.5t-65.5 26.5z" />
    <glyph glyph-name="uni2089" unicode="&#x2089;" horiz-adv-x="532" 
d="M256 10q-92 0 -148.5 56.5t-56.5 148.5t56.5 148.5t148.5 56.5t148.5 -56.5t56.5 -148.5q0 -39 -12.5 -76t-28.5 -65q-18 -35 -41 -64l-133 -194h-123zM256 113q37 0 64.5 27.5t27.5 74.5t-26.5 74.5t-65.5 27.5q-37 0 -64.5 -27.5t-27.5 -74.5t27.5 -74.5t64.5 -27.5z
" />
    <glyph glyph-name="Euro" unicode="&#x20ac;" horiz-adv-x="1351" 
d="M41 707v133h170q29 100 79 184t119.5 145.5t156.5 96t192 34.5q104 0 191 -33.5t156 -94t116 -140.5t69 -172h-174q-12 61 -42 115.5t-76 94.5t-106.5 63.5t-133.5 23.5q-139 0 -235.5 -89t-139.5 -228h385v-133h-410q-2 -10 -2 -21q-2 -10 -2 -22.5v-28.5v-31.5t2 -25.5
q0 -14 2 -25h410v-133h-373q16 -57 49 -109.5t80 -91.5t105.5 -62.5t128.5 -23.5q74 0 134 23.5t106 63.5t76 94.5t42 115.5h174q-23 -92 -69.5 -172t-115.5 -140.5t-156 -94t-191 -33.5t-191.5 33.5t-156 92t-116.5 137.5t-73 167h-180v133h154q-2 10 -2 25q-2 10 -2.5 25
t-0.5 32v28.5t3 22.5q0 10 2 21h-154z" />
    <glyph glyph-name="uni20B4" unicode="&#x20b4;" horiz-adv-x="1116" 
d="M1024 850v-133h-932v133h553q31 10 55 31q23 16 40.5 45.5t17.5 77.5q0 27 -14.5 54t-41 48.5t-61.5 36t-78 14.5q-92 0 -144 -46t-61 -107h-163q4 57 31.5 110t75.5 95t114.5 66.5t146.5 24.5t146.5 -24.5t113.5 -66.5t73 -95t26 -110q0 -43 -11.5 -72t-25.5 -47
q-16 -23 -35 -35h174zM92 440v133h932v-133h-553q-33 -10 -57 -30q-23 -16 -39.5 -46t-16.5 -77q0 -27 14.5 -54.5t41 -49t61.5 -36t78 -14.5q92 0 144.5 46t60.5 108h164q-4 -57 -32 -110.5t-76 -95.5t-114.5 -66.5t-146.5 -24.5t-146.5 24.5t-113.5 66.5t-72.5 95
t-25.5 111q0 41 10 70.5t24 48.5q16 23 37 34h-174z" />
    <glyph glyph-name="uni20BD" unicode="&#x20bd;" horiz-adv-x="1126" 
d="M51 655h154v635h430q88 0 162.5 -30.5t130 -83t86 -124t30.5 -151.5t-30.5 -151.5t-86 -124t-130 -83t-162.5 -30.5h-266v-164h389v-143h-389v-205h-164v205h-154v143h154v164h-154v143zM635 655q109 0 177.5 69t68.5 177q0 109 -68 177.5t-178 68.5h-266v-492h266z" />
    <glyph glyph-name="uni2116" unicode="&#x2116;" horiz-adv-x="1925" 
d="M1311 133h512v-133h-512v133zM1434 594q0 -70 39.5 -112t93.5 -42q53 0 93 42t40 112t-40 112t-93 42t-93 -42t-40 -112zM1843 594q0 -57 -23.5 -109.5t-61.5 -91.5t-88 -62.5t-103 -23.5t-103.5 23.5t-89.5 62.5t-61.5 91.5t-22.5 109.5t22.5 109.5t61.5 91.5t89 62.5
t104 23.5q53 0 103 -23.5t88 -62.5t61.5 -91.5t23.5 -109.5zM1116 1290v-1290h-143l-645 973v-973h-164v1290h143l645 -973v973h164z" />
    <glyph glyph-name="trademark" unicode="&#x2122;" horiz-adv-x="1085" 
d="M430 1198h-154v-430h-102v430h-154v92h410v-92zM727 932l-113 164v-328h-102v522h82l164 -235l164 235h82v-522h-103v328l-113 -164h-61z" />
    <glyph glyph-name="arrowleft" unicode="&#x2190;" horiz-adv-x="2048" 
d="M799 1198v-194l-297 -297h1310v-144h-1310l297 -297v-194l-563 563z" />
    <glyph glyph-name="arrowup" unicode="&#x2191;" horiz-adv-x="2048" 
d="M1587 881h-194l-297 297v-1311h-144v1311l-297 -297h-194l563 563z" />
    <glyph glyph-name="arrowright" unicode="&#x2192;" horiz-adv-x="2048" 
d="M1812 635l-563 -563v194l297 297h-1310v144h1310l-297 297v194z" />
    <glyph glyph-name="arrowdown" unicode="&#x2193;" horiz-adv-x="2048" 
d="M1024 -133l-563 563h194l297 -297v1311h144v-1311l297 297h194z" />
    <glyph glyph-name="arrowboth" unicode="&#x2194;" horiz-adv-x="2048" 
d="M1812 635l-563 -563v194l297 297h-1044l297 -297v-194l-563 563l563 563v-194l-297 -297h1044l-297 297v194z" />
    <glyph glyph-name="arrowupdn" unicode="&#x2195;" horiz-adv-x="2048" 
d="M1024 -133l-563 563h194l297 -297v1045l-297 -297h-194l563 563l563 -563h-194l-297 297v-1045l297 297h194z" />
    <glyph glyph-name="uni2196" unicode="&#x2196;" horiz-adv-x="2048" 
d="M1608 154l-103 -103l-921 922v-410l-144 -143v799h799l-143 -144h-410z" />
    <glyph glyph-name="uni2197" unicode="&#x2197;" horiz-adv-x="2048" 
d="M1362 1075h-410l-143 144h799v-799l-144 143v410l-921 -922l-103 103z" />
    <glyph glyph-name="uni2198" unicode="&#x2198;" horiz-adv-x="2048" 
d="M440 1116l103 103l921 -922v410l144 143v-799h-799l143 144h410z" />
    <glyph glyph-name="uni2199" unicode="&#x2199;" horiz-adv-x="2048" 
d="M686 195h410l143 -144h-799v799l144 -143v-410l921 922l103 -103z" />
    <glyph glyph-name="minus" unicode="&#x2212;" horiz-adv-x="880" 
d="M819 461h-758v133h758v-133z" />
    <glyph glyph-name="approxequal" unicode="&#x2248;" horiz-adv-x="901" 
d="M236 748q-47 0 -80 -36t-33 -98h-123q0 131 63.5 199t172.5 68q53 0 112.5 -22.5t116.5 -49.5t106.5 -49.5t83.5 -22.5q53 0 88 36t35 97h123q0 -131 -64.5 -198.5t-181.5 -67.5q-49 0 -106 22.5t-114.5 49t-108.5 49.5t-90 23zM236 348q-47 0 -80 -36t-33 -97h-123
q0 131 63.5 198.5t172.5 67.5q53 0 112.5 -22.5t116.5 -49t106.5 -49t83.5 -22.5q53 0 88 36t35 97h123q0 -131 -64.5 -198.5t-181.5 -67.5q-49 0 -106 22.5t-114.5 49t-108.5 49t-90 22.5z" />
    <glyph glyph-name="notequal" unicode="&#x2260;" horiz-adv-x="901" 
d="M481 788l103 246h153l-102 -246h215v-143h-277l-92 -235h369v-144h-430l-103 -256h-153l102 256h-215v144h277l92 235h-369v143h430z" />
    <glyph glyph-name="lessequal" unicode="&#x2264;" horiz-adv-x="890" 
d="M82 143h727v-143h-727v143zM809 420v-154l-717 338v103l717 337v-153l-502 -236z" />
    <glyph glyph-name="greaterequal" unicode="&#x2265;" horiz-adv-x="890" 
d="M809 0h-727v143h727v-143zM584 655l-502 236v153l717 -337v-103l-717 -338v154z" />
    <glyph glyph-name="uni2460" unicode="&#x2460;" horiz-adv-x="2048" 
d="M174 655q0 176 66.5 331t181.5 270.5t270.5 182t331.5 66.5t330.5 -66.5t270.5 -182t182.5 -270.5t66.5 -331t-66.5 -331.5t-182.5 -270t-270.5 -181.5t-330.5 -67t-331.5 67t-270.5 181.5t-181.5 270t-66.5 331.5zM317 655q0 -145 55.5 -274t152 -225.5t225.5 -151.5
t274 -55t274 55t225.5 151.5t152 225.5t55.5 274t-55.5 274.5t-152 225.5t-225.5 151.5t-274 55.5t-274 -55.5t-225.5 -151.5t-152 -225.5t-55.5 -274.5zM1137 1065v-819h-144v655l-123 -82l-71 92l215 154h123z" />
    <glyph glyph-name="uni2461" unicode="&#x2461;" horiz-adv-x="2048" 
d="M1290 379v-133h-532v92l307 328q37 39 59.5 74.5t22.5 88.5q0 47 -35 80t-88 33t-89 -35t-44 -88h-143q4 53 25.5 100.5t58 82t86 54t106.5 19.5t106.5 -19.5t84 -53t55 -78.5t20.5 -95q0 -92 -32.5 -144t-69.5 -91l-205 -215h307zM317 655q0 -145 55.5 -274t152 -225.5
t225.5 -151.5t274 -55t274 55t225.5 151.5t152 225.5t55.5 274t-55.5 274.5t-152 225.5t-225.5 151.5t-274 55.5t-274 -55.5t-225.5 -151.5t-152 -225.5t-55.5 -274.5zM174 655q0 176 66.5 331t181.5 270.5t270.5 182t331.5 66.5t330.5 -66.5t270.5 -182t182.5 -270.5
t66.5 -331t-66.5 -331.5t-182.5 -270t-270.5 -181.5t-330.5 -67t-331.5 67t-270.5 181.5t-181.5 270t-66.5 331.5z" />
    <glyph glyph-name="uni2462" unicode="&#x2462;" horiz-adv-x="2048" 
d="M1178 676q39 -12 71 -35q27 -20 49.5 -56t22.5 -93q0 -109 -79 -182.5t-218 -73.5q-131 0 -206 68.5t-91 176.5h143q8 -39 50.5 -75.5t103.5 -36.5q78 0 116 34.5t38 88.5q0 49 -38 80.5t-116 31.5h-78v123h78q61 0 97 34t36 79q0 39 -36 70.5t-97 31.5t-94 -27.5
t-49 -74.5h-133q4 45 25.5 88t58 75.5t86 52t106.5 19.5q131 0 203.5 -66.5t72.5 -158.5q0 -53 -19 -88t-42 -53q-26 -23 -61 -33zM317 655q0 -145 55.5 -274t152 -225.5t225.5 -151.5t274 -55t274 55t225.5 151.5t152 225.5t55.5 274t-55.5 274.5t-152 225.5t-225.5 151.5
t-274 55.5t-274 -55.5t-225.5 -151.5t-152 -225.5t-55.5 -274.5zM174 655q0 176 66.5 331t181.5 270.5t270.5 182t331.5 66.5t330.5 -66.5t270.5 -182t182.5 -270.5t66.5 -331t-66.5 -331.5t-182.5 -270t-270.5 -181.5t-330.5 -67t-331.5 67t-270.5 181.5t-181.5 270
t-66.5 331.5z" />
    <glyph glyph-name="uni2463" unicode="&#x2463;" horiz-adv-x="2048" 
d="M1270 420h-92v-174h-144v174h-368v112l358 533h154v-512h92v-133zM1034 553v307l-215 -307h215zM317 655q0 -145 55.5 -274t152 -225.5t225.5 -151.5t274 -55t274 55t225.5 151.5t152 225.5t55.5 274t-55.5 274.5t-152 225.5t-225.5 151.5t-274 55.5t-274 -55.5
t-225.5 -151.5t-152 -225.5t-55.5 -274.5zM174 655q0 176 66.5 331t181.5 270.5t270.5 182t331.5 66.5t330.5 -66.5t270.5 -182t182.5 -270.5t66.5 -331t-66.5 -331.5t-182.5 -270t-270.5 -181.5t-330.5 -67t-331.5 67t-270.5 181.5t-181.5 270t-66.5 331.5z" />
    <glyph glyph-name="uni2464" unicode="&#x2464;" horiz-adv-x="2048" 
d="M1044 788q61 0 112.5 -23.5t87.5 -61t56.5 -88t20.5 -103.5q0 -57 -21.5 -107.5t-61.5 -88t-94 -59t-120 -21.5q-61 0 -112.5 19t-90.5 53t-62.5 79t-31.5 94h143q16 -47 54.5 -79.5t99.5 -32.5t107.5 41t46.5 102t-46.5 102t-107.5 41q-37 0 -61.5 -10t-40.5 -20
q-18 -14 -31 -31h-133l61 471h441v-133h-328l-21 -174q14 6 35 14q16 6 41.5 11t56.5 5zM317 655q0 -145 55.5 -274t152 -225.5t225.5 -151.5t274 -55t274 55t225.5 151.5t152 225.5t55.5 274t-55.5 274.5t-152 225.5t-225.5 151.5t-274 55.5t-274 -55.5t-225.5 -151.5
t-152 -225.5t-55.5 -274.5zM174 655q0 176 66.5 331t181.5 270.5t270.5 182t331.5 66.5t330.5 -66.5t270.5 -182t182.5 -270.5t66.5 -331t-66.5 -331.5t-182.5 -270t-270.5 -181.5t-330.5 -67t-331.5 67t-270.5 181.5t-181.5 270t-66.5 331.5z" />
    <glyph glyph-name="uni2465" unicode="&#x2465;" horiz-adv-x="2048" 
d="M1024 236q-61 0 -115.5 23.5t-94.5 62t-63.5 91t-23.5 109.5q0 41 9 77t22 63q12 31 30 55l236 348h154l-174 -256h20q61 0 115.5 -23.5t94.5 -62.5t63.5 -91t23.5 -110q0 -57 -23.5 -109.5t-63.5 -91t-94.5 -62t-115.5 -23.5zM870 522q0 -61 42 -107t112 -46t112 46
t42 107t-42 107.5t-112 46.5t-112 -46.5t-42 -107.5zM317 655q0 -145 55.5 -274t152 -225.5t225.5 -151.5t274 -55t274 55t225.5 151.5t152 225.5t55.5 274t-55.5 274.5t-152 225.5t-225.5 151.5t-274 55.5t-274 -55.5t-225.5 -151.5t-152 -225.5t-55.5 -274.5zM174 655
q0 176 66.5 331t181.5 270.5t270.5 182t331.5 66.5t330.5 -66.5t270.5 -182t182.5 -270.5t66.5 -331t-66.5 -331.5t-182.5 -270t-270.5 -181.5t-330.5 -67t-331.5 67t-270.5 181.5t-181.5 270t-66.5 331.5z" />
    <glyph glyph-name="uni2466" unicode="&#x2466;" horiz-adv-x="2048" 
d="M1300 1065v-109l-337 -710h-144l328 686h-369v133h522zM317 655q0 -145 55.5 -274t152 -225.5t225.5 -151.5t274 -55t274 55t225.5 151.5t152 225.5t55.5 274t-55.5 274.5t-152 225.5t-225.5 151.5t-274 55.5t-274 -55.5t-225.5 -151.5t-152 -225.5t-55.5 -274.5z
M174 655q0 176 66.5 331t181.5 270.5t270.5 182t331.5 66.5t330.5 -66.5t270.5 -182t182.5 -270.5t66.5 -331t-66.5 -331.5t-182.5 -270t-270.5 -181.5t-330.5 -67t-331.5 67t-270.5 181.5t-181.5 270t-66.5 331.5z" />
    <glyph glyph-name="uni2467" unicode="&#x2467;" horiz-adv-x="2048" 
d="M1024 358q70 0 112 39t42 88q0 51 -42 90t-112 39t-112 -38.5t-42 -90.5q0 -49 42 -88t112 -39zM1024 737q53 0 88 33t35 74q0 43 -35 75.5t-88 32.5t-88 -32.5t-35 -75.5q0 -41 35 -74t88 -33zM317 655q0 -145 55.5 -274t152 -225.5t225.5 -151.5t274 -55t274 55
t225.5 151.5t152 225.5t55.5 274t-55.5 274.5t-152 225.5t-225.5 151.5t-274 55.5t-274 -55.5t-225.5 -151.5t-152 -225.5t-55.5 -274.5zM1024 236q-70 0 -125 19t-93 53t-58.5 79t-20.5 94q0 55 21.5 92t50.5 60q31 27 71 43q-33 14 -57 37q-23 20 -39 53t-16 84
q0 92 71.5 158.5t194.5 66.5t194.5 -66.5t71.5 -158.5q0 -51 -17.5 -84t-39.5 -53q-25 -23 -55 -37q39 -16 71 -43q27 -23 49.5 -59.5t22.5 -92.5q0 -49 -20.5 -94t-59.5 -79t-93 -53t-124 -19zM174 655q0 176 66.5 331t181.5 270.5t270.5 182t331.5 66.5t330.5 -66.5
t270.5 -182t182.5 -270.5t66.5 -331t-66.5 -331.5t-182.5 -270t-270.5 -181.5t-330.5 -67t-331.5 67t-270.5 181.5t-181.5 270t-66.5 331.5z" />
    <glyph glyph-name="uni2468" unicode="&#x2468;" horiz-adv-x="2048" 
d="M1024 1075q61 0 115.5 -23.5t94.5 -62.5t63.5 -91t23.5 -110q0 -43 -10.5 -77.5t-20.5 -61.5q-14 -31 -30 -55l-236 -348h-154l174 256h-20q-61 0 -115.5 23.5t-94.5 62.5t-63.5 91t-23.5 109t23.5 109.5t63.5 91.5t94.5 62.5t115.5 23.5zM1731 655q0 145 -55.5 274.5
t-152 225.5t-225.5 151.5t-274 55.5t-274 -55.5t-225.5 -151.5t-152 -225t-55.5 -275q0 -145 55.5 -274t152 -225.5t225.5 -151.5t274 -55t274 55t225.5 151.5t152 225.5t55.5 274zM1874 655q0 -176 -66.5 -331.5t-182.5 -270t-270.5 -181.5t-330.5 -67t-331.5 67
t-270.5 181.5t-181.5 270t-66.5 331.5t66.5 331t181.5 270.5t270.5 182t331.5 66.5t330.5 -66.5t270.5 -182t182.5 -270.5t66.5 -331zM870 788q0 -61 42 -107t112 -46t112 46t42 107t-42 107.5t-112 46.5t-112 -46.5t-42 -107.5z" />
    <glyph glyph-name="uni24EA" unicode="&#x24ea;" horiz-adv-x="2048" 
d="M829 655q0 -145 58.5 -215.5t136.5 -70.5q39 0 74 17t61.5 53t43 89.5t16.5 126.5q0 74 -16.5 127.5t-43 89t-61.5 53t-74 17.5q-78 0 -136.5 -71t-58.5 -216zM1362 655q0 -100 -26.5 -178t-72.5 -132t-107.5 -81.5t-131.5 -27.5t-131.5 27.5t-107.5 81.5t-72.5 132
t-26.5 178t26.5 178t72.5 131.5t107.5 82t131.5 28.5t131.5 -28.5t107.5 -82t72.5 -131.5t26.5 -178zM317 655q0 -145 55.5 -274t152 -225.5t225.5 -151.5t274 -55t274 55t225.5 151.5t152 225.5t55.5 274t-55.5 274.5t-152 225.5t-225.5 151.5t-274 55.5t-274 -55.5
t-225.5 -151.5t-152 -225.5t-55.5 -274.5zM174 655q0 176 66.5 331t181.5 270.5t270.5 182t331.5 66.5t330.5 -66.5t270.5 -182t182.5 -270.5t66.5 -331t-66.5 -331.5t-182.5 -270t-270.5 -181.5t-330.5 -67t-331.5 67t-270.5 181.5t-181.5 270t-66.5 331.5z" />
    <glyph glyph-name="uni24FF" unicode="&#x24ff;" horiz-adv-x="2048" 
d="M829 655q0 145 58.5 216t136.5 71q39 0 74 -17.5t61.5 -53t43 -89t16.5 -127.5t-16.5 -127t-43 -89t-61.5 -53t-74 -17q-78 0 -136.5 70.5t-58.5 215.5zM1362 655q0 100 -26.5 178t-72.5 131.5t-107.5 82t-131.5 28.5t-131.5 -28.5t-107.5 -82t-72.5 -131t-26.5 -178.5
q0 -100 26.5 -178t72.5 -132t107.5 -81.5t131.5 -27.5t131.5 27.5t107.5 81.5t72.5 132t26.5 178zM174 655q0 176 66.5 331t181.5 270.5t270.5 182t331.5 66.5t330.5 -66.5t270.5 -182t182.5 -270.5t66.5 -331t-66.5 -331.5t-182.5 -270t-270.5 -181.5t-330.5 -67t-331.5 67
t-270.5 181.5t-181.5 270t-66.5 331.5z" />
    <glyph glyph-name="uni2776" unicode="&#x2776;" horiz-adv-x="2048" 
d="M174 655q0 176 66.5 331t181.5 270.5t270.5 182t331.5 66.5t330.5 -66.5t270.5 -182t182.5 -270.5t66.5 -331t-66.5 -331.5t-182.5 -270t-270.5 -181.5t-330.5 -67t-331.5 67t-270.5 181.5t-181.5 270t-66.5 331.5zM1014 1065l-215 -154l71 -92l123 82v-655h144v819h-123
z" />
    <glyph glyph-name="uni2777" unicode="&#x2777;" horiz-adv-x="2048" 
d="M983 379l205 215q37 39 69.5 91t32.5 144q0 49 -20.5 94.5t-55 79t-84 53t-106.5 19.5t-106.5 -19.5t-86 -54t-58 -82t-25.5 -100.5h143q8 53 44 88t89 35t88 -32.5t35 -80.5q0 -53 -22.5 -88.5t-59.5 -74.5l-307 -328v-92h532v133h-307zM174 655q0 176 66.5 331
t181.5 270.5t270.5 182t331.5 66.5t330.5 -66.5t270.5 -182t182.5 -270.5t66.5 -331t-66.5 -331.5t-182.5 -270t-270.5 -181.5t-330.5 -67t-331.5 67t-270.5 181.5t-181.5 270t-66.5 331.5z" />
    <glyph glyph-name="uni2778" unicode="&#x2778;" horiz-adv-x="2048" 
d="M1178 676q35 10 61 33q23 18 42 53t19 88q0 92 -72.5 158.5t-203.5 66.5q-57 0 -106.5 -19.5t-86 -52t-58 -75.5t-25.5 -88h133q16 47 49 74.5t94 27.5t97 -31.5t36 -70.5q0 -45 -36 -79t-97 -34h-78v-123h78q78 0 116 -31.5t38 -80.5q0 -53 -38 -88t-116 -35
q-61 0 -103 36.5t-51 75.5h-143q16 -109 91 -177t206 -68q139 0 218 73.5t79 182.5q0 57 -22.5 93t-49.5 56q-32 23 -71 35zM174 655q0 176 66.5 331t181.5 270.5t270.5 182t331.5 66.5t330.5 -66.5t270.5 -182t182.5 -270.5t66.5 -331t-66.5 -331.5t-182.5 -270
t-270.5 -181.5t-330.5 -67t-331.5 67t-270.5 181.5t-181.5 270t-66.5 331.5z" />
    <glyph glyph-name="uni2779" unicode="&#x2779;" horiz-adv-x="2048" 
d="M1270 553h-92v512h-154l-358 -533v-112h368v-174h144v174h92v133zM819 553l215 307v-307h-215zM174 655q0 176 66.5 331t181.5 270.5t270.5 182t331.5 66.5t330.5 -66.5t270.5 -182t182.5 -270.5t66.5 -331t-66.5 -331.5t-182.5 -270t-270.5 -181.5t-330.5 -67t-331.5 67
t-270.5 181.5t-181.5 270t-66.5 331.5z" />
    <glyph glyph-name="uni277A" unicode="&#x277a;" horiz-adv-x="2048" 
d="M1044 788q-31 0 -56 -5t-42 -11l-35 -14l21 174h328v133h-441l-61 -471h133q12 16 31 31q16 10 40.5 20t61.5 10q61 0 107.5 -41t46.5 -102t-46.5 -102t-107.5 -41t-99 32.5t-55 79.5h-143q8 -49 31.5 -94t62.5 -79t90.5 -53t112.5 -19q66 0 120 21.5t94 59t61.5 88
t21.5 107.5q0 53 -20.5 103.5t-56.5 88t-87.5 61t-112.5 23.5zM174 655q0 176 66.5 331t181.5 270.5t270.5 182t331.5 66.5t330.5 -66.5t270.5 -182t182.5 -270.5t66.5 -331t-66.5 -331.5t-182.5 -270t-270.5 -181.5t-330.5 -67t-331.5 67t-270.5 181.5t-181.5 270
t-66.5 331.5z" />
    <glyph glyph-name="uni277B" unicode="&#x277b;" horiz-adv-x="2048" 
d="M1024 236q61 0 115.5 23.5t94.5 62t63.5 91t23.5 109.5t-23.5 109.5t-63.5 91.5t-94.5 62.5t-115.5 23.5h-20l174 256h-154l-236 -348q-18 -25 -30 -55q-12 -27 -21.5 -63t-9.5 -77q0 -57 23.5 -109.5t63.5 -91t94.5 -62t115.5 -23.5zM870 522q0 61 42 107.5t112 46.5
t112 -46t42 -108q0 -61 -42 -107t-112 -46t-112 46t-42 107zM174 655q0 176 66.5 331t181.5 270.5t270.5 182t331.5 66.5t330.5 -66.5t270.5 -182t182.5 -270.5t66.5 -331t-66.5 -331.5t-182.5 -270t-270.5 -181.5t-330.5 -67t-331.5 67t-270.5 181.5t-181.5 270
t-66.5 331.5z" />
    <glyph glyph-name="uni277C" unicode="&#x277c;" horiz-adv-x="2048" 
d="M778 1065v-133h369l-328 -686h144l337 710v109h-522zM174 655q0 176 66.5 331t181.5 270.5t270.5 182t331.5 66.5t330.5 -66.5t270.5 -182t182.5 -270.5t66.5 -331t-66.5 -331.5t-182.5 -270t-270.5 -181.5t-330.5 -67t-331.5 67t-270.5 181.5t-181.5 270t-66.5 331.5z
" />
    <glyph glyph-name="uni277D" unicode="&#x277d;" horiz-adv-x="2048" 
d="M1024 358q-70 0 -112 39t-42 88q0 51 42 90t112 39t112 -38.5t42 -90.5q0 -49 -42 -88t-112 -39zM1024 737q-53 0 -88 33t-35 74q0 43 35 75.5t88 32.5t88 -32.5t35 -75.5q0 -41 -35 -74t-88 -33zM1024 236q70 0 124 19t93 53t59.5 79t20.5 94q0 55 -22.5 92t-49.5 60
q-33 27 -71 43q31 14 55 37q23 20 40 53t17 84q0 92 -71.5 158.5t-194.5 66.5t-194.5 -66.5t-71.5 -158.5q0 -51 16.5 -84t38.5 -53q25 -23 57 -37q-41 -16 -71 -43q-29 -23 -50.5 -59.5t-21.5 -92.5q0 -49 20.5 -94t58.5 -79t93 -53t125 -19zM174 655q0 176 66.5 331
t181.5 270.5t270.5 182t331.5 66.5t330.5 -66.5t270.5 -182t182.5 -270.5t66.5 -331t-66.5 -331.5t-182.5 -270t-270.5 -181.5t-330.5 -67t-331.5 67t-270.5 181.5t-181.5 270t-66.5 331.5z" />
    <glyph glyph-name="uni277E" unicode="&#x277e;" horiz-adv-x="2048" 
d="M1024 1075q-61 0 -115.5 -23.5t-94.5 -62.5t-63.5 -91t-23.5 -110q0 -57 23.5 -109t63.5 -91t94.5 -62.5t115.5 -23.5h20l-174 -256h154l236 348q16 25 30 55q10 27 20.5 61.5t10.5 77.5q0 57 -23.5 109.5t-63.5 91.5t-94.5 62.5t-115.5 23.5zM1874 655
q0 -176 -66.5 -331.5t-182.5 -270t-270.5 -181.5t-330.5 -67t-331.5 67t-270.5 181.5t-181.5 270t-66.5 331.5t66.5 331t181.5 270.5t270.5 182t331.5 66.5t330.5 -66.5t270.5 -182t182.5 -270.5t66.5 -331zM870 788q0 61 42 107.5t112 46.5t112 -46t42 -108q0 -61 -42 -107
t-112 -46t-112 46t-42 107z" />
    <glyph glyph-name="uniF6C3" unicode="&#xf6c3;" horiz-adv-x="327" 
d="M61 -236q0 43 30 73t73 30t72.5 -30t29.5 -73q0 -74 -24.5 -128t-53.5 -89q-35 -41 -75 -69l-31 41q20 18 37 41q14 18 27.5 44.5t17.5 57.5q-43 0 -73 29.5t-30 72.5z" />
    <glyph glyph-name="uniF6D1" unicode="&#xf6d1;" horiz-adv-x="634" 
d="M317 1434q-109 0 -174 62.5t-82 162.5h123q8 -53 44 -88t89 -35t89 35t45 88h122q-16 -100 -81.5 -162.5t-174.5 -62.5z" />
    <glyph glyph-name="uniF6D4" unicode="&#xf6d4;" horiz-adv-x="614" 
d="M307 1065q-100 0 -164.5 66.5t-81.5 158.5h123q8 -53 42 -88t81 -35t81 35t42 88h123q-16 -92 -81 -158.5t-165 -66.5z" />
    <glyph glyph-name="uniFB06" unicode="&#xfb06;" horiz-adv-x="1464" 
d="M737 266q0 -57 -22.5 -107t-63.5 -88t-99 -59.5t-132 -21.5q-154 0 -242 82t-96 204h154q8 -61 53 -102t131 -41q78 0 121 40t43 93q0 51 -36 77t-89 41t-115.5 28.5t-116 40t-89.5 76t-36 137.5q0 53 22.5 101t62.5 85t96.5 58.5t126.5 21.5h30q-4 8 -6 22
q-2 10 -3 28.5t-1 41.5q0 76 27.5 142.5t77 113.5t117 74.5t147.5 27.5t147.5 -26.5t116.5 -73.5t76.5 -110.5t27.5 -137.5v-112h205v-134h-205v-491q0 -78 42 -121t112 -43q20 0 37 4q8 2 14 6v-133q-10 -6 -22 -10q-27 -10 -70 -10q-53 0 -101.5 22.5t-85 62.5t-58 96
t-21.5 126v491h-164v134h72q113 0 112 112q0 92 -62.5 153.5t-162.5 61.5t-162.5 -62.5t-62.5 -162.5q0 -70 20.5 -108.5t47 -72.5t49 -74t26.5 -114h-154q-8 61 -47 97t-116 36q-70 0 -112 -37.5t-42 -84.5q0 -51 36 -77t89 -41.5t115.5 -28.5t116 -39.5t89 -77
t35.5 -136.5z" />
    <glyph glyph-name="lslash.salt" horiz-adv-x="573" 
d="M348 631v-334q0 -78 42 -121t112 -43q20 0 37 4q8 2 14 6v-133q-10 -6 -23 -10q-27 -10 -69 -10q-53 0 -101.5 22.5t-85 62.5t-58 96t-21.5 126v233l-154 -100v154l154 100v606h153v-506l164 107v-154z" />
    <glyph glyph-name="glyph474" horiz-adv-x="1208" 
d="M799 758q92 -16 164 -64q31 -20 60.5 -48t52 -66.5t36.5 -88t14 -112.5q0 -80 -28.5 -149.5t-79.5 -121t-121 -80t-149 -28.5h-113v143h113q92 0 153.5 63.5t61.5 172.5t-61.5 172t-153.5 63h-113v144l239 389h-331q-43 0 -82 -18.5t-69 -49t-47 -71.5t-17 -86v-922h-164
v922q0 74 29.5 140t82 116.5t121 81t146.5 30.5h512v-123z" />
    <glyph glyph-name="a.salt" horiz-adv-x="1054" 
d="M799 461q0 74 -23.5 134t-62.5 103t-91.5 66.5t-109.5 23.5t-109.5 -23.5t-91.5 -66.5t-62.5 -103t-23.5 -134t23.5 -134.5t62.5 -103.5t91.5 -66.5t109.5 -23.5t109.5 23.5t91.5 66.5t62.5 103.5t23.5 134.5zM778 102q-31 -33 -69 -57q-35 -23 -86.5 -39t-120.5 -16
q-88 0 -167 34.5t-137.5 97t-92 148.5t-33.5 191q0 104 33.5 190t92 148.5t137.5 97.5t167 35q70 0 121 -17.5t86 -40.5q39 -25 69 -55l41 103h113v-922h-113z" />
    <glyph glyph-name="uni0443.salt" horiz-adv-x="921" 
d="M20 922h164l277 -707l276 707h164l-502 -1250h-163l143 348z" />
    <glyph glyph-name="l.salt" horiz-adv-x="522" 
d="M297 297q0 -78 42 -121t112 -43q20 0 36 4q8 2 15 6v-133q-10 -6 -23 -10q-27 -10 -69 -10q-53 0 -101.5 22.5t-85.5 62.5t-58.5 96t-21.5 126v993h154v-993z" />
    <glyph glyph-name="y.salt" horiz-adv-x="1044" 
d="M492 20q-74 0 -138.5 30t-114 82t-78 126t-28.5 162v502h154v-502q0 -57 17.5 -104.5t48 -81t71.5 -52t88 -18.5q109 0 177.5 69.5t68.5 186.5v502h153v-891q0 -80 -28.5 -149.5t-80.5 -121t-124 -80t-156 -28.5q-80 0 -143.5 21.5t-110.5 59.5t-78.5 88t-46.5 107h154
q23 -53 74 -93t151 -40q49 0 92 18.5t75 50.5t50.5 75t18.5 92v112q-29 -35 -68 -61q-35 -23 -83.5 -42.5t-114.5 -19.5z" />
    <glyph glyph-name="I.salt" horiz-adv-x="716" 
d="M276 143v1004h-204v143h573v-143h-205v-1004h205v-143h-573v143h204z" />
    <glyph glyph-name="c_t.dlig" horiz-adv-x="1607" 
d="M1065 922q113 0 113 112q0 100 -57.5 157.5t-157.5 57.5t-163 -62.5t-63 -162.5q0 -78 19.5 -128t47 -94t54.5 -91t43 -117h-153q-12 39 -35 73.5t-54.5 61.5t-71.5 43t-85 16q-53 0 -103.5 -23.5t-89.5 -66.5t-61.5 -103t-22.5 -134t22.5 -134.5t61.5 -103.5t89.5 -66.5
t103.5 -23.5q45 0 85 16.5t71.5 43t54 61.5t35.5 74h153q-16 -70 -51 -131.5t-87 -107.5t-118.5 -72.5t-142.5 -26.5q-88 0 -167 34.5t-137.5 97t-92 148.5t-33.5 191q0 104 33.5 190t92 148.5t137.5 97.5t167 35q18 0 35.5 -2t29.5 -4q14 -2 27 -4q-4 12 -6 28
q-2 14 -3 32.5t-1 41.5q0 76 27.5 142.5t76.5 113.5t116.5 74.5t147.5 27.5t146.5 -25.5t114 -71.5t73 -110.5t25.5 -140.5v-112h205v-134h-205v-491q0 -78 42 -121t111 -43q20 0 37 4q8 2 15 6v-133q-10 -6 -23 -10q-27 -10 -70 -10q-53 0 -101 22.5t-85 62.5t-58.5 96
t-21.5 126v491h-164v134h72v0z" />
    <glyph glyph-name="r_f.dlig" horiz-adv-x="1075" 
d="M1024 778h-205v-778h-153v778h-134q-109 0 -177 -69.5t-68 -186.5v-522h-154v922h113l41 -103q29 29 65 51q33 18 81 35t110 17h123v71q0 70 21.5 126.5t58 96t85 62t101.5 22.5q23 0 40 -3t29 -7q12 -6 23 -10v-133q-6 2 -14 4q-6 2 -16.5 4t-20.5 2q-70 0 -112 -43
t-42 -121v-71h205v-144z" />
    <glyph glyph-name="r_t.dlig" horiz-adv-x="1116" 
d="M686 1167h133v-245h205v-144h-205v-481q0 -78 42 -121t112 -43q20 0 37 4q8 2 14 6v-133q-10 -6 -23 -10q-27 -10 -69 -10q-53 0 -101.5 22.5t-85 62.5t-58 96t-21.5 126v481h-134q-109 0 -177 -69.5t-68 -186.5v-522h-154v922h113l41 -103q29 29 65 51q33 18 81 35
t110 17h30q113 0 113 112v133z" />
    <glyph glyph-name="uni0430.salt" horiz-adv-x="1054" 
d="M799 461q0 74 -24 134t-62 103q-39 43 -91 67t-110 23q-57 0 -110 -23q-52 -24 -91 -67t-62 -103q-24 -60 -24 -134t24 -134t62 -104q39 -43 91 -66q52 -24 110 -24q57 0 110 24q52 24 91 66q39 43 62 104q24 60 24 134zM778 102q-31 -33 -69 -57q-35 -23 -86 -39
t-121 -16q-88 0 -167 35t-137 97t-93 148q-34 86 -33 191q0 104 33 190q34 86 93 149q58 62 137 97t167 35q70 0 121 -18q51 -17 86 -40q39 -25 69 -55l41 103h113v-922h-113z" />
    <glyph glyph-name="uni045E.salt" horiz-adv-x="921" 
d="M20 922h164l277 -707l276 707h164l-502 -1250h-163l143 348zM461 1065q-100 0 -165 67t-81 158h123q8 -53 42 -88t81 -35t81 35t42 88h123q-16 -92 -81 -158q-65 -67 -165 -67z" />
    <glyph glyph-name="agrave.salt" horiz-adv-x="1054" 
d="M799 461q0 74 -24 134t-62 103q-39 43 -91 67t-110 23q-57 0 -110 -23q-52 -24 -91 -67t-62 -103q-24 -60 -24 -134t24 -134t62 -104q39 -43 91 -66q52 -24 110 -24q57 0 110 24q52 24 91 66q39 43 62 104q24 60 24 134zM778 102q-31 -33 -69 -57q-35 -23 -86 -39
t-121 -16q-88 0 -167 35t-137 97t-93 148q-34 86 -33 191q0 104 33 190q34 86 93 149q58 62 137 97t167 35q70 0 121 -18q51 -17 86 -40q39 -25 69 -55l41 103h113v-922h-113zM594 1075h-102l-175 246h154z" />
    <glyph glyph-name="aacute.salt" horiz-adv-x="1054" 
d="M799 461q0 74 -24 134t-62 103q-39 43 -91 67t-110 23q-57 0 -110 -23q-52 -24 -91 -67t-62 -103q-24 -60 -24 -134t24 -134t62 -104q39 -43 91 -66q52 -24 110 -24q57 0 110 24q52 24 91 66q39 43 62 104q24 60 24 134zM778 102q-31 -33 -69 -57q-35 -23 -86 -39
t-121 -16q-88 0 -167 35t-137 97t-93 148q-34 86 -33 191q0 104 33 190q34 86 93 149q58 62 137 97t167 35q70 0 121 -18q51 -17 86 -40q39 -25 69 -55l41 103h113v-922h-113zM594 1321h154l-175 -246h-102z" />
    <glyph glyph-name="abreve.salt" horiz-adv-x="1054" 
d="M799 461q0 74 -24 134t-62 103q-39 43 -91 67t-110 23q-57 0 -110 -23q-52 -24 -91 -67t-62 -103q-24 -60 -24 -134t24 -134t62 -104q39 -43 91 -66q52 -24 110 -24q57 0 110 24q52 24 91 66q39 43 62 104q24 60 24 134zM778 102q-31 -33 -69 -57q-35 -23 -86 -39
t-121 -16q-88 0 -167 35t-137 97t-93 148q-34 86 -33 191q0 104 33 190q34 86 93 149q58 62 137 97t167 35q70 0 121 -18q51 -17 86 -40q39 -25 69 -55l41 103h113v-922h-113zM512 1065q-100 0 -165 67t-81 158h123q8 -53 42 -88t81 -35t81 35t42 88h123q-16 -92 -81 -158
q-65 -67 -165 -67z" />
    <glyph glyph-name="acircumflex.salt" horiz-adv-x="1054" 
d="M799 461q0 74 -24 134t-62 103q-39 43 -91 67t-110 23q-57 0 -110 -23q-52 -24 -91 -67t-62 -103q-24 -60 -24 -134t24 -134t62 -104q39 -43 91 -66q52 -24 110 -24q57 0 110 24q52 24 91 66q39 43 62 104q24 60 24 134zM778 102q-31 -33 -69 -57q-35 -23 -86 -39
t-121 -16q-88 0 -167 35t-137 97t-93 148q-34 86 -33 191q0 104 33 190q34 86 93 149q58 62 137 97t167 35q70 0 121 -18q51 -17 86 -40q39 -25 69 -55l41 103h113v-922h-113zM778 1065h-153l-103 143l-102 -143h-154l185 246h143z" />
    <glyph glyph-name="adieresis.salt" horiz-adv-x="1054" 
d="M799 461q0 74 -24 134t-62 103q-39 43 -91 67t-110 23q-57 0 -110 -23q-52 -24 -91 -67t-62 -103q-24 -60 -24 -134t24 -134t62 -104q39 -43 91 -66q52 -24 110 -24q57 0 110 24q52 24 91 66q39 43 62 104q24 60 24 134zM778 102q-31 -33 -69 -57q-35 -23 -86 -39
t-121 -16q-88 0 -167 35t-137 97t-93 148q-34 86 -33 191q0 104 33 190q34 86 93 149q58 62 137 97t167 35q70 0 121 -18q51 -17 86 -40q39 -25 69 -55l41 103h113v-922h-113zM358 1096q-39 0 -65 26q-27 27 -27 66t27 65q27 27 65 27q39 0 66 -27t27 -65q0 -39 -27 -66
q-27 -26 -66 -26zM666 1096q-39 0 -66 26q-27 27 -27 66t27 65q27 27 66 27t65 -27q27 -27 27 -65q0 -39 -27 -66q-26 -26 -65 -26z" />
    <glyph glyph-name="amacron.salt" horiz-adv-x="1054" 
d="M799 461q0 74 -24 134t-62 103q-39 43 -91 67t-110 23q-57 0 -110 -23q-52 -24 -91 -67t-62 -103q-24 -60 -24 -134t24 -134t62 -104q39 -43 91 -66q52 -24 110 -24q57 0 110 24q52 24 91 66q39 43 62 104q24 60 24 134zM778 102q-31 -33 -69 -57q-35 -23 -86 -39
t-121 -16q-88 0 -167 35t-137 97t-93 148q-34 86 -33 191q0 104 33 190q34 86 93 149q58 62 137 97t167 35q70 0 121 -18q51 -17 86 -40q39 -25 69 -55l41 103h113v-922h-113zM778 1116h-491v123h491v-123z" />
    <glyph glyph-name="aogonek.salt" horiz-adv-x="1054" 
d="M778 102q-31 -33 -69 -57q-35 -23 -86.5 -39t-120.5 -16q-88 0 -167 34.5t-137.5 97t-92 148.5t-33.5 191q0 104 33.5 190t92 148.5t137.5 97.5t167 35q70 0 121 -17.5t86 -40.5q39 -25 69 -55l41 103h113v-922h-10q-20 -25 -37 -53q-14 -25 -24.5 -55.5t-10.5 -65.5
q0 -39 26.5 -65.5t65.5 -26.5q16 0 29.5 1t25.5 3t27 6v-82q-14 -4 -27 -6q-12 -2 -25.5 -3t-29.5 -1q-92 0 -143 48t-51 126q0 35 10 65.5t24 55.5q16 29 37 53zM799 461q0 74 -23.5 134t-62.5 103t-91.5 66.5t-109.5 23.5t-109.5 -23.5t-91.5 -66.5t-62.5 -103t-23.5 -134
t23.5 -134.5t62.5 -103.5t91.5 -66.5t109.5 -23.5t109.5 23.5t91.5 66.5t62.5 103.5t23.5 134.5z" />
    <glyph glyph-name="aring.salt" horiz-adv-x="1054" 
d="M799 461q0 74 -24 134t-62 103q-39 43 -91 67t-110 23q-57 0 -110 -23q-52 -24 -91 -67t-62 -103q-24 -60 -24 -134t24 -134t62 -104q39 -43 91 -66q52 -24 110 -24q57 0 110 24q52 24 91 66q39 43 62 104q24 60 24 134zM778 102q-31 -33 -69 -57q-35 -23 -86 -39
t-121 -16q-88 0 -167 35t-137 97t-93 148q-34 86 -33 191q0 104 33 190q34 86 93 149q58 62 137 97t167 35q70 0 121 -18q51 -17 86 -40q39 -25 69 -55l41 103h113v-922h-113zM451 1208q0 -31 20 -51t51 -20t51 20t21 51q0 31 -21 52q-20 20 -51 20t-51 -20q-20 -21 -20 -52
zM686 1208q0 -70 -47 -116q-47 -47 -117 -48q-70 0 -116 48q-47 47 -48 116q0 70 48 117q47 47 116 47q70 0 117 -47t47 -117z" />
    <glyph glyph-name="atilde.salt" horiz-adv-x="1054" 
d="M799 461q0 74 -24 134t-62 103q-39 43 -91 67t-110 23q-57 0 -110 -23q-52 -24 -91 -67t-62 -103q-24 -60 -24 -134t24 -134t62 -104q39 -43 91 -66q52 -24 110 -24q57 0 110 24q52 24 91 66q39 43 62 104q24 60 24 134zM778 102q-31 -33 -69 -57q-35 -23 -86 -39
t-121 -16q-88 0 -167 35t-137 97t-93 148q-34 86 -33 191q0 104 33 190q34 86 93 149q58 62 137 97t167 35q70 0 121 -18q51 -17 86 -40q39 -25 69 -55l41 103h113v-922h-113zM645 1167q31 0 56 31q26 31 26 92h92q0 -117 -52 -176t-122 -59q-47 0 -78 20t-54 46
q-24 26 -45 46q-22 20 -48 21q-31 0 -56 -31q-26 -31 -26 -92h-92q0 117 52 176t122 59q45 0 77 -20t55 -46q24 -26 45 -46q21 -21 48 -21z" />
    <glyph glyph-name="lacute.salt" horiz-adv-x="522" 
d="M297 297q0 -78 42 -121t112 -43q20 0 36 4q8 2 15 6v-133q-10 -6 -23 -10q-27 -10 -69 -10q-53 0 -102 22q-48 23 -85 63t-58 96q-22 56 -22 126v993h154v-993zM287 1690h153l-174 -246h-102z" />
    <glyph glyph-name="lcaron.salt" horiz-adv-x="532" 
d="M297 297q0 -78 42 -121t112 -43q20 0 36 4q8 2 15 6v-133q-10 -6 -23 -10q-27 -10 -69 -10q-53 0 -101.5 22.5t-85.5 62.5t-58.5 96t-21.5 126v993h154v-993zM481 1290h144l-123 -246h-92z" />
    <glyph glyph-name="uni013C.salt" horiz-adv-x="522" 
d="M297 297q0 -78 42 -121t112 -43q20 0 36 4q8 2 15 6v-133q-10 -6 -23 -10q-27 -10 -69 -10q-53 0 -102 22q-48 23 -85 63t-58 96q-22 56 -22 126v993h154v-993zM215 -236q0 43 30 73t72 30q43 0 73 -30t30 -73q0 -74 -25 -128t-53 -89q-35 -41 -76 -69l-30 41
q20 18 36 41q14 18 28 45q13 27 17 57q-43 0 -72 30q-30 29 -30 72z" />
    <glyph glyph-name="Igrave.salt" horiz-adv-x="716" 
d="M276 143v1004h-204v143h573v-143h-205v-1004h205v-143h-573v143h204zM410 1444h-103l-174 246h154z" />
    <glyph glyph-name="Iacute.salt" horiz-adv-x="716" 
d="M276 143v1004h-204v143h573v-143h-205v-1004h205v-143h-573v143h204zM430 1690h154l-174 -246h-103z" />
    <glyph glyph-name="Icircumflex.salt" horiz-adv-x="716" 
d="M276 143v1004h-204v143h573v-143h-205v-1004h205v-143h-573v143h204zM606 1434h-153l-103 143l-102 -143h-154l185 245h143z" />
    <glyph glyph-name="Idieresis.salt" horiz-adv-x="716" 
d="M276 143v1004h-204v143h573v-143h-205v-1004h205v-143h-573v143h204zM205 1464q-39 0 -66 27t-26 65q0 39 26 66q27 27 66 27t65 -27q27 -27 27 -66t-27 -65q-26 -27 -65 -27zM512 1464q-39 0 -66 27t-26 65q0 39 26 66q27 27 66 27t66 -27t26 -66q0 -39 -26 -65
q-27 -27 -66 -27z" />
    <glyph glyph-name="Idotaccent.salt" horiz-adv-x="716" 
d="M276 143v1004h-204v143h573v-143h-205v-1004h205v-143h-573v143h204zM246 1550q0 43 27 71q28 28 69 28q43 0 71 -28t27 -71q0 -41 -27 -68q-28 -28 -71 -28q-41 0 -69 28q-27 27 -27 68z" />
    <glyph glyph-name="Imacron.salt" horiz-adv-x="716" 
d="M276 143v1004h-204v143h573v-143h-205v-1004h205v-143h-573v143h204zM594 1475h-492v122h492v-122z" />
    <glyph glyph-name="Iogonek.salt" horiz-adv-x="716" 
d="M72 0v143h204v1004h-204v143h573v-143h-205v-1004h205v-143q-20 -25 -37 -53q-14 -25 -24.5 -55.5t-10.5 -65.5q0 -39 27 -65.5t66 -26.5q16 0 29.5 1t25.5 3t27 6v-82q-14 -4 -27 -6q-12 -2 -25.5 -3t-29.5 -1q-92 0 -143.5 48t-51.5 126q0 35 10.5 65.5t24.5 55.5
q16 29 37 53h-471z" />
    <glyph glyph-name="yacute.salt" horiz-adv-x="1044" 
d="M492 20q-74 0 -139 30t-113 82q-49 52 -78 126t-29 162v502h154v-502q0 -57 17 -105q17 -47 48 -81t72 -52t88 -18q109 0 177 69q69 70 69 187v502h153v-891q0 -80 -28 -150q-29 -70 -81 -121t-124 -79q-72 -29 -156 -29q-80 0 -143 21q-63 22 -111 60q-47 38 -79 88
t-46 107h154q23 -53 74 -93t151 -40q49 0 92 19q43 18 75 50t50 75t19 92v112q-29 -35 -68 -61q-35 -23 -84 -42q-48 -20 -114 -20zM584 1321h153l-174 -246h-102z" />
    <glyph glyph-name="ydieresis.salt" horiz-adv-x="1044" 
d="M492 20q-74 0 -139 30t-113 82q-49 52 -78 126t-29 162v502h154v-502q0 -57 17 -105q17 -47 48 -81t72 -52t88 -18q109 0 177 69q69 70 69 187v502h153v-891q0 -80 -28 -150q-29 -70 -81 -121t-124 -79q-72 -29 -156 -29q-80 0 -143 21q-63 22 -111 60q-47 38 -79 88
t-46 107h154q23 -53 74 -93t151 -40q49 0 92 19q43 18 75 50t50 75t19 92v112q-29 -35 -68 -61q-35 -23 -84 -42q-48 -20 -114 -20zM358 1096q-39 0 -65 26q-27 27 -27 66t27 65q27 27 65 27q39 0 66 -27t27 -65q0 -39 -27 -66q-27 -26 -66 -26zM666 1096q-39 0 -66 26
q-27 27 -27 66t27 65q27 27 66 27t65 -27q27 -27 27 -65q0 -39 -27 -66q-26 -26 -65 -26z" />
    <glyph glyph-name="zero.tnum" 
d="M164 645q0 -131 29 -227t75 -160q47 -63 108 -94q60 -31 126 -31t126 31t107 94t76 160q29 96 29 227t-29 227t-76 160q-47 63 -107 94t-126 31t-126 -31t-108 -94q-47 -63 -75 -160q-29 -96 -29 -227zM1004 645q0 -158 -41 -279q-41 -122 -111 -206t-160 -127t-190 -43
t-192 43q-91 43 -159 127q-69 84 -110 206t-41 279q0 158 41 280t110 205q69 84 159 127q91 43 192 43q100 0 190 -43t160 -127t111 -205q41 -122 41 -280z" />
    <glyph glyph-name="one.tnum" 
d="M635 1290v-1147h266v-143h-696v143h266v922l-184 -123l-72 123l317 225h103z" />
    <glyph glyph-name="two.tnum" 
d="M911 143v-143h-798v123l512 563q35 37 61 78q23 35 42 81t20 97q0 92 -64 154q-63 61 -172 61t-177 -68q-69 -69 -69 -178h-164q0 80 31 152t86 124t130 83t163 30q88 0 162 -28q74 -29 126 -78t82 -114t29 -138q0 -70 -27 -133q-28 -63 -61 -111q-37 -55 -86 -104
l-409 -451h583z" />
    <glyph glyph-name="three.tnum" 
d="M82 963q8 70 40 131t83 107t122 73t154 26q88 0 162 -28q74 -29 126 -78t82 -114t30 -138q0 -70 -29 -120t-64 -83q-41 -37 -92 -63q61 -27 113 -70q41 -37 77 -98t36 -150q0 -74 -31 -140q-31 -67 -88 -117t-136 -81t-175 -30q-88 0 -161 26q-73 27 -126 73t-87 108
q-34 61 -46 131h164q16 -78 81 -137q66 -58 175 -58q123 0 194 67q72 67 72 158q0 94 -72 160t-194 66h-72v143h61q109 0 172 61t64 154q0 92 -64 154q-63 61 -172 61q-49 0 -91 -16t-73 -43t-49 -62t-22 -73h-164z" />
    <glyph glyph-name="four.tnum" 
d="M942 276h-143v-276h-164v276h-574v134l543 880h195v-870h143v-144zM635 420v635l-389 -635h389z" />
    <glyph glyph-name="five.tnum" 
d="M532 850q84 0 159 -33t130 -90t88 -136t33 -171t-33 -171t-90 -136t-136 -90t-171 -33q-88 0 -161 26q-73 27 -126 73t-87 108q-34 61 -46 131h164q16 -78 82 -137q66 -58 174 -58q57 0 105 21q48 20 84 57t57 90q20 53 20 119q0 131 -75 209t-191 78q-70 0 -117 -25
t-76 -53q-35 -35 -53 -76h-143l82 737h655v-153h-512l-41 -369q25 23 60 41q29 16 70 29q42 12 95 12z" />
    <glyph glyph-name="six.tnum" 
d="M502 -10q-92 0 -172 34t-141 94q-60 60 -94 140t-34 172q0 61 17 117q16 55 39 98q25 49 57 92l369 553h174l-287 -430q10 2 21 4q10 2 22 4t29 2q92 0 172 -33q80 -34 140 -95q60 -60 94 -140t34 -172t-34 -172t-94 -140t-140 -94t-172 -34zM225 430q0 -66 22 -120
t59 -93q38 -39 88 -61q50 -23 108 -23q57 0 107 22t88 61q38 40 60 94t21 120q0 61 -21 114q-22 52 -60 91t-88 60q-50 22 -107 22t-108 -22q-50 -22 -88 -60q-38 -39 -59 -91q-22 -53 -22 -114z" />
    <glyph glyph-name="seven.tnum" 
d="M922 1290v-112l-543 -1178h-174l532 1147h-594v143h779z" />
    <glyph glyph-name="eight.tnum" 
d="M502 -10q-96 0 -175 30q-79 31 -137 82q-57 51 -88 120t-30 147q0 92 34 154q35 62 78 102q49 45 113 71q-51 18 -88 56q-33 31 -59 82q-27 51 -27 129q0 66 29 126t79 107q51 47 121 76t150 28q80 0 149 -28q70 -29 121 -76t80 -107t29 -126q0 -78 -28 -129t-60 -82
q-37 -37 -86 -56q61 -27 112 -71q41 -39 77 -102q36 -62 36 -154q0 -78 -31 -147t-88 -120t-136 -82q-79 -30 -175 -30zM502 614q-123 0 -195 -67q-72 -68 -71 -168q0 -109 71 -177q72 -69 195 -69t194 69q72 69 72 177q0 100 -72 168q-71 67 -194 67zM502 758q45 0 85 16
t68 43q29 27 45 62t17 73q0 43 -17 80q-16 37 -45 65t-68 44q-40 16 -85 16q-47 0 -86 -16t-68 -44t-45 -65t-16 -80q0 -39 16 -73q16 -35 45 -62t68 -43t86 -16z" />
    <glyph glyph-name="nine.tnum" 
d="M502 1300q92 0 172 -33q80 -34 140 -95q60 -60 94 -140t34 -172q0 -61 -17 -118q-17 -56 -40 -97q-25 -51 -56 -92l-368 -553h-174l286 430q-10 -4 -20 -6t-23 -3q-12 -1 -28 -1q-92 0 -172 34t-141 94q-60 60 -94 140t-34 172t34 172t94 140t141 95q80 33 172 33z
M778 860q0 63 -21 119q-22 55 -60 94t-88 62t-107 22q-57 0 -108 -21q-50 -22 -88 -62t-59 -94q-22 -54 -22 -120q0 -61 22 -114q22 -52 59 -91q38 -39 88 -60q50 -22 108 -22q57 0 107 22t88 60q38 39 60 91q21 53 21 114z" />
    <glyph glyph-name="at.case" horiz-adv-x="1515" 
d="M952 391q-25 -37 -59 -63q-29 -23 -71 -42.5t-95 -19.5q-61 0 -116.5 25.5t-98.5 72t-67.5 110t-24.5 140.5q0 76 24.5 140.5t67.5 110.5t98.5 72t116.5 26q53 0 93 -17.5t69 -40.5q31 -25 53 -55l31 102h92v-403q0 -90 32.5 -130t80.5 -40q31 0 57.5 13.5t44.5 43
t29.5 78.5t11.5 121q0 111 -45 211t-121 176t-176 121t-211 45t-211 -45t-176 -123t-121 -182.5t-45 -223.5t45 -223t121 -182t176 -123t211 -45q61 0 113.5 14.5t91.5 30.5q45 20 82 47l61 -102q-49 -29 -104 -51q-47 -20 -110.5 -36t-133.5 -16q-141 0 -266 54.5
t-218.5 147.5t-147.5 218t-54 266t54 266.5t147.5 218.5t218.5 147t266 54t266 -53t218.5 -144t147.5 -212t54 -256q0 -92 -21.5 -160.5t-59.5 -115t-88 -70t-107 -23.5q-59 0 -101.5 19.5t-70.5 42.5q-34 26 -54 63zM543 614q0 -100 59.5 -162.5t145.5 -62.5q90 0 147 59.5
t57 165.5t-57 166t-147 60q-86 0 -145.5 -63t-59.5 -163z" />
    <glyph glyph-name="parenleft.case" horiz-adv-x="542" 
d="M256 614q0 -160 38 -300t85 -251q53 -127 123 -237l-103 -72q-80 109 -143 242q-53 115 -98 271.5t-45 346.5q0 188 45 346t98 273q63 133 143 242l103 -72q-70 -111 -123 -238q-47 -111 -85 -252t-38 -299z" />
    <glyph glyph-name="parenright.case" horiz-adv-x="542" 
d="M287 614q0 158 -38 299.5t-85 251.5q-53 127 -123 238l102 72q80 -109 144 -242q53 -115 98 -272.5t45 -346.5q0 -190 -45 -346.5t-98 -271.5q-63 -133 -144 -242l-102 72q70 111 123 237q47 111 85 251t38 300z" />
    <glyph glyph-name="bracketleft.case" horiz-adv-x="583" 
d="M307 -82h236v-133h-379v1659h379v-133h-236v-1393z" />
    <glyph glyph-name="bracketright.case" horiz-adv-x="583" 
d="M276 1311h-235v133h379v-1659h-379v133h235v1393z" />
    <glyph glyph-name="braceleft.case" horiz-adv-x="614" 
d="M92 676q113 0 113 112v400q0 123 67.5 189.5t198.5 66.5h102v-133h-106q-51 0 -85 -35t-34 -88v-400q0 -53 -19.5 -87.5t-41.5 -53.5q-27 -23 -62 -33q35 -10 62 -32q23 -20 42 -54t19 -88v-399q0 -53 34 -88t85 -35h106v-133h-102q-131 0 -198.5 66.5t-67.5 189.5v399
q0 113 -113 113v123z" />
    <glyph glyph-name="braceright.case" horiz-adv-x="614" 
d="M522 553q-113 0 -112 -113v-399q0 -123 -68 -189.5t-199 -66.5h-102v133h106q51 0 85 35t34 88v399q0 53 19.5 87t42.5 55q27 23 61 32q-35 10 -61 33q-23 18 -42.5 53t-19.5 88v400q0 53 -33.5 88t-85.5 35h-106v133h102q131 0 199 -66.5t68 -189.5v-400
q0 -113 112 -112v-123z" />
    <glyph glyph-name="exclamdown.case" horiz-adv-x="532" 
d="M369 0h-205l41 983h123zM164 1198q0 47 27.5 74.5t74.5 27.5t75 -27.5t28 -74.5t-28 -74.5t-75 -27.5t-74.5 27.5t-27.5 74.5z" />
    <glyph glyph-name="questiondown.case" horiz-adv-x="880" 
d="M61 330q0 82 21.5 136t55.5 95t72 75t71.5 75t55 95t21.5 136v10h164v-10q0 -98 -21.5 -162.5t-55 -110.5t-71.5 -80t-72 -70t-55.5 -80t-21.5 -109q0 -86 54.5 -141.5t140.5 -55.5q100 0 157.5 62.5t57.5 193.5v21h164v-21q0 -193 -104.5 -296t-274.5 -103
q-78 0 -143.5 25.5t-112.5 70.5t-75 107.5t-28 136.5zM543 1198q0 -47 -28 -74.5t-75 -27.5t-74.5 27.5t-27.5 74.5t27.5 74.5t74.5 27.5t75 -27.5t28 -74.5z" />
    <glyph glyph-name="guillemotleft.case" horiz-adv-x="901" 
d="M451 287h-154l-225 327l225 328h154l-226 -328zM829 287h-153l-225 327l225 328h153l-225 -328z" />
    <glyph glyph-name="guillemotright.case" horiz-adv-x="901" 
d="M676 614l-225 328h153l225 -328l-225 -327h-153zM297 614l-225 328h153l226 -328l-226 -327h-153z" />
    <glyph glyph-name="guilsinglleft.case" horiz-adv-x="522" 
d="M451 287h-154l-225 327l225 328h154l-226 -328z" />
    <glyph glyph-name="guilsinglright.case" horiz-adv-x="522" 
d="M297 614l-225 328h153l226 -328l-226 -327h-153z" />
    <glyph glyph-name="hyphen.case" horiz-adv-x="706" 
d="M635 604h-563v133h563v-133z" />
    <glyph glyph-name="endash.case" horiz-adv-x="952" 
d="M881 604h-809v144h809v-144z" />
    <glyph glyph-name="emdash.case" horiz-adv-x="1454" 
d="M1382 604h-1310v144h1310v-144z" />
    <glyph glyph-name="glyph541" horiz-adv-x="3149" 
d="M569 879h-147v-408h-72v408h-145v63h364v-63zM1063 811q66 0 112 -50t46 -122q0 -74 -46.5 -124t-111.5 -50q-59 0 -96 43v-162h-70v459h49l19 -39q16 20 41.5 32.5t56.5 12.5zM1057 528q39 0 67.5 32t28.5 79q0 43 -28.5 74.5t-67.5 31.5q-41 0 -68.5 -31.5t-27.5 -74.5
q0 -47 27.5 -79t68.5 -32zM772 805h76l-158 -389q-33 -70 -100 -70q-14 0 -21 2v58q47 0 64 40l12 33l-129 326h76l90 -238zM1436 811q66 0 110.5 -49t44.5 -121q0 -4 -1 -9t-1 -9v-13h-243q4 -35 29.5 -59.5t60.5 -24.5q25 0 45 8.5t30 26.5h72q-18 -47 -59 -71.5
t-88 -24.5q-66 0 -113 50t-47 124q0 35 12 66.5t33.5 55t51.5 37t63 13.5zM1526 666q-2 35 -30 58.5t-60 23.5q-33 0 -59.5 -21.5t-30.5 -60.5h180zM1923 879h-147v-408h-72v408h-145v63h364v-63zM2417 811q66 0 111.5 -50t45.5 -122q0 -74 -46 -124t-111 -50q-59 0 -97 43
v-162h-69v459h49l18 -39q16 20 42 32.5t57 12.5zM2410 528q39 0 68 32t29 79q0 43 -29 74.5t-68 31.5q-41 0 -68.5 -31.5t-27.5 -74.5q0 -47 27.5 -79t68.5 -32zM2126 805h76l-158 -389q-33 -70 -100 -70q-14 0 -21 2v58q47 0 64 40l12 33l-129 326h76l90 -238zM2789 811
q66 0 111 -49t45 -121q0 -4 -1 -9t-1 -9v-13h-244q4 -35 30 -59.5t60 -24.5q25 0 45.5 8.5t30.5 26.5h72q-18 -47 -59.5 -71.5t-88.5 -24.5q-66 0 -112.5 50t-46.5 124q0 35 12 66.5t33.5 55t51 37t62.5 13.5zM2879 666q-2 35 -29.5 58.5t-60.5 23.5t-59.5 -21.5
t-30.5 -60.5h180z" />
    <glyph glyph-name="bullet.case" horiz-adv-x="778" 
d="M205 686q0 78 53 131t131 53t131 -53t53 -131t-53 -131t-131 -53t-131 53t-53 131z" />
    <glyph glyph-name="periodcentered.case" horiz-adv-x="440" 
d="M123 686q0 47 27.5 74.5t74.5 27.5t75 -27.5t28 -74.5t-28 -74.5t-75 -27.5t-74.5 27.5t-27.5 74.5z" />
    <glyph glyph-name="zero.dnom" horiz-adv-x="614" 
d="M174 297q0 -109 40 -157t93 -48t93 48t40 157t-40 157t-93 48t-93 -48t-40 -157zM553 297q0 -74 -19.5 -130t-53.5 -96t-79 -60.5t-94 -20.5t-94 20.5t-79 60.5t-53.5 96t-19.5 130t19.5 130t53.5 96t79 60.5t94 20.5t94 -20.5t79 -60.5t53.5 -96t19.5 -130z" />
    <glyph glyph-name="one.dnom" horiz-adv-x="419" 
d="M205 594h82v-594h-113v451l-82 -41l-51 82z" />
    <glyph glyph-name="two.dnom" horiz-adv-x="522" 
d="M219 102h242v-102h-400v82l226 235q23 23 42 48.5t19 54.5q0 82 -92 82t-92 -92h-103q0 86 54.5 140t140.5 54q92 0 148.5 -53t56.5 -131q0 -47 -22.5 -77t-39.5 -46z" />
    <glyph glyph-name="three.dnom" horiz-adv-x="542" 
d="M399 317q23 -8 41 -28q16 -16 28.5 -45t12.5 -70q0 -78 -56 -131t-149 -53q-100 0 -157.5 54t-57.5 140h103q0 -37 27.5 -64.5t74.5 -27.5t75 25.5t28 56.5q0 39 -28 65.5t-75 26.5h-53v92h53q39 0 60.5 20.5t21.5 51.5t-21.5 51.5t-60.5 20.5q-92 0 -92 -82h-102
q0 78 54 131t140 53t140.5 -52t54.5 -122q0 -31 -10.5 -52.5t-20.5 -35.5q-15 -17 -31 -25z" />
    <glyph glyph-name="four.dnom" horiz-adv-x="512" 
d="M379 215h72v-102h-72v-113h-113v113h-256v82l246 399h123v-379zM266 215v215l-133 -215h133z" />
    <glyph glyph-name="five.dnom" horiz-adv-x="552" 
d="M297 399q86 0 140.5 -56t54.5 -148q0 -43 -16.5 -80t-45.5 -64.5t-68.5 -44t-85.5 -16.5q-92 0 -145 48t-70 126h113q8 -31 31.5 -51.5t70.5 -20.5t75 27.5t28 75.5q0 53 -27.5 82.5t-75.5 29.5q-47 0 -70.5 -19.5t-31.5 -41.5h-92l41 348h328v-102h-234l-12 -113
q8 4 22 10q10 4 28.5 7t41.5 3z" />
    <glyph glyph-name="six.dnom" horiz-adv-x="532" 
d="M276 399q92 0 148.5 -56t56.5 -148t-56 -148.5t-149 -56.5q-92 0 -148 56t-56 149q0 39 12 75.5t29 65.5q18 35 41 63l133 195h123zM276 297q-37 0 -64.5 -27.5t-27.5 -74.5t27 -75t65 -28q37 0 65 27.5t28 75.5q0 47 -28 74.5t-65 27.5z" />
    <glyph glyph-name="seven.dnom" horiz-adv-x="471" 
d="M82 594h389v-72l-246 -522h-112l235 492h-266v102z" />
    <glyph glyph-name="eight.dnom" horiz-adv-x="532" 
d="M266 -10q-92 0 -148.5 53t-56.5 131q0 39 12.5 66.5t28.5 44.5q18 20 41 32q-18 8 -30 25q-12 14 -21.5 35.5t-9.5 52.5q0 70 53 122t131 52t131.5 -52t53.5 -122q0 -31 -10.5 -52.5t-20.5 -35.5q-14 -16 -31 -25q23 -12 41 -32q16 -16 28.5 -44t12.5 -67
q0 -78 -56.5 -131t-148.5 -53zM266 502q-39 0 -60.5 -20.5t-21.5 -51.5t21.5 -51.5t60.5 -20.5t60.5 20.5t21.5 51.5t-21.5 51.5t-60.5 20.5zM266 266q-39 0 -65.5 -26.5t-26.5 -61.5t26.5 -60.5t65.5 -25.5t65.5 25.5t26.5 60.5t-26.5 61.5t-65.5 26.5z" />
    <glyph glyph-name="nine.dnom" horiz-adv-x="532" 
d="M256 195q-92 0 -148.5 56t-56.5 148t56.5 148.5t148.5 56.5t148.5 -56t56.5 -149q0 -39 -12.5 -75.5t-28.5 -65.5q-18 -35 -41 -63l-133 -195h-123zM256 297q37 0 64.5 27.5t27.5 74.5t-26.5 75t-65.5 28q-37 0 -64.5 -28t-27.5 -75t27.5 -74.5t64.5 -27.5z" />
    <glyph glyph-name="zero.frac" horiz-adv-x="614" 
d="M174 993q0 -109 40 -157t93 -48t93 48.5t40 156.5q0 109 -40 157t-93 48t-93 -48t-40 -157zM553 993q0 -74 -19.5 -130t-53.5 -96t-79 -60.5t-94 -20.5t-94 20.5t-79 60.5t-53.5 96.5t-19.5 129.5q0 74 19.5 130.5t53.5 96.5t79 60t94 20t94 -20t79 -60t53.5 -96.5
t19.5 -130.5z" />
    <glyph glyph-name="one.frac" horiz-adv-x="419" 
d="M205 1290h82v-594h-113v451l-82 -41l-51 82z" />
    <glyph glyph-name="two.frac" horiz-adv-x="522" 
d="M219 799h242v-103h-400v82l226 236q23 23 42 48t19 54q0 82 -92 82t-92 -92h-103q0 86 54.5 140t140.5 54q92 0 148.5 -53t56.5 -131q0 -47 -22.5 -76.5t-39.5 -46.5z" />
    <glyph glyph-name="three.frac" horiz-adv-x="542" 
d="M399 1014q23 -8 41 -29q16 -16 28.5 -45t12.5 -70q0 -78 -56 -131t-149 -53q-100 0 -157.5 54.5t-57.5 140.5h103q0 -37 27.5 -65t74.5 -28t75 26t28 56q0 39 -28 66t-75 27h-53v92h53q39 0 60.5 20.5t21.5 50.5q0 31 -21.5 51.5t-60.5 20.5q-92 0 -92 -82h-102
q0 78 54 131t140 53t140.5 -52t54.5 -122q0 -31 -10.5 -52t-20.5 -36q-15 -16 -31 -24z" />
    <glyph glyph-name="four.frac" horiz-adv-x="512" 
d="M379 911h72v-102h-72v-113h-113v113h-256v82l246 399h123v-379zM266 911v215l-133 -215h133z" />
    <glyph glyph-name="five.frac" horiz-adv-x="552" 
d="M297 1096q86 0 140.5 -56.5t54.5 -148.5q0 -43 -16.5 -80t-45.5 -64.5t-68.5 -44t-85.5 -16.5q-92 0 -145 48t-70 126h113q8 -31 31.5 -51.5t70.5 -20.5t75 28t28 75q0 53 -27.5 83t-75.5 30q-47 0 -70.5 -19.5t-31.5 -42.5h-92l41 348h328v-102h-234l-12 -113q8 4 22 10
q10 4 28.5 7.5t41.5 3.5z" />
    <glyph glyph-name="six.frac" horiz-adv-x="532" 
d="M276 1096q92 0 148.5 -56.5t56.5 -148.5t-56 -148.5t-149 -56.5q-92 0 -148 56.5t-56 148.5q0 39 12 76t29 65q18 35 41 64l133 194h123zM276 993q-37 0 -64.5 -27.5t-27.5 -74.5t27 -75t65 -28q37 0 65 28t28 75t-28 74.5t-65 27.5z" />
    <glyph glyph-name="seven.frac" horiz-adv-x="471" 
d="M82 1290h389v-71l-246 -523h-112l235 492h-266v102z" />
    <glyph glyph-name="eight.frac" horiz-adv-x="532" 
d="M266 686q-92 0 -148.5 53.5t-56.5 130.5q0 39 12.5 67t28.5 44q18 20 41 33q-18 8 -30 24q-12 14 -21.5 36t-9.5 52q0 70 53 122t131 52t131.5 -52t53.5 -122q0 -31 -10.5 -52t-20.5 -36q-14 -16 -31 -24q23 -12 41 -33q16 -16 28.5 -44t12.5 -67q0 -78 -56.5 -131
t-148.5 -53zM266 1198q-39 0 -60.5 -20.5t-21.5 -51.5t21.5 -51t60.5 -20t60.5 20.5t21.5 50.5q0 31 -21.5 51.5t-60.5 20.5zM266 963q-39 0 -65.5 -27t-26.5 -62t26.5 -60.5t65.5 -25.5t65.5 26t26.5 60q0 35 -26.5 62t-65.5 27z" />
    <glyph glyph-name="nine.frac" horiz-adv-x="532" 
d="M256 891q-92 0 -148.5 56.5t-56.5 148.5t56.5 148t148.5 56t148.5 -56t56.5 -148q0 -39 -12.5 -76t-28.5 -66q-18 -35 -41 -63l-133 -195h-123zM256 993q37 0 64.5 28t27.5 75t-26.5 74.5t-65.5 27.5q-37 0 -64.5 -27.5t-27.5 -74.5t27.5 -75t64.5 -28z" />
    <glyph glyph-name="zero.oldstyle" horiz-adv-x="1146" 
d="M276 461q0 -74 24 -134.5t63.5 -103.5t94 -66.5t115.5 -23.5t115.5 23.5t94.5 66.5t63.5 103.5t23.5 134.5t-23.5 134t-63.5 103t-94 66.5t-116 23.5q-61 0 -115.5 -23.5t-94 -66.5t-63.5 -103t-24 -134zM1034 461q0 -100 -35.5 -186.5t-98 -150t-146.5 -99t-181 -35.5
q-96 0 -180 35.5t-146.5 99t-98 149.5t-35.5 187q0 100 35.5 186t98 149.5t146.5 99.5t180 36t180.5 -36t147 -99.5t98 -149.5t35.5 -186z" />
    <glyph glyph-name="one.oldstyle" horiz-adv-x="634" 
d="M471 922v-922h-164v696l-184 -123l-72 123l318 226h102z" />
    <glyph glyph-name="two.oldstyle" horiz-adv-x="942" 
d="M840 143v-143h-738v102l420 297q70 49 107 98.5t37 127.5q0 70 -49.5 116.5t-135.5 46.5q-100 0 -154.5 -49t-70.5 -135h-164q23 147 121 237.5t268 90.5q74 0 137.5 -26.5t110.5 -69.5t73.5 -98.5t26.5 -112.5t-14 -103.5t-42 -84.5t-65.5 -71.5t-82.5 -68.5l-205 -154
h420z" />
    <glyph glyph-name="three.oldstyle" horiz-adv-x="993" 
d="M133 922h727v-103l-317 -399q80 -12 147.5 -44t116.5 -83t76.5 -120t27.5 -153t-30.5 -157.5t-88 -126.5t-136 -84t-175.5 -31q-96 0 -172 26.5t-131 74t-87 111t-40 136.5h164q16 -86 83 -145.5t183 -59.5q123 0 195 70t72 186q0 115 -72 185.5t-195 70.5q-29 0 -49 -3
t-35 -7q-16 -6 -28 -10l-82 82l348 440h-502v144z" />
    <glyph glyph-name="four.oldstyle" horiz-adv-x="993" 
d="M942 0h-143v-369h-164v369h-584v123l563 799h185v-779h143v-143zM635 143v574l-399 -574h399z" />
    <glyph glyph-name="five.oldstyle" horiz-adv-x="1024" 
d="M532 481q84 0 159 -32q75 -33 130 -91q55 -57 88 -136t33 -171t-33 -171t-90 -136t-136 -90t-171 -33q-88 0 -161 27t-126 72q-53 46 -87 108q-34 61 -46 131h164q16 -78 82 -136t174 -59q57 0 105 21q48 20 84 57t57 90q20 53 20 119q0 131 -75 209t-191 78
q-70 0 -117 -25t-76 -53q-35 -35 -53 -76h-143l82 738h655v-154h-512l-41 -369q25 23 60 41q29 16 70 29q42 12 95 12z" />
    <glyph glyph-name="six.oldstyle" 
d="M502 -10q-92 0 -172 34t-141 94q-60 60 -94 140t-34 172q0 61 17 117q16 55 39 98q25 49 57 92l369 553h174l-287 -430q10 2 21 4q10 2 22 4t29 2q92 0 172 -33q80 -34 140 -95q60 -60 94 -140t34 -172t-34 -172t-94 -140t-140 -94t-172 -34zM225 430q0 -66 22 -120
t59 -93q38 -39 88 -61q50 -23 108 -23q57 0 107 22t88 61q38 40 60 94t21 120q0 61 -21 114q-22 52 -60 91t-88 60q-50 22 -107 22t-108 -22q-50 -22 -88 -60q-38 -39 -59 -91q-22 -53 -22 -114z" />
    <glyph glyph-name="seven.oldstyle" horiz-adv-x="901" 
d="M840 911v-112l-543 -1178h-174l532 1147h-594v143h779z" />
    <glyph glyph-name="eight.oldstyle" 
d="M502 -10q-96 0 -175 30q-79 31 -137 82q-57 51 -88 120t-30 147q0 92 34 154q35 62 78 102q49 45 113 71q-51 18 -88 56q-33 31 -59 82q-27 51 -27 129q0 66 29 126t79 107q51 47 121 76t150 28q80 0 149 -28q70 -29 121 -76t80 -107t29 -126q0 -78 -28 -129t-60 -82
q-37 -37 -86 -56q61 -27 112 -71q41 -39 77 -102q36 -62 36 -154q0 -78 -31 -147t-88 -120t-136 -82q-79 -30 -175 -30zM502 614q-123 0 -195 -67q-72 -68 -71 -168q0 -109 71 -177q72 -69 195 -69t194 69q72 69 72 177q0 100 -72 168q-71 67 -194 67zM502 758q45 0 85 16
t68 43q29 27 45 62t17 73q0 43 -17 80q-16 37 -45 65t-68 44q-40 16 -85 16q-47 0 -86 -16t-68 -44t-45 -65t-16 -80q0 -39 16 -73q16 -35 45 -62t68 -43t86 -16z" />
    <glyph glyph-name="nine.oldstyle" 
d="M502 926q92 0 172 -34t140 -94t94 -141q34 -80 34 -172q0 -61 -17 -117t-40 -98q-25 -51 -56 -92l-368 -553h-174l286 430q-10 -4 -20 -6t-23 -3q-12 -1 -28 -1q-92 0 -172 34t-141 94q-60 60 -94 140t-34 172t34 172t94 141q60 60 141 94q80 34 172 34zM778 485
q0 63 -21 119q-22 55 -60 94t-88 62t-107 22q-57 0 -108 -21q-50 -22 -88 -62t-59 -94q-22 -54 -22 -120q0 -61 22 -113t59 -91q38 -39 88 -61t108 -21q57 0 107 21q50 22 88 61t60 91q21 52 21 113z" />
    <glyph glyph-name="zero.tnum.oldstyle" 
d="M205 461q0 -74 23 -134q24 -60 64 -104q40 -43 94 -66q54 -24 116 -24q61 0 115 24t95 66q40 43 63 104q24 60 24 134t-24 134t-63 103q-40 43 -95 67q-54 24 -115 23q-61 0 -116 -23q-54 -24 -94 -67t-64 -103q-23 -60 -23 -134zM963 461q0 -100 -36 -187
q-36 -86 -99 -149q-62 -63 -146 -99t-180 -36t-180 36t-147 99q-62 63 -98 149t-36 187q0 100 36 186t98 150q62 63 147 99q84 36 180 36t180 -36t146 -99t99 -150q36 -86 36 -186z" />
    <glyph glyph-name="one.tnum.oldstyle" 
d="M635 922v-779h266v-143h-696v143h266v553l-184 -123l-72 123l317 226h103z" />
    <glyph glyph-name="two.tnum.oldstyle" 
d="M881 143v-143h-738v102l420 297q70 49 107 99q37 49 37 127q0 70 -50 116q-49 47 -135 47q-100 0 -154 -49t-71 -135h-164q23 147 121 238q98 90 268 90q74 0 137 -27t111 -69q47 -43 74 -99q27 -55 26 -112q0 -57 -14 -104q-14 -46 -42 -84t-65 -71q-38 -34 -83 -69
l-205 -154h420z" />
    <glyph glyph-name="three.tnum.oldstyle" 
d="M143 922h727v-103l-317 -399q80 -12 147 -44q68 -32 117 -83t77 -120t28 -153t-31 -157q-31 -74 -88 -127t-136 -84t-175 -31t-173 27q-76 27 -131 73q-55 47 -87 111q-32 63 -40 137h164q16 -86 83 -145t184 -60q123 0 194 70q72 70 72 186q0 115 -72 186t-194 70
q-29 0 -50 -3q-20 -3 -34 -7q-16 -6 -29 -10l-82 82l348 440h-502v144z" />
    <glyph glyph-name="four.tnum.oldstyle" 
d="M952 0h-143v-369h-164v369h-584v123l564 799h184v-779h143v-143zM645 143v574l-399 -574h399z" />
    <glyph glyph-name="five.tnum.oldstyle" 
d="M522 471q84 0 159 -33t130 -90t88 -136t33 -171t-33 -171t-90 -136t-136 -90t-171 -33q-88 0 -161 27t-126 72q-53 46 -87 108q-34 61 -46 131h164q16 -78 82 -136t174 -59q57 0 105 21q48 20 84 57t57 90q20 53 20 119q0 131 -75 209t-191 78q-70 0 -117 -25t-76 -53
q-35 -35 -53 -76h-143l82 737h655v-153h-512l-41 -369q25 23 59 41q29 16 71 29q42 12 95 12z" />
    <glyph glyph-name="six.tnum.oldstyle" 
d="M502 -10q-92 0 -172 34t-141 94q-60 60 -94 140t-34 172q0 61 17 117q16 55 39 98q25 49 57 92l369 553h174l-287 -430q10 2 21 4q10 2 22 4t29 2q92 0 172 -33q80 -34 140 -95q60 -60 94 -140t34 -172t-34 -172t-94 -140t-140 -94t-172 -34zM225 430q0 -66 22 -120
t59 -93q38 -39 88 -61q50 -23 108 -23q57 0 107 22t88 61q38 40 60 94t21 120q0 61 -21 114q-22 52 -60 91t-88 60q-50 22 -107 22t-108 -22q-50 -22 -88 -60q-38 -39 -59 -91q-22 -53 -22 -114z" />
    <glyph glyph-name="seven.tnum.oldstyle" 
d="M891 909v-112l-543 -1178h-174l533 1147h-594v143h778z" />
    <glyph glyph-name="eight.tnum.oldstyle" 
d="M502 -10q-96 0 -175 30q-79 31 -137 82q-57 51 -88 120t-30 147q0 92 34 154q35 62 78 102q49 45 113 71q-51 18 -88 56q-33 31 -59 82q-27 51 -27 129q0 66 29 126t79 107q51 47 121 76t150 28q80 0 149 -28q70 -29 121 -76t80 -107t29 -126q0 -78 -28 -129t-60 -82
q-37 -37 -86 -56q61 -27 112 -71q41 -39 77 -102q36 -62 36 -154q0 -78 -31 -147t-88 -120t-136 -82q-79 -30 -175 -30zM502 614q-123 0 -195 -67q-72 -68 -71 -168q0 -109 71 -177q72 -69 195 -69t194 69q72 69 72 177q0 100 -72 168q-71 67 -194 67zM502 758q45 0 85 16
t68 43q29 27 45 62t17 73q0 43 -17 80q-16 37 -45 65t-68 44q-40 16 -85 16q-47 0 -86 -16t-68 -44t-45 -65t-16 -80q0 -39 16 -73q16 -35 45 -62t68 -43t86 -16z" />
    <glyph glyph-name="nine.tnum.oldstyle" 
d="M502 926q92 0 172 -34t140 -94t94 -141q34 -80 34 -172q0 -61 -17 -117t-40 -98q-25 -51 -56 -92l-368 -553h-174l286 430q-10 -4 -20 -6t-23 -3q-12 -1 -28 -1q-92 0 -172 34t-141 94q-60 60 -94 140t-34 172t34 172t94 141q60 60 141 94q80 34 172 34zM778 485
q0 63 -21 119q-22 55 -60 94t-88 62t-107 22q-57 0 -108 -21q-50 -22 -88 -62t-59 -94q-22 -54 -22 -120q0 -61 22 -113t59 -91q38 -39 88 -61t108 -21q57 0 107 21q50 22 88 61t60 91q21 52 21 113z" />
    <glyph glyph-name="plus.case" horiz-adv-x="901" 
d="M379 225v338h-318v133h318v338h143v-338h318v-133h-318v-338h-143z" />
    <glyph glyph-name="less.case" horiz-adv-x="901" 
d="M809 266v-153l-717 389v102l717 389v-153l-543 -287z" />
    <glyph glyph-name="equal.case" horiz-adv-x="890" 
d="M829 891v-143h-768v143h768zM61 512h768v-143h-768v143z" />
    <glyph glyph-name="greater.case" horiz-adv-x="901" 
d="M635 553l-543 287v153l717 -389v-102l-717 -389v153z" />
    <glyph glyph-name="asciitilde.case" horiz-adv-x="901" 
d="M236 655q-47 0 -80 -35q-33 -36 -33 -98h-123q0 131 63 199t173 67q53 0 112 -22q59 -23 117 -49q57 -27 106 -49q49 -23 84 -23q53 0 88 36t35 97h123q0 -131 -64 -198q-65 -68 -182 -68q-49 0 -106 23t-115 49q-57 27 -108 49t-90 22z" />
    </font>
</defs>
</svg>
